M48
; DRILL file KiCad 10.0.0 date 2026-03-26T22:17:32
; FORMAT={-:-/ absolute / metric / decimal}
; #@! TF.CreationDate,2026-03-26T22:17:32-04:00
; #@! TF.GenerationSoftware,Kicad,Pcbnew,10.0.0
; #@! TF.FileFunction,Plated,1,2,PTH
FMAT,2
METRIC
; #@! TA.AperFunction,Plated,PTH,ComponentDrill
T1C0.762
; #@! TA.AperFunction,Plated,PTH,ComponentDrill
T2C0.900
; #@! TA.AperFunction,Plated,PTH,ComponentDrill
T3C1.020
; #@! TA.AperFunction,Plated,PTH,ComponentDrill
T4C1.600
; #@! TA.AperFunction,Plated,PTH,ComponentDrill
T5C2.410
%
G90
G05
T1
X168.57Y-78.75
X171.11Y-78.75
X173.65Y-78.75
T2
X117.72Y-75.98
X117.72Y-81.06
X135.5Y-75.98
X135.5Y-101.38
X135.5Y-106.46
X143.37Y-106.39
X148.45Y-106.39
X168.77Y-88.61
X173.85Y-88.61
X173.85Y-106.39
T3
X121.415Y-116.815
X124.415Y-116.815
X127.415Y-116.815
X130.415Y-116.815
X166.73Y-116.815
X169.73Y-116.815
X172.73Y-116.815
X175.73Y-116.815
X183.925Y-88.5
X183.925Y-91.5
X183.925Y-94.5
X183.925Y-97.5
T4
X142.86Y-70.2
X142.86Y-77.5
X152.11Y-70.2
X152.11Y-77.5
X161.36Y-69.97
X161.36Y-77.5
T5
X119.265Y-116.815
X132.565Y-116.815
X164.58Y-116.815
X177.88Y-116.815
X183.925Y-86.35
X183.925Y-99.65
M30
