%TF.GenerationSoftware,KiCad,Pcbnew,10.0.0*%
%TF.CreationDate,2026-03-27T10:52:32-04:00*%
%TF.ProjectId,power_Circuit,706f7765-725f-4436-9972-637569742e6b,rev?*%
%TF.SameCoordinates,Original*%
%TF.FileFunction,Soldermask,Bot*%
%TF.FilePolarity,Negative*%
%FSLAX46Y46*%
G04 Gerber Fmt 4.6, Leading zero omitted, Abs format (unit mm)*
G04 Created by KiCad (PCBNEW 10.0.0) date 2026-03-27 10:52:32*
%MOMM*%
%LPD*%
G01*
G04 APERTURE LIST*
G04 Aperture macros list*
%AMRoundRect*
0 Rectangle with rounded corners*
0 $1 Rounding radius*
0 $2 $3 $4 $5 $6 $7 $8 $9 X,Y pos of 4 corners*
0 Add a 4 corners polygon primitive as box body*
4,1,4,$2,$3,$4,$5,$6,$7,$8,$9,$2,$3,0*
0 Add four circle primitives for the rounded corners*
1,1,$1+$1,$2,$3*
1,1,$1+$1,$4,$5*
1,1,$1+$1,$6,$7*
1,1,$1+$1,$8,$9*
0 Add four rect primitives between the rounded corners*
20,1,$1+$1,$2,$3,$4,$5,0*
20,1,$1+$1,$4,$5,$6,$7,0*
20,1,$1+$1,$6,$7,$8,$9,0*
20,1,$1+$1,$8,$9,$2,$3,0*%
G04 Aperture macros list end*
%ADD10C,1.520000*%
%ADD11R,1.520000X1.520000*%
%ADD12C,1.020000*%
%ADD13C,2.200000*%
%ADD14R,1.900000X1.900000*%
%ADD15C,4.500000*%
%ADD16RoundRect,0.102000X0.704000X-0.704000X0.704000X0.704000X-0.704000X0.704000X-0.704000X-0.704000X0*%
%ADD17C,1.612000*%
%ADD18R,1.270000X1.270000*%
%ADD19C,1.270000*%
%ADD20C,2.560000*%
%ADD21R,1.170000X1.170000*%
%ADD22C,1.170000*%
%ADD23RoundRect,0.102000X-0.704000X-0.704000X0.704000X-0.704000X0.704000X0.704000X-0.704000X0.704000X0*%
G04 APERTURE END LIST*
D10*
%TO.C,J30*%
X180700000Y-79150000D03*
D11*
X183700000Y-79150000D03*
D12*
X179760000Y-76150000D03*
X179760000Y-82150000D03*
%TD*%
D13*
%TO.C,H12*%
X184925000Y-117000000D03*
%TD*%
D14*
%TO.C,TP75*%
X152110000Y-77500000D03*
%TD*%
%TO.C,TP72*%
X142860000Y-70200000D03*
%TD*%
%TO.C,TP74*%
X152110000Y-70200000D03*
%TD*%
%TO.C,TP71*%
X161360000Y-69970000D03*
%TD*%
D15*
%TO.C,PS1*%
X126610000Y-99440000D03*
X126610000Y-83000000D03*
D16*
X135500000Y-106460000D03*
D17*
X135500000Y-101380000D03*
X135500000Y-75980000D03*
X117720000Y-75980000D03*
X117720000Y-81060000D03*
%TD*%
D18*
%TO.C,U5*%
X167750000Y-78750000D03*
D19*
X170290000Y-78750000D03*
X172830000Y-78750000D03*
%TD*%
D14*
%TO.C,TP73*%
X142860000Y-77500000D03*
%TD*%
D13*
%TO.C,H10*%
X111610000Y-117000000D03*
%TD*%
D20*
%TO.C,J25*%
X119265350Y-116815000D03*
X132565350Y-116815000D03*
D21*
X130415350Y-116815000D03*
D22*
X127415350Y-116815000D03*
X124415350Y-116815000D03*
X121415350Y-116815000D03*
%TD*%
D20*
%TO.C,J26*%
X183925000Y-107500000D03*
X183925000Y-94200000D03*
D21*
X183925000Y-96350000D03*
D22*
X183925000Y-99350000D03*
X183925000Y-102350000D03*
X183925000Y-105350000D03*
%TD*%
D20*
%TO.C,J27*%
X164580350Y-116815000D03*
X177880350Y-116815000D03*
D21*
X175730350Y-116815000D03*
D22*
X172730350Y-116815000D03*
X169730350Y-116815000D03*
X166730350Y-116815000D03*
%TD*%
D13*
%TO.C,H9*%
X111610000Y-71000000D03*
%TD*%
D14*
%TO.C,TP70*%
X161360000Y-77500000D03*
%TD*%
D13*
%TO.C,H11*%
X185110000Y-71000000D03*
%TD*%
D15*
%TO.C,PS2*%
X150390000Y-97500000D03*
X166830000Y-97500000D03*
D23*
X143370000Y-106390000D03*
D17*
X148450000Y-106390000D03*
X173850000Y-106390000D03*
X173850000Y-88610000D03*
X168770000Y-88610000D03*
%TD*%
M02*
