%TF.GenerationSoftware,KiCad,Pcbnew,10.0.0*%
%TF.CreationDate,2026-03-27T12:44:46-04:00*%
%TF.ProjectId,Full_Bridge_Circuit,46756c6c-5f42-4726-9964-67655f436972,rev?*%
%TF.SameCoordinates,Original*%
%TF.FileFunction,Soldermask,Top*%
%TF.FilePolarity,Negative*%
%FSLAX46Y46*%
G04 Gerber Fmt 4.6, Leading zero omitted, Abs format (unit mm)*
G04 Created by KiCad (PCBNEW 10.0.0) date 2026-03-27 12:44:46*
%MOMM*%
%LPD*%
G01*
G04 APERTURE LIST*
G04 Aperture macros list*
%AMRoundRect*
0 Rectangle with rounded corners*
0 $1 Rounding radius*
0 $2 $3 $4 $5 $6 $7 $8 $9 X,Y pos of 4 corners*
0 Add a 4 corners polygon primitive as box body*
4,1,4,$2,$3,$4,$5,$6,$7,$8,$9,$2,$3,0*
0 Add four circle primitives for the rounded corners*
1,1,$1+$1,$2,$3*
1,1,$1+$1,$4,$5*
1,1,$1+$1,$6,$7*
1,1,$1+$1,$8,$9*
0 Add four rect primitives between the rounded corners*
20,1,$1+$1,$2,$3,$4,$5,0*
20,1,$1+$1,$4,$5,$6,$7,0*
20,1,$1+$1,$6,$7,$8,$9,0*
20,1,$1+$1,$8,$9,$2,$3,0*%
G04 Aperture macros list end*
%ADD10R,0.650000X1.950000*%
%ADD11C,1.020000*%
%ADD12R,1.520000X1.520000*%
%ADD13C,1.520000*%
%ADD14RoundRect,0.237500X-0.237500X0.300000X-0.237500X-0.300000X0.237500X-0.300000X0.237500X0.300000X0*%
%ADD15RoundRect,0.250000X-0.475000X0.337500X-0.475000X-0.337500X0.475000X-0.337500X0.475000X0.337500X0*%
%ADD16RoundRect,0.250000X-0.625000X0.400000X-0.625000X-0.400000X0.625000X-0.400000X0.625000X0.400000X0*%
%ADD17RoundRect,0.250000X0.625000X-0.400000X0.625000X0.400000X-0.625000X0.400000X-0.625000X-0.400000X0*%
%ADD18RoundRect,0.237500X0.237500X-0.300000X0.237500X0.300000X-0.237500X0.300000X-0.237500X-0.300000X0*%
%ADD19RoundRect,0.150000X-0.512500X-0.150000X0.512500X-0.150000X0.512500X0.150000X-0.512500X0.150000X0*%
%ADD20RoundRect,0.250000X0.650000X-0.412500X0.650000X0.412500X-0.650000X0.412500X-0.650000X-0.412500X0*%
%ADD21RoundRect,0.250000X-0.650000X0.412500X-0.650000X-0.412500X0.650000X-0.412500X0.650000X0.412500X0*%
%ADD22C,2.200000*%
%ADD23RoundRect,0.250000X0.475000X-0.337500X0.475000X0.337500X-0.475000X0.337500X-0.475000X-0.337500X0*%
%ADD24R,1.900000X1.900000*%
%ADD25R,2.286000X4.064000*%
%ADD26O,2.286000X4.064000*%
%ADD27C,2.560000*%
%ADD28R,1.170000X1.170000*%
%ADD29C,1.170000*%
%ADD30C,1.574800*%
G04 APERTURE END LIST*
D10*
%TO.C,U3*%
X149055000Y-59050000D03*
X150325000Y-59050000D03*
X151595000Y-59050000D03*
X152865000Y-59050000D03*
X154135000Y-59050000D03*
X155405000Y-59050000D03*
X156675000Y-59050000D03*
X157945000Y-59050000D03*
X157945000Y-68500000D03*
X156675000Y-68500000D03*
X155405000Y-68500000D03*
X154135000Y-68500000D03*
X152865000Y-68500000D03*
X151595000Y-68500000D03*
X150325000Y-68500000D03*
X149055000Y-68500000D03*
%TD*%
D11*
%TO.C,J29*%
X180075000Y-50353250D03*
X180075000Y-56353250D03*
D12*
X176135000Y-53353250D03*
D13*
X179135000Y-53353250D03*
%TD*%
D14*
%TO.C,C28*%
X124637500Y-130937500D03*
X124637500Y-132662500D03*
%TD*%
D15*
%TO.C,C37*%
X120495000Y-72137500D03*
X120495000Y-74212500D03*
%TD*%
D16*
%TO.C,R32*%
X130695000Y-45875000D03*
X130695000Y-48975000D03*
%TD*%
D17*
%TO.C,R7*%
X127737500Y-114600000D03*
X127737500Y-111500000D03*
%TD*%
D18*
%TO.C,C41*%
X154895000Y-56017500D03*
X154895000Y-54292500D03*
%TD*%
D17*
%TO.C,R15*%
X120037500Y-133000000D03*
X120037500Y-129900000D03*
%TD*%
D16*
%TO.C,R28*%
X153645000Y-45925000D03*
X153645000Y-49025000D03*
%TD*%
D17*
%TO.C,R19*%
X132445000Y-75295000D03*
X132445000Y-72195000D03*
%TD*%
D14*
%TO.C,C25*%
X155600000Y-131150000D03*
X155600000Y-132875000D03*
%TD*%
D16*
%TO.C,R25*%
X150845000Y-45925000D03*
X150845000Y-49025000D03*
%TD*%
%TO.C,R20*%
X159095000Y-72175000D03*
X159095000Y-75275000D03*
%TD*%
D15*
%TO.C,C30*%
X122237500Y-130992500D03*
X122237500Y-133067500D03*
%TD*%
D19*
%TO.C,D5*%
X158307500Y-80675000D03*
X158307500Y-82575000D03*
X160582500Y-81625000D03*
%TD*%
D14*
%TO.C,C32*%
X128437500Y-130937500D03*
X128437500Y-132662500D03*
%TD*%
D17*
%TO.C,R17*%
X149600000Y-141500000D03*
X149600000Y-138400000D03*
%TD*%
%TO.C,R10*%
X150200000Y-115100000D03*
X150200000Y-112000000D03*
%TD*%
D16*
%TO.C,R6*%
X147800000Y-112000000D03*
X147800000Y-115100000D03*
%TD*%
D20*
%TO.C,C21*%
X125387500Y-114562500D03*
X125387500Y-111437500D03*
%TD*%
%TO.C,C45*%
X148845000Y-55887500D03*
X148845000Y-52762500D03*
%TD*%
D21*
%TO.C,C39*%
X127445000Y-72212500D03*
X127445000Y-75337500D03*
%TD*%
D20*
%TO.C,C18*%
X157300000Y-115082500D03*
X157300000Y-111957500D03*
%TD*%
D15*
%TO.C,C38*%
X147345000Y-72117500D03*
X147345000Y-74192500D03*
%TD*%
D18*
%TO.C,C46*%
X129645000Y-55930000D03*
X129645000Y-54205000D03*
%TD*%
D17*
%TO.C,R11*%
X156400000Y-141550000D03*
X156400000Y-138450000D03*
%TD*%
D16*
%TO.C,R24*%
X156745000Y-72175000D03*
X156745000Y-75275000D03*
%TD*%
D17*
%TO.C,R18*%
X123737500Y-140800000D03*
X123737500Y-137700000D03*
%TD*%
%TO.C,R8*%
X122987500Y-114550000D03*
X122987500Y-111450000D03*
%TD*%
D22*
%TO.C,H28*%
X178895000Y-43625000D03*
%TD*%
D16*
%TO.C,R30*%
X127945000Y-45925000D03*
X127945000Y-49025000D03*
%TD*%
D17*
%TO.C,R13*%
X130187500Y-140850000D03*
X130187500Y-137750000D03*
%TD*%
D21*
%TO.C,C35*%
X122695000Y-72212500D03*
X122695000Y-75337500D03*
%TD*%
%TO.C,C36*%
X149645000Y-72192500D03*
X149645000Y-75317500D03*
%TD*%
D14*
%TO.C,C23*%
X151000000Y-131187500D03*
X151000000Y-132912500D03*
%TD*%
D16*
%TO.C,R5*%
X120637500Y-111450000D03*
X120637500Y-114550000D03*
%TD*%
D15*
%TO.C,C33*%
X130237500Y-130992500D03*
X130237500Y-133067500D03*
%TD*%
D16*
%TO.C,R29*%
X134245000Y-56025000D03*
X134245000Y-59125000D03*
%TD*%
%TO.C,R23*%
X151995000Y-72175000D03*
X151995000Y-75275000D03*
%TD*%
%TO.C,R31*%
X156445000Y-45925000D03*
X156445000Y-49025000D03*
%TD*%
D23*
%TO.C,C20*%
X159500000Y-115157500D03*
X159500000Y-113082500D03*
%TD*%
D15*
%TO.C,C26*%
X157450000Y-131225000D03*
X157450000Y-133300000D03*
%TD*%
D19*
%TO.C,D2*%
X134250000Y-106450000D03*
X134250000Y-108350000D03*
X136525000Y-107400000D03*
%TD*%
D21*
%TO.C,C27*%
X159650000Y-131287500D03*
X159650000Y-134412500D03*
%TD*%
D16*
%TO.C,R21*%
X125095000Y-72195000D03*
X125095000Y-75295000D03*
%TD*%
D20*
%TO.C,C22*%
X152550000Y-115082500D03*
X152550000Y-111957500D03*
%TD*%
D18*
%TO.C,C42*%
X153045000Y-56017500D03*
X153045000Y-54292500D03*
%TD*%
D14*
%TO.C,C24*%
X152500000Y-131187500D03*
X152500000Y-132912500D03*
%TD*%
D22*
%TO.C,H27*%
X178895000Y-142875000D03*
%TD*%
D18*
%TO.C,C50*%
X125645000Y-55930000D03*
X125645000Y-54205000D03*
%TD*%
D23*
%TO.C,C47*%
X157345000Y-55962500D03*
X157345000Y-53887500D03*
%TD*%
D18*
%TO.C,C43*%
X150845000Y-56017500D03*
X150845000Y-54292500D03*
%TD*%
D16*
%TO.C,R22*%
X129795000Y-72195000D03*
X129795000Y-75295000D03*
%TD*%
D22*
%TO.C,H25*%
X103745000Y-143025000D03*
%TD*%
D15*
%TO.C,C29*%
X148700000Y-131212500D03*
X148700000Y-133287500D03*
%TD*%
D23*
%TO.C,C51*%
X121245000Y-55875000D03*
X121245000Y-53800000D03*
%TD*%
%TO.C,C44*%
X146645000Y-55962500D03*
X146645000Y-53887500D03*
%TD*%
%TO.C,C19*%
X132337500Y-114587500D03*
X132337500Y-112512500D03*
%TD*%
D21*
%TO.C,C34*%
X132437500Y-131067500D03*
X132437500Y-134192500D03*
%TD*%
D16*
%TO.C,R26*%
X160345000Y-55825000D03*
X160345000Y-58925000D03*
%TD*%
D23*
%TO.C,C48*%
X131945000Y-55875000D03*
X131945000Y-53800000D03*
%TD*%
D22*
%TO.C,H26*%
X103895000Y-43625000D03*
%TD*%
D20*
%TO.C,C52*%
X123545000Y-55800000D03*
X123545000Y-52675000D03*
%TD*%
D14*
%TO.C,C31*%
X126237500Y-130937500D03*
X126237500Y-132662500D03*
%TD*%
D17*
%TO.C,R16*%
X126937500Y-140900000D03*
X126937500Y-137800000D03*
%TD*%
D19*
%TO.C,D4*%
X132157500Y-80525000D03*
X132157500Y-82425000D03*
X134432500Y-81475000D03*
%TD*%
%TO.C,D3*%
X159912500Y-106900000D03*
X159912500Y-108800000D03*
X162187500Y-107850000D03*
%TD*%
D17*
%TO.C,R12*%
X146500000Y-134400000D03*
X146500000Y-131300000D03*
%TD*%
D21*
%TO.C,C40*%
X154395000Y-72192500D03*
X154395000Y-75317500D03*
%TD*%
D17*
%TO.C,R9*%
X154950000Y-115100000D03*
X154950000Y-112000000D03*
%TD*%
D16*
%TO.C,R27*%
X125345000Y-45925000D03*
X125345000Y-49025000D03*
%TD*%
D20*
%TO.C,C17*%
X130087500Y-114562500D03*
X130087500Y-111437500D03*
%TD*%
D18*
%TO.C,C49*%
X127695000Y-55930000D03*
X127695000Y-54205000D03*
%TD*%
D17*
%TO.C,R14*%
X153100000Y-141750000D03*
X153100000Y-138650000D03*
%TD*%
D24*
%TO.C,TP26*%
X144945000Y-140725000D03*
%TD*%
%TO.C,TP32*%
X179995000Y-108425000D03*
%TD*%
D25*
%TO.C,Q4*%
X122192100Y-87242500D03*
D26*
X127272100Y-87242500D03*
X129812100Y-87242500D03*
X132352100Y-87242500D03*
%TD*%
D27*
%TO.C,J14*%
X107715000Y-49650000D03*
X107715000Y-62950000D03*
D28*
X107715000Y-60800000D03*
D29*
X107715000Y-57800000D03*
X107715000Y-54800000D03*
X107715000Y-51800000D03*
%TD*%
D25*
%TO.C,Q3*%
X149547100Y-101317500D03*
D26*
X154627100Y-101317500D03*
X157167100Y-101317500D03*
X159707100Y-101317500D03*
%TD*%
D24*
%TO.C,TP36*%
X139145000Y-81275000D03*
%TD*%
D10*
%TO.C,U2*%
X130982500Y-117925000D03*
X129712500Y-117925000D03*
X128442500Y-117925000D03*
X127172500Y-117925000D03*
X125902500Y-117925000D03*
X124632500Y-117925000D03*
X123362500Y-117925000D03*
X122092500Y-117925000D03*
X122092500Y-127375000D03*
X123362500Y-127375000D03*
X124632500Y-127375000D03*
X125902500Y-127375000D03*
X127172500Y-127375000D03*
X128442500Y-127375000D03*
X129712500Y-127375000D03*
X130982500Y-127375000D03*
%TD*%
D25*
%TO.C,Q2*%
X122434600Y-101317500D03*
D26*
X127514600Y-101317500D03*
X130054600Y-101317500D03*
X132594600Y-101317500D03*
%TD*%
D24*
%TO.C,TP24*%
X161495000Y-48725000D03*
%TD*%
D30*
%TO.C,J16*%
X180450000Y-100745000D03*
X177950000Y-100745000D03*
X175450000Y-100745000D03*
X172950000Y-100745000D03*
X170450000Y-100745000D03*
X180450000Y-97744998D03*
X177950000Y-97744998D03*
X175450000Y-97744998D03*
X172950000Y-97744998D03*
X170450000Y-97744998D03*
X180450000Y-95244998D03*
X177950000Y-95244998D03*
X175450000Y-95244998D03*
X172950000Y-95244998D03*
X170450000Y-95244998D03*
X180450000Y-92244999D03*
X177950000Y-92244999D03*
X175450000Y-92244999D03*
X172950000Y-92244999D03*
X170450000Y-92244999D03*
%TD*%
D10*
%TO.C,U1*%
X157945000Y-118475000D03*
X156675000Y-118475000D03*
X155405000Y-118475000D03*
X154135000Y-118475000D03*
X152865000Y-118475000D03*
X151595000Y-118475000D03*
X150325000Y-118475000D03*
X149055000Y-118475000D03*
X149055000Y-127925000D03*
X150325000Y-127925000D03*
X151595000Y-127925000D03*
X152865000Y-127925000D03*
X154135000Y-127925000D03*
X155405000Y-127925000D03*
X156675000Y-127925000D03*
X157945000Y-127925000D03*
%TD*%
D27*
%TO.C,J15*%
X107745000Y-83894650D03*
X107745000Y-70594650D03*
D28*
X107745000Y-72744650D03*
D29*
X107745000Y-75744650D03*
X107745000Y-78744650D03*
X107745000Y-81744650D03*
%TD*%
D24*
%TO.C,TP33*%
X180145000Y-81425000D03*
%TD*%
%TO.C,TP35*%
X165345000Y-107725000D03*
%TD*%
D11*
%TO.C,J13*%
X110155000Y-110950000D03*
X110155000Y-131950000D03*
D12*
X106215000Y-128950000D03*
D13*
X106215000Y-125950000D03*
X106215000Y-122950000D03*
X106215000Y-119950000D03*
X106215000Y-116950000D03*
X106215000Y-113950000D03*
X109215000Y-128950000D03*
X109215000Y-125950000D03*
X109215000Y-122950000D03*
X109215000Y-119950000D03*
X109215000Y-116950000D03*
X109215000Y-113950000D03*
%TD*%
D24*
%TO.C,TP25*%
X135595000Y-48675000D03*
%TD*%
%TO.C,TP37*%
X165345000Y-81325000D03*
%TD*%
D30*
%TO.C,J12*%
X103600000Y-92244999D03*
X106100000Y-92244999D03*
X108600000Y-92244999D03*
X111100000Y-92244999D03*
X113600000Y-92244999D03*
X103600000Y-95245001D03*
X106100000Y-95245001D03*
X108600000Y-95245001D03*
X111100000Y-95245001D03*
X113600000Y-95245001D03*
X103600000Y-97745001D03*
X106100000Y-97745001D03*
X108600000Y-97745001D03*
X111100000Y-97745001D03*
X113600000Y-97745001D03*
X103600000Y-100745000D03*
X106100000Y-100745000D03*
X108600000Y-100745000D03*
X111100000Y-100745000D03*
X113600000Y-100745000D03*
%TD*%
D24*
%TO.C,TP34*%
X140500000Y-106800000D03*
%TD*%
%TO.C,TP27*%
X118895000Y-139675000D03*
%TD*%
D10*
%TO.C,U4*%
X122092500Y-68500000D03*
X123362500Y-68500000D03*
X124632500Y-68500000D03*
X125902500Y-68500000D03*
X127172500Y-68500000D03*
X128442500Y-68500000D03*
X129712500Y-68500000D03*
X130982500Y-68500000D03*
X130982500Y-59050000D03*
X129712500Y-59050000D03*
X128442500Y-59050000D03*
X127172500Y-59050000D03*
X125902500Y-59050000D03*
X124632500Y-59050000D03*
X123362500Y-59050000D03*
X122092500Y-59050000D03*
%TD*%
D25*
%TO.C,Q5*%
X149142100Y-87242500D03*
D26*
X154222100Y-87242500D03*
X156762100Y-87242500D03*
X159302100Y-87242500D03*
%TD*%
M02*
