%TF.GenerationSoftware,KiCad,Pcbnew,10.0.0*%
%TF.CreationDate,2026-03-27T13:38:28-04:00*%
%TF.ProjectId,Full_Bridge_Circuit,46756c6c-5f42-4726-9964-67655f436972,rev?*%
%TF.SameCoordinates,Original*%
%TF.FileFunction,Copper,L1,Top*%
%TF.FilePolarity,Positive*%
%FSLAX46Y46*%
G04 Gerber Fmt 4.6, Leading zero omitted, Abs format (unit mm)*
G04 Created by KiCad (PCBNEW 10.0.0) date 2026-03-27 13:38:28*
%MOMM*%
%LPD*%
G01*
G04 APERTURE LIST*
G04 Aperture macros list*
%AMRoundRect*
0 Rectangle with rounded corners*
0 $1 Rounding radius*
0 $2 $3 $4 $5 $6 $7 $8 $9 X,Y pos of 4 corners*
0 Add a 4 corners polygon primitive as box body*
4,1,4,$2,$3,$4,$5,$6,$7,$8,$9,$2,$3,0*
0 Add four circle primitives for the rounded corners*
1,1,$1+$1,$2,$3*
1,1,$1+$1,$4,$5*
1,1,$1+$1,$6,$7*
1,1,$1+$1,$8,$9*
0 Add four rect primitives between the rounded corners*
20,1,$1+$1,$2,$3,$4,$5,0*
20,1,$1+$1,$4,$5,$6,$7,0*
20,1,$1+$1,$6,$7,$8,$9,0*
20,1,$1+$1,$8,$9,$2,$3,0*%
G04 Aperture macros list end*
%TA.AperFunction,SMDPad,CuDef*%
%ADD10RoundRect,0.237500X-0.237500X0.300000X-0.237500X-0.300000X0.237500X-0.300000X0.237500X0.300000X0*%
%TD*%
%TA.AperFunction,SMDPad,CuDef*%
%ADD11RoundRect,0.250000X-0.475000X0.337500X-0.475000X-0.337500X0.475000X-0.337500X0.475000X0.337500X0*%
%TD*%
%TA.AperFunction,SMDPad,CuDef*%
%ADD12RoundRect,0.250000X-0.625000X0.400000X-0.625000X-0.400000X0.625000X-0.400000X0.625000X0.400000X0*%
%TD*%
%TA.AperFunction,ComponentPad*%
%ADD13R,1.900000X1.900000*%
%TD*%
%TA.AperFunction,SMDPad,CuDef*%
%ADD14RoundRect,0.250000X0.625000X-0.400000X0.625000X0.400000X-0.625000X0.400000X-0.625000X-0.400000X0*%
%TD*%
%TA.AperFunction,ComponentPad*%
%ADD15R,2.286000X4.064000*%
%TD*%
%TA.AperFunction,ComponentPad*%
%ADD16O,2.286000X4.064000*%
%TD*%
%TA.AperFunction,SMDPad,CuDef*%
%ADD17RoundRect,0.237500X0.237500X-0.300000X0.237500X0.300000X-0.237500X0.300000X-0.237500X-0.300000X0*%
%TD*%
%TA.AperFunction,ComponentPad*%
%ADD18C,2.560000*%
%TD*%
%TA.AperFunction,ComponentPad*%
%ADD19R,1.170000X1.170000*%
%TD*%
%TA.AperFunction,ComponentPad*%
%ADD20C,1.170000*%
%TD*%
%TA.AperFunction,SMDPad,CuDef*%
%ADD21R,0.650000X1.950000*%
%TD*%
%TA.AperFunction,SMDPad,CuDef*%
%ADD22RoundRect,0.150000X-0.512500X-0.150000X0.512500X-0.150000X0.512500X0.150000X-0.512500X0.150000X0*%
%TD*%
%TA.AperFunction,ComponentPad*%
%ADD23R,1.520000X1.520000*%
%TD*%
%TA.AperFunction,ComponentPad*%
%ADD24C,1.520000*%
%TD*%
%TA.AperFunction,SMDPad,CuDef*%
%ADD25RoundRect,0.250000X0.650000X-0.412500X0.650000X0.412500X-0.650000X0.412500X-0.650000X-0.412500X0*%
%TD*%
%TA.AperFunction,SMDPad,CuDef*%
%ADD26RoundRect,0.250000X-0.650000X0.412500X-0.650000X-0.412500X0.650000X-0.412500X0.650000X0.412500X0*%
%TD*%
%TA.AperFunction,ComponentPad*%
%ADD27C,1.574800*%
%TD*%
%TA.AperFunction,SMDPad,CuDef*%
%ADD28RoundRect,0.250000X0.475000X-0.337500X0.475000X0.337500X-0.475000X0.337500X-0.475000X-0.337500X0*%
%TD*%
%TA.AperFunction,ViaPad*%
%ADD29C,0.600000*%
%TD*%
%TA.AperFunction,Conductor*%
%ADD30C,0.150000*%
%TD*%
%TA.AperFunction,Conductor*%
%ADD31C,1.000000*%
%TD*%
%TA.AperFunction,Conductor*%
%ADD32C,0.200000*%
%TD*%
%TA.AperFunction,Conductor*%
%ADD33C,0.500000*%
%TD*%
G04 APERTURE END LIST*
D10*
%TO.P,C28,1*%
%TO.N,/Con_RDY_A_H*%
X124637500Y-130937500D03*
%TO.P,C28,2*%
%TO.N,LOGIC_GND*%
X124637500Y-132662500D03*
%TD*%
D11*
%TO.P,C37,1*%
%TO.N,+15V_ISO_LBLS*%
X120495000Y-72137500D03*
%TO.P,C37,2*%
%TO.N,GND_ISO_LBHS*%
X120495000Y-74212500D03*
%TD*%
D12*
%TO.P,R32,1*%
%TO.N,+3V3*%
X130695000Y-45875000D03*
%TO.P,R32,2*%
%TO.N,/Con_RDY_B_H*%
X130695000Y-48975000D03*
%TD*%
D13*
%TO.P,TP26,1,1_1*%
%TO.N,/Con_PWM_A_L*%
X144945000Y-140725000D03*
%TD*%
D14*
%TO.P,R7,1*%
%TO.N,/Full-Bridge/Leg_A_Power_Stage/LegA_HS_OUTH*%
X127737500Y-114600000D03*
%TO.P,R7,2*%
%TO.N,/Full-Bridge/Leg_A_Power_Stage/LegA_HS_Gate*%
X127737500Y-111500000D03*
%TD*%
D13*
%TO.P,TP32,1,1_1*%
%TO.N,GND_ISO_LAHS*%
X179995000Y-108425000D03*
%TD*%
D15*
%TO.P,Q4,1,1_1*%
%TO.N,/DC_Link_Caps/BUS_DC+*%
X122192100Y-87242500D03*
D16*
%TO.P,Q4,2,2_2*%
%TO.N,GND_ISO_LBHS*%
X127272100Y-87242500D03*
%TO.P,Q4,3,3_3*%
X129812100Y-87242500D03*
%TO.P,Q4,4,4_4*%
%TO.N,/Full-Bridge/Leg_B_Power_Stage/LegB_HS_Gate*%
X132352100Y-87242500D03*
%TD*%
D17*
%TO.P,C41,1*%
%TO.N,/Con_RDY_B_L*%
X154895000Y-56017500D03*
%TO.P,C41,2*%
%TO.N,LOGIC_GND*%
X154895000Y-54292500D03*
%TD*%
D14*
%TO.P,R15,1*%
%TO.N,Net-(U2-IN+)*%
X120037500Y-133000000D03*
%TO.P,R15,2*%
%TO.N,/Con_PWM_A_H*%
X120037500Y-129900000D03*
%TD*%
D12*
%TO.P,R28,1*%
%TO.N,+3V3*%
X153645000Y-45925000D03*
%TO.P,R28,2*%
%TO.N,/Con_FLT_B_L*%
X153645000Y-49025000D03*
%TD*%
D14*
%TO.P,R19,1*%
%TO.N,/Full-Bridge/Leg_B_Power_Stage/LegB_HS_Gate*%
X132445000Y-75295000D03*
%TO.P,R19,2*%
%TO.N,GND_ISO_LBHS*%
X132445000Y-72195000D03*
%TD*%
D10*
%TO.P,C25,1*%
%TO.N,/Con_EN_A_L*%
X155600000Y-131150000D03*
%TO.P,C25,2*%
%TO.N,LOGIC_GND*%
X155600000Y-132875000D03*
%TD*%
D18*
%TO.P,J14,*%
%TO.N,*%
X107715000Y-49650000D03*
X107715000Y-62950000D03*
D19*
%TO.P,J14,1,1_1*%
%TO.N,/Con_PWM_A_H*%
X107715000Y-60800000D03*
D20*
%TO.P,J14,2,2_2*%
%TO.N,/Con_PWM_A_L*%
X107715000Y-57800000D03*
%TO.P,J14,3,3_3*%
%TO.N,/Con_PWM_B_H*%
X107715000Y-54800000D03*
%TO.P,J14,4,4_4*%
%TO.N,/Con_PWM_B_L*%
X107715000Y-51800000D03*
%TD*%
D15*
%TO.P,Q3,1,1_1*%
%TO.N,GND_ISO_LAHS*%
X149547100Y-101317500D03*
D16*
%TO.P,Q3,2,2_2*%
%TO.N,GND*%
X154627100Y-101317500D03*
%TO.P,Q3,3,3_3*%
X157167100Y-101317500D03*
%TO.P,Q3,4,4_4*%
%TO.N,/Full-Bridge/Leg_A_Power_Stage/LegA_LS_Gate*%
X159707100Y-101317500D03*
%TD*%
D12*
%TO.P,R25,1*%
%TO.N,+3V3*%
X150845000Y-45925000D03*
%TO.P,R25,2*%
%TO.N,/Con_EN_B_L*%
X150845000Y-49025000D03*
%TD*%
%TO.P,R20,1*%
%TO.N,/Full-Bridge/Leg_B_Power_Stage/LegB_LS_Gate*%
X159095000Y-72175000D03*
%TO.P,R20,2*%
%TO.N,GND*%
X159095000Y-75275000D03*
%TD*%
D11*
%TO.P,C30,1*%
%TO.N,Net-(U2-IN+)*%
X122237500Y-130992500D03*
%TO.P,C30,2*%
%TO.N,LOGIC_GND*%
X122237500Y-133067500D03*
%TD*%
D13*
%TO.P,TP36,1,1_1*%
%TO.N,/Full-Bridge/Leg_B_Power_Stage/LegB_HS_Gate*%
X139145000Y-81275000D03*
%TD*%
D21*
%TO.P,U3,1,AIN_1*%
%TO.N,GND*%
X149055000Y-68500000D03*
%TO.P,U3,2,OC_2*%
X150325000Y-68500000D03*
%TO.P,U3,3,COM_3*%
X151595000Y-68500000D03*
%TO.P,U3,4,OUTH_4*%
%TO.N,/Full-Bridge/Leg_B_Power_Stage/LegB_LS_OUTH*%
X152865000Y-68500000D03*
%TO.P,U3,5,VDD_5*%
%TO.N,+15V_ISO_LBLS*%
X154135000Y-68500000D03*
%TO.P,U3,6,OUTL_6*%
%TO.N,/Full-Bridge/Leg_B_Power_Stage/LegB_LS_OUTL*%
X155405000Y-68500000D03*
%TO.P,U3,7,CLMPI_7*%
%TO.N,/Full-Bridge/Leg_B_Power_Stage/LegB_LS_Gate*%
X156675000Y-68500000D03*
%TO.P,U3,8,VEE_8*%
%TO.N,GND_ISO_LBHS*%
X157945000Y-68500000D03*
%TO.P,U3,9,GND_9*%
%TO.N,LOGIC_GND*%
X157945000Y-59050000D03*
%TO.P,U3,10,IN+_10*%
%TO.N,Net-(U3-IN+)*%
X156675000Y-59050000D03*
%TO.P,U3,11,IN-_11*%
%TO.N,LOGIC_GND*%
X155405000Y-59050000D03*
%TO.P,U3,12,RDY_12*%
%TO.N,/Con_RDY_B_L*%
X154135000Y-59050000D03*
%TO.P,U3,13,~{FLT}_13*%
%TO.N,/Con_FLT_B_L*%
X152865000Y-59050000D03*
%TO.P,U3,14,~{RST}/EN_14*%
%TO.N,/Con_EN_B_L*%
X151595000Y-59050000D03*
%TO.P,U3,15,VCC_15*%
%TO.N,+3V3*%
X150325000Y-59050000D03*
%TO.P,U3,16,APWM_16*%
%TO.N,unconnected-(U3-APWM-Pad16)*%
X149055000Y-59050000D03*
%TD*%
D22*
%TO.P,D5,1,K_1*%
%TO.N,/Full-Bridge/Leg_B_Power_Stage/LegB_LS_Gate*%
X158307500Y-80675000D03*
%TO.P,D5,2,A_2*%
%TO.N,GND*%
X158307500Y-82575000D03*
%TO.P,D5,3*%
%TO.N,N/C*%
X160582500Y-81625000D03*
%TD*%
D21*
%TO.P,U2,1,AIN_1*%
%TO.N,GND_ISO_LAHS*%
X130982500Y-117925000D03*
%TO.P,U2,2,OC_2*%
X129712500Y-117925000D03*
%TO.P,U2,3,COM_3*%
X128442500Y-117925000D03*
%TO.P,U2,4,OUTH_4*%
%TO.N,/Full-Bridge/Leg_A_Power_Stage/LegA_HS_OUTH*%
X127172500Y-117925000D03*
%TO.P,U2,5,VDD_5*%
%TO.N,+15V_ISO_LALS*%
X125902500Y-117925000D03*
%TO.P,U2,6,OUTL_6*%
%TO.N,/Full-Bridge/Leg_A_Power_Stage/LegA_HS_OUTL*%
X124632500Y-117925000D03*
%TO.P,U2,7,CLMPI_7*%
%TO.N,/Full-Bridge/Leg_A_Power_Stage/LegA_HS_Gate*%
X123362500Y-117925000D03*
%TO.P,U2,8,VEE_8*%
%TO.N,GND_ISO_LAHS*%
X122092500Y-117925000D03*
%TO.P,U2,9,GND_9*%
%TO.N,LOGIC_GND*%
X122092500Y-127375000D03*
%TO.P,U2,10,IN+_10*%
%TO.N,Net-(U2-IN+)*%
X123362500Y-127375000D03*
%TO.P,U2,11,IN-_11*%
%TO.N,LOGIC_GND*%
X124632500Y-127375000D03*
%TO.P,U2,12,RDY_12*%
%TO.N,/Con_RDY_A_H*%
X125902500Y-127375000D03*
%TO.P,U2,13,~{FLT}_13*%
%TO.N,/Con_FLT_A_H*%
X127172500Y-127375000D03*
%TO.P,U2,14,~{RST}/EN_14*%
%TO.N,/Con_EN_A_H*%
X128442500Y-127375000D03*
%TO.P,U2,15,VCC_15*%
%TO.N,+3V3*%
X129712500Y-127375000D03*
%TO.P,U2,16,APWM_16*%
%TO.N,unconnected-(U2-APWM-Pad16)*%
X130982500Y-127375000D03*
%TD*%
D10*
%TO.P,C32,1*%
%TO.N,/Con_EN_A_H*%
X128437500Y-130937500D03*
%TO.P,C32,2*%
%TO.N,LOGIC_GND*%
X128437500Y-132662500D03*
%TD*%
D15*
%TO.P,Q2,1,1_1*%
%TO.N,/DC_Link_Caps/BUS_DC+*%
X122434600Y-101317500D03*
D16*
%TO.P,Q2,2,2_2*%
%TO.N,GND_ISO_LAHS*%
X127514600Y-101317500D03*
%TO.P,Q2,3,3_3*%
X130054600Y-101317500D03*
%TO.P,Q2,4,4_4*%
%TO.N,/Full-Bridge/Leg_A_Power_Stage/LegA_HS_Gate*%
X132594600Y-101317500D03*
%TD*%
D23*
%TO.P,J29,1,1_1*%
%TO.N,LOGIC_GND*%
X176135000Y-53353250D03*
D24*
%TO.P,J29,2,2_2*%
%TO.N,+3V3*%
X179135000Y-53353250D03*
%TD*%
D14*
%TO.P,R17,1*%
%TO.N,+3V3*%
X149600000Y-141500000D03*
%TO.P,R17,2*%
%TO.N,/Con_RDY_A_L*%
X149600000Y-138400000D03*
%TD*%
%TO.P,R10,1*%
%TO.N,/Full-Bridge/Leg_A_Power_Stage/LegA_LS_OUTL*%
X150200000Y-115100000D03*
%TO.P,R10,2*%
%TO.N,/Full-Bridge/Leg_A_Power_Stage/LegA_LS_Gate*%
X150200000Y-112000000D03*
%TD*%
D12*
%TO.P,R6,1*%
%TO.N,/Full-Bridge/Leg_A_Power_Stage/LegA_LS_Gate*%
X147800000Y-112000000D03*
%TO.P,R6,2*%
%TO.N,GND*%
X147800000Y-115100000D03*
%TD*%
D25*
%TO.P,C21,1*%
%TO.N,+15V_ISO_LALS*%
X125387500Y-114562500D03*
%TO.P,C21,2*%
%TO.N,GND_ISO_LAHS*%
X125387500Y-111437500D03*
%TD*%
%TO.P,C45,1*%
%TO.N,+3V3*%
X148845000Y-55887500D03*
%TO.P,C45,2*%
%TO.N,LOGIC_GND*%
X148845000Y-52762500D03*
%TD*%
D26*
%TO.P,C39,1*%
%TO.N,+15V_ISO_LBLS*%
X127445000Y-72212500D03*
%TO.P,C39,2*%
%TO.N,GND_ISO_LBHS*%
X127445000Y-75337500D03*
%TD*%
D25*
%TO.P,C18,1*%
%TO.N,+15V_ISO_LALS*%
X157300000Y-115082500D03*
%TO.P,C18,2*%
%TO.N,GND*%
X157300000Y-111957500D03*
%TD*%
D11*
%TO.P,C38,1*%
%TO.N,+15V_ISO_LBLS*%
X147345000Y-72117500D03*
%TO.P,C38,2*%
%TO.N,GND*%
X147345000Y-74192500D03*
%TD*%
D13*
%TO.P,TP24,1,1_1*%
%TO.N,/Con_PWM_B_L*%
X161495000Y-48725000D03*
%TD*%
D17*
%TO.P,C46,1*%
%TO.N,/Con_RDY_B_H*%
X129645000Y-55930000D03*
%TO.P,C46,2*%
%TO.N,LOGIC_GND*%
X129645000Y-54205000D03*
%TD*%
D27*
%TO.P,J16,P1_1,P1_1_P1_1*%
%TO.N,GND_ISO_LAHS*%
X180450000Y-100745000D03*
%TO.P,J16,P1_2,P1_2_P1_2*%
X177950000Y-100745000D03*
%TO.P,J16,P1_3,P1_3_P1_3*%
X175450000Y-100745000D03*
%TO.P,J16,P1_4,P1_4_P1_4*%
X172950000Y-100745000D03*
%TO.P,J16,P1_5,P1_5_P1_5*%
X170450000Y-100745000D03*
%TO.P,J16,P1_6,P1_6_P1_6*%
X180450000Y-97744998D03*
%TO.P,J16,P1_7,P1_7_P1_7*%
X177950000Y-97744998D03*
%TO.P,J16,P1_8,P1_8_P1_8*%
X175450000Y-97744998D03*
%TO.P,J16,P1_9,P1_9_P1_9*%
X172950000Y-97744998D03*
%TO.P,J16,P1_10,P1_10_P1_10*%
X170450000Y-97744998D03*
%TO.P,J16,P2_1,P2_1_P2_1*%
%TO.N,GND_ISO_LBHS*%
X180450000Y-95244998D03*
%TO.P,J16,P2_2,P2_2_P2_2*%
X177950000Y-95244998D03*
%TO.P,J16,P2_3,P2_3_P2_3*%
X175450000Y-95244998D03*
%TO.P,J16,P2_4,P2_4_P2_4*%
X172950000Y-95244998D03*
%TO.P,J16,P2_5,P2_5_P2_5*%
X170450000Y-95244998D03*
%TO.P,J16,P2_6,P2_6_P2_6*%
X180450000Y-92244999D03*
%TO.P,J16,P2_7,P2_7_P2_7*%
X177950000Y-92244999D03*
%TO.P,J16,P2_8,P2_8_P2_8*%
X175450000Y-92244999D03*
%TO.P,J16,P2_9,P2_9_P2_9*%
X172950000Y-92244999D03*
%TO.P,J16,P2_10,P2_10_P2_10*%
X170450000Y-92244999D03*
%TD*%
D14*
%TO.P,R11,1*%
%TO.N,+3V3*%
X156400000Y-141550000D03*
%TO.P,R11,2*%
%TO.N,/Con_EN_A_L*%
X156400000Y-138450000D03*
%TD*%
D12*
%TO.P,R24,1*%
%TO.N,/Full-Bridge/Leg_B_Power_Stage/LegB_LS_OUTL*%
X156745000Y-72175000D03*
%TO.P,R24,2*%
%TO.N,/Full-Bridge/Leg_B_Power_Stage/LegB_LS_Gate*%
X156745000Y-75275000D03*
%TD*%
D14*
%TO.P,R18,1*%
%TO.N,+3V3*%
X123737500Y-140800000D03*
%TO.P,R18,2*%
%TO.N,/Con_RDY_A_H*%
X123737500Y-137700000D03*
%TD*%
%TO.P,R8,1*%
%TO.N,/Full-Bridge/Leg_A_Power_Stage/LegA_HS_OUTL*%
X122987500Y-114550000D03*
%TO.P,R8,2*%
%TO.N,/Full-Bridge/Leg_A_Power_Stage/LegA_HS_Gate*%
X122987500Y-111450000D03*
%TD*%
D12*
%TO.P,R30,1*%
%TO.N,+3V3*%
X127945000Y-45925000D03*
%TO.P,R30,2*%
%TO.N,/Con_FLT_B_H*%
X127945000Y-49025000D03*
%TD*%
D14*
%TO.P,R13,1*%
%TO.N,+3V3*%
X130187500Y-140850000D03*
%TO.P,R13,2*%
%TO.N,/Con_EN_A_H*%
X130187500Y-137750000D03*
%TD*%
D21*
%TO.P,U1,1,AIN_1*%
%TO.N,GND*%
X157945000Y-118475000D03*
%TO.P,U1,2,OC_2*%
X156675000Y-118475000D03*
%TO.P,U1,3,COM_3*%
X155405000Y-118475000D03*
%TO.P,U1,4,OUTH_4*%
%TO.N,/Full-Bridge/Leg_A_Power_Stage/LegA_LS_OUTH*%
X154135000Y-118475000D03*
%TO.P,U1,5,VDD_5*%
%TO.N,+15V_ISO_LALS*%
X152865000Y-118475000D03*
%TO.P,U1,6,OUTL_6*%
%TO.N,/Full-Bridge/Leg_A_Power_Stage/LegA_LS_OUTL*%
X151595000Y-118475000D03*
%TO.P,U1,7,CLMPI_7*%
%TO.N,/Full-Bridge/Leg_A_Power_Stage/LegA_LS_Gate*%
X150325000Y-118475000D03*
%TO.P,U1,8,VEE_8*%
%TO.N,GND_ISO_LAHS*%
X149055000Y-118475000D03*
%TO.P,U1,9,GND_9*%
%TO.N,LOGIC_GND*%
X149055000Y-127925000D03*
%TO.P,U1,10,IN+_10*%
%TO.N,Net-(U1-IN+)*%
X150325000Y-127925000D03*
%TO.P,U1,11,IN-_11*%
%TO.N,LOGIC_GND*%
X151595000Y-127925000D03*
%TO.P,U1,12,RDY_12*%
%TO.N,/Con_RDY_A_L*%
X152865000Y-127925000D03*
%TO.P,U1,13,~{FLT}_13*%
%TO.N,/Con_FLT_A_L*%
X154135000Y-127925000D03*
%TO.P,U1,14,~{RST}/EN_14*%
%TO.N,/Con_EN_A_L*%
X155405000Y-127925000D03*
%TO.P,U1,15,VCC_15*%
%TO.N,+3V3*%
X156675000Y-127925000D03*
%TO.P,U1,16,APWM_16*%
%TO.N,unconnected-(U1-APWM-Pad16)*%
X157945000Y-127925000D03*
%TD*%
D26*
%TO.P,C35,1*%
%TO.N,+15V_ISO_LBLS*%
X122695000Y-72212500D03*
%TO.P,C35,2*%
%TO.N,GND_ISO_LBHS*%
X122695000Y-75337500D03*
%TD*%
%TO.P,C36,1*%
%TO.N,+15V_ISO_LBLS*%
X149645000Y-72192500D03*
%TO.P,C36,2*%
%TO.N,GND*%
X149645000Y-75317500D03*
%TD*%
D10*
%TO.P,C23,1*%
%TO.N,/Con_RDY_A_L*%
X151000000Y-131187500D03*
%TO.P,C23,2*%
%TO.N,LOGIC_GND*%
X151000000Y-132912500D03*
%TD*%
D12*
%TO.P,R5,1*%
%TO.N,/Full-Bridge/Leg_A_Power_Stage/LegA_HS_Gate*%
X120637500Y-111450000D03*
%TO.P,R5,2*%
%TO.N,GND_ISO_LAHS*%
X120637500Y-114550000D03*
%TD*%
D11*
%TO.P,C33,1*%
%TO.N,+3V3*%
X130237500Y-130992500D03*
%TO.P,C33,2*%
%TO.N,LOGIC_GND*%
X130237500Y-133067500D03*
%TD*%
D12*
%TO.P,R29,1*%
%TO.N,Net-(U4-IN+)*%
X134245000Y-56025000D03*
%TO.P,R29,2*%
%TO.N,/Con_PWM_B_H*%
X134245000Y-59125000D03*
%TD*%
%TO.P,R23,1*%
%TO.N,/Full-Bridge/Leg_B_Power_Stage/LegB_LS_OUTH*%
X151995000Y-72175000D03*
%TO.P,R23,2*%
%TO.N,/Full-Bridge/Leg_B_Power_Stage/LegB_LS_Gate*%
X151995000Y-75275000D03*
%TD*%
D18*
%TO.P,J15,*%
%TO.N,*%
X107745000Y-83894650D03*
X107745000Y-70594650D03*
D19*
%TO.P,J15,1,1_1*%
%TO.N,GND_ISO_LBHS*%
X107745000Y-72744650D03*
D20*
%TO.P,J15,2,2_2*%
%TO.N,+15V_ISO_LBLS*%
X107745000Y-75744650D03*
%TO.P,J15,3,3_3*%
%TO.N,GND_ISO_LAHS*%
X107745000Y-78744650D03*
%TO.P,J15,4,4_4*%
%TO.N,+15V_ISO_LALS*%
X107745000Y-81744650D03*
%TD*%
D12*
%TO.P,R31,1*%
%TO.N,+3V3*%
X156445000Y-45925000D03*
%TO.P,R31,2*%
%TO.N,/Con_RDY_B_L*%
X156445000Y-49025000D03*
%TD*%
D13*
%TO.P,TP33,1,1_1*%
%TO.N,GND_ISO_LBHS*%
X180145000Y-81425000D03*
%TD*%
D28*
%TO.P,C20,1*%
%TO.N,+15V_ISO_LALS*%
X159500000Y-115157500D03*
%TO.P,C20,2*%
%TO.N,GND*%
X159500000Y-113082500D03*
%TD*%
D13*
%TO.P,TP35,1,1_1*%
%TO.N,/Full-Bridge/Leg_A_Power_Stage/LegA_LS_Gate*%
X165345000Y-107725000D03*
%TD*%
D11*
%TO.P,C26,1*%
%TO.N,+3V3*%
X157450000Y-131225000D03*
%TO.P,C26,2*%
%TO.N,LOGIC_GND*%
X157450000Y-133300000D03*
%TD*%
D23*
%TO.P,J13,1,1_1*%
%TO.N,/Con_RDY_A_L*%
X106215000Y-128950000D03*
D24*
%TO.P,J13,2,2_2*%
%TO.N,/Con_RDY_A_H*%
X106215000Y-125950000D03*
%TO.P,J13,3,3_3*%
%TO.N,/Con_FLT_A_L*%
X106215000Y-122950000D03*
%TO.P,J13,4,4_4*%
%TO.N,/Con_FLT_A_H*%
X106215000Y-119950000D03*
%TO.P,J13,5,5_5*%
%TO.N,/Con_EN_A_L*%
X106215000Y-116950000D03*
%TO.P,J13,6,6_6*%
%TO.N,/Con_EN_A_H*%
X106215000Y-113950000D03*
%TO.P,J13,7,7_7*%
%TO.N,/Con_RDY_B_L*%
X109215000Y-128950000D03*
%TO.P,J13,8,8_8*%
%TO.N,/Con_RDY_B_H*%
X109215000Y-125950000D03*
%TO.P,J13,9,9_9*%
%TO.N,/Con_FLT_B_L*%
X109215000Y-122950000D03*
%TO.P,J13,10,10_10*%
%TO.N,/Con_FLT_B_H*%
X109215000Y-119950000D03*
%TO.P,J13,11,11_11*%
%TO.N,/Con_EN_B_L*%
X109215000Y-116950000D03*
%TO.P,J13,12,12_12*%
%TO.N,/Con_EN_B_H*%
X109215000Y-113950000D03*
%TD*%
D22*
%TO.P,D2,1,K_1*%
%TO.N,/Full-Bridge/Leg_A_Power_Stage/LegA_HS_Gate*%
X134250000Y-106450000D03*
%TO.P,D2,2,A_2*%
%TO.N,GND_ISO_LAHS*%
X134250000Y-108350000D03*
%TO.P,D2,3*%
%TO.N,N/C*%
X136525000Y-107400000D03*
%TD*%
D26*
%TO.P,C27,1*%
%TO.N,+3V3*%
X159650000Y-131287500D03*
%TO.P,C27,2*%
%TO.N,LOGIC_GND*%
X159650000Y-134412500D03*
%TD*%
D12*
%TO.P,R21,1*%
%TO.N,/Full-Bridge/Leg_B_Power_Stage/LegB_HS_OUTH*%
X125095000Y-72195000D03*
%TO.P,R21,2*%
%TO.N,/Full-Bridge/Leg_B_Power_Stage/LegB_HS_Gate*%
X125095000Y-75295000D03*
%TD*%
D25*
%TO.P,C22,1*%
%TO.N,+15V_ISO_LALS*%
X152550000Y-115082500D03*
%TO.P,C22,2*%
%TO.N,GND*%
X152550000Y-111957500D03*
%TD*%
D17*
%TO.P,C42,1*%
%TO.N,/Con_FLT_B_L*%
X153045000Y-56017500D03*
%TO.P,C42,2*%
%TO.N,LOGIC_GND*%
X153045000Y-54292500D03*
%TD*%
D13*
%TO.P,TP25,1,1_1*%
%TO.N,/Con_PWM_B_H*%
X135595000Y-48675000D03*
%TD*%
%TO.P,TP37,1,1_1*%
%TO.N,/Full-Bridge/Leg_B_Power_Stage/LegB_LS_Gate*%
X165345000Y-81325000D03*
%TD*%
D10*
%TO.P,C24,1*%
%TO.N,/Con_FLT_A_L*%
X152500000Y-131187500D03*
%TO.P,C24,2*%
%TO.N,LOGIC_GND*%
X152500000Y-132912500D03*
%TD*%
D27*
%TO.P,J12,P1_1,P1_1_P1_1*%
%TO.N,GND*%
X103600000Y-92244999D03*
%TO.P,J12,P1_2,P1_2_P1_2*%
X106100000Y-92244999D03*
%TO.P,J12,P1_3,P1_3_P1_3*%
X108600000Y-92244999D03*
%TO.P,J12,P1_4,P1_4_P1_4*%
X111100000Y-92244999D03*
%TO.P,J12,P1_5,P1_5_P1_5*%
X113600000Y-92244999D03*
%TO.P,J12,P1_6,P1_6_P1_6*%
X103600000Y-95245001D03*
%TO.P,J12,P1_7,P1_7_P1_7*%
X106100000Y-95245001D03*
%TO.P,J12,P1_8,P1_8_P1_8*%
X108600000Y-95245001D03*
%TO.P,J12,P1_9,P1_9_P1_9*%
X111100000Y-95245001D03*
%TO.P,J12,P1_10,P1_10_P1_10*%
X113600000Y-95245001D03*
%TO.P,J12,P2_1,P2_1_P2_1*%
%TO.N,/DC_Link_Caps/BUS_DC+*%
X103600000Y-97745001D03*
%TO.P,J12,P2_2,P2_2_P2_2*%
X106100000Y-97745001D03*
%TO.P,J12,P2_3,P2_3_P2_3*%
X108600000Y-97745001D03*
%TO.P,J12,P2_4,P2_4_P2_4*%
X111100000Y-97745001D03*
%TO.P,J12,P2_5,P2_5_P2_5*%
X113600000Y-97745001D03*
%TO.P,J12,P2_6,P2_6_P2_6*%
X103600000Y-100745000D03*
%TO.P,J12,P2_7,P2_7_P2_7*%
X106100000Y-100745000D03*
%TO.P,J12,P2_8,P2_8_P2_8*%
X108600000Y-100745000D03*
%TO.P,J12,P2_9,P2_9_P2_9*%
X111100000Y-100745000D03*
%TO.P,J12,P2_10,P2_10_P2_10*%
X113600000Y-100745000D03*
%TD*%
D13*
%TO.P,TP34,1,1_1*%
%TO.N,/Full-Bridge/Leg_A_Power_Stage/LegA_HS_Gate*%
X140500000Y-106800000D03*
%TD*%
D17*
%TO.P,C50,1*%
%TO.N,/Con_EN_B_H*%
X125645000Y-55930000D03*
%TO.P,C50,2*%
%TO.N,LOGIC_GND*%
X125645000Y-54205000D03*
%TD*%
D28*
%TO.P,C47,1*%
%TO.N,Net-(U3-IN+)*%
X157345000Y-55962500D03*
%TO.P,C47,2*%
%TO.N,LOGIC_GND*%
X157345000Y-53887500D03*
%TD*%
D13*
%TO.P,TP27,1,1_1*%
%TO.N,/Con_PWM_A_H*%
X118895000Y-139675000D03*
%TD*%
D17*
%TO.P,C43,1*%
%TO.N,/Con_EN_B_L*%
X150845000Y-56017500D03*
%TO.P,C43,2*%
%TO.N,LOGIC_GND*%
X150845000Y-54292500D03*
%TD*%
D12*
%TO.P,R22,1*%
%TO.N,/Full-Bridge/Leg_B_Power_Stage/LegB_HS_OUTL*%
X129795000Y-72195000D03*
%TO.P,R22,2*%
%TO.N,/Full-Bridge/Leg_B_Power_Stage/LegB_HS_Gate*%
X129795000Y-75295000D03*
%TD*%
D11*
%TO.P,C29,1*%
%TO.N,Net-(U1-IN+)*%
X148700000Y-131212500D03*
%TO.P,C29,2*%
%TO.N,LOGIC_GND*%
X148700000Y-133287500D03*
%TD*%
D28*
%TO.P,C51,1*%
%TO.N,+3V3*%
X121245000Y-55875000D03*
%TO.P,C51,2*%
%TO.N,LOGIC_GND*%
X121245000Y-53800000D03*
%TD*%
%TO.P,C44,1*%
%TO.N,+3V3*%
X146645000Y-55962500D03*
%TO.P,C44,2*%
%TO.N,LOGIC_GND*%
X146645000Y-53887500D03*
%TD*%
%TO.P,C19,1*%
%TO.N,+15V_ISO_LALS*%
X132337500Y-114587500D03*
%TO.P,C19,2*%
%TO.N,GND_ISO_LAHS*%
X132337500Y-112512500D03*
%TD*%
D26*
%TO.P,C34,1*%
%TO.N,+3V3*%
X132437500Y-131067500D03*
%TO.P,C34,2*%
%TO.N,LOGIC_GND*%
X132437500Y-134192500D03*
%TD*%
D12*
%TO.P,R26,1*%
%TO.N,Net-(U3-IN+)*%
X160345000Y-55825000D03*
%TO.P,R26,2*%
%TO.N,/Con_PWM_B_L*%
X160345000Y-58925000D03*
%TD*%
D28*
%TO.P,C48,1*%
%TO.N,Net-(U4-IN+)*%
X131945000Y-55875000D03*
%TO.P,C48,2*%
%TO.N,LOGIC_GND*%
X131945000Y-53800000D03*
%TD*%
D25*
%TO.P,C52,1*%
%TO.N,+3V3*%
X123545000Y-55800000D03*
%TO.P,C52,2*%
%TO.N,LOGIC_GND*%
X123545000Y-52675000D03*
%TD*%
D10*
%TO.P,C31,1*%
%TO.N,/Con_FLT_A_H*%
X126237500Y-130937500D03*
%TO.P,C31,2*%
%TO.N,LOGIC_GND*%
X126237500Y-132662500D03*
%TD*%
D14*
%TO.P,R16,1*%
%TO.N,+3V3*%
X126937500Y-140900000D03*
%TO.P,R16,2*%
%TO.N,/Con_FLT_A_H*%
X126937500Y-137800000D03*
%TD*%
D22*
%TO.P,D4,1,K_1*%
%TO.N,/Full-Bridge/Leg_B_Power_Stage/LegB_HS_Gate*%
X132157500Y-80525000D03*
%TO.P,D4,2,A_2*%
%TO.N,GND_ISO_LBHS*%
X132157500Y-82425000D03*
%TO.P,D4,3*%
%TO.N,N/C*%
X134432500Y-81475000D03*
%TD*%
D21*
%TO.P,U4,1,AIN_1*%
%TO.N,GND_ISO_LBHS*%
X122092500Y-68500000D03*
%TO.P,U4,2,OC_2*%
X123362500Y-68500000D03*
%TO.P,U4,3,COM_3*%
X124632500Y-68500000D03*
%TO.P,U4,4,OUTH_4*%
%TO.N,/Full-Bridge/Leg_B_Power_Stage/LegB_HS_OUTH*%
X125902500Y-68500000D03*
%TO.P,U4,5,VDD_5*%
%TO.N,+15V_ISO_LBLS*%
X127172500Y-68500000D03*
%TO.P,U4,6,OUTL_6*%
%TO.N,/Full-Bridge/Leg_B_Power_Stage/LegB_HS_OUTL*%
X128442500Y-68500000D03*
%TO.P,U4,7,CLMPI_7*%
%TO.N,/Full-Bridge/Leg_B_Power_Stage/LegB_HS_Gate*%
X129712500Y-68500000D03*
%TO.P,U4,8,VEE_8*%
%TO.N,GND_ISO_LBHS*%
X130982500Y-68500000D03*
%TO.P,U4,9,GND_9*%
%TO.N,LOGIC_GND*%
X130982500Y-59050000D03*
%TO.P,U4,10,IN+_10*%
%TO.N,Net-(U4-IN+)*%
X129712500Y-59050000D03*
%TO.P,U4,11,IN-_11*%
%TO.N,LOGIC_GND*%
X128442500Y-59050000D03*
%TO.P,U4,12,RDY_12*%
%TO.N,/Con_RDY_B_H*%
X127172500Y-59050000D03*
%TO.P,U4,13,~{FLT}_13*%
%TO.N,/Con_FLT_B_H*%
X125902500Y-59050000D03*
%TO.P,U4,14,~{RST}/EN_14*%
%TO.N,/Con_EN_B_H*%
X124632500Y-59050000D03*
%TO.P,U4,15,VCC_15*%
%TO.N,+3V3*%
X123362500Y-59050000D03*
%TO.P,U4,16,APWM_16*%
%TO.N,unconnected-(U4-APWM-Pad16)*%
X122092500Y-59050000D03*
%TD*%
D22*
%TO.P,D3,1,K_1*%
%TO.N,/Full-Bridge/Leg_A_Power_Stage/LegA_LS_Gate*%
X159912500Y-106900000D03*
%TO.P,D3,2,A_2*%
%TO.N,GND*%
X159912500Y-108800000D03*
%TO.P,D3,3*%
%TO.N,N/C*%
X162187500Y-107850000D03*
%TD*%
D14*
%TO.P,R12,1*%
%TO.N,Net-(U1-IN+)*%
X146500000Y-134400000D03*
%TO.P,R12,2*%
%TO.N,/Con_PWM_A_L*%
X146500000Y-131300000D03*
%TD*%
D26*
%TO.P,C40,1*%
%TO.N,+15V_ISO_LBLS*%
X154395000Y-72192500D03*
%TO.P,C40,2*%
%TO.N,GND*%
X154395000Y-75317500D03*
%TD*%
D14*
%TO.P,R9,1*%
%TO.N,/Full-Bridge/Leg_A_Power_Stage/LegA_LS_OUTH*%
X154950000Y-115100000D03*
%TO.P,R9,2*%
%TO.N,/Full-Bridge/Leg_A_Power_Stage/LegA_LS_Gate*%
X154950000Y-112000000D03*
%TD*%
D12*
%TO.P,R27,1*%
%TO.N,+3V3*%
X125345000Y-45925000D03*
%TO.P,R27,2*%
%TO.N,/Con_EN_B_H*%
X125345000Y-49025000D03*
%TD*%
D15*
%TO.P,Q5,1,1_1*%
%TO.N,GND_ISO_LBHS*%
X149142100Y-87242500D03*
D16*
%TO.P,Q5,2,2_2*%
%TO.N,GND*%
X154222100Y-87242500D03*
%TO.P,Q5,3,3_3*%
X156762100Y-87242500D03*
%TO.P,Q5,4,4_4*%
%TO.N,/Full-Bridge/Leg_B_Power_Stage/LegB_LS_Gate*%
X159302100Y-87242500D03*
%TD*%
D25*
%TO.P,C17,1*%
%TO.N,+15V_ISO_LALS*%
X130087500Y-114562500D03*
%TO.P,C17,2*%
%TO.N,GND_ISO_LAHS*%
X130087500Y-111437500D03*
%TD*%
D17*
%TO.P,C49,1*%
%TO.N,/Con_FLT_B_H*%
X127695000Y-55930000D03*
%TO.P,C49,2*%
%TO.N,LOGIC_GND*%
X127695000Y-54205000D03*
%TD*%
D14*
%TO.P,R14,1*%
%TO.N,+3V3*%
X153100000Y-141750000D03*
%TO.P,R14,2*%
%TO.N,/Con_FLT_A_L*%
X153100000Y-138650000D03*
%TD*%
D29*
%TO.N,/Con_RDY_A_H*%
X125600000Y-129400000D03*
%TO.N,LOGIC_GND*%
X148000000Y-135000000D03*
X121400000Y-134300000D03*
X125437500Y-134350000D03*
X132895000Y-52525000D03*
X154000000Y-53025000D03*
X122000000Y-129050000D03*
X151100000Y-129600000D03*
X147860000Y-51490000D03*
X150650000Y-53075000D03*
X133500000Y-135500000D03*
X158395000Y-52675000D03*
X131650000Y-57300000D03*
X122445000Y-51375000D03*
X145400000Y-52700000D03*
X128945000Y-52925000D03*
X155345000Y-57375000D03*
X156500000Y-134600000D03*
X157995000Y-57325000D03*
X149050000Y-129650000D03*
X124400000Y-129200000D03*
X160500000Y-135800000D03*
X151850000Y-134250000D03*
X129300000Y-134300000D03*
X119795000Y-53675000D03*
X129250000Y-57200000D03*
%TO.N,+15V_ISO_LBLS*%
X145900000Y-72150000D03*
X127295000Y-70250000D03*
X118950000Y-72150000D03*
X154200000Y-70350000D03*
%TO.N,GND_ISO_LBHS*%
X122345000Y-70225000D03*
X128595000Y-76725000D03*
X123645000Y-70225000D03*
X124890000Y-70225000D03*
X121095000Y-75575000D03*
X127950000Y-83800000D03*
X131295000Y-70225000D03*
X158345000Y-70075000D03*
X134045000Y-72275000D03*
X128900000Y-83800000D03*
%TO.N,+3V3*%
X150850000Y-142900000D03*
X154750000Y-143100000D03*
X156650000Y-129750000D03*
X126795000Y-44525000D03*
X150350000Y-57350000D03*
X149595000Y-44625000D03*
X133950000Y-131250000D03*
X145250000Y-56050000D03*
X152495000Y-44575000D03*
X131487500Y-142100000D03*
X155295000Y-44575000D03*
X124095000Y-44525000D03*
X119845000Y-55975000D03*
X129445000Y-44525000D03*
X158000000Y-142800000D03*
X127937500Y-142350000D03*
X161250000Y-131500000D03*
X129800000Y-129400000D03*
X123350000Y-57400000D03*
X124987500Y-142150000D03*
%TO.N,/Con_RDY_B_H*%
X116350000Y-61000000D03*
X124400000Y-62650000D03*
%TO.N,/Con_PWM_A_L*%
X144950000Y-131400000D03*
%TO.N,GND_ISO_LAHS*%
X149000000Y-116650000D03*
X130937500Y-116200000D03*
X129712500Y-116200000D03*
X122137500Y-116150000D03*
X128442500Y-116200000D03*
X129200000Y-104675000D03*
X128887500Y-109900000D03*
X128350000Y-104675000D03*
%TO.N,/Con_PWM_A_H*%
X118550000Y-130000000D03*
%TO.N,/Con_EN_A_L*%
X155405000Y-129650000D03*
%TO.N,/Con_PWM_B_H*%
X136050000Y-59150000D03*
%TO.N,/Con_PWM_B_L*%
X162100000Y-59000000D03*
%TO.N,GND*%
X153385000Y-76985000D03*
X160050000Y-76600000D03*
X148500000Y-76650000D03*
X158400000Y-108250000D03*
X155350000Y-116700000D03*
X150346128Y-70480334D03*
X158300000Y-110400000D03*
X156450000Y-105150000D03*
X158000000Y-116700000D03*
X149024776Y-70480000D03*
X156050000Y-83900000D03*
X153500000Y-110225000D03*
X145600000Y-74350000D03*
X156700000Y-116700000D03*
X160700000Y-111800000D03*
X151695000Y-70475000D03*
X146250000Y-114550000D03*
X155249997Y-105150000D03*
X155150000Y-83900000D03*
%TO.N,+15V_ISO_LALS*%
X152865000Y-116600000D03*
X133800000Y-114550000D03*
X160000000Y-116400000D03*
X125887500Y-116100000D03*
%TO.N,/Con_FLT_A_H*%
X126762500Y-129362500D03*
%TO.N,/Con_EN_A_H*%
X128442500Y-129400000D03*
%TO.N,/Con_RDY_A_L*%
X152418750Y-129768750D03*
%TO.N,/Con_FLT_B_H*%
X116900000Y-60500000D03*
X123800000Y-61800000D03*
%TO.N,/Con_FLT_A_L*%
X153793750Y-129893750D03*
%TO.N,/Con_EN_B_H*%
X123286959Y-61284907D03*
X118000000Y-61100000D03*
%TD*%
%TO.N,/Con_RDY_A_H*%
D30*
X125600000Y-129400000D02*
X124637500Y-130362500D01*
X123637500Y-137600000D02*
X123637500Y-131937500D01*
X123637500Y-131937500D02*
X124637500Y-130937500D01*
X125600000Y-129400000D02*
X125902500Y-129097500D01*
X125902500Y-129097500D02*
X125902500Y-127375000D01*
X123737500Y-137700000D02*
X123637500Y-137600000D01*
X124637500Y-130362500D02*
X124637500Y-130937500D01*
%TO.N,LOGIC_GND*%
X122092500Y-128957500D02*
X122092500Y-127375000D01*
X129645000Y-53625000D02*
X129645000Y-54162500D01*
X154000000Y-53025000D02*
X154225000Y-53025000D01*
X124400000Y-129200000D02*
X124400000Y-129165000D01*
X148000000Y-134402000D02*
X148700000Y-133702000D01*
X157587500Y-133350000D02*
X156700000Y-133350000D01*
X148000000Y-135000000D02*
X148000000Y-134402000D01*
X131240000Y-57860000D02*
X131240000Y-59050000D01*
X131650000Y-57300000D02*
X131650000Y-57450000D01*
X129300000Y-134300000D02*
X128437500Y-133437500D01*
X128945000Y-52925000D02*
X128145000Y-53725000D01*
X128945000Y-52925000D02*
X129645000Y-53625000D01*
X154000000Y-53025000D02*
X153775000Y-53025000D01*
X149055000Y-129645000D02*
X149055000Y-127925000D01*
X132437500Y-134550000D02*
X132437500Y-134212500D01*
X122000000Y-129050000D02*
X122092500Y-128957500D01*
X128700000Y-57850000D02*
X128700000Y-59050000D01*
X157345000Y-53725000D02*
X157345000Y-53887500D01*
X121400000Y-134300000D02*
X121637500Y-134300000D01*
X160500000Y-135500000D02*
X159650000Y-134650000D01*
X157450000Y-133650000D02*
X156500000Y-134600000D01*
X152500000Y-132912500D02*
X152500000Y-133600000D01*
X151000000Y-133400000D02*
X151850000Y-134250000D01*
X128437500Y-133437500D02*
X128437500Y-132762500D01*
X133500000Y-135500000D02*
X133387500Y-135500000D01*
X156275000Y-132925000D02*
X155650000Y-132925000D01*
X119795000Y-53675000D02*
X120007500Y-53887500D01*
X150650000Y-53075000D02*
X150650000Y-54097500D01*
X133387500Y-135500000D02*
X132437500Y-134550000D01*
X158395000Y-52675000D02*
X157345000Y-53725000D01*
X157450000Y-133300000D02*
X157450000Y-133650000D01*
X145400000Y-52700000D02*
X145457500Y-52700000D01*
X157995000Y-57325000D02*
X157945000Y-57375000D01*
X128437500Y-132762500D02*
X129912500Y-132762500D01*
X124632500Y-128932500D02*
X124632500Y-127375000D01*
X126237500Y-133550000D02*
X125437500Y-134350000D01*
X132895000Y-52850000D02*
X131945000Y-53800000D01*
X151595000Y-129105000D02*
X151595000Y-127925000D01*
X128145000Y-53725000D02*
X128145000Y-54162500D01*
X120007500Y-53887500D02*
X121245000Y-53887500D01*
X131650000Y-57450000D02*
X131240000Y-57860000D01*
X148845000Y-52475000D02*
X148845000Y-52762500D01*
X147860000Y-51490000D02*
X148845000Y-52475000D01*
X159650000Y-134362500D02*
X159600000Y-134412500D01*
X124637500Y-133550000D02*
X125437500Y-134350000D01*
X121637500Y-134300000D02*
X122237500Y-133700000D01*
X154895000Y-53695000D02*
X154895000Y-54292500D01*
X160500000Y-135800000D02*
X160500000Y-135500000D01*
X157945000Y-57375000D02*
X157945000Y-59050000D01*
X159650000Y-134650000D02*
X159650000Y-134362500D01*
X122445000Y-51375000D02*
X122445000Y-51662500D01*
X125095000Y-54312500D02*
X123545000Y-52762500D01*
X126237500Y-132662500D02*
X126237500Y-133550000D01*
X151100000Y-129600000D02*
X151595000Y-129105000D01*
X155405000Y-57435000D02*
X155405000Y-59050000D01*
X129250000Y-57300000D02*
X128700000Y-57850000D01*
X129912500Y-132762500D02*
X130237500Y-133087500D01*
X129250000Y-57200000D02*
X129250000Y-57300000D01*
X153775000Y-53025000D02*
X153045000Y-53755000D01*
X122445000Y-51662500D02*
X123545000Y-52762500D01*
X155345000Y-57375000D02*
X155405000Y-57435000D01*
X156700000Y-133350000D02*
X156275000Y-132925000D01*
X151000000Y-132912500D02*
X151000000Y-133400000D01*
X125595000Y-54312500D02*
X125095000Y-54312500D01*
X145457500Y-52700000D02*
X146645000Y-53887500D01*
X153045000Y-53755000D02*
X153045000Y-54292500D01*
X149050000Y-129650000D02*
X149055000Y-129645000D01*
X124637500Y-132662500D02*
X124637500Y-133550000D01*
X150650000Y-54097500D02*
X150845000Y-54292500D01*
X122237500Y-133700000D02*
X122237500Y-133037500D01*
X148700000Y-133702000D02*
X148700000Y-133287500D01*
X152500000Y-133600000D02*
X151850000Y-134250000D01*
X154225000Y-53025000D02*
X154895000Y-53695000D01*
X124400000Y-129165000D02*
X124632500Y-128932500D01*
X132895000Y-52525000D02*
X132895000Y-52850000D01*
%TO.N,+15V_ISO_LBLS*%
X145900000Y-72150000D02*
X149602500Y-72150000D01*
X154195000Y-71992500D02*
X154195000Y-68560000D01*
X149602500Y-72150000D02*
X149645000Y-72192500D01*
X127172500Y-68500000D02*
X127430000Y-68757500D01*
X118962500Y-72137500D02*
X120495000Y-72137500D01*
X127295000Y-72062500D02*
X127295000Y-70250000D01*
X118950000Y-72150000D02*
X118962500Y-72137500D01*
X127445000Y-72212500D02*
X127295000Y-72062500D01*
X122620000Y-72137500D02*
X122695000Y-72212500D01*
X127295000Y-68622500D02*
X127172500Y-68500000D01*
X120495000Y-72137500D02*
X122620000Y-72137500D01*
X154195000Y-68560000D02*
X154135000Y-68500000D01*
X154395000Y-72192500D02*
X154195000Y-71992500D01*
X127430000Y-68757500D02*
X127430000Y-68934000D01*
X127295000Y-70250000D02*
X127295000Y-68622500D01*
%TO.N,GND_ISO_LBHS*%
D31*
X129350000Y-83800000D02*
X130000000Y-84450000D01*
D30*
X122695000Y-75337500D02*
X121332500Y-75337500D01*
D31*
X130000000Y-84450000D02*
X130000000Y-87054600D01*
X130000000Y-87054600D02*
X129812100Y-87242500D01*
D30*
X180145000Y-92144999D02*
X180245000Y-92244999D01*
X157945000Y-69675000D02*
X158345000Y-70075000D01*
X124890000Y-68500000D02*
X124890000Y-70225000D01*
X132157500Y-82425000D02*
X130845000Y-83737500D01*
D31*
X127272100Y-87242500D02*
X127272100Y-84327900D01*
D30*
X133645000Y-72175000D02*
X132145000Y-72175000D01*
X122350000Y-68500000D02*
X122350000Y-70220000D01*
X121332500Y-75337500D02*
X121095000Y-75575000D01*
X123620000Y-68500000D02*
X123620000Y-70200000D01*
X131240000Y-68500000D02*
X131240000Y-70170000D01*
X157945000Y-68500000D02*
X157945000Y-69675000D01*
X120495000Y-74975000D02*
X120495000Y-74212500D01*
X133745000Y-72275000D02*
X133645000Y-72175000D01*
X128395000Y-76725000D02*
X127445000Y-75775000D01*
X128595000Y-76725000D02*
X128395000Y-76725000D01*
D31*
X128900000Y-83800000D02*
X129350000Y-83800000D01*
D30*
X130845000Y-86209600D02*
X129812100Y-87242500D01*
X134045000Y-72275000D02*
X133745000Y-72275000D01*
X121095000Y-75575000D02*
X120495000Y-74975000D01*
D31*
X127950000Y-83800000D02*
X128900000Y-83800000D01*
D30*
X130845000Y-83737500D02*
X130845000Y-86209600D01*
D31*
X127272100Y-84327900D02*
X127800000Y-83800000D01*
X127800000Y-83800000D02*
X127950000Y-83800000D01*
%TO.N,+3V3*%
D30*
X133787500Y-131087500D02*
X133950000Y-131250000D01*
X153400000Y-141750000D02*
X153100000Y-141750000D01*
X124095000Y-44525000D02*
X124095000Y-44675000D01*
X130312500Y-131087500D02*
X130237500Y-131012500D01*
X126937500Y-140900000D02*
X126937500Y-141350000D01*
X152495000Y-44575000D02*
X152495000Y-44775000D01*
X145250000Y-56050000D02*
X146557500Y-56050000D01*
X126937500Y-141350000D02*
X127937500Y-142350000D01*
X156650000Y-129750000D02*
X156675000Y-129725000D01*
X148770000Y-55962500D02*
X148845000Y-55887500D01*
X161250000Y-131500000D02*
X161037500Y-131287500D01*
X119845000Y-55975000D02*
X121232500Y-55975000D01*
X156675000Y-129725000D02*
X156675000Y-127925000D01*
X123737500Y-140800000D02*
X124987500Y-142050000D01*
X154750000Y-143100000D02*
X153400000Y-141750000D01*
X129787500Y-127450000D02*
X129712500Y-127375000D01*
X132437500Y-131087500D02*
X133787500Y-131087500D01*
X132437500Y-131087500D02*
X130312500Y-131087500D01*
X121245000Y-55962500D02*
X123470000Y-55962500D01*
X152495000Y-44775000D02*
X153645000Y-45925000D01*
X146645000Y-55962500D02*
X148770000Y-55962500D01*
X123362500Y-57412500D02*
X123362500Y-59050000D01*
X150350000Y-57350000D02*
X150350000Y-57400000D01*
X157450000Y-131225000D02*
X159587500Y-131225000D01*
X127945000Y-45675000D02*
X127945000Y-45925000D01*
X129800000Y-129400000D02*
X129712500Y-129312500D01*
X150850000Y-142750000D02*
X149600000Y-141500000D01*
X130187500Y-140850000D02*
X130237500Y-140850000D01*
X150325000Y-57425000D02*
X150325000Y-59050000D01*
X155295000Y-44575000D02*
X155295000Y-44775000D01*
X150350000Y-57400000D02*
X150325000Y-57425000D01*
X123545000Y-55887500D02*
X123395000Y-56037500D01*
X123470000Y-55962500D02*
X123545000Y-55887500D01*
X123350000Y-57400000D02*
X123362500Y-57412500D01*
X161037500Y-131287500D02*
X159650000Y-131287500D01*
X155295000Y-44775000D02*
X156445000Y-45925000D01*
X126795000Y-44525000D02*
X127945000Y-45675000D01*
X129445000Y-44625000D02*
X130695000Y-45875000D01*
X158000000Y-142800000D02*
X157650000Y-142800000D01*
X146557500Y-56050000D02*
X146645000Y-55962500D01*
X159587500Y-131225000D02*
X159650000Y-131287500D01*
X124987500Y-142050000D02*
X124987500Y-142150000D01*
X123395000Y-58825000D02*
X123620000Y-59050000D01*
X130237500Y-140850000D02*
X131487500Y-142100000D01*
X129712500Y-129312500D02*
X129712500Y-127375000D01*
X124095000Y-44675000D02*
X125345000Y-45925000D01*
X157650000Y-142800000D02*
X156400000Y-141550000D01*
X149595000Y-44625000D02*
X149595000Y-44675000D01*
X129445000Y-44525000D02*
X129445000Y-44625000D01*
X149595000Y-44675000D02*
X150845000Y-45925000D01*
X121232500Y-55975000D02*
X121245000Y-55962500D01*
X150850000Y-142900000D02*
X150850000Y-142750000D01*
%TO.N,/Con_RDY_B_H*%
X129332500Y-55887500D02*
X129645000Y-55887500D01*
X112516524Y-65800000D02*
X103450000Y-65800000D01*
X124400000Y-62650000D02*
X127150000Y-59900000D01*
X103450000Y-65800000D02*
X100500000Y-68750001D01*
X127150000Y-59900000D02*
X127150000Y-58815000D01*
X116700000Y-61616524D02*
X112516524Y-65800000D01*
X130695000Y-48975000D02*
X130695000Y-54837500D01*
X116700000Y-61350000D02*
X116700000Y-61616524D01*
X116350000Y-61000000D02*
X116700000Y-61350000D01*
X100500000Y-68750001D02*
X100500000Y-106018476D01*
X107600000Y-113118476D02*
X107600000Y-124335000D01*
X107600000Y-124335000D02*
X109215000Y-125950000D01*
X100500000Y-106018476D02*
X107600000Y-113118476D01*
X130695000Y-54837500D02*
X129645000Y-55887500D01*
X127150000Y-58070000D02*
X129332500Y-55887500D01*
X127150000Y-59900000D02*
X127150000Y-58070000D01*
%TO.N,/Con_PWM_A_L*%
X144950000Y-131400000D02*
X146400000Y-131400000D01*
X144950000Y-131400000D02*
X144945000Y-131405000D01*
X146400000Y-131400000D02*
X146500000Y-131300000D01*
X144945000Y-131405000D02*
X144945000Y-140675000D01*
%TO.N,/Full-Bridge/Leg_A_Power_Stage/LegA_HS_OUTH*%
X127172500Y-117925000D02*
X127172500Y-117275000D01*
X127187500Y-117910000D02*
X127172500Y-117925000D01*
X127737500Y-115700000D02*
X127187500Y-116250000D01*
X127737500Y-114600000D02*
X127737500Y-115700000D01*
X127187500Y-116250000D02*
X127187500Y-117910000D01*
%TO.N,/Full-Bridge/Leg_A_Power_Stage/LegA_HS_Gate*%
X128454564Y-109623000D02*
X124664500Y-109623000D01*
X124187500Y-112650000D02*
X122987500Y-111450000D01*
X132594600Y-101317500D02*
X132594600Y-105492900D01*
X133437500Y-102160400D02*
X132594600Y-101317500D01*
X121910500Y-112527000D02*
X122987500Y-111450000D01*
X140500000Y-106800000D02*
X140150000Y-106450000D01*
X128689500Y-109398000D02*
X128679564Y-109398000D01*
X140150000Y-106450000D02*
X134250000Y-106450000D01*
X134250000Y-106450000D02*
X133437500Y-105637500D01*
X122987500Y-111300000D02*
X122987500Y-111450000D01*
X132594600Y-105492900D02*
X128689500Y-109398000D01*
X121910500Y-115144152D02*
X121910500Y-112527000D01*
X123362500Y-116596152D02*
X121910500Y-115144152D01*
X128679564Y-109398000D02*
X128454564Y-109623000D01*
X133437500Y-105637500D02*
X133437500Y-102160400D01*
X124664500Y-109623000D02*
X122987500Y-111300000D01*
X120637500Y-111450000D02*
X122987500Y-111450000D01*
X127737500Y-111500000D02*
X126587500Y-112650000D01*
X123362500Y-117925000D02*
X123362500Y-116596152D01*
X126587500Y-112650000D02*
X124187500Y-112650000D01*
%TO.N,GND_ISO_LAHS*%
X132337500Y-112512500D02*
X131262500Y-111437500D01*
X122137500Y-116200000D02*
X122092500Y-116245000D01*
X132337500Y-110262500D02*
X132337500Y-112512500D01*
X130087500Y-111000000D02*
X128987500Y-109900000D01*
X122092500Y-116245000D02*
X122092500Y-117925000D01*
X179995000Y-100995000D02*
X180245000Y-100745000D01*
X149000000Y-116650000D02*
X149055000Y-116705000D01*
X126925000Y-109900000D02*
X128887500Y-109900000D01*
X128887500Y-109900000D02*
X128987500Y-109900000D01*
X122137500Y-116150000D02*
X122137500Y-116200000D01*
D31*
X128350000Y-104675000D02*
X129200000Y-104675000D01*
D30*
X129712500Y-116200000D02*
X129712500Y-117925000D01*
D31*
X129645000Y-104675000D02*
X130054600Y-104265400D01*
D30*
X130982500Y-116245000D02*
X130982500Y-117925000D01*
X134250000Y-108350000D02*
X132337500Y-110262500D01*
D31*
X127514600Y-101317500D02*
X127514600Y-104344600D01*
D30*
X130087500Y-111437500D02*
X130087500Y-111000000D01*
X131262500Y-111437500D02*
X130087500Y-111437500D01*
D31*
X130054600Y-104265400D02*
X130054600Y-101317500D01*
D30*
X125387500Y-111437500D02*
X126925000Y-109900000D01*
X128442500Y-116200000D02*
X128442500Y-117925000D01*
D31*
X127514600Y-104344600D02*
X127845000Y-104675000D01*
D30*
X120637500Y-114550000D02*
X122137500Y-116050000D01*
X130937500Y-116200000D02*
X130982500Y-116245000D01*
D31*
X129200000Y-104675000D02*
X129645000Y-104675000D01*
D30*
X149055000Y-116705000D02*
X149055000Y-118475000D01*
X122137500Y-116050000D02*
X122137500Y-116150000D01*
D31*
X127845000Y-104675000D02*
X128350000Y-104675000D01*
%TO.N,/Full-Bridge/Leg_B_Power_Stage/LegB_HS_Gate*%
D30*
X133022000Y-86572600D02*
X133022000Y-81389500D01*
X138395000Y-80525000D02*
X139145000Y-81275000D01*
X126295000Y-74075000D02*
X128595000Y-74075000D01*
X129712500Y-68757500D02*
X129970000Y-68500000D01*
X132352100Y-87242500D02*
X133022000Y-86572600D01*
X132157500Y-80525000D02*
X132157500Y-75287500D01*
X125095000Y-75275000D02*
X126295000Y-74075000D01*
X132145000Y-75275000D02*
X129795000Y-75275000D01*
X129712500Y-69792500D02*
X129712500Y-68757500D01*
X128595000Y-74075000D02*
X129795000Y-75275000D01*
X131095000Y-71175000D02*
X129712500Y-69792500D01*
X129795000Y-75275000D02*
X131095000Y-73975000D01*
X132157500Y-80525000D02*
X138395000Y-80525000D01*
X133022000Y-81389500D02*
X132157500Y-80525000D01*
X132157500Y-75287500D02*
X132145000Y-75275000D01*
X131095000Y-73975000D02*
X131095000Y-71175000D01*
%TO.N,/Con_RDY_B_L*%
X154135000Y-57350000D02*
X154135000Y-59050000D01*
X130373000Y-123227000D02*
X143950000Y-109649999D01*
X109215000Y-128950000D02*
X110200000Y-128950000D01*
X155845000Y-55067500D02*
X154895000Y-56017500D01*
X154135000Y-60165000D02*
X154135000Y-59050000D01*
X155845000Y-49625000D02*
X155845000Y-55067500D01*
X143950000Y-70350000D02*
X154135000Y-60165000D01*
X154135000Y-56777500D02*
X154135000Y-57350000D01*
X154895000Y-56017500D02*
X154135000Y-56777500D01*
X143950000Y-109649999D02*
X143950000Y-70350000D01*
X110200000Y-128950000D02*
X115923000Y-123227000D01*
X115923000Y-123227000D02*
X130373000Y-123227000D01*
X156445000Y-49025000D02*
X155845000Y-49625000D01*
%TO.N,Net-(U2-IN+)*%
X122237500Y-130962500D02*
X122237500Y-129912500D01*
X120200000Y-133000000D02*
X122237500Y-130962500D01*
X123362500Y-128787500D02*
X123362500Y-127375000D01*
X122237500Y-129912500D02*
X123362500Y-128787500D01*
X120037500Y-133000000D02*
X120200000Y-133000000D01*
%TO.N,/Con_PWM_A_H*%
X118550000Y-139330000D02*
X118895000Y-139675000D01*
X118550000Y-130000000D02*
X118650000Y-129900000D01*
X118550000Y-130000000D02*
X118550000Y-139330000D01*
X118650000Y-129900000D02*
X120037500Y-129900000D01*
%TO.N,/Con_FLT_B_L*%
X152950000Y-59135000D02*
X152865000Y-59050000D01*
X109215000Y-122950000D02*
X130258262Y-122950000D01*
X153645000Y-49025000D02*
X152072000Y-50598000D01*
X153045000Y-58870000D02*
X152865000Y-59050000D01*
X152072000Y-55044500D02*
X153045000Y-56017500D01*
X152950000Y-60958262D02*
X152950000Y-59135000D01*
X152072000Y-50598000D02*
X152072000Y-55044500D01*
X153045000Y-56017500D02*
X153045000Y-57350000D01*
X143673000Y-109535262D02*
X143673000Y-70235262D01*
X153045000Y-57350000D02*
X153045000Y-58870000D01*
X130258262Y-122950000D02*
X143673000Y-109535262D01*
X143673000Y-70235262D02*
X152950000Y-60958262D01*
%TO.N,/Con_EN_A_L*%
X155600000Y-131150000D02*
X155600000Y-131050000D01*
X154200000Y-136250000D02*
X154200000Y-132550000D01*
X154200000Y-132550000D02*
X155600000Y-131150000D01*
X155600000Y-131050000D02*
X155405000Y-130855000D01*
X155405000Y-130855000D02*
X155405000Y-129650000D01*
X155405000Y-129650000D02*
X155405000Y-127925000D01*
X156400000Y-138450000D02*
X154200000Y-136250000D01*
%TO.N,/Con_PWM_B_H*%
X134995000Y-48775000D02*
X135645000Y-49425000D01*
X135950000Y-59150000D02*
X135925000Y-59125000D01*
X136050000Y-59150000D02*
X135950000Y-59150000D01*
X136050000Y-58130000D02*
X136050000Y-59150000D01*
X135925000Y-59125000D02*
X134245000Y-59125000D01*
X135645000Y-57725000D02*
X136050000Y-58130000D01*
X135645000Y-49425000D02*
X135645000Y-57725000D01*
%TO.N,/Con_PWM_B_L*%
X162100000Y-59000000D02*
X162025000Y-58925000D01*
X161495000Y-49525000D02*
X161495000Y-48725000D01*
X162100000Y-50130000D02*
X161495000Y-49525000D01*
X162100000Y-59000000D02*
X162100000Y-50130000D01*
X162025000Y-58925000D02*
X160345000Y-58925000D01*
%TO.N,GND*%
D32*
X153845000Y-76525000D02*
X153845000Y-75867500D01*
X149024776Y-70459924D02*
X149045000Y-70439700D01*
D31*
X156762100Y-87242500D02*
X156762100Y-85107900D01*
D30*
X152550000Y-111250000D02*
X152550000Y-111987500D01*
D33*
X157845000Y-84779940D02*
X156762100Y-85862840D01*
D30*
X157300000Y-111450000D02*
X157300000Y-111937500D01*
D33*
X157845000Y-83037500D02*
X157845000Y-84779940D01*
D32*
X160050000Y-76600000D02*
X159970000Y-76600000D01*
X147300000Y-114600000D02*
X147800000Y-115100000D01*
D31*
X156450000Y-105150000D02*
X156650000Y-105150000D01*
D30*
X157945000Y-116755000D02*
X157945000Y-118475000D01*
X159500000Y-113062500D02*
X159500000Y-113000000D01*
D31*
X154627100Y-104577100D02*
X154627100Y-101317500D01*
D32*
X146250000Y-114550000D02*
X146300000Y-114600000D01*
X148545000Y-76605000D02*
X148545000Y-76417500D01*
D30*
X153400000Y-110325000D02*
X153400000Y-110400000D01*
D33*
X156762100Y-85862840D02*
X156762100Y-87242500D01*
D32*
X151695000Y-70475000D02*
X151645000Y-70425000D01*
X159970000Y-76600000D02*
X159095000Y-75725000D01*
X153845000Y-75867500D02*
X154395000Y-75317500D01*
D33*
X158307500Y-82575000D02*
X157845000Y-83037500D01*
D30*
X156675000Y-116725000D02*
X156675000Y-118475000D01*
D32*
X150346128Y-70480334D02*
X150345000Y-70479206D01*
X153385000Y-76985000D02*
X153845000Y-76525000D01*
D31*
X157167100Y-104632900D02*
X157167100Y-101317500D01*
D32*
X148500000Y-76650000D02*
X148545000Y-76605000D01*
X148545000Y-76417500D02*
X149645000Y-75317500D01*
D30*
X153500000Y-110225000D02*
X153400000Y-110325000D01*
D31*
X155200000Y-105150000D02*
X154627100Y-104577100D01*
X156762100Y-84492100D02*
X156762100Y-87242500D01*
X156650000Y-105150000D02*
X157167100Y-104632900D01*
D30*
X155405000Y-116755000D02*
X155405000Y-118475000D01*
D32*
X151645000Y-70425000D02*
X151645000Y-68867650D01*
D30*
X158300000Y-110400000D02*
X158300000Y-110450000D01*
D31*
X154222100Y-87242500D02*
X154222100Y-84747900D01*
D30*
X159500000Y-113000000D02*
X160700000Y-111800000D01*
X158000000Y-116700000D02*
X157945000Y-116755000D01*
D31*
X155249997Y-105150000D02*
X156450000Y-105150000D01*
D32*
X149024776Y-70480000D02*
X149024776Y-70459924D01*
X147345000Y-74192500D02*
X145757500Y-74192500D01*
D31*
X156762100Y-87242500D02*
X156409100Y-87242500D01*
D30*
X158950000Y-108800000D02*
X160362500Y-108800000D01*
D31*
X156145000Y-83875000D02*
X156762100Y-84492100D01*
D32*
X149045000Y-70439700D02*
X149045000Y-68925000D01*
D31*
X154222100Y-84747900D02*
X155095000Y-83875000D01*
D30*
X158300000Y-110450000D02*
X157300000Y-111450000D01*
X155350000Y-116700000D02*
X155405000Y-116755000D01*
D32*
X150345000Y-70479206D02*
X150345000Y-69067650D01*
D30*
X156700000Y-116700000D02*
X156675000Y-116725000D01*
X153400000Y-110400000D02*
X152550000Y-111250000D01*
X153500000Y-110400000D02*
X153500000Y-110225000D01*
D32*
X146300000Y-114600000D02*
X147300000Y-114600000D01*
X159095000Y-75725000D02*
X159095000Y-75275000D01*
D30*
X158400000Y-108250000D02*
X158950000Y-108800000D01*
D31*
X155095000Y-83875000D02*
X156145000Y-83875000D01*
X155249997Y-105150000D02*
X155200000Y-105150000D01*
D32*
X145757500Y-74192500D02*
X145600000Y-74350000D01*
%TO.N,/Full-Bridge/Leg_A_Power_Stage/LegA_LS_Gate*%
D30*
X150200000Y-112000000D02*
X150200000Y-111500000D01*
X154950000Y-112000000D02*
X153750000Y-113200000D01*
X152600000Y-109100000D02*
X154650000Y-109100000D01*
X150200000Y-112000000D02*
X147900000Y-112000000D01*
X151400000Y-113200000D02*
X150200000Y-112000000D01*
X159707100Y-104042900D02*
X159707100Y-101100000D01*
X164850000Y-106900000D02*
X165675000Y-107725000D01*
X150325000Y-118475000D02*
X150325000Y-116896152D01*
X165375000Y-106900000D02*
X166200000Y-107725000D01*
X150325000Y-116896152D02*
X149000000Y-115571152D01*
X150200000Y-111500000D02*
X152600000Y-109100000D01*
X159950000Y-106862500D02*
X159912500Y-106900000D01*
X149000000Y-113200000D02*
X150200000Y-112000000D01*
X159950000Y-101342900D02*
X159950000Y-106862500D01*
X154650000Y-109100000D02*
X159707100Y-104042900D01*
X160362500Y-106900000D02*
X164850000Y-106900000D01*
X153750000Y-113200000D02*
X151400000Y-113200000D01*
X149000000Y-115571152D02*
X149000000Y-113200000D01*
X159707100Y-101100000D02*
X159950000Y-101342900D01*
%TO.N,/Con_EN_B_L*%
X143396000Y-109420524D02*
X143396000Y-70120524D01*
X151795000Y-49975000D02*
X151795000Y-55067500D01*
X115950000Y-122600000D02*
X130216524Y-122600000D01*
X109215000Y-116950000D02*
X110300000Y-116950000D01*
X151595000Y-57350000D02*
X151595000Y-59050000D01*
X151795000Y-55067500D02*
X150845000Y-56017500D01*
X110300000Y-116950000D02*
X115950000Y-122600000D01*
X151595000Y-61921524D02*
X151595000Y-59050000D01*
X130216524Y-122600000D02*
X143396000Y-109420524D01*
X150845000Y-49025000D02*
X151795000Y-49975000D01*
X143396000Y-70120524D02*
X151595000Y-61921524D01*
X151595000Y-56767500D02*
X151595000Y-57350000D01*
X150845000Y-56017500D02*
X151595000Y-56767500D01*
%TO.N,/Full-Bridge/Leg_B_Power_Stage/LegB_LS_Gate*%
X158307500Y-80675000D02*
X156745000Y-79112500D01*
X156745000Y-75275000D02*
X157395000Y-74625000D01*
X157395000Y-74422792D02*
X159095000Y-72722792D01*
X156745000Y-74625000D02*
X156745000Y-75275000D01*
X159795000Y-82016986D02*
X159795000Y-86749600D01*
X158307500Y-80675000D02*
X158453014Y-80675000D01*
X151995000Y-75127792D02*
X153292792Y-73830000D01*
X156745000Y-79112500D02*
X156745000Y-75275000D01*
X151995000Y-75275000D02*
X151995000Y-75127792D01*
X159095000Y-72722792D02*
X159095000Y-72175000D01*
X156675000Y-69755000D02*
X156675000Y-68500000D01*
X153292792Y-73830000D02*
X155950000Y-73830000D01*
X165345000Y-83775000D02*
X165345000Y-81325000D01*
X161877500Y-87242500D02*
X165345000Y-83775000D01*
X155950000Y-73830000D02*
X156745000Y-74625000D01*
X159795000Y-86749600D02*
X159302100Y-87242500D01*
X158453014Y-80675000D02*
X159795000Y-82016986D01*
X157395000Y-74625000D02*
X157395000Y-74422792D01*
X159095000Y-72175000D02*
X156675000Y-69755000D01*
X159302100Y-87242500D02*
X161877500Y-87242500D01*
%TO.N,/Full-Bridge/Leg_B_Power_Stage/LegB_LS_OUTH*%
X151995000Y-72175000D02*
X152865000Y-71305000D01*
X152865000Y-71305000D02*
X152865000Y-68500000D01*
%TO.N,/Full-Bridge/Leg_B_Power_Stage/LegB_LS_OUTL*%
X156745000Y-72175000D02*
X155405000Y-70835000D01*
X155405000Y-70835000D02*
X155405000Y-68500000D01*
%TO.N,Net-(U3-IN+)*%
X157432500Y-55875000D02*
X157345000Y-55962500D01*
X156795000Y-58930000D02*
X156675000Y-59050000D01*
X157345000Y-55962500D02*
X157345000Y-56975000D01*
X156795000Y-57525000D02*
X156795000Y-58930000D01*
X157345000Y-56975000D02*
X156795000Y-57525000D01*
X160745000Y-55875000D02*
X157432500Y-55875000D01*
%TO.N,+15V_ISO_LALS*%
X157375000Y-115137500D02*
X157300000Y-115062500D01*
X152865000Y-115427500D02*
X152550000Y-115112500D01*
X152865000Y-116600000D02*
X152865000Y-115427500D01*
X160000000Y-115657500D02*
X159500000Y-115157500D01*
X152865000Y-118475000D02*
X152865000Y-116600000D01*
X160000000Y-116400000D02*
X160000000Y-115657500D01*
X130112500Y-114587500D02*
X130087500Y-114562500D01*
X125887500Y-116100000D02*
X125887500Y-117910000D01*
X125887500Y-115062500D02*
X125887500Y-116100000D01*
X125387500Y-114562500D02*
X125887500Y-115062500D01*
X159500000Y-115137500D02*
X157375000Y-115137500D01*
X133800000Y-114550000D02*
X133762500Y-114587500D01*
X133762500Y-114587500D02*
X130112500Y-114587500D01*
X125887500Y-117910000D02*
X125902500Y-117925000D01*
%TO.N,/Full-Bridge/Leg_A_Power_Stage/LegA_HS_OUTL*%
X124632500Y-116195000D02*
X122987500Y-114550000D01*
X124632500Y-117925000D02*
X124632500Y-116195000D01*
%TO.N,/Con_FLT_A_H*%
X127187500Y-131887500D02*
X126237500Y-130937500D01*
X126762500Y-129362500D02*
X127172500Y-128952500D01*
X127187500Y-137550000D02*
X127187500Y-131887500D01*
X126937500Y-137800000D02*
X127187500Y-137550000D01*
X127172500Y-128952500D02*
X127172500Y-127375000D01*
X126237500Y-130937500D02*
X126237500Y-129887500D01*
X126237500Y-129887500D02*
X126762500Y-129362500D01*
%TO.N,/Con_EN_A_H*%
X128442500Y-129400000D02*
X128442500Y-127375000D01*
X128437500Y-131037500D02*
X128437500Y-129987500D01*
X127464500Y-132010500D02*
X128437500Y-131037500D01*
X128437500Y-129987500D02*
X128442500Y-129982500D01*
X130187500Y-137750000D02*
X127464500Y-135027000D01*
X128442500Y-129982500D02*
X128442500Y-129400000D01*
X127464500Y-135027000D02*
X127464500Y-132010500D01*
%TO.N,/Con_RDY_A_L*%
X150000000Y-132187500D02*
X150000000Y-138000000D01*
X152418750Y-129768750D02*
X152865000Y-129322500D01*
X152418750Y-129768750D02*
X151000000Y-131187500D01*
X151000000Y-131187500D02*
X150000000Y-132187500D01*
X152865000Y-129322500D02*
X152865000Y-127925000D01*
X150000000Y-138000000D02*
X149600000Y-138400000D01*
%TO.N,/Full-Bridge/Leg_A_Power_Stage/LegA_LS_OUTL*%
X150200000Y-115100000D02*
X151595000Y-116495000D01*
X151595000Y-116495000D02*
X151595000Y-118475000D01*
%TO.N,/Con_FLT_B_H*%
X103564738Y-66077000D02*
X100777000Y-68864738D01*
X126845000Y-55037500D02*
X127695000Y-55887500D01*
X123800000Y-61800000D02*
X124250000Y-61800000D01*
X126845000Y-50133263D02*
X126845000Y-55037500D01*
X100777000Y-68864738D02*
X100777000Y-105903738D01*
X126840869Y-50129131D02*
X126845000Y-50133263D01*
X107877000Y-118612000D02*
X109215000Y-119950000D01*
X117400000Y-61308261D02*
X112631261Y-66077000D01*
X116900000Y-60500000D02*
X117400000Y-61000000D01*
X127945000Y-49025000D02*
X126840869Y-50129131D01*
X125600000Y-60450000D02*
X125850000Y-60200000D01*
X125850000Y-57732500D02*
X127695000Y-55887500D01*
X117400000Y-61000000D02*
X117400000Y-61308261D01*
X124250000Y-61800000D02*
X125650000Y-60400000D01*
X125850000Y-60200000D02*
X125850000Y-57732500D01*
X125850000Y-58845000D02*
X125902500Y-58792500D01*
X107877000Y-113003739D02*
X107877000Y-118612000D01*
X100777000Y-105903738D02*
X107877000Y-113003739D01*
X112631261Y-66077000D02*
X103564738Y-66077000D01*
%TO.N,/Full-Bridge/Leg_A_Power_Stage/LegA_LS_OUTH*%
X154135000Y-118475000D02*
X154135000Y-115915000D01*
X154135000Y-115915000D02*
X154950000Y-115100000D01*
%TO.N,Net-(U1-IN+)*%
X146500000Y-133412500D02*
X148700000Y-131212500D01*
X150325000Y-129587500D02*
X150325000Y-127925000D01*
X148700000Y-131212500D02*
X150325000Y-129587500D01*
X146500000Y-134400000D02*
X146500000Y-133412500D01*
%TO.N,/Con_FLT_A_L*%
X153100000Y-138650000D02*
X153900000Y-137850000D01*
X153793750Y-129893750D02*
X154135000Y-129552500D01*
X152500000Y-131187500D02*
X153793750Y-129893750D01*
X154135000Y-129552500D02*
X154135000Y-127925000D01*
X153900000Y-132587500D02*
X152500000Y-131187500D01*
X153900000Y-137850000D02*
X153900000Y-132587500D01*
%TO.N,Net-(U4-IN+)*%
X132095000Y-56025000D02*
X131945000Y-55875000D01*
X134245000Y-56025000D02*
X132095000Y-56025000D01*
X131945000Y-55875000D02*
X129712500Y-58107500D01*
X129712500Y-58107500D02*
X129712500Y-58792500D01*
X129712500Y-58792500D02*
X129970000Y-59050000D01*
%TO.N,/Con_EN_B_H*%
X124650000Y-59921866D02*
X124650000Y-58810000D01*
X124650000Y-57670000D02*
X125645000Y-56675000D01*
X124650000Y-59921866D02*
X124650000Y-57670000D01*
X124650000Y-58810000D02*
X124595000Y-58755000D01*
X123286959Y-61284907D02*
X124650000Y-59921866D01*
X112746000Y-66354000D02*
X103679476Y-66354000D01*
X126568000Y-55114500D02*
X125645000Y-56037500D01*
X125345000Y-49025000D02*
X126568000Y-50248000D01*
X101054000Y-68979476D02*
X101054000Y-105789000D01*
X101054000Y-105789000D02*
X109215000Y-113950000D01*
X103679476Y-66354000D02*
X101054000Y-68979476D01*
X118000000Y-61100000D02*
X112746000Y-66354000D01*
X126568000Y-50248000D02*
X126568000Y-55114500D01*
X125645000Y-56675000D02*
X125645000Y-56037500D01*
%TO.N,/Full-Bridge/Leg_B_Power_Stage/LegB_HS_OUTH*%
X126160000Y-71110000D02*
X126160000Y-68500000D01*
X125095000Y-72175000D02*
X126160000Y-71110000D01*
%TO.N,/Full-Bridge/Leg_B_Power_Stage/LegB_HS_OUTL*%
X128495000Y-70875000D02*
X128495000Y-68705000D01*
X129795000Y-72175000D02*
X128495000Y-70875000D01*
X128495000Y-68705000D02*
X128700000Y-68500000D01*
%TD*%
%TA.AperFunction,Conductor*%
%TO.N,/DC_Link_Caps/BUS_DC+*%
G36*
X125237421Y-81395203D02*
G01*
X125283488Y-81447735D01*
X125295000Y-81499913D01*
X125295000Y-106101249D01*
X125275315Y-106168288D01*
X125222511Y-106214043D01*
X125171250Y-106225249D01*
X102754489Y-106270444D01*
X102687410Y-106250894D01*
X102666558Y-106234125D01*
X102036319Y-105603886D01*
X102002834Y-105542563D01*
X102000000Y-105516205D01*
X102000000Y-100643679D01*
X102312600Y-100643679D01*
X102312600Y-100846320D01*
X102344299Y-101046463D01*
X102406921Y-101239192D01*
X102498916Y-101419744D01*
X102529545Y-101461899D01*
X102529546Y-101461900D01*
X103089765Y-100901680D01*
X103102950Y-100950885D01*
X103173174Y-101072515D01*
X103272485Y-101171826D01*
X103394115Y-101242050D01*
X103443319Y-101255234D01*
X102883099Y-101815453D01*
X102883099Y-101815454D01*
X102925254Y-101846082D01*
X103105807Y-101938078D01*
X103298536Y-102000700D01*
X103298535Y-102000700D01*
X103498680Y-102032400D01*
X103701320Y-102032400D01*
X103901463Y-102000700D01*
X104094192Y-101938078D01*
X104274747Y-101846081D01*
X104274751Y-101846079D01*
X104316899Y-101815454D01*
X104316900Y-101815454D01*
X103756680Y-101255234D01*
X103805885Y-101242050D01*
X103927515Y-101171826D01*
X104026826Y-101072515D01*
X104097050Y-100950885D01*
X104110234Y-100901680D01*
X104670453Y-101461900D01*
X104670454Y-101461899D01*
X104701079Y-101419751D01*
X104701084Y-101419742D01*
X104739515Y-101344318D01*
X104787489Y-101293521D01*
X104855310Y-101276726D01*
X104921445Y-101299263D01*
X104960485Y-101344318D01*
X104998915Y-101419741D01*
X105029545Y-101461899D01*
X105029546Y-101461900D01*
X105589765Y-100901680D01*
X105602950Y-100950885D01*
X105673174Y-101072515D01*
X105772485Y-101171826D01*
X105894115Y-101242050D01*
X105943319Y-101255234D01*
X105383099Y-101815453D01*
X105383099Y-101815454D01*
X105425254Y-101846082D01*
X105605807Y-101938078D01*
X105798536Y-102000700D01*
X105798535Y-102000700D01*
X105998680Y-102032400D01*
X106201320Y-102032400D01*
X106401463Y-102000700D01*
X106594192Y-101938078D01*
X106774747Y-101846081D01*
X106774751Y-101846079D01*
X106816899Y-101815454D01*
X106816900Y-101815454D01*
X106256680Y-101255234D01*
X106305885Y-101242050D01*
X106427515Y-101171826D01*
X106526826Y-101072515D01*
X106597050Y-100950885D01*
X106610234Y-100901680D01*
X107170453Y-101461900D01*
X107170454Y-101461899D01*
X107201079Y-101419751D01*
X107201084Y-101419742D01*
X107239515Y-101344318D01*
X107287489Y-101293521D01*
X107355310Y-101276726D01*
X107421445Y-101299263D01*
X107460485Y-101344318D01*
X107498915Y-101419741D01*
X107529545Y-101461899D01*
X107529546Y-101461900D01*
X108089765Y-100901680D01*
X108102950Y-100950885D01*
X108173174Y-101072515D01*
X108272485Y-101171826D01*
X108394115Y-101242050D01*
X108443319Y-101255234D01*
X107883099Y-101815453D01*
X107883099Y-101815454D01*
X107925254Y-101846082D01*
X108105807Y-101938078D01*
X108298536Y-102000700D01*
X108298535Y-102000700D01*
X108498680Y-102032400D01*
X108701320Y-102032400D01*
X108901463Y-102000700D01*
X109094192Y-101938078D01*
X109274747Y-101846081D01*
X109274751Y-101846079D01*
X109316899Y-101815454D01*
X109316900Y-101815454D01*
X108756680Y-101255234D01*
X108805885Y-101242050D01*
X108927515Y-101171826D01*
X109026826Y-101072515D01*
X109097050Y-100950885D01*
X109110234Y-100901680D01*
X109670453Y-101461900D01*
X109670454Y-101461899D01*
X109701079Y-101419751D01*
X109701084Y-101419742D01*
X109739515Y-101344318D01*
X109787489Y-101293521D01*
X109855310Y-101276726D01*
X109921445Y-101299263D01*
X109960485Y-101344318D01*
X109998915Y-101419741D01*
X110029545Y-101461899D01*
X110029546Y-101461900D01*
X110589765Y-100901680D01*
X110602950Y-100950885D01*
X110673174Y-101072515D01*
X110772485Y-101171826D01*
X110894115Y-101242050D01*
X110943319Y-101255234D01*
X110383099Y-101815453D01*
X110383099Y-101815454D01*
X110425254Y-101846082D01*
X110605807Y-101938078D01*
X110798536Y-102000700D01*
X110798535Y-102000700D01*
X110998680Y-102032400D01*
X111201320Y-102032400D01*
X111401463Y-102000700D01*
X111594192Y-101938078D01*
X111774747Y-101846081D01*
X111774751Y-101846079D01*
X111816899Y-101815454D01*
X111816900Y-101815454D01*
X111256680Y-101255234D01*
X111305885Y-101242050D01*
X111427515Y-101171826D01*
X111526826Y-101072515D01*
X111597050Y-100950885D01*
X111610234Y-100901680D01*
X112170453Y-101461900D01*
X112170454Y-101461899D01*
X112201079Y-101419751D01*
X112201084Y-101419742D01*
X112239515Y-101344318D01*
X112287489Y-101293521D01*
X112355310Y-101276726D01*
X112421445Y-101299263D01*
X112460485Y-101344318D01*
X112498915Y-101419741D01*
X112529545Y-101461899D01*
X112529546Y-101461900D01*
X113089765Y-100901680D01*
X113102950Y-100950885D01*
X113173174Y-101072515D01*
X113272485Y-101171826D01*
X113394115Y-101242050D01*
X113443319Y-101255234D01*
X112883099Y-101815453D01*
X112883099Y-101815454D01*
X112925254Y-101846082D01*
X113105807Y-101938078D01*
X113298536Y-102000700D01*
X113298535Y-102000700D01*
X113498680Y-102032400D01*
X113701320Y-102032400D01*
X113901463Y-102000700D01*
X114094192Y-101938078D01*
X114274747Y-101846081D01*
X114274751Y-101846079D01*
X114316899Y-101815454D01*
X114316900Y-101815454D01*
X113756680Y-101255234D01*
X113805885Y-101242050D01*
X113927515Y-101171826D01*
X114026826Y-101072515D01*
X114097050Y-100950885D01*
X114110234Y-100901680D01*
X114670453Y-101461900D01*
X114670454Y-101461900D01*
X114684005Y-101443250D01*
X114684005Y-101443249D01*
X114701077Y-101419753D01*
X114701081Y-101419747D01*
X114793078Y-101239192D01*
X114855700Y-101046463D01*
X114887400Y-100846320D01*
X114887400Y-100643679D01*
X114855700Y-100443536D01*
X114793078Y-100250807D01*
X114701082Y-100070254D01*
X114670453Y-100028099D01*
X114110233Y-100588318D01*
X114097050Y-100539115D01*
X114026826Y-100417485D01*
X113927515Y-100318174D01*
X113805885Y-100247950D01*
X113756680Y-100234765D01*
X114316900Y-99674546D01*
X114316899Y-99674545D01*
X114274744Y-99643916D01*
X114094192Y-99551921D01*
X113901463Y-99489299D01*
X113901464Y-99489299D01*
X113701320Y-99457600D01*
X113498680Y-99457600D01*
X113298536Y-99489299D01*
X113105807Y-99551921D01*
X112925250Y-99643919D01*
X112883099Y-99674544D01*
X112883098Y-99674545D01*
X113443319Y-100234765D01*
X113394115Y-100247950D01*
X113272485Y-100318174D01*
X113173174Y-100417485D01*
X113102950Y-100539115D01*
X113089766Y-100588319D01*
X112529545Y-100028098D01*
X112529544Y-100028099D01*
X112498919Y-100070251D01*
X112460485Y-100145682D01*
X112412510Y-100196478D01*
X112344689Y-100213273D01*
X112278554Y-100190736D01*
X112239515Y-100145682D01*
X112201082Y-100070254D01*
X112170453Y-100028099D01*
X111610233Y-100588318D01*
X111597050Y-100539115D01*
X111526826Y-100417485D01*
X111427515Y-100318174D01*
X111305885Y-100247950D01*
X111256680Y-100234765D01*
X111816900Y-99674546D01*
X111816899Y-99674545D01*
X111774744Y-99643916D01*
X111594192Y-99551921D01*
X111401463Y-99489299D01*
X111401464Y-99489299D01*
X111201320Y-99457600D01*
X110998680Y-99457600D01*
X110798536Y-99489299D01*
X110605807Y-99551921D01*
X110425250Y-99643919D01*
X110383099Y-99674544D01*
X110383098Y-99674545D01*
X110943319Y-100234765D01*
X110894115Y-100247950D01*
X110772485Y-100318174D01*
X110673174Y-100417485D01*
X110602950Y-100539115D01*
X110589766Y-100588319D01*
X110029545Y-100028098D01*
X110029544Y-100028099D01*
X109998919Y-100070251D01*
X109960485Y-100145682D01*
X109912510Y-100196478D01*
X109844689Y-100213273D01*
X109778554Y-100190736D01*
X109739515Y-100145682D01*
X109701082Y-100070254D01*
X109670453Y-100028099D01*
X109110233Y-100588318D01*
X109097050Y-100539115D01*
X109026826Y-100417485D01*
X108927515Y-100318174D01*
X108805885Y-100247950D01*
X108756680Y-100234765D01*
X109316900Y-99674546D01*
X109316899Y-99674545D01*
X109274744Y-99643916D01*
X109094192Y-99551921D01*
X108901463Y-99489299D01*
X108901464Y-99489299D01*
X108701320Y-99457600D01*
X108498680Y-99457600D01*
X108298536Y-99489299D01*
X108105807Y-99551921D01*
X107925250Y-99643919D01*
X107883099Y-99674544D01*
X107883098Y-99674545D01*
X108443319Y-100234765D01*
X108394115Y-100247950D01*
X108272485Y-100318174D01*
X108173174Y-100417485D01*
X108102950Y-100539115D01*
X108089766Y-100588319D01*
X107529545Y-100028098D01*
X107529544Y-100028099D01*
X107498919Y-100070251D01*
X107460485Y-100145682D01*
X107412510Y-100196478D01*
X107344689Y-100213273D01*
X107278554Y-100190736D01*
X107239515Y-100145682D01*
X107201082Y-100070254D01*
X107170453Y-100028099D01*
X106610233Y-100588318D01*
X106597050Y-100539115D01*
X106526826Y-100417485D01*
X106427515Y-100318174D01*
X106305885Y-100247950D01*
X106256680Y-100234765D01*
X106816900Y-99674546D01*
X106816899Y-99674545D01*
X106774744Y-99643916D01*
X106594192Y-99551921D01*
X106401463Y-99489299D01*
X106401464Y-99489299D01*
X106201320Y-99457600D01*
X105998680Y-99457600D01*
X105798536Y-99489299D01*
X105605807Y-99551921D01*
X105425250Y-99643919D01*
X105383099Y-99674544D01*
X105383098Y-99674545D01*
X105943319Y-100234765D01*
X105894115Y-100247950D01*
X105772485Y-100318174D01*
X105673174Y-100417485D01*
X105602950Y-100539115D01*
X105589766Y-100588319D01*
X105029545Y-100028098D01*
X105029544Y-100028099D01*
X104998919Y-100070251D01*
X104960485Y-100145682D01*
X104912510Y-100196478D01*
X104844689Y-100213273D01*
X104778554Y-100190736D01*
X104739515Y-100145682D01*
X104701082Y-100070254D01*
X104670453Y-100028099D01*
X104110233Y-100588318D01*
X104097050Y-100539115D01*
X104026826Y-100417485D01*
X103927515Y-100318174D01*
X103805885Y-100247950D01*
X103756680Y-100234765D01*
X104316900Y-99674546D01*
X104316899Y-99674545D01*
X104274744Y-99643916D01*
X104094192Y-99551921D01*
X103901463Y-99489299D01*
X103901464Y-99489299D01*
X103701320Y-99457600D01*
X103498680Y-99457600D01*
X103298536Y-99489299D01*
X103105807Y-99551921D01*
X102925250Y-99643919D01*
X102883099Y-99674544D01*
X102883098Y-99674545D01*
X103443319Y-100234765D01*
X103394115Y-100247950D01*
X103272485Y-100318174D01*
X103173174Y-100417485D01*
X103102950Y-100539115D01*
X103089766Y-100588319D01*
X102529545Y-100028098D01*
X102529544Y-100028099D01*
X102498919Y-100070250D01*
X102406921Y-100250807D01*
X102344299Y-100443536D01*
X102312600Y-100643679D01*
X102000000Y-100643679D01*
X102000000Y-99237655D01*
X120791600Y-99237655D01*
X120791600Y-101067500D01*
X121577912Y-101067500D01*
X121545600Y-101229941D01*
X121545600Y-101405059D01*
X121577912Y-101567500D01*
X120791600Y-101567500D01*
X120791600Y-103397344D01*
X120798001Y-103456872D01*
X120798003Y-103456879D01*
X120848245Y-103591586D01*
X120848249Y-103591593D01*
X120934409Y-103706687D01*
X120934412Y-103706690D01*
X121049506Y-103792850D01*
X121049513Y-103792854D01*
X121184220Y-103843096D01*
X121184227Y-103843098D01*
X121243755Y-103849499D01*
X121243772Y-103849500D01*
X122184600Y-103849500D01*
X122184600Y-102174188D01*
X122347041Y-102206500D01*
X122522159Y-102206500D01*
X122684600Y-102174188D01*
X122684600Y-103849500D01*
X123625428Y-103849500D01*
X123625444Y-103849499D01*
X123684972Y-103843098D01*
X123684979Y-103843096D01*
X123819686Y-103792854D01*
X123819693Y-103792850D01*
X123934787Y-103706690D01*
X123934790Y-103706687D01*
X124020950Y-103591593D01*
X124020954Y-103591586D01*
X124071196Y-103456879D01*
X124071198Y-103456872D01*
X124077599Y-103397344D01*
X124077600Y-103397327D01*
X124077600Y-101567500D01*
X123291288Y-101567500D01*
X123323600Y-101405059D01*
X123323600Y-101229941D01*
X123291288Y-101067500D01*
X124077600Y-101067500D01*
X124077600Y-99237672D01*
X124077599Y-99237655D01*
X124071198Y-99178127D01*
X124071196Y-99178120D01*
X124020954Y-99043413D01*
X124020950Y-99043406D01*
X123934790Y-98928312D01*
X123934787Y-98928309D01*
X123819693Y-98842149D01*
X123819686Y-98842145D01*
X123684979Y-98791903D01*
X123684972Y-98791901D01*
X123625444Y-98785500D01*
X122684600Y-98785500D01*
X122684600Y-100460811D01*
X122522159Y-100428500D01*
X122347041Y-100428500D01*
X122184600Y-100460811D01*
X122184600Y-98785500D01*
X121243755Y-98785500D01*
X121184227Y-98791901D01*
X121184220Y-98791903D01*
X121049513Y-98842145D01*
X121049506Y-98842149D01*
X120934412Y-98928309D01*
X120934409Y-98928312D01*
X120848249Y-99043406D01*
X120848245Y-99043413D01*
X120798003Y-99178120D01*
X120798001Y-99178127D01*
X120791600Y-99237655D01*
X102000000Y-99237655D01*
X102000000Y-96754012D01*
X102019685Y-96686973D01*
X102072489Y-96641218D01*
X102124378Y-96630013D01*
X102824041Y-96632166D01*
X102857357Y-96648907D01*
X102860403Y-96651851D01*
X103443319Y-97234766D01*
X103394115Y-97247951D01*
X103272485Y-97318175D01*
X103173174Y-97417486D01*
X103102950Y-97539116D01*
X103089766Y-97588320D01*
X102529545Y-97028099D01*
X102529544Y-97028100D01*
X102498919Y-97070251D01*
X102406921Y-97250808D01*
X102344299Y-97443537D01*
X102312600Y-97643680D01*
X102312600Y-97846321D01*
X102344299Y-98046464D01*
X102406921Y-98239193D01*
X102498916Y-98419745D01*
X102529545Y-98461900D01*
X102529546Y-98461901D01*
X103089765Y-97901681D01*
X103102950Y-97950886D01*
X103173174Y-98072516D01*
X103272485Y-98171827D01*
X103394115Y-98242051D01*
X103443319Y-98255235D01*
X102883099Y-98815454D01*
X102883099Y-98815455D01*
X102925254Y-98846083D01*
X103105807Y-98938079D01*
X103298536Y-99000701D01*
X103298535Y-99000701D01*
X103498680Y-99032401D01*
X103701320Y-99032401D01*
X103901463Y-99000701D01*
X104094192Y-98938079D01*
X104274747Y-98846082D01*
X104274751Y-98846080D01*
X104316899Y-98815455D01*
X104316900Y-98815455D01*
X103756680Y-98255235D01*
X103805885Y-98242051D01*
X103927515Y-98171827D01*
X104026826Y-98072516D01*
X104097050Y-97950886D01*
X104110234Y-97901681D01*
X104670453Y-98461901D01*
X104670454Y-98461900D01*
X104701079Y-98419752D01*
X104701084Y-98419743D01*
X104739515Y-98344319D01*
X104787489Y-98293522D01*
X104855310Y-98276727D01*
X104921445Y-98299264D01*
X104960485Y-98344319D01*
X104998915Y-98419742D01*
X105029545Y-98461900D01*
X105029546Y-98461901D01*
X105589765Y-97901681D01*
X105602950Y-97950886D01*
X105673174Y-98072516D01*
X105772485Y-98171827D01*
X105894115Y-98242051D01*
X105943319Y-98255235D01*
X105383099Y-98815454D01*
X105383099Y-98815455D01*
X105425254Y-98846083D01*
X105605807Y-98938079D01*
X105798536Y-99000701D01*
X105798535Y-99000701D01*
X105998680Y-99032401D01*
X106201320Y-99032401D01*
X106401463Y-99000701D01*
X106594192Y-98938079D01*
X106774747Y-98846082D01*
X106774751Y-98846080D01*
X106816899Y-98815455D01*
X106816900Y-98815455D01*
X106256680Y-98255235D01*
X106305885Y-98242051D01*
X106427515Y-98171827D01*
X106526826Y-98072516D01*
X106597050Y-97950886D01*
X106610234Y-97901681D01*
X107170453Y-98461901D01*
X107170454Y-98461900D01*
X107201079Y-98419752D01*
X107201084Y-98419743D01*
X107239515Y-98344319D01*
X107287489Y-98293522D01*
X107355310Y-98276727D01*
X107421445Y-98299264D01*
X107460485Y-98344319D01*
X107498915Y-98419742D01*
X107529545Y-98461900D01*
X107529546Y-98461901D01*
X108089765Y-97901681D01*
X108102950Y-97950886D01*
X108173174Y-98072516D01*
X108272485Y-98171827D01*
X108394115Y-98242051D01*
X108443319Y-98255235D01*
X107883099Y-98815454D01*
X107883099Y-98815455D01*
X107925254Y-98846083D01*
X108105807Y-98938079D01*
X108298536Y-99000701D01*
X108298535Y-99000701D01*
X108498680Y-99032401D01*
X108701320Y-99032401D01*
X108901463Y-99000701D01*
X109094192Y-98938079D01*
X109274747Y-98846082D01*
X109274751Y-98846080D01*
X109316899Y-98815455D01*
X109316900Y-98815455D01*
X108756680Y-98255235D01*
X108805885Y-98242051D01*
X108927515Y-98171827D01*
X109026826Y-98072516D01*
X109097050Y-97950886D01*
X109110234Y-97901681D01*
X109670453Y-98461901D01*
X109670454Y-98461900D01*
X109701079Y-98419752D01*
X109701084Y-98419743D01*
X109739515Y-98344319D01*
X109787489Y-98293522D01*
X109855310Y-98276727D01*
X109921445Y-98299264D01*
X109960485Y-98344319D01*
X109998915Y-98419742D01*
X110029545Y-98461900D01*
X110029546Y-98461901D01*
X110589765Y-97901681D01*
X110602950Y-97950886D01*
X110673174Y-98072516D01*
X110772485Y-98171827D01*
X110894115Y-98242051D01*
X110943319Y-98255235D01*
X110383099Y-98815454D01*
X110383099Y-98815455D01*
X110425254Y-98846083D01*
X110605807Y-98938079D01*
X110798536Y-99000701D01*
X110798535Y-99000701D01*
X110998680Y-99032401D01*
X111201320Y-99032401D01*
X111401463Y-99000701D01*
X111594192Y-98938079D01*
X111774747Y-98846082D01*
X111774751Y-98846080D01*
X111816899Y-98815455D01*
X111816900Y-98815455D01*
X111256680Y-98255235D01*
X111305885Y-98242051D01*
X111427515Y-98171827D01*
X111526826Y-98072516D01*
X111597050Y-97950886D01*
X111610234Y-97901681D01*
X112170453Y-98461901D01*
X112170454Y-98461900D01*
X112201079Y-98419752D01*
X112201084Y-98419743D01*
X112239515Y-98344319D01*
X112287489Y-98293522D01*
X112355310Y-98276727D01*
X112421445Y-98299264D01*
X112460485Y-98344319D01*
X112498915Y-98419742D01*
X112529545Y-98461900D01*
X112529546Y-98461901D01*
X113089765Y-97901681D01*
X113102950Y-97950886D01*
X113173174Y-98072516D01*
X113272485Y-98171827D01*
X113394115Y-98242051D01*
X113443319Y-98255235D01*
X112883099Y-98815454D01*
X112883099Y-98815455D01*
X112925254Y-98846083D01*
X113105807Y-98938079D01*
X113298536Y-99000701D01*
X113298535Y-99000701D01*
X113498680Y-99032401D01*
X113701320Y-99032401D01*
X113901463Y-99000701D01*
X114094192Y-98938079D01*
X114274747Y-98846082D01*
X114274751Y-98846080D01*
X114316899Y-98815455D01*
X114316900Y-98815455D01*
X113756680Y-98255235D01*
X113805885Y-98242051D01*
X113927515Y-98171827D01*
X114026826Y-98072516D01*
X114097050Y-97950886D01*
X114110234Y-97901681D01*
X114670453Y-98461901D01*
X114670454Y-98461900D01*
X114701079Y-98419752D01*
X114701081Y-98419748D01*
X114793078Y-98239193D01*
X114855700Y-98046464D01*
X114887400Y-97846321D01*
X114887400Y-97643680D01*
X114855700Y-97443537D01*
X114793078Y-97250808D01*
X114701082Y-97070255D01*
X114670453Y-97028100D01*
X114110233Y-97588319D01*
X114097050Y-97539116D01*
X114026826Y-97417486D01*
X113927515Y-97318175D01*
X113805885Y-97247951D01*
X113756680Y-97234766D01*
X114323894Y-96667550D01*
X115786368Y-96672050D01*
X115792036Y-96672068D01*
X115792036Y-96672067D01*
X115792037Y-96672068D01*
X115879561Y-85162655D01*
X120549100Y-85162655D01*
X120549100Y-86992500D01*
X121335412Y-86992500D01*
X121303100Y-87154941D01*
X121303100Y-87330059D01*
X121335412Y-87492500D01*
X120549100Y-87492500D01*
X120549100Y-89322344D01*
X120555501Y-89381872D01*
X120555503Y-89381879D01*
X120605745Y-89516586D01*
X120605749Y-89516593D01*
X120691909Y-89631687D01*
X120691912Y-89631690D01*
X120807006Y-89717850D01*
X120807013Y-89717854D01*
X120941720Y-89768096D01*
X120941727Y-89768098D01*
X121001255Y-89774499D01*
X121001272Y-89774500D01*
X121942100Y-89774500D01*
X121942100Y-88099188D01*
X122104541Y-88131500D01*
X122279659Y-88131500D01*
X122442100Y-88099188D01*
X122442100Y-89774500D01*
X123382928Y-89774500D01*
X123382944Y-89774499D01*
X123442472Y-89768098D01*
X123442479Y-89768096D01*
X123577186Y-89717854D01*
X123577193Y-89717850D01*
X123692287Y-89631690D01*
X123692290Y-89631687D01*
X123778450Y-89516593D01*
X123778454Y-89516586D01*
X123828696Y-89381879D01*
X123828698Y-89381872D01*
X123835099Y-89322344D01*
X123835100Y-89322327D01*
X123835100Y-87492500D01*
X123048788Y-87492500D01*
X123081100Y-87330059D01*
X123081100Y-87154941D01*
X123048788Y-86992500D01*
X123835100Y-86992500D01*
X123835100Y-85162672D01*
X123835099Y-85162655D01*
X123828698Y-85103127D01*
X123828696Y-85103120D01*
X123778454Y-84968413D01*
X123778450Y-84968406D01*
X123692290Y-84853312D01*
X123692287Y-84853309D01*
X123577193Y-84767149D01*
X123577186Y-84767145D01*
X123442479Y-84716903D01*
X123442472Y-84716901D01*
X123382944Y-84710500D01*
X122442100Y-84710500D01*
X122442100Y-86385811D01*
X122279659Y-86353500D01*
X122104541Y-86353500D01*
X121942100Y-86385811D01*
X121942100Y-84710500D01*
X121001255Y-84710500D01*
X120941727Y-84716901D01*
X120941720Y-84716903D01*
X120807013Y-84767145D01*
X120807006Y-84767149D01*
X120691912Y-84853309D01*
X120691909Y-84853312D01*
X120605749Y-84968406D01*
X120605745Y-84968413D01*
X120555503Y-85103120D01*
X120555501Y-85103127D01*
X120549100Y-85162655D01*
X115879561Y-85162655D01*
X115907011Y-81553050D01*
X115927204Y-81486165D01*
X115980355Y-81440813D01*
X116030272Y-81429998D01*
X125170266Y-81375915D01*
X125237421Y-81395203D01*
G37*
%TD.AperFunction*%
%TA.AperFunction,Conductor*%
G36*
X105340818Y-96639910D02*
G01*
X105362204Y-96653652D01*
X105943319Y-97234766D01*
X105894115Y-97247951D01*
X105772485Y-97318175D01*
X105673174Y-97417486D01*
X105602950Y-97539116D01*
X105589766Y-97588320D01*
X105029545Y-97028099D01*
X105029544Y-97028100D01*
X104998919Y-97070252D01*
X104960485Y-97145683D01*
X104912510Y-97196479D01*
X104844689Y-97213274D01*
X104778554Y-97190737D01*
X104739515Y-97145683D01*
X104701082Y-97070255D01*
X104670453Y-97028100D01*
X104110233Y-97588319D01*
X104097050Y-97539116D01*
X104026826Y-97417486D01*
X103927515Y-97318175D01*
X103805885Y-97247951D01*
X103756680Y-97234766D01*
X104337795Y-96653652D01*
X104368440Y-96636918D01*
X105340818Y-96639910D01*
G37*
%TD.AperFunction*%
%TA.AperFunction,Conductor*%
G36*
X107852850Y-96647639D02*
G01*
X107862200Y-96653648D01*
X107873569Y-96665016D01*
X107873569Y-96665017D01*
X107873573Y-96665020D01*
X108443319Y-97234766D01*
X108394115Y-97247951D01*
X108272485Y-97318175D01*
X108173174Y-97417486D01*
X108102950Y-97539116D01*
X108089766Y-97588320D01*
X107529545Y-97028099D01*
X107529544Y-97028100D01*
X107498919Y-97070252D01*
X107460485Y-97145683D01*
X107412510Y-97196479D01*
X107344689Y-97213274D01*
X107278554Y-97190737D01*
X107239515Y-97145683D01*
X107201082Y-97070255D01*
X107170453Y-97028100D01*
X106610233Y-97588319D01*
X106597050Y-97539116D01*
X106526826Y-97417486D01*
X106427515Y-97318175D01*
X106305885Y-97247951D01*
X106256680Y-97234766D01*
X106837794Y-96653651D01*
X106854428Y-96644567D01*
X107852850Y-96647639D01*
G37*
%TD.AperFunction*%
%TA.AperFunction,Conductor*%
G36*
X110363919Y-96655366D02*
G01*
X110381287Y-96672733D01*
X110381288Y-96672735D01*
X110943319Y-97234766D01*
X110894115Y-97247951D01*
X110772485Y-97318175D01*
X110673174Y-97417486D01*
X110602950Y-97539116D01*
X110589766Y-97588320D01*
X110029545Y-97028099D01*
X110029544Y-97028100D01*
X109998919Y-97070252D01*
X109960485Y-97145683D01*
X109912510Y-97196479D01*
X109844689Y-97213274D01*
X109778554Y-97190737D01*
X109739515Y-97145683D01*
X109701082Y-97070255D01*
X109670453Y-97028100D01*
X109110233Y-97588319D01*
X109097050Y-97539116D01*
X109026826Y-97417486D01*
X108927515Y-97318175D01*
X108805885Y-97247951D01*
X108756680Y-97234766D01*
X109337795Y-96653652D01*
X109340423Y-96652216D01*
X110363919Y-96655366D01*
G37*
%TD.AperFunction*%
%TA.AperFunction,Conductor*%
G36*
X112871635Y-96663082D02*
G01*
X112889004Y-96680450D01*
X112889005Y-96680452D01*
X113443319Y-97234766D01*
X113394115Y-97247951D01*
X113272485Y-97318175D01*
X113173174Y-97417486D01*
X113102950Y-97539116D01*
X113089766Y-97588320D01*
X112529545Y-97028099D01*
X112529544Y-97028100D01*
X112498919Y-97070252D01*
X112460485Y-97145683D01*
X112412510Y-97196479D01*
X112344689Y-97213274D01*
X112278554Y-97190737D01*
X112239515Y-97145683D01*
X112201082Y-97070255D01*
X112170453Y-97028100D01*
X111610233Y-97588319D01*
X111597050Y-97539116D01*
X111526826Y-97417486D01*
X111427515Y-97318175D01*
X111305885Y-97247951D01*
X111256680Y-97234766D01*
X111831563Y-96659881D01*
X112871635Y-96663082D01*
G37*
%TD.AperFunction*%
%TD*%
M02*
