M48
; DRILL file KiCad 10.0.0 date 2026-03-27T13:38:30
; FORMAT={-:-/ absolute / metric / decimal}
; #@! TF.CreationDate,2026-03-27T13:38:30-04:00
; #@! TF.GenerationSoftware,Kicad,Pcbnew,10.0.0
; #@! TF.FileFunction,Plated,1,4,PTH
FMAT,2
METRIC
; #@! TA.AperFunction,Plated,PTH,ViaDrill
T1C0.300
; #@! TA.AperFunction,Plated,PTH,ComponentDrill
T2C1.020
; #@! TA.AperFunction,Plated,PTH,ComponentDrill
T3C1.067
; #@! TA.AperFunction,Plated,PTH,ComponentDrill
T4C1.600
; #@! TA.AperFunction,Plated,PTH,ComponentDrill
T5C1.778
; #@! TA.AperFunction,Plated,PTH,ComponentDrill
T6C2.410
%
G90
G05
T1
X116.35Y-61.0
X116.9Y-60.5
X118.0Y-61.1
X118.55Y-130.0
X118.95Y-72.15
X119.795Y-53.675
X119.845Y-55.975
X121.095Y-75.575
X121.4Y-134.3
X122.0Y-129.05
X122.137Y-116.15
X122.345Y-70.225
X122.445Y-51.375
X123.287Y-61.285
X123.35Y-57.4
X123.645Y-70.225
X123.8Y-61.8
X124.095Y-44.525
X124.4Y-62.65
X124.4Y-129.2
X124.89Y-70.225
X124.987Y-142.15
X125.438Y-134.35
X125.6Y-129.4
X125.887Y-116.1
X126.762Y-129.362
X126.795Y-44.525
X127.295Y-70.25
X127.938Y-142.35
X127.95Y-83.8
X128.35Y-104.675
X128.442Y-116.2
X128.442Y-129.4
X128.595Y-76.725
X128.887Y-109.9
X128.9Y-83.8
X128.945Y-52.925
X129.2Y-104.675
X129.25Y-57.2
X129.3Y-134.3
X129.445Y-44.525
X129.713Y-116.2
X129.8Y-129.4
X130.938Y-116.2
X131.295Y-70.225
X131.487Y-142.1
X131.65Y-57.3
X132.895Y-52.525
X133.5Y-135.5
X133.8Y-114.55
X133.95Y-131.25
X134.045Y-72.275
X136.05Y-59.15
X144.95Y-131.4
X145.25Y-56.05
X145.4Y-52.7
X145.6Y-74.35
X145.9Y-72.15
X146.25Y-114.55
X147.86Y-51.49
X148.0Y-135.0
X148.5Y-76.65
X149.0Y-116.65
X149.025Y-70.48
X149.05Y-129.65
X149.595Y-44.625
X150.346Y-70.48
X150.35Y-57.35
X150.65Y-53.075
X150.85Y-142.9
X151.1Y-129.6
X151.695Y-70.475
X151.85Y-134.25
X152.419Y-129.769
X152.495Y-44.575
X152.865Y-116.6
X153.385Y-76.985
X153.5Y-110.225
X153.794Y-129.894
X154.0Y-53.025
X154.2Y-70.35
X154.75Y-143.1
X155.15Y-83.9
X155.25Y-105.15
X155.295Y-44.575
X155.345Y-57.375
X155.35Y-116.7
X155.405Y-129.65
X156.05Y-83.9
X156.45Y-105.15
X156.5Y-134.6
X156.65Y-129.75
X156.7Y-116.7
X157.995Y-57.325
X158.0Y-116.7
X158.0Y-142.8
X158.3Y-110.4
X158.345Y-70.075
X158.395Y-52.675
X158.4Y-108.25
X160.0Y-116.4
X160.05Y-76.6
X160.5Y-135.8
X160.7Y-111.8
X161.25Y-131.5
X162.1Y-59.0
T2
X106.215Y-113.95
X106.215Y-116.95
X106.215Y-119.95
X106.215Y-122.95
X106.215Y-125.95
X106.215Y-128.95
X107.715Y-51.8
X107.715Y-54.8
X107.715Y-57.8
X107.715Y-60.8
X107.745Y-72.745
X107.745Y-75.745
X107.745Y-78.745
X107.745Y-81.745
X109.215Y-113.95
X109.215Y-116.95
X109.215Y-119.95
X109.215Y-122.95
X109.215Y-125.95
X109.215Y-128.95
X176.135Y-53.353
X179.135Y-53.353
T3
X103.6Y-92.245
X103.6Y-95.245
X103.6Y-97.745
X103.6Y-100.745
X106.1Y-92.245
X106.1Y-95.245
X106.1Y-97.745
X106.1Y-100.745
X108.6Y-92.245
X108.6Y-95.245
X108.6Y-97.745
X108.6Y-100.745
X111.1Y-92.245
X111.1Y-95.245
X111.1Y-97.745
X111.1Y-100.745
X113.6Y-92.245
X113.6Y-95.245
X113.6Y-97.745
X113.6Y-100.745
X170.45Y-92.245
X170.45Y-95.245
X170.45Y-97.745
X170.45Y-100.745
X172.95Y-92.245
X172.95Y-95.245
X172.95Y-97.745
X172.95Y-100.745
X175.45Y-92.245
X175.45Y-95.245
X175.45Y-97.745
X175.45Y-100.745
X177.95Y-92.245
X177.95Y-95.245
X177.95Y-97.745
X177.95Y-100.745
X180.45Y-92.245
X180.45Y-95.245
X180.45Y-97.745
X180.45Y-100.745
T4
X118.895Y-139.675
X135.595Y-48.675
X139.145Y-81.275
X140.5Y-106.8
X144.945Y-140.725
X161.495Y-48.725
X165.345Y-81.325
X165.345Y-107.725
X179.995Y-108.425
X180.145Y-81.425
T5
X122.192Y-87.242
X122.435Y-101.317
X127.272Y-87.242
X127.515Y-101.317
X129.812Y-87.242
X130.055Y-101.317
X132.352Y-87.242
X132.595Y-101.317
X149.142Y-87.242
X149.547Y-101.317
X154.222Y-87.242
X154.627Y-101.317
X156.762Y-87.242
X157.167Y-101.317
X159.302Y-87.242
X159.707Y-101.317
T6
X107.715Y-49.65
X107.715Y-62.95
X107.745Y-70.595
X107.745Y-83.895
M30
