%TF.GenerationSoftware,KiCad,Pcbnew,10.0.0*%
%TF.CreationDate,2026-03-27T13:38:28-04:00*%
%TF.ProjectId,Full_Bridge_Circuit,46756c6c-5f42-4726-9964-67655f436972,rev?*%
%TF.SameCoordinates,Original*%
%TF.FileFunction,Copper,L3,Inr*%
%TF.FilePolarity,Positive*%
%FSLAX46Y46*%
G04 Gerber Fmt 4.6, Leading zero omitted, Abs format (unit mm)*
G04 Created by KiCad (PCBNEW 10.0.0) date 2026-03-27 13:38:28*
%MOMM*%
%LPD*%
G01*
G04 APERTURE LIST*
%TA.AperFunction,ComponentPad*%
%ADD10R,1.900000X1.900000*%
%TD*%
%TA.AperFunction,ComponentPad*%
%ADD11R,2.286000X4.064000*%
%TD*%
%TA.AperFunction,ComponentPad*%
%ADD12O,2.286000X4.064000*%
%TD*%
%TA.AperFunction,ComponentPad*%
%ADD13C,2.560000*%
%TD*%
%TA.AperFunction,ComponentPad*%
%ADD14R,1.170000X1.170000*%
%TD*%
%TA.AperFunction,ComponentPad*%
%ADD15C,1.170000*%
%TD*%
%TA.AperFunction,ComponentPad*%
%ADD16R,1.520000X1.520000*%
%TD*%
%TA.AperFunction,ComponentPad*%
%ADD17C,1.520000*%
%TD*%
%TA.AperFunction,ComponentPad*%
%ADD18C,1.574800*%
%TD*%
%TA.AperFunction,ViaPad*%
%ADD19C,0.600000*%
%TD*%
%TA.AperFunction,Conductor*%
%ADD20C,0.150000*%
%TD*%
G04 APERTURE END LIST*
D10*
%TO.N,/Con_PWM_A_L*%
%TO.C,TP26*%
X144945000Y-140725000D03*
%TD*%
%TO.N,GND_ISO_LAHS*%
%TO.C,TP32*%
X179995000Y-108425000D03*
%TD*%
D11*
%TO.N,/DC_Link_Caps/BUS_DC+*%
%TO.C,Q4*%
X122192100Y-87242500D03*
D12*
%TO.N,GND_ISO_LBHS*%
X127272100Y-87242500D03*
X129812100Y-87242500D03*
%TO.N,/Full-Bridge/Leg_B_Power_Stage/LegB_HS_Gate*%
X132352100Y-87242500D03*
%TD*%
D13*
%TO.N,*%
%TO.C,J14*%
X107715000Y-49650000D03*
X107715000Y-62950000D03*
D14*
%TO.N,/Con_PWM_A_H*%
X107715000Y-60800000D03*
D15*
%TO.N,/Con_PWM_A_L*%
X107715000Y-57800000D03*
%TO.N,/Con_PWM_B_H*%
X107715000Y-54800000D03*
%TO.N,/Con_PWM_B_L*%
X107715000Y-51800000D03*
%TD*%
D11*
%TO.N,GND_ISO_LAHS*%
%TO.C,Q3*%
X149547100Y-101317500D03*
D12*
%TO.N,GND*%
X154627100Y-101317500D03*
X157167100Y-101317500D03*
%TO.N,/Full-Bridge/Leg_A_Power_Stage/LegA_LS_Gate*%
X159707100Y-101317500D03*
%TD*%
D10*
%TO.N,/Full-Bridge/Leg_B_Power_Stage/LegB_HS_Gate*%
%TO.C,TP36*%
X139145000Y-81275000D03*
%TD*%
D11*
%TO.N,/DC_Link_Caps/BUS_DC+*%
%TO.C,Q2*%
X122434600Y-101317500D03*
D12*
%TO.N,GND_ISO_LAHS*%
X127514600Y-101317500D03*
X130054600Y-101317500D03*
%TO.N,/Full-Bridge/Leg_A_Power_Stage/LegA_HS_Gate*%
X132594600Y-101317500D03*
%TD*%
D16*
%TO.N,LOGIC_GND*%
%TO.C,J29*%
X176135000Y-53353250D03*
D17*
%TO.N,+3V3*%
X179135000Y-53353250D03*
%TD*%
D10*
%TO.N,/Con_PWM_B_L*%
%TO.C,TP24*%
X161495000Y-48725000D03*
%TD*%
D18*
%TO.N,GND_ISO_LAHS*%
%TO.C,J16*%
X180450000Y-100745000D03*
X177950000Y-100745000D03*
X175450000Y-100745000D03*
X172950000Y-100745000D03*
X170450000Y-100745000D03*
X180450000Y-97744998D03*
X177950000Y-97744998D03*
X175450000Y-97744998D03*
X172950000Y-97744998D03*
X170450000Y-97744998D03*
%TO.N,GND_ISO_LBHS*%
X180450000Y-95244998D03*
X177950000Y-95244998D03*
X175450000Y-95244998D03*
X172950000Y-95244998D03*
X170450000Y-95244998D03*
X180450000Y-92244999D03*
X177950000Y-92244999D03*
X175450000Y-92244999D03*
X172950000Y-92244999D03*
X170450000Y-92244999D03*
%TD*%
D13*
%TO.N,*%
%TO.C,J15*%
X107745000Y-83894650D03*
X107745000Y-70594650D03*
D14*
%TO.N,GND_ISO_LBHS*%
X107745000Y-72744650D03*
D15*
%TO.N,+15V_ISO_LBLS*%
X107745000Y-75744650D03*
%TO.N,GND_ISO_LAHS*%
X107745000Y-78744650D03*
%TO.N,+15V_ISO_LALS*%
X107745000Y-81744650D03*
%TD*%
D10*
%TO.N,GND_ISO_LBHS*%
%TO.C,TP33*%
X180145000Y-81425000D03*
%TD*%
%TO.N,/Full-Bridge/Leg_A_Power_Stage/LegA_LS_Gate*%
%TO.C,TP35*%
X165345000Y-107725000D03*
%TD*%
D16*
%TO.N,/Con_RDY_A_L*%
%TO.C,J13*%
X106215000Y-128950000D03*
D17*
%TO.N,/Con_RDY_A_H*%
X106215000Y-125950000D03*
%TO.N,/Con_FLT_A_L*%
X106215000Y-122950000D03*
%TO.N,/Con_FLT_A_H*%
X106215000Y-119950000D03*
%TO.N,/Con_EN_A_L*%
X106215000Y-116950000D03*
%TO.N,/Con_EN_A_H*%
X106215000Y-113950000D03*
%TO.N,/Con_RDY_B_L*%
X109215000Y-128950000D03*
%TO.N,/Con_RDY_B_H*%
X109215000Y-125950000D03*
%TO.N,/Con_FLT_B_L*%
X109215000Y-122950000D03*
%TO.N,/Con_FLT_B_H*%
X109215000Y-119950000D03*
%TO.N,/Con_EN_B_L*%
X109215000Y-116950000D03*
%TO.N,/Con_EN_B_H*%
X109215000Y-113950000D03*
%TD*%
D10*
%TO.N,/Con_PWM_B_H*%
%TO.C,TP25*%
X135595000Y-48675000D03*
%TD*%
%TO.N,/Full-Bridge/Leg_B_Power_Stage/LegB_LS_Gate*%
%TO.C,TP37*%
X165345000Y-81325000D03*
%TD*%
D18*
%TO.N,GND*%
%TO.C,J12*%
X103600000Y-92244999D03*
X106100000Y-92244999D03*
X108600000Y-92244999D03*
X111100000Y-92244999D03*
X113600000Y-92244999D03*
X103600000Y-95245001D03*
X106100000Y-95245001D03*
X108600000Y-95245001D03*
X111100000Y-95245001D03*
X113600000Y-95245001D03*
%TO.N,/DC_Link_Caps/BUS_DC+*%
X103600000Y-97745001D03*
X106100000Y-97745001D03*
X108600000Y-97745001D03*
X111100000Y-97745001D03*
X113600000Y-97745001D03*
X103600000Y-100745000D03*
X106100000Y-100745000D03*
X108600000Y-100745000D03*
X111100000Y-100745000D03*
X113600000Y-100745000D03*
%TD*%
D10*
%TO.N,/Full-Bridge/Leg_A_Power_Stage/LegA_HS_Gate*%
%TO.C,TP34*%
X140500000Y-106800000D03*
%TD*%
%TO.N,/Con_PWM_A_H*%
%TO.C,TP27*%
X118895000Y-139675000D03*
%TD*%
D11*
%TO.N,GND_ISO_LBHS*%
%TO.C,Q5*%
X149142100Y-87242500D03*
D12*
%TO.N,GND*%
X154222100Y-87242500D03*
X156762100Y-87242500D03*
%TO.N,/Full-Bridge/Leg_B_Power_Stage/LegB_LS_Gate*%
X159302100Y-87242500D03*
%TD*%
D19*
%TO.N,/Con_RDY_A_H*%
X125600000Y-129400000D03*
%TO.N,LOGIC_GND*%
X148000000Y-135000000D03*
X121400000Y-134300000D03*
X125437500Y-134350000D03*
X132895000Y-52525000D03*
X154000000Y-53025000D03*
X122000000Y-129050000D03*
X151100000Y-129600000D03*
X147860000Y-51490000D03*
X150650000Y-53075000D03*
X133500000Y-135500000D03*
X158395000Y-52675000D03*
X131650000Y-57300000D03*
X122445000Y-51375000D03*
X145400000Y-52700000D03*
X128945000Y-52925000D03*
X155345000Y-57375000D03*
X156500000Y-134600000D03*
X157995000Y-57325000D03*
X149050000Y-129650000D03*
X124400000Y-129200000D03*
X160500000Y-135800000D03*
X151850000Y-134250000D03*
X129300000Y-134300000D03*
X119795000Y-53675000D03*
X129250000Y-57200000D03*
%TO.N,+15V_ISO_LBLS*%
X145900000Y-72150000D03*
X127295000Y-70250000D03*
X118950000Y-72150000D03*
X154200000Y-70350000D03*
%TO.N,GND_ISO_LBHS*%
X122345000Y-70225000D03*
X128595000Y-76725000D03*
X123645000Y-70225000D03*
X124890000Y-70225000D03*
X121095000Y-75575000D03*
X127950000Y-83800000D03*
X131295000Y-70225000D03*
X158345000Y-70075000D03*
X134045000Y-72275000D03*
X128900000Y-83800000D03*
%TO.N,+3V3*%
X150850000Y-142900000D03*
X154750000Y-143100000D03*
X156650000Y-129750000D03*
X126795000Y-44525000D03*
X150350000Y-57350000D03*
X149595000Y-44625000D03*
X133950000Y-131250000D03*
X145250000Y-56050000D03*
X152495000Y-44575000D03*
X131487500Y-142100000D03*
X155295000Y-44575000D03*
X124095000Y-44525000D03*
X119845000Y-55975000D03*
X129445000Y-44525000D03*
X158000000Y-142800000D03*
X127937500Y-142350000D03*
X161250000Y-131500000D03*
X129800000Y-129400000D03*
X123350000Y-57400000D03*
X124987500Y-142150000D03*
%TO.N,/Con_RDY_B_H*%
X116350000Y-61000000D03*
X124400000Y-62650000D03*
%TO.N,/Con_PWM_A_L*%
X144950000Y-131400000D03*
%TO.N,GND_ISO_LAHS*%
X149000000Y-116650000D03*
X130937500Y-116200000D03*
X129712500Y-116200000D03*
X122137500Y-116150000D03*
X128442500Y-116200000D03*
X129200000Y-104675000D03*
X128887500Y-109900000D03*
X128350000Y-104675000D03*
%TO.N,/Con_PWM_A_H*%
X118550000Y-130000000D03*
%TO.N,/Con_EN_A_L*%
X155405000Y-129650000D03*
%TO.N,/Con_PWM_B_H*%
X136050000Y-59150000D03*
%TO.N,/Con_PWM_B_L*%
X162100000Y-59000000D03*
%TO.N,GND*%
X153385000Y-76985000D03*
X160050000Y-76600000D03*
X148500000Y-76650000D03*
X158400000Y-108250000D03*
X155350000Y-116700000D03*
X150346128Y-70480334D03*
X158300000Y-110400000D03*
X156450000Y-105150000D03*
X158000000Y-116700000D03*
X149024776Y-70480000D03*
X156050000Y-83900000D03*
X153500000Y-110225000D03*
X145600000Y-74350000D03*
X156700000Y-116700000D03*
X160700000Y-111800000D03*
X151695000Y-70475000D03*
X146250000Y-114550000D03*
X155249997Y-105150000D03*
X155150000Y-83900000D03*
%TO.N,+15V_ISO_LALS*%
X152865000Y-116600000D03*
X133800000Y-114550000D03*
X160000000Y-116400000D03*
X125887500Y-116100000D03*
%TO.N,/Con_FLT_A_H*%
X126762500Y-129362500D03*
%TO.N,/Con_EN_A_H*%
X128442500Y-129400000D03*
%TO.N,/Con_RDY_A_L*%
X152418750Y-129768750D03*
%TO.N,/Con_FLT_B_H*%
X116900000Y-60500000D03*
X123800000Y-61800000D03*
%TO.N,/Con_FLT_A_L*%
X153793750Y-129893750D03*
%TO.N,/Con_EN_B_H*%
X123286959Y-61284907D03*
X118000000Y-61100000D03*
%TD*%
%TO.N,/Con_RDY_B_H*%
D20*
X124150000Y-62400000D02*
X124400000Y-62650000D01*
X117900000Y-62400000D02*
X124150000Y-62400000D01*
X116500000Y-61000000D02*
X117900000Y-62400000D01*
%TO.N,/Con_PWM_A_L*%
X100973000Y-61235262D02*
X100973000Y-64777000D01*
X100973000Y-64777000D02*
X100950000Y-64800000D01*
X107715000Y-57800000D02*
X107715000Y-58035000D01*
X100950000Y-128950000D02*
X105427000Y-133427000D01*
X107715000Y-58035000D02*
X106427000Y-59323000D01*
X102885262Y-59323000D02*
X100973000Y-61235262D01*
X106427000Y-59323000D02*
X102885262Y-59323000D01*
X105427000Y-133427000D02*
X142923000Y-133427000D01*
X107715000Y-57965000D02*
X107715000Y-57800000D01*
X100950000Y-64800000D02*
X100950000Y-128950000D01*
X142923000Y-133427000D02*
X144950000Y-131400000D01*
%TO.N,/Con_PWM_A_H*%
X118550000Y-130000000D02*
X115400000Y-133150000D01*
X101250000Y-61350000D02*
X103000000Y-59600000D01*
X105541738Y-133150000D02*
X101250000Y-128858262D01*
X106515000Y-59600000D02*
X107715000Y-60800000D01*
X115400000Y-133150000D02*
X105541738Y-133150000D01*
X103000000Y-59600000D02*
X106515000Y-59600000D01*
X101250000Y-128858262D02*
X101250000Y-61350000D01*
%TO.N,/Con_PWM_B_H*%
X131700000Y-54800000D02*
X107715000Y-54800000D01*
X136050000Y-59150000D02*
X131700000Y-54800000D01*
%TO.N,/Con_PWM_B_L*%
X131941738Y-54650000D02*
X131814737Y-54523000D01*
X131814737Y-54523000D02*
X110438000Y-54523000D01*
X162100000Y-59000000D02*
X160420000Y-59000000D01*
X110438000Y-54523000D02*
X107715000Y-51800000D01*
X156070000Y-54650000D02*
X131941738Y-54650000D01*
X160420000Y-59000000D02*
X156070000Y-54650000D01*
%TO.N,/Con_FLT_B_H*%
X118100000Y-61950000D02*
X123650000Y-61950000D01*
X116900000Y-60750000D02*
X118100000Y-61950000D01*
X123650000Y-61950000D02*
X123800000Y-61800000D01*
%TO.N,/Con_EN_B_H*%
X118000000Y-61300000D02*
X118150000Y-61450000D01*
X123121866Y-61450000D02*
X123286959Y-61284907D01*
X118150000Y-61450000D02*
X123121866Y-61450000D01*
%TD*%
%TA.AperFunction,Conductor*%
%TO.N,+15V_ISO_LBLS*%
G36*
X160793039Y-62969685D02*
G01*
X160838794Y-63022489D01*
X160850000Y-63074000D01*
X160850012Y-75345692D01*
X160830328Y-75412731D01*
X160777524Y-75458486D01*
X160708365Y-75468430D01*
X160669717Y-75456177D01*
X160549223Y-75394781D01*
X160354534Y-75331522D01*
X160179995Y-75303878D01*
X160152352Y-75299500D01*
X159947648Y-75299500D01*
X159923329Y-75303351D01*
X159745465Y-75331522D01*
X159550776Y-75394781D01*
X159368386Y-75487715D01*
X159202786Y-75608028D01*
X159058028Y-75752786D01*
X158937715Y-75918386D01*
X158844781Y-76100776D01*
X158781522Y-76295465D01*
X158749500Y-76497648D01*
X158749500Y-76702351D01*
X158781523Y-76904535D01*
X158781523Y-76904538D01*
X158823276Y-77033038D01*
X158825271Y-77102879D01*
X158789191Y-77162712D01*
X158726490Y-77193540D01*
X158705367Y-77195356D01*
X154809522Y-77196035D01*
X154742479Y-77176362D01*
X154696715Y-77123566D01*
X154685500Y-77072035D01*
X154685500Y-76882648D01*
X154653477Y-76680465D01*
X154610322Y-76547648D01*
X154590220Y-76485781D01*
X154590218Y-76485778D01*
X154590218Y-76485776D01*
X154556503Y-76419607D01*
X154497287Y-76303390D01*
X154461876Y-76254650D01*
X154376971Y-76137786D01*
X154232213Y-75993028D01*
X154066613Y-75872715D01*
X154066612Y-75872714D01*
X154066610Y-75872713D01*
X154009653Y-75843691D01*
X153884223Y-75779781D01*
X153689534Y-75716522D01*
X153514995Y-75688878D01*
X153487352Y-75684500D01*
X153282648Y-75684500D01*
X153258329Y-75688351D01*
X153080465Y-75716522D01*
X152885776Y-75779781D01*
X152703386Y-75872715D01*
X152537786Y-75993028D01*
X152393028Y-76137786D01*
X152272715Y-76303386D01*
X152179781Y-76485776D01*
X152116522Y-76680465D01*
X152084500Y-76882648D01*
X152084500Y-77072531D01*
X152064815Y-77139570D01*
X152012011Y-77185325D01*
X151960522Y-77196531D01*
X149860421Y-77196897D01*
X149793378Y-77177224D01*
X149747614Y-77124428D01*
X149737658Y-77055271D01*
X149742469Y-77034577D01*
X149742970Y-77033038D01*
X149768477Y-76954534D01*
X149800500Y-76752352D01*
X149800500Y-76547648D01*
X149768477Y-76345466D01*
X149754804Y-76303386D01*
X149729587Y-76225776D01*
X149705220Y-76150781D01*
X149705218Y-76150778D01*
X149705218Y-76150776D01*
X149627741Y-75998721D01*
X149612287Y-75968390D01*
X149592753Y-75941503D01*
X149491971Y-75802786D01*
X149347213Y-75658028D01*
X149181613Y-75537715D01*
X149181612Y-75537714D01*
X149181610Y-75537713D01*
X149124653Y-75508691D01*
X148999223Y-75444781D01*
X148804534Y-75381522D01*
X148629995Y-75353878D01*
X148602352Y-75349500D01*
X148397648Y-75349500D01*
X148373329Y-75353351D01*
X148195465Y-75381522D01*
X148000776Y-75444781D01*
X147818386Y-75537715D01*
X147652786Y-75658028D01*
X147508028Y-75802786D01*
X147387715Y-75968386D01*
X147294781Y-76150776D01*
X147231522Y-76345465D01*
X147199500Y-76547648D01*
X147199500Y-76752351D01*
X147231522Y-76954534D01*
X147255045Y-77026929D01*
X147257030Y-77033038D01*
X147257685Y-77035052D01*
X147259680Y-77104894D01*
X147223600Y-77164727D01*
X147160899Y-77195555D01*
X147139776Y-77197371D01*
X129978665Y-77200360D01*
X129911622Y-77180687D01*
X129865858Y-77127891D01*
X129855902Y-77058734D01*
X129860713Y-77038040D01*
X129862338Y-77033038D01*
X129863477Y-77029534D01*
X129895500Y-76827352D01*
X129895500Y-76622648D01*
X129863477Y-76420465D01*
X129800218Y-76225776D01*
X129763010Y-76152752D01*
X129707287Y-76043390D01*
X129699556Y-76032749D01*
X129586971Y-75877786D01*
X129442213Y-75733028D01*
X129276613Y-75612715D01*
X129276612Y-75612714D01*
X129276610Y-75612713D01*
X129219653Y-75583691D01*
X129094223Y-75519781D01*
X128899534Y-75456522D01*
X128724995Y-75428878D01*
X128697352Y-75424500D01*
X128492648Y-75424500D01*
X128468329Y-75428351D01*
X128290465Y-75456522D01*
X128095776Y-75519781D01*
X127913386Y-75612715D01*
X127747786Y-75733028D01*
X127603028Y-75877786D01*
X127482715Y-76043386D01*
X127389781Y-76225776D01*
X127326522Y-76420465D01*
X127294500Y-76622648D01*
X127294500Y-76827351D01*
X127326522Y-77029530D01*
X127326522Y-77029532D01*
X127329445Y-77038527D01*
X127331438Y-77108368D01*
X127295356Y-77168200D01*
X127232655Y-77199026D01*
X127211535Y-77200842D01*
X108154311Y-77204161D01*
X108121110Y-77198907D01*
X108121010Y-77199328D01*
X108116264Y-77198188D01*
X107869787Y-77159150D01*
X107869782Y-77159150D01*
X107620218Y-77159150D01*
X107620213Y-77159150D01*
X107373733Y-77198189D01*
X107373722Y-77198191D01*
X107373571Y-77198241D01*
X107373413Y-77198265D01*
X107368994Y-77199327D01*
X107368910Y-77198979D01*
X107335293Y-77204304D01*
X103423864Y-77204986D01*
X103356821Y-77185313D01*
X103311057Y-77132517D01*
X103299842Y-77081004D01*
X103299839Y-77058734D01*
X103299641Y-75659253D01*
X106660000Y-75659253D01*
X106660000Y-75830046D01*
X106686715Y-75998721D01*
X106739492Y-76161149D01*
X106817026Y-76313317D01*
X106817027Y-76313319D01*
X106819445Y-76316647D01*
X106819447Y-76316647D01*
X107253871Y-75882223D01*
X107269755Y-75941503D01*
X107336898Y-76057797D01*
X107431853Y-76152752D01*
X107548147Y-76219895D01*
X107607424Y-76235778D01*
X107173000Y-76670201D01*
X107176336Y-76672625D01*
X107328500Y-76750157D01*
X107490928Y-76802934D01*
X107659604Y-76829650D01*
X107830396Y-76829650D01*
X107999071Y-76802934D01*
X108161499Y-76750157D01*
X108313664Y-76672624D01*
X108316998Y-76670201D01*
X107882575Y-76235777D01*
X107941853Y-76219895D01*
X108058147Y-76152752D01*
X108153102Y-76057797D01*
X108220245Y-75941503D01*
X108236128Y-75882224D01*
X108670551Y-76316647D01*
X108672974Y-76313314D01*
X108750507Y-76161149D01*
X108803284Y-75998721D01*
X108830000Y-75830046D01*
X108830000Y-75659253D01*
X108803284Y-75490579D01*
X108803284Y-75490578D01*
X108797458Y-75472648D01*
X119794500Y-75472648D01*
X119794500Y-75677351D01*
X119826522Y-75879534D01*
X119889781Y-76074223D01*
X119934073Y-76161149D01*
X119981714Y-76254650D01*
X119982715Y-76256613D01*
X120103028Y-76422213D01*
X120247786Y-76566971D01*
X120389873Y-76670201D01*
X120413390Y-76687287D01*
X120529607Y-76746503D01*
X120595776Y-76780218D01*
X120595778Y-76780218D01*
X120595781Y-76780220D01*
X120700137Y-76814127D01*
X120790465Y-76843477D01*
X120891557Y-76859488D01*
X120992648Y-76875500D01*
X120992649Y-76875500D01*
X121197351Y-76875500D01*
X121197352Y-76875500D01*
X121399534Y-76843477D01*
X121594219Y-76780220D01*
X121776610Y-76687287D01*
X121869590Y-76619732D01*
X121942213Y-76566971D01*
X121942215Y-76566968D01*
X121942219Y-76566966D01*
X122086966Y-76422219D01*
X122086968Y-76422215D01*
X122086971Y-76422213D01*
X122166089Y-76313314D01*
X122207287Y-76256610D01*
X122300220Y-76074219D01*
X122363477Y-75879534D01*
X122395500Y-75677352D01*
X122395500Y-75472648D01*
X122375392Y-75345692D01*
X122363477Y-75270465D01*
X122300218Y-75075776D01*
X122266503Y-75009607D01*
X122207287Y-74893390D01*
X122175195Y-74849219D01*
X122086971Y-74727786D01*
X121942213Y-74583028D01*
X121776613Y-74462715D01*
X121776612Y-74462714D01*
X121776610Y-74462713D01*
X121719653Y-74433691D01*
X121594223Y-74369781D01*
X121581977Y-74365802D01*
X121520042Y-74345678D01*
X121399534Y-74306522D01*
X121224995Y-74278878D01*
X121197352Y-74274500D01*
X120992648Y-74274500D01*
X120968329Y-74278351D01*
X120790465Y-74306522D01*
X120595776Y-74369781D01*
X120413386Y-74462715D01*
X120247786Y-74583028D01*
X120103028Y-74727786D01*
X119982715Y-74893386D01*
X119889781Y-75075776D01*
X119826522Y-75270465D01*
X119794500Y-75472648D01*
X108797458Y-75472648D01*
X108750507Y-75328150D01*
X108672975Y-75175986D01*
X108670551Y-75172650D01*
X108236127Y-75607073D01*
X108220245Y-75547797D01*
X108153102Y-75431503D01*
X108058147Y-75336548D01*
X107941853Y-75269405D01*
X107882574Y-75253521D01*
X108316997Y-74819097D01*
X108316997Y-74819095D01*
X108313669Y-74816677D01*
X108313667Y-74816676D01*
X108161499Y-74739142D01*
X107999071Y-74686365D01*
X107830396Y-74659650D01*
X107659604Y-74659650D01*
X107490928Y-74686365D01*
X107328500Y-74739142D01*
X107176336Y-74816675D01*
X107173001Y-74819096D01*
X107173001Y-74819097D01*
X107607425Y-75253521D01*
X107548147Y-75269405D01*
X107431853Y-75336548D01*
X107336898Y-75431503D01*
X107269755Y-75547797D01*
X107253871Y-75607075D01*
X106819447Y-75172651D01*
X106819446Y-75172651D01*
X106817025Y-75175986D01*
X106739492Y-75328150D01*
X106686715Y-75490578D01*
X106660000Y-75659253D01*
X103299641Y-75659253D01*
X103298903Y-70445184D01*
X105464500Y-70445184D01*
X105464500Y-70744115D01*
X105464501Y-70744131D01*
X105499045Y-71006523D01*
X105503520Y-71040508D01*
X105542206Y-71184887D01*
X105580894Y-71329270D01*
X105695290Y-71605446D01*
X105695294Y-71605455D01*
X105741538Y-71685551D01*
X105844765Y-71864346D01*
X105844770Y-71864352D01*
X105844771Y-71864354D01*
X106026748Y-72101511D01*
X106026750Y-72101513D01*
X106026751Y-72101514D01*
X106123182Y-72197945D01*
X106156666Y-72259266D01*
X106159500Y-72285625D01*
X106159500Y-73387678D01*
X106159501Y-73387684D01*
X106170113Y-73507065D01*
X106226089Y-73702695D01*
X106226090Y-73702698D01*
X106226091Y-73702699D01*
X106320302Y-73883057D01*
X106320304Y-73883059D01*
X106448890Y-74040759D01*
X106542803Y-74117334D01*
X106606593Y-74169348D01*
X106786951Y-74263559D01*
X106982582Y-74319536D01*
X107101963Y-74330150D01*
X108388036Y-74330149D01*
X108507418Y-74319536D01*
X108703049Y-74263559D01*
X108733509Y-74247648D01*
X144299500Y-74247648D01*
X144299500Y-74452351D01*
X144331522Y-74654534D01*
X144394781Y-74849223D01*
X144487715Y-75031613D01*
X144608028Y-75197213D01*
X144752786Y-75341971D01*
X144850181Y-75412731D01*
X144918390Y-75462287D01*
X145031226Y-75519780D01*
X145100776Y-75555218D01*
X145100778Y-75555218D01*
X145100781Y-75555220D01*
X145205137Y-75589127D01*
X145295465Y-75618477D01*
X145396557Y-75634488D01*
X145497648Y-75650500D01*
X145497649Y-75650500D01*
X145702351Y-75650500D01*
X145702352Y-75650500D01*
X145904534Y-75618477D01*
X146099219Y-75555220D01*
X146281610Y-75462287D01*
X146392773Y-75381523D01*
X146447213Y-75341971D01*
X146447215Y-75341968D01*
X146447219Y-75341966D01*
X146591966Y-75197219D01*
X146591968Y-75197215D01*
X146591971Y-75197213D01*
X146680195Y-75075781D01*
X146712287Y-75031610D01*
X146805220Y-74849219D01*
X146868477Y-74654534D01*
X146900500Y-74452352D01*
X146900500Y-74247648D01*
X146868477Y-74045466D01*
X146805220Y-73850781D01*
X146805218Y-73850778D01*
X146805218Y-73850776D01*
X146729766Y-73702695D01*
X146712287Y-73668390D01*
X146704556Y-73657749D01*
X146591971Y-73502786D01*
X146447213Y-73358028D01*
X146281613Y-73237715D01*
X146281612Y-73237714D01*
X146281610Y-73237713D01*
X146224653Y-73208691D01*
X146099223Y-73144781D01*
X145904534Y-73081522D01*
X145729995Y-73053878D01*
X145702352Y-73049500D01*
X145497648Y-73049500D01*
X145473329Y-73053351D01*
X145295465Y-73081522D01*
X145100776Y-73144781D01*
X144918386Y-73237715D01*
X144752786Y-73358028D01*
X144608028Y-73502786D01*
X144487715Y-73668386D01*
X144394781Y-73850776D01*
X144331522Y-74045465D01*
X144299500Y-74247648D01*
X108733509Y-74247648D01*
X108883407Y-74169348D01*
X109041109Y-74040759D01*
X109169698Y-73883057D01*
X109263909Y-73702699D01*
X109319886Y-73507068D01*
X109330500Y-73387687D01*
X109330499Y-72285624D01*
X109350184Y-72218586D01*
X109365451Y-72199332D01*
X109366100Y-72198662D01*
X109392114Y-72172648D01*
X132744500Y-72172648D01*
X132744500Y-72377351D01*
X132776522Y-72579534D01*
X132839781Y-72774223D01*
X132932715Y-72956613D01*
X133053028Y-73122213D01*
X133197786Y-73266971D01*
X133323118Y-73358028D01*
X133363390Y-73387287D01*
X133479607Y-73446503D01*
X133545776Y-73480218D01*
X133545778Y-73480218D01*
X133545781Y-73480220D01*
X133628411Y-73507068D01*
X133740465Y-73543477D01*
X133841557Y-73559488D01*
X133942648Y-73575500D01*
X133942649Y-73575500D01*
X134147351Y-73575500D01*
X134147352Y-73575500D01*
X134349534Y-73543477D01*
X134544219Y-73480220D01*
X134726610Y-73387287D01*
X134819590Y-73319732D01*
X134892213Y-73266971D01*
X134892215Y-73266968D01*
X134892219Y-73266966D01*
X135036966Y-73122219D01*
X135036968Y-73122215D01*
X135036971Y-73122213D01*
X135089799Y-73049500D01*
X135157287Y-72956610D01*
X135250220Y-72774219D01*
X135313477Y-72579534D01*
X135345500Y-72377352D01*
X135345500Y-72172648D01*
X135313477Y-71970466D01*
X135250220Y-71775781D01*
X135250218Y-71775778D01*
X135250218Y-71775776D01*
X135201528Y-71680218D01*
X135157287Y-71593390D01*
X135149556Y-71582749D01*
X135036971Y-71427786D01*
X134892213Y-71283028D01*
X134726613Y-71162715D01*
X134726612Y-71162714D01*
X134726610Y-71162713D01*
X134669653Y-71133691D01*
X134544223Y-71069781D01*
X134349534Y-71006522D01*
X134174995Y-70978878D01*
X134147352Y-70974500D01*
X133942648Y-70974500D01*
X133918329Y-70978351D01*
X133740465Y-71006522D01*
X133545776Y-71069781D01*
X133363386Y-71162715D01*
X133197786Y-71283028D01*
X133053028Y-71427786D01*
X132932715Y-71593386D01*
X132839781Y-71775776D01*
X132776522Y-71970465D01*
X132744500Y-72172648D01*
X109392114Y-72172648D01*
X109463249Y-72101514D01*
X109645235Y-71864346D01*
X109794707Y-71605453D01*
X109909107Y-71329266D01*
X109986480Y-71040508D01*
X110025500Y-70744122D01*
X110025500Y-70445178D01*
X109986480Y-70148792D01*
X109979475Y-70122648D01*
X121044500Y-70122648D01*
X121044500Y-70327351D01*
X121076522Y-70529534D01*
X121139781Y-70724223D01*
X121232715Y-70906613D01*
X121353028Y-71072213D01*
X121497786Y-71216971D01*
X121649524Y-71327213D01*
X121663390Y-71337287D01*
X121778795Y-71396089D01*
X121845776Y-71430218D01*
X121845778Y-71430218D01*
X121845781Y-71430220D01*
X121950137Y-71464127D01*
X122040465Y-71493477D01*
X122141557Y-71509488D01*
X122242648Y-71525500D01*
X122242649Y-71525500D01*
X122447351Y-71525500D01*
X122447352Y-71525500D01*
X122649534Y-71493477D01*
X122844219Y-71430220D01*
X122938705Y-71382076D01*
X123007373Y-71369180D01*
X123051294Y-71382076D01*
X123053484Y-71383192D01*
X123145774Y-71430217D01*
X123145777Y-71430217D01*
X123145781Y-71430220D01*
X123258874Y-71466966D01*
X123340465Y-71493477D01*
X123441557Y-71509488D01*
X123542648Y-71525500D01*
X123542649Y-71525500D01*
X123747351Y-71525500D01*
X123747352Y-71525500D01*
X123949534Y-71493477D01*
X124144219Y-71430220D01*
X124211205Y-71396088D01*
X124279873Y-71383192D01*
X124323794Y-71396088D01*
X124348580Y-71408717D01*
X124390774Y-71430217D01*
X124390777Y-71430217D01*
X124390781Y-71430220D01*
X124503874Y-71466966D01*
X124585465Y-71493477D01*
X124686557Y-71509488D01*
X124787648Y-71525500D01*
X124787649Y-71525500D01*
X124992351Y-71525500D01*
X124992352Y-71525500D01*
X125194534Y-71493477D01*
X125389219Y-71430220D01*
X125571610Y-71337287D01*
X125664590Y-71269732D01*
X125737213Y-71216971D01*
X125737215Y-71216968D01*
X125737219Y-71216966D01*
X125881966Y-71072219D01*
X125881968Y-71072215D01*
X125881971Y-71072213D01*
X125952962Y-70974500D01*
X126002287Y-70906610D01*
X126095220Y-70724219D01*
X126158477Y-70529534D01*
X126190500Y-70327352D01*
X126190500Y-70122648D01*
X129994500Y-70122648D01*
X129994500Y-70327351D01*
X130026522Y-70529534D01*
X130089781Y-70724223D01*
X130182715Y-70906613D01*
X130303028Y-71072213D01*
X130447786Y-71216971D01*
X130599524Y-71327213D01*
X130613390Y-71337287D01*
X130728795Y-71396089D01*
X130795776Y-71430218D01*
X130795778Y-71430218D01*
X130795781Y-71430220D01*
X130900137Y-71464127D01*
X130990465Y-71493477D01*
X131091557Y-71509488D01*
X131192648Y-71525500D01*
X131192649Y-71525500D01*
X131397351Y-71525500D01*
X131397352Y-71525500D01*
X131599534Y-71493477D01*
X131794219Y-71430220D01*
X131976610Y-71337287D01*
X132069590Y-71269732D01*
X132142213Y-71216971D01*
X132142215Y-71216968D01*
X132142219Y-71216966D01*
X132286966Y-71072219D01*
X132286968Y-71072215D01*
X132286971Y-71072213D01*
X132357962Y-70974500D01*
X132407287Y-70906610D01*
X132500220Y-70724219D01*
X132563477Y-70529534D01*
X132587534Y-70377648D01*
X147724276Y-70377648D01*
X147724276Y-70582351D01*
X147756298Y-70784534D01*
X147819557Y-70979223D01*
X147866939Y-71072213D01*
X147909941Y-71156610D01*
X147912491Y-71161613D01*
X148032804Y-71327213D01*
X148177562Y-71471971D01*
X148332525Y-71584556D01*
X148343166Y-71592287D01*
X148459383Y-71651503D01*
X148525552Y-71685218D01*
X148525554Y-71685218D01*
X148525557Y-71685220D01*
X148629913Y-71719127D01*
X148720241Y-71748477D01*
X148821333Y-71764488D01*
X148922424Y-71780500D01*
X148922425Y-71780500D01*
X149127127Y-71780500D01*
X149127128Y-71780500D01*
X149329310Y-71748477D01*
X149523995Y-71685220D01*
X149628829Y-71631803D01*
X149697497Y-71618907D01*
X149741418Y-71631803D01*
X149784592Y-71653801D01*
X149846902Y-71685551D01*
X149846905Y-71685551D01*
X149846909Y-71685554D01*
X149981373Y-71729244D01*
X150041593Y-71748811D01*
X150142685Y-71764822D01*
X150243776Y-71780834D01*
X150243777Y-71780834D01*
X150448479Y-71780834D01*
X150448480Y-71780834D01*
X150650662Y-71748811D01*
X150845347Y-71685554D01*
X150846007Y-71685218D01*
X150859655Y-71678263D01*
X150969503Y-71622292D01*
X151038171Y-71609396D01*
X151082092Y-71622292D01*
X151100760Y-71631804D01*
X151195774Y-71680217D01*
X151195777Y-71680217D01*
X151195781Y-71680220D01*
X151330245Y-71723910D01*
X151390465Y-71743477D01*
X151491557Y-71759488D01*
X151592648Y-71775500D01*
X151592649Y-71775500D01*
X151797351Y-71775500D01*
X151797352Y-71775500D01*
X151999534Y-71743477D01*
X152194219Y-71680220D01*
X152376610Y-71587287D01*
X152469590Y-71519732D01*
X152542213Y-71466971D01*
X152542215Y-71466968D01*
X152542219Y-71466966D01*
X152686966Y-71322219D01*
X152686968Y-71322215D01*
X152686971Y-71322213D01*
X152739732Y-71249590D01*
X152807287Y-71156610D01*
X152900220Y-70974219D01*
X152963477Y-70779534D01*
X152995500Y-70577352D01*
X152995500Y-70372648D01*
X152964568Y-70177352D01*
X152963477Y-70170465D01*
X152945054Y-70113768D01*
X152900220Y-69975781D01*
X152898624Y-69972648D01*
X157044500Y-69972648D01*
X157044500Y-70177351D01*
X157076522Y-70379534D01*
X157139781Y-70574223D01*
X157203691Y-70699653D01*
X157226346Y-70744115D01*
X157232715Y-70756613D01*
X157353028Y-70922213D01*
X157497786Y-71066971D01*
X157629569Y-71162715D01*
X157663390Y-71187287D01*
X157779607Y-71246503D01*
X157845776Y-71280218D01*
X157845778Y-71280218D01*
X157845781Y-71280220D01*
X157950137Y-71314127D01*
X158040465Y-71343477D01*
X158103072Y-71353393D01*
X158242648Y-71375500D01*
X158242649Y-71375500D01*
X158447351Y-71375500D01*
X158447352Y-71375500D01*
X158649534Y-71343477D01*
X158844219Y-71280220D01*
X159026610Y-71187287D01*
X159119590Y-71119732D01*
X159192213Y-71066971D01*
X159192215Y-71066968D01*
X159192219Y-71066966D01*
X159336966Y-70922219D01*
X159336968Y-70922215D01*
X159336971Y-70922213D01*
X159436999Y-70784534D01*
X159457287Y-70756610D01*
X159550220Y-70574219D01*
X159613477Y-70379534D01*
X159645500Y-70177352D01*
X159645500Y-69972648D01*
X159613477Y-69770466D01*
X159598956Y-69725776D01*
X159567116Y-69627781D01*
X159550220Y-69575781D01*
X159550218Y-69575778D01*
X159550218Y-69575776D01*
X159516503Y-69509607D01*
X159457287Y-69393390D01*
X159445950Y-69377786D01*
X159336971Y-69227786D01*
X159192213Y-69083028D01*
X159026613Y-68962715D01*
X159026612Y-68962714D01*
X159026610Y-68962713D01*
X158951613Y-68924500D01*
X158844223Y-68869781D01*
X158649534Y-68806522D01*
X158474995Y-68778878D01*
X158447352Y-68774500D01*
X158242648Y-68774500D01*
X158218329Y-68778351D01*
X158040465Y-68806522D01*
X157845776Y-68869781D01*
X157663386Y-68962715D01*
X157497786Y-69083028D01*
X157353028Y-69227786D01*
X157232715Y-69393386D01*
X157139781Y-69575776D01*
X157076522Y-69770465D01*
X157044500Y-69972648D01*
X152898624Y-69972648D01*
X152807287Y-69793390D01*
X152758163Y-69725776D01*
X152686971Y-69627786D01*
X152542213Y-69483028D01*
X152376613Y-69362715D01*
X152376612Y-69362714D01*
X152376610Y-69362713D01*
X152302504Y-69324954D01*
X152194223Y-69269781D01*
X151999534Y-69206522D01*
X151824995Y-69178878D01*
X151797352Y-69174500D01*
X151592648Y-69174500D01*
X151561080Y-69179500D01*
X151390464Y-69206523D01*
X151390461Y-69206523D01*
X151195781Y-69269779D01*
X151195780Y-69269779D01*
X151071623Y-69333040D01*
X151002954Y-69345936D01*
X150959034Y-69333040D01*
X150845351Y-69275116D01*
X150845350Y-69275115D01*
X150845347Y-69275114D01*
X150765163Y-69249060D01*
X150650662Y-69211856D01*
X150476123Y-69184212D01*
X150448480Y-69179834D01*
X150243776Y-69179834D01*
X150176382Y-69190508D01*
X150041592Y-69211857D01*
X150041589Y-69211857D01*
X149846909Y-69275113D01*
X149846908Y-69275113D01*
X149742073Y-69328529D01*
X149673404Y-69341425D01*
X149629484Y-69328529D01*
X149523999Y-69274782D01*
X149523998Y-69274781D01*
X149523995Y-69274780D01*
X149443811Y-69248726D01*
X149329310Y-69211522D01*
X149154771Y-69183878D01*
X149127128Y-69179500D01*
X148922424Y-69179500D01*
X148898105Y-69183351D01*
X148720241Y-69211522D01*
X148525552Y-69274781D01*
X148343162Y-69367715D01*
X148177562Y-69488028D01*
X148032804Y-69632786D01*
X147912491Y-69798386D01*
X147819557Y-69980776D01*
X147756298Y-70175465D01*
X147724276Y-70377648D01*
X132587534Y-70377648D01*
X132595500Y-70327352D01*
X132595500Y-70122648D01*
X132563477Y-69920466D01*
X132543841Y-69860034D01*
X132514739Y-69770466D01*
X132500220Y-69725781D01*
X132500218Y-69725778D01*
X132500218Y-69725776D01*
X132466503Y-69659607D01*
X132407287Y-69543390D01*
X132367069Y-69488034D01*
X132286971Y-69377786D01*
X132142213Y-69233028D01*
X131976613Y-69112715D01*
X131976612Y-69112714D01*
X131976610Y-69112713D01*
X131886515Y-69066807D01*
X131794223Y-69019781D01*
X131599534Y-68956522D01*
X131424995Y-68928878D01*
X131397352Y-68924500D01*
X131192648Y-68924500D01*
X131168329Y-68928351D01*
X130990465Y-68956522D01*
X130795776Y-69019781D01*
X130613386Y-69112715D01*
X130447786Y-69233028D01*
X130303028Y-69377786D01*
X130182715Y-69543386D01*
X130089781Y-69725776D01*
X130026522Y-69920465D01*
X129994500Y-70122648D01*
X126190500Y-70122648D01*
X126158477Y-69920466D01*
X126138841Y-69860034D01*
X126109739Y-69770466D01*
X126095220Y-69725781D01*
X126095218Y-69725778D01*
X126095218Y-69725776D01*
X126061503Y-69659607D01*
X126002287Y-69543390D01*
X125962069Y-69488034D01*
X125881971Y-69377786D01*
X125737213Y-69233028D01*
X125571613Y-69112715D01*
X125571612Y-69112714D01*
X125571610Y-69112713D01*
X125481515Y-69066807D01*
X125389223Y-69019781D01*
X125194534Y-68956522D01*
X125019995Y-68928878D01*
X124992352Y-68924500D01*
X124787648Y-68924500D01*
X124720254Y-68935174D01*
X124585464Y-68956523D01*
X124585461Y-68956523D01*
X124390782Y-69019779D01*
X124390781Y-69019779D01*
X124323794Y-69053911D01*
X124255125Y-69066807D01*
X124211206Y-69053911D01*
X124144218Y-69019779D01*
X123949536Y-68956523D01*
X123814746Y-68935174D01*
X123747352Y-68924500D01*
X123542648Y-68924500D01*
X123475254Y-68935174D01*
X123340464Y-68956523D01*
X123340461Y-68956523D01*
X123145781Y-69019779D01*
X123145780Y-69019779D01*
X123051294Y-69067922D01*
X122982625Y-69080818D01*
X122938706Y-69067922D01*
X122844219Y-69019779D01*
X122649536Y-68956523D01*
X122514746Y-68935174D01*
X122447352Y-68924500D01*
X122242648Y-68924500D01*
X122218329Y-68928351D01*
X122040465Y-68956522D01*
X121845776Y-69019781D01*
X121663386Y-69112715D01*
X121497786Y-69233028D01*
X121353028Y-69377786D01*
X121232715Y-69543386D01*
X121139781Y-69725776D01*
X121076522Y-69920465D01*
X121044500Y-70122648D01*
X109979475Y-70122648D01*
X109909107Y-69860034D01*
X109794707Y-69583847D01*
X109645235Y-69324954D01*
X109574702Y-69233034D01*
X109463250Y-69087787D01*
X109463244Y-69087780D01*
X109251869Y-68876405D01*
X109251862Y-68876399D01*
X109014704Y-68694421D01*
X109014702Y-68694420D01*
X109014696Y-68694415D01*
X108755803Y-68544943D01*
X108755796Y-68544940D01*
X108479620Y-68430544D01*
X108190854Y-68353169D01*
X107894481Y-68314151D01*
X107894478Y-68314150D01*
X107894472Y-68314150D01*
X107595528Y-68314150D01*
X107595522Y-68314150D01*
X107595518Y-68314151D01*
X107299145Y-68353169D01*
X107010379Y-68430544D01*
X106734203Y-68544940D01*
X106734194Y-68544944D01*
X106475310Y-68694411D01*
X106475295Y-68694421D01*
X106238137Y-68876399D01*
X106238130Y-68876405D01*
X106026755Y-69087780D01*
X106026749Y-69087787D01*
X105844771Y-69324945D01*
X105844761Y-69324960D01*
X105695294Y-69583844D01*
X105695290Y-69583853D01*
X105580894Y-69860029D01*
X105503519Y-70148795D01*
X105464501Y-70445168D01*
X105464500Y-70445184D01*
X103298903Y-70445184D01*
X103297860Y-63074022D01*
X103317535Y-63006981D01*
X103370333Y-62961219D01*
X103421855Y-62950006D01*
X105310502Y-62950006D01*
X105377539Y-62969691D01*
X105423294Y-63022495D01*
X105434500Y-63074006D01*
X105434500Y-63099465D01*
X105434501Y-63099481D01*
X105473519Y-63395854D01*
X105550894Y-63684620D01*
X105583064Y-63762284D01*
X105665293Y-63960803D01*
X105814765Y-64219696D01*
X105814770Y-64219702D01*
X105814771Y-64219704D01*
X105996749Y-64456862D01*
X105996755Y-64456869D01*
X106208130Y-64668244D01*
X106208136Y-64668249D01*
X106445304Y-64850235D01*
X106704197Y-64999707D01*
X106980384Y-65114107D01*
X107269142Y-65191480D01*
X107565528Y-65230500D01*
X107565535Y-65230500D01*
X107864465Y-65230500D01*
X107864472Y-65230500D01*
X108160858Y-65191480D01*
X108449616Y-65114107D01*
X108725803Y-64999707D01*
X108984696Y-64850235D01*
X109221864Y-64668249D01*
X109433249Y-64456864D01*
X109615235Y-64219696D01*
X109764707Y-63960803D01*
X109879107Y-63684616D01*
X109956480Y-63395858D01*
X109995500Y-63099472D01*
X109995500Y-63074005D01*
X110015185Y-63006966D01*
X110067989Y-62961211D01*
X110119494Y-62950006D01*
X116877657Y-62950005D01*
X116944695Y-62969690D01*
X116965337Y-62986324D01*
X117199360Y-63220347D01*
X117199365Y-63220351D01*
X117318817Y-63307137D01*
X117336315Y-63319850D01*
X117432425Y-63368820D01*
X117487146Y-63396703D01*
X117487148Y-63396703D01*
X117487151Y-63396705D01*
X117573450Y-63424745D01*
X117648152Y-63449018D01*
X117815351Y-63475500D01*
X117815356Y-63475500D01*
X117984644Y-63475500D01*
X123334953Y-63475500D01*
X123401992Y-63495185D01*
X123422634Y-63511819D01*
X123552786Y-63641971D01*
X123707749Y-63754556D01*
X123718390Y-63762287D01*
X123834607Y-63821503D01*
X123900776Y-63855218D01*
X123900778Y-63855218D01*
X123900781Y-63855220D01*
X124005137Y-63889127D01*
X124095465Y-63918477D01*
X124196557Y-63934488D01*
X124297648Y-63950500D01*
X124297649Y-63950500D01*
X124502351Y-63950500D01*
X124502352Y-63950500D01*
X124704534Y-63918477D01*
X124899219Y-63855220D01*
X125081610Y-63762287D01*
X125188516Y-63684616D01*
X125247213Y-63641971D01*
X125247215Y-63641968D01*
X125247219Y-63641966D01*
X125391966Y-63497219D01*
X125391968Y-63497215D01*
X125391971Y-63497213D01*
X125464993Y-63396705D01*
X125512287Y-63331610D01*
X125605220Y-63149219D01*
X125642109Y-63035683D01*
X125681546Y-62978010D01*
X125745905Y-62950811D01*
X125760017Y-62950004D01*
X160726000Y-62950000D01*
X160793039Y-62969685D01*
G37*
%TD.AperFunction*%
%TD*%
%TA.AperFunction,Conductor*%
%TO.N,+3V3*%
G36*
X184137606Y-40855023D02*
G01*
X184152604Y-40859427D01*
X184211355Y-40897172D01*
X184212542Y-40898541D01*
X184232407Y-40942004D01*
X184235863Y-40940908D01*
X184238695Y-40949835D01*
X184240082Y-40958794D01*
X184241587Y-40962087D01*
X184241108Y-40965423D01*
X184244500Y-40987331D01*
X184244500Y-144976601D01*
X184239475Y-145011545D01*
X184235070Y-145026543D01*
X184197327Y-145085286D01*
X184195973Y-145086460D01*
X184141060Y-145113947D01*
X184136056Y-145115034D01*
X184133468Y-145115597D01*
X184107070Y-145118422D01*
X111641359Y-145072296D01*
X111606430Y-145067252D01*
X111591434Y-145062838D01*
X111532684Y-145025033D01*
X111531474Y-145023635D01*
X111504065Y-144968833D01*
X111502435Y-144961337D01*
X111499603Y-144935050D01*
X111499236Y-144192246D01*
X111498532Y-142768707D01*
X177544500Y-142768707D01*
X177544500Y-142981291D01*
X177577752Y-143191239D01*
X177643445Y-143393418D01*
X177736532Y-143576111D01*
X177739951Y-143582820D01*
X177864890Y-143754786D01*
X177864892Y-143754788D01*
X178015216Y-143905112D01*
X178187169Y-144030042D01*
X178187177Y-144030047D01*
X178187179Y-144030048D01*
X178187181Y-144030049D01*
X178187182Y-144030050D01*
X178187200Y-144030060D01*
X178187442Y-144030182D01*
X178376588Y-144126557D01*
X178578757Y-144192246D01*
X178788713Y-144225500D01*
X178788714Y-144225500D01*
X179001286Y-144225500D01*
X179001287Y-144225500D01*
X179211243Y-144192246D01*
X179413412Y-144126557D01*
X179602816Y-144030051D01*
X179624789Y-144014086D01*
X179774786Y-143905109D01*
X179774786Y-143905108D01*
X179774844Y-143905066D01*
X179775605Y-143904290D01*
X179925104Y-143754792D01*
X179925106Y-143754788D01*
X179925109Y-143754786D01*
X180050048Y-143582820D01*
X180050047Y-143582820D01*
X180050051Y-143582816D01*
X180050053Y-143582810D01*
X180070445Y-143554744D01*
X180078730Y-143526529D01*
X180146557Y-143393412D01*
X180212246Y-143191243D01*
X180245500Y-142981287D01*
X180245500Y-142768713D01*
X180212246Y-142558757D01*
X180146557Y-142356588D01*
X180050051Y-142167184D01*
X180050049Y-142167181D01*
X180050048Y-142167179D01*
X180049702Y-142166703D01*
X180049700Y-142166699D01*
X179925112Y-141995216D01*
X179774788Y-141844892D01*
X179774786Y-141844890D01*
X179602820Y-141719951D01*
X179589167Y-141712994D01*
X179435245Y-141634567D01*
X179435240Y-141634565D01*
X179413414Y-141623444D01*
X179413413Y-141623443D01*
X179413412Y-141623443D01*
X179316550Y-141591970D01*
X179220074Y-141560623D01*
X179215552Y-141558770D01*
X179206362Y-141556600D01*
X179201599Y-141556226D01*
X179049957Y-141532208D01*
X179030489Y-141529124D01*
X179001290Y-141524500D01*
X179001287Y-141524500D01*
X178788713Y-141524500D01*
X178788709Y-141524500D01*
X178749776Y-141530666D01*
X178740042Y-141532208D01*
X178702654Y-141538129D01*
X178578763Y-141557752D01*
X178376582Y-141623445D01*
X178187182Y-141719949D01*
X178187179Y-141719950D01*
X178187179Y-141719951D01*
X178169141Y-141733056D01*
X178015210Y-141844892D01*
X177864892Y-141995210D01*
X177739949Y-142167182D01*
X177643445Y-142356580D01*
X177577752Y-142558759D01*
X177544500Y-142768707D01*
X111498532Y-142768707D01*
X111496503Y-138666966D01*
X116944500Y-138666966D01*
X116944500Y-140683028D01*
X116944501Y-140683034D01*
X116944538Y-140683453D01*
X116944538Y-140683496D01*
X116944835Y-140687089D01*
X116944921Y-140687760D01*
X116955113Y-140802416D01*
X117011090Y-140998048D01*
X117011284Y-140998629D01*
X117012201Y-141000209D01*
X117012669Y-141001070D01*
X117105302Y-141178407D01*
X117105304Y-141178409D01*
X117116594Y-141192255D01*
X117116595Y-141192257D01*
X117233887Y-141336106D01*
X117233888Y-141336107D01*
X117233890Y-141336109D01*
X117327803Y-141412684D01*
X117391593Y-141464698D01*
X117571951Y-141558909D01*
X117767582Y-141614886D01*
X117886963Y-141625500D01*
X119903036Y-141625499D01*
X120022418Y-141614886D01*
X120218049Y-141558909D01*
X120398407Y-141464698D01*
X120556109Y-141336109D01*
X120684698Y-141178407D01*
X120778909Y-140998049D01*
X120834886Y-140802418D01*
X120845500Y-140683037D01*
X120845499Y-139716966D01*
X142994500Y-139716966D01*
X142994500Y-141733028D01*
X142994501Y-141733033D01*
X142994501Y-141733056D01*
X142994835Y-141737089D01*
X142994921Y-141737760D01*
X143005113Y-141852416D01*
X143061090Y-142048048D01*
X143061284Y-142048629D01*
X143062201Y-142050209D01*
X143062669Y-142051070D01*
X143155302Y-142228407D01*
X143155304Y-142228409D01*
X143166594Y-142242255D01*
X143166595Y-142242257D01*
X143283887Y-142386106D01*
X143283888Y-142386107D01*
X143283890Y-142386109D01*
X143377803Y-142462684D01*
X143441593Y-142514698D01*
X143621951Y-142608909D01*
X143817582Y-142664886D01*
X143936963Y-142675500D01*
X145953036Y-142675499D01*
X146072418Y-142664886D01*
X146268049Y-142608909D01*
X146448407Y-142514698D01*
X146606109Y-142386109D01*
X146734698Y-142228407D01*
X146828909Y-142048049D01*
X146884886Y-141852418D01*
X146895500Y-141733037D01*
X146895499Y-139716964D01*
X146884886Y-139597582D01*
X146828909Y-139401951D01*
X146734698Y-139221593D01*
X146682684Y-139157803D01*
X146606109Y-139063890D01*
X146606107Y-139063888D01*
X146606106Y-139063887D01*
X146512807Y-138987813D01*
X146500704Y-138970167D01*
X146448404Y-138935300D01*
X146281933Y-138848343D01*
X146281931Y-138848342D01*
X146268049Y-138841091D01*
X146268048Y-138841090D01*
X146268045Y-138841089D01*
X146150829Y-138807550D01*
X146149492Y-138807167D01*
X146149481Y-138807164D01*
X146074981Y-138785847D01*
X146072825Y-138785179D01*
X146070347Y-138784777D01*
X146066936Y-138784626D01*
X146057628Y-138783798D01*
X146006102Y-138779217D01*
X146006101Y-138779216D01*
X145953039Y-138774500D01*
X145953037Y-138774500D01*
X145953032Y-138774500D01*
X143936971Y-138774500D01*
X143936965Y-138774500D01*
X143924897Y-138774500D01*
X143918042Y-138776182D01*
X143817582Y-138785113D01*
X143621952Y-138841089D01*
X143531771Y-138888194D01*
X143531772Y-138888195D01*
X143449043Y-138931409D01*
X143449034Y-138931415D01*
X143441593Y-138935302D01*
X143441591Y-138935303D01*
X143441590Y-138935304D01*
X143432627Y-138942611D01*
X143432620Y-138942617D01*
X143283887Y-139063892D01*
X143155306Y-139221586D01*
X143061088Y-139401955D01*
X143005848Y-139595016D01*
X143005236Y-139596992D01*
X143005113Y-139597580D01*
X142998679Y-139669954D01*
X142997607Y-139682016D01*
X142994745Y-139714214D01*
X142994500Y-139716966D01*
X120845499Y-139716966D01*
X120845499Y-139597586D01*
X120845499Y-138666971D01*
X120845499Y-138666964D01*
X120834886Y-138547582D01*
X120778909Y-138351951D01*
X120684698Y-138171593D01*
X120632684Y-138107803D01*
X120556109Y-138013890D01*
X120556107Y-138013888D01*
X120556106Y-138013887D01*
X120462807Y-137937813D01*
X120450704Y-137920167D01*
X120398404Y-137885300D01*
X120231933Y-137798343D01*
X120231931Y-137798342D01*
X120218049Y-137791091D01*
X120218048Y-137791090D01*
X120218045Y-137791089D01*
X120100829Y-137757550D01*
X120099492Y-137757167D01*
X120099481Y-137757164D01*
X120024981Y-137735847D01*
X120022825Y-137735179D01*
X120020347Y-137734777D01*
X120016936Y-137734626D01*
X120007628Y-137733798D01*
X119956102Y-137729217D01*
X119956101Y-137729216D01*
X119903039Y-137724500D01*
X119903037Y-137724500D01*
X119903032Y-137724500D01*
X117886971Y-137724500D01*
X117886965Y-137724500D01*
X117874897Y-137724500D01*
X117868042Y-137726182D01*
X117767582Y-137735113D01*
X117571952Y-137791089D01*
X117481771Y-137838194D01*
X117481772Y-137838195D01*
X117399043Y-137881409D01*
X117399034Y-137881415D01*
X117391593Y-137885302D01*
X117391591Y-137885303D01*
X117391590Y-137885304D01*
X117382627Y-137892611D01*
X117382620Y-137892617D01*
X117233887Y-138013892D01*
X117105306Y-138171586D01*
X117011088Y-138351955D01*
X116960503Y-138528745D01*
X116960502Y-138528748D01*
X116955114Y-138547583D01*
X116955113Y-138547586D01*
X116944500Y-138666966D01*
X111496503Y-138666966D01*
X111494513Y-134644380D01*
X111499517Y-134609456D01*
X111503917Y-134594445D01*
X111541657Y-134535658D01*
X111543032Y-134534465D01*
X111597885Y-134506990D01*
X111605479Y-134505336D01*
X111631853Y-134502500D01*
X119991627Y-134502500D01*
X120026563Y-134507523D01*
X120041561Y-134511927D01*
X120100334Y-134549697D01*
X120104881Y-134554944D01*
X120129900Y-134600377D01*
X120140041Y-134634035D01*
X120144836Y-134645507D01*
X120194781Y-134799223D01*
X120273026Y-134952786D01*
X120287712Y-134981609D01*
X120287713Y-134981610D01*
X120287715Y-134981613D01*
X120408028Y-135147213D01*
X120552786Y-135291971D01*
X120570078Y-135304534D01*
X120649566Y-135362284D01*
X120649567Y-135362285D01*
X120694222Y-135394728D01*
X120718390Y-135412287D01*
X120803520Y-135455663D01*
X120834607Y-135471503D01*
X120894327Y-135501932D01*
X120894326Y-135501932D01*
X120901650Y-135505663D01*
X120905403Y-135506722D01*
X120908795Y-135507824D01*
X121005135Y-135539126D01*
X121005136Y-135539127D01*
X121040139Y-135550500D01*
X121095465Y-135568477D01*
X121196557Y-135584488D01*
X121297648Y-135600500D01*
X121297649Y-135600500D01*
X121502351Y-135600500D01*
X121502352Y-135600500D01*
X121704534Y-135568477D01*
X121899219Y-135505220D01*
X122081610Y-135412287D01*
X122174590Y-135344732D01*
X122247213Y-135291971D01*
X122247213Y-135291969D01*
X122247272Y-135291927D01*
X122248031Y-135291153D01*
X122391966Y-135147219D01*
X122391968Y-135147215D01*
X122391971Y-135147213D01*
X122412913Y-135118389D01*
X122475954Y-135031618D01*
X122475960Y-135031610D01*
X122512287Y-134981610D01*
X122605220Y-134799219D01*
X122664241Y-134617570D01*
X122670110Y-134602805D01*
X122671340Y-134600207D01*
X122671342Y-134600208D01*
X122682395Y-134576881D01*
X122728885Y-134524735D01*
X122734493Y-134521242D01*
X122800042Y-134502500D01*
X124021207Y-134502500D01*
X124056143Y-134507523D01*
X124071141Y-134511927D01*
X124129916Y-134549699D01*
X124134234Y-134554682D01*
X124162996Y-134616486D01*
X124164592Y-134626559D01*
X124169023Y-134654535D01*
X124232281Y-134849223D01*
X124245239Y-134874654D01*
X124325214Y-135031612D01*
X124370501Y-135093945D01*
X124445528Y-135197213D01*
X124590286Y-135341971D01*
X124745249Y-135454556D01*
X124755890Y-135462287D01*
X124840147Y-135505218D01*
X124896471Y-135533917D01*
X124931830Y-135551934D01*
X124933431Y-135552871D01*
X124937120Y-135554658D01*
X124939138Y-135555660D01*
X124942906Y-135556723D01*
X124979079Y-135568476D01*
X125042635Y-135589126D01*
X125042636Y-135589127D01*
X125077639Y-135600500D01*
X125132965Y-135618477D01*
X125234057Y-135634488D01*
X125335148Y-135650500D01*
X125335149Y-135650500D01*
X125539851Y-135650500D01*
X125539852Y-135650500D01*
X125742034Y-135618477D01*
X125936719Y-135555220D01*
X126119110Y-135462287D01*
X126212090Y-135394732D01*
X126284713Y-135341971D01*
X126284713Y-135341969D01*
X126284772Y-135341927D01*
X126285531Y-135341153D01*
X126429466Y-135197219D01*
X126429468Y-135197215D01*
X126429471Y-135197213D01*
X126498391Y-135102351D01*
X126549787Y-135031610D01*
X126642720Y-134849219D01*
X126705977Y-134654534D01*
X126710701Y-134624705D01*
X126721126Y-134590993D01*
X126727824Y-134576864D01*
X126774324Y-134524723D01*
X126779942Y-134521226D01*
X126845466Y-134502500D01*
X127891627Y-134502500D01*
X127926563Y-134507523D01*
X127941561Y-134511927D01*
X128000334Y-134549697D01*
X128004881Y-134554944D01*
X128029900Y-134600377D01*
X128040041Y-134634035D01*
X128044836Y-134645507D01*
X128094781Y-134799223D01*
X128173026Y-134952786D01*
X128187712Y-134981609D01*
X128187713Y-134981610D01*
X128187715Y-134981613D01*
X128308028Y-135147213D01*
X128452786Y-135291971D01*
X128470078Y-135304534D01*
X128549566Y-135362284D01*
X128549567Y-135362285D01*
X128594222Y-135394728D01*
X128618390Y-135412287D01*
X128703520Y-135455663D01*
X128734607Y-135471503D01*
X128794327Y-135501932D01*
X128794326Y-135501932D01*
X128801650Y-135505663D01*
X128805403Y-135506722D01*
X128808795Y-135507824D01*
X128905135Y-135539126D01*
X128905136Y-135539127D01*
X128940139Y-135550500D01*
X128995465Y-135568477D01*
X129096557Y-135584488D01*
X129197648Y-135600500D01*
X129197649Y-135600500D01*
X129402351Y-135600500D01*
X129402352Y-135600500D01*
X129604534Y-135568477D01*
X129799219Y-135505220D01*
X129981610Y-135412287D01*
X130074590Y-135344732D01*
X130147213Y-135291971D01*
X130147213Y-135291969D01*
X130147272Y-135291927D01*
X130148031Y-135291153D01*
X130291966Y-135147219D01*
X130291968Y-135147215D01*
X130291971Y-135147213D01*
X130312913Y-135118389D01*
X130375954Y-135031618D01*
X130375960Y-135031610D01*
X130412287Y-134981610D01*
X130505220Y-134799219D01*
X130564241Y-134617570D01*
X130570110Y-134602805D01*
X130571340Y-134600207D01*
X130571342Y-134600208D01*
X130582395Y-134576881D01*
X130628885Y-134524735D01*
X130634493Y-134521242D01*
X130700042Y-134502500D01*
X132356026Y-134502500D01*
X132390961Y-134507523D01*
X132403385Y-134511171D01*
X132462163Y-134548945D01*
X132491188Y-134612501D01*
X132483347Y-134676781D01*
X132479861Y-134685370D01*
X132465282Y-134711622D01*
X132387714Y-134818385D01*
X132387713Y-134818387D01*
X132294786Y-135000764D01*
X132294780Y-135000777D01*
X132256567Y-135118385D01*
X132231522Y-135195465D01*
X132231245Y-135197213D01*
X132199500Y-135397642D01*
X132199500Y-135602356D01*
X132231521Y-135804530D01*
X132231522Y-135804534D01*
X132245673Y-135848086D01*
X132294780Y-135999220D01*
X132294784Y-135999230D01*
X132387708Y-136181601D01*
X132387713Y-136181609D01*
X132387715Y-136181613D01*
X132508028Y-136347213D01*
X132652786Y-136491971D01*
X132807749Y-136604556D01*
X132818390Y-136612287D01*
X132934607Y-136671503D01*
X132995154Y-136702353D01*
X132996043Y-136702824D01*
X132996249Y-136703025D01*
X132999629Y-136704662D01*
X133001637Y-136705660D01*
X133005403Y-136706722D01*
X133045488Y-136719746D01*
X133105135Y-136739126D01*
X133105136Y-136739127D01*
X133148612Y-136753253D01*
X133195465Y-136768477D01*
X133296557Y-136784488D01*
X133397648Y-136800500D01*
X133397649Y-136800500D01*
X133602351Y-136800500D01*
X133602352Y-136800500D01*
X133804534Y-136768477D01*
X133999219Y-136705220D01*
X134181610Y-136612287D01*
X134274590Y-136544732D01*
X134347213Y-136491971D01*
X134347213Y-136491969D01*
X134347272Y-136491927D01*
X134348031Y-136491153D01*
X134491966Y-136347219D01*
X134491968Y-136347215D01*
X134491971Y-136347213D01*
X134595133Y-136205220D01*
X134612287Y-136181610D01*
X134705220Y-135999219D01*
X134768477Y-135804534D01*
X134800500Y-135602352D01*
X134800500Y-135397648D01*
X134800499Y-135397642D01*
X134794899Y-135362286D01*
X134794899Y-135362284D01*
X134785752Y-135304534D01*
X134768477Y-135195465D01*
X134737204Y-135099219D01*
X134705220Y-135000781D01*
X134705217Y-135000777D01*
X134705217Y-135000774D01*
X134705214Y-135000769D01*
X134705213Y-135000764D01*
X134705052Y-135000450D01*
X134680764Y-134952784D01*
X134678873Y-134949072D01*
X134678872Y-134949071D01*
X134669977Y-134931613D01*
X134652668Y-134897642D01*
X146699500Y-134897642D01*
X146699500Y-135102354D01*
X146731065Y-135301649D01*
X146731522Y-135304534D01*
X146743672Y-135341927D01*
X146794780Y-135499221D01*
X146794786Y-135499234D01*
X146887708Y-135681601D01*
X146887709Y-135681602D01*
X146887715Y-135681613D01*
X147008028Y-135847213D01*
X147152786Y-135991971D01*
X147307719Y-136104534D01*
X147318390Y-136112287D01*
X147434607Y-136171503D01*
X147495185Y-136202369D01*
X147496046Y-136202825D01*
X147496253Y-136203027D01*
X147499629Y-136204662D01*
X147501637Y-136205660D01*
X147505403Y-136206722D01*
X147545488Y-136219746D01*
X147605135Y-136239126D01*
X147605136Y-136239127D01*
X147648612Y-136253253D01*
X147695465Y-136268477D01*
X147796557Y-136284488D01*
X147897648Y-136300500D01*
X147897649Y-136300500D01*
X148102351Y-136300500D01*
X148102352Y-136300500D01*
X148304534Y-136268477D01*
X148499219Y-136205220D01*
X148681610Y-136112287D01*
X148837231Y-135999223D01*
X148847213Y-135991971D01*
X148847215Y-135991968D01*
X148847219Y-135991966D01*
X148847224Y-135991960D01*
X148847274Y-135991925D01*
X148848031Y-135991153D01*
X148991966Y-135847219D01*
X148991968Y-135847215D01*
X148991971Y-135847213D01*
X149021388Y-135806722D01*
X149044730Y-135774593D01*
X149044732Y-135774591D01*
X149089998Y-135712287D01*
X149112287Y-135681610D01*
X149205220Y-135499219D01*
X149268477Y-135304534D01*
X149300500Y-135102352D01*
X149300500Y-134897648D01*
X149292830Y-134849223D01*
X149268477Y-134695465D01*
X149229332Y-134574989D01*
X149205220Y-134500781D01*
X149205218Y-134500778D01*
X149205218Y-134500776D01*
X149202964Y-134496353D01*
X149202660Y-134495573D01*
X149201938Y-134494339D01*
X149112287Y-134318390D01*
X149043094Y-134223152D01*
X149037643Y-134215648D01*
X149037642Y-134215645D01*
X148991989Y-134152811D01*
X148991967Y-134152782D01*
X148986827Y-134147642D01*
X150549500Y-134147642D01*
X150549500Y-134352356D01*
X150580756Y-134549697D01*
X150581522Y-134554534D01*
X150644781Y-134749223D01*
X150708691Y-134874653D01*
X150720408Y-134897648D01*
X150737715Y-134931613D01*
X150858028Y-135097213D01*
X150858030Y-135097215D01*
X151002787Y-135241972D01*
X151084927Y-135301649D01*
X151140420Y-135341966D01*
X151168390Y-135362287D01*
X151284607Y-135421503D01*
X151335061Y-135447211D01*
X151344327Y-135451932D01*
X151344326Y-135451932D01*
X151351650Y-135455663D01*
X151355403Y-135456722D01*
X151372531Y-135462287D01*
X151455135Y-135489126D01*
X151455136Y-135489127D01*
X151486242Y-135499234D01*
X151545465Y-135518477D01*
X151646557Y-135534488D01*
X151747648Y-135550500D01*
X151747649Y-135550500D01*
X151952351Y-135550500D01*
X151952352Y-135550500D01*
X152154534Y-135518477D01*
X152349219Y-135455220D01*
X152531610Y-135362287D01*
X152624590Y-135294732D01*
X152697213Y-135241971D01*
X152697213Y-135241969D01*
X152697270Y-135241929D01*
X152698031Y-135241153D01*
X152841966Y-135097219D01*
X152841968Y-135097215D01*
X152841971Y-135097213D01*
X152925960Y-134981610D01*
X152962287Y-134931610D01*
X153055220Y-134749219D01*
X153118477Y-134554534D01*
X153127488Y-134497642D01*
X155199500Y-134497642D01*
X155199500Y-134702356D01*
X155230430Y-134897642D01*
X155231522Y-134904534D01*
X155294781Y-135099223D01*
X155294783Y-135099228D01*
X155294786Y-135099234D01*
X155387708Y-135281601D01*
X155387713Y-135281610D01*
X155387715Y-135281613D01*
X155508028Y-135447213D01*
X155652786Y-135591971D01*
X155798241Y-135697648D01*
X155818390Y-135712287D01*
X155934607Y-135771503D01*
X155995572Y-135802566D01*
X155996794Y-135803224D01*
X155996922Y-135803351D01*
X155999629Y-135804662D01*
X156001637Y-135805660D01*
X156005403Y-135806722D01*
X156045488Y-135819746D01*
X156105135Y-135839126D01*
X156105136Y-135839127D01*
X156130041Y-135847219D01*
X156195465Y-135868477D01*
X156296557Y-135884488D01*
X156397648Y-135900500D01*
X156397649Y-135900500D01*
X156602351Y-135900500D01*
X156602352Y-135900500D01*
X156804534Y-135868477D01*
X156999219Y-135805220D01*
X157181610Y-135712287D01*
X157201767Y-135697642D01*
X159199500Y-135697642D01*
X159199500Y-135902356D01*
X159231521Y-136104530D01*
X159231522Y-136104534D01*
X159256566Y-136181610D01*
X159294780Y-136299221D01*
X159294786Y-136299234D01*
X159387708Y-136481601D01*
X159387713Y-136481610D01*
X159387715Y-136481613D01*
X159508028Y-136647213D01*
X159652786Y-136791971D01*
X159807749Y-136904556D01*
X159818390Y-136912287D01*
X159934607Y-136971503D01*
X159995154Y-137002353D01*
X159996043Y-137002824D01*
X159996249Y-137003025D01*
X159999629Y-137004662D01*
X160001637Y-137005660D01*
X160005403Y-137006722D01*
X160045488Y-137019746D01*
X160105135Y-137039126D01*
X160105136Y-137039127D01*
X160148612Y-137053253D01*
X160195465Y-137068477D01*
X160296557Y-137084488D01*
X160397648Y-137100500D01*
X160397649Y-137100500D01*
X160602351Y-137100500D01*
X160602352Y-137100500D01*
X160804534Y-137068477D01*
X160999219Y-137005220D01*
X161181610Y-136912287D01*
X161274590Y-136844732D01*
X161347213Y-136791971D01*
X161347213Y-136791969D01*
X161347272Y-136791927D01*
X161348031Y-136791153D01*
X161491966Y-136647219D01*
X161491968Y-136647215D01*
X161491971Y-136647213D01*
X161566427Y-136544732D01*
X161604760Y-136491971D01*
X161604762Y-136491966D01*
X161612287Y-136481610D01*
X161705220Y-136299219D01*
X161768477Y-136104534D01*
X161800500Y-135902352D01*
X161800500Y-135697648D01*
X161769072Y-135499223D01*
X161768477Y-135495465D01*
X161736694Y-135397648D01*
X161706723Y-135305406D01*
X161705663Y-135301649D01*
X161701932Y-135294325D01*
X161651559Y-135195466D01*
X161651558Y-135195464D01*
X161612287Y-135118389D01*
X161600636Y-135102354D01*
X161600634Y-135102351D01*
X161491971Y-134952786D01*
X161347213Y-134808028D01*
X161347212Y-134808027D01*
X161347211Y-134808026D01*
X161192202Y-134695408D01*
X161192199Y-134695406D01*
X161181613Y-134687715D01*
X161181612Y-134687714D01*
X161181610Y-134687713D01*
X161113052Y-134652781D01*
X161113052Y-134652780D01*
X161113050Y-134652780D01*
X160999228Y-134594783D01*
X160999221Y-134594780D01*
X160875357Y-134554534D01*
X160804534Y-134531522D01*
X160804532Y-134531521D01*
X160804530Y-134531521D01*
X160804529Y-134531520D01*
X160621294Y-134502500D01*
X160602352Y-134499500D01*
X160397648Y-134499500D01*
X160378706Y-134502500D01*
X160195469Y-134531520D01*
X160195468Y-134531521D01*
X160000777Y-134594780D01*
X160000764Y-134594786D01*
X159818397Y-134687708D01*
X159818385Y-134687715D01*
X159652787Y-134808027D01*
X159652784Y-134808029D01*
X159508029Y-134952784D01*
X159508028Y-134952786D01*
X159387715Y-135118385D01*
X159387708Y-135118397D01*
X159294786Y-135300764D01*
X159294780Y-135300777D01*
X159231521Y-135495468D01*
X159199500Y-135697642D01*
X157201767Y-135697642D01*
X157266653Y-135650500D01*
X157346543Y-135592458D01*
X157346545Y-135592456D01*
X157347054Y-135592085D01*
X157347206Y-135591976D01*
X157347211Y-135591972D01*
X157347212Y-135591971D01*
X157347219Y-135591966D01*
X157491966Y-135447219D01*
X157491968Y-135447215D01*
X157491971Y-135447213D01*
X157553674Y-135362284D01*
X157612287Y-135281610D01*
X157705220Y-135099219D01*
X157768477Y-134904534D01*
X157800500Y-134702352D01*
X157800500Y-134497648D01*
X157768477Y-134295466D01*
X157752843Y-134247351D01*
X157752841Y-134247346D01*
X157722116Y-134152784D01*
X157705218Y-134100776D01*
X157649123Y-133990685D01*
X157612287Y-133918390D01*
X157604556Y-133907749D01*
X157491971Y-133752786D01*
X157347213Y-133608028D01*
X157347212Y-133608027D01*
X157347211Y-133608026D01*
X157192209Y-133495413D01*
X157192205Y-133495410D01*
X157181613Y-133487715D01*
X157181612Y-133487714D01*
X157181610Y-133487713D01*
X157153171Y-133473222D01*
X157124654Y-133458691D01*
X157124653Y-133458691D01*
X156999223Y-133394781D01*
X156804534Y-133331522D01*
X156804532Y-133331521D01*
X156804530Y-133331521D01*
X156804529Y-133331520D01*
X156629995Y-133303878D01*
X156613409Y-133301251D01*
X156602354Y-133299500D01*
X156602352Y-133299500D01*
X156397648Y-133299500D01*
X156397647Y-133299500D01*
X156373327Y-133303351D01*
X156373326Y-133303350D01*
X156195468Y-133331521D01*
X156000777Y-133394780D01*
X156000764Y-133394786D01*
X155818397Y-133487708D01*
X155818388Y-133487713D01*
X155818386Y-133487715D01*
X155715120Y-133562740D01*
X155652787Y-133608027D01*
X155652784Y-133608029D01*
X155508029Y-133752784D01*
X155508027Y-133752787D01*
X155387715Y-133918385D01*
X155387712Y-133918391D01*
X155294786Y-134100764D01*
X155294780Y-134100777D01*
X155231521Y-134295468D01*
X155199500Y-134497642D01*
X153127488Y-134497642D01*
X153150500Y-134352352D01*
X153150500Y-134147648D01*
X153118477Y-133945466D01*
X153109679Y-133918390D01*
X153056722Y-133755406D01*
X153055658Y-133751635D01*
X153054653Y-133749610D01*
X153052874Y-133745937D01*
X153051936Y-133744335D01*
X153018568Y-133678847D01*
X152962287Y-133568390D01*
X152909267Y-133495413D01*
X152903676Y-133487717D01*
X152903673Y-133487714D01*
X152903673Y-133487713D01*
X152841971Y-133402786D01*
X152697213Y-133258028D01*
X152531613Y-133137715D01*
X152531612Y-133137714D01*
X152531610Y-133137713D01*
X152503171Y-133123222D01*
X152474654Y-133108691D01*
X152474653Y-133108691D01*
X152349223Y-133044781D01*
X152154534Y-132981522D01*
X152154532Y-132981521D01*
X152154530Y-132981521D01*
X152154529Y-132981520D01*
X151979995Y-132953878D01*
X151963409Y-132951251D01*
X151952354Y-132949500D01*
X151952352Y-132949500D01*
X151747648Y-132949500D01*
X151747647Y-132949500D01*
X151723327Y-132953351D01*
X151723326Y-132953350D01*
X151545468Y-132981521D01*
X151350777Y-133044780D01*
X151350764Y-133044786D01*
X151168397Y-133137708D01*
X151168385Y-133137715D01*
X151002787Y-133258027D01*
X151002784Y-133258029D01*
X150858029Y-133402784D01*
X150858027Y-133402787D01*
X150737715Y-133568385D01*
X150737708Y-133568397D01*
X150644786Y-133750764D01*
X150644780Y-133750777D01*
X150581521Y-133945468D01*
X150549500Y-134147642D01*
X148986827Y-134147642D01*
X148939949Y-134100764D01*
X148847213Y-134008028D01*
X148723836Y-133918391D01*
X148692202Y-133895408D01*
X148692199Y-133895406D01*
X148681613Y-133887715D01*
X148681612Y-133887714D01*
X148681610Y-133887713D01*
X148587672Y-133839849D01*
X148587672Y-133839848D01*
X148587670Y-133839848D01*
X148499228Y-133794783D01*
X148499221Y-133794780D01*
X148369971Y-133752784D01*
X148304534Y-133731522D01*
X148304532Y-133731521D01*
X148304530Y-133731521D01*
X148304529Y-133731520D01*
X148129995Y-133703878D01*
X148113409Y-133701251D01*
X148102354Y-133699500D01*
X148102352Y-133699500D01*
X147897648Y-133699500D01*
X147897647Y-133699500D01*
X147873327Y-133703351D01*
X147873326Y-133703350D01*
X147695468Y-133731521D01*
X147500777Y-133794780D01*
X147500764Y-133794786D01*
X147318397Y-133887708D01*
X147318385Y-133887715D01*
X147152787Y-134008027D01*
X147152784Y-134008029D01*
X147008029Y-134152784D01*
X147008027Y-134152787D01*
X146887715Y-134318385D01*
X146887708Y-134318397D01*
X146794786Y-134500764D01*
X146794780Y-134500777D01*
X146731521Y-134695468D01*
X146699500Y-134897642D01*
X134652668Y-134897642D01*
X134612287Y-134818390D01*
X134587159Y-134783804D01*
X134562033Y-134749220D01*
X134536303Y-134713806D01*
X134519834Y-134682591D01*
X134515480Y-134670391D01*
X134511494Y-134600637D01*
X134545854Y-134539800D01*
X134602474Y-134508361D01*
X134611474Y-134506133D01*
X134641268Y-134502500D01*
X143007648Y-134502500D01*
X143007649Y-134502500D01*
X143174847Y-134476018D01*
X143182972Y-134473378D01*
X143335849Y-134423705D01*
X143486685Y-134346850D01*
X143557411Y-134295465D01*
X143623637Y-134247350D01*
X143623638Y-134247347D01*
X143623641Y-134247346D01*
X145151625Y-132719359D01*
X145179876Y-132698212D01*
X145207246Y-132683267D01*
X145247291Y-132669623D01*
X145254534Y-132668477D01*
X145449219Y-132605220D01*
X145631610Y-132512287D01*
X145724590Y-132444732D01*
X145797213Y-132391971D01*
X145797213Y-132391969D01*
X145797272Y-132391927D01*
X145798031Y-132391153D01*
X145941966Y-132247219D01*
X145941968Y-132247215D01*
X145941971Y-132247213D01*
X146010205Y-132153295D01*
X146062287Y-132081610D01*
X146155220Y-131899219D01*
X146218477Y-131704534D01*
X146250500Y-131502352D01*
X146250500Y-131297648D01*
X146250500Y-131297642D01*
X146228268Y-131157280D01*
X146218477Y-131095465D01*
X146184848Y-130991966D01*
X146155220Y-130900781D01*
X146155218Y-130900778D01*
X146155218Y-130900776D01*
X146152982Y-130896388D01*
X146152671Y-130895590D01*
X146151935Y-130894332D01*
X146091706Y-130776128D01*
X146062287Y-130718390D01*
X146062285Y-130718387D01*
X146062284Y-130718385D01*
X146034670Y-130680378D01*
X146034668Y-130680376D01*
X146006765Y-130641969D01*
X145941971Y-130552786D01*
X145797213Y-130408028D01*
X145797084Y-130407934D01*
X145642202Y-130295408D01*
X145642199Y-130295406D01*
X145631613Y-130287715D01*
X145631612Y-130287714D01*
X145631610Y-130287713D01*
X145567835Y-130255218D01*
X145567835Y-130255217D01*
X145567833Y-130255217D01*
X145449228Y-130194783D01*
X145449221Y-130194780D01*
X145308999Y-130149219D01*
X145254534Y-130131522D01*
X145254532Y-130131521D01*
X145254530Y-130131521D01*
X145254529Y-130131520D01*
X145079995Y-130103878D01*
X145063409Y-130101251D01*
X145052354Y-130099500D01*
X145052352Y-130099500D01*
X144847648Y-130099500D01*
X144847647Y-130099500D01*
X144823327Y-130103351D01*
X144823326Y-130103350D01*
X144645468Y-130131521D01*
X144450777Y-130194780D01*
X144450764Y-130194786D01*
X144268397Y-130287708D01*
X144268388Y-130287713D01*
X144268386Y-130287715D01*
X144181968Y-130350500D01*
X144102787Y-130408027D01*
X144102784Y-130408029D01*
X143958029Y-130552784D01*
X143958027Y-130552787D01*
X143837715Y-130718385D01*
X143837714Y-130718387D01*
X143744783Y-130900773D01*
X143744782Y-130900775D01*
X143744781Y-130900778D01*
X143717942Y-130983381D01*
X143681523Y-131095466D01*
X143681521Y-131095472D01*
X143680822Y-131099888D01*
X143670395Y-131133602D01*
X143657036Y-131161779D01*
X143632672Y-131196338D01*
X142526439Y-132302573D01*
X142498188Y-132323722D01*
X142475100Y-132336330D01*
X142415670Y-132351500D01*
X118036679Y-132351500D01*
X118001744Y-132346477D01*
X117990890Y-132343290D01*
X117932112Y-132305516D01*
X117903087Y-132241960D01*
X117913027Y-132172811D01*
X117916217Y-132165824D01*
X117941326Y-132129660D01*
X118120426Y-131950561D01*
X118751625Y-131319359D01*
X118779876Y-131298212D01*
X118807246Y-131283267D01*
X118847291Y-131269623D01*
X118854534Y-131268477D01*
X119049219Y-131205220D01*
X119231610Y-131112287D01*
X119377852Y-131006037D01*
X119397213Y-130991971D01*
X119397215Y-130991968D01*
X119397219Y-130991966D01*
X119397223Y-130991961D01*
X119397275Y-130991924D01*
X119398018Y-130991166D01*
X119541966Y-130847219D01*
X119541968Y-130847215D01*
X119541971Y-130847213D01*
X119603674Y-130762284D01*
X119662287Y-130681610D01*
X119755220Y-130499219D01*
X119818477Y-130304534D01*
X119850500Y-130102352D01*
X119850500Y-129897648D01*
X119837445Y-129815225D01*
X119818477Y-129695465D01*
X119755730Y-129502352D01*
X119755220Y-129500781D01*
X119755218Y-129500778D01*
X119755218Y-129500776D01*
X119752972Y-129496368D01*
X119752663Y-129495576D01*
X119751933Y-129494329D01*
X119682656Y-129358366D01*
X119682652Y-129358360D01*
X119680703Y-129354534D01*
X119662287Y-129318390D01*
X119644707Y-129294193D01*
X119541971Y-129152786D01*
X119397213Y-129008028D01*
X119314097Y-128947642D01*
X120699500Y-128947642D01*
X120699500Y-129152356D01*
X120731521Y-129354530D01*
X120794780Y-129549221D01*
X120794786Y-129549234D01*
X120887708Y-129731601D01*
X120887715Y-129731613D01*
X120967119Y-129840906D01*
X121008027Y-129897211D01*
X121008029Y-129897214D01*
X121152787Y-130041972D01*
X121237270Y-130103351D01*
X121300403Y-130149219D01*
X121318390Y-130162287D01*
X121434607Y-130221503D01*
X121494327Y-130251932D01*
X121494326Y-130251932D01*
X121501650Y-130255663D01*
X121505403Y-130256722D01*
X121529598Y-130264583D01*
X121566131Y-130276453D01*
X121566132Y-130276454D01*
X121600769Y-130287708D01*
X121695465Y-130318477D01*
X121778383Y-130331610D01*
X121897648Y-130350500D01*
X121897649Y-130350500D01*
X122102351Y-130350500D01*
X122102352Y-130350500D01*
X122304534Y-130318477D01*
X122499219Y-130255220D01*
X122681610Y-130162287D01*
X122792653Y-130081610D01*
X122847213Y-130041971D01*
X122847215Y-130041968D01*
X122847219Y-130041966D01*
X122847222Y-130041962D01*
X122847272Y-130041926D01*
X122847977Y-130041207D01*
X122991966Y-129897219D01*
X123041060Y-129829644D01*
X123065650Y-129804340D01*
X123076647Y-129795860D01*
X123141753Y-129770512D01*
X123210228Y-129784384D01*
X123213183Y-129785943D01*
X123255127Y-129822033D01*
X123256297Y-129823620D01*
X123266973Y-129840906D01*
X123286343Y-129878921D01*
X123287715Y-129881614D01*
X123408028Y-130047213D01*
X123552786Y-130191971D01*
X123684569Y-130287715D01*
X123718390Y-130312287D01*
X123834607Y-130371503D01*
X123874777Y-130391971D01*
X123894327Y-130401932D01*
X123894326Y-130401932D01*
X123901649Y-130405663D01*
X123905401Y-130406721D01*
X123967047Y-130426751D01*
X124095465Y-130468477D01*
X124095468Y-130468477D01*
X124095469Y-130468478D01*
X124135304Y-130474787D01*
X124135305Y-130474787D01*
X124297648Y-130500500D01*
X124297649Y-130500500D01*
X124502351Y-130500500D01*
X124502352Y-130500500D01*
X124704534Y-130468477D01*
X124733594Y-130459033D01*
X124768372Y-130453015D01*
X124790631Y-130452379D01*
X124847290Y-130464282D01*
X124851329Y-130466197D01*
X124871088Y-130477920D01*
X124911687Y-130507417D01*
X124911688Y-130507418D01*
X124911689Y-130507418D01*
X124911690Y-130507419D01*
X124918390Y-130512287D01*
X125012242Y-130560107D01*
X125027179Y-130567718D01*
X125094329Y-130601933D01*
X125095929Y-130602870D01*
X125099624Y-130604660D01*
X125101637Y-130605660D01*
X125105406Y-130606723D01*
X125166745Y-130626653D01*
X125180050Y-130630976D01*
X125295465Y-130668477D01*
X125370598Y-130680377D01*
X125497648Y-130700500D01*
X125497649Y-130700500D01*
X125702351Y-130700500D01*
X125702352Y-130700500D01*
X125904534Y-130668477D01*
X126099219Y-130605220D01*
X126146563Y-130581095D01*
X126179970Y-130569711D01*
X126204383Y-130565127D01*
X126257499Y-130566739D01*
X126265614Y-130568779D01*
X126273701Y-130571106D01*
X126444668Y-130626656D01*
X126457966Y-130630977D01*
X126457969Y-130630977D01*
X126457971Y-130630978D01*
X126572764Y-130649159D01*
X126660148Y-130663000D01*
X126660149Y-130663000D01*
X126864851Y-130663000D01*
X126864852Y-130663000D01*
X127067034Y-130630977D01*
X127261719Y-130567720D01*
X127444110Y-130474787D01*
X127489389Y-130441889D01*
X127520594Y-130425424D01*
X127535319Y-130420169D01*
X127605072Y-130416180D01*
X127615222Y-130418540D01*
X127660017Y-130438999D01*
X127760890Y-130512287D01*
X127854742Y-130560107D01*
X127869679Y-130567718D01*
X127936829Y-130601933D01*
X127938429Y-130602870D01*
X127942124Y-130604660D01*
X127944137Y-130605660D01*
X127947906Y-130606723D01*
X128009245Y-130626653D01*
X128022550Y-130630976D01*
X128137965Y-130668477D01*
X128213098Y-130680377D01*
X128340148Y-130700500D01*
X128340149Y-130700500D01*
X128544851Y-130700500D01*
X128544852Y-130700500D01*
X128747034Y-130668477D01*
X128941719Y-130605220D01*
X129124110Y-130512287D01*
X129235423Y-130431414D01*
X129241840Y-130426752D01*
X129256391Y-130416180D01*
X129289713Y-130391971D01*
X129289714Y-130391969D01*
X129289717Y-130391966D01*
X129289719Y-130391966D01*
X129289720Y-130391964D01*
X129289773Y-130391926D01*
X129290532Y-130391152D01*
X129434466Y-130247219D01*
X129434468Y-130247215D01*
X129434471Y-130247213D01*
X129496174Y-130162284D01*
X129554787Y-130081610D01*
X129647720Y-129899219D01*
X129710977Y-129704534D01*
X129735827Y-129547642D01*
X147749500Y-129547642D01*
X147749500Y-129752356D01*
X147781521Y-129954530D01*
X147781522Y-129954534D01*
X147844781Y-130149223D01*
X147898789Y-130255218D01*
X147931021Y-130318477D01*
X147931023Y-130318480D01*
X147931022Y-130318480D01*
X147937708Y-130331602D01*
X147937712Y-130331608D01*
X147937715Y-130331613D01*
X148058028Y-130497213D01*
X148202786Y-130641971D01*
X148307966Y-130718387D01*
X148307969Y-130718389D01*
X148307970Y-130718391D01*
X148355414Y-130752859D01*
X148368390Y-130762287D01*
X148484607Y-130821503D01*
X148520579Y-130839832D01*
X148544327Y-130851932D01*
X148544326Y-130851932D01*
X148551650Y-130855663D01*
X148555403Y-130856722D01*
X148591582Y-130868477D01*
X148655135Y-130889126D01*
X148655136Y-130889127D01*
X148691425Y-130900918D01*
X148745465Y-130918477D01*
X148846557Y-130934488D01*
X148947648Y-130950500D01*
X148947649Y-130950500D01*
X149152351Y-130950500D01*
X149152352Y-130950500D01*
X149354534Y-130918477D01*
X149549219Y-130855220D01*
X149731610Y-130762287D01*
X149816653Y-130700500D01*
X149842652Y-130681611D01*
X149842652Y-130681610D01*
X149842653Y-130681610D01*
X149897213Y-130641971D01*
X149897215Y-130641968D01*
X149897219Y-130641966D01*
X149897222Y-130641963D01*
X149897274Y-130641925D01*
X149898032Y-130641152D01*
X149999714Y-130539470D01*
X150027964Y-130518322D01*
X150041688Y-130510828D01*
X150109946Y-130495977D01*
X150111756Y-130496106D01*
X150169953Y-130515472D01*
X150176471Y-130519661D01*
X150197106Y-130536291D01*
X150252786Y-130591971D01*
X150402166Y-130700500D01*
X150418390Y-130712287D01*
X150534607Y-130771503D01*
X150595403Y-130802480D01*
X150596493Y-130803063D01*
X150596653Y-130803221D01*
X150599629Y-130804662D01*
X150601637Y-130805660D01*
X150605403Y-130806722D01*
X150634146Y-130816061D01*
X150705135Y-130839126D01*
X150705136Y-130839127D01*
X150730029Y-130847215D01*
X150795465Y-130868477D01*
X150874746Y-130881034D01*
X150997648Y-130900500D01*
X150997649Y-130900500D01*
X151202351Y-130900500D01*
X151202352Y-130900500D01*
X151404534Y-130868477D01*
X151545373Y-130822714D01*
X151580146Y-130816697D01*
X151602407Y-130816061D01*
X151659063Y-130827963D01*
X151663103Y-130829878D01*
X151682864Y-130841603D01*
X151701611Y-130855224D01*
X151737139Y-130881037D01*
X151737156Y-130881047D01*
X151737486Y-130881214D01*
X151775879Y-130900776D01*
X151775880Y-130900776D01*
X151919526Y-130973968D01*
X151919527Y-130973968D01*
X151920401Y-130974413D01*
X151924152Y-130975472D01*
X151981559Y-130994124D01*
X152018212Y-131006033D01*
X152018213Y-131006034D01*
X152064419Y-131021047D01*
X152114215Y-131037227D01*
X152215307Y-131053238D01*
X152316398Y-131069250D01*
X152316399Y-131069250D01*
X152521101Y-131069250D01*
X152521102Y-131069250D01*
X152723284Y-131037227D01*
X152723287Y-131037226D01*
X152723288Y-131037226D01*
X152862284Y-130992063D01*
X152917969Y-130973970D01*
X152922565Y-130971627D01*
X152955976Y-130960242D01*
X152972749Y-130957092D01*
X153039796Y-130963091D01*
X153052233Y-130967831D01*
X153080956Y-130983381D01*
X153092905Y-130992062D01*
X153112140Y-131006037D01*
X153173352Y-131037226D01*
X153173354Y-131037227D01*
X153288079Y-131095683D01*
X153288078Y-131095683D01*
X153295399Y-131099413D01*
X153299155Y-131100472D01*
X153335517Y-131112287D01*
X153489215Y-131162227D01*
X153590307Y-131178238D01*
X153691398Y-131194250D01*
X153691399Y-131194250D01*
X153896101Y-131194250D01*
X153896102Y-131194250D01*
X154098284Y-131162227D01*
X154292969Y-131098970D01*
X154475360Y-131006037D01*
X154519870Y-130973699D01*
X154620046Y-130900918D01*
X154620080Y-130900892D01*
X154620241Y-130900776D01*
X154640963Y-130885721D01*
X154640965Y-130885718D01*
X154640969Y-130885716D01*
X154640971Y-130885713D01*
X154641023Y-130885676D01*
X154641765Y-130884919D01*
X154674248Y-130852436D01*
X154702497Y-130831289D01*
X154716217Y-130823797D01*
X154784487Y-130808944D01*
X154785789Y-130809037D01*
X154794869Y-130809686D01*
X154842319Y-130822884D01*
X154905781Y-130855220D01*
X154905784Y-130855221D01*
X154905790Y-130855224D01*
X155022623Y-130893184D01*
X155062701Y-130906206D01*
X155100465Y-130918477D01*
X155201557Y-130934488D01*
X155302648Y-130950500D01*
X155302649Y-130950500D01*
X155507351Y-130950500D01*
X155507352Y-130950500D01*
X155709534Y-130918477D01*
X155904219Y-130855220D01*
X156086610Y-130762287D01*
X156171653Y-130700500D01*
X156197652Y-130681611D01*
X156197652Y-130681610D01*
X156197653Y-130681610D01*
X156252213Y-130641971D01*
X156252215Y-130641968D01*
X156252219Y-130641966D01*
X156252222Y-130641963D01*
X156252274Y-130641925D01*
X156253032Y-130641152D01*
X156396966Y-130497219D01*
X156396968Y-130497215D01*
X156396971Y-130497213D01*
X156461762Y-130408034D01*
X156517287Y-130331610D01*
X156560288Y-130247215D01*
X156610218Y-130149223D01*
X156610218Y-130149222D01*
X156610220Y-130149219D01*
X156673477Y-129954534D01*
X156705500Y-129752352D01*
X156705500Y-129547648D01*
X156673477Y-129345466D01*
X156664679Y-129318390D01*
X156611722Y-129155406D01*
X156610659Y-129151637D01*
X156609645Y-129149596D01*
X156607868Y-129145926D01*
X156606932Y-129144327D01*
X156576503Y-129084606D01*
X156576503Y-129084607D01*
X156517287Y-128968390D01*
X156468164Y-128900777D01*
X156458676Y-128887717D01*
X156458673Y-128887714D01*
X156458673Y-128887713D01*
X156396971Y-128802786D01*
X156252213Y-128658028D01*
X156205027Y-128623746D01*
X156097202Y-128545408D01*
X156097199Y-128545406D01*
X156086613Y-128537715D01*
X156086612Y-128537714D01*
X156086610Y-128537713D01*
X156080535Y-128534617D01*
X156080531Y-128534615D01*
X155988480Y-128487713D01*
X155988480Y-128487712D01*
X155988478Y-128487712D01*
X155904228Y-128444783D01*
X155904221Y-128444780D01*
X155791104Y-128408026D01*
X155709534Y-128381522D01*
X155709532Y-128381521D01*
X155709530Y-128381521D01*
X155709529Y-128381520D01*
X155528068Y-128352781D01*
X155528067Y-128352781D01*
X155507352Y-128349500D01*
X155507351Y-128349500D01*
X155302649Y-128349500D01*
X155302648Y-128349500D01*
X155281933Y-128352781D01*
X155281932Y-128352781D01*
X155100469Y-128381520D01*
X155100468Y-128381521D01*
X154905777Y-128444780D01*
X154905764Y-128444786D01*
X154723387Y-128537713D01*
X154723386Y-128537714D01*
X154557781Y-128658032D01*
X154557761Y-128658050D01*
X154524504Y-128691308D01*
X154496248Y-128712460D01*
X154482527Y-128719952D01*
X154414254Y-128734803D01*
X154414253Y-128734803D01*
X154403868Y-128734060D01*
X154356421Y-128720860D01*
X154292978Y-128688533D01*
X154292971Y-128688530D01*
X154188066Y-128654444D01*
X154098284Y-128625272D01*
X154098282Y-128625271D01*
X154098280Y-128625271D01*
X154098279Y-128625270D01*
X153923745Y-128597628D01*
X153907159Y-128595001D01*
X153896104Y-128593250D01*
X153896102Y-128593250D01*
X153691398Y-128593250D01*
X153691394Y-128593250D01*
X153637482Y-128601789D01*
X153624004Y-128603924D01*
X153598087Y-128608029D01*
X153498855Y-128623746D01*
X153498847Y-128623746D01*
X153498848Y-128623747D01*
X153489209Y-128625273D01*
X153388371Y-128658038D01*
X153294533Y-128688528D01*
X153294531Y-128688528D01*
X153294531Y-128688529D01*
X153294522Y-128688532D01*
X153289923Y-128690876D01*
X153256522Y-128702257D01*
X153239749Y-128705407D01*
X153172696Y-128699406D01*
X153160258Y-128694665D01*
X153131540Y-128679116D01*
X153100361Y-128656463D01*
X153100339Y-128656450D01*
X153099985Y-128656272D01*
X153036150Y-128623746D01*
X152917973Y-128563531D01*
X152723284Y-128500272D01*
X152723282Y-128500271D01*
X152723280Y-128500271D01*
X152723279Y-128500270D01*
X152548745Y-128472628D01*
X152532159Y-128470001D01*
X152521104Y-128468250D01*
X152521102Y-128468250D01*
X152316398Y-128468250D01*
X152258376Y-128477440D01*
X152123855Y-128498746D01*
X152123847Y-128498746D01*
X152123848Y-128498747D01*
X152114209Y-128500273D01*
X151973378Y-128546033D01*
X151938599Y-128552051D01*
X151919275Y-128552603D01*
X151916336Y-128552687D01*
X151859692Y-128540789D01*
X151855660Y-128538878D01*
X151835883Y-128527144D01*
X151781609Y-128487712D01*
X151781608Y-128487711D01*
X151743416Y-128468251D01*
X151743412Y-128468250D01*
X151599223Y-128394781D01*
X151404534Y-128331522D01*
X151404532Y-128331521D01*
X151404530Y-128331521D01*
X151404529Y-128331520D01*
X151229995Y-128303878D01*
X151213409Y-128301251D01*
X151202354Y-128299500D01*
X151202352Y-128299500D01*
X150997648Y-128299500D01*
X150997647Y-128299500D01*
X150973327Y-128303351D01*
X150973326Y-128303350D01*
X150795468Y-128331521D01*
X150600777Y-128394780D01*
X150600764Y-128394786D01*
X150418397Y-128487708D01*
X150418385Y-128487715D01*
X150252787Y-128608027D01*
X150252784Y-128608029D01*
X150252782Y-128608032D01*
X150198565Y-128662249D01*
X150150285Y-128710529D01*
X150122027Y-128731681D01*
X150108309Y-128739171D01*
X150040051Y-128754022D01*
X150038245Y-128753893D01*
X149980044Y-128734525D01*
X149973529Y-128730338D01*
X149952893Y-128713708D01*
X149897211Y-128658026D01*
X149742202Y-128545408D01*
X149742199Y-128545406D01*
X149731613Y-128537715D01*
X149731612Y-128537714D01*
X149731610Y-128537713D01*
X149725535Y-128534617D01*
X149725531Y-128534615D01*
X149633480Y-128487713D01*
X149633480Y-128487712D01*
X149633478Y-128487712D01*
X149549228Y-128444783D01*
X149549221Y-128444780D01*
X149436104Y-128408026D01*
X149354534Y-128381522D01*
X149354532Y-128381521D01*
X149354530Y-128381521D01*
X149354529Y-128381520D01*
X149173068Y-128352781D01*
X149173067Y-128352781D01*
X149152352Y-128349500D01*
X149152351Y-128349500D01*
X148947649Y-128349500D01*
X148947648Y-128349500D01*
X148926933Y-128352781D01*
X148926932Y-128352781D01*
X148745469Y-128381520D01*
X148745468Y-128381521D01*
X148550777Y-128444780D01*
X148550764Y-128444786D01*
X148368397Y-128537708D01*
X148368385Y-128537715D01*
X148202787Y-128658027D01*
X148202784Y-128658029D01*
X148058029Y-128802784D01*
X148058027Y-128802787D01*
X147937715Y-128968385D01*
X147937708Y-128968397D01*
X147844786Y-129150764D01*
X147844780Y-129150777D01*
X147781521Y-129345468D01*
X147749500Y-129547642D01*
X129735827Y-129547642D01*
X129743000Y-129502352D01*
X129743000Y-129297648D01*
X129710977Y-129095466D01*
X129701204Y-129065389D01*
X129647718Y-128900776D01*
X129593710Y-128794781D01*
X129554787Y-128718390D01*
X129551385Y-128713708D01*
X129533289Y-128688800D01*
X129434472Y-128552787D01*
X129289711Y-128408026D01*
X129134702Y-128295408D01*
X129134699Y-128295406D01*
X129124113Y-128287715D01*
X129124112Y-128287714D01*
X129124110Y-128287713D01*
X129050512Y-128250213D01*
X129050512Y-128250212D01*
X129050510Y-128250212D01*
X128941728Y-128194783D01*
X128941721Y-128194780D01*
X128796575Y-128147619D01*
X128747034Y-128131522D01*
X128747032Y-128131521D01*
X128747030Y-128131521D01*
X128747029Y-128131520D01*
X128572495Y-128103878D01*
X128555909Y-128101251D01*
X128544854Y-128099500D01*
X128544852Y-128099500D01*
X128340148Y-128099500D01*
X128340147Y-128099500D01*
X128315827Y-128103351D01*
X128315826Y-128103350D01*
X128137968Y-128131521D01*
X128098273Y-128144419D01*
X127943276Y-128194781D01*
X127927566Y-128202786D01*
X127760892Y-128287711D01*
X127760885Y-128287715D01*
X127715613Y-128320606D01*
X127684400Y-128337075D01*
X127669677Y-128342328D01*
X127599921Y-128346316D01*
X127589777Y-128343957D01*
X127544981Y-128323499D01*
X127444109Y-128250212D01*
X127261723Y-128157281D01*
X127067034Y-128094022D01*
X127067032Y-128094021D01*
X127067030Y-128094021D01*
X127067029Y-128094020D01*
X126892495Y-128066378D01*
X126875909Y-128063751D01*
X126864854Y-128062000D01*
X126864852Y-128062000D01*
X126660148Y-128062000D01*
X126660144Y-128062000D01*
X126606232Y-128070539D01*
X126592754Y-128072674D01*
X126497791Y-128087715D01*
X126467605Y-128092496D01*
X126467597Y-128092496D01*
X126467598Y-128092497D01*
X126457959Y-128094023D01*
X126263276Y-128157280D01*
X126215936Y-128181402D01*
X126182525Y-128192787D01*
X126158112Y-128197371D01*
X126105005Y-128195761D01*
X126096884Y-128193720D01*
X126088790Y-128191391D01*
X126058047Y-128181402D01*
X125904536Y-128131523D01*
X125904534Y-128131522D01*
X125904532Y-128131522D01*
X125769746Y-128110174D01*
X125756267Y-128108039D01*
X125702356Y-128099500D01*
X125702352Y-128099500D01*
X125497648Y-128099500D01*
X125497645Y-128099500D01*
X125459035Y-128105615D01*
X125459030Y-128105615D01*
X125457211Y-128105904D01*
X125295462Y-128131523D01*
X125258872Y-128143411D01*
X125251092Y-128144881D01*
X125246442Y-128144419D01*
X125231625Y-128146983D01*
X125212201Y-128147537D01*
X125209360Y-128147619D01*
X125152728Y-128135726D01*
X125148697Y-128133816D01*
X125128907Y-128122076D01*
X125081614Y-128087715D01*
X125075152Y-128084422D01*
X124899223Y-127994781D01*
X124704534Y-127931522D01*
X124704532Y-127931521D01*
X124704530Y-127931521D01*
X124704529Y-127931520D01*
X124529995Y-127903878D01*
X124513409Y-127901251D01*
X124502354Y-127899500D01*
X124502352Y-127899500D01*
X124297648Y-127899500D01*
X124297647Y-127899500D01*
X124273327Y-127903351D01*
X124273326Y-127903350D01*
X124095468Y-127931521D01*
X123900777Y-127994780D01*
X123900764Y-127994786D01*
X123718397Y-128087708D01*
X123718385Y-128087715D01*
X123552787Y-128208027D01*
X123552784Y-128208029D01*
X123408033Y-128352781D01*
X123408028Y-128352785D01*
X123358942Y-128420349D01*
X123334342Y-128445662D01*
X123323351Y-128454137D01*
X123258241Y-128479485D01*
X123189763Y-128465609D01*
X123189742Y-128465597D01*
X123186787Y-128464037D01*
X123144883Y-128427981D01*
X123143712Y-128426394D01*
X123133026Y-128409094D01*
X123125736Y-128394786D01*
X123112287Y-128368390D01*
X123112285Y-128368387D01*
X123112284Y-128368385D01*
X123111934Y-128367904D01*
X123111933Y-128367901D01*
X122991974Y-128202789D01*
X122847211Y-128058026D01*
X122692202Y-127945408D01*
X122692199Y-127945406D01*
X122681613Y-127937715D01*
X122681612Y-127937714D01*
X122681610Y-127937713D01*
X122606613Y-127899500D01*
X122606613Y-127899499D01*
X122606611Y-127899499D01*
X122499228Y-127844783D01*
X122499221Y-127844780D01*
X122394316Y-127810694D01*
X122304534Y-127781522D01*
X122304532Y-127781521D01*
X122304530Y-127781521D01*
X122304529Y-127781520D01*
X122129995Y-127753878D01*
X122113409Y-127751251D01*
X122102354Y-127749500D01*
X122102352Y-127749500D01*
X121897648Y-127749500D01*
X121897647Y-127749500D01*
X121873327Y-127753351D01*
X121873326Y-127753350D01*
X121695468Y-127781521D01*
X121500777Y-127844780D01*
X121500764Y-127844786D01*
X121318397Y-127937708D01*
X121318385Y-127937715D01*
X121152787Y-128058027D01*
X121152784Y-128058029D01*
X121008029Y-128202784D01*
X121008027Y-128202787D01*
X120887715Y-128368385D01*
X120887708Y-128368397D01*
X120794786Y-128550764D01*
X120794780Y-128550777D01*
X120731521Y-128745468D01*
X120699500Y-128947642D01*
X119314097Y-128947642D01*
X119238180Y-128892486D01*
X119237384Y-128891875D01*
X119231603Y-128887707D01*
X119231239Y-128887524D01*
X119127392Y-128834611D01*
X119127392Y-128834610D01*
X119127390Y-128834610D01*
X119049228Y-128794783D01*
X119049221Y-128794780D01*
X118923384Y-128753893D01*
X118854534Y-128731522D01*
X118854532Y-128731521D01*
X118854530Y-128731521D01*
X118854529Y-128731520D01*
X118679995Y-128703878D01*
X118663409Y-128701251D01*
X118652354Y-128699500D01*
X118652352Y-128699500D01*
X118447648Y-128699500D01*
X118447647Y-128699500D01*
X118423327Y-128703351D01*
X118423326Y-128703350D01*
X118245468Y-128731521D01*
X118050777Y-128794780D01*
X118050764Y-128794786D01*
X117868397Y-128887708D01*
X117868388Y-128887713D01*
X117868386Y-128887715D01*
X117785902Y-128947642D01*
X117702787Y-129008027D01*
X117702784Y-129008029D01*
X117558029Y-129152784D01*
X117558027Y-129152787D01*
X117437715Y-129318385D01*
X117437714Y-129318387D01*
X117344782Y-129500775D01*
X117281523Y-129695466D01*
X117281521Y-129695472D01*
X117280822Y-129699888D01*
X117270395Y-129733602D01*
X117257036Y-129761779D01*
X117232672Y-129796338D01*
X115003439Y-132025573D01*
X114975188Y-132046722D01*
X114952100Y-132059330D01*
X114892670Y-132074500D01*
X111635012Y-132074500D01*
X111600071Y-132069475D01*
X111585072Y-132065070D01*
X111526350Y-132027355D01*
X111525151Y-132025973D01*
X111497655Y-131971098D01*
X111496011Y-131963553D01*
X111493175Y-131937246D01*
X111493156Y-131899223D01*
X111488000Y-121477450D01*
X111507651Y-121410403D01*
X111560433Y-121364622D01*
X111612011Y-121353391D01*
X160194805Y-121359197D01*
X160194824Y-121359196D01*
X160194827Y-121359196D01*
X160214630Y-121358135D01*
X160302356Y-121353441D01*
X160302365Y-121353440D01*
X160302367Y-121353440D01*
X160308170Y-121352816D01*
X160328729Y-121350607D01*
X160515673Y-121312307D01*
X160703184Y-121233369D01*
X160764507Y-121199884D01*
X160835940Y-121156943D01*
X160993616Y-121028375D01*
X161085821Y-120936168D01*
X161147144Y-120902683D01*
X161173491Y-120899849D01*
X162623995Y-120899785D01*
X162612517Y-106716966D01*
X163394500Y-106716966D01*
X163394500Y-108733028D01*
X163394501Y-108733034D01*
X163394538Y-108733453D01*
X163394538Y-108733496D01*
X163394835Y-108737089D01*
X163394921Y-108737760D01*
X163405113Y-108852416D01*
X163461090Y-109048048D01*
X163461284Y-109048629D01*
X163462201Y-109050209D01*
X163462669Y-109051070D01*
X163555302Y-109228407D01*
X163555304Y-109228409D01*
X163566594Y-109242255D01*
X163566595Y-109242257D01*
X163683887Y-109386106D01*
X163683888Y-109386107D01*
X163683890Y-109386109D01*
X163777803Y-109462684D01*
X163841593Y-109514698D01*
X164021951Y-109608909D01*
X164217582Y-109664886D01*
X164336963Y-109675500D01*
X166353036Y-109675499D01*
X166472418Y-109664886D01*
X166668049Y-109608909D01*
X166848407Y-109514698D01*
X167006109Y-109386109D01*
X167134698Y-109228407D01*
X167228909Y-109048049D01*
X167284886Y-108852418D01*
X167295500Y-108733037D01*
X167295499Y-107416966D01*
X178044500Y-107416966D01*
X178044500Y-109433028D01*
X178044501Y-109433034D01*
X178044538Y-109433453D01*
X178044538Y-109433496D01*
X178044835Y-109437089D01*
X178044921Y-109437760D01*
X178055113Y-109552416D01*
X178111090Y-109748048D01*
X178111284Y-109748629D01*
X178112201Y-109750209D01*
X178112669Y-109751070D01*
X178205302Y-109928407D01*
X178205304Y-109928409D01*
X178216594Y-109942255D01*
X178216595Y-109942257D01*
X178333887Y-110086106D01*
X178333888Y-110086107D01*
X178333890Y-110086109D01*
X178427803Y-110162684D01*
X178491593Y-110214698D01*
X178671951Y-110308909D01*
X178867582Y-110364886D01*
X178986963Y-110375500D01*
X181003036Y-110375499D01*
X181122418Y-110364886D01*
X181318049Y-110308909D01*
X181498407Y-110214698D01*
X181656109Y-110086109D01*
X181784698Y-109928407D01*
X181878909Y-109748049D01*
X181934886Y-109552418D01*
X181945500Y-109433037D01*
X181945499Y-107416964D01*
X181934886Y-107297582D01*
X181878909Y-107101951D01*
X181784698Y-106921593D01*
X181732684Y-106857803D01*
X181656109Y-106763890D01*
X181656107Y-106763888D01*
X181656106Y-106763887D01*
X181562807Y-106687813D01*
X181550704Y-106670167D01*
X181498404Y-106635300D01*
X181331933Y-106548343D01*
X181331931Y-106548342D01*
X181318049Y-106541091D01*
X181318048Y-106541090D01*
X181318045Y-106541089D01*
X181200829Y-106507550D01*
X181199492Y-106507167D01*
X181199481Y-106507164D01*
X181124981Y-106485847D01*
X181122825Y-106485179D01*
X181120347Y-106484777D01*
X181116936Y-106484626D01*
X181107628Y-106483798D01*
X181056102Y-106479217D01*
X181056101Y-106479216D01*
X181003039Y-106474500D01*
X181003037Y-106474500D01*
X181003032Y-106474500D01*
X178986971Y-106474500D01*
X178986965Y-106474500D01*
X178974897Y-106474500D01*
X178968042Y-106476182D01*
X178867582Y-106485113D01*
X178671952Y-106541089D01*
X178581771Y-106588194D01*
X178581772Y-106588195D01*
X178499043Y-106631409D01*
X178499034Y-106631415D01*
X178491593Y-106635302D01*
X178491591Y-106635303D01*
X178491590Y-106635304D01*
X178482627Y-106642611D01*
X178482620Y-106642617D01*
X178333887Y-106763892D01*
X178205306Y-106921586D01*
X178111088Y-107101955D01*
X178060503Y-107278745D01*
X178060502Y-107278748D01*
X178055114Y-107297583D01*
X178055113Y-107297586D01*
X178044500Y-107416966D01*
X167295499Y-107416966D01*
X167295499Y-106716964D01*
X167284886Y-106597582D01*
X167228909Y-106401951D01*
X167134698Y-106221593D01*
X167134695Y-106221590D01*
X167134694Y-106221587D01*
X167074067Y-106147234D01*
X167074064Y-106147231D01*
X167069771Y-106141966D01*
X167006109Y-106063890D01*
X166908324Y-105984158D01*
X166904200Y-105980100D01*
X166897471Y-105968011D01*
X166848404Y-105935300D01*
X166681933Y-105848343D01*
X166681931Y-105848342D01*
X166668049Y-105841091D01*
X166668048Y-105841090D01*
X166668045Y-105841089D01*
X166550829Y-105807550D01*
X166549492Y-105807167D01*
X166549481Y-105807164D01*
X166474981Y-105785847D01*
X166472825Y-105785179D01*
X166470347Y-105784777D01*
X166466936Y-105784626D01*
X166457628Y-105783798D01*
X166406102Y-105779217D01*
X166406101Y-105779216D01*
X166353039Y-105774500D01*
X166353037Y-105774500D01*
X166353032Y-105774500D01*
X164336971Y-105774500D01*
X164336965Y-105774500D01*
X164324897Y-105774500D01*
X164318042Y-105776182D01*
X164217582Y-105785113D01*
X164021954Y-105841089D01*
X163947041Y-105880220D01*
X163849005Y-105931429D01*
X163848996Y-105931434D01*
X163841593Y-105935302D01*
X163841591Y-105935303D01*
X163841590Y-105935304D01*
X163832641Y-105942600D01*
X163832632Y-105942607D01*
X163683887Y-106063892D01*
X163555305Y-106221587D01*
X163555303Y-106221590D01*
X163555300Y-106221596D01*
X163555299Y-106221597D01*
X163512324Y-106303866D01*
X163512325Y-106303867D01*
X163461089Y-106401954D01*
X163410503Y-106578745D01*
X163410502Y-106578748D01*
X163405114Y-106597583D01*
X163405113Y-106597586D01*
X163394500Y-106716966D01*
X162612517Y-106716966D01*
X162600711Y-92127806D01*
X168662100Y-92127806D01*
X168662100Y-92362191D01*
X168687579Y-92555714D01*
X168692692Y-92594549D01*
X168692692Y-92594550D01*
X168692727Y-92594811D01*
X168693263Y-92596678D01*
X168753351Y-92820933D01*
X168753354Y-92820943D01*
X168843030Y-93037440D01*
X168843036Y-93037454D01*
X168843044Y-93037471D01*
X168960221Y-93240426D01*
X168960232Y-93240442D01*
X168960240Y-93240452D01*
X169102893Y-93426363D01*
X169102897Y-93426368D01*
X169102900Y-93426371D01*
X169102906Y-93426378D01*
X169268620Y-93592092D01*
X169268627Y-93592098D01*
X169268630Y-93592100D01*
X169268634Y-93592104D01*
X169325539Y-93635768D01*
X169350195Y-93661017D01*
X169358381Y-93672228D01*
X169382018Y-93737977D01*
X169366357Y-93806066D01*
X169366353Y-93806073D01*
X169366352Y-93806076D01*
X169362189Y-93813488D01*
X169329562Y-93851140D01*
X169268645Y-93897883D01*
X169268618Y-93897905D01*
X169268611Y-93897911D01*
X169102914Y-94063609D01*
X169102907Y-94063617D01*
X169102893Y-94063632D01*
X168960240Y-94249543D01*
X168960230Y-94249557D01*
X168960218Y-94249574D01*
X168843041Y-94452530D01*
X168843030Y-94452555D01*
X168753354Y-94669052D01*
X168753351Y-94669062D01*
X168692693Y-94895445D01*
X168692692Y-94895449D01*
X168692690Y-94895459D01*
X168692688Y-94895475D01*
X168662100Y-95127805D01*
X168662100Y-95362190D01*
X168687579Y-95555713D01*
X168692692Y-95594548D01*
X168692692Y-95594549D01*
X168692727Y-95594810D01*
X168693263Y-95596677D01*
X168753351Y-95820932D01*
X168753354Y-95820942D01*
X168843030Y-96037439D01*
X168843041Y-96037464D01*
X168960220Y-96240425D01*
X168960443Y-96240759D01*
X168961452Y-96242031D01*
X169086783Y-96405367D01*
X169104064Y-96436137D01*
X169109701Y-96450717D01*
X169115516Y-96520344D01*
X169115513Y-96520356D01*
X169113731Y-96529041D01*
X169090638Y-96579604D01*
X168960240Y-96749543D01*
X168960230Y-96749557D01*
X168960218Y-96749574D01*
X168843041Y-96952530D01*
X168843030Y-96952555D01*
X168753354Y-97169052D01*
X168753351Y-97169062D01*
X168692693Y-97395445D01*
X168692692Y-97395449D01*
X168692690Y-97395459D01*
X168692688Y-97395475D01*
X168662100Y-97627805D01*
X168662100Y-97862190D01*
X168687579Y-98055713D01*
X168692692Y-98094548D01*
X168692692Y-98094549D01*
X168692727Y-98094810D01*
X168693263Y-98096677D01*
X168753351Y-98320932D01*
X168753354Y-98320942D01*
X168843030Y-98537439D01*
X168843041Y-98537464D01*
X168960220Y-98740425D01*
X168960443Y-98740759D01*
X168961452Y-98742031D01*
X169102893Y-98926362D01*
X169102897Y-98926367D01*
X169102900Y-98926370D01*
X169102906Y-98926377D01*
X169102914Y-98926385D01*
X169268613Y-99092085D01*
X169268672Y-99092136D01*
X169269121Y-99092477D01*
X169325541Y-99135769D01*
X169350195Y-99161015D01*
X169354077Y-99166332D01*
X169358380Y-99172224D01*
X169382020Y-99237972D01*
X169366361Y-99306064D01*
X169366355Y-99306075D01*
X169362191Y-99313489D01*
X169329562Y-99351143D01*
X169268621Y-99397904D01*
X169268615Y-99397909D01*
X169102914Y-99563611D01*
X169102907Y-99563619D01*
X169102893Y-99563634D01*
X168960240Y-99749545D01*
X168960230Y-99749559D01*
X168960218Y-99749576D01*
X168843041Y-99952532D01*
X168843030Y-99952557D01*
X168753354Y-100169054D01*
X168753351Y-100169064D01*
X168692693Y-100395447D01*
X168692692Y-100395451D01*
X168692690Y-100395461D01*
X168692688Y-100395477D01*
X168662100Y-100627807D01*
X168662100Y-100862192D01*
X168687579Y-101055715D01*
X168692692Y-101094550D01*
X168692692Y-101094551D01*
X168692727Y-101094812D01*
X168693263Y-101096679D01*
X168753351Y-101320934D01*
X168753354Y-101320944D01*
X168843030Y-101537441D01*
X168843036Y-101537455D01*
X168843044Y-101537472D01*
X168960221Y-101740427D01*
X168960232Y-101740443D01*
X168960240Y-101740453D01*
X169102893Y-101926364D01*
X169102897Y-101926369D01*
X169102900Y-101926372D01*
X169102906Y-101926379D01*
X169102914Y-101926387D01*
X169268606Y-102092080D01*
X169268620Y-102092093D01*
X169268626Y-102092098D01*
X169454562Y-102234772D01*
X169454572Y-102234779D01*
X169454798Y-102234909D01*
X169654085Y-102349968D01*
X169656991Y-102351773D01*
X169659562Y-102352855D01*
X169663887Y-102354768D01*
X169666001Y-102355466D01*
X169726212Y-102380406D01*
X169874065Y-102441649D01*
X170100450Y-102502308D01*
X170332815Y-102532900D01*
X170332822Y-102532900D01*
X170567178Y-102532900D01*
X170567185Y-102532900D01*
X170799550Y-102502308D01*
X171025935Y-102441649D01*
X171242465Y-102351959D01*
X171445435Y-102234774D01*
X171610375Y-102108210D01*
X171641137Y-102090935D01*
X171655725Y-102085295D01*
X171725349Y-102079483D01*
X171734039Y-102081265D01*
X171784604Y-102104359D01*
X171915607Y-102204880D01*
X171954562Y-102234772D01*
X171954572Y-102234779D01*
X171954798Y-102234909D01*
X172154085Y-102349968D01*
X172156991Y-102351773D01*
X172159562Y-102352855D01*
X172163887Y-102354768D01*
X172166001Y-102355466D01*
X172226212Y-102380406D01*
X172374065Y-102441649D01*
X172600450Y-102502308D01*
X172832815Y-102532900D01*
X172832822Y-102532900D01*
X173067178Y-102532900D01*
X173067185Y-102532900D01*
X173299550Y-102502308D01*
X173525935Y-102441649D01*
X173742465Y-102351959D01*
X173945435Y-102234774D01*
X174110375Y-102108210D01*
X174141137Y-102090935D01*
X174155725Y-102085295D01*
X174225349Y-102079483D01*
X174234039Y-102081265D01*
X174284604Y-102104359D01*
X174415607Y-102204880D01*
X174454562Y-102234772D01*
X174454572Y-102234779D01*
X174454798Y-102234909D01*
X174654085Y-102349968D01*
X174656991Y-102351773D01*
X174659562Y-102352855D01*
X174663887Y-102354768D01*
X174666001Y-102355466D01*
X174726212Y-102380406D01*
X174874065Y-102441649D01*
X175100450Y-102502308D01*
X175332815Y-102532900D01*
X175332822Y-102532900D01*
X175567178Y-102532900D01*
X175567185Y-102532900D01*
X175799550Y-102502308D01*
X176025935Y-102441649D01*
X176242465Y-102351959D01*
X176445435Y-102234774D01*
X176610375Y-102108210D01*
X176641137Y-102090935D01*
X176655725Y-102085295D01*
X176725349Y-102079483D01*
X176734039Y-102081265D01*
X176784604Y-102104359D01*
X176915607Y-102204880D01*
X176954562Y-102234772D01*
X176954572Y-102234779D01*
X176954798Y-102234909D01*
X177154085Y-102349968D01*
X177156991Y-102351773D01*
X177159562Y-102352855D01*
X177163887Y-102354768D01*
X177166001Y-102355466D01*
X177226212Y-102380406D01*
X177374065Y-102441649D01*
X177600450Y-102502308D01*
X177832815Y-102532900D01*
X177832822Y-102532900D01*
X178067178Y-102532900D01*
X178067185Y-102532900D01*
X178299550Y-102502308D01*
X178525935Y-102441649D01*
X178742465Y-102351959D01*
X178945435Y-102234774D01*
X179110375Y-102108210D01*
X179141137Y-102090935D01*
X179155725Y-102085295D01*
X179225349Y-102079483D01*
X179234039Y-102081265D01*
X179284604Y-102104359D01*
X179415607Y-102204880D01*
X179454562Y-102234772D01*
X179454572Y-102234779D01*
X179454798Y-102234909D01*
X179654085Y-102349968D01*
X179656991Y-102351773D01*
X179659562Y-102352855D01*
X179663887Y-102354768D01*
X179666001Y-102355466D01*
X179726212Y-102380406D01*
X179874065Y-102441649D01*
X180100450Y-102502308D01*
X180332815Y-102532900D01*
X180332822Y-102532900D01*
X180567178Y-102532900D01*
X180567185Y-102532900D01*
X180799550Y-102502308D01*
X181025935Y-102441649D01*
X181242465Y-102351959D01*
X181445435Y-102234774D01*
X181631374Y-102092098D01*
X181797098Y-101926374D01*
X181939774Y-101740435D01*
X182056959Y-101537465D01*
X182146649Y-101320935D01*
X182207308Y-101094550D01*
X182237900Y-100862185D01*
X182237900Y-100627815D01*
X182207308Y-100395450D01*
X182146649Y-100169065D01*
X182056959Y-99952535D01*
X182056958Y-99952534D01*
X182056842Y-99952253D01*
X182056049Y-99950825D01*
X182054969Y-99949087D01*
X181939909Y-99749798D01*
X181939779Y-99749572D01*
X181939779Y-99749571D01*
X181797101Y-99563630D01*
X181797095Y-99563622D01*
X181797080Y-99563606D01*
X181631387Y-99397914D01*
X181631379Y-99397906D01*
X181631372Y-99397900D01*
X181631363Y-99397893D01*
X181631352Y-99397884D01*
X181574458Y-99354228D01*
X181549804Y-99328982D01*
X181541619Y-99317774D01*
X181517979Y-99252025D01*
X181533638Y-99183933D01*
X181537805Y-99176512D01*
X181570432Y-99138858D01*
X181631374Y-99092096D01*
X181797098Y-98926372D01*
X181939774Y-98740433D01*
X182056959Y-98537463D01*
X182146649Y-98320933D01*
X182207308Y-98094548D01*
X182237900Y-97862183D01*
X182237900Y-97627813D01*
X182207308Y-97395448D01*
X182146649Y-97169063D01*
X182056959Y-96952533D01*
X182056958Y-96952532D01*
X182056842Y-96952251D01*
X182056049Y-96950823D01*
X182054969Y-96949085D01*
X181943820Y-96756570D01*
X181943817Y-96756567D01*
X181939778Y-96749570D01*
X181939774Y-96749563D01*
X181813046Y-96584408D01*
X181812848Y-96584147D01*
X181812643Y-96583610D01*
X181795933Y-96553855D01*
X181790296Y-96539274D01*
X181788765Y-96520937D01*
X181787972Y-96518856D01*
X181788415Y-96516747D01*
X181784483Y-96469647D01*
X181786265Y-96460957D01*
X181809358Y-96410394D01*
X181821255Y-96394888D01*
X181821256Y-96394887D01*
X181939774Y-96240433D01*
X182056959Y-96037463D01*
X182146649Y-95820933D01*
X182207308Y-95594548D01*
X182237900Y-95362183D01*
X182237900Y-95127813D01*
X182207308Y-94895448D01*
X182146649Y-94669063D01*
X182056959Y-94452533D01*
X182056958Y-94452532D01*
X182056842Y-94452251D01*
X182056049Y-94450823D01*
X182054969Y-94449085D01*
X181939909Y-94249796D01*
X181939779Y-94249570D01*
X181939779Y-94249569D01*
X181898696Y-94196029D01*
X181797105Y-94063632D01*
X181797101Y-94063628D01*
X181797099Y-94063625D01*
X181797093Y-94063618D01*
X181631379Y-93897904D01*
X181631372Y-93897898D01*
X181631369Y-93897895D01*
X181631364Y-93897891D01*
X181574459Y-93854227D01*
X181549802Y-93828977D01*
X181541616Y-93817765D01*
X181517980Y-93752018D01*
X181533639Y-93683932D01*
X181537813Y-93676500D01*
X181570436Y-93638855D01*
X181631374Y-93592097D01*
X181797098Y-93426373D01*
X181939774Y-93240434D01*
X182056959Y-93037464D01*
X182146649Y-92820934D01*
X182207308Y-92594549D01*
X182237900Y-92362184D01*
X182237900Y-92127814D01*
X182207308Y-91895449D01*
X182146649Y-91669064D01*
X182056959Y-91452534D01*
X182056958Y-91452533D01*
X182056842Y-91452252D01*
X182056049Y-91450824D01*
X182054969Y-91449086D01*
X181939909Y-91249797D01*
X181939779Y-91249571D01*
X181939779Y-91249570D01*
X181797101Y-91063629D01*
X181797095Y-91063621D01*
X181797080Y-91063605D01*
X181631387Y-90897913D01*
X181631379Y-90897905D01*
X181631372Y-90897899D01*
X181631369Y-90897896D01*
X181631364Y-90897892D01*
X181449020Y-90757975D01*
X181449008Y-90757966D01*
X181445443Y-90755231D01*
X181445441Y-90755229D01*
X181445435Y-90755225D01*
X181445430Y-90755222D01*
X181445427Y-90755220D01*
X181443681Y-90754212D01*
X181443677Y-90754209D01*
X181327860Y-90687342D01*
X181242472Y-90638043D01*
X181242455Y-90638035D01*
X181242441Y-90638029D01*
X181025944Y-90548353D01*
X181025937Y-90548351D01*
X181025935Y-90548350D01*
X180799550Y-90487691D01*
X180760715Y-90482578D01*
X180760714Y-90482577D01*
X180567193Y-90457099D01*
X180567192Y-90457099D01*
X180567185Y-90457099D01*
X180332815Y-90457099D01*
X180332807Y-90457099D01*
X180332806Y-90457099D01*
X180111638Y-90486217D01*
X180111637Y-90486218D01*
X180100450Y-90487691D01*
X180100448Y-90487691D01*
X180100444Y-90487692D01*
X180004763Y-90513328D01*
X180004763Y-90513329D01*
X179947133Y-90528770D01*
X179874059Y-90548351D01*
X179657557Y-90638029D01*
X179657532Y-90638040D01*
X179454576Y-90755217D01*
X179454559Y-90755229D01*
X179454545Y-90755239D01*
X179289630Y-90881782D01*
X179258860Y-90899063D01*
X179244280Y-90904700D01*
X179174653Y-90910514D01*
X179174649Y-90910514D01*
X179174641Y-90910512D01*
X179165956Y-90908730D01*
X179115393Y-90885637D01*
X178947033Y-90756451D01*
X178945758Y-90755439D01*
X178945434Y-90755223D01*
X178805034Y-90674163D01*
X178742472Y-90638043D01*
X178742455Y-90638035D01*
X178742441Y-90638029D01*
X178525944Y-90548353D01*
X178525937Y-90548351D01*
X178525935Y-90548350D01*
X178299550Y-90487691D01*
X178260715Y-90482578D01*
X178260714Y-90482577D01*
X178067193Y-90457099D01*
X178067192Y-90457099D01*
X178067185Y-90457099D01*
X177832815Y-90457099D01*
X177832807Y-90457099D01*
X177832806Y-90457099D01*
X177611638Y-90486217D01*
X177611637Y-90486218D01*
X177600450Y-90487691D01*
X177600448Y-90487691D01*
X177600444Y-90487692D01*
X177504763Y-90513328D01*
X177504763Y-90513329D01*
X177447133Y-90528770D01*
X177374059Y-90548351D01*
X177157557Y-90638029D01*
X177157532Y-90638040D01*
X176954576Y-90755217D01*
X176954559Y-90755229D01*
X176954545Y-90755239D01*
X176789630Y-90881782D01*
X176758860Y-90899063D01*
X176744280Y-90904700D01*
X176674653Y-90910514D01*
X176674649Y-90910514D01*
X176674641Y-90910512D01*
X176665956Y-90908730D01*
X176615393Y-90885637D01*
X176447033Y-90756451D01*
X176445758Y-90755439D01*
X176445434Y-90755223D01*
X176305034Y-90674163D01*
X176242472Y-90638043D01*
X176242455Y-90638035D01*
X176242441Y-90638029D01*
X176025944Y-90548353D01*
X176025937Y-90548351D01*
X176025935Y-90548350D01*
X175799550Y-90487691D01*
X175760715Y-90482578D01*
X175760714Y-90482577D01*
X175567193Y-90457099D01*
X175567192Y-90457099D01*
X175567185Y-90457099D01*
X175332815Y-90457099D01*
X175332807Y-90457099D01*
X175332806Y-90457099D01*
X175111638Y-90486217D01*
X175111637Y-90486218D01*
X175100450Y-90487691D01*
X175100448Y-90487691D01*
X175100444Y-90487692D01*
X175004763Y-90513328D01*
X175004763Y-90513329D01*
X174947133Y-90528770D01*
X174874059Y-90548351D01*
X174657557Y-90638029D01*
X174657532Y-90638040D01*
X174454576Y-90755217D01*
X174454559Y-90755229D01*
X174454545Y-90755239D01*
X174289630Y-90881782D01*
X174258860Y-90899063D01*
X174244280Y-90904700D01*
X174174653Y-90910514D01*
X174174649Y-90910514D01*
X174174641Y-90910512D01*
X174165956Y-90908730D01*
X174115393Y-90885637D01*
X173947033Y-90756451D01*
X173945758Y-90755439D01*
X173945434Y-90755223D01*
X173805034Y-90674163D01*
X173742472Y-90638043D01*
X173742455Y-90638035D01*
X173742441Y-90638029D01*
X173525944Y-90548353D01*
X173525937Y-90548351D01*
X173525935Y-90548350D01*
X173299550Y-90487691D01*
X173260715Y-90482578D01*
X173260714Y-90482577D01*
X173067193Y-90457099D01*
X173067192Y-90457099D01*
X173067185Y-90457099D01*
X172832815Y-90457099D01*
X172832807Y-90457099D01*
X172832806Y-90457099D01*
X172611638Y-90486217D01*
X172611637Y-90486218D01*
X172600450Y-90487691D01*
X172600448Y-90487691D01*
X172600444Y-90487692D01*
X172504763Y-90513328D01*
X172504763Y-90513329D01*
X172447133Y-90528770D01*
X172374059Y-90548351D01*
X172157557Y-90638029D01*
X172157532Y-90638040D01*
X171954576Y-90755217D01*
X171954559Y-90755229D01*
X171954545Y-90755239D01*
X171789630Y-90881782D01*
X171758860Y-90899063D01*
X171744280Y-90904700D01*
X171674653Y-90910514D01*
X171674649Y-90910514D01*
X171674641Y-90910512D01*
X171665956Y-90908730D01*
X171615393Y-90885637D01*
X171447033Y-90756451D01*
X171445758Y-90755439D01*
X171445434Y-90755223D01*
X171305034Y-90674163D01*
X171242472Y-90638043D01*
X171242455Y-90638035D01*
X171242441Y-90638029D01*
X171025944Y-90548353D01*
X171025937Y-90548351D01*
X171025935Y-90548350D01*
X170799550Y-90487691D01*
X170760715Y-90482578D01*
X170760714Y-90482577D01*
X170567193Y-90457099D01*
X170567192Y-90457099D01*
X170567185Y-90457099D01*
X170332815Y-90457099D01*
X170332807Y-90457099D01*
X170332806Y-90457099D01*
X170111638Y-90486217D01*
X170111637Y-90486218D01*
X170100450Y-90487691D01*
X170100448Y-90487691D01*
X170100444Y-90487692D01*
X170004763Y-90513328D01*
X170004763Y-90513329D01*
X169947133Y-90528770D01*
X169874059Y-90548351D01*
X169657557Y-90638029D01*
X169657532Y-90638040D01*
X169454576Y-90755217D01*
X169454559Y-90755229D01*
X169454545Y-90755239D01*
X169268634Y-90897892D01*
X169268619Y-90897906D01*
X169268611Y-90897913D01*
X169102914Y-91063610D01*
X169102907Y-91063618D01*
X169102893Y-91063633D01*
X168960240Y-91249544D01*
X168960230Y-91249558D01*
X168960218Y-91249575D01*
X168843041Y-91452531D01*
X168843030Y-91452556D01*
X168753354Y-91669053D01*
X168753351Y-91669063D01*
X168692693Y-91895446D01*
X168692692Y-91895450D01*
X168692690Y-91895460D01*
X168692688Y-91895476D01*
X168662100Y-92127806D01*
X162600711Y-92127806D01*
X162591153Y-80316966D01*
X163394500Y-80316966D01*
X163394500Y-82333028D01*
X163394501Y-82333034D01*
X163394538Y-82333453D01*
X163394538Y-82333496D01*
X163394835Y-82337089D01*
X163394921Y-82337760D01*
X163405113Y-82452416D01*
X163461090Y-82648048D01*
X163461284Y-82648629D01*
X163462201Y-82650209D01*
X163462669Y-82651070D01*
X163555302Y-82828407D01*
X163555304Y-82828409D01*
X163566594Y-82842255D01*
X163566595Y-82842257D01*
X163683887Y-82986106D01*
X163683888Y-82986107D01*
X163683890Y-82986109D01*
X163765658Y-83052781D01*
X163841593Y-83114698D01*
X164021951Y-83208909D01*
X164217582Y-83264886D01*
X164336963Y-83275500D01*
X166353036Y-83275499D01*
X166472418Y-83264886D01*
X166668049Y-83208909D01*
X166848407Y-83114698D01*
X167006109Y-82986109D01*
X167134698Y-82828407D01*
X167228909Y-82648049D01*
X167284886Y-82452418D01*
X167295500Y-82333037D01*
X167295499Y-80416966D01*
X178194500Y-80416966D01*
X178194500Y-82433028D01*
X178194501Y-82433034D01*
X178194538Y-82433453D01*
X178194538Y-82433496D01*
X178194835Y-82437089D01*
X178194921Y-82437760D01*
X178205113Y-82552416D01*
X178261090Y-82748048D01*
X178261353Y-82748836D01*
X178263161Y-82752013D01*
X178355302Y-82928407D01*
X178389977Y-82970933D01*
X178456715Y-83052782D01*
X178483890Y-83086109D01*
X178573173Y-83158909D01*
X178641593Y-83214698D01*
X178821951Y-83308909D01*
X179017582Y-83364886D01*
X179136963Y-83375500D01*
X181153036Y-83375499D01*
X181272418Y-83364886D01*
X181468049Y-83308909D01*
X181648407Y-83214698D01*
X181806109Y-83086109D01*
X181934698Y-82928407D01*
X182028909Y-82748049D01*
X182084886Y-82552418D01*
X182095500Y-82433037D01*
X182095499Y-80416964D01*
X182084886Y-80297582D01*
X182028909Y-80101951D01*
X181934698Y-79921593D01*
X181853159Y-79821593D01*
X181806109Y-79763890D01*
X181708950Y-79684668D01*
X181705366Y-79681233D01*
X181697967Y-79668342D01*
X181648404Y-79635300D01*
X181481933Y-79548343D01*
X181481931Y-79548342D01*
X181468049Y-79541091D01*
X181468048Y-79541090D01*
X181468045Y-79541089D01*
X181350829Y-79507550D01*
X181349492Y-79507167D01*
X181349481Y-79507164D01*
X181274981Y-79485847D01*
X181272825Y-79485179D01*
X181270347Y-79484777D01*
X181266936Y-79484626D01*
X181257628Y-79483798D01*
X181206102Y-79479217D01*
X181206101Y-79479216D01*
X181153039Y-79474500D01*
X181153037Y-79474500D01*
X181153032Y-79474500D01*
X179136971Y-79474500D01*
X179136965Y-79474500D01*
X179124897Y-79474500D01*
X179118042Y-79476182D01*
X179017582Y-79485113D01*
X178821952Y-79541089D01*
X178731771Y-79588194D01*
X178731772Y-79588195D01*
X178649043Y-79631409D01*
X178649034Y-79631415D01*
X178641593Y-79635302D01*
X178641591Y-79635303D01*
X178641590Y-79635304D01*
X178632627Y-79642611D01*
X178632620Y-79642617D01*
X178483887Y-79763892D01*
X178355305Y-79921587D01*
X178355303Y-79921590D01*
X178355300Y-79921596D01*
X178355299Y-79921597D01*
X178313328Y-80001949D01*
X178313327Y-80001951D01*
X178261090Y-80101949D01*
X178261089Y-80101952D01*
X178210503Y-80278745D01*
X178210502Y-80278748D01*
X178205114Y-80297583D01*
X178205113Y-80297586D01*
X178194500Y-80416966D01*
X167295499Y-80416966D01*
X167295499Y-80316964D01*
X167284886Y-80197582D01*
X167228909Y-80001951D01*
X167134698Y-79821593D01*
X167087649Y-79763892D01*
X167082686Y-79757805D01*
X167082685Y-79757804D01*
X167082684Y-79757803D01*
X167006109Y-79663890D01*
X167006107Y-79663888D01*
X167006106Y-79663887D01*
X166890933Y-79569977D01*
X166848407Y-79535302D01*
X166840975Y-79531420D01*
X166681933Y-79448343D01*
X166681931Y-79448342D01*
X166668049Y-79441091D01*
X166668048Y-79441090D01*
X166668045Y-79441089D01*
X166550829Y-79407550D01*
X166549492Y-79407167D01*
X166549481Y-79407164D01*
X166474981Y-79385847D01*
X166472825Y-79385179D01*
X166470347Y-79384777D01*
X166466936Y-79384626D01*
X166457628Y-79383798D01*
X166406102Y-79379217D01*
X166406101Y-79379216D01*
X166353039Y-79374500D01*
X166353037Y-79374500D01*
X166353032Y-79374500D01*
X164336971Y-79374500D01*
X164336965Y-79374500D01*
X164324897Y-79374500D01*
X164318042Y-79376182D01*
X164217582Y-79385113D01*
X164021954Y-79441088D01*
X163937674Y-79485112D01*
X163937675Y-79485113D01*
X163849022Y-79531420D01*
X163849013Y-79531426D01*
X163841593Y-79535302D01*
X163841591Y-79535303D01*
X163841590Y-79535304D01*
X163832634Y-79542606D01*
X163832623Y-79542614D01*
X163683887Y-79663892D01*
X163555306Y-79821586D01*
X163461088Y-80001955D01*
X163410503Y-80178745D01*
X163410502Y-80178748D01*
X163405114Y-80197583D01*
X163405113Y-80197586D01*
X163394500Y-80316966D01*
X162591153Y-80316966D01*
X162576045Y-61648480D01*
X162576044Y-61648480D01*
X162576044Y-61648479D01*
X162576044Y-61648478D01*
X125293728Y-61649594D01*
X125258792Y-61644572D01*
X125228870Y-61635787D01*
X125190917Y-61617127D01*
X125129408Y-61572438D01*
X125104098Y-61547841D01*
X125085052Y-61523142D01*
X125065317Y-61485741D01*
X125005218Y-61300776D01*
X124971503Y-61234607D01*
X124912287Y-61118390D01*
X124900634Y-61102351D01*
X124791971Y-60952786D01*
X124647213Y-60808028D01*
X124481611Y-60687713D01*
X124481605Y-60687710D01*
X124481604Y-60687709D01*
X124480240Y-60687014D01*
X124478709Y-60685934D01*
X124477453Y-60685165D01*
X124477502Y-60685084D01*
X124451394Y-60666679D01*
X124428724Y-60645268D01*
X124403383Y-60611417D01*
X124399246Y-60603297D01*
X124399244Y-60603294D01*
X124399243Y-60603292D01*
X124399242Y-60603290D01*
X124399237Y-60603282D01*
X124278933Y-60437696D01*
X124134170Y-60292933D01*
X123979161Y-60180315D01*
X123979158Y-60180313D01*
X123968572Y-60172622D01*
X123968571Y-60172621D01*
X123968569Y-60172620D01*
X123908407Y-60141966D01*
X123908407Y-60141965D01*
X123908405Y-60141965D01*
X123786187Y-60079690D01*
X123786180Y-60079687D01*
X123681275Y-60045601D01*
X123591493Y-60016429D01*
X123591491Y-60016428D01*
X123591489Y-60016428D01*
X123591488Y-60016427D01*
X123416954Y-59988785D01*
X123400368Y-59986158D01*
X123389313Y-59984407D01*
X123389311Y-59984407D01*
X123184607Y-59984407D01*
X123184606Y-59984407D01*
X123160286Y-59988258D01*
X123160285Y-59988257D01*
X122982427Y-60016428D01*
X122787736Y-60079687D01*
X122787723Y-60079693D01*
X122605356Y-60172615D01*
X122605344Y-60172622D01*
X122439746Y-60292934D01*
X122439743Y-60292936D01*
X122439728Y-60292952D01*
X122439727Y-60292951D01*
X122407105Y-60325574D01*
X122378855Y-60346723D01*
X122355769Y-60359330D01*
X122296338Y-60374500D01*
X119161411Y-60374500D01*
X119126472Y-60369476D01*
X119105101Y-60363200D01*
X119054911Y-60334385D01*
X119051668Y-60331323D01*
X119036479Y-60314047D01*
X118991972Y-60252787D01*
X118847211Y-60108026D01*
X118692209Y-59995413D01*
X118692205Y-59995410D01*
X118681613Y-59987715D01*
X118681612Y-59987714D01*
X118681610Y-59987713D01*
X118644532Y-59968820D01*
X118624654Y-59958691D01*
X118624653Y-59958691D01*
X118499223Y-59894781D01*
X118304534Y-59831522D01*
X118304532Y-59831521D01*
X118304530Y-59831521D01*
X118304529Y-59831520D01*
X118134456Y-59804584D01*
X118134448Y-59804583D01*
X118129995Y-59803878D01*
X118102352Y-59799500D01*
X118102351Y-59799500D01*
X118074339Y-59799500D01*
X118069124Y-59799059D01*
X118064773Y-59797371D01*
X118044635Y-59794476D01*
X118023264Y-59788200D01*
X117973058Y-59759370D01*
X117969813Y-59756305D01*
X117954639Y-59739044D01*
X117891969Y-59652784D01*
X117747213Y-59508028D01*
X117747211Y-59508026D01*
X117592209Y-59395413D01*
X117592205Y-59395410D01*
X117581613Y-59387715D01*
X117581612Y-59387714D01*
X117581610Y-59387713D01*
X117535522Y-59364229D01*
X117524654Y-59358691D01*
X117524653Y-59358691D01*
X117399223Y-59294781D01*
X117204534Y-59231522D01*
X117204532Y-59231521D01*
X117204530Y-59231521D01*
X117204529Y-59231520D01*
X117029995Y-59203878D01*
X117013409Y-59201251D01*
X117002354Y-59199500D01*
X117002352Y-59199500D01*
X116797648Y-59199500D01*
X116797647Y-59199500D01*
X116773327Y-59203351D01*
X116773326Y-59203350D01*
X116595468Y-59231521D01*
X116400777Y-59294780D01*
X116400764Y-59294786D01*
X116218397Y-59387708D01*
X116218385Y-59387715D01*
X116052789Y-59508025D01*
X115908035Y-59652778D01*
X115908033Y-59652781D01*
X115908032Y-59652782D01*
X115908028Y-59652787D01*
X115804003Y-59795966D01*
X115784219Y-59817368D01*
X115762515Y-59835906D01*
X115738277Y-59852101D01*
X115710335Y-59866339D01*
X115668391Y-59887711D01*
X115668388Y-59887712D01*
X115668388Y-59887713D01*
X115658660Y-59894781D01*
X115502783Y-60008030D01*
X115358029Y-60152784D01*
X115358027Y-60152787D01*
X115237715Y-60318385D01*
X115237708Y-60318397D01*
X115144786Y-60500764D01*
X115144780Y-60500777D01*
X115081521Y-60695468D01*
X115049500Y-60897642D01*
X115049500Y-61102354D01*
X115081521Y-61304530D01*
X115115199Y-61408178D01*
X115135491Y-61470629D01*
X115141509Y-61505409D01*
X115141905Y-61519279D01*
X115124142Y-61586853D01*
X115072666Y-61634096D01*
X115072664Y-61634097D01*
X115066391Y-61637181D01*
X115011687Y-61649902D01*
X111941833Y-61649995D01*
X111906895Y-61644972D01*
X111891896Y-61640568D01*
X111833118Y-61602794D01*
X111833109Y-61602784D01*
X111831923Y-61601415D01*
X111804477Y-61546575D01*
X111802833Y-61539016D01*
X111800000Y-61512663D01*
X111800000Y-56017329D01*
X111805023Y-55982393D01*
X111809427Y-55967395D01*
X111847172Y-55908644D01*
X111848541Y-55907457D01*
X111903420Y-55879977D01*
X111910979Y-55878333D01*
X111937332Y-55875500D01*
X128461013Y-55875500D01*
X128495940Y-55880521D01*
X128505476Y-55883320D01*
X128506203Y-55883534D01*
X128506793Y-55883707D01*
X128565574Y-55921477D01*
X128594603Y-55985031D01*
X128584664Y-56054190D01*
X128584654Y-56054212D01*
X128583368Y-56057027D01*
X128543469Y-56105817D01*
X128508236Y-56131417D01*
X128508232Y-56131419D01*
X128402783Y-56208030D01*
X128258029Y-56352784D01*
X128258027Y-56352787D01*
X128137715Y-56518385D01*
X128137708Y-56518397D01*
X128044786Y-56700764D01*
X128044780Y-56700777D01*
X127981521Y-56895468D01*
X127949500Y-57097642D01*
X127949500Y-57302356D01*
X127981521Y-57504530D01*
X128044780Y-57699221D01*
X128044783Y-57699228D01*
X128104075Y-57815592D01*
X128104075Y-57815594D01*
X128104076Y-57815594D01*
X128137671Y-57881529D01*
X128137706Y-57881596D01*
X128137715Y-57881613D01*
X128175576Y-57933725D01*
X128258026Y-58047211D01*
X128402787Y-58191972D01*
X128444421Y-58222220D01*
X128540420Y-58291966D01*
X128568390Y-58312287D01*
X128632059Y-58344728D01*
X128675713Y-58366971D01*
X128744329Y-58401933D01*
X128745929Y-58402870D01*
X128749624Y-58404660D01*
X128751637Y-58405660D01*
X128755405Y-58406723D01*
X128813811Y-58425699D01*
X128849462Y-58437283D01*
X128849463Y-58437284D01*
X128895669Y-58452297D01*
X128945465Y-58468477D01*
X129046557Y-58484488D01*
X129147648Y-58500500D01*
X129147649Y-58500500D01*
X129352351Y-58500500D01*
X129352352Y-58500500D01*
X129554534Y-58468477D01*
X129749219Y-58405220D01*
X129931610Y-58312287D01*
X130024586Y-58244736D01*
X130055578Y-58222220D01*
X130055579Y-58222219D01*
X130097170Y-58192002D01*
X130097213Y-58191971D01*
X130097213Y-58191970D01*
X130097270Y-58191929D01*
X130097984Y-58191200D01*
X130241966Y-58047219D01*
X130306036Y-57959032D01*
X130330622Y-57933732D01*
X130341621Y-57925250D01*
X130406724Y-57899902D01*
X130475200Y-57913774D01*
X130478155Y-57915333D01*
X130520081Y-57951396D01*
X130521248Y-57952978D01*
X130531943Y-57970289D01*
X130537710Y-57981607D01*
X130537712Y-57981610D01*
X130537713Y-57981611D01*
X130658028Y-58147213D01*
X130802786Y-58291971D01*
X130906010Y-58366966D01*
X130968390Y-58412287D01*
X131078490Y-58468386D01*
X131141517Y-58500500D01*
X131144329Y-58501933D01*
X131145929Y-58502870D01*
X131149624Y-58504660D01*
X131151637Y-58505660D01*
X131155406Y-58506723D01*
X131217604Y-58526932D01*
X131227717Y-58530218D01*
X131345465Y-58568477D01*
X131419607Y-58580220D01*
X131547648Y-58600500D01*
X131547649Y-58600500D01*
X131752351Y-58600500D01*
X131752352Y-58600500D01*
X131954534Y-58568477D01*
X132149219Y-58505220D01*
X132331610Y-58412287D01*
X132424590Y-58344732D01*
X132497213Y-58291971D01*
X132497213Y-58291969D01*
X132497272Y-58291927D01*
X132498031Y-58291153D01*
X132641966Y-58147219D01*
X132641967Y-58147217D01*
X132641972Y-58147212D01*
X132641981Y-58147199D01*
X132694730Y-58074593D01*
X132694732Y-58074591D01*
X132762284Y-57981614D01*
X132762283Y-57981614D01*
X132762287Y-57981610D01*
X132855220Y-57799219D01*
X132866395Y-57764822D01*
X132881966Y-57733153D01*
X132889799Y-57721697D01*
X132943887Y-57677467D01*
X133013291Y-57669499D01*
X133016581Y-57670068D01*
X133067606Y-57691411D01*
X133069209Y-57692558D01*
X133084733Y-57705720D01*
X134730634Y-59351621D01*
X134751786Y-59379876D01*
X134766732Y-59407248D01*
X134780372Y-59447274D01*
X134781521Y-59454533D01*
X134784217Y-59462939D01*
X134784393Y-59463367D01*
X134844781Y-59649221D01*
X134937671Y-59831529D01*
X134937706Y-59831596D01*
X134937715Y-59831613D01*
X134949684Y-59848087D01*
X135054219Y-59991971D01*
X135058028Y-59997213D01*
X135202786Y-60141971D01*
X135238777Y-60168119D01*
X135285315Y-60201931D01*
X135289843Y-60205220D01*
X135368390Y-60262287D01*
X135478490Y-60318386D01*
X135482349Y-60320352D01*
X135482352Y-60320354D01*
X135544329Y-60351933D01*
X135545929Y-60352870D01*
X135549624Y-60354660D01*
X135551635Y-60355659D01*
X135555405Y-60356722D01*
X135601397Y-60371666D01*
X135745465Y-60418477D01*
X135846557Y-60434488D01*
X135947648Y-60450500D01*
X135947649Y-60450500D01*
X136152351Y-60450500D01*
X136152352Y-60450500D01*
X136354534Y-60418477D01*
X136549219Y-60355220D01*
X136731610Y-60262287D01*
X136824590Y-60194732D01*
X136897213Y-60141971D01*
X136897213Y-60141969D01*
X136897272Y-60141927D01*
X136898031Y-60141153D01*
X137041966Y-59997219D01*
X137041968Y-59997215D01*
X137041971Y-59997213D01*
X137116391Y-59894781D01*
X137162287Y-59831610D01*
X137255220Y-59649219D01*
X137318477Y-59454534D01*
X137350500Y-59252352D01*
X137350500Y-59047648D01*
X137318477Y-58845466D01*
X137255220Y-58650781D01*
X137255218Y-58650778D01*
X137255218Y-58650776D01*
X137252990Y-58646404D01*
X137252676Y-58645598D01*
X137251930Y-58644323D01*
X137219266Y-58580218D01*
X137219265Y-58580217D01*
X137162287Y-58468390D01*
X137162283Y-58468385D01*
X137162282Y-58468382D01*
X137139691Y-58437288D01*
X137139690Y-58437287D01*
X137041971Y-58302786D01*
X136897213Y-58158028D01*
X136897211Y-58158026D01*
X136742202Y-58045408D01*
X136742199Y-58045406D01*
X136731613Y-58037715D01*
X136731612Y-58037714D01*
X136731610Y-58037713D01*
X136670563Y-58006608D01*
X136549223Y-57944781D01*
X136499343Y-57928574D01*
X136451876Y-57913151D01*
X136451875Y-57913150D01*
X136354537Y-57881523D01*
X136354533Y-57881522D01*
X136354532Y-57881522D01*
X136350113Y-57880822D01*
X136316400Y-57870396D01*
X136288221Y-57857037D01*
X136253659Y-57832672D01*
X134370775Y-55949788D01*
X134349626Y-55921538D01*
X134349593Y-55921477D01*
X134344204Y-55911608D01*
X134329351Y-55843338D01*
X134353765Y-55777873D01*
X134409695Y-55736001D01*
X134413574Y-55734554D01*
X134416910Y-55733311D01*
X134460224Y-55725500D01*
X155555321Y-55725500D01*
X155590253Y-55730521D01*
X155615497Y-55737934D01*
X155668243Y-55769230D01*
X155799054Y-55900041D01*
X155820205Y-55928294D01*
X155825327Y-55937674D01*
X155840179Y-56005947D01*
X155815763Y-56071411D01*
X155759830Y-56113283D01*
X155701471Y-56120188D01*
X155697555Y-56119710D01*
X155674263Y-56114556D01*
X155658673Y-56109491D01*
X155649542Y-56106524D01*
X155649540Y-56106523D01*
X155649538Y-56106523D01*
X155649448Y-56106502D01*
X155648573Y-56106370D01*
X155530775Y-56087713D01*
X155530774Y-56087713D01*
X155447352Y-56074500D01*
X155447351Y-56074500D01*
X155242647Y-56074500D01*
X155218327Y-56078351D01*
X155218326Y-56078350D01*
X155040468Y-56106521D01*
X154845777Y-56169780D01*
X154845764Y-56169786D01*
X154663397Y-56262708D01*
X154663385Y-56262715D01*
X154497787Y-56383027D01*
X154497784Y-56383029D01*
X154353029Y-56527784D01*
X154353027Y-56527787D01*
X154232715Y-56693385D01*
X154232708Y-56693397D01*
X154139786Y-56875764D01*
X154139780Y-56875777D01*
X154076521Y-57070468D01*
X154044500Y-57272642D01*
X154044500Y-57477356D01*
X154076521Y-57679530D01*
X154076522Y-57679534D01*
X154093414Y-57731521D01*
X154139780Y-57874221D01*
X154139783Y-57874228D01*
X154170099Y-57933725D01*
X154194499Y-57981611D01*
X154223084Y-58037713D01*
X154232715Y-58056613D01*
X154353028Y-58222213D01*
X154497786Y-58366971D01*
X154501490Y-58369662D01*
X154590436Y-58434284D01*
X154590440Y-58434286D01*
X154594566Y-58437284D01*
X154663390Y-58487287D01*
X154747647Y-58530218D01*
X154809237Y-58561600D01*
X154839330Y-58576934D01*
X154840931Y-58577871D01*
X154844620Y-58579658D01*
X154846638Y-58580660D01*
X154850406Y-58581723D01*
X154886579Y-58593476D01*
X154950135Y-58614126D01*
X154950136Y-58614127D01*
X154985139Y-58625500D01*
X155040465Y-58643477D01*
X155141557Y-58659488D01*
X155242648Y-58675500D01*
X155242649Y-58675500D01*
X155447351Y-58675500D01*
X155447352Y-58675500D01*
X155649534Y-58643477D01*
X155844219Y-58580220D01*
X156026610Y-58487287D01*
X156119590Y-58419732D01*
X156192213Y-58366971D01*
X156192213Y-58366969D01*
X156192272Y-58366927D01*
X156193031Y-58366153D01*
X156336966Y-58222219D01*
X156336968Y-58222215D01*
X156336971Y-58222213D01*
X156359579Y-58191096D01*
X156391461Y-58147214D01*
X156419160Y-58109087D01*
X156457287Y-58056610D01*
X156550220Y-57874219D01*
X156555403Y-57858263D01*
X156570969Y-57826600D01*
X156577359Y-57817255D01*
X156631443Y-57773029D01*
X156700857Y-57765062D01*
X156763557Y-57795887D01*
X156763566Y-57795895D01*
X156763568Y-57795897D01*
X156769221Y-57801086D01*
X156795853Y-57836139D01*
X156813989Y-57871732D01*
X156869976Y-57981613D01*
X156882715Y-58006613D01*
X157003028Y-58172213D01*
X157003030Y-58172215D01*
X157147787Y-58316972D01*
X157216602Y-58366968D01*
X157269250Y-58405218D01*
X157313390Y-58437287D01*
X157411510Y-58487282D01*
X157429607Y-58496503D01*
X157489327Y-58526932D01*
X157489326Y-58526932D01*
X157496650Y-58530663D01*
X157500403Y-58531722D01*
X157502247Y-58532321D01*
X157600135Y-58564126D01*
X157600136Y-58564127D01*
X157634049Y-58575146D01*
X157690465Y-58593477D01*
X157791557Y-58609488D01*
X157892648Y-58625500D01*
X157892649Y-58625500D01*
X158097351Y-58625500D01*
X158097352Y-58625500D01*
X158198459Y-58609486D01*
X158299529Y-58593478D01*
X158299530Y-58593477D01*
X158299534Y-58593477D01*
X158355951Y-58575144D01*
X158390715Y-58569127D01*
X158407788Y-58568639D01*
X158473064Y-58585052D01*
X158484614Y-58591684D01*
X158510549Y-58611536D01*
X159719351Y-59820339D01*
X159719360Y-59820347D01*
X159719384Y-59820365D01*
X159806975Y-59884003D01*
X159806977Y-59884004D01*
X159812082Y-59887713D01*
X159856315Y-59919850D01*
X159952425Y-59968820D01*
X160000706Y-59993421D01*
X160002302Y-59994356D01*
X160006015Y-59996155D01*
X160008004Y-59997143D01*
X160011757Y-59998201D01*
X160067855Y-60016429D01*
X160067856Y-60016429D01*
X160067857Y-60016430D01*
X160102976Y-60027840D01*
X160168152Y-60049018D01*
X160335351Y-60075500D01*
X160335356Y-60075500D01*
X160504644Y-60075500D01*
X161309637Y-60075500D01*
X161344571Y-60080523D01*
X161374494Y-60089309D01*
X161412443Y-60107967D01*
X161418385Y-60112284D01*
X161418386Y-60112284D01*
X161418398Y-60112293D01*
X161418737Y-60112464D01*
X161476637Y-60141966D01*
X161476638Y-60141966D01*
X161600776Y-60205218D01*
X161601649Y-60205663D01*
X161605403Y-60206722D01*
X161645488Y-60219746D01*
X161705135Y-60239126D01*
X161705136Y-60239127D01*
X161747168Y-60252784D01*
X161795465Y-60268477D01*
X161896557Y-60284488D01*
X161997648Y-60300500D01*
X161997649Y-60300500D01*
X162202351Y-60300500D01*
X162202352Y-60300500D01*
X162404534Y-60268477D01*
X162599219Y-60205220D01*
X162781610Y-60112287D01*
X162913547Y-60016430D01*
X162947213Y-59991971D01*
X162947213Y-59991969D01*
X162947272Y-59991927D01*
X162948032Y-59991152D01*
X163091966Y-59847219D01*
X163091968Y-59847215D01*
X163091971Y-59847213D01*
X163163773Y-59748384D01*
X163212287Y-59681610D01*
X163305220Y-59499219D01*
X163368477Y-59304534D01*
X163400500Y-59102352D01*
X163400500Y-58897648D01*
X163368477Y-58695466D01*
X163353956Y-58650776D01*
X163351859Y-58644323D01*
X163314785Y-58530220D01*
X163314785Y-58530219D01*
X163306724Y-58505409D01*
X163305660Y-58501639D01*
X163304658Y-58499620D01*
X163302870Y-58495930D01*
X163301933Y-58494329D01*
X163289602Y-58470129D01*
X163237040Y-58366971D01*
X163212287Y-58318390D01*
X163200950Y-58302786D01*
X163091971Y-58152786D01*
X162947213Y-58008028D01*
X162947211Y-58008026D01*
X162792202Y-57895408D01*
X162792199Y-57895406D01*
X162781613Y-57887715D01*
X162781612Y-57887714D01*
X162781610Y-57887713D01*
X162694331Y-57843242D01*
X162694331Y-57843241D01*
X162694329Y-57843241D01*
X162599228Y-57794783D01*
X162599221Y-57794780D01*
X162494316Y-57760694D01*
X162404534Y-57731522D01*
X162404532Y-57731521D01*
X162404530Y-57731521D01*
X162404529Y-57731520D01*
X162229995Y-57703878D01*
X162213409Y-57701251D01*
X162202354Y-57699500D01*
X162202352Y-57699500D01*
X161997648Y-57699500D01*
X161997647Y-57699500D01*
X161973327Y-57703351D01*
X161973326Y-57703350D01*
X161795468Y-57731521D01*
X161795465Y-57731522D01*
X161600776Y-57794781D01*
X161418385Y-57887715D01*
X161418382Y-57887716D01*
X161418382Y-57887717D01*
X161418369Y-57887724D01*
X161414764Y-57890344D01*
X161383562Y-57906808D01*
X161371280Y-57911190D01*
X161354194Y-57917287D01*
X161312521Y-57924500D01*
X160934679Y-57924500D01*
X160899743Y-57919477D01*
X160874501Y-57912065D01*
X160821756Y-57880769D01*
X159300918Y-56359931D01*
X159219325Y-56278338D01*
X179314500Y-56278338D01*
X179314500Y-56428160D01*
X179343717Y-56575046D01*
X179343725Y-56575081D01*
X179401045Y-56713468D01*
X179401060Y-56713495D01*
X179484284Y-56838046D01*
X179590199Y-56943961D01*
X179590205Y-56943966D01*
X179590206Y-56943967D01*
X179714764Y-57027195D01*
X179714767Y-57027196D01*
X179714768Y-57027197D01*
X179853170Y-57084525D01*
X180000092Y-57113749D01*
X180000096Y-57113750D01*
X180000097Y-57113750D01*
X180149904Y-57113750D01*
X180149905Y-57113749D01*
X180296830Y-57084525D01*
X180435232Y-57027197D01*
X180559791Y-56943969D01*
X180665719Y-56838041D01*
X180748947Y-56713482D01*
X180806275Y-56575080D01*
X180835500Y-56428153D01*
X180835500Y-56278347D01*
X180806275Y-56131420D01*
X180803207Y-56124014D01*
X180774285Y-56054190D01*
X180748947Y-55993018D01*
X180748946Y-55993017D01*
X180748945Y-55993014D01*
X180665717Y-55868456D01*
X180665716Y-55868455D01*
X180665711Y-55868449D01*
X180559796Y-55762534D01*
X180435245Y-55679310D01*
X180435218Y-55679295D01*
X180296831Y-55621975D01*
X180296796Y-55621967D01*
X180149910Y-55592750D01*
X180149907Y-55592750D01*
X180149903Y-55592750D01*
X180000097Y-55592750D01*
X180000092Y-55592750D01*
X180000088Y-55592750D01*
X179853202Y-55621967D01*
X179853167Y-55621975D01*
X179714780Y-55679295D01*
X179714753Y-55679310D01*
X179590202Y-55762534D01*
X179484284Y-55868452D01*
X179401060Y-55993003D01*
X179401045Y-55993030D01*
X179343725Y-56131417D01*
X179343717Y-56131452D01*
X179314500Y-56278338D01*
X159219325Y-56278338D01*
X156770647Y-53829659D01*
X156770645Y-53829657D01*
X156770640Y-53829653D01*
X156770639Y-53829652D01*
X156770634Y-53829648D01*
X156695699Y-53775205D01*
X156644292Y-53737856D01*
X156644289Y-53737854D01*
X156633688Y-53730152D01*
X156633687Y-53730151D01*
X156633685Y-53730150D01*
X156586582Y-53706150D01*
X156509711Y-53666981D01*
X156482858Y-53653298D01*
X156482855Y-53653297D01*
X156482853Y-53653296D01*
X156321847Y-53600981D01*
X156321841Y-53600980D01*
X156154654Y-53574500D01*
X156154649Y-53574500D01*
X156154644Y-53574500D01*
X155377385Y-53574500D01*
X155342446Y-53569476D01*
X155329128Y-53565565D01*
X155270351Y-53527789D01*
X155241330Y-53464242D01*
X155241329Y-53464232D01*
X155240335Y-53457321D01*
X155245140Y-53401359D01*
X155268402Y-53329763D01*
X155268474Y-53329546D01*
X155268474Y-53329542D01*
X155268476Y-53329538D01*
X155268476Y-53329537D01*
X155268477Y-53329534D01*
X155300500Y-53127352D01*
X155300500Y-52922648D01*
X155300500Y-52922643D01*
X155282191Y-52807049D01*
X155281447Y-52802351D01*
X155268477Y-52720465D01*
X155244257Y-52645925D01*
X155238224Y-52627356D01*
X155231316Y-52606093D01*
X155220449Y-52572647D01*
X157094500Y-52572647D01*
X157094500Y-52777350D01*
X157098460Y-52802352D01*
X157098460Y-52802354D01*
X157126521Y-52979530D01*
X157126523Y-52979538D01*
X157141042Y-53024223D01*
X157189781Y-53174223D01*
X157189782Y-53174224D01*
X157189783Y-53174228D01*
X157217963Y-53229532D01*
X157217963Y-53229534D01*
X157281000Y-53353249D01*
X157281904Y-53355022D01*
X157282716Y-53356615D01*
X157403026Y-53522211D01*
X157403028Y-53522213D01*
X157547786Y-53666971D01*
X157663420Y-53750982D01*
X157713390Y-53787287D01*
X157796536Y-53829652D01*
X157889329Y-53876933D01*
X157890924Y-53877867D01*
X157894629Y-53879662D01*
X157896636Y-53880659D01*
X157900406Y-53881723D01*
X157939358Y-53894379D01*
X158000135Y-53914126D01*
X158000136Y-53914127D01*
X158043612Y-53928253D01*
X158090465Y-53943477D01*
X158191557Y-53959488D01*
X158292648Y-53975500D01*
X158292649Y-53975500D01*
X158497351Y-53975500D01*
X158497352Y-53975500D01*
X158699534Y-53943477D01*
X158894219Y-53880220D01*
X159076610Y-53787287D01*
X159187388Y-53706803D01*
X159188289Y-53706149D01*
X159200182Y-53697507D01*
X159242213Y-53666971D01*
X159242214Y-53666968D01*
X159242216Y-53666967D01*
X159242219Y-53666966D01*
X159242221Y-53666963D01*
X159242275Y-53666924D01*
X159243032Y-53666152D01*
X159386966Y-53522219D01*
X159386968Y-53522215D01*
X159386971Y-53522213D01*
X159455554Y-53427815D01*
X159507287Y-53356610D01*
X159600220Y-53174219D01*
X159663477Y-52979534D01*
X159695500Y-52777352D01*
X159695500Y-52572648D01*
X159689571Y-52535216D01*
X174374500Y-52535216D01*
X174374500Y-54171278D01*
X174374501Y-54171284D01*
X174374545Y-54171784D01*
X174374545Y-54171839D01*
X174374835Y-54175339D01*
X174374921Y-54176010D01*
X174385113Y-54290666D01*
X174441090Y-54486298D01*
X174441284Y-54486879D01*
X174442201Y-54488459D01*
X174442669Y-54489320D01*
X174535302Y-54666657D01*
X174535304Y-54666659D01*
X174546594Y-54680505D01*
X174546595Y-54680507D01*
X174663887Y-54824356D01*
X174663888Y-54824357D01*
X174663890Y-54824359D01*
X174737825Y-54884644D01*
X174821593Y-54952948D01*
X175001951Y-55047159D01*
X175197582Y-55103136D01*
X175316963Y-55113750D01*
X176953036Y-55113749D01*
X177072418Y-55103136D01*
X177268049Y-55047159D01*
X177448407Y-54952948D01*
X177606109Y-54824359D01*
X177734698Y-54666657D01*
X177828909Y-54486299D01*
X177884886Y-54290668D01*
X177895380Y-54172637D01*
X177904841Y-54134955D01*
X177905151Y-54134228D01*
X177907528Y-54128851D01*
X177907709Y-54128231D01*
X177909298Y-54124509D01*
X177929506Y-54099967D01*
X177948391Y-54074394D01*
X177951788Y-54072908D01*
X177953712Y-54070573D01*
X177966599Y-54066434D01*
X178001758Y-54051066D01*
X178001814Y-54051056D01*
X178001821Y-54051056D01*
X178013670Y-54048960D01*
X178044983Y-54047449D01*
X178084162Y-54050533D01*
X178517977Y-53616717D01*
X178579298Y-53583234D01*
X178648989Y-53588218D01*
X178704923Y-53630089D01*
X178713039Y-53642394D01*
X178726898Y-53666397D01*
X178821853Y-53761352D01*
X178845845Y-53775204D01*
X178845847Y-53775205D01*
X178894063Y-53825772D01*
X178907285Y-53894379D01*
X178881317Y-53959244D01*
X178871528Y-53970273D01*
X178437714Y-54404086D01*
X178437714Y-54404087D01*
X178437715Y-54404088D01*
X178474612Y-54430895D01*
X178651327Y-54520938D01*
X178651330Y-54520939D01*
X178651353Y-54520947D01*
X178839944Y-54582222D01*
X178839947Y-54582223D01*
X179035837Y-54613250D01*
X179234162Y-54613250D01*
X179234163Y-54613250D01*
X179430052Y-54582223D01*
X179451009Y-54575413D01*
X179618645Y-54520947D01*
X179618653Y-54520943D01*
X179618669Y-54520939D01*
X179618672Y-54520938D01*
X179795382Y-54430898D01*
X179832283Y-54404087D01*
X179832284Y-54404086D01*
X179398471Y-53970273D01*
X179364986Y-53908950D01*
X179369970Y-53839258D01*
X179411842Y-53783325D01*
X179424139Y-53775212D01*
X179448147Y-53761352D01*
X179543102Y-53666397D01*
X179556956Y-53642400D01*
X179607521Y-53594187D01*
X179676127Y-53580963D01*
X179740993Y-53606931D01*
X179752023Y-53616721D01*
X180185835Y-54050534D01*
X180185836Y-54050534D01*
X180185837Y-54050533D01*
X180212648Y-54013632D01*
X180302688Y-53836922D01*
X180302689Y-53836919D01*
X180305052Y-53829648D01*
X180363972Y-53648305D01*
X180363971Y-53648305D01*
X180363973Y-53648302D01*
X180395000Y-53452413D01*
X180395000Y-53254086D01*
X180363973Y-53058197D01*
X180358093Y-53040100D01*
X180302697Y-52869603D01*
X180302689Y-52869580D01*
X180302688Y-52869577D01*
X180212645Y-52692862D01*
X180185838Y-52655965D01*
X180185837Y-52655964D01*
X179752022Y-53089777D01*
X179690699Y-53123262D01*
X179621007Y-53118278D01*
X179565074Y-53076406D01*
X179556958Y-53064102D01*
X179543102Y-53040103D01*
X179448147Y-52945148D01*
X179424148Y-52931292D01*
X179375934Y-52880725D01*
X179362712Y-52812118D01*
X179388680Y-52747253D01*
X179398462Y-52736231D01*
X179832283Y-52302411D01*
X179832280Y-52302409D01*
X179795380Y-52275600D01*
X179795373Y-52275596D01*
X179618672Y-52185561D01*
X179618668Y-52185559D01*
X179618645Y-52185551D01*
X179430054Y-52124276D01*
X179430055Y-52124276D01*
X179283135Y-52101006D01*
X179234163Y-52093250D01*
X179234162Y-52093250D01*
X179035838Y-52093250D01*
X179035837Y-52093250D01*
X178970540Y-52103592D01*
X178839945Y-52124276D01*
X178651332Y-52185559D01*
X178651317Y-52185564D01*
X178474621Y-52275598D01*
X178474614Y-52275602D01*
X178437715Y-52302409D01*
X178437715Y-52302411D01*
X178871529Y-52736225D01*
X178905014Y-52797548D01*
X178900030Y-52867240D01*
X178858158Y-52923173D01*
X178845852Y-52931291D01*
X178821856Y-52945146D01*
X178821850Y-52945150D01*
X178726900Y-53040100D01*
X178726896Y-53040106D01*
X178713041Y-53064102D01*
X178662472Y-53112316D01*
X178593865Y-53125536D01*
X178529001Y-53099566D01*
X178517975Y-53089779D01*
X178084161Y-52655965D01*
X178084159Y-52655964D01*
X178046999Y-52658890D01*
X178011778Y-52656623D01*
X177996480Y-52653409D01*
X177934929Y-52620371D01*
X177934174Y-52619627D01*
X177932415Y-52617892D01*
X177901681Y-52568358D01*
X177901573Y-52568028D01*
X177896061Y-52537923D01*
X177895742Y-52537952D01*
X177894659Y-52525775D01*
X177884886Y-52415832D01*
X177831079Y-52227785D01*
X177828910Y-52220204D01*
X177828909Y-52220203D01*
X177828909Y-52220201D01*
X177734698Y-52039843D01*
X177696826Y-51993397D01*
X177682686Y-51976055D01*
X177682685Y-51976054D01*
X177682684Y-51976053D01*
X177606109Y-51882140D01*
X177606107Y-51882138D01*
X177606106Y-51882137D01*
X177474098Y-51774500D01*
X177474097Y-51774499D01*
X177448412Y-51753555D01*
X177448408Y-51753553D01*
X177448407Y-51753552D01*
X177343273Y-51698635D01*
X177281973Y-51666614D01*
X177281971Y-51666613D01*
X177268049Y-51659341D01*
X177268048Y-51659340D01*
X177268045Y-51659339D01*
X177146285Y-51624500D01*
X177144950Y-51624118D01*
X177074981Y-51604097D01*
X177072825Y-51603429D01*
X177070347Y-51603027D01*
X177066936Y-51602876D01*
X177057628Y-51602048D01*
X177006102Y-51597467D01*
X177006101Y-51597466D01*
X176953039Y-51592750D01*
X176953037Y-51592750D01*
X176953032Y-51592750D01*
X175316971Y-51592750D01*
X175316965Y-51592750D01*
X175304897Y-51592750D01*
X175298042Y-51594432D01*
X175197582Y-51603363D01*
X175001953Y-51659339D01*
X174963292Y-51679534D01*
X174829005Y-51749679D01*
X174828996Y-51749684D01*
X174821593Y-51753552D01*
X174821591Y-51753553D01*
X174821590Y-51753554D01*
X174812641Y-51760850D01*
X174812632Y-51760857D01*
X174663887Y-51882142D01*
X174540854Y-52033032D01*
X174540855Y-52033033D01*
X174535302Y-52039842D01*
X174512743Y-52083029D01*
X174441088Y-52220206D01*
X174434456Y-52243385D01*
X174407608Y-52337219D01*
X174391538Y-52393385D01*
X174390943Y-52395463D01*
X174390942Y-52395467D01*
X174390479Y-52397081D01*
X174390478Y-52397084D01*
X174385114Y-52415833D01*
X174385113Y-52415836D01*
X174374500Y-52535216D01*
X159689571Y-52535216D01*
X159681980Y-52487287D01*
X159663477Y-52370465D01*
X159617116Y-52227781D01*
X159600220Y-52175781D01*
X159600218Y-52175778D01*
X159600218Y-52175776D01*
X159597972Y-52171368D01*
X159597663Y-52170576D01*
X159596933Y-52169329D01*
X159550286Y-52077781D01*
X159550285Y-52077780D01*
X159539499Y-52056611D01*
X159507287Y-51993390D01*
X159499556Y-51982749D01*
X159386971Y-51827786D01*
X159242213Y-51683028D01*
X159242212Y-51683027D01*
X159242211Y-51683026D01*
X159087202Y-51570408D01*
X159087199Y-51570406D01*
X159076613Y-51562715D01*
X159076612Y-51562714D01*
X159076610Y-51562713D01*
X159018350Y-51533028D01*
X159018350Y-51533027D01*
X159018348Y-51533027D01*
X158894228Y-51469783D01*
X158894221Y-51469780D01*
X158742270Y-51420408D01*
X158699534Y-51406522D01*
X158699532Y-51406521D01*
X158699530Y-51406521D01*
X158699529Y-51406520D01*
X158524995Y-51378878D01*
X158508409Y-51376251D01*
X158497354Y-51374500D01*
X158497352Y-51374500D01*
X158292648Y-51374500D01*
X158292647Y-51374500D01*
X158268327Y-51378351D01*
X158268326Y-51378350D01*
X158090468Y-51406521D01*
X157895777Y-51469780D01*
X157895764Y-51469786D01*
X157713397Y-51562708D01*
X157713385Y-51562715D01*
X157547787Y-51683027D01*
X157547784Y-51683029D01*
X157403029Y-51827784D01*
X157403027Y-51827787D01*
X157282715Y-51993385D01*
X157282708Y-51993397D01*
X157189786Y-52175764D01*
X157189780Y-52175777D01*
X157126522Y-52370465D01*
X157097640Y-52552822D01*
X157094500Y-52572647D01*
X155220449Y-52572647D01*
X155205221Y-52525782D01*
X155156620Y-52430398D01*
X155112287Y-52343390D01*
X155097251Y-52322694D01*
X154991971Y-52177786D01*
X154847213Y-52033028D01*
X154847212Y-52033027D01*
X154847211Y-52033026D01*
X154692202Y-51920408D01*
X154692199Y-51920406D01*
X154681613Y-51912715D01*
X154681612Y-51912714D01*
X154681610Y-51912713D01*
X154621607Y-51882140D01*
X154621607Y-51882139D01*
X154621605Y-51882139D01*
X154499228Y-51819783D01*
X154499221Y-51819780D01*
X154359861Y-51774499D01*
X154304534Y-51756522D01*
X154304532Y-51756521D01*
X154304530Y-51756521D01*
X154304529Y-51756520D01*
X154129995Y-51728878D01*
X154113409Y-51726251D01*
X154102354Y-51724500D01*
X154102352Y-51724500D01*
X153897648Y-51724500D01*
X153897647Y-51724500D01*
X153873327Y-51728351D01*
X153873326Y-51728350D01*
X153695468Y-51756521D01*
X153500777Y-51819780D01*
X153500764Y-51819786D01*
X153318397Y-51912708D01*
X153318385Y-51912715D01*
X153152787Y-52033027D01*
X153152784Y-52033029D01*
X153008029Y-52177784D01*
X153008027Y-52177787D01*
X152887715Y-52343385D01*
X152887708Y-52343397D01*
X152794786Y-52525764D01*
X152794783Y-52525771D01*
X152794781Y-52525776D01*
X152743686Y-52683028D01*
X152731522Y-52720465D01*
X152699500Y-52922642D01*
X152699500Y-53127350D01*
X152728772Y-53312171D01*
X152728773Y-53312177D01*
X152731523Y-53329535D01*
X152731523Y-53329538D01*
X152753456Y-53397042D01*
X152754002Y-53398917D01*
X152753994Y-53401744D01*
X152758885Y-53430007D01*
X152759281Y-53443877D01*
X152753833Y-53464599D01*
X152753823Y-53468786D01*
X152751986Y-53471628D01*
X152741518Y-53511451D01*
X152690061Y-53558685D01*
X152690055Y-53558688D01*
X152683787Y-53561769D01*
X152629062Y-53574500D01*
X152043631Y-53574500D01*
X152008692Y-53569476D01*
X151995374Y-53565565D01*
X151936597Y-53527789D01*
X151907575Y-53464232D01*
X151907574Y-53464231D01*
X151906580Y-53457313D01*
X151911385Y-53401363D01*
X151911389Y-53401352D01*
X151915612Y-53388353D01*
X151915776Y-53387955D01*
X151918354Y-53379916D01*
X151918398Y-53379775D01*
X151918475Y-53379542D01*
X151918475Y-53379538D01*
X151918477Y-53379534D01*
X151918491Y-53379449D01*
X151947036Y-53199220D01*
X151950500Y-53177352D01*
X151950500Y-52972648D01*
X151946144Y-52945148D01*
X151920956Y-52786114D01*
X151920955Y-52786112D01*
X151919568Y-52777352D01*
X151918477Y-52770465D01*
X151869739Y-52620466D01*
X151856722Y-52580405D01*
X151855662Y-52576645D01*
X151851935Y-52569331D01*
X151851934Y-52569330D01*
X151851934Y-52569329D01*
X151801210Y-52469781D01*
X151801209Y-52469779D01*
X151762287Y-52393390D01*
X151751360Y-52378350D01*
X151740705Y-52363685D01*
X151641971Y-52227786D01*
X151497213Y-52083028D01*
X151489998Y-52077786D01*
X151342202Y-51970408D01*
X151342199Y-51970406D01*
X151331613Y-51962715D01*
X151331612Y-51962714D01*
X151331610Y-51962713D01*
X151325535Y-51959617D01*
X151325531Y-51959615D01*
X151233480Y-51912713D01*
X151233480Y-51912712D01*
X151233478Y-51912712D01*
X151149228Y-51869783D01*
X151149221Y-51869780D01*
X151044316Y-51835694D01*
X150954534Y-51806522D01*
X150954532Y-51806521D01*
X150954530Y-51806521D01*
X150954529Y-51806520D01*
X150779995Y-51778878D01*
X150763409Y-51776251D01*
X150752354Y-51774500D01*
X150752352Y-51774500D01*
X150547648Y-51774500D01*
X150547647Y-51774500D01*
X150523327Y-51778351D01*
X150523326Y-51778350D01*
X150345468Y-51806521D01*
X150150777Y-51869780D01*
X150150764Y-51869786D01*
X149968397Y-51962708D01*
X149968385Y-51962715D01*
X149802787Y-52083027D01*
X149658029Y-52227785D01*
X149537715Y-52393385D01*
X149537708Y-52393397D01*
X149444786Y-52575764D01*
X149444781Y-52575776D01*
X149381522Y-52770465D01*
X149349500Y-52972642D01*
X149349500Y-53177350D01*
X149354135Y-53206614D01*
X149354135Y-53206615D01*
X149381370Y-53378572D01*
X149381502Y-53379449D01*
X149381523Y-53379541D01*
X149386621Y-53395229D01*
X149392639Y-53430008D01*
X149393035Y-53443877D01*
X149375272Y-53511451D01*
X149323808Y-53558688D01*
X149317537Y-53561772D01*
X149262815Y-53574500D01*
X146633332Y-53574500D01*
X146598393Y-53569476D01*
X146585075Y-53565565D01*
X146526298Y-53527789D01*
X146497277Y-53464239D01*
X146497168Y-53463481D01*
X146503264Y-53403751D01*
X146506119Y-53395838D01*
X146512266Y-53381651D01*
X146512880Y-53380447D01*
X146534894Y-53337242D01*
X146605216Y-53199228D01*
X146605219Y-53199220D01*
X146605220Y-53199219D01*
X146668477Y-53004534D01*
X146700500Y-52802352D01*
X146700500Y-52597648D01*
X146682450Y-52483687D01*
X146690879Y-52415608D01*
X146691403Y-52414379D01*
X146692848Y-52403191D01*
X146737838Y-52349734D01*
X146804587Y-52329087D01*
X146839589Y-52333605D01*
X146842577Y-52334437D01*
X146897038Y-52366223D01*
X147012787Y-52481972D01*
X147073086Y-52525781D01*
X147141900Y-52575776D01*
X147178390Y-52602287D01*
X147283737Y-52655964D01*
X147336852Y-52683028D01*
X147354329Y-52691933D01*
X147355927Y-52692869D01*
X147359615Y-52694655D01*
X147361641Y-52695661D01*
X147365406Y-52696723D01*
X147438477Y-52720465D01*
X147555465Y-52758477D01*
X147631154Y-52770465D01*
X147757648Y-52790500D01*
X147757649Y-52790500D01*
X147962351Y-52790500D01*
X147962352Y-52790500D01*
X148164534Y-52758477D01*
X148359219Y-52695220D01*
X148541610Y-52602287D01*
X148646912Y-52525781D01*
X148646921Y-52525775D01*
X148681519Y-52500638D01*
X148707213Y-52481971D01*
X148707214Y-52481969D01*
X148707273Y-52481926D01*
X148708032Y-52481152D01*
X148851966Y-52337219D01*
X148851968Y-52337215D01*
X148851971Y-52337213D01*
X148931473Y-52227786D01*
X148972287Y-52171610D01*
X149065220Y-51989219D01*
X149128477Y-51794534D01*
X149160500Y-51592352D01*
X149160500Y-51387648D01*
X149160500Y-51387643D01*
X149149751Y-51319781D01*
X149149751Y-51319780D01*
X149142285Y-51272642D01*
X149128477Y-51185465D01*
X149091111Y-51070465D01*
X149066722Y-50995403D01*
X149065659Y-50991637D01*
X149064662Y-50989629D01*
X149062870Y-50985930D01*
X149061932Y-50984327D01*
X149031503Y-50924607D01*
X148972287Y-50808390D01*
X148911338Y-50724500D01*
X148851971Y-50642786D01*
X148707213Y-50498028D01*
X148658565Y-50462684D01*
X148552202Y-50385408D01*
X148552199Y-50385406D01*
X148541613Y-50377715D01*
X148541612Y-50377714D01*
X148541610Y-50377713D01*
X148535535Y-50374617D01*
X148535531Y-50374615D01*
X148459958Y-50336109D01*
X148459958Y-50336108D01*
X148459956Y-50336108D01*
X148359228Y-50284783D01*
X148359221Y-50284780D01*
X148254316Y-50250694D01*
X148164534Y-50221522D01*
X148164532Y-50221521D01*
X148164530Y-50221521D01*
X148164529Y-50221520D01*
X147989995Y-50193878D01*
X147973409Y-50191251D01*
X147962354Y-50189500D01*
X147962352Y-50189500D01*
X147757648Y-50189500D01*
X147757647Y-50189500D01*
X147733327Y-50193351D01*
X147733326Y-50193350D01*
X147555468Y-50221521D01*
X147360777Y-50284780D01*
X147360764Y-50284786D01*
X147178397Y-50377708D01*
X147178385Y-50377715D01*
X147012787Y-50498027D01*
X147012784Y-50498029D01*
X146868029Y-50642784D01*
X146868027Y-50642787D01*
X146747715Y-50808385D01*
X146747708Y-50808397D01*
X146654786Y-50990764D01*
X146654780Y-50990777D01*
X146591521Y-51185468D01*
X146559500Y-51387642D01*
X146559500Y-51387648D01*
X146559500Y-51592352D01*
X146559499Y-51592352D01*
X146578015Y-51709255D01*
X146578341Y-51712237D01*
X146577685Y-51715908D01*
X146578053Y-51741597D01*
X146576604Y-51752813D01*
X146567322Y-51773930D01*
X146566057Y-51781018D01*
X146562543Y-51784804D01*
X146548492Y-51816777D01*
X146490261Y-51855390D01*
X146420399Y-51856390D01*
X146420370Y-51856382D01*
X146417385Y-51855551D01*
X146362960Y-51823775D01*
X146247211Y-51708026D01*
X146092209Y-51595413D01*
X146092205Y-51595410D01*
X146081613Y-51587715D01*
X146081612Y-51587714D01*
X146081610Y-51587713D01*
X146047648Y-51570408D01*
X146024654Y-51558691D01*
X146024653Y-51558691D01*
X145899223Y-51494781D01*
X145704534Y-51431522D01*
X145704532Y-51431521D01*
X145704530Y-51431521D01*
X145704529Y-51431520D01*
X145529995Y-51403878D01*
X145513409Y-51401251D01*
X145502354Y-51399500D01*
X145502352Y-51399500D01*
X145297648Y-51399500D01*
X145297647Y-51399500D01*
X145273327Y-51403351D01*
X145273326Y-51403350D01*
X145095468Y-51431521D01*
X144900777Y-51494780D01*
X144900764Y-51494786D01*
X144718397Y-51587708D01*
X144718385Y-51587715D01*
X144552787Y-51708027D01*
X144552784Y-51708029D01*
X144408029Y-51852784D01*
X144408027Y-51852787D01*
X144287715Y-52018385D01*
X144287708Y-52018397D01*
X144194786Y-52200764D01*
X144194780Y-52200777D01*
X144170469Y-52275600D01*
X144131522Y-52395465D01*
X144127489Y-52420931D01*
X144099500Y-52597642D01*
X144099500Y-52802352D01*
X144099499Y-52802354D01*
X144129757Y-52993390D01*
X144131522Y-53004534D01*
X144194781Y-53199223D01*
X144251311Y-53310168D01*
X144284857Y-53376005D01*
X144294069Y-53399921D01*
X144296850Y-53410200D01*
X144298506Y-53416322D01*
X144297006Y-53486176D01*
X144257981Y-53544127D01*
X144257394Y-53544614D01*
X144203294Y-53570620D01*
X144196911Y-53571938D01*
X144171836Y-53574500D01*
X134001009Y-53574500D01*
X133966070Y-53569476D01*
X133955078Y-53566248D01*
X133896301Y-53528471D01*
X133867278Y-53464914D01*
X133877039Y-53396164D01*
X133884154Y-53380437D01*
X133896805Y-53358676D01*
X133975315Y-53250616D01*
X134007287Y-53206610D01*
X134100220Y-53024219D01*
X134163477Y-52829534D01*
X134195500Y-52627352D01*
X134195500Y-52422648D01*
X134187235Y-52370465D01*
X134163477Y-52220465D01*
X134122142Y-52093250D01*
X134117116Y-52077781D01*
X134102828Y-52033807D01*
X134102826Y-52033804D01*
X134100220Y-52025781D01*
X134100218Y-52025778D01*
X134100218Y-52025776D01*
X134097981Y-52021386D01*
X134097671Y-52020591D01*
X134096935Y-52019333D01*
X134042610Y-51912715D01*
X134007287Y-51843390D01*
X133999556Y-51832749D01*
X133886971Y-51677786D01*
X133742213Y-51533028D01*
X133742212Y-51533027D01*
X133742211Y-51533026D01*
X133587202Y-51420408D01*
X133587199Y-51420406D01*
X133576613Y-51412715D01*
X133576612Y-51412714D01*
X133576610Y-51412713D01*
X133501613Y-51374500D01*
X133501613Y-51374499D01*
X133501611Y-51374499D01*
X133394228Y-51319783D01*
X133394221Y-51319780D01*
X133249164Y-51272648D01*
X133199534Y-51256522D01*
X133199532Y-51256521D01*
X133199530Y-51256521D01*
X133199529Y-51256520D01*
X133024995Y-51228878D01*
X133008409Y-51226251D01*
X132997354Y-51224500D01*
X132997352Y-51224500D01*
X132792648Y-51224500D01*
X132792647Y-51224500D01*
X132768327Y-51228351D01*
X132768326Y-51228350D01*
X132590468Y-51256521D01*
X132395777Y-51319780D01*
X132395764Y-51319786D01*
X132213397Y-51412708D01*
X132213385Y-51412715D01*
X132047787Y-51533027D01*
X131903029Y-51677784D01*
X131903027Y-51677787D01*
X131782715Y-51843385D01*
X131782708Y-51843397D01*
X131689786Y-52025764D01*
X131689780Y-52025777D01*
X131626521Y-52220468D01*
X131594500Y-52422642D01*
X131594500Y-52627356D01*
X131626245Y-52827786D01*
X131626522Y-52829534D01*
X131689781Y-53024223D01*
X131782714Y-53206612D01*
X131804207Y-53236196D01*
X131820676Y-53267410D01*
X131825027Y-53279606D01*
X131829013Y-53349362D01*
X131794654Y-53410200D01*
X131738047Y-53441635D01*
X131729051Y-53443863D01*
X131699241Y-53447500D01*
X130331157Y-53447500D01*
X130296218Y-53442476D01*
X130282900Y-53438565D01*
X130224123Y-53400789D01*
X130195102Y-53337242D01*
X130194999Y-53336524D01*
X130194107Y-53330321D01*
X130198915Y-53274350D01*
X130205500Y-53254086D01*
X130213477Y-53229534D01*
X130245500Y-53027352D01*
X130245500Y-52822648D01*
X130222194Y-52675500D01*
X130213477Y-52620465D01*
X130196440Y-52568033D01*
X130174549Y-52500658D01*
X130174546Y-52500651D01*
X130174543Y-52500641D01*
X130151719Y-52430395D01*
X130150659Y-52426635D01*
X130149677Y-52424659D01*
X130147871Y-52420931D01*
X130146930Y-52419323D01*
X130116193Y-52359000D01*
X130116192Y-52358998D01*
X130057287Y-52243389D01*
X130045952Y-52227789D01*
X130045949Y-52227785D01*
X130041903Y-52222215D01*
X129936971Y-52077786D01*
X129792213Y-51933028D01*
X129792212Y-51933027D01*
X129792211Y-51933026D01*
X129637202Y-51820408D01*
X129637199Y-51820406D01*
X129626613Y-51812715D01*
X129626612Y-51812714D01*
X129626610Y-51812713D01*
X129551613Y-51774500D01*
X129551613Y-51774499D01*
X129551611Y-51774499D01*
X129444228Y-51719783D01*
X129444221Y-51719780D01*
X129320357Y-51679534D01*
X129249534Y-51656522D01*
X129249532Y-51656521D01*
X129249530Y-51656521D01*
X129249529Y-51656520D01*
X129074995Y-51628878D01*
X129058409Y-51626251D01*
X129047354Y-51624500D01*
X129047352Y-51624500D01*
X128842648Y-51624500D01*
X128842647Y-51624500D01*
X128818327Y-51628351D01*
X128818326Y-51628350D01*
X128640468Y-51656521D01*
X128445777Y-51719780D01*
X128445764Y-51719786D01*
X128263397Y-51812708D01*
X128263385Y-51812715D01*
X128097787Y-51933027D01*
X128097784Y-51933029D01*
X127953028Y-52077785D01*
X127832715Y-52243385D01*
X127832708Y-52243397D01*
X127739786Y-52425764D01*
X127739780Y-52425777D01*
X127707289Y-52525775D01*
X127676522Y-52620465D01*
X127675431Y-52627352D01*
X127644500Y-52822642D01*
X127644500Y-53027356D01*
X127676521Y-53229529D01*
X127676522Y-53229532D01*
X127676522Y-53229534D01*
X127688829Y-53267410D01*
X127689094Y-53268223D01*
X127695113Y-53303000D01*
X127695509Y-53316879D01*
X127677746Y-53384452D01*
X127626289Y-53431685D01*
X127623270Y-53433170D01*
X127620016Y-53434769D01*
X127565290Y-53447500D01*
X121196429Y-53447500D01*
X121161488Y-53442475D01*
X121146489Y-53438070D01*
X121087721Y-53400302D01*
X121080901Y-53392432D01*
X121056679Y-53349543D01*
X121052449Y-53336524D01*
X121010238Y-53206613D01*
X121001717Y-53180391D01*
X121000662Y-53176648D01*
X120999426Y-53174223D01*
X120975544Y-53127350D01*
X120966503Y-53109606D01*
X120966503Y-53109607D01*
X120907287Y-52993390D01*
X120897220Y-52979534D01*
X120892217Y-52972647D01*
X120892216Y-52972646D01*
X120786972Y-52827787D01*
X120642211Y-52683026D01*
X120487202Y-52570408D01*
X120487199Y-52570406D01*
X120476613Y-52562715D01*
X120476612Y-52562714D01*
X120476610Y-52562713D01*
X120404117Y-52525776D01*
X120404117Y-52525775D01*
X120404115Y-52525775D01*
X120294228Y-52469783D01*
X120294221Y-52469780D01*
X120173016Y-52430398D01*
X120099534Y-52406522D01*
X120099532Y-52406521D01*
X120099530Y-52406521D01*
X120099529Y-52406520D01*
X119924995Y-52378878D01*
X119908409Y-52376251D01*
X119897354Y-52374500D01*
X119897352Y-52374500D01*
X119692648Y-52374500D01*
X119692647Y-52374500D01*
X119668327Y-52378351D01*
X119668326Y-52378350D01*
X119490468Y-52406521D01*
X119295777Y-52469780D01*
X119295764Y-52469786D01*
X119113397Y-52562708D01*
X119113385Y-52562715D01*
X118947787Y-52683027D01*
X118947784Y-52683029D01*
X118803029Y-52827784D01*
X118803027Y-52827787D01*
X118682715Y-52993385D01*
X118682714Y-52993387D01*
X118646686Y-53064095D01*
X118589781Y-53175776D01*
X118579761Y-53206614D01*
X118534841Y-53344862D01*
X118519268Y-53376535D01*
X118510445Y-53389438D01*
X118456369Y-53433660D01*
X118446779Y-53437714D01*
X118398497Y-53447500D01*
X111941830Y-53447500D01*
X111906889Y-53442475D01*
X111891890Y-53438070D01*
X111833144Y-53400327D01*
X111831957Y-53398958D01*
X111804477Y-53344083D01*
X111802832Y-53336521D01*
X111800000Y-53310168D01*
X111800000Y-51272642D01*
X121144500Y-51272642D01*
X121144500Y-51477356D01*
X121176245Y-51677786D01*
X121176522Y-51679534D01*
X121192384Y-51728351D01*
X121239780Y-51874221D01*
X121239783Y-51874228D01*
X121300499Y-51993386D01*
X121300500Y-51993388D01*
X121324169Y-52039843D01*
X121330286Y-52051847D01*
X121332635Y-52056457D01*
X121332716Y-52056615D01*
X121351906Y-52083028D01*
X121453005Y-52222182D01*
X121453027Y-52222211D01*
X121453029Y-52222214D01*
X121597787Y-52366972D01*
X121734199Y-52466079D01*
X121763390Y-52487287D01*
X121763392Y-52487288D01*
X121838928Y-52525776D01*
X121838929Y-52525776D01*
X121939329Y-52576933D01*
X121939328Y-52576933D01*
X121946651Y-52580664D01*
X121950406Y-52581723D01*
X121997037Y-52596874D01*
X122025410Y-52606093D01*
X122140465Y-52643477D01*
X122219311Y-52655965D01*
X122342648Y-52675500D01*
X122342649Y-52675500D01*
X122547351Y-52675500D01*
X122547352Y-52675500D01*
X122749534Y-52643477D01*
X122944219Y-52580220D01*
X123126610Y-52487287D01*
X123224955Y-52415836D01*
X123237772Y-52406524D01*
X123281850Y-52374500D01*
X123292213Y-52366971D01*
X123292213Y-52366969D01*
X123292272Y-52366927D01*
X123293032Y-52366152D01*
X123436966Y-52222219D01*
X123436968Y-52222215D01*
X123436971Y-52222213D01*
X123508125Y-52124276D01*
X123557287Y-52056610D01*
X123650220Y-51874219D01*
X123713477Y-51679534D01*
X123745500Y-51477352D01*
X123745500Y-51272648D01*
X123720333Y-51113750D01*
X123713477Y-51070465D01*
X123683970Y-50979654D01*
X123650220Y-50875781D01*
X123650218Y-50875778D01*
X123650218Y-50875776D01*
X123647989Y-50871402D01*
X123647675Y-50870596D01*
X123646930Y-50869323D01*
X123613286Y-50803295D01*
X123613285Y-50803294D01*
X123557287Y-50693390D01*
X123536577Y-50664885D01*
X123436971Y-50527786D01*
X123292213Y-50383028D01*
X123292212Y-50383027D01*
X123292211Y-50383026D01*
X123137202Y-50270408D01*
X123137199Y-50270406D01*
X123126613Y-50262715D01*
X123126612Y-50262714D01*
X123126610Y-50262713D01*
X123059277Y-50228405D01*
X123059277Y-50228404D01*
X123059275Y-50228404D01*
X122944228Y-50169783D01*
X122944221Y-50169780D01*
X122826152Y-50131417D01*
X122749534Y-50106522D01*
X122749532Y-50106521D01*
X122749530Y-50106521D01*
X122749529Y-50106520D01*
X122574995Y-50078878D01*
X122558409Y-50076251D01*
X122547354Y-50074500D01*
X122547352Y-50074500D01*
X122342648Y-50074500D01*
X122342647Y-50074500D01*
X122318327Y-50078351D01*
X122318326Y-50078350D01*
X122140468Y-50106521D01*
X121945777Y-50169780D01*
X121945764Y-50169786D01*
X121763397Y-50262708D01*
X121763385Y-50262715D01*
X121597787Y-50383027D01*
X121597784Y-50383029D01*
X121453029Y-50527784D01*
X121453027Y-50527787D01*
X121332715Y-50693385D01*
X121332708Y-50693397D01*
X121239786Y-50875764D01*
X121239780Y-50875777D01*
X121176522Y-51070465D01*
X121144500Y-51272642D01*
X111800000Y-51272642D01*
X111800000Y-47666966D01*
X133644500Y-47666966D01*
X133644500Y-49683028D01*
X133644501Y-49683034D01*
X133644538Y-49683453D01*
X133644538Y-49683496D01*
X133644835Y-49687089D01*
X133644921Y-49687760D01*
X133655113Y-49802416D01*
X133669420Y-49852416D01*
X133709649Y-49993014D01*
X133711090Y-49998048D01*
X133711284Y-49998629D01*
X133712201Y-50000209D01*
X133712669Y-50001070D01*
X133805302Y-50178407D01*
X133805304Y-50178409D01*
X133816594Y-50192255D01*
X133816595Y-50192257D01*
X133846073Y-50228409D01*
X133933890Y-50336109D01*
X133981115Y-50374615D01*
X133991441Y-50383035D01*
X133995211Y-50386109D01*
X134091593Y-50464698D01*
X134271951Y-50558909D01*
X134467582Y-50614886D01*
X134586963Y-50625500D01*
X136603036Y-50625499D01*
X136722418Y-50614886D01*
X136918049Y-50558909D01*
X137098407Y-50464698D01*
X137256109Y-50336109D01*
X137256112Y-50336106D01*
X137297962Y-50284780D01*
X137384698Y-50178407D01*
X137478909Y-49998049D01*
X137534886Y-49802418D01*
X137545500Y-49683037D01*
X137545499Y-47716966D01*
X159544500Y-47716966D01*
X159544500Y-49733028D01*
X159544501Y-49733034D01*
X159544538Y-49733453D01*
X159544538Y-49733496D01*
X159544835Y-49737089D01*
X159544921Y-49737760D01*
X159555113Y-49852416D01*
X159611090Y-50048048D01*
X159611353Y-50048836D01*
X159613161Y-50052013D01*
X159705302Y-50228407D01*
X159739977Y-50270933D01*
X159833887Y-50386106D01*
X159833888Y-50386107D01*
X159833890Y-50386109D01*
X159927803Y-50462684D01*
X159991593Y-50514698D01*
X160171951Y-50608909D01*
X160367582Y-50664886D01*
X160486963Y-50675500D01*
X162503036Y-50675499D01*
X162622418Y-50664886D01*
X162818049Y-50608909D01*
X162998407Y-50514698D01*
X163156109Y-50386109D01*
X163243985Y-50278338D01*
X179314500Y-50278338D01*
X179314500Y-50428160D01*
X179343717Y-50575046D01*
X179343725Y-50575081D01*
X179401045Y-50713468D01*
X179401060Y-50713495D01*
X179484284Y-50838046D01*
X179590199Y-50943961D01*
X179590205Y-50943966D01*
X179590206Y-50943967D01*
X179714764Y-51027195D01*
X179714767Y-51027196D01*
X179714768Y-51027197D01*
X179853170Y-51084525D01*
X180000092Y-51113749D01*
X180000096Y-51113750D01*
X180000097Y-51113750D01*
X180149904Y-51113750D01*
X180149905Y-51113749D01*
X180296830Y-51084525D01*
X180435232Y-51027197D01*
X180559791Y-50943969D01*
X180665719Y-50838041D01*
X180748947Y-50713482D01*
X180806275Y-50575080D01*
X180835500Y-50428153D01*
X180835500Y-50278347D01*
X180806275Y-50131420D01*
X180748947Y-49993018D01*
X180748946Y-49993017D01*
X180748945Y-49993014D01*
X180665717Y-49868456D01*
X180665716Y-49868455D01*
X180665711Y-49868449D01*
X180559796Y-49762534D01*
X180435245Y-49679310D01*
X180435218Y-49679295D01*
X180296831Y-49621975D01*
X180296796Y-49621967D01*
X180149910Y-49592750D01*
X180149907Y-49592750D01*
X180149903Y-49592750D01*
X180000097Y-49592750D01*
X180000092Y-49592750D01*
X180000088Y-49592750D01*
X179853202Y-49621967D01*
X179853167Y-49621975D01*
X179714780Y-49679295D01*
X179714753Y-49679310D01*
X179590202Y-49762534D01*
X179484284Y-49868452D01*
X179401060Y-49993003D01*
X179401045Y-49993030D01*
X179343725Y-50131417D01*
X179343717Y-50131452D01*
X179314500Y-50278338D01*
X163243985Y-50278338D01*
X163284698Y-50228407D01*
X163378909Y-50048049D01*
X163434886Y-49852418D01*
X163445500Y-49733037D01*
X163445499Y-47716964D01*
X163434886Y-47597582D01*
X163378909Y-47401951D01*
X163284698Y-47221593D01*
X163232684Y-47157803D01*
X163156109Y-47063890D01*
X163156107Y-47063888D01*
X163156106Y-47063887D01*
X163062807Y-46987813D01*
X163050704Y-46970167D01*
X162998404Y-46935300D01*
X162831933Y-46848343D01*
X162831931Y-46848342D01*
X162818049Y-46841091D01*
X162818048Y-46841090D01*
X162818045Y-46841089D01*
X162700829Y-46807550D01*
X162699492Y-46807167D01*
X162699481Y-46807164D01*
X162624981Y-46785847D01*
X162622825Y-46785179D01*
X162620347Y-46784777D01*
X162616936Y-46784626D01*
X162607628Y-46783798D01*
X162556102Y-46779217D01*
X162556101Y-46779216D01*
X162503039Y-46774500D01*
X162503037Y-46774500D01*
X162503032Y-46774500D01*
X160486971Y-46774500D01*
X160486965Y-46774500D01*
X160474897Y-46774500D01*
X160468042Y-46776182D01*
X160367582Y-46785113D01*
X160171954Y-46841089D01*
X160087312Y-46885302D01*
X159992533Y-46934810D01*
X159991647Y-46935262D01*
X159989242Y-46936996D01*
X159986716Y-46939278D01*
X159833887Y-47063892D01*
X159705306Y-47221586D01*
X159611088Y-47401955D01*
X159560503Y-47578745D01*
X159560502Y-47578748D01*
X159555114Y-47597583D01*
X159555113Y-47597586D01*
X159544500Y-47716966D01*
X137545499Y-47716966D01*
X137545499Y-47666964D01*
X137534886Y-47547582D01*
X137478909Y-47351951D01*
X137384698Y-47171593D01*
X137296878Y-47063890D01*
X137256109Y-47013890D01*
X137162807Y-46937813D01*
X137150704Y-46920167D01*
X137098404Y-46885300D01*
X136931933Y-46798343D01*
X136931931Y-46798342D01*
X136918049Y-46791091D01*
X136918048Y-46791090D01*
X136918045Y-46791089D01*
X136800829Y-46757550D01*
X136799492Y-46757167D01*
X136799481Y-46757164D01*
X136724981Y-46735847D01*
X136722825Y-46735179D01*
X136720347Y-46734777D01*
X136716936Y-46734626D01*
X136707628Y-46733798D01*
X136656102Y-46729217D01*
X136656101Y-46729216D01*
X136603039Y-46724500D01*
X136603037Y-46724500D01*
X136603032Y-46724500D01*
X134586971Y-46724500D01*
X134586965Y-46724500D01*
X134574897Y-46724500D01*
X134568042Y-46726182D01*
X134467582Y-46735113D01*
X134271952Y-46791089D01*
X134181771Y-46838194D01*
X134181772Y-46838195D01*
X134099043Y-46881409D01*
X134099034Y-46881415D01*
X134091593Y-46885302D01*
X134091591Y-46885303D01*
X134091590Y-46885304D01*
X134082627Y-46892611D01*
X134082620Y-46892617D01*
X133933887Y-47013892D01*
X133805306Y-47171586D01*
X133711088Y-47351955D01*
X133660503Y-47528745D01*
X133660502Y-47528748D01*
X133655114Y-47547583D01*
X133655113Y-47547586D01*
X133644500Y-47666966D01*
X111800000Y-47666966D01*
X111800000Y-43518707D01*
X177544500Y-43518707D01*
X177544500Y-43731291D01*
X177577752Y-43941239D01*
X177643445Y-44143418D01*
X177736532Y-44326111D01*
X177739951Y-44332820D01*
X177864890Y-44504786D01*
X177864892Y-44504788D01*
X178015216Y-44655112D01*
X178187169Y-44780042D01*
X178187177Y-44780047D01*
X178187179Y-44780048D01*
X178187181Y-44780049D01*
X178187182Y-44780050D01*
X178187200Y-44780060D01*
X178187442Y-44780182D01*
X178376588Y-44876557D01*
X178578757Y-44942246D01*
X178788713Y-44975500D01*
X178788714Y-44975500D01*
X179001286Y-44975500D01*
X179001287Y-44975500D01*
X179211243Y-44942246D01*
X179413412Y-44876557D01*
X179602816Y-44780051D01*
X179624789Y-44764086D01*
X179774786Y-44655109D01*
X179774786Y-44655108D01*
X179774844Y-44655066D01*
X179775605Y-44654290D01*
X179925104Y-44504792D01*
X179925106Y-44504788D01*
X179925109Y-44504786D01*
X180050048Y-44332820D01*
X180050047Y-44332820D01*
X180050051Y-44332816D01*
X180050053Y-44332810D01*
X180070445Y-44304744D01*
X180078730Y-44276529D01*
X180146557Y-44143412D01*
X180212246Y-43941243D01*
X180245500Y-43731287D01*
X180245500Y-43518713D01*
X180212246Y-43308757D01*
X180146557Y-43106588D01*
X180050051Y-42917184D01*
X180050049Y-42917181D01*
X180050048Y-42917179D01*
X180049702Y-42916703D01*
X180049700Y-42916699D01*
X179925112Y-42745216D01*
X179774788Y-42594892D01*
X179774786Y-42594890D01*
X179602820Y-42469951D01*
X179589167Y-42462994D01*
X179435245Y-42384567D01*
X179435240Y-42384565D01*
X179413414Y-42373444D01*
X179413413Y-42373443D01*
X179413412Y-42373443D01*
X179316550Y-42341970D01*
X179220074Y-42310623D01*
X179215552Y-42308770D01*
X179206362Y-42306600D01*
X179201599Y-42306226D01*
X179049957Y-42282208D01*
X179030489Y-42279124D01*
X179001290Y-42274500D01*
X179001287Y-42274500D01*
X178788713Y-42274500D01*
X178788709Y-42274500D01*
X178749776Y-42280666D01*
X178740042Y-42282208D01*
X178702654Y-42288129D01*
X178578763Y-42307752D01*
X178376582Y-42373445D01*
X178187182Y-42469949D01*
X178015210Y-42594892D01*
X177864892Y-42745210D01*
X177739949Y-42917182D01*
X177643445Y-43106580D01*
X177577752Y-43308759D01*
X177544500Y-43518707D01*
X111800000Y-43518707D01*
X111800000Y-40991829D01*
X111805023Y-40956893D01*
X111809427Y-40941895D01*
X111847172Y-40883144D01*
X111848541Y-40881957D01*
X111903420Y-40854477D01*
X111910979Y-40852833D01*
X111937332Y-40850000D01*
X184102670Y-40850000D01*
X184137606Y-40855023D01*
G37*
%TD.AperFunction*%
%TD*%
%TA.AperFunction,Conductor*%
%TO.N,+15V_ISO_LALS*%
G36*
X106374193Y-79569685D02*
G01*
X106407472Y-79601115D01*
X106535642Y-79777527D01*
X106535646Y-79777532D01*
X106712117Y-79954003D01*
X106712122Y-79954007D01*
X106888222Y-80081950D01*
X106914017Y-80100691D01*
X107136379Y-80213991D01*
X107136381Y-80213992D01*
X107255053Y-80252550D01*
X107373728Y-80291110D01*
X107487889Y-80309191D01*
X107620213Y-80330150D01*
X107620218Y-80330150D01*
X107869787Y-80330150D01*
X107989280Y-80311223D01*
X108116272Y-80291110D01*
X108353621Y-80213991D01*
X108575983Y-80100691D01*
X108777884Y-79954002D01*
X108954352Y-79777534D01*
X109029574Y-79674000D01*
X109082528Y-79601115D01*
X109137857Y-79558449D01*
X109182846Y-79550000D01*
X118876000Y-79550000D01*
X118943039Y-79569685D01*
X118988794Y-79622489D01*
X118999999Y-79673999D01*
X118999994Y-110099755D01*
X127496532Y-110099804D01*
X127563569Y-110119489D01*
X127609324Y-110172293D01*
X127617632Y-110199854D01*
X127617885Y-110199794D01*
X127618945Y-110204212D01*
X127619000Y-110204392D01*
X127619021Y-110204526D01*
X127619022Y-110204531D01*
X127619023Y-110204534D01*
X127682280Y-110399219D01*
X127749692Y-110531523D01*
X127775215Y-110581613D01*
X127895528Y-110747213D01*
X128040286Y-110891971D01*
X128195249Y-111004556D01*
X128205890Y-111012287D01*
X128322107Y-111071503D01*
X128388276Y-111105218D01*
X128388278Y-111105218D01*
X128388281Y-111105220D01*
X128492637Y-111139127D01*
X128582965Y-111168477D01*
X128684057Y-111184488D01*
X128785148Y-111200500D01*
X128785149Y-111200500D01*
X128989851Y-111200500D01*
X128989852Y-111200500D01*
X129192034Y-111168477D01*
X129386719Y-111105220D01*
X129569110Y-111012287D01*
X129665478Y-110942272D01*
X129734713Y-110891971D01*
X129734715Y-110891968D01*
X129734719Y-110891966D01*
X129879466Y-110747219D01*
X129879468Y-110747215D01*
X129879471Y-110747213D01*
X129932232Y-110674590D01*
X129999787Y-110581610D01*
X130092720Y-110399219D01*
X130155977Y-110204534D01*
X130155991Y-110204439D01*
X130156007Y-110204406D01*
X130157112Y-110199806D01*
X130158077Y-110200037D01*
X130185909Y-110141304D01*
X130245214Y-110104362D01*
X130278460Y-110099821D01*
X152075503Y-110099948D01*
X152142540Y-110119633D01*
X152188295Y-110172437D01*
X152199500Y-110223948D01*
X152199500Y-110327351D01*
X152231522Y-110529534D01*
X152294781Y-110724223D01*
X152327161Y-110787771D01*
X152383949Y-110899223D01*
X152387715Y-110906613D01*
X152508028Y-111072213D01*
X152652786Y-111216971D01*
X152781160Y-111310238D01*
X152818390Y-111337287D01*
X152925713Y-111391971D01*
X153000776Y-111430218D01*
X153000778Y-111430218D01*
X153000781Y-111430220D01*
X153105137Y-111464127D01*
X153195465Y-111493477D01*
X153296557Y-111509488D01*
X153397648Y-111525500D01*
X153397649Y-111525500D01*
X153602351Y-111525500D01*
X153602352Y-111525500D01*
X153804534Y-111493477D01*
X153999219Y-111430220D01*
X154181610Y-111337287D01*
X154305579Y-111247219D01*
X154347213Y-111216971D01*
X154347215Y-111216968D01*
X154347219Y-111216966D01*
X154491966Y-111072219D01*
X154491968Y-111072215D01*
X154491971Y-111072213D01*
X154586377Y-110942272D01*
X154612287Y-110906610D01*
X154705220Y-110724219D01*
X154768477Y-110529534D01*
X154800500Y-110327352D01*
X154800500Y-110223964D01*
X154820185Y-110156925D01*
X154872989Y-110111170D01*
X154924494Y-110099965D01*
X156885626Y-110099976D01*
X156952663Y-110119661D01*
X156998418Y-110172465D01*
X157008361Y-110241624D01*
X157008096Y-110243373D01*
X156999500Y-110297647D01*
X156999500Y-110502351D01*
X157031522Y-110704534D01*
X157094781Y-110899223D01*
X157187715Y-111081613D01*
X157308028Y-111247213D01*
X157452786Y-111391971D01*
X157592500Y-111493477D01*
X157618390Y-111512287D01*
X157734607Y-111571503D01*
X157800776Y-111605218D01*
X157800778Y-111605218D01*
X157800781Y-111605220D01*
X157858417Y-111623947D01*
X157995465Y-111668477D01*
X158076262Y-111681274D01*
X158197648Y-111700500D01*
X158197649Y-111700500D01*
X158402351Y-111700500D01*
X158402352Y-111700500D01*
X158604534Y-111668477D01*
X158799219Y-111605220D01*
X158981610Y-111512287D01*
X159147219Y-111391966D01*
X159252959Y-111286225D01*
X159314278Y-111252743D01*
X159383970Y-111257727D01*
X159439904Y-111299598D01*
X159464321Y-111365062D01*
X159458568Y-111412227D01*
X159431523Y-111495461D01*
X159431523Y-111495464D01*
X159399500Y-111697648D01*
X159399500Y-111902351D01*
X159431522Y-112104534D01*
X159494781Y-112299223D01*
X159587715Y-112481613D01*
X159708028Y-112647213D01*
X159852786Y-112791971D01*
X159980411Y-112884694D01*
X160018390Y-112912287D01*
X160131305Y-112969820D01*
X160200776Y-113005218D01*
X160200778Y-113005218D01*
X160200781Y-113005220D01*
X160268047Y-113027076D01*
X160395465Y-113068477D01*
X160496557Y-113084488D01*
X160597648Y-113100500D01*
X160597649Y-113100500D01*
X160726000Y-113100500D01*
X160793039Y-113120185D01*
X160838794Y-113172989D01*
X160850000Y-113224500D01*
X160850000Y-119698638D01*
X160830315Y-119765677D01*
X160813681Y-119786319D01*
X160282621Y-120317378D01*
X160221298Y-120350863D01*
X160194925Y-120353697D01*
X111079695Y-120347829D01*
X111012658Y-120328136D01*
X110966909Y-120275327D01*
X110956771Y-120207645D01*
X110975500Y-120065389D01*
X110975500Y-119834611D01*
X110945377Y-119605807D01*
X110885647Y-119382892D01*
X110797332Y-119169680D01*
X110681943Y-118969820D01*
X110541454Y-118786731D01*
X110541449Y-118786725D01*
X110378274Y-118623550D01*
X110378267Y-118623544D01*
X110280305Y-118548376D01*
X110239102Y-118491949D01*
X110234947Y-118422203D01*
X110269159Y-118361282D01*
X110280305Y-118351624D01*
X110378269Y-118276454D01*
X110541454Y-118113269D01*
X110681943Y-117930180D01*
X110797332Y-117730320D01*
X110885647Y-117517108D01*
X110945377Y-117294193D01*
X110975500Y-117065389D01*
X110975500Y-116834611D01*
X110945377Y-116605807D01*
X110885647Y-116382892D01*
X110797332Y-116169680D01*
X110755744Y-116097648D01*
X110726877Y-116047648D01*
X120837000Y-116047648D01*
X120837000Y-116252351D01*
X120869022Y-116454534D01*
X120932281Y-116649223D01*
X120957756Y-116699219D01*
X121010305Y-116802352D01*
X121025215Y-116831613D01*
X121145528Y-116997213D01*
X121290286Y-117141971D01*
X121445249Y-117254556D01*
X121455890Y-117262287D01*
X121572107Y-117321503D01*
X121638276Y-117355218D01*
X121638278Y-117355218D01*
X121638281Y-117355220D01*
X121742637Y-117389127D01*
X121832965Y-117418477D01*
X121934057Y-117434488D01*
X122035148Y-117450500D01*
X122035149Y-117450500D01*
X122239851Y-117450500D01*
X122239852Y-117450500D01*
X122442034Y-117418477D01*
X122636719Y-117355220D01*
X122819110Y-117262287D01*
X122912090Y-117194732D01*
X122984713Y-117141971D01*
X122984715Y-117141968D01*
X122984719Y-117141966D01*
X123129466Y-116997219D01*
X123129468Y-116997215D01*
X123129471Y-116997213D01*
X123247602Y-116834617D01*
X123249787Y-116831610D01*
X123342720Y-116649219D01*
X123405977Y-116454534D01*
X123438000Y-116252352D01*
X123438000Y-116097648D01*
X127142000Y-116097648D01*
X127142000Y-116302351D01*
X127174022Y-116504534D01*
X127237281Y-116699223D01*
X127330215Y-116881613D01*
X127450528Y-117047213D01*
X127595286Y-117191971D01*
X127750249Y-117304556D01*
X127760890Y-117312287D01*
X127877107Y-117371503D01*
X127943276Y-117405218D01*
X127943278Y-117405218D01*
X127943281Y-117405220D01*
X128047637Y-117439127D01*
X128137965Y-117468477D01*
X128239057Y-117484488D01*
X128340148Y-117500500D01*
X128340149Y-117500500D01*
X128544851Y-117500500D01*
X128544852Y-117500500D01*
X128747034Y-117468477D01*
X128941719Y-117405220D01*
X129021204Y-117364719D01*
X129089873Y-117351823D01*
X129133794Y-117364719D01*
X129156295Y-117376184D01*
X129213274Y-117405217D01*
X129213277Y-117405217D01*
X129213281Y-117405220D01*
X129347745Y-117448910D01*
X129407965Y-117468477D01*
X129509057Y-117484488D01*
X129610148Y-117500500D01*
X129610149Y-117500500D01*
X129814851Y-117500500D01*
X129814852Y-117500500D01*
X130017034Y-117468477D01*
X130211719Y-117405220D01*
X130268705Y-117376184D01*
X130337374Y-117363288D01*
X130381295Y-117376184D01*
X130438276Y-117405218D01*
X130438278Y-117405218D01*
X130438281Y-117405220D01*
X130542637Y-117439127D01*
X130632965Y-117468477D01*
X130734057Y-117484488D01*
X130835148Y-117500500D01*
X130835149Y-117500500D01*
X131039851Y-117500500D01*
X131039852Y-117500500D01*
X131242034Y-117468477D01*
X131436719Y-117405220D01*
X131619110Y-117312287D01*
X131774731Y-117199223D01*
X131784713Y-117191971D01*
X131784715Y-117191968D01*
X131784719Y-117191966D01*
X131929466Y-117047219D01*
X131929468Y-117047215D01*
X131929471Y-117047213D01*
X131996805Y-116954534D01*
X132049787Y-116881610D01*
X132142720Y-116699219D01*
X132191968Y-116547648D01*
X147699500Y-116547648D01*
X147699500Y-116752351D01*
X147731522Y-116954534D01*
X147794781Y-117149223D01*
X147852391Y-117262287D01*
X147877867Y-117312287D01*
X147887715Y-117331613D01*
X148008028Y-117497213D01*
X148152786Y-117641971D01*
X148274395Y-117730323D01*
X148318390Y-117762287D01*
X148434607Y-117821503D01*
X148500776Y-117855218D01*
X148500778Y-117855218D01*
X148500781Y-117855220D01*
X148605137Y-117889127D01*
X148695465Y-117918477D01*
X148796557Y-117934488D01*
X148897648Y-117950500D01*
X148897649Y-117950500D01*
X149102351Y-117950500D01*
X149102352Y-117950500D01*
X149304534Y-117918477D01*
X149499219Y-117855220D01*
X149681610Y-117762287D01*
X149774590Y-117694732D01*
X149847213Y-117641971D01*
X149847215Y-117641968D01*
X149847219Y-117641966D01*
X149991966Y-117497219D01*
X149991968Y-117497215D01*
X149991971Y-117497213D01*
X150049175Y-117418477D01*
X150112287Y-117331610D01*
X150205220Y-117149219D01*
X150268477Y-116954534D01*
X150300500Y-116752352D01*
X150300500Y-116597648D01*
X154049500Y-116597648D01*
X154049500Y-116802351D01*
X154081522Y-117004534D01*
X154144781Y-117199223D01*
X154202391Y-117312287D01*
X154234948Y-117376184D01*
X154237715Y-117381613D01*
X154358028Y-117547213D01*
X154502786Y-117691971D01*
X154599566Y-117762284D01*
X154668390Y-117812287D01*
X154784607Y-117871503D01*
X154850776Y-117905218D01*
X154850778Y-117905218D01*
X154850781Y-117905220D01*
X154927597Y-117930179D01*
X155045465Y-117968477D01*
X155080980Y-117974102D01*
X155247648Y-118000500D01*
X155247649Y-118000500D01*
X155452351Y-118000500D01*
X155452352Y-118000500D01*
X155654534Y-117968477D01*
X155849219Y-117905220D01*
X155968705Y-117844337D01*
X156037374Y-117831441D01*
X156081293Y-117844337D01*
X156200781Y-117905220D01*
X156357701Y-117956206D01*
X156395465Y-117968477D01*
X156430980Y-117974102D01*
X156597648Y-118000500D01*
X156597649Y-118000500D01*
X156802351Y-118000500D01*
X156802352Y-118000500D01*
X157004534Y-117968477D01*
X157199219Y-117905220D01*
X157293705Y-117857076D01*
X157362373Y-117844180D01*
X157406294Y-117857076D01*
X157437395Y-117872923D01*
X157500774Y-117905217D01*
X157500777Y-117905217D01*
X157500781Y-117905220D01*
X157635245Y-117948910D01*
X157695465Y-117968477D01*
X157730980Y-117974102D01*
X157897648Y-118000500D01*
X157897649Y-118000500D01*
X158102351Y-118000500D01*
X158102352Y-118000500D01*
X158304534Y-117968477D01*
X158499219Y-117905220D01*
X158681610Y-117812287D01*
X158794429Y-117730320D01*
X158847213Y-117691971D01*
X158847215Y-117691968D01*
X158847219Y-117691966D01*
X158991966Y-117547219D01*
X158991968Y-117547215D01*
X158991971Y-117547213D01*
X159062236Y-117450500D01*
X159112287Y-117381610D01*
X159205220Y-117199219D01*
X159268477Y-117004534D01*
X159300500Y-116802352D01*
X159300500Y-116597648D01*
X159268477Y-116395466D01*
X159264391Y-116382892D01*
X159205218Y-116200776D01*
X159152671Y-116097648D01*
X159112287Y-116018390D01*
X159076999Y-115969820D01*
X158991971Y-115852786D01*
X158847213Y-115708028D01*
X158681613Y-115587715D01*
X158681612Y-115587714D01*
X158681610Y-115587713D01*
X158593703Y-115542922D01*
X158499223Y-115494781D01*
X158304534Y-115431522D01*
X158129995Y-115403878D01*
X158102352Y-115399500D01*
X157897648Y-115399500D01*
X157843654Y-115408052D01*
X157695464Y-115431523D01*
X157695461Y-115431523D01*
X157500781Y-115494779D01*
X157500780Y-115494779D01*
X157406294Y-115542922D01*
X157337625Y-115555818D01*
X157293706Y-115542922D01*
X157199219Y-115494779D01*
X157004536Y-115431523D01*
X156856346Y-115408052D01*
X156802352Y-115399500D01*
X156597648Y-115399500D01*
X156573329Y-115403351D01*
X156395465Y-115431522D01*
X156200776Y-115494781D01*
X156081295Y-115555661D01*
X156012626Y-115568557D01*
X155968705Y-115555661D01*
X155849223Y-115494781D01*
X155654534Y-115431522D01*
X155479995Y-115403878D01*
X155452352Y-115399500D01*
X155247648Y-115399500D01*
X155223329Y-115403351D01*
X155045465Y-115431522D01*
X154850776Y-115494781D01*
X154668386Y-115587715D01*
X154502786Y-115708028D01*
X154358028Y-115852786D01*
X154237715Y-116018386D01*
X154144781Y-116200776D01*
X154081522Y-116395465D01*
X154049500Y-116597648D01*
X150300500Y-116597648D01*
X150300500Y-116547648D01*
X150268477Y-116345466D01*
X150254468Y-116302352D01*
X150221464Y-116200776D01*
X150205220Y-116150781D01*
X150205218Y-116150778D01*
X150205218Y-116150776D01*
X150137761Y-116018386D01*
X150112287Y-115968390D01*
X150084433Y-115930052D01*
X149991971Y-115802786D01*
X149847213Y-115658028D01*
X149681613Y-115537715D01*
X149681612Y-115537714D01*
X149681610Y-115537713D01*
X149624653Y-115508691D01*
X149499223Y-115444781D01*
X149304534Y-115381522D01*
X149129995Y-115353878D01*
X149102352Y-115349500D01*
X148897648Y-115349500D01*
X148884238Y-115351624D01*
X148695465Y-115381522D01*
X148500776Y-115444781D01*
X148318386Y-115537715D01*
X148152786Y-115658028D01*
X148008028Y-115802786D01*
X147887715Y-115968386D01*
X147794781Y-116150776D01*
X147731522Y-116345465D01*
X147699500Y-116547648D01*
X132191968Y-116547648D01*
X132205977Y-116504534D01*
X132238000Y-116302352D01*
X132238000Y-116097648D01*
X132205977Y-115895466D01*
X132192109Y-115852786D01*
X132160408Y-115755220D01*
X132142720Y-115700781D01*
X132142718Y-115700778D01*
X132142718Y-115700776D01*
X132085110Y-115587715D01*
X132049787Y-115518390D01*
X132032634Y-115494781D01*
X131929471Y-115352786D01*
X131784713Y-115208028D01*
X131619113Y-115087715D01*
X131619112Y-115087714D01*
X131619110Y-115087713D01*
X131549999Y-115052499D01*
X131436723Y-114994781D01*
X131242034Y-114931522D01*
X131067495Y-114903878D01*
X131039852Y-114899500D01*
X130835148Y-114899500D01*
X130767754Y-114910174D01*
X130632964Y-114931523D01*
X130632961Y-114931523D01*
X130438281Y-114994779D01*
X130438280Y-114994779D01*
X130381294Y-115023815D01*
X130312625Y-115036711D01*
X130268706Y-115023815D01*
X130211719Y-114994779D01*
X130017036Y-114931523D01*
X129882246Y-114910174D01*
X129814852Y-114899500D01*
X129610148Y-114899500D01*
X129542754Y-114910174D01*
X129407964Y-114931523D01*
X129407961Y-114931523D01*
X129213282Y-114994779D01*
X129213281Y-114994779D01*
X129133794Y-115035280D01*
X129065125Y-115048176D01*
X129021206Y-115035280D01*
X128941718Y-114994779D01*
X128747036Y-114931523D01*
X128612246Y-114910174D01*
X128544852Y-114899500D01*
X128340148Y-114899500D01*
X128315829Y-114903351D01*
X128137965Y-114931522D01*
X127943276Y-114994781D01*
X127760886Y-115087715D01*
X127595286Y-115208028D01*
X127450528Y-115352786D01*
X127330215Y-115518386D01*
X127237281Y-115700776D01*
X127174022Y-115895465D01*
X127142000Y-116097648D01*
X123438000Y-116097648D01*
X123438000Y-116047648D01*
X123412190Y-115884694D01*
X123405977Y-115845465D01*
X123376627Y-115755137D01*
X123342720Y-115650781D01*
X123342718Y-115650778D01*
X123342718Y-115650776D01*
X123285110Y-115537715D01*
X123249787Y-115468390D01*
X123232634Y-115444781D01*
X123129471Y-115302786D01*
X122984713Y-115158028D01*
X122819113Y-115037715D01*
X122819112Y-115037714D01*
X122819110Y-115037713D01*
X122748817Y-115001897D01*
X122636723Y-114944781D01*
X122442034Y-114881522D01*
X122267495Y-114853878D01*
X122239852Y-114849500D01*
X122035148Y-114849500D01*
X122010829Y-114853351D01*
X121832965Y-114881522D01*
X121638276Y-114944781D01*
X121455886Y-115037715D01*
X121290286Y-115158028D01*
X121145528Y-115302786D01*
X121025215Y-115468386D01*
X120932281Y-115650776D01*
X120869022Y-115845465D01*
X120837000Y-116047648D01*
X110726877Y-116047648D01*
X110681943Y-115969820D01*
X110541455Y-115786732D01*
X110541449Y-115786725D01*
X110378274Y-115623550D01*
X110378267Y-115623544D01*
X110280305Y-115548376D01*
X110239102Y-115491949D01*
X110234947Y-115422203D01*
X110269159Y-115361282D01*
X110280305Y-115351624D01*
X110378269Y-115276454D01*
X110541454Y-115113269D01*
X110681943Y-114930180D01*
X110797332Y-114730320D01*
X110885647Y-114517108D01*
X110904259Y-114447648D01*
X144949500Y-114447648D01*
X144949500Y-114652351D01*
X144981522Y-114854534D01*
X145044781Y-115049223D01*
X145078793Y-115115974D01*
X145125700Y-115208034D01*
X145137715Y-115231613D01*
X145258028Y-115397213D01*
X145402786Y-115541971D01*
X145552546Y-115650776D01*
X145568390Y-115662287D01*
X145684607Y-115721503D01*
X145750776Y-115755218D01*
X145750778Y-115755218D01*
X145750781Y-115755220D01*
X145847743Y-115786725D01*
X145945465Y-115818477D01*
X146046557Y-115834488D01*
X146147648Y-115850500D01*
X146147649Y-115850500D01*
X146352351Y-115850500D01*
X146352352Y-115850500D01*
X146554534Y-115818477D01*
X146749219Y-115755220D01*
X146931610Y-115662287D01*
X147024590Y-115594732D01*
X147097213Y-115541971D01*
X147097215Y-115541968D01*
X147097219Y-115541966D01*
X147241966Y-115397219D01*
X147241968Y-115397215D01*
X147241971Y-115397213D01*
X147310575Y-115302786D01*
X147362287Y-115231610D01*
X147455220Y-115049219D01*
X147518477Y-114854534D01*
X147550500Y-114652352D01*
X147550500Y-114447648D01*
X147526195Y-114294193D01*
X147518477Y-114245465D01*
X147489127Y-114155137D01*
X147455220Y-114050781D01*
X147455218Y-114050778D01*
X147455218Y-114050776D01*
X147421503Y-113984607D01*
X147362287Y-113868390D01*
X147337750Y-113834617D01*
X147241971Y-113702786D01*
X147097213Y-113558028D01*
X146931613Y-113437715D01*
X146931612Y-113437714D01*
X146931610Y-113437713D01*
X146874653Y-113408691D01*
X146749223Y-113344781D01*
X146554534Y-113281522D01*
X146379995Y-113253878D01*
X146352352Y-113249500D01*
X146147648Y-113249500D01*
X146123329Y-113253351D01*
X145945465Y-113281522D01*
X145750776Y-113344781D01*
X145568386Y-113437715D01*
X145402786Y-113558028D01*
X145258028Y-113702786D01*
X145137715Y-113868386D01*
X145044781Y-114050776D01*
X144981522Y-114245465D01*
X144949500Y-114447648D01*
X110904259Y-114447648D01*
X110945377Y-114294193D01*
X110975500Y-114065389D01*
X110975500Y-113834611D01*
X110945377Y-113605807D01*
X110885647Y-113382892D01*
X110797332Y-113169680D01*
X110681943Y-112969820D01*
X110541454Y-112786731D01*
X110541449Y-112786725D01*
X110378274Y-112623550D01*
X110378267Y-112623544D01*
X110195179Y-112483056D01*
X109995323Y-112367669D01*
X109995313Y-112367665D01*
X109782110Y-112279353D01*
X109670650Y-112249488D01*
X109559193Y-112219623D01*
X109508347Y-112212929D01*
X109330396Y-112189500D01*
X109330389Y-112189500D01*
X109099611Y-112189500D01*
X109099603Y-112189500D01*
X108896229Y-112216276D01*
X108870807Y-112219623D01*
X108815078Y-112234555D01*
X108647889Y-112279353D01*
X108434686Y-112367665D01*
X108434676Y-112367669D01*
X108234820Y-112483056D01*
X108051732Y-112623544D01*
X108051725Y-112623550D01*
X107888550Y-112786725D01*
X107888544Y-112786732D01*
X107813376Y-112884694D01*
X107756948Y-112925897D01*
X107687202Y-112930052D01*
X107626282Y-112895840D01*
X107616624Y-112884694D01*
X107541455Y-112786732D01*
X107541449Y-112786725D01*
X107378274Y-112623550D01*
X107378267Y-112623544D01*
X107195179Y-112483056D01*
X106995323Y-112367669D01*
X106995313Y-112367665D01*
X106782110Y-112279353D01*
X106670650Y-112249488D01*
X106559193Y-112219623D01*
X106508347Y-112212929D01*
X106330396Y-112189500D01*
X106330389Y-112189500D01*
X106099611Y-112189500D01*
X106099603Y-112189500D01*
X105896229Y-112216276D01*
X105870807Y-112219623D01*
X105815078Y-112234555D01*
X105647889Y-112279353D01*
X105434686Y-112367665D01*
X105434676Y-112367669D01*
X105234820Y-112483056D01*
X105051732Y-112623544D01*
X105051725Y-112623550D01*
X104888550Y-112786725D01*
X104888544Y-112786732D01*
X104748056Y-112969820D01*
X104632669Y-113169676D01*
X104632665Y-113169686D01*
X104544353Y-113382889D01*
X104484623Y-113605808D01*
X104454500Y-113834603D01*
X104454500Y-114065396D01*
X104477929Y-114243347D01*
X104484623Y-114294193D01*
X104514488Y-114405650D01*
X104544353Y-114517110D01*
X104632665Y-114730313D01*
X104632669Y-114730323D01*
X104748056Y-114930179D01*
X104888544Y-115113267D01*
X104888550Y-115113274D01*
X105051725Y-115276449D01*
X105051732Y-115276455D01*
X105149694Y-115351624D01*
X105190897Y-115408052D01*
X105195052Y-115477798D01*
X105160840Y-115538718D01*
X105149694Y-115548376D01*
X105051732Y-115623544D01*
X105051725Y-115623550D01*
X104888550Y-115786725D01*
X104888544Y-115786732D01*
X104748056Y-115969820D01*
X104632669Y-116169676D01*
X104632665Y-116169686D01*
X104544353Y-116382889D01*
X104484623Y-116605808D01*
X104454500Y-116834603D01*
X104454500Y-117065396D01*
X104465537Y-117149223D01*
X104484623Y-117294193D01*
X104508046Y-117381610D01*
X104544353Y-117517110D01*
X104632665Y-117730313D01*
X104632669Y-117730323D01*
X104748056Y-117930179D01*
X104888544Y-118113267D01*
X104888550Y-118113274D01*
X105051725Y-118276449D01*
X105051732Y-118276455D01*
X105149694Y-118351624D01*
X105190897Y-118408052D01*
X105195052Y-118477798D01*
X105160840Y-118538718D01*
X105149694Y-118548376D01*
X105051732Y-118623544D01*
X105051725Y-118623550D01*
X104888550Y-118786725D01*
X104888544Y-118786732D01*
X104748056Y-118969820D01*
X104632669Y-119169676D01*
X104632665Y-119169686D01*
X104544353Y-119382889D01*
X104484623Y-119605808D01*
X104454500Y-119834603D01*
X104454500Y-120065382D01*
X104454501Y-120065399D01*
X104473122Y-120206841D01*
X104462356Y-120275876D01*
X104415976Y-120328132D01*
X104350168Y-120347026D01*
X102449485Y-120346798D01*
X102382448Y-120327105D01*
X102336699Y-120274296D01*
X102325500Y-120222798D01*
X102325500Y-110875092D01*
X109394500Y-110875092D01*
X109394500Y-111024907D01*
X109423723Y-111171822D01*
X109423725Y-111171830D01*
X109481051Y-111310229D01*
X109481056Y-111310238D01*
X109564280Y-111434790D01*
X109564283Y-111434794D01*
X109670205Y-111540716D01*
X109670209Y-111540719D01*
X109794761Y-111623943D01*
X109794767Y-111623946D01*
X109794768Y-111623947D01*
X109933170Y-111681275D01*
X110029823Y-111700500D01*
X110080092Y-111710499D01*
X110080096Y-111710500D01*
X110080097Y-111710500D01*
X110229904Y-111710500D01*
X110229905Y-111710499D01*
X110376830Y-111681275D01*
X110515232Y-111623947D01*
X110639791Y-111540719D01*
X110745719Y-111434791D01*
X110828947Y-111310232D01*
X110886275Y-111171830D01*
X110915500Y-111024903D01*
X110915500Y-110875097D01*
X110886275Y-110728170D01*
X110841934Y-110621123D01*
X110828948Y-110589770D01*
X110828943Y-110589761D01*
X110745719Y-110465209D01*
X110745716Y-110465205D01*
X110639794Y-110359283D01*
X110639790Y-110359280D01*
X110515238Y-110276056D01*
X110515229Y-110276051D01*
X110376830Y-110218725D01*
X110376822Y-110218723D01*
X110229907Y-110189500D01*
X110229903Y-110189500D01*
X110080097Y-110189500D01*
X110080092Y-110189500D01*
X109933177Y-110218723D01*
X109933169Y-110218725D01*
X109794770Y-110276051D01*
X109794761Y-110276056D01*
X109670209Y-110359280D01*
X109670205Y-110359283D01*
X109564283Y-110465205D01*
X109564280Y-110465209D01*
X109481056Y-110589761D01*
X109481051Y-110589770D01*
X109423725Y-110728169D01*
X109423723Y-110728177D01*
X109394500Y-110875092D01*
X102325500Y-110875092D01*
X102325500Y-102272087D01*
X102345185Y-102205048D01*
X102397989Y-102159293D01*
X102467147Y-102149349D01*
X102524986Y-102173711D01*
X102604565Y-102234774D01*
X102604572Y-102234778D01*
X102807527Y-102351955D01*
X102807532Y-102351957D01*
X102807535Y-102351959D01*
X102807539Y-102351960D01*
X102807544Y-102351963D01*
X102876212Y-102380406D01*
X103024065Y-102441649D01*
X103250450Y-102502308D01*
X103482815Y-102532900D01*
X103482822Y-102532900D01*
X103717178Y-102532900D01*
X103717185Y-102532900D01*
X103949550Y-102502308D01*
X104175935Y-102441649D01*
X104392465Y-102351959D01*
X104595435Y-102234774D01*
X104774514Y-102097362D01*
X104839683Y-102072168D01*
X104908128Y-102086206D01*
X104925487Y-102097362D01*
X105104565Y-102234774D01*
X105104572Y-102234778D01*
X105307527Y-102351955D01*
X105307532Y-102351957D01*
X105307535Y-102351959D01*
X105307539Y-102351960D01*
X105307544Y-102351963D01*
X105376212Y-102380406D01*
X105524065Y-102441649D01*
X105750450Y-102502308D01*
X105982815Y-102532900D01*
X105982822Y-102532900D01*
X106217178Y-102532900D01*
X106217185Y-102532900D01*
X106449550Y-102502308D01*
X106675935Y-102441649D01*
X106892465Y-102351959D01*
X107095435Y-102234774D01*
X107274514Y-102097362D01*
X107339683Y-102072168D01*
X107408128Y-102086206D01*
X107425487Y-102097362D01*
X107604565Y-102234774D01*
X107604572Y-102234778D01*
X107807527Y-102351955D01*
X107807532Y-102351957D01*
X107807535Y-102351959D01*
X107807539Y-102351960D01*
X107807544Y-102351963D01*
X107876212Y-102380406D01*
X108024065Y-102441649D01*
X108250450Y-102502308D01*
X108482815Y-102532900D01*
X108482822Y-102532900D01*
X108717178Y-102532900D01*
X108717185Y-102532900D01*
X108949550Y-102502308D01*
X109175935Y-102441649D01*
X109392465Y-102351959D01*
X109595435Y-102234774D01*
X109774514Y-102097362D01*
X109839683Y-102072168D01*
X109908128Y-102086206D01*
X109925487Y-102097362D01*
X110104565Y-102234774D01*
X110104572Y-102234778D01*
X110307527Y-102351955D01*
X110307532Y-102351957D01*
X110307535Y-102351959D01*
X110307539Y-102351960D01*
X110307544Y-102351963D01*
X110376212Y-102380406D01*
X110524065Y-102441649D01*
X110750450Y-102502308D01*
X110982815Y-102532900D01*
X110982822Y-102532900D01*
X111217178Y-102532900D01*
X111217185Y-102532900D01*
X111449550Y-102502308D01*
X111675935Y-102441649D01*
X111892465Y-102351959D01*
X112095435Y-102234774D01*
X112274514Y-102097362D01*
X112339683Y-102072168D01*
X112408128Y-102086206D01*
X112425487Y-102097362D01*
X112604565Y-102234774D01*
X112604572Y-102234778D01*
X112807527Y-102351955D01*
X112807532Y-102351957D01*
X112807535Y-102351959D01*
X112807539Y-102351960D01*
X112807544Y-102351963D01*
X112876212Y-102380406D01*
X113024065Y-102441649D01*
X113250450Y-102502308D01*
X113482815Y-102532900D01*
X113482822Y-102532900D01*
X113717178Y-102532900D01*
X113717185Y-102532900D01*
X113949550Y-102502308D01*
X114175935Y-102441649D01*
X114392465Y-102351959D01*
X114595435Y-102234774D01*
X114781374Y-102092098D01*
X114947098Y-101926374D01*
X115089774Y-101740435D01*
X115206959Y-101537465D01*
X115296649Y-101320935D01*
X115357308Y-101094550D01*
X115387900Y-100862185D01*
X115387900Y-100627815D01*
X115357308Y-100395450D01*
X115296649Y-100169065D01*
X115206959Y-99952535D01*
X115206957Y-99952532D01*
X115206955Y-99952527D01*
X115089778Y-99749572D01*
X115089774Y-99749565D01*
X114947098Y-99563626D01*
X114947093Y-99563620D01*
X114781379Y-99397906D01*
X114781372Y-99397900D01*
X114710315Y-99343376D01*
X114669112Y-99286948D01*
X114664957Y-99217202D01*
X114699169Y-99156282D01*
X114710310Y-99146628D01*
X114781374Y-99092099D01*
X114947098Y-98926375D01*
X115089774Y-98740436D01*
X115206959Y-98537466D01*
X115296649Y-98320936D01*
X115357308Y-98094551D01*
X115387900Y-97862186D01*
X115387900Y-97627816D01*
X115357308Y-97395451D01*
X115296649Y-97169066D01*
X115206959Y-96952536D01*
X115206957Y-96952533D01*
X115206955Y-96952528D01*
X115089778Y-96749573D01*
X115089774Y-96749566D01*
X114952362Y-96570487D01*
X114927168Y-96505318D01*
X114941206Y-96436873D01*
X114952362Y-96419515D01*
X114971256Y-96394890D01*
X115089774Y-96240436D01*
X115206959Y-96037466D01*
X115296649Y-95820936D01*
X115357308Y-95594551D01*
X115387900Y-95362186D01*
X115387900Y-95127816D01*
X115357308Y-94895451D01*
X115296649Y-94669066D01*
X115206959Y-94452536D01*
X115206957Y-94452533D01*
X115206955Y-94452528D01*
X115089778Y-94249573D01*
X115089774Y-94249566D01*
X114947098Y-94063627D01*
X114947093Y-94063621D01*
X114781379Y-93897907D01*
X114781372Y-93897901D01*
X114710313Y-93843376D01*
X114669110Y-93786949D01*
X114664955Y-93717203D01*
X114699167Y-93656282D01*
X114710313Y-93646624D01*
X114781374Y-93592097D01*
X114947098Y-93426373D01*
X115089774Y-93240434D01*
X115206959Y-93037464D01*
X115296649Y-92820934D01*
X115357308Y-92594549D01*
X115387900Y-92362184D01*
X115387900Y-92127814D01*
X115357308Y-91895449D01*
X115296649Y-91669064D01*
X115206959Y-91452534D01*
X115206957Y-91452531D01*
X115206955Y-91452526D01*
X115089778Y-91249571D01*
X115089774Y-91249564D01*
X114947098Y-91063625D01*
X114947093Y-91063619D01*
X114781379Y-90897905D01*
X114781372Y-90897899D01*
X114595443Y-90755231D01*
X114595441Y-90755229D01*
X114595435Y-90755225D01*
X114595430Y-90755222D01*
X114595427Y-90755220D01*
X114392472Y-90638043D01*
X114392455Y-90638035D01*
X114175935Y-90548350D01*
X113949550Y-90487691D01*
X113910715Y-90482578D01*
X113717192Y-90457099D01*
X113717185Y-90457099D01*
X113482815Y-90457099D01*
X113482807Y-90457099D01*
X113261637Y-90486218D01*
X113250450Y-90487691D01*
X113154763Y-90513329D01*
X113024064Y-90548350D01*
X112807544Y-90638035D01*
X112807527Y-90638043D01*
X112604572Y-90755220D01*
X112604556Y-90755231D01*
X112425486Y-90892636D01*
X112360317Y-90917830D01*
X112291872Y-90903791D01*
X112274514Y-90892636D01*
X112095443Y-90755231D01*
X112095441Y-90755229D01*
X112095435Y-90755225D01*
X112095430Y-90755222D01*
X112095427Y-90755220D01*
X111892472Y-90638043D01*
X111892455Y-90638035D01*
X111675935Y-90548350D01*
X111449550Y-90487691D01*
X111410715Y-90482578D01*
X111217192Y-90457099D01*
X111217185Y-90457099D01*
X110982815Y-90457099D01*
X110982807Y-90457099D01*
X110761637Y-90486218D01*
X110750450Y-90487691D01*
X110654763Y-90513329D01*
X110524064Y-90548350D01*
X110307544Y-90638035D01*
X110307527Y-90638043D01*
X110104572Y-90755220D01*
X110104556Y-90755231D01*
X109925486Y-90892636D01*
X109860317Y-90917830D01*
X109791872Y-90903791D01*
X109774514Y-90892636D01*
X109595443Y-90755231D01*
X109595441Y-90755229D01*
X109595435Y-90755225D01*
X109595430Y-90755222D01*
X109595427Y-90755220D01*
X109392472Y-90638043D01*
X109392455Y-90638035D01*
X109175935Y-90548350D01*
X108949550Y-90487691D01*
X108910715Y-90482578D01*
X108717192Y-90457099D01*
X108717185Y-90457099D01*
X108482815Y-90457099D01*
X108482807Y-90457099D01*
X108261637Y-90486218D01*
X108250450Y-90487691D01*
X108154763Y-90513329D01*
X108024064Y-90548350D01*
X107807544Y-90638035D01*
X107807527Y-90638043D01*
X107604572Y-90755220D01*
X107604556Y-90755231D01*
X107425486Y-90892636D01*
X107360317Y-90917830D01*
X107291872Y-90903791D01*
X107274514Y-90892636D01*
X107095443Y-90755231D01*
X107095441Y-90755229D01*
X107095435Y-90755225D01*
X107095430Y-90755222D01*
X107095427Y-90755220D01*
X106892472Y-90638043D01*
X106892455Y-90638035D01*
X106675935Y-90548350D01*
X106449550Y-90487691D01*
X106410715Y-90482578D01*
X106217192Y-90457099D01*
X106217185Y-90457099D01*
X105982815Y-90457099D01*
X105982807Y-90457099D01*
X105761637Y-90486218D01*
X105750450Y-90487691D01*
X105654763Y-90513329D01*
X105524064Y-90548350D01*
X105307544Y-90638035D01*
X105307527Y-90638043D01*
X105104572Y-90755220D01*
X105104556Y-90755231D01*
X104925486Y-90892636D01*
X104860317Y-90917830D01*
X104791872Y-90903791D01*
X104774514Y-90892636D01*
X104595443Y-90755231D01*
X104595441Y-90755229D01*
X104595435Y-90755225D01*
X104595430Y-90755222D01*
X104595427Y-90755220D01*
X104392472Y-90638043D01*
X104392455Y-90638035D01*
X104175935Y-90548350D01*
X103949550Y-90487691D01*
X103910715Y-90482578D01*
X103717192Y-90457099D01*
X103717185Y-90457099D01*
X103482815Y-90457099D01*
X103482807Y-90457099D01*
X103261637Y-90486218D01*
X103250450Y-90487691D01*
X103154763Y-90513329D01*
X103024064Y-90548350D01*
X102807544Y-90638035D01*
X102807527Y-90638043D01*
X102604572Y-90755220D01*
X102604555Y-90755231D01*
X102524986Y-90816287D01*
X102459816Y-90841481D01*
X102391372Y-90827442D01*
X102341382Y-90778628D01*
X102325500Y-90717911D01*
X102325500Y-83745184D01*
X105464500Y-83745184D01*
X105464500Y-84044115D01*
X105464501Y-84044131D01*
X105503519Y-84340504D01*
X105580894Y-84629270D01*
X105592419Y-84657093D01*
X105695293Y-84905453D01*
X105844765Y-85164346D01*
X105844770Y-85164352D01*
X105844771Y-85164354D01*
X106026749Y-85401512D01*
X106026755Y-85401519D01*
X106238130Y-85612894D01*
X106238137Y-85612900D01*
X106407034Y-85742499D01*
X106475304Y-85794885D01*
X106734197Y-85944357D01*
X107010384Y-86058757D01*
X107299142Y-86136130D01*
X107595528Y-86175150D01*
X107595535Y-86175150D01*
X107894465Y-86175150D01*
X107894472Y-86175150D01*
X108190858Y-86136130D01*
X108479616Y-86058757D01*
X108755803Y-85944357D01*
X109014696Y-85794885D01*
X109251864Y-85612899D01*
X109463249Y-85401514D01*
X109645235Y-85164346D01*
X109794707Y-84905453D01*
X109909107Y-84629266D01*
X109986480Y-84340508D01*
X110025500Y-84044122D01*
X110025500Y-83745178D01*
X109986480Y-83448792D01*
X109909107Y-83160034D01*
X109794707Y-82883847D01*
X109645235Y-82624954D01*
X109573543Y-82531523D01*
X109463250Y-82387787D01*
X109463244Y-82387780D01*
X109251869Y-82176405D01*
X109251862Y-82176399D01*
X109014704Y-81994421D01*
X109014702Y-81994419D01*
X109014696Y-81994415D01*
X109014691Y-81994412D01*
X109014688Y-81994410D01*
X108892000Y-81923576D01*
X108843784Y-81873009D01*
X108830000Y-81816189D01*
X108830000Y-81659253D01*
X108803284Y-81490578D01*
X108750507Y-81328150D01*
X108672975Y-81175986D01*
X108670551Y-81172650D01*
X108236127Y-81607074D01*
X108220245Y-81547797D01*
X108153102Y-81431503D01*
X108058147Y-81336548D01*
X107941853Y-81269405D01*
X107812143Y-81234650D01*
X107788721Y-81234650D01*
X108310783Y-80815207D01*
X108161499Y-80739142D01*
X107999071Y-80686365D01*
X107830396Y-80659650D01*
X107659604Y-80659650D01*
X107490928Y-80686365D01*
X107328500Y-80739142D01*
X107176336Y-80816675D01*
X107173001Y-80819096D01*
X107173001Y-80819097D01*
X107607425Y-81253521D01*
X107548147Y-81269405D01*
X107431853Y-81336548D01*
X107336898Y-81431503D01*
X107269755Y-81547797D01*
X107253871Y-81607075D01*
X106819447Y-81172651D01*
X106819446Y-81172651D01*
X106817025Y-81175986D01*
X106739492Y-81328150D01*
X106686715Y-81490578D01*
X106660000Y-81659253D01*
X106660000Y-81816189D01*
X106640315Y-81883228D01*
X106598000Y-81923576D01*
X106475311Y-81994410D01*
X106475295Y-81994421D01*
X106238137Y-82176399D01*
X106238130Y-82176405D01*
X106026755Y-82387780D01*
X106026749Y-82387787D01*
X105844771Y-82624945D01*
X105844761Y-82624960D01*
X105695294Y-82883844D01*
X105695290Y-82883853D01*
X105580894Y-83160029D01*
X105503519Y-83448795D01*
X105464501Y-83745168D01*
X105464500Y-83745184D01*
X102325500Y-83745184D01*
X102325500Y-79674000D01*
X102345185Y-79606961D01*
X102397989Y-79561206D01*
X102449500Y-79550000D01*
X106307154Y-79550000D01*
X106374193Y-79569685D01*
G37*
%TD.AperFunction*%
%TD*%
M02*
