%TF.GenerationSoftware,KiCad,Pcbnew,10.0.0*%
%TF.CreationDate,2026-03-27T13:38:28-04:00*%
%TF.ProjectId,Full_Bridge_Circuit,46756c6c-5f42-4726-9964-67655f436972,rev?*%
%TF.SameCoordinates,Original*%
%TF.FileFunction,Soldermask,Bot*%
%TF.FilePolarity,Negative*%
%FSLAX46Y46*%
G04 Gerber Fmt 4.6, Leading zero omitted, Abs format (unit mm)*
G04 Created by KiCad (PCBNEW 10.0.0) date 2026-03-27 13:38:28*
%MOMM*%
%LPD*%
G01*
G04 APERTURE LIST*
%ADD10R,1.900000X1.900000*%
%ADD11R,2.286000X4.064000*%
%ADD12O,2.286000X4.064000*%
%ADD13C,2.560000*%
%ADD14R,1.170000X1.170000*%
%ADD15C,1.170000*%
%ADD16C,1.020000*%
%ADD17R,1.520000X1.520000*%
%ADD18C,1.520000*%
%ADD19C,1.574800*%
%ADD20C,2.200000*%
G04 APERTURE END LIST*
D10*
%TO.C,TP26*%
X144945000Y-140725000D03*
%TD*%
%TO.C,TP32*%
X179995000Y-108425000D03*
%TD*%
D11*
%TO.C,Q4*%
X122192100Y-87242500D03*
D12*
X127272100Y-87242500D03*
X129812100Y-87242500D03*
X132352100Y-87242500D03*
%TD*%
D13*
%TO.C,J14*%
X107715000Y-49650000D03*
X107715000Y-62950000D03*
D14*
X107715000Y-60800000D03*
D15*
X107715000Y-57800000D03*
X107715000Y-54800000D03*
X107715000Y-51800000D03*
%TD*%
D11*
%TO.C,Q3*%
X149547100Y-101317500D03*
D12*
X154627100Y-101317500D03*
X157167100Y-101317500D03*
X159707100Y-101317500D03*
%TD*%
D10*
%TO.C,TP36*%
X139145000Y-81275000D03*
%TD*%
D11*
%TO.C,Q2*%
X122434600Y-101317500D03*
D12*
X127514600Y-101317500D03*
X130054600Y-101317500D03*
X132594600Y-101317500D03*
%TD*%
D16*
%TO.C,J29*%
X180075000Y-50353250D03*
X180075000Y-56353250D03*
D17*
X176135000Y-53353250D03*
D18*
X179135000Y-53353250D03*
%TD*%
D10*
%TO.C,TP24*%
X161495000Y-48725000D03*
%TD*%
D19*
%TO.C,J16*%
X180450000Y-100745000D03*
X177950000Y-100745000D03*
X175450000Y-100745000D03*
X172950000Y-100745000D03*
X170450000Y-100745000D03*
X180450000Y-97744998D03*
X177950000Y-97744998D03*
X175450000Y-97744998D03*
X172950000Y-97744998D03*
X170450000Y-97744998D03*
X180450000Y-95244998D03*
X177950000Y-95244998D03*
X175450000Y-95244998D03*
X172950000Y-95244998D03*
X170450000Y-95244998D03*
X180450000Y-92244999D03*
X177950000Y-92244999D03*
X175450000Y-92244999D03*
X172950000Y-92244999D03*
X170450000Y-92244999D03*
%TD*%
D20*
%TO.C,H28*%
X178895000Y-43625000D03*
%TD*%
D13*
%TO.C,J15*%
X107745000Y-83894650D03*
X107745000Y-70594650D03*
D14*
X107745000Y-72744650D03*
D15*
X107745000Y-75744650D03*
X107745000Y-78744650D03*
X107745000Y-81744650D03*
%TD*%
D10*
%TO.C,TP33*%
X180145000Y-81425000D03*
%TD*%
%TO.C,TP35*%
X165345000Y-107725000D03*
%TD*%
D16*
%TO.C,J13*%
X110155000Y-110950000D03*
X110155000Y-131950000D03*
D17*
X106215000Y-128950000D03*
D18*
X106215000Y-125950000D03*
X106215000Y-122950000D03*
X106215000Y-119950000D03*
X106215000Y-116950000D03*
X106215000Y-113950000D03*
X109215000Y-128950000D03*
X109215000Y-125950000D03*
X109215000Y-122950000D03*
X109215000Y-119950000D03*
X109215000Y-116950000D03*
X109215000Y-113950000D03*
%TD*%
D10*
%TO.C,TP25*%
X135595000Y-48675000D03*
%TD*%
%TO.C,TP37*%
X165345000Y-81325000D03*
%TD*%
D19*
%TO.C,J12*%
X103600000Y-92244999D03*
X106100000Y-92244999D03*
X108600000Y-92244999D03*
X111100000Y-92244999D03*
X113600000Y-92244999D03*
X103600000Y-95245001D03*
X106100000Y-95245001D03*
X108600000Y-95245001D03*
X111100000Y-95245001D03*
X113600000Y-95245001D03*
X103600000Y-97745001D03*
X106100000Y-97745001D03*
X108600000Y-97745001D03*
X111100000Y-97745001D03*
X113600000Y-97745001D03*
X103600000Y-100745000D03*
X106100000Y-100745000D03*
X108600000Y-100745000D03*
X111100000Y-100745000D03*
X113600000Y-100745000D03*
%TD*%
D20*
%TO.C,H27*%
X178895000Y-142875000D03*
%TD*%
D10*
%TO.C,TP34*%
X140500000Y-106800000D03*
%TD*%
%TO.C,TP27*%
X118895000Y-139675000D03*
%TD*%
D20*
%TO.C,H25*%
X103745000Y-143025000D03*
%TD*%
%TO.C,H26*%
X103895000Y-43625000D03*
%TD*%
D11*
%TO.C,Q5*%
X149142100Y-87242500D03*
D12*
X154222100Y-87242500D03*
X156762100Y-87242500D03*
X159302100Y-87242500D03*
%TD*%
M02*
