%TF.GenerationSoftware,KiCad,Pcbnew,10.0.0*%
%TF.CreationDate,2026-03-27T12:44:46-04:00*%
%TF.ProjectId,Full_Bridge_Circuit,46756c6c-5f42-4726-9964-67655f436972,rev?*%
%TF.SameCoordinates,Original*%
%TF.FileFunction,Legend,Bot*%
%TF.FilePolarity,Positive*%
%FSLAX46Y46*%
G04 Gerber Fmt 4.6, Leading zero omitted, Abs format (unit mm)*
G04 Created by KiCad (PCBNEW 10.0.0) date 2026-03-27 12:44:46*
%MOMM*%
%LPD*%
G01*
G04 APERTURE LIST*
%ADD10C,0.150000*%
%ADD11C,0.100000*%
%ADD12C,0.000000*%
G04 APERTURE END LIST*
D10*
X140814819Y-54286779D02*
X139814819Y-54286779D01*
X139814819Y-54286779D02*
X139814819Y-54524874D01*
X139814819Y-54524874D02*
X139862438Y-54667731D01*
X139862438Y-54667731D02*
X139957676Y-54762969D01*
X139957676Y-54762969D02*
X140052914Y-54810588D01*
X140052914Y-54810588D02*
X140243390Y-54858207D01*
X140243390Y-54858207D02*
X140386247Y-54858207D01*
X140386247Y-54858207D02*
X140576723Y-54810588D01*
X140576723Y-54810588D02*
X140671961Y-54762969D01*
X140671961Y-54762969D02*
X140767200Y-54667731D01*
X140767200Y-54667731D02*
X140814819Y-54524874D01*
X140814819Y-54524874D02*
X140814819Y-54286779D01*
X140767200Y-55667731D02*
X140814819Y-55572493D01*
X140814819Y-55572493D02*
X140814819Y-55382017D01*
X140814819Y-55382017D02*
X140767200Y-55286779D01*
X140767200Y-55286779D02*
X140671961Y-55239160D01*
X140671961Y-55239160D02*
X140291009Y-55239160D01*
X140291009Y-55239160D02*
X140195771Y-55286779D01*
X140195771Y-55286779D02*
X140148152Y-55382017D01*
X140148152Y-55382017D02*
X140148152Y-55572493D01*
X140148152Y-55572493D02*
X140195771Y-55667731D01*
X140195771Y-55667731D02*
X140291009Y-55715350D01*
X140291009Y-55715350D02*
X140386247Y-55715350D01*
X140386247Y-55715350D02*
X140481485Y-55239160D01*
X140767200Y-56096303D02*
X140814819Y-56191541D01*
X140814819Y-56191541D02*
X140814819Y-56382017D01*
X140814819Y-56382017D02*
X140767200Y-56477255D01*
X140767200Y-56477255D02*
X140671961Y-56524874D01*
X140671961Y-56524874D02*
X140624342Y-56524874D01*
X140624342Y-56524874D02*
X140529104Y-56477255D01*
X140529104Y-56477255D02*
X140481485Y-56382017D01*
X140481485Y-56382017D02*
X140481485Y-56239160D01*
X140481485Y-56239160D02*
X140433866Y-56143922D01*
X140433866Y-56143922D02*
X140338628Y-56096303D01*
X140338628Y-56096303D02*
X140291009Y-56096303D01*
X140291009Y-56096303D02*
X140195771Y-56143922D01*
X140195771Y-56143922D02*
X140148152Y-56239160D01*
X140148152Y-56239160D02*
X140148152Y-56382017D01*
X140148152Y-56382017D02*
X140195771Y-56477255D01*
X140814819Y-56953446D02*
X140148152Y-56953446D01*
X139814819Y-56953446D02*
X139862438Y-56905827D01*
X139862438Y-56905827D02*
X139910057Y-56953446D01*
X139910057Y-56953446D02*
X139862438Y-57001065D01*
X139862438Y-57001065D02*
X139814819Y-56953446D01*
X139814819Y-56953446D02*
X139910057Y-56953446D01*
X140148152Y-57858207D02*
X140957676Y-57858207D01*
X140957676Y-57858207D02*
X141052914Y-57810588D01*
X141052914Y-57810588D02*
X141100533Y-57762969D01*
X141100533Y-57762969D02*
X141148152Y-57667731D01*
X141148152Y-57667731D02*
X141148152Y-57524874D01*
X141148152Y-57524874D02*
X141100533Y-57429636D01*
X140767200Y-57858207D02*
X140814819Y-57762969D01*
X140814819Y-57762969D02*
X140814819Y-57572493D01*
X140814819Y-57572493D02*
X140767200Y-57477255D01*
X140767200Y-57477255D02*
X140719580Y-57429636D01*
X140719580Y-57429636D02*
X140624342Y-57382017D01*
X140624342Y-57382017D02*
X140338628Y-57382017D01*
X140338628Y-57382017D02*
X140243390Y-57429636D01*
X140243390Y-57429636D02*
X140195771Y-57477255D01*
X140195771Y-57477255D02*
X140148152Y-57572493D01*
X140148152Y-57572493D02*
X140148152Y-57762969D01*
X140148152Y-57762969D02*
X140195771Y-57858207D01*
X140148152Y-58334398D02*
X140814819Y-58334398D01*
X140243390Y-58334398D02*
X140195771Y-58382017D01*
X140195771Y-58382017D02*
X140148152Y-58477255D01*
X140148152Y-58477255D02*
X140148152Y-58620112D01*
X140148152Y-58620112D02*
X140195771Y-58715350D01*
X140195771Y-58715350D02*
X140291009Y-58762969D01*
X140291009Y-58762969D02*
X140814819Y-58762969D01*
X140291009Y-60334398D02*
X140338628Y-60477255D01*
X140338628Y-60477255D02*
X140386247Y-60524874D01*
X140386247Y-60524874D02*
X140481485Y-60572493D01*
X140481485Y-60572493D02*
X140624342Y-60572493D01*
X140624342Y-60572493D02*
X140719580Y-60524874D01*
X140719580Y-60524874D02*
X140767200Y-60477255D01*
X140767200Y-60477255D02*
X140814819Y-60382017D01*
X140814819Y-60382017D02*
X140814819Y-60001065D01*
X140814819Y-60001065D02*
X139814819Y-60001065D01*
X139814819Y-60001065D02*
X139814819Y-60334398D01*
X139814819Y-60334398D02*
X139862438Y-60429636D01*
X139862438Y-60429636D02*
X139910057Y-60477255D01*
X139910057Y-60477255D02*
X140005295Y-60524874D01*
X140005295Y-60524874D02*
X140100533Y-60524874D01*
X140100533Y-60524874D02*
X140195771Y-60477255D01*
X140195771Y-60477255D02*
X140243390Y-60429636D01*
X140243390Y-60429636D02*
X140291009Y-60334398D01*
X140291009Y-60334398D02*
X140291009Y-60001065D01*
X140148152Y-60905827D02*
X140814819Y-61143922D01*
X140148152Y-61382017D02*
X140814819Y-61143922D01*
X140814819Y-61143922D02*
X141052914Y-61048684D01*
X141052914Y-61048684D02*
X141100533Y-61001065D01*
X141100533Y-61001065D02*
X141148152Y-60905827D01*
X139814819Y-62810589D02*
X140529104Y-62810589D01*
X140529104Y-62810589D02*
X140671961Y-62762970D01*
X140671961Y-62762970D02*
X140767200Y-62667732D01*
X140767200Y-62667732D02*
X140814819Y-62524875D01*
X140814819Y-62524875D02*
X140814819Y-62429637D01*
X140814819Y-63429637D02*
X140767200Y-63334399D01*
X140767200Y-63334399D02*
X140719580Y-63286780D01*
X140719580Y-63286780D02*
X140624342Y-63239161D01*
X140624342Y-63239161D02*
X140338628Y-63239161D01*
X140338628Y-63239161D02*
X140243390Y-63286780D01*
X140243390Y-63286780D02*
X140195771Y-63334399D01*
X140195771Y-63334399D02*
X140148152Y-63429637D01*
X140148152Y-63429637D02*
X140148152Y-63572494D01*
X140148152Y-63572494D02*
X140195771Y-63667732D01*
X140195771Y-63667732D02*
X140243390Y-63715351D01*
X140243390Y-63715351D02*
X140338628Y-63762970D01*
X140338628Y-63762970D02*
X140624342Y-63762970D01*
X140624342Y-63762970D02*
X140719580Y-63715351D01*
X140719580Y-63715351D02*
X140767200Y-63667732D01*
X140767200Y-63667732D02*
X140814819Y-63572494D01*
X140814819Y-63572494D02*
X140814819Y-63429637D01*
X140767200Y-64143923D02*
X140814819Y-64239161D01*
X140814819Y-64239161D02*
X140814819Y-64429637D01*
X140814819Y-64429637D02*
X140767200Y-64524875D01*
X140767200Y-64524875D02*
X140671961Y-64572494D01*
X140671961Y-64572494D02*
X140624342Y-64572494D01*
X140624342Y-64572494D02*
X140529104Y-64524875D01*
X140529104Y-64524875D02*
X140481485Y-64429637D01*
X140481485Y-64429637D02*
X140481485Y-64286780D01*
X140481485Y-64286780D02*
X140433866Y-64191542D01*
X140433866Y-64191542D02*
X140338628Y-64143923D01*
X140338628Y-64143923D02*
X140291009Y-64143923D01*
X140291009Y-64143923D02*
X140195771Y-64191542D01*
X140195771Y-64191542D02*
X140148152Y-64286780D01*
X140148152Y-64286780D02*
X140148152Y-64429637D01*
X140148152Y-64429637D02*
X140195771Y-64524875D01*
X140767200Y-65382018D02*
X140814819Y-65286780D01*
X140814819Y-65286780D02*
X140814819Y-65096304D01*
X140814819Y-65096304D02*
X140767200Y-65001066D01*
X140767200Y-65001066D02*
X140671961Y-64953447D01*
X140671961Y-64953447D02*
X140291009Y-64953447D01*
X140291009Y-64953447D02*
X140195771Y-65001066D01*
X140195771Y-65001066D02*
X140148152Y-65096304D01*
X140148152Y-65096304D02*
X140148152Y-65286780D01*
X140148152Y-65286780D02*
X140195771Y-65382018D01*
X140195771Y-65382018D02*
X140291009Y-65429637D01*
X140291009Y-65429637D02*
X140386247Y-65429637D01*
X140386247Y-65429637D02*
X140481485Y-64953447D01*
X140148152Y-65858209D02*
X141148152Y-65858209D01*
X140195771Y-65858209D02*
X140148152Y-65953447D01*
X140148152Y-65953447D02*
X140148152Y-66143923D01*
X140148152Y-66143923D02*
X140195771Y-66239161D01*
X140195771Y-66239161D02*
X140243390Y-66286780D01*
X140243390Y-66286780D02*
X140338628Y-66334399D01*
X140338628Y-66334399D02*
X140624342Y-66334399D01*
X140624342Y-66334399D02*
X140719580Y-66286780D01*
X140719580Y-66286780D02*
X140767200Y-66239161D01*
X140767200Y-66239161D02*
X140814819Y-66143923D01*
X140814819Y-66143923D02*
X140814819Y-65953447D01*
X140814819Y-65953447D02*
X140767200Y-65858209D01*
X140814819Y-66762971D02*
X139814819Y-66762971D01*
X140814819Y-67191542D02*
X140291009Y-67191542D01*
X140291009Y-67191542D02*
X140195771Y-67143923D01*
X140195771Y-67143923D02*
X140148152Y-67048685D01*
X140148152Y-67048685D02*
X140148152Y-66905828D01*
X140148152Y-66905828D02*
X140195771Y-66810590D01*
X140195771Y-66810590D02*
X140243390Y-66762971D01*
X139814819Y-68715352D02*
X140529104Y-68715352D01*
X140529104Y-68715352D02*
X140671961Y-68667733D01*
X140671961Y-68667733D02*
X140767200Y-68572495D01*
X140767200Y-68572495D02*
X140814819Y-68429638D01*
X140814819Y-68429638D02*
X140814819Y-68334400D01*
X140719580Y-69191543D02*
X140767200Y-69239162D01*
X140767200Y-69239162D02*
X140814819Y-69191543D01*
X140814819Y-69191543D02*
X140767200Y-69143924D01*
X140767200Y-69143924D02*
X140719580Y-69191543D01*
X140719580Y-69191543D02*
X140814819Y-69191543D01*
X139814819Y-70286781D02*
X140814819Y-70620114D01*
X140814819Y-70620114D02*
X139814819Y-70953447D01*
X140814819Y-71286781D02*
X140148152Y-71286781D01*
X139814819Y-71286781D02*
X139862438Y-71239162D01*
X139862438Y-71239162D02*
X139910057Y-71286781D01*
X139910057Y-71286781D02*
X139862438Y-71334400D01*
X139862438Y-71334400D02*
X139814819Y-71286781D01*
X139814819Y-71286781D02*
X139910057Y-71286781D01*
X140148152Y-71620114D02*
X140148152Y-72001066D01*
X139814819Y-71762971D02*
X140671961Y-71762971D01*
X140671961Y-71762971D02*
X140767200Y-71810590D01*
X140767200Y-71810590D02*
X140814819Y-71905828D01*
X140814819Y-71905828D02*
X140814819Y-72001066D01*
X140814819Y-72762971D02*
X140291009Y-72762971D01*
X140291009Y-72762971D02*
X140195771Y-72715352D01*
X140195771Y-72715352D02*
X140148152Y-72620114D01*
X140148152Y-72620114D02*
X140148152Y-72429638D01*
X140148152Y-72429638D02*
X140195771Y-72334400D01*
X140767200Y-72762971D02*
X140814819Y-72667733D01*
X140814819Y-72667733D02*
X140814819Y-72429638D01*
X140814819Y-72429638D02*
X140767200Y-72334400D01*
X140767200Y-72334400D02*
X140671961Y-72286781D01*
X140671961Y-72286781D02*
X140576723Y-72286781D01*
X140576723Y-72286781D02*
X140481485Y-72334400D01*
X140481485Y-72334400D02*
X140433866Y-72429638D01*
X140433866Y-72429638D02*
X140433866Y-72667733D01*
X140433866Y-72667733D02*
X140386247Y-72762971D01*
X140814819Y-73382019D02*
X140767200Y-73286781D01*
X140767200Y-73286781D02*
X140671961Y-73239162D01*
X140671961Y-73239162D02*
X139814819Y-73239162D01*
X140767200Y-74143924D02*
X140814819Y-74048686D01*
X140814819Y-74048686D02*
X140814819Y-73858210D01*
X140814819Y-73858210D02*
X140767200Y-73762972D01*
X140767200Y-73762972D02*
X140671961Y-73715353D01*
X140671961Y-73715353D02*
X140291009Y-73715353D01*
X140291009Y-73715353D02*
X140195771Y-73762972D01*
X140195771Y-73762972D02*
X140148152Y-73858210D01*
X140148152Y-73858210D02*
X140148152Y-74048686D01*
X140148152Y-74048686D02*
X140195771Y-74143924D01*
X140195771Y-74143924D02*
X140291009Y-74191543D01*
X140291009Y-74191543D02*
X140386247Y-74191543D01*
X140386247Y-74191543D02*
X140481485Y-73715353D01*
D11*
X137445000Y-51450000D02*
X141945000Y-51450000D01*
X141945000Y-76450000D01*
X137445000Y-76450000D01*
X137445000Y-51450000D01*
D10*
X139267200Y-52239160D02*
X139314819Y-52382017D01*
X139314819Y-52382017D02*
X139314819Y-52620112D01*
X139314819Y-52620112D02*
X139267200Y-52715350D01*
X139267200Y-52715350D02*
X139219580Y-52762969D01*
X139219580Y-52762969D02*
X139124342Y-52810588D01*
X139124342Y-52810588D02*
X139029104Y-52810588D01*
X139029104Y-52810588D02*
X138933866Y-52762969D01*
X138933866Y-52762969D02*
X138886247Y-52715350D01*
X138886247Y-52715350D02*
X138838628Y-52620112D01*
X138838628Y-52620112D02*
X138791009Y-52429636D01*
X138791009Y-52429636D02*
X138743390Y-52334398D01*
X138743390Y-52334398D02*
X138695771Y-52286779D01*
X138695771Y-52286779D02*
X138600533Y-52239160D01*
X138600533Y-52239160D02*
X138505295Y-52239160D01*
X138505295Y-52239160D02*
X138410057Y-52286779D01*
X138410057Y-52286779D02*
X138362438Y-52334398D01*
X138362438Y-52334398D02*
X138314819Y-52429636D01*
X138314819Y-52429636D02*
X138314819Y-52667731D01*
X138314819Y-52667731D02*
X138362438Y-52810588D01*
X139314819Y-53239160D02*
X138648152Y-53239160D01*
X138314819Y-53239160D02*
X138362438Y-53191541D01*
X138362438Y-53191541D02*
X138410057Y-53239160D01*
X138410057Y-53239160D02*
X138362438Y-53286779D01*
X138362438Y-53286779D02*
X138314819Y-53239160D01*
X138314819Y-53239160D02*
X138410057Y-53239160D01*
X139219580Y-54286778D02*
X139267200Y-54239159D01*
X139267200Y-54239159D02*
X139314819Y-54096302D01*
X139314819Y-54096302D02*
X139314819Y-54001064D01*
X139314819Y-54001064D02*
X139267200Y-53858207D01*
X139267200Y-53858207D02*
X139171961Y-53762969D01*
X139171961Y-53762969D02*
X139076723Y-53715350D01*
X139076723Y-53715350D02*
X138886247Y-53667731D01*
X138886247Y-53667731D02*
X138743390Y-53667731D01*
X138743390Y-53667731D02*
X138552914Y-53715350D01*
X138552914Y-53715350D02*
X138457676Y-53762969D01*
X138457676Y-53762969D02*
X138362438Y-53858207D01*
X138362438Y-53858207D02*
X138314819Y-54001064D01*
X138314819Y-54001064D02*
X138314819Y-54096302D01*
X138314819Y-54096302D02*
X138362438Y-54239159D01*
X138362438Y-54239159D02*
X138410057Y-54286778D01*
X139267200Y-55429636D02*
X139314819Y-55572493D01*
X139314819Y-55572493D02*
X139314819Y-55810588D01*
X139314819Y-55810588D02*
X139267200Y-55905826D01*
X139267200Y-55905826D02*
X139219580Y-55953445D01*
X139219580Y-55953445D02*
X139124342Y-56001064D01*
X139124342Y-56001064D02*
X139029104Y-56001064D01*
X139029104Y-56001064D02*
X138933866Y-55953445D01*
X138933866Y-55953445D02*
X138886247Y-55905826D01*
X138886247Y-55905826D02*
X138838628Y-55810588D01*
X138838628Y-55810588D02*
X138791009Y-55620112D01*
X138791009Y-55620112D02*
X138743390Y-55524874D01*
X138743390Y-55524874D02*
X138695771Y-55477255D01*
X138695771Y-55477255D02*
X138600533Y-55429636D01*
X138600533Y-55429636D02*
X138505295Y-55429636D01*
X138505295Y-55429636D02*
X138410057Y-55477255D01*
X138410057Y-55477255D02*
X138362438Y-55524874D01*
X138362438Y-55524874D02*
X138314819Y-55620112D01*
X138314819Y-55620112D02*
X138314819Y-55858207D01*
X138314819Y-55858207D02*
X138362438Y-56001064D01*
X139314819Y-56429636D02*
X138648152Y-56429636D01*
X138314819Y-56429636D02*
X138362438Y-56382017D01*
X138362438Y-56382017D02*
X138410057Y-56429636D01*
X138410057Y-56429636D02*
X138362438Y-56477255D01*
X138362438Y-56477255D02*
X138314819Y-56429636D01*
X138314819Y-56429636D02*
X138410057Y-56429636D01*
X138648152Y-56905826D02*
X139314819Y-56905826D01*
X138743390Y-56905826D02*
X138695771Y-56953445D01*
X138695771Y-56953445D02*
X138648152Y-57048683D01*
X138648152Y-57048683D02*
X138648152Y-57191540D01*
X138648152Y-57191540D02*
X138695771Y-57286778D01*
X138695771Y-57286778D02*
X138791009Y-57334397D01*
X138791009Y-57334397D02*
X139314819Y-57334397D01*
X138648152Y-58239159D02*
X139457676Y-58239159D01*
X139457676Y-58239159D02*
X139552914Y-58191540D01*
X139552914Y-58191540D02*
X139600533Y-58143921D01*
X139600533Y-58143921D02*
X139648152Y-58048683D01*
X139648152Y-58048683D02*
X139648152Y-57905826D01*
X139648152Y-57905826D02*
X139600533Y-57810588D01*
X139267200Y-58239159D02*
X139314819Y-58143921D01*
X139314819Y-58143921D02*
X139314819Y-57953445D01*
X139314819Y-57953445D02*
X139267200Y-57858207D01*
X139267200Y-57858207D02*
X139219580Y-57810588D01*
X139219580Y-57810588D02*
X139124342Y-57762969D01*
X139124342Y-57762969D02*
X138838628Y-57762969D01*
X138838628Y-57762969D02*
X138743390Y-57810588D01*
X138743390Y-57810588D02*
X138695771Y-57858207D01*
X138695771Y-57858207D02*
X138648152Y-57953445D01*
X138648152Y-57953445D02*
X138648152Y-58143921D01*
X138648152Y-58143921D02*
X138695771Y-58239159D01*
X139314819Y-58858207D02*
X139267200Y-58762969D01*
X139267200Y-58762969D02*
X139171961Y-58715350D01*
X139171961Y-58715350D02*
X138314819Y-58715350D01*
X139267200Y-59620112D02*
X139314819Y-59524874D01*
X139314819Y-59524874D02*
X139314819Y-59334398D01*
X139314819Y-59334398D02*
X139267200Y-59239160D01*
X139267200Y-59239160D02*
X139171961Y-59191541D01*
X139171961Y-59191541D02*
X138791009Y-59191541D01*
X138791009Y-59191541D02*
X138695771Y-59239160D01*
X138695771Y-59239160D02*
X138648152Y-59334398D01*
X138648152Y-59334398D02*
X138648152Y-59524874D01*
X138648152Y-59524874D02*
X138695771Y-59620112D01*
X138695771Y-59620112D02*
X138791009Y-59667731D01*
X138791009Y-59667731D02*
X138886247Y-59667731D01*
X138886247Y-59667731D02*
X138981485Y-59191541D01*
X139314819Y-60858208D02*
X138314819Y-60858208D01*
X138314819Y-60858208D02*
X138314819Y-61239160D01*
X138314819Y-61239160D02*
X138362438Y-61334398D01*
X138362438Y-61334398D02*
X138410057Y-61382017D01*
X138410057Y-61382017D02*
X138505295Y-61429636D01*
X138505295Y-61429636D02*
X138648152Y-61429636D01*
X138648152Y-61429636D02*
X138743390Y-61382017D01*
X138743390Y-61382017D02*
X138791009Y-61334398D01*
X138791009Y-61334398D02*
X138838628Y-61239160D01*
X138838628Y-61239160D02*
X138838628Y-60858208D01*
X139314819Y-61858208D02*
X138314819Y-61858208D01*
X139314819Y-62286779D02*
X138791009Y-62286779D01*
X138791009Y-62286779D02*
X138695771Y-62239160D01*
X138695771Y-62239160D02*
X138648152Y-62143922D01*
X138648152Y-62143922D02*
X138648152Y-62001065D01*
X138648152Y-62001065D02*
X138695771Y-61905827D01*
X138695771Y-61905827D02*
X138743390Y-61858208D01*
X139314819Y-63191541D02*
X138791009Y-63191541D01*
X138791009Y-63191541D02*
X138695771Y-63143922D01*
X138695771Y-63143922D02*
X138648152Y-63048684D01*
X138648152Y-63048684D02*
X138648152Y-62858208D01*
X138648152Y-62858208D02*
X138695771Y-62762970D01*
X139267200Y-63191541D02*
X139314819Y-63096303D01*
X139314819Y-63096303D02*
X139314819Y-62858208D01*
X139314819Y-62858208D02*
X139267200Y-62762970D01*
X139267200Y-62762970D02*
X139171961Y-62715351D01*
X139171961Y-62715351D02*
X139076723Y-62715351D01*
X139076723Y-62715351D02*
X138981485Y-62762970D01*
X138981485Y-62762970D02*
X138933866Y-62858208D01*
X138933866Y-62858208D02*
X138933866Y-63096303D01*
X138933866Y-63096303D02*
X138886247Y-63191541D01*
X139267200Y-63620113D02*
X139314819Y-63715351D01*
X139314819Y-63715351D02*
X139314819Y-63905827D01*
X139314819Y-63905827D02*
X139267200Y-64001065D01*
X139267200Y-64001065D02*
X139171961Y-64048684D01*
X139171961Y-64048684D02*
X139124342Y-64048684D01*
X139124342Y-64048684D02*
X139029104Y-64001065D01*
X139029104Y-64001065D02*
X138981485Y-63905827D01*
X138981485Y-63905827D02*
X138981485Y-63762970D01*
X138981485Y-63762970D02*
X138933866Y-63667732D01*
X138933866Y-63667732D02*
X138838628Y-63620113D01*
X138838628Y-63620113D02*
X138791009Y-63620113D01*
X138791009Y-63620113D02*
X138695771Y-63667732D01*
X138695771Y-63667732D02*
X138648152Y-63762970D01*
X138648152Y-63762970D02*
X138648152Y-63905827D01*
X138648152Y-63905827D02*
X138695771Y-64001065D01*
X139267200Y-64858208D02*
X139314819Y-64762970D01*
X139314819Y-64762970D02*
X139314819Y-64572494D01*
X139314819Y-64572494D02*
X139267200Y-64477256D01*
X139267200Y-64477256D02*
X139171961Y-64429637D01*
X139171961Y-64429637D02*
X138791009Y-64429637D01*
X138791009Y-64429637D02*
X138695771Y-64477256D01*
X138695771Y-64477256D02*
X138648152Y-64572494D01*
X138648152Y-64572494D02*
X138648152Y-64762970D01*
X138648152Y-64762970D02*
X138695771Y-64858208D01*
X138695771Y-64858208D02*
X138791009Y-64905827D01*
X138791009Y-64905827D02*
X138886247Y-64905827D01*
X138886247Y-64905827D02*
X138981485Y-64429637D01*
X139314819Y-66096304D02*
X138314819Y-66096304D01*
X138648152Y-66572494D02*
X139314819Y-66572494D01*
X138743390Y-66572494D02*
X138695771Y-66620113D01*
X138695771Y-66620113D02*
X138648152Y-66715351D01*
X138648152Y-66715351D02*
X138648152Y-66858208D01*
X138648152Y-66858208D02*
X138695771Y-66953446D01*
X138695771Y-66953446D02*
X138791009Y-67001065D01*
X138791009Y-67001065D02*
X139314819Y-67001065D01*
X138648152Y-67382018D02*
X139314819Y-67620113D01*
X139314819Y-67620113D02*
X138648152Y-67858208D01*
X139267200Y-68620113D02*
X139314819Y-68524875D01*
X139314819Y-68524875D02*
X139314819Y-68334399D01*
X139314819Y-68334399D02*
X139267200Y-68239161D01*
X139267200Y-68239161D02*
X139171961Y-68191542D01*
X139171961Y-68191542D02*
X138791009Y-68191542D01*
X138791009Y-68191542D02*
X138695771Y-68239161D01*
X138695771Y-68239161D02*
X138648152Y-68334399D01*
X138648152Y-68334399D02*
X138648152Y-68524875D01*
X138648152Y-68524875D02*
X138695771Y-68620113D01*
X138695771Y-68620113D02*
X138791009Y-68667732D01*
X138791009Y-68667732D02*
X138886247Y-68667732D01*
X138886247Y-68667732D02*
X138981485Y-68191542D01*
X139314819Y-69096304D02*
X138648152Y-69096304D01*
X138838628Y-69096304D02*
X138743390Y-69143923D01*
X138743390Y-69143923D02*
X138695771Y-69191542D01*
X138695771Y-69191542D02*
X138648152Y-69286780D01*
X138648152Y-69286780D02*
X138648152Y-69382018D01*
X138648152Y-69572495D02*
X138648152Y-69953447D01*
X138314819Y-69715352D02*
X139171961Y-69715352D01*
X139171961Y-69715352D02*
X139267200Y-69762971D01*
X139267200Y-69762971D02*
X139314819Y-69858209D01*
X139314819Y-69858209D02*
X139314819Y-69953447D01*
X139267200Y-70667733D02*
X139314819Y-70572495D01*
X139314819Y-70572495D02*
X139314819Y-70382019D01*
X139314819Y-70382019D02*
X139267200Y-70286781D01*
X139267200Y-70286781D02*
X139171961Y-70239162D01*
X139171961Y-70239162D02*
X138791009Y-70239162D01*
X138791009Y-70239162D02*
X138695771Y-70286781D01*
X138695771Y-70286781D02*
X138648152Y-70382019D01*
X138648152Y-70382019D02*
X138648152Y-70572495D01*
X138648152Y-70572495D02*
X138695771Y-70667733D01*
X138695771Y-70667733D02*
X138791009Y-70715352D01*
X138791009Y-70715352D02*
X138886247Y-70715352D01*
X138886247Y-70715352D02*
X138981485Y-70239162D01*
X139314819Y-71143924D02*
X138648152Y-71143924D01*
X138838628Y-71143924D02*
X138743390Y-71191543D01*
X138743390Y-71191543D02*
X138695771Y-71239162D01*
X138695771Y-71239162D02*
X138648152Y-71334400D01*
X138648152Y-71334400D02*
X138648152Y-71429638D01*
X138791009Y-72858210D02*
X138838628Y-73001067D01*
X138838628Y-73001067D02*
X138886247Y-73048686D01*
X138886247Y-73048686D02*
X138981485Y-73096305D01*
X138981485Y-73096305D02*
X139124342Y-73096305D01*
X139124342Y-73096305D02*
X139219580Y-73048686D01*
X139219580Y-73048686D02*
X139267200Y-73001067D01*
X139267200Y-73001067D02*
X139314819Y-72905829D01*
X139314819Y-72905829D02*
X139314819Y-72524877D01*
X139314819Y-72524877D02*
X138314819Y-72524877D01*
X138314819Y-72524877D02*
X138314819Y-72858210D01*
X138314819Y-72858210D02*
X138362438Y-72953448D01*
X138362438Y-72953448D02*
X138410057Y-73001067D01*
X138410057Y-73001067D02*
X138505295Y-73048686D01*
X138505295Y-73048686D02*
X138600533Y-73048686D01*
X138600533Y-73048686D02*
X138695771Y-73001067D01*
X138695771Y-73001067D02*
X138743390Y-72953448D01*
X138743390Y-72953448D02*
X138791009Y-72858210D01*
X138791009Y-72858210D02*
X138791009Y-72524877D01*
X139314819Y-74048686D02*
X139314819Y-73477258D01*
X139314819Y-73762972D02*
X138314819Y-73762972D01*
X138314819Y-73762972D02*
X138457676Y-73667734D01*
X138457676Y-73667734D02*
X138552914Y-73572496D01*
X138552914Y-73572496D02*
X138600533Y-73477258D01*
X139219580Y-74477258D02*
X139267200Y-74524877D01*
X139267200Y-74524877D02*
X139314819Y-74477258D01*
X139314819Y-74477258D02*
X139267200Y-74429639D01*
X139267200Y-74429639D02*
X139219580Y-74477258D01*
X139219580Y-74477258D02*
X139314819Y-74477258D01*
X138314819Y-75143924D02*
X138314819Y-75239162D01*
X138314819Y-75239162D02*
X138362438Y-75334400D01*
X138362438Y-75334400D02*
X138410057Y-75382019D01*
X138410057Y-75382019D02*
X138505295Y-75429638D01*
X138505295Y-75429638D02*
X138695771Y-75477257D01*
X138695771Y-75477257D02*
X138933866Y-75477257D01*
X138933866Y-75477257D02*
X139124342Y-75429638D01*
X139124342Y-75429638D02*
X139219580Y-75382019D01*
X139219580Y-75382019D02*
X139267200Y-75334400D01*
X139267200Y-75334400D02*
X139314819Y-75239162D01*
X139314819Y-75239162D02*
X139314819Y-75143924D01*
X139314819Y-75143924D02*
X139267200Y-75048686D01*
X139267200Y-75048686D02*
X139219580Y-75001067D01*
X139219580Y-75001067D02*
X139124342Y-74953448D01*
X139124342Y-74953448D02*
X138933866Y-74905829D01*
X138933866Y-74905829D02*
X138695771Y-74905829D01*
X138695771Y-74905829D02*
X138505295Y-74953448D01*
X138505295Y-74953448D02*
X138410057Y-75001067D01*
X138410057Y-75001067D02*
X138362438Y-75048686D01*
X138362438Y-75048686D02*
X138314819Y-75143924D01*
D12*
%TO.C,G\u002A\u002A\u002A*%
G36*
X147510472Y-58371816D02*
G01*
X147541645Y-58388842D01*
X147544735Y-58392832D01*
X147549165Y-58403517D01*
X147552897Y-58421325D01*
X147555989Y-58448474D01*
X147558500Y-58487183D01*
X147560488Y-58539672D01*
X147562010Y-58608160D01*
X147563125Y-58694865D01*
X147563891Y-58802006D01*
X147564367Y-58931804D01*
X147564609Y-59086476D01*
X147564677Y-59268242D01*
X147564677Y-60124610D01*
X149546991Y-60124784D01*
X149684164Y-60124792D01*
X149957351Y-60124799D01*
X150203456Y-60124837D01*
X150423998Y-60124964D01*
X150620498Y-60125236D01*
X150794478Y-60125708D01*
X150947457Y-60126438D01*
X151080957Y-60127481D01*
X151196498Y-60128894D01*
X151295600Y-60130732D01*
X151379785Y-60133052D01*
X151450574Y-60135911D01*
X151509486Y-60139364D01*
X151558042Y-60143468D01*
X151597764Y-60148279D01*
X151630172Y-60153852D01*
X151656786Y-60160246D01*
X151679127Y-60167515D01*
X151698717Y-60175716D01*
X151717075Y-60184904D01*
X151735722Y-60195138D01*
X151756180Y-60206471D01*
X151823305Y-60251054D01*
X151907914Y-60330263D01*
X151982310Y-60425428D01*
X152040760Y-60528936D01*
X152077530Y-60633174D01*
X152077683Y-60633952D01*
X152079307Y-60658079D01*
X152080836Y-60709748D01*
X152082272Y-60787336D01*
X152083614Y-60889218D01*
X152084862Y-61013773D01*
X152086017Y-61159377D01*
X152087078Y-61324408D01*
X152088045Y-61507241D01*
X152088919Y-61706256D01*
X152089700Y-61919827D01*
X152090387Y-62146333D01*
X152090980Y-62384150D01*
X152091480Y-62631655D01*
X152091887Y-62887226D01*
X152092201Y-63149239D01*
X152092422Y-63416071D01*
X152092549Y-63686100D01*
X152092584Y-63957702D01*
X152092525Y-64229254D01*
X152092373Y-64499133D01*
X152092129Y-64765717D01*
X152091791Y-65027382D01*
X152091361Y-65282505D01*
X152090837Y-65529464D01*
X152090221Y-65766635D01*
X152089513Y-65992395D01*
X152088711Y-66205122D01*
X152087817Y-66403192D01*
X152086831Y-66584982D01*
X152085752Y-66748869D01*
X152084580Y-66893231D01*
X152083316Y-67016444D01*
X152081960Y-67116885D01*
X152080511Y-67192932D01*
X152078970Y-67242961D01*
X152077337Y-67265349D01*
X152066754Y-67307324D01*
X152018305Y-67423483D01*
X151945945Y-67530551D01*
X151853521Y-67624366D01*
X151744883Y-67700767D01*
X151623880Y-67755592D01*
X151622403Y-67756088D01*
X151609855Y-67759881D01*
X151595159Y-67763302D01*
X151576806Y-67766376D01*
X151553287Y-67769124D01*
X151523093Y-67771568D01*
X151484714Y-67773732D01*
X151436642Y-67775639D01*
X151377367Y-67777310D01*
X151305379Y-67778769D01*
X151219171Y-67780039D01*
X151117232Y-67781141D01*
X150998053Y-67782099D01*
X150860126Y-67782935D01*
X150701940Y-67783671D01*
X150521988Y-67784332D01*
X150318758Y-67784938D01*
X150090743Y-67785513D01*
X149836433Y-67786080D01*
X149554319Y-67786661D01*
X147564677Y-67790657D01*
X147564677Y-68619417D01*
X147564601Y-68729693D01*
X147564037Y-68919059D01*
X147562930Y-69081540D01*
X147561288Y-69216732D01*
X147559117Y-69324230D01*
X147556425Y-69403631D01*
X147553218Y-69454531D01*
X147549505Y-69476526D01*
X147528447Y-69494783D01*
X147490344Y-69504729D01*
X147450013Y-69502182D01*
X147420810Y-69486143D01*
X147418777Y-69480163D01*
X147415054Y-69447340D01*
X147411789Y-69386522D01*
X147408975Y-69297488D01*
X147406609Y-69180021D01*
X147404686Y-69033901D01*
X147403199Y-68858908D01*
X147402145Y-68654825D01*
X147401733Y-68559515D01*
X147400909Y-68412111D01*
X147399914Y-68274774D01*
X147398782Y-68150255D01*
X147397545Y-68041302D01*
X147396236Y-67950664D01*
X147394888Y-67881093D01*
X147393533Y-67835335D01*
X147392203Y-67816142D01*
X147392075Y-67815688D01*
X147389685Y-67811621D01*
X147384031Y-67808006D01*
X147373487Y-67804818D01*
X147356422Y-67802029D01*
X147331210Y-67799612D01*
X147296222Y-67797539D01*
X147249830Y-67795786D01*
X147190406Y-67794323D01*
X147116321Y-67793125D01*
X147025949Y-67792164D01*
X146917659Y-67791414D01*
X146789826Y-67790848D01*
X146640819Y-67790438D01*
X146469012Y-67790159D01*
X146272776Y-67789982D01*
X146050482Y-67789881D01*
X145800504Y-67789829D01*
X145596561Y-67789800D01*
X145360674Y-67789726D01*
X145151047Y-67789545D01*
X144965966Y-67789188D01*
X144803719Y-67788584D01*
X144662592Y-67787663D01*
X144540872Y-67786355D01*
X144436845Y-67784591D01*
X144348798Y-67782299D01*
X144275019Y-67779411D01*
X144213793Y-67775856D01*
X144163408Y-67771564D01*
X144122150Y-67766464D01*
X144088306Y-67760488D01*
X144060162Y-67753564D01*
X144036006Y-67745623D01*
X144014125Y-67736595D01*
X143992804Y-67726409D01*
X143970331Y-67714996D01*
X143928709Y-67689096D01*
X143865348Y-67637087D01*
X143802723Y-67574012D01*
X143749080Y-67508391D01*
X143712666Y-67448748D01*
X143708382Y-67439542D01*
X143694928Y-67410047D01*
X143683272Y-67382046D01*
X143673285Y-67353338D01*
X143664839Y-67321724D01*
X143657804Y-67285002D01*
X143652051Y-67240972D01*
X143647451Y-67187433D01*
X143643876Y-67122185D01*
X143641196Y-67043027D01*
X143639282Y-66947759D01*
X143638005Y-66834181D01*
X143637237Y-66700091D01*
X143636848Y-66543289D01*
X143636709Y-66361575D01*
X143636691Y-66152749D01*
X143636691Y-65093220D01*
X143555309Y-65093220D01*
X143516612Y-65091893D01*
X143425393Y-65078563D01*
X143811850Y-65078563D01*
X143815875Y-66174149D01*
X143819899Y-67269734D01*
X143861028Y-67353489D01*
X143870001Y-67370723D01*
X143934546Y-67460120D01*
X144018579Y-67533456D01*
X144115091Y-67584364D01*
X144116575Y-67584918D01*
X144125281Y-67588036D01*
X144134759Y-67590924D01*
X144146108Y-67593590D01*
X144160426Y-67596045D01*
X144178809Y-67598296D01*
X144202357Y-67600353D01*
X144232165Y-67602223D01*
X144269333Y-67603917D01*
X144314958Y-67605443D01*
X144370137Y-67606809D01*
X144435969Y-67608024D01*
X144513550Y-67609098D01*
X144603979Y-67610038D01*
X144708354Y-67610855D01*
X144827772Y-67611556D01*
X144963331Y-67612150D01*
X145116128Y-67612647D01*
X145287261Y-67613054D01*
X145477829Y-67613381D01*
X145688928Y-67613637D01*
X145921656Y-67613830D01*
X146177112Y-67613969D01*
X146456392Y-67614064D01*
X146760595Y-67614122D01*
X147090818Y-67614152D01*
X147448159Y-67614164D01*
X147833715Y-67614166D01*
X147993651Y-67614164D01*
X148370663Y-67614140D01*
X148719874Y-67614083D01*
X149042362Y-67613987D01*
X149339205Y-67613845D01*
X149611481Y-67613650D01*
X149860269Y-67613396D01*
X150086646Y-67613075D01*
X150291690Y-67612681D01*
X150476480Y-67612207D01*
X150642093Y-67611647D01*
X150789608Y-67610993D01*
X150920103Y-67610240D01*
X151034655Y-67609379D01*
X151134344Y-67608406D01*
X151220246Y-67607312D01*
X151293440Y-67606091D01*
X151355005Y-67604736D01*
X151406018Y-67603241D01*
X151447557Y-67601599D01*
X151480700Y-67599803D01*
X151506526Y-67597846D01*
X151526112Y-67595722D01*
X151540537Y-67593424D01*
X151550878Y-67590946D01*
X151630015Y-67560626D01*
X151732853Y-67495755D01*
X151818070Y-67408065D01*
X151883963Y-67299048D01*
X151925035Y-67211108D01*
X151927248Y-63979313D01*
X151927294Y-63909157D01*
X151927432Y-63604491D01*
X151927473Y-63307610D01*
X151927420Y-63019860D01*
X151927275Y-62742586D01*
X151927043Y-62477133D01*
X151926728Y-62224847D01*
X151926332Y-61987074D01*
X151925858Y-61765159D01*
X151925312Y-61560448D01*
X151924696Y-61374285D01*
X151924013Y-61208018D01*
X151923268Y-61062990D01*
X151922463Y-60940548D01*
X151921602Y-60842038D01*
X151920689Y-60768804D01*
X151919727Y-60722192D01*
X151918719Y-60703549D01*
X151877589Y-60592254D01*
X151812196Y-60489264D01*
X151727618Y-60401839D01*
X151628641Y-60336044D01*
X151543962Y-60293162D01*
X147850482Y-60293162D01*
X144157003Y-60293162D01*
X144074026Y-60333918D01*
X144007898Y-60373704D01*
X143921809Y-60452858D01*
X143853512Y-60552657D01*
X143819899Y-60615609D01*
X143815880Y-61715517D01*
X143811861Y-62815425D01*
X143903820Y-62834262D01*
X144058194Y-62878413D01*
X144216983Y-62951544D01*
X144363323Y-63048411D01*
X144493184Y-63166311D01*
X144602531Y-63302542D01*
X144655672Y-63387771D01*
X144722071Y-63526401D01*
X144765753Y-63671096D01*
X144788242Y-63827511D01*
X144791065Y-64001298D01*
X144787243Y-64085883D01*
X144781473Y-64153035D01*
X144772276Y-64209872D01*
X144758085Y-64266012D01*
X144737333Y-64331073D01*
X144674731Y-64480918D01*
X144581763Y-64633547D01*
X144465990Y-64768613D01*
X144328819Y-64884501D01*
X144171659Y-64979597D01*
X144169626Y-64980618D01*
X144106895Y-65008478D01*
X144035142Y-65034978D01*
X143963256Y-65057342D01*
X143900124Y-65072795D01*
X143854637Y-65078563D01*
X143811850Y-65078563D01*
X143425393Y-65078563D01*
X143395578Y-65074206D01*
X143266425Y-65038310D01*
X143137246Y-64987238D01*
X143016136Y-64924025D01*
X142911186Y-64851706D01*
X142781403Y-64733980D01*
X142670173Y-64600734D01*
X142585313Y-64456932D01*
X142525835Y-64300490D01*
X142490750Y-64129324D01*
X142479848Y-63953893D01*
X142654695Y-63953893D01*
X142662790Y-64096663D01*
X142692731Y-64243177D01*
X142746493Y-64377143D01*
X142825905Y-64502971D01*
X142932793Y-64625076D01*
X143054022Y-64732093D01*
X143184155Y-64815457D01*
X143323358Y-64873089D01*
X143475393Y-64906535D01*
X143644019Y-64917340D01*
X143777601Y-64910904D01*
X143906235Y-64888437D01*
X144057778Y-64836065D01*
X144199971Y-64758171D01*
X144325411Y-64658435D01*
X144432024Y-64539190D01*
X144517735Y-64402771D01*
X144580468Y-64251510D01*
X144618150Y-64087743D01*
X144626559Y-64022089D01*
X144630494Y-63958626D01*
X144627854Y-63897769D01*
X144618665Y-63825418D01*
X144584516Y-63672314D01*
X144523329Y-63516363D01*
X144439082Y-63376936D01*
X144333227Y-63255664D01*
X144207213Y-63154181D01*
X144062491Y-63074119D01*
X143900511Y-63017111D01*
X143852132Y-63007003D01*
X143760455Y-62996342D01*
X143657427Y-62991827D01*
X143553044Y-62993490D01*
X143457303Y-63001361D01*
X143380199Y-63015474D01*
X143254049Y-63057672D01*
X143103109Y-63134013D01*
X142969211Y-63233327D01*
X142854373Y-63354313D01*
X142831642Y-63383848D01*
X142751887Y-63510662D01*
X142696851Y-63644818D01*
X142664974Y-63791000D01*
X142654695Y-63953893D01*
X142479848Y-63953893D01*
X142479069Y-63941352D01*
X142485150Y-63813440D01*
X142516580Y-63636855D01*
X142574781Y-63472207D01*
X142659757Y-63319491D01*
X142771511Y-63178699D01*
X142910045Y-63049827D01*
X142958135Y-63014170D01*
X143069897Y-62948146D01*
X143195916Y-62891303D01*
X143327680Y-62846752D01*
X143456679Y-62817605D01*
X143574400Y-62806973D01*
X143636691Y-62806780D01*
X143636691Y-61752222D01*
X143636745Y-61630378D01*
X143637180Y-61406514D01*
X143638058Y-61211346D01*
X143639385Y-61044464D01*
X143641166Y-60905459D01*
X143643408Y-60793919D01*
X143646116Y-60709435D01*
X143649296Y-60651597D01*
X143652954Y-60619994D01*
X143655692Y-60607884D01*
X143657427Y-60602708D01*
X143684885Y-60520796D01*
X143728785Y-60430823D01*
X143781518Y-60348648D01*
X143837206Y-60284956D01*
X143878802Y-60251657D01*
X143939544Y-60211542D01*
X144000475Y-60178320D01*
X144098376Y-60131939D01*
X144157003Y-60131678D01*
X145747251Y-60124610D01*
X147396126Y-60117282D01*
X147403454Y-59259867D01*
X147404760Y-59124222D01*
X147406548Y-58975299D01*
X147408578Y-58837215D01*
X147410795Y-58712611D01*
X147413140Y-58604123D01*
X147415554Y-58514393D01*
X147417981Y-58446058D01*
X147420362Y-58401758D01*
X147422640Y-58384131D01*
X147436323Y-58373148D01*
X147471005Y-58366411D01*
X147510472Y-58371816D01*
G37*
G36*
X146696959Y-60593626D02*
G01*
X146910941Y-60593659D01*
X147098588Y-60593760D01*
X147261730Y-60593969D01*
X147402196Y-60594324D01*
X147521815Y-60594865D01*
X147622418Y-60595631D01*
X147705833Y-60596660D01*
X147773890Y-60597991D01*
X147828419Y-60599663D01*
X147871248Y-60601716D01*
X147904207Y-60604187D01*
X147929127Y-60607117D01*
X147947835Y-60610544D01*
X147962163Y-60614506D01*
X147973938Y-60619044D01*
X147984991Y-60624195D01*
X148021972Y-60645436D01*
X148079251Y-60700561D01*
X148118532Y-60776832D01*
X148119703Y-60781893D01*
X148122512Y-60811572D01*
X148124947Y-60865463D01*
X148127015Y-60944134D01*
X148128720Y-61048152D01*
X148130067Y-61178081D01*
X148131062Y-61334490D01*
X148131708Y-61517945D01*
X148132013Y-61729011D01*
X148131980Y-61968256D01*
X148131614Y-62236247D01*
X148128959Y-63651691D01*
X148087588Y-63714201D01*
X148050101Y-63759266D01*
X147982219Y-63805020D01*
X147979151Y-63806359D01*
X147967392Y-63810960D01*
X147953689Y-63814996D01*
X147936217Y-63818498D01*
X147913152Y-63821496D01*
X147882669Y-63824022D01*
X147842943Y-63826105D01*
X147792151Y-63827776D01*
X147728467Y-63829067D01*
X147650066Y-63830008D01*
X147555124Y-63830630D01*
X147441817Y-63830963D01*
X147308320Y-63831038D01*
X147152808Y-63830885D01*
X146973457Y-63830537D01*
X146768442Y-63830023D01*
X146535938Y-63829374D01*
X146412502Y-63829037D01*
X146188841Y-63828479D01*
X145991828Y-63827952D01*
X145819690Y-63827320D01*
X145670656Y-63826447D01*
X145542956Y-63825197D01*
X145434816Y-63823432D01*
X145344465Y-63821016D01*
X145270132Y-63817814D01*
X145210045Y-63813688D01*
X145162433Y-63808503D01*
X145125524Y-63802121D01*
X145097545Y-63794406D01*
X145076726Y-63785223D01*
X145061296Y-63774434D01*
X145049481Y-63761903D01*
X145039511Y-63747494D01*
X145029615Y-63731071D01*
X145018019Y-63712496D01*
X144977776Y-63651689D01*
X144973537Y-62243574D01*
X144973336Y-62173179D01*
X144972887Y-61973928D01*
X144972630Y-61783051D01*
X144972558Y-61602642D01*
X144972667Y-61434797D01*
X144972948Y-61281608D01*
X144973397Y-61145169D01*
X144974006Y-61027574D01*
X144974770Y-60930917D01*
X144975682Y-60857292D01*
X144976371Y-60825540D01*
X145138999Y-60825540D01*
X145138999Y-62205831D01*
X145138999Y-63586121D01*
X145180122Y-63621494D01*
X145221245Y-63656867D01*
X145784710Y-63656867D01*
X146348174Y-63656867D01*
X146348496Y-63162204D01*
X146348503Y-63152046D01*
X146348722Y-63018912D01*
X146349272Y-62911599D01*
X146350315Y-62826839D01*
X146352015Y-62761365D01*
X146354533Y-62711910D01*
X146358032Y-62675205D01*
X146362676Y-62647982D01*
X146368626Y-62626975D01*
X146376046Y-62608915D01*
X146381339Y-62598091D01*
X146408597Y-62551899D01*
X146436427Y-62515696D01*
X146460287Y-62492891D01*
X146487535Y-62473514D01*
X146520263Y-62458808D01*
X146562444Y-62448044D01*
X146618049Y-62440495D01*
X146691050Y-62435435D01*
X146785419Y-62432135D01*
X146905127Y-62429869D01*
X146947183Y-62429187D01*
X147043077Y-62427212D01*
X147129568Y-62424868D01*
X147201678Y-62422321D01*
X147254431Y-62419736D01*
X147282850Y-62417281D01*
X147315280Y-62407581D01*
X147371078Y-62372618D01*
X147420174Y-62320960D01*
X147454351Y-62260136D01*
X147464077Y-62227998D01*
X147471412Y-62180168D01*
X147474411Y-62116352D01*
X147473624Y-62029977D01*
X147469409Y-61861425D01*
X147128641Y-61857491D01*
X146787874Y-61853557D01*
X146787874Y-61982475D01*
X146787239Y-62022675D01*
X146780660Y-62094522D01*
X146765924Y-62142103D01*
X146741773Y-62168437D01*
X146706947Y-62176543D01*
X146689167Y-62174458D01*
X146666165Y-62159582D01*
X146651439Y-62127142D01*
X146643611Y-62073321D01*
X146641307Y-61994299D01*
X146641191Y-61970487D01*
X146640000Y-61918438D01*
X146637795Y-61882292D01*
X146634917Y-61868753D01*
X146627107Y-61871713D01*
X146595860Y-61885119D01*
X146544295Y-61907836D01*
X146476137Y-61938211D01*
X146395107Y-61974590D01*
X146304927Y-62015320D01*
X146241919Y-62043664D01*
X146155769Y-62081752D01*
X146080399Y-62114296D01*
X146019771Y-62139617D01*
X145977849Y-62156040D01*
X145958594Y-62161887D01*
X145941042Y-62159285D01*
X145907511Y-62146714D01*
X145895538Y-62137874D01*
X145886932Y-62121917D01*
X145881975Y-62093786D01*
X145879704Y-62047771D01*
X145879161Y-61978163D01*
X145879161Y-61934201D01*
X146019831Y-61934201D01*
X146019964Y-61972206D01*
X146020530Y-61986008D01*
X146020587Y-61985998D01*
X146034673Y-61979400D01*
X146069651Y-61962341D01*
X146120389Y-61937340D01*
X146181754Y-61906915D01*
X146242421Y-61877059D01*
X146307021Y-61845912D01*
X146360691Y-61820706D01*
X146395808Y-61805066D01*
X146408402Y-61799731D01*
X146438575Y-61785662D01*
X146450523Y-61777897D01*
X146446736Y-61775289D01*
X146422555Y-61761578D01*
X146380558Y-61738684D01*
X146326039Y-61709409D01*
X146264296Y-61676557D01*
X146200622Y-61642928D01*
X146140315Y-61611327D01*
X146088670Y-61584554D01*
X146050981Y-61565413D01*
X146032546Y-61556706D01*
X146031070Y-61559317D01*
X146027956Y-61584035D01*
X146025103Y-61630701D01*
X146022776Y-61694301D01*
X146021242Y-61769823D01*
X146020796Y-61806020D01*
X146020114Y-61877103D01*
X146019831Y-61934201D01*
X145879161Y-61934201D01*
X145879161Y-61824783D01*
X145640257Y-61824783D01*
X145545924Y-61824336D01*
X145474834Y-61822276D01*
X145425370Y-61817569D01*
X145393653Y-61809175D01*
X145375802Y-61796057D01*
X145367937Y-61777178D01*
X145366178Y-61751500D01*
X145367853Y-61726277D01*
X145375554Y-61707269D01*
X145393161Y-61694044D01*
X145424555Y-61685563D01*
X145473615Y-61680790D01*
X145544223Y-61678687D01*
X145640257Y-61678217D01*
X145879161Y-61678217D01*
X145879161Y-61517273D01*
X145879161Y-61516149D01*
X145879401Y-61451455D01*
X145882104Y-61402693D01*
X145890224Y-61369547D01*
X145906710Y-61351697D01*
X145934514Y-61348826D01*
X145976589Y-61360616D01*
X146032546Y-61385277D01*
X146035887Y-61386749D01*
X146115357Y-61426907D01*
X146217954Y-61480771D01*
X146228592Y-61486373D01*
X146315208Y-61532151D01*
X146397504Y-61575913D01*
X146470070Y-61614764D01*
X146527492Y-61645808D01*
X146564360Y-61666148D01*
X146641307Y-61709681D01*
X146641307Y-61570414D01*
X146642437Y-61511186D01*
X146648583Y-61450128D01*
X146661435Y-61411375D01*
X146682521Y-61391002D01*
X146713366Y-61385084D01*
X146729923Y-61386678D01*
X146757268Y-61401819D01*
X146775157Y-61435704D01*
X146784916Y-61491684D01*
X146787874Y-61573110D01*
X146787874Y-61707530D01*
X147202328Y-61707530D01*
X147282182Y-61707605D01*
X147390070Y-61708118D01*
X147473980Y-61709262D01*
X147537212Y-61711205D01*
X147583066Y-61714117D01*
X147614841Y-61718166D01*
X147635838Y-61723519D01*
X147649356Y-61730346D01*
X147655401Y-61735036D01*
X147678327Y-61771088D01*
X147677492Y-61812865D01*
X147652617Y-61850169D01*
X147643701Y-61858941D01*
X147634534Y-61874453D01*
X147628588Y-61898467D01*
X147625176Y-61936185D01*
X147623616Y-61992809D01*
X147623222Y-62073540D01*
X147623194Y-62084691D01*
X147621745Y-62162909D01*
X147618425Y-62234252D01*
X147613686Y-62291243D01*
X147607979Y-62326404D01*
X147601274Y-62347137D01*
X147558216Y-62425912D01*
X147492678Y-62495470D01*
X147410076Y-62549702D01*
X147322842Y-62593188D01*
X146978411Y-62597972D01*
X146920867Y-62598864D01*
X146825707Y-62600757D01*
X146741507Y-62602952D01*
X146672855Y-62605303D01*
X146624339Y-62607664D01*
X146600547Y-62609893D01*
X146596443Y-62611050D01*
X146566049Y-62630977D01*
X146538311Y-62664271D01*
X146536671Y-62667000D01*
X146529026Y-62681776D01*
X146522962Y-62699548D01*
X146518297Y-62723607D01*
X146514847Y-62757242D01*
X146512432Y-62803743D01*
X146510867Y-62866398D01*
X146509970Y-62948498D01*
X146509560Y-63053332D01*
X146509452Y-63184189D01*
X146509397Y-63656867D01*
X147199388Y-63656867D01*
X147889379Y-63656867D01*
X147932221Y-63614024D01*
X147975064Y-63571181D01*
X147973907Y-62225305D01*
X147973886Y-62202608D01*
X147973613Y-62006992D01*
X147973186Y-61819765D01*
X147972618Y-61643018D01*
X147971924Y-61478844D01*
X147971118Y-61329336D01*
X147970214Y-61196585D01*
X147969226Y-61082686D01*
X147968167Y-60989729D01*
X147967053Y-60919808D01*
X147965897Y-60875015D01*
X147964713Y-60857444D01*
X147951132Y-60833551D01*
X147926673Y-60802481D01*
X147896671Y-60769504D01*
X146552436Y-60769504D01*
X146541055Y-60769504D01*
X146313387Y-60769522D01*
X146113135Y-60769600D01*
X145938488Y-60769773D01*
X145787633Y-60770080D01*
X145658758Y-60770556D01*
X145550052Y-60771238D01*
X145459701Y-60772164D01*
X145385895Y-60773370D01*
X145326822Y-60774893D01*
X145280668Y-60776770D01*
X145245623Y-60779037D01*
X145219874Y-60781732D01*
X145201609Y-60784891D01*
X145189017Y-60788551D01*
X145180285Y-60792749D01*
X145173600Y-60797522D01*
X145138999Y-60825540D01*
X144976371Y-60825540D01*
X144976735Y-60808792D01*
X144977924Y-60787511D01*
X144992879Y-60746399D01*
X145028919Y-60692863D01*
X145076533Y-60645270D01*
X145127307Y-60613425D01*
X145129816Y-60612499D01*
X145144872Y-60609159D01*
X145169604Y-60606218D01*
X145205647Y-60603652D01*
X145254640Y-60601439D01*
X145318217Y-60599555D01*
X145398016Y-60597979D01*
X145495672Y-60596687D01*
X145612823Y-60595656D01*
X145751105Y-60594863D01*
X145912154Y-60594287D01*
X146097607Y-60593903D01*
X146309100Y-60593690D01*
X146541055Y-60593626D01*
X146548269Y-60593624D01*
X146696959Y-60593626D01*
G37*
G36*
X149953714Y-64067253D02*
G01*
X149994353Y-64067253D01*
X150104232Y-64067274D01*
X150368294Y-64067519D01*
X150603630Y-64068045D01*
X150810659Y-64068857D01*
X150989804Y-64069957D01*
X151141485Y-64071352D01*
X151266126Y-64073045D01*
X151364146Y-64075040D01*
X151435968Y-64077343D01*
X151482012Y-64079957D01*
X151502702Y-64082886D01*
X151530839Y-64095973D01*
X151593272Y-64146910D01*
X151640842Y-64221148D01*
X151641240Y-64222017D01*
X151645712Y-64233026D01*
X151649657Y-64246391D01*
X151653106Y-64263911D01*
X151656095Y-64287382D01*
X151658656Y-64318601D01*
X151660824Y-64359366D01*
X151662631Y-64411474D01*
X151664112Y-64476721D01*
X151665299Y-64556905D01*
X151666227Y-64653822D01*
X151666929Y-64769271D01*
X151667438Y-64905047D01*
X151667788Y-65062948D01*
X151668013Y-65244772D01*
X151668146Y-65452314D01*
X151668221Y-65687373D01*
X151668543Y-67094972D01*
X151635566Y-67159510D01*
X151599031Y-67216452D01*
X151543109Y-67264372D01*
X151469544Y-67292343D01*
X151467438Y-67292714D01*
X151439192Y-67294669D01*
X151383928Y-67296514D01*
X151303583Y-67298233D01*
X151200093Y-67299808D01*
X151075397Y-67301223D01*
X150931431Y-67302460D01*
X150770133Y-67303502D01*
X150593439Y-67304333D01*
X150403286Y-67304935D01*
X150201613Y-67305290D01*
X149990355Y-67305383D01*
X149828837Y-67305349D01*
X149605672Y-67305266D01*
X149408903Y-67305079D01*
X149236766Y-67304710D01*
X149087500Y-67304085D01*
X148959342Y-67303128D01*
X148850530Y-67301763D01*
X148759301Y-67299914D01*
X148683893Y-67297505D01*
X148622544Y-67294461D01*
X148573491Y-67290707D01*
X148534973Y-67286165D01*
X148505225Y-67280761D01*
X148482487Y-67274419D01*
X148464996Y-67267062D01*
X148450990Y-67258616D01*
X148438705Y-67249004D01*
X148426380Y-67238150D01*
X148419883Y-67231697D01*
X148393201Y-67196052D01*
X148369046Y-67152481D01*
X148368651Y-67151614D01*
X148364209Y-67140586D01*
X148360290Y-67127133D01*
X148356862Y-67109465D01*
X148353890Y-67085787D01*
X148351343Y-67054309D01*
X148350608Y-67040307D01*
X148502704Y-67040307D01*
X148540648Y-67085402D01*
X148578593Y-67130496D01*
X150002651Y-67130030D01*
X150215875Y-67129970D01*
X150429607Y-67129888D01*
X150617306Y-67129713D01*
X150780711Y-67129366D01*
X150921558Y-67128767D01*
X151041585Y-67127837D01*
X151142528Y-67126495D01*
X151226126Y-67124664D01*
X151294115Y-67122262D01*
X151348233Y-67119209D01*
X151390216Y-67115428D01*
X151421803Y-67110837D01*
X151444730Y-67105358D01*
X151460734Y-67098910D01*
X151471553Y-67091413D01*
X151478923Y-67082790D01*
X151484583Y-67072959D01*
X151490269Y-67061840D01*
X151491738Y-67057381D01*
X151494690Y-67035805D01*
X151497291Y-66997023D01*
X151499554Y-66939823D01*
X151501496Y-66862996D01*
X151503130Y-66765330D01*
X151504472Y-66645616D01*
X151505537Y-66502642D01*
X151506340Y-66335198D01*
X151506894Y-66142073D01*
X151507216Y-65922057D01*
X151507320Y-65673939D01*
X151507320Y-64318051D01*
X151471955Y-64276928D01*
X151436591Y-64235805D01*
X150695152Y-64231749D01*
X149953714Y-64227693D01*
X149953714Y-64549960D01*
X149953682Y-64604990D01*
X149953300Y-64697912D01*
X149952231Y-64767329D01*
X149950160Y-64817145D01*
X149946772Y-64851263D01*
X149941750Y-64873589D01*
X149934779Y-64888024D01*
X149925543Y-64898473D01*
X149922453Y-64900829D01*
X149894184Y-64915373D01*
X149843857Y-64936806D01*
X149776095Y-64963304D01*
X149695522Y-64993043D01*
X149606761Y-65024201D01*
X149582712Y-65032482D01*
X149496352Y-65063039D01*
X149419849Y-65091348D01*
X149357697Y-65115668D01*
X149314388Y-65134256D01*
X149294412Y-65145369D01*
X149292462Y-65147336D01*
X149282844Y-65158549D01*
X149278001Y-65169351D01*
X149279710Y-65180468D01*
X149289750Y-65192626D01*
X149309898Y-65206550D01*
X149341934Y-65222966D01*
X149387634Y-65242600D01*
X149448778Y-65266178D01*
X149527142Y-65294425D01*
X149624507Y-65328067D01*
X149742648Y-65367829D01*
X149883345Y-65414439D01*
X150048376Y-65468620D01*
X150239519Y-65531099D01*
X150321829Y-65558028D01*
X150454099Y-65601727D01*
X150562413Y-65638416D01*
X150649367Y-65669277D01*
X150717557Y-65695487D01*
X150769577Y-65718225D01*
X150808024Y-65738672D01*
X150835493Y-65758005D01*
X150854581Y-65777403D01*
X150867882Y-65798047D01*
X150877992Y-65821114D01*
X150890380Y-65878810D01*
X150886147Y-65950088D01*
X150862947Y-66012334D01*
X150859200Y-66018230D01*
X150832745Y-66049261D01*
X150794880Y-66076826D01*
X150741252Y-66103127D01*
X150667508Y-66130362D01*
X150569293Y-66160732D01*
X150507285Y-66178867D01*
X150369060Y-66219580D01*
X150255760Y-66253439D01*
X150165009Y-66281167D01*
X150094432Y-66303486D01*
X150041654Y-66321117D01*
X149961042Y-66349139D01*
X149957075Y-66635224D01*
X149955596Y-66728743D01*
X149953716Y-66804338D01*
X149951105Y-66858688D01*
X149947330Y-66895961D01*
X149941957Y-66920328D01*
X149934554Y-66935961D01*
X149924688Y-66947028D01*
X149911523Y-66956517D01*
X149871241Y-66965324D01*
X149832831Y-66951135D01*
X149806629Y-66916611D01*
X149806379Y-66915910D01*
X149801992Y-66888552D01*
X149798180Y-66837416D01*
X149795172Y-66767753D01*
X149793199Y-66684813D01*
X149792490Y-66593846D01*
X149792612Y-66537677D01*
X149793695Y-66444009D01*
X149796107Y-66373934D01*
X149800094Y-66323630D01*
X149805908Y-66289281D01*
X149813796Y-66267066D01*
X149816560Y-66261978D01*
X149826729Y-66247570D01*
X149841764Y-66233983D01*
X149864571Y-66220082D01*
X149898059Y-66204731D01*
X149945133Y-66186796D01*
X150008703Y-66165140D01*
X150091676Y-66138628D01*
X150196958Y-66106126D01*
X150327459Y-66066497D01*
X150363544Y-66055568D01*
X150473833Y-66021788D01*
X150559771Y-65994546D01*
X150624331Y-65972609D01*
X150670486Y-65954743D01*
X150701209Y-65939716D01*
X150719473Y-65926294D01*
X150728251Y-65913245D01*
X150730517Y-65899336D01*
X150729094Y-65888236D01*
X150720419Y-65873363D01*
X150700837Y-65858288D01*
X150666911Y-65841374D01*
X150615207Y-65820986D01*
X150542285Y-65795487D01*
X150444712Y-65763240D01*
X150433861Y-65759706D01*
X150223019Y-65691012D01*
X150038190Y-65630716D01*
X149877589Y-65578205D01*
X149739431Y-65532865D01*
X149621931Y-65494082D01*
X149523303Y-65461242D01*
X149441763Y-65433732D01*
X149375526Y-65410937D01*
X149322807Y-65392243D01*
X149281821Y-65377037D01*
X149250782Y-65364704D01*
X149227906Y-65354631D01*
X149211408Y-65346203D01*
X149199503Y-65338807D01*
X149190406Y-65331829D01*
X149142004Y-65281271D01*
X149110656Y-65217212D01*
X149108375Y-65149370D01*
X149135162Y-65077744D01*
X149149485Y-65055410D01*
X149170085Y-65033037D01*
X149198944Y-65012159D01*
X149240014Y-64990749D01*
X149297244Y-64966783D01*
X149374586Y-64938237D01*
X149475991Y-64903085D01*
X149532234Y-64883752D01*
X149604501Y-64858507D01*
X149667462Y-64836086D01*
X149711879Y-64819752D01*
X149785162Y-64791864D01*
X149789143Y-64510170D01*
X149793123Y-64228476D01*
X149198484Y-64228476D01*
X149161835Y-64228480D01*
X149010748Y-64228665D01*
X148885825Y-64229338D01*
X148784478Y-64230787D01*
X148704122Y-64233300D01*
X148642169Y-64237163D01*
X148596034Y-64242666D01*
X148563130Y-64250096D01*
X148540870Y-64259740D01*
X148526669Y-64271887D01*
X148517939Y-64286823D01*
X148512095Y-64304837D01*
X148511930Y-64305680D01*
X148510624Y-64328456D01*
X148509373Y-64378170D01*
X148508191Y-64452711D01*
X148507093Y-64549967D01*
X148506091Y-64667826D01*
X148505200Y-64804175D01*
X148504435Y-64956902D01*
X148503808Y-65123896D01*
X148503335Y-65303044D01*
X148503029Y-65492234D01*
X148502904Y-65689354D01*
X148502704Y-67040307D01*
X148350608Y-67040307D01*
X148349186Y-67013236D01*
X148347386Y-66960776D01*
X148345911Y-66895138D01*
X148344727Y-66814527D01*
X148343801Y-66717151D01*
X148343099Y-66601218D01*
X148342589Y-66464935D01*
X148342238Y-66306509D01*
X148342012Y-66124148D01*
X148341878Y-65916059D01*
X148341802Y-65680450D01*
X148341760Y-65465535D01*
X148341756Y-65255664D01*
X148341833Y-65071665D01*
X148342029Y-64911738D01*
X148342380Y-64774082D01*
X148342923Y-64656894D01*
X148343696Y-64558374D01*
X148344735Y-64476720D01*
X148346078Y-64410131D01*
X148347762Y-64356806D01*
X148349823Y-64314942D01*
X148352299Y-64282739D01*
X148355227Y-64258395D01*
X148358645Y-64240109D01*
X148362588Y-64226079D01*
X148367095Y-64214505D01*
X148372202Y-64203583D01*
X148402292Y-64156552D01*
X148465093Y-64103688D01*
X148527264Y-64067253D01*
X149953714Y-64067253D01*
G37*
G36*
X150906610Y-60595494D02*
G01*
X151030860Y-60595729D01*
X151135977Y-60596220D01*
X151223704Y-60596993D01*
X151295786Y-60598076D01*
X151353966Y-60599496D01*
X151399989Y-60601280D01*
X151435599Y-60603457D01*
X151462539Y-60606052D01*
X151482555Y-60609094D01*
X151497390Y-60612610D01*
X151508788Y-60616627D01*
X151518494Y-60621172D01*
X151562610Y-60647255D01*
X151610048Y-60692448D01*
X151645487Y-60755283D01*
X151648056Y-60762383D01*
X151651485Y-60777316D01*
X151654477Y-60799047D01*
X151657055Y-60829309D01*
X151659240Y-60869833D01*
X151661056Y-60922352D01*
X151662524Y-60988596D01*
X151663667Y-61070298D01*
X151664508Y-61169190D01*
X151665069Y-61287004D01*
X151665372Y-61425471D01*
X151665440Y-61586324D01*
X151665296Y-61771294D01*
X151664961Y-61982113D01*
X151664458Y-62220513D01*
X151661215Y-63634882D01*
X151627457Y-63693760D01*
X151620344Y-63705205D01*
X151582578Y-63751877D01*
X151540590Y-63789028D01*
X151487483Y-63825418D01*
X150005015Y-63825418D01*
X148522548Y-63825418D01*
X148463103Y-63786079D01*
X148414173Y-63743014D01*
X148372569Y-63682520D01*
X148367419Y-63671564D01*
X148362863Y-63660057D01*
X148358874Y-63646222D01*
X148355415Y-63628260D01*
X148352448Y-63604373D01*
X148349935Y-63572760D01*
X148349855Y-63571181D01*
X148502704Y-63571181D01*
X148545546Y-63614024D01*
X148588389Y-63656867D01*
X150005012Y-63656867D01*
X151421635Y-63656867D01*
X151464477Y-63614024D01*
X151507320Y-63571181D01*
X151507320Y-62208961D01*
X151507318Y-62062844D01*
X151507288Y-61849702D01*
X151507192Y-61662949D01*
X151506991Y-61500778D01*
X151506644Y-61361386D01*
X151506114Y-61242966D01*
X151505360Y-61143712D01*
X151504345Y-61061820D01*
X151503028Y-60995483D01*
X151501370Y-60942896D01*
X151499333Y-60902254D01*
X151496877Y-60871751D01*
X151493962Y-60849580D01*
X151490551Y-60833938D01*
X151486604Y-60823018D01*
X151482081Y-60815014D01*
X151476943Y-60808122D01*
X151446566Y-60769504D01*
X150531588Y-60769504D01*
X149616610Y-60769504D01*
X149616687Y-61007674D01*
X149616763Y-61245845D01*
X149766917Y-61250859D01*
X149811023Y-61252950D01*
X149869845Y-61257865D01*
X149913691Y-61264158D01*
X149935393Y-61270975D01*
X149941900Y-61278439D01*
X149952389Y-61312089D01*
X149950498Y-61351762D01*
X149936126Y-61382152D01*
X149914120Y-61393801D01*
X149877499Y-61399740D01*
X149849153Y-61401863D01*
X149836460Y-61407361D01*
X149839567Y-61415570D01*
X149853011Y-61444858D01*
X149874047Y-61488747D01*
X149899334Y-61540472D01*
X149925536Y-61593273D01*
X149949313Y-61640386D01*
X149967327Y-61675050D01*
X149976239Y-61690500D01*
X149977580Y-61690877D01*
X149994921Y-61682971D01*
X150024171Y-61663332D01*
X150053533Y-61646155D01*
X150092233Y-61639183D01*
X150119364Y-61653912D01*
X150129594Y-61689043D01*
X150124367Y-61718413D01*
X150105337Y-61754010D01*
X150098215Y-61762520D01*
X150095576Y-61771158D01*
X150105417Y-61776537D01*
X150131946Y-61779426D01*
X150179373Y-61780595D01*
X150251904Y-61780813D01*
X150422727Y-61780813D01*
X150422727Y-61708577D01*
X150422853Y-61699413D01*
X150432532Y-61639183D01*
X150456498Y-61602523D01*
X150493164Y-61590817D01*
X150540944Y-61605449D01*
X150542168Y-61606120D01*
X150558844Y-61622060D01*
X150567083Y-61650893D01*
X150569293Y-61700717D01*
X150569293Y-61780813D01*
X150693144Y-61780813D01*
X150816994Y-61780813D01*
X150821390Y-61696827D01*
X150824161Y-61657005D01*
X150830518Y-61625876D01*
X150843693Y-61609072D01*
X150867625Y-61598190D01*
X150886226Y-61592601D01*
X150912724Y-61594526D01*
X150937244Y-61617845D01*
X150955952Y-61653772D01*
X150965023Y-61716482D01*
X150965023Y-61780813D01*
X151086674Y-61780813D01*
X151138733Y-61781709D01*
X151191722Y-61787177D01*
X151223666Y-61799579D01*
X151239336Y-61821143D01*
X151243500Y-61854097D01*
X151241584Y-61878424D01*
X151229882Y-61903185D01*
X151203342Y-61918112D01*
X151157196Y-61925434D01*
X151086674Y-61927380D01*
X150965023Y-61927380D01*
X150965023Y-62008955D01*
X150962142Y-62068566D01*
X150950353Y-62114816D01*
X150927561Y-62139763D01*
X150891740Y-62147230D01*
X150860148Y-62141793D01*
X150835636Y-62119550D01*
X150822414Y-62076544D01*
X150818457Y-62008955D01*
X150818457Y-61927380D01*
X150694575Y-61927380D01*
X150570692Y-61927380D01*
X150566329Y-62018490D01*
X150563594Y-62060344D01*
X150557270Y-62095253D01*
X150544736Y-62116125D01*
X150522661Y-62131593D01*
X150499421Y-62143166D01*
X150477335Y-62144004D01*
X150453042Y-62126152D01*
X150452137Y-62125324D01*
X150434150Y-62101559D01*
X150425171Y-62067208D01*
X150422727Y-62013049D01*
X150422727Y-61927380D01*
X150125197Y-61927380D01*
X150013718Y-61926772D01*
X149927156Y-61924825D01*
X149865751Y-61921424D01*
X149827420Y-61916452D01*
X149810078Y-61909792D01*
X149794147Y-61877221D01*
X149798120Y-61835645D01*
X149822226Y-61798223D01*
X149828303Y-61792453D01*
X149837245Y-61781051D01*
X149840043Y-61766655D01*
X149835419Y-61744565D01*
X149822091Y-61710081D01*
X149798781Y-61658503D01*
X149764210Y-61585130D01*
X149676458Y-61399740D01*
X149522044Y-61399740D01*
X149367630Y-61399740D01*
X149256046Y-61623254D01*
X149228004Y-61678820D01*
X149191477Y-61749366D01*
X149159815Y-61808453D01*
X149135690Y-61851123D01*
X149121773Y-61872418D01*
X149119766Y-61874578D01*
X149102406Y-61886333D01*
X149074300Y-61893509D01*
X149029274Y-61897092D01*
X148961154Y-61898067D01*
X148929833Y-61897688D01*
X148869322Y-61894764D01*
X148821579Y-61889582D01*
X148794874Y-61882894D01*
X148779058Y-61867159D01*
X148767372Y-61832746D01*
X148768898Y-61796080D01*
X148784845Y-61770686D01*
X148787757Y-61769262D01*
X148815897Y-61762687D01*
X148862933Y-61756368D01*
X148920419Y-61751500D01*
X149037672Y-61744172D01*
X149121367Y-61582948D01*
X149123579Y-61578683D01*
X149155354Y-61516625D01*
X149181379Y-61464359D01*
X149199020Y-61427267D01*
X149205643Y-61410733D01*
X149200031Y-61404205D01*
X149175947Y-61399740D01*
X149136409Y-61393618D01*
X149101461Y-61368774D01*
X149088970Y-61327736D01*
X149089817Y-61310217D01*
X149097957Y-61283699D01*
X149118252Y-61265808D01*
X149154978Y-61254872D01*
X149212406Y-61249218D01*
X149294810Y-61247174D01*
X149455376Y-61245845D01*
X149455395Y-61004010D01*
X149455413Y-60762175D01*
X149001654Y-60769504D01*
X148980273Y-60769850D01*
X148857005Y-60771955D01*
X148759370Y-60773969D01*
X148684179Y-60776138D01*
X148628243Y-60778707D01*
X148588372Y-60781921D01*
X148561378Y-60786027D01*
X148544071Y-60791269D01*
X148533264Y-60797893D01*
X148525766Y-60806145D01*
X148523962Y-60809086D01*
X148520388Y-60819396D01*
X148517247Y-60836517D01*
X148514511Y-60862180D01*
X148512153Y-60898117D01*
X148510145Y-60946059D01*
X148508458Y-61007735D01*
X148507064Y-61084878D01*
X148505935Y-61179217D01*
X148505044Y-61292484D01*
X148504362Y-61426410D01*
X148503862Y-61582726D01*
X148503515Y-61763162D01*
X148503294Y-61969450D01*
X148503170Y-62203320D01*
X148502704Y-63571181D01*
X148349855Y-63571181D01*
X148347838Y-63531623D01*
X148346121Y-63479163D01*
X148344744Y-63413581D01*
X148343671Y-63333077D01*
X148342863Y-63235854D01*
X148342284Y-63120111D01*
X148341894Y-62984051D01*
X148341656Y-62825873D01*
X148341533Y-62643779D01*
X148341487Y-62435969D01*
X148341480Y-62200645D01*
X148341485Y-62054007D01*
X148341525Y-61835447D01*
X148341636Y-61643321D01*
X148341855Y-61475837D01*
X148342217Y-61331205D01*
X148342755Y-61207634D01*
X148343507Y-61103332D01*
X148344506Y-61016510D01*
X148345788Y-60945375D01*
X148347389Y-60888139D01*
X148349343Y-60843009D01*
X148351686Y-60808195D01*
X148354453Y-60781906D01*
X148357678Y-60762351D01*
X148361398Y-60747740D01*
X148365648Y-60736281D01*
X148370462Y-60726184D01*
X148375232Y-60717480D01*
X148408839Y-60671573D01*
X148447409Y-60635164D01*
X148495375Y-60600952D01*
X149455413Y-60598449D01*
X149979544Y-60597082D01*
X150183386Y-60596561D01*
X150401614Y-60596048D01*
X150593730Y-60595681D01*
X150761481Y-60595487D01*
X150906610Y-60595494D01*
G37*
G36*
X146646568Y-64067255D02*
G01*
X146867592Y-64067287D01*
X147061879Y-64067386D01*
X147231239Y-64067589D01*
X147301929Y-64067755D01*
X147377485Y-64067932D01*
X147502430Y-64068453D01*
X147607884Y-64069186D01*
X147695659Y-64070168D01*
X147767568Y-64071437D01*
X147825423Y-64073027D01*
X147871035Y-64074976D01*
X147906215Y-64077320D01*
X147932777Y-64080095D01*
X147952531Y-64083338D01*
X147967290Y-64087084D01*
X147978866Y-64091371D01*
X147989070Y-64096235D01*
X148028948Y-64121978D01*
X148085801Y-64182245D01*
X148121946Y-64254732D01*
X148122602Y-64258987D01*
X148124257Y-64289601D01*
X148125784Y-64346671D01*
X148127168Y-64428124D01*
X148128398Y-64531888D01*
X148129458Y-64655889D01*
X148130336Y-64798055D01*
X148131018Y-64956313D01*
X148131490Y-65128589D01*
X148131738Y-65312810D01*
X148131749Y-65506905D01*
X148131509Y-65708800D01*
X148128959Y-67123168D01*
X148095243Y-67177391D01*
X148090286Y-67184889D01*
X148051564Y-67229472D01*
X148007303Y-67265331D01*
X147953079Y-67299048D01*
X146586111Y-67303214D01*
X146554516Y-67303308D01*
X146292825Y-67303926D01*
X146059817Y-67304159D01*
X145854926Y-67304002D01*
X145677588Y-67303450D01*
X145527238Y-67302500D01*
X145403313Y-67301146D01*
X145305246Y-67299385D01*
X145232475Y-67297210D01*
X145184434Y-67294618D01*
X145160558Y-67291605D01*
X145126932Y-67279508D01*
X145064538Y-67241039D01*
X145014237Y-67189562D01*
X144984588Y-67132801D01*
X144984142Y-67130989D01*
X144981270Y-67103856D01*
X144978806Y-67051068D01*
X144976746Y-66972218D01*
X144975089Y-66866900D01*
X144973831Y-66734708D01*
X144972968Y-66575236D01*
X144972498Y-66388078D01*
X144972433Y-66212670D01*
X145133783Y-66212670D01*
X145133868Y-66379214D01*
X145134138Y-66531485D01*
X145134584Y-66667334D01*
X145135202Y-66784612D01*
X145135982Y-66881172D01*
X145136920Y-66954864D01*
X145138007Y-67003541D01*
X145139237Y-67025053D01*
X145153476Y-67067031D01*
X145176458Y-67102000D01*
X145177317Y-67102848D01*
X145183034Y-67107604D01*
X145190977Y-67111781D01*
X145202951Y-67115416D01*
X145220763Y-67118548D01*
X145246219Y-67121213D01*
X145281124Y-67123450D01*
X145327284Y-67125296D01*
X145386505Y-67126788D01*
X145460593Y-67127963D01*
X145551353Y-67128861D01*
X145660592Y-67129517D01*
X145790115Y-67129969D01*
X145941728Y-67130256D01*
X146117237Y-67130414D01*
X146318448Y-67130482D01*
X146547166Y-67130496D01*
X147889379Y-67130496D01*
X147932221Y-67087654D01*
X147975064Y-67044811D01*
X147974848Y-65691606D01*
X147974819Y-65592541D01*
X147974632Y-65362611D01*
X147974265Y-65159909D01*
X147973696Y-64982943D01*
X147972906Y-64830219D01*
X147971876Y-64700246D01*
X147970585Y-64591530D01*
X147969012Y-64502579D01*
X147967139Y-64431899D01*
X147964945Y-64378000D01*
X147962410Y-64339386D01*
X147959515Y-64314567D01*
X147956238Y-64302049D01*
X147953819Y-64297179D01*
X147947863Y-64285429D01*
X147941068Y-64275105D01*
X147931654Y-64266120D01*
X147917840Y-64258387D01*
X147897848Y-64251820D01*
X147869897Y-64246331D01*
X147832209Y-64241833D01*
X147783004Y-64238239D01*
X147720501Y-64235463D01*
X147642922Y-64233417D01*
X147548487Y-64232014D01*
X147435416Y-64231167D01*
X147301929Y-64230790D01*
X147146248Y-64230795D01*
X146966592Y-64231095D01*
X146761182Y-64231603D01*
X146528238Y-64232232D01*
X146395273Y-64232594D01*
X146182384Y-64233223D01*
X145995990Y-64233872D01*
X145834292Y-64234580D01*
X145695491Y-64235386D01*
X145577785Y-64236330D01*
X145479377Y-64237451D01*
X145398467Y-64238788D01*
X145333255Y-64240380D01*
X145281942Y-64242267D01*
X145242728Y-64244487D01*
X145213814Y-64247081D01*
X145193401Y-64250088D01*
X145179688Y-64253546D01*
X145170877Y-64257495D01*
X145165169Y-64261974D01*
X145162406Y-64265144D01*
X145158259Y-64272509D01*
X145154615Y-64284069D01*
X145151431Y-64301616D01*
X145148670Y-64326946D01*
X145146291Y-64361853D01*
X145144254Y-64408131D01*
X145142520Y-64467574D01*
X145141048Y-64541976D01*
X145139799Y-64633132D01*
X145138733Y-64742836D01*
X145137810Y-64872882D01*
X145136991Y-65025065D01*
X145136235Y-65201178D01*
X145135503Y-65403015D01*
X145134755Y-65632372D01*
X145134704Y-65648886D01*
X145134194Y-65845358D01*
X145133890Y-66034002D01*
X145133783Y-66212670D01*
X144972433Y-66212670D01*
X144972418Y-66172827D01*
X144972724Y-65929077D01*
X144973414Y-65656423D01*
X144977776Y-64233648D01*
X145014166Y-64180545D01*
X145020067Y-64172450D01*
X145060039Y-64130155D01*
X145104101Y-64097348D01*
X145110329Y-64093935D01*
X145120226Y-64089288D01*
X145132323Y-64085215D01*
X145148429Y-64081677D01*
X145170350Y-64078637D01*
X145199894Y-64076058D01*
X145238869Y-64073901D01*
X145289082Y-64072128D01*
X145352340Y-64070702D01*
X145430452Y-64069585D01*
X145525224Y-64068740D01*
X145638465Y-64068128D01*
X145771981Y-64067713D01*
X145927581Y-64067455D01*
X146107071Y-64067318D01*
X146312260Y-64067263D01*
X146544954Y-64067253D01*
X146646568Y-64067255D01*
G37*
G36*
X149564474Y-62046919D02*
G01*
X149577199Y-62053185D01*
X149589139Y-62063273D01*
X149596448Y-62080466D01*
X149600264Y-62110316D01*
X149601720Y-62158374D01*
X149601954Y-62230194D01*
X149601954Y-62396393D01*
X149760246Y-62396393D01*
X149803528Y-62396648D01*
X149869580Y-62399299D01*
X149913130Y-62406225D01*
X149938673Y-62419128D01*
X149950702Y-62439711D01*
X149953714Y-62469677D01*
X149946766Y-62507847D01*
X149919674Y-62534470D01*
X149870258Y-62542960D01*
X149821979Y-62542960D01*
X149898497Y-62696817D01*
X149975015Y-62850673D01*
X150009396Y-62806742D01*
X150032428Y-62782890D01*
X150071133Y-62763642D01*
X150106312Y-62769171D01*
X150132414Y-62799789D01*
X150139916Y-62820627D01*
X150137600Y-62847030D01*
X150117005Y-62880401D01*
X150084746Y-62924033D01*
X150253736Y-62924033D01*
X150422727Y-62924033D01*
X150422727Y-62853681D01*
X150423505Y-62827856D01*
X150433241Y-62780781D01*
X150456439Y-62755612D01*
X150496010Y-62748153D01*
X150513945Y-62749273D01*
X150546635Y-62763294D01*
X150564114Y-62796700D01*
X150569293Y-62853681D01*
X150569293Y-62924033D01*
X150693875Y-62924033D01*
X150818457Y-62924033D01*
X150818457Y-62853681D01*
X150818844Y-62835335D01*
X150827480Y-62784518D01*
X150849198Y-62756649D01*
X150886296Y-62748153D01*
X150888778Y-62748184D01*
X150930645Y-62761680D01*
X150956306Y-62799007D01*
X150965023Y-62859125D01*
X150965023Y-62924033D01*
X151077459Y-62924033D01*
X151091006Y-62924091D01*
X151152436Y-62926852D01*
X151192224Y-62934550D01*
X151216697Y-62948290D01*
X151236934Y-62977848D01*
X151242146Y-63018441D01*
X151225912Y-63053012D01*
X151202789Y-63062155D01*
X151154616Y-63068387D01*
X151086674Y-63070600D01*
X150965023Y-63070600D01*
X150965023Y-63147950D01*
X150963436Y-63181157D01*
X150950361Y-63239128D01*
X150925830Y-63276933D01*
X150891956Y-63290450D01*
X150874934Y-63288716D01*
X150842910Y-63268975D01*
X150824408Y-63225820D01*
X150818457Y-63157493D01*
X150818457Y-63070600D01*
X150693875Y-63070600D01*
X150569293Y-63070600D01*
X150569293Y-63157493D01*
X150565632Y-63208142D01*
X150549889Y-63259146D01*
X150523792Y-63287184D01*
X150489589Y-63290213D01*
X150449530Y-63266193D01*
X150435646Y-63248158D01*
X150425638Y-63212717D01*
X150422727Y-63156268D01*
X150422727Y-63070600D01*
X150125197Y-63070600D01*
X150013718Y-63069992D01*
X149927156Y-63068045D01*
X149865751Y-63064644D01*
X149827420Y-63059672D01*
X149810078Y-63053012D01*
X149795867Y-63028907D01*
X149796540Y-62988024D01*
X149820146Y-62946963D01*
X149825119Y-62941399D01*
X149833501Y-62928866D01*
X149835907Y-62913556D01*
X149831005Y-62890733D01*
X149817468Y-62855662D01*
X149793963Y-62803607D01*
X149759162Y-62729833D01*
X149670523Y-62542960D01*
X149519970Y-62542960D01*
X149369417Y-62542960D01*
X149264395Y-62751818D01*
X149253766Y-62772971D01*
X149210229Y-62859042D01*
X149175807Y-62923062D01*
X149146838Y-62968290D01*
X149119656Y-62997985D01*
X149090601Y-63015407D01*
X149056007Y-63023815D01*
X149012212Y-63026469D01*
X148955552Y-63026630D01*
X148887206Y-63025173D01*
X148828412Y-63018697D01*
X148791365Y-63005600D01*
X148772068Y-62984333D01*
X148766524Y-62953347D01*
X148766743Y-62946441D01*
X148776905Y-62914944D01*
X148804865Y-62894474D01*
X148854246Y-62883393D01*
X148928672Y-62880063D01*
X149044755Y-62880063D01*
X149125490Y-62719084D01*
X149127317Y-62715438D01*
X149158027Y-62653561D01*
X149183109Y-62601914D01*
X149200021Y-62565802D01*
X149206224Y-62550532D01*
X149197698Y-62545629D01*
X149170629Y-62542960D01*
X149136846Y-62537079D01*
X149103743Y-62511595D01*
X149091605Y-62471951D01*
X149104143Y-62424743D01*
X149105843Y-62421739D01*
X149116050Y-62410378D01*
X149133885Y-62403002D01*
X149164767Y-62398771D01*
X149214116Y-62396848D01*
X149287351Y-62396393D01*
X149455387Y-62396393D01*
X149455387Y-62251025D01*
X149455705Y-62212037D01*
X149457513Y-62152155D01*
X149460561Y-62106281D01*
X149464440Y-62082067D01*
X149482357Y-62055631D01*
X149519633Y-62039148D01*
X149564474Y-62046919D01*
G37*
G36*
X143793860Y-63530629D02*
G01*
X143823967Y-63547773D01*
X143828949Y-63551419D01*
X143843574Y-63566851D01*
X143851913Y-63589742D01*
X143855668Y-63627370D01*
X143856541Y-63687011D01*
X143856541Y-63803433D01*
X143896847Y-63803243D01*
X143897415Y-63803238D01*
X143928015Y-63800774D01*
X143980142Y-63794478D01*
X144046641Y-63785283D01*
X144120361Y-63774120D01*
X144185710Y-63763862D01*
X144253020Y-63753845D01*
X144299723Y-63748290D01*
X144330626Y-63747095D01*
X144350535Y-63750156D01*
X144364258Y-63757370D01*
X144376601Y-63768634D01*
X144392227Y-63788154D01*
X144399753Y-63820585D01*
X144383499Y-63855400D01*
X144342117Y-63894876D01*
X144274256Y-63941288D01*
X144272758Y-63942218D01*
X144213260Y-63979172D01*
X144138556Y-64025580D01*
X144058044Y-64075605D01*
X143981123Y-64123406D01*
X143885706Y-64182748D01*
X143789186Y-64242668D01*
X143712801Y-64289557D01*
X143653869Y-64324666D01*
X143609709Y-64349247D01*
X143577638Y-64364551D01*
X143554976Y-64371831D01*
X143539041Y-64372337D01*
X143527151Y-64367321D01*
X143516625Y-64358035D01*
X143504781Y-64345730D01*
X143497643Y-64337881D01*
X143486210Y-64318022D01*
X143479472Y-64288905D01*
X143476277Y-64243853D01*
X143475468Y-64176190D01*
X143475153Y-64120099D01*
X143473407Y-64075922D01*
X143469250Y-64051862D01*
X143461711Y-64042916D01*
X143449819Y-64044083D01*
X143446415Y-64045120D01*
X143412242Y-64054149D01*
X143358751Y-64067057D01*
X143291925Y-64082525D01*
X143217747Y-64099232D01*
X143142198Y-64115860D01*
X143071263Y-64131089D01*
X143010922Y-64143601D01*
X142967160Y-64152075D01*
X142945958Y-64155193D01*
X142931687Y-64152995D01*
X142902709Y-64131837D01*
X142887764Y-64096734D01*
X142892644Y-64058221D01*
X142905660Y-64035017D01*
X142918182Y-64023283D01*
X142925196Y-64020008D01*
X142954684Y-64003625D01*
X143004256Y-63975048D01*
X143070897Y-63936043D01*
X143094499Y-63922102D01*
X143380199Y-63922102D01*
X143479802Y-63912828D01*
X143501506Y-63910921D01*
X143557425Y-63909157D01*
X143592739Y-63917947D01*
X143612146Y-63941965D01*
X143620345Y-63985887D01*
X143622034Y-64054391D01*
X143622073Y-64069404D01*
X143622851Y-64120547D01*
X143624427Y-64156359D01*
X143626529Y-64169850D01*
X143631657Y-64167326D01*
X143657791Y-64152485D01*
X143702078Y-64126575D01*
X143760145Y-64092164D01*
X143827616Y-64051818D01*
X143867234Y-64027950D01*
X143930465Y-63989489D01*
X143981995Y-63957675D01*
X144017331Y-63935294D01*
X144031978Y-63925131D01*
X144032369Y-63924622D01*
X144023807Y-63921458D01*
X143995779Y-63924788D01*
X143968714Y-63929254D01*
X143917127Y-63936476D01*
X143860310Y-63943432D01*
X143802598Y-63947912D01*
X143761081Y-63942527D01*
X143737539Y-63921881D01*
X143727035Y-63881346D01*
X143724631Y-63816295D01*
X143724629Y-63813723D01*
X143723639Y-63764138D01*
X143721192Y-63728901D01*
X143717797Y-63715493D01*
X143717563Y-63715516D01*
X143701581Y-63723538D01*
X143668237Y-63743202D01*
X143624418Y-63770456D01*
X143580760Y-63798021D01*
X143515926Y-63838569D01*
X143459036Y-63873760D01*
X143380199Y-63922102D01*
X143094499Y-63922102D01*
X143151598Y-63888376D01*
X143243346Y-63833813D01*
X143343128Y-63774120D01*
X143409664Y-63734330D01*
X143505066Y-63677743D01*
X143590755Y-63627469D01*
X143663658Y-63585280D01*
X143717797Y-63554595D01*
X143720702Y-63552949D01*
X143758815Y-63532250D01*
X143774924Y-63524957D01*
X143793860Y-63530629D01*
G37*
G36*
X146068283Y-65903570D02*
G01*
X146090438Y-65920803D01*
X146104365Y-65955101D01*
X146111597Y-66010470D01*
X146113667Y-66090920D01*
X146113667Y-66236440D01*
X146223592Y-66236440D01*
X146333517Y-66236440D01*
X146333517Y-66207126D01*
X146480084Y-66207126D01*
X146480084Y-66333417D01*
X146480401Y-66393519D01*
X146482356Y-66430540D01*
X146487450Y-66448874D01*
X146497185Y-66453869D01*
X146513062Y-66450871D01*
X146521134Y-66449612D01*
X146557366Y-66447167D01*
X146615991Y-66445052D01*
X146692334Y-66443381D01*
X146781721Y-66442269D01*
X146879478Y-66441833D01*
X147212917Y-66441633D01*
X147212917Y-66324380D01*
X147212917Y-66207126D01*
X146846501Y-66207126D01*
X146480084Y-66207126D01*
X146333517Y-66207126D01*
X146333517Y-66175303D01*
X146333699Y-66146428D01*
X146336135Y-66120474D01*
X146343828Y-66100358D01*
X146359785Y-66085338D01*
X146387014Y-66074668D01*
X146428521Y-66067606D01*
X146487314Y-66063408D01*
X146566399Y-66061330D01*
X146668783Y-66060628D01*
X146797474Y-66060560D01*
X146846501Y-66060560D01*
X147212917Y-66060560D01*
X147212917Y-66012522D01*
X147216857Y-65976156D01*
X147235650Y-65932533D01*
X147265300Y-65906508D01*
X147300627Y-65901860D01*
X147336452Y-65922368D01*
X147347002Y-65938915D01*
X147354433Y-65969436D01*
X147358346Y-66018285D01*
X147359484Y-66090920D01*
X147359484Y-66236440D01*
X147473476Y-66236440D01*
X147528627Y-66237881D01*
X147585267Y-66245194D01*
X147620043Y-66259256D01*
X147625273Y-66263303D01*
X147647690Y-66296718D01*
X147650763Y-66335071D01*
X147633035Y-66366356D01*
X147628632Y-66368891D01*
X147598177Y-66376951D01*
X147549254Y-66383874D01*
X147490132Y-66388385D01*
X147366812Y-66394163D01*
X147362426Y-66476199D01*
X147361409Y-66496065D01*
X147358949Y-66525820D01*
X147353165Y-66549466D01*
X147341170Y-66567705D01*
X147320076Y-66581237D01*
X147286996Y-66590764D01*
X147239042Y-66596987D01*
X147173326Y-66600606D01*
X147086960Y-66602324D01*
X146977057Y-66602840D01*
X146840729Y-66602856D01*
X146763900Y-66602873D01*
X146643355Y-66602704D01*
X146547693Y-66601669D01*
X146474041Y-66599049D01*
X146419527Y-66594127D01*
X146381280Y-66586183D01*
X146356427Y-66574499D01*
X146342096Y-66558357D01*
X146335415Y-66537040D01*
X146333513Y-66509828D01*
X146333517Y-66476003D01*
X146333517Y-66397663D01*
X146223592Y-66397663D01*
X146113667Y-66397663D01*
X146113667Y-66535854D01*
X146112489Y-66595848D01*
X146106225Y-66656178D01*
X146093141Y-66694347D01*
X146071651Y-66714332D01*
X146040168Y-66720109D01*
X146033977Y-66719832D01*
X146003477Y-66706366D01*
X145982716Y-66671089D01*
X145970867Y-66611803D01*
X145967101Y-66526312D01*
X145967101Y-66397663D01*
X145777611Y-66397663D01*
X145689230Y-66396582D01*
X145625471Y-66392394D01*
X145582915Y-66383712D01*
X145557522Y-66369150D01*
X145545250Y-66347320D01*
X145542057Y-66316835D01*
X145543585Y-66298851D01*
X145555488Y-66273248D01*
X145582213Y-66255381D01*
X145627343Y-66244074D01*
X145694462Y-66238152D01*
X145787154Y-66236440D01*
X145967101Y-66236440D01*
X145967101Y-66090920D01*
X145968720Y-66017985D01*
X145975312Y-65960064D01*
X145988431Y-65923655D01*
X146009611Y-65904748D01*
X146040384Y-65899336D01*
X146068283Y-65903570D01*
G37*
G36*
X146414129Y-64806067D02*
G01*
X146415569Y-64807015D01*
X146432084Y-64819872D01*
X146442420Y-64836183D01*
X146448020Y-64862410D01*
X146450323Y-64905020D01*
X146450771Y-64970476D01*
X146450771Y-65110876D01*
X146644972Y-65105712D01*
X146839172Y-65100548D01*
X146846501Y-64963031D01*
X146848047Y-64935839D01*
X146852747Y-64878280D01*
X146859217Y-64841590D01*
X146868911Y-64819571D01*
X146883279Y-64806026D01*
X146887673Y-64803223D01*
X146916011Y-64793995D01*
X146949234Y-64804687D01*
X146957113Y-64808849D01*
X146972809Y-64821660D01*
X146982048Y-64842371D01*
X146987046Y-64878119D01*
X146990020Y-64936043D01*
X146990562Y-64949136D01*
X146993688Y-65000050D01*
X146997530Y-65035773D01*
X147001378Y-65049250D01*
X147002859Y-65048912D01*
X147023362Y-65040192D01*
X147061581Y-65022071D01*
X147110687Y-64997767D01*
X147140967Y-64982336D01*
X147180661Y-64959964D01*
X147202233Y-64941801D01*
X147211159Y-64922414D01*
X147212917Y-64896369D01*
X147213797Y-64866110D01*
X147222034Y-64825714D01*
X147242024Y-64805564D01*
X147277509Y-64800086D01*
X147278591Y-64800088D01*
X147314156Y-64803529D01*
X147337612Y-64816826D01*
X147351374Y-64844818D01*
X147357859Y-64892343D01*
X147359484Y-64964241D01*
X147359484Y-65093220D01*
X147487730Y-65093444D01*
X147541784Y-65094065D01*
X147594038Y-65097290D01*
X147626674Y-65104584D01*
X147645259Y-65117399D01*
X147655362Y-65137190D01*
X147658425Y-65163296D01*
X147650376Y-65201976D01*
X147631918Y-65228569D01*
X147626750Y-65230566D01*
X147596322Y-65235096D01*
X147547390Y-65238292D01*
X147487730Y-65239562D01*
X147359484Y-65239786D01*
X147359484Y-65392850D01*
X147359484Y-65395049D01*
X147358941Y-65463791D01*
X147356637Y-65509403D01*
X147351504Y-65537902D01*
X147342477Y-65555304D01*
X147328488Y-65567625D01*
X147303056Y-65579593D01*
X147273525Y-65581064D01*
X147270340Y-65579929D01*
X147248519Y-65568590D01*
X147232967Y-65550250D01*
X147222656Y-65520450D01*
X147216562Y-65474734D01*
X147213657Y-65408642D01*
X147212917Y-65317717D01*
X147212917Y-65108116D01*
X147102992Y-65162509D01*
X146993067Y-65216901D01*
X146993067Y-65379967D01*
X146993064Y-65387712D01*
X146992430Y-65457855D01*
X146990034Y-65505221D01*
X146984923Y-65535791D01*
X146976147Y-65555546D01*
X146962752Y-65570468D01*
X146944276Y-65585326D01*
X146923133Y-65589511D01*
X146893133Y-65575876D01*
X146884549Y-65570912D01*
X146869807Y-65559375D01*
X146860442Y-65542575D01*
X146854966Y-65514500D01*
X146851891Y-65469139D01*
X146849731Y-65400482D01*
X146845633Y-65247115D01*
X146648202Y-65251572D01*
X146450771Y-65256029D01*
X146450771Y-65401465D01*
X146450763Y-65415953D01*
X146450134Y-65477958D01*
X146447522Y-65518143D01*
X146441560Y-65542821D01*
X146430885Y-65558305D01*
X146414129Y-65570909D01*
X146392087Y-65583909D01*
X146369532Y-65586417D01*
X146340846Y-65570909D01*
X146304204Y-65546901D01*
X146304204Y-65188488D01*
X146304204Y-64830075D01*
X146340846Y-64806067D01*
X146362888Y-64793067D01*
X146385443Y-64790559D01*
X146414129Y-64806067D01*
G37*
G36*
X146077281Y-64806234D02*
G01*
X146114177Y-64830410D01*
X146110258Y-65192233D01*
X146106339Y-65554056D01*
X146069835Y-65572247D01*
X146064225Y-65574952D01*
X146032787Y-65582902D01*
X146003880Y-65570921D01*
X145992681Y-65561543D01*
X145982858Y-65544301D01*
X145976624Y-65515438D01*
X145972824Y-65469057D01*
X145970306Y-65399260D01*
X145966183Y-65247115D01*
X145781071Y-65248416D01*
X145760051Y-65248541D01*
X145687547Y-65248270D01*
X145637624Y-65246214D01*
X145604848Y-65241716D01*
X145583788Y-65234120D01*
X145569008Y-65222767D01*
X145546629Y-65188601D01*
X145546887Y-65149584D01*
X145574632Y-65116036D01*
X145580604Y-65112335D01*
X145606064Y-65103157D01*
X145645601Y-65097274D01*
X145704276Y-65094143D01*
X145787154Y-65093220D01*
X145967101Y-65093220D01*
X145967101Y-64961648D01*
X145967464Y-64905817D01*
X145969716Y-64862530D01*
X145975452Y-64835980D01*
X145986264Y-64819411D01*
X146003742Y-64806067D01*
X146026010Y-64792969D01*
X146048506Y-64790627D01*
X146077281Y-64806234D01*
G37*
%TD*%
M02*
