%TF.GenerationSoftware,KiCad,Pcbnew,10.0.0*%
%TF.CreationDate,2026-03-26T21:16:05-04:00*%
%TF.ProjectId,DC_input_proteciton_circuit,44435f69-6e70-4757-945f-70726f746563,rev?*%
%TF.SameCoordinates,Original*%
%TF.FileFunction,Legend,Top*%
%TF.FilePolarity,Positive*%
%FSLAX46Y46*%
G04 Gerber Fmt 4.6, Leading zero omitted, Abs format (unit mm)*
G04 Created by KiCad (PCBNEW 10.0.0) date 2026-03-26 21:16:05*
%MOMM*%
%LPD*%
G01*
G04 APERTURE LIST*
%ADD10C,0.150000*%
%ADD11C,0.100000*%
%ADD12C,0.254000*%
%ADD13C,0.120000*%
%ADD14C,0.152400*%
%ADD15C,0.127000*%
G04 APERTURE END LIST*
D10*
X174752256Y-124738866D02*
X175514161Y-124738866D01*
X175133208Y-125119819D02*
X175133208Y-124357914D01*
X175847494Y-124119819D02*
X176180827Y-125119819D01*
X176180827Y-125119819D02*
X176514160Y-124119819D01*
X176847494Y-125119819D02*
X176847494Y-124119819D01*
X177323684Y-125119819D02*
X177323684Y-124119819D01*
X177323684Y-124119819D02*
X177895112Y-125119819D01*
X177895112Y-125119819D02*
X177895112Y-124119819D01*
X154782594Y-139570770D02*
X154734975Y-139523151D01*
X154734975Y-139523151D02*
X154639737Y-139380294D01*
X154639737Y-139380294D02*
X154592118Y-139285056D01*
X154592118Y-139285056D02*
X154544499Y-139142199D01*
X154544499Y-139142199D02*
X154496880Y-138904103D01*
X154496880Y-138904103D02*
X154496880Y-138713627D01*
X154496880Y-138713627D02*
X154544499Y-138475532D01*
X154544499Y-138475532D02*
X154592118Y-138332675D01*
X154592118Y-138332675D02*
X154639737Y-138237437D01*
X154639737Y-138237437D02*
X154734975Y-138094579D01*
X154734975Y-138094579D02*
X154782594Y-138046960D01*
X155068309Y-138189818D02*
X155687356Y-138189818D01*
X155687356Y-138189818D02*
X155354023Y-138570770D01*
X155354023Y-138570770D02*
X155496880Y-138570770D01*
X155496880Y-138570770D02*
X155592118Y-138618389D01*
X155592118Y-138618389D02*
X155639737Y-138666008D01*
X155639737Y-138666008D02*
X155687356Y-138761246D01*
X155687356Y-138761246D02*
X155687356Y-138999341D01*
X155687356Y-138999341D02*
X155639737Y-139094579D01*
X155639737Y-139094579D02*
X155592118Y-139142199D01*
X155592118Y-139142199D02*
X155496880Y-139189818D01*
X155496880Y-139189818D02*
X155211166Y-139189818D01*
X155211166Y-139189818D02*
X155115928Y-139142199D01*
X155115928Y-139142199D02*
X155068309Y-139094579D01*
X156068309Y-138285056D02*
X156115928Y-138237437D01*
X156115928Y-138237437D02*
X156211166Y-138189818D01*
X156211166Y-138189818D02*
X156449261Y-138189818D01*
X156449261Y-138189818D02*
X156544499Y-138237437D01*
X156544499Y-138237437D02*
X156592118Y-138285056D01*
X156592118Y-138285056D02*
X156639737Y-138380294D01*
X156639737Y-138380294D02*
X156639737Y-138475532D01*
X156639737Y-138475532D02*
X156592118Y-138618389D01*
X156592118Y-138618389D02*
X156020690Y-139189818D01*
X156020690Y-139189818D02*
X156639737Y-139189818D01*
X157544499Y-138189818D02*
X157068309Y-138189818D01*
X157068309Y-138189818D02*
X157020690Y-138666008D01*
X157020690Y-138666008D02*
X157068309Y-138618389D01*
X157068309Y-138618389D02*
X157163547Y-138570770D01*
X157163547Y-138570770D02*
X157401642Y-138570770D01*
X157401642Y-138570770D02*
X157496880Y-138618389D01*
X157496880Y-138618389D02*
X157544499Y-138666008D01*
X157544499Y-138666008D02*
X157592118Y-138761246D01*
X157592118Y-138761246D02*
X157592118Y-138999341D01*
X157592118Y-138999341D02*
X157544499Y-139094579D01*
X157544499Y-139094579D02*
X157496880Y-139142199D01*
X157496880Y-139142199D02*
X157401642Y-139189818D01*
X157401642Y-139189818D02*
X157163547Y-139189818D01*
X157163547Y-139189818D02*
X157068309Y-139142199D01*
X157068309Y-139142199D02*
X157020690Y-139094579D01*
X158020690Y-138808865D02*
X158782595Y-138808865D01*
X159687356Y-138523151D02*
X159687356Y-139189818D01*
X159449261Y-138142199D02*
X159211166Y-138856484D01*
X159211166Y-138856484D02*
X159830213Y-138856484D01*
X160163547Y-138285056D02*
X160211166Y-138237437D01*
X160211166Y-138237437D02*
X160306404Y-138189818D01*
X160306404Y-138189818D02*
X160544499Y-138189818D01*
X160544499Y-138189818D02*
X160639737Y-138237437D01*
X160639737Y-138237437D02*
X160687356Y-138285056D01*
X160687356Y-138285056D02*
X160734975Y-138380294D01*
X160734975Y-138380294D02*
X160734975Y-138475532D01*
X160734975Y-138475532D02*
X160687356Y-138618389D01*
X160687356Y-138618389D02*
X160115928Y-139189818D01*
X160115928Y-139189818D02*
X160734975Y-139189818D01*
X161639737Y-138189818D02*
X161163547Y-138189818D01*
X161163547Y-138189818D02*
X161115928Y-138666008D01*
X161115928Y-138666008D02*
X161163547Y-138618389D01*
X161163547Y-138618389D02*
X161258785Y-138570770D01*
X161258785Y-138570770D02*
X161496880Y-138570770D01*
X161496880Y-138570770D02*
X161592118Y-138618389D01*
X161592118Y-138618389D02*
X161639737Y-138666008D01*
X161639737Y-138666008D02*
X161687356Y-138761246D01*
X161687356Y-138761246D02*
X161687356Y-138999341D01*
X161687356Y-138999341D02*
X161639737Y-139094579D01*
X161639737Y-139094579D02*
X161592118Y-139142199D01*
X161592118Y-139142199D02*
X161496880Y-139189818D01*
X161496880Y-139189818D02*
X161258785Y-139189818D01*
X161258785Y-139189818D02*
X161163547Y-139142199D01*
X161163547Y-139142199D02*
X161115928Y-139094579D01*
X162020690Y-139570770D02*
X162068309Y-139523151D01*
X162068309Y-139523151D02*
X162163547Y-139380294D01*
X162163547Y-139380294D02*
X162211166Y-139285056D01*
X162211166Y-139285056D02*
X162258785Y-139142199D01*
X162258785Y-139142199D02*
X162306404Y-138904103D01*
X162306404Y-138904103D02*
X162306404Y-138713627D01*
X162306404Y-138713627D02*
X162258785Y-138475532D01*
X162258785Y-138475532D02*
X162211166Y-138332675D01*
X162211166Y-138332675D02*
X162163547Y-138237437D01*
X162163547Y-138237437D02*
X162068309Y-138094579D01*
X162068309Y-138094579D02*
X162020690Y-138046960D01*
X163401643Y-138189818D02*
X163734976Y-139189818D01*
X163734976Y-139189818D02*
X164068309Y-138189818D01*
X164401643Y-139189818D02*
X164401643Y-138189818D01*
X164401643Y-138189818D02*
X164639738Y-138189818D01*
X164639738Y-138189818D02*
X164782595Y-138237437D01*
X164782595Y-138237437D02*
X164877833Y-138332675D01*
X164877833Y-138332675D02*
X164925452Y-138427913D01*
X164925452Y-138427913D02*
X164973071Y-138618389D01*
X164973071Y-138618389D02*
X164973071Y-138761246D01*
X164973071Y-138761246D02*
X164925452Y-138951722D01*
X164925452Y-138951722D02*
X164877833Y-139046960D01*
X164877833Y-139046960D02*
X164782595Y-139142199D01*
X164782595Y-139142199D02*
X164639738Y-139189818D01*
X164639738Y-139189818D02*
X164401643Y-139189818D01*
X165973071Y-139094579D02*
X165925452Y-139142199D01*
X165925452Y-139142199D02*
X165782595Y-139189818D01*
X165782595Y-139189818D02*
X165687357Y-139189818D01*
X165687357Y-139189818D02*
X165544500Y-139142199D01*
X165544500Y-139142199D02*
X165449262Y-139046960D01*
X165449262Y-139046960D02*
X165401643Y-138951722D01*
X165401643Y-138951722D02*
X165354024Y-138761246D01*
X165354024Y-138761246D02*
X165354024Y-138618389D01*
X165354024Y-138618389D02*
X165401643Y-138427913D01*
X165401643Y-138427913D02*
X165449262Y-138332675D01*
X165449262Y-138332675D02*
X165544500Y-138237437D01*
X165544500Y-138237437D02*
X165687357Y-138189818D01*
X165687357Y-138189818D02*
X165782595Y-138189818D01*
X165782595Y-138189818D02*
X165925452Y-138237437D01*
X165925452Y-138237437D02*
X165973071Y-138285056D01*
X167163548Y-139189818D02*
X167163548Y-138189818D01*
X167639738Y-138523151D02*
X167639738Y-139189818D01*
X167639738Y-138618389D02*
X167687357Y-138570770D01*
X167687357Y-138570770D02*
X167782595Y-138523151D01*
X167782595Y-138523151D02*
X167925452Y-138523151D01*
X167925452Y-138523151D02*
X168020690Y-138570770D01*
X168020690Y-138570770D02*
X168068309Y-138666008D01*
X168068309Y-138666008D02*
X168068309Y-139189818D01*
X168544500Y-138523151D02*
X168544500Y-139523151D01*
X168544500Y-138570770D02*
X168639738Y-138523151D01*
X168639738Y-138523151D02*
X168830214Y-138523151D01*
X168830214Y-138523151D02*
X168925452Y-138570770D01*
X168925452Y-138570770D02*
X168973071Y-138618389D01*
X168973071Y-138618389D02*
X169020690Y-138713627D01*
X169020690Y-138713627D02*
X169020690Y-138999341D01*
X169020690Y-138999341D02*
X168973071Y-139094579D01*
X168973071Y-139094579D02*
X168925452Y-139142199D01*
X168925452Y-139142199D02*
X168830214Y-139189818D01*
X168830214Y-139189818D02*
X168639738Y-139189818D01*
X168639738Y-139189818D02*
X168544500Y-139142199D01*
X169877833Y-138523151D02*
X169877833Y-139189818D01*
X169449262Y-138523151D02*
X169449262Y-139046960D01*
X169449262Y-139046960D02*
X169496881Y-139142199D01*
X169496881Y-139142199D02*
X169592119Y-139189818D01*
X169592119Y-139189818D02*
X169734976Y-139189818D01*
X169734976Y-139189818D02*
X169830214Y-139142199D01*
X169830214Y-139142199D02*
X169877833Y-139094579D01*
X170211167Y-138523151D02*
X170592119Y-138523151D01*
X170354024Y-138189818D02*
X170354024Y-139046960D01*
X170354024Y-139046960D02*
X170401643Y-139142199D01*
X170401643Y-139142199D02*
X170496881Y-139189818D01*
X170496881Y-139189818D02*
X170592119Y-139189818D01*
X174752256Y-164738866D02*
X175514161Y-164738866D01*
X175847494Y-164119819D02*
X176180827Y-165119819D01*
X176180827Y-165119819D02*
X176514160Y-164119819D01*
X176847494Y-165119819D02*
X176847494Y-164119819D01*
X177323684Y-165119819D02*
X177323684Y-164119819D01*
X177323684Y-164119819D02*
X177895112Y-165119819D01*
X177895112Y-165119819D02*
X177895112Y-164119819D01*
G36*
X191469732Y-124062410D02*
G01*
X191500139Y-124092817D01*
X191534397Y-124161333D01*
X191534397Y-124411637D01*
X191500138Y-124480153D01*
X191469731Y-124510561D01*
X191401216Y-124544819D01*
X191293769Y-124544819D01*
X191225253Y-124510561D01*
X191194846Y-124480153D01*
X191160588Y-124411637D01*
X191160588Y-124161333D01*
X191194846Y-124092817D01*
X191225253Y-124062410D01*
X191293769Y-124028152D01*
X191401216Y-124028152D01*
X191469732Y-124062410D01*
G37*
G36*
X194136399Y-124062410D02*
G01*
X194166806Y-124092817D01*
X194201064Y-124161333D01*
X194201064Y-124411637D01*
X194166805Y-124480153D01*
X194136398Y-124510561D01*
X194067883Y-124544819D01*
X193960436Y-124544819D01*
X193891920Y-124510561D01*
X193861513Y-124480153D01*
X193827255Y-124411637D01*
X193827255Y-124161333D01*
X193861513Y-124092817D01*
X193891920Y-124062410D01*
X193960436Y-124028152D01*
X194067883Y-124028152D01*
X194136399Y-124062410D01*
G37*
G36*
X196077305Y-124056672D02*
G01*
X196105826Y-124113714D01*
X196105826Y-124129762D01*
X195779636Y-124194999D01*
X195779636Y-124113714D01*
X195808156Y-124056672D01*
X195865198Y-124028152D01*
X196020264Y-124028152D01*
X196077305Y-124056672D01*
G37*
G36*
X198426027Y-124209180D02*
G01*
X198452521Y-124235674D01*
X198486779Y-124304190D01*
X198486779Y-124411637D01*
X198452520Y-124480153D01*
X198422113Y-124510561D01*
X198353598Y-124544819D01*
X198065351Y-124544819D01*
X198065351Y-124171009D01*
X198311514Y-124171009D01*
X198426027Y-124209180D01*
G37*
G36*
X198374495Y-123729077D02*
G01*
X198404902Y-123759484D01*
X198439160Y-123828000D01*
X198439160Y-123887828D01*
X198404902Y-123956344D01*
X198374495Y-123986751D01*
X198305979Y-124021009D01*
X198065351Y-124021009D01*
X198065351Y-123694819D01*
X198305979Y-123694819D01*
X198374495Y-123729077D01*
G37*
G36*
X199326876Y-124062410D02*
G01*
X199357283Y-124092817D01*
X199391541Y-124161333D01*
X199391541Y-124411637D01*
X199357282Y-124480153D01*
X199326875Y-124510561D01*
X199258360Y-124544819D01*
X199150913Y-124544819D01*
X199082397Y-124510561D01*
X199051990Y-124480153D01*
X199017732Y-124411637D01*
X199017732Y-124161333D01*
X199051990Y-124092817D01*
X199082397Y-124062410D01*
X199150913Y-124028152D01*
X199258360Y-124028152D01*
X199326876Y-124062410D01*
G37*
G36*
X200248684Y-124525847D02*
G01*
X200210741Y-124544819D01*
X200008056Y-124544819D01*
X199951014Y-124516298D01*
X199922494Y-124459256D01*
X199922494Y-124399428D01*
X199951014Y-124342386D01*
X200008056Y-124313866D01*
X200228446Y-124313866D01*
X200243078Y-124312425D01*
X200245567Y-124311393D01*
X200248255Y-124311203D01*
X200248684Y-124311038D01*
X200248684Y-124525847D01*
G37*
G36*
X201772494Y-124047123D02*
G01*
X201772494Y-124525847D01*
X201734551Y-124544819D01*
X201579485Y-124544819D01*
X201510969Y-124510561D01*
X201480562Y-124480153D01*
X201446304Y-124411637D01*
X201446304Y-124161333D01*
X201480562Y-124092817D01*
X201510969Y-124062410D01*
X201579485Y-124028152D01*
X201734551Y-124028152D01*
X201772494Y-124047123D01*
G37*
G36*
X193231637Y-123729077D02*
G01*
X193262044Y-123759484D01*
X193296302Y-123828000D01*
X193296302Y-123935447D01*
X193262044Y-124003963D01*
X193231637Y-124034370D01*
X193163121Y-124068628D01*
X192874874Y-124068628D01*
X192874874Y-123694819D01*
X193163121Y-123694819D01*
X193231637Y-123729077D01*
G37*
G36*
X205509796Y-124805930D02*
G01*
X190043775Y-124805930D01*
X190043775Y-123605187D01*
X190154886Y-123605187D01*
X190154886Y-123634451D01*
X190166085Y-123661487D01*
X190186777Y-123682179D01*
X190213813Y-123693378D01*
X190228445Y-123694819D01*
X190439159Y-123694819D01*
X190439159Y-124619819D01*
X190440600Y-124634451D01*
X190451799Y-124661487D01*
X190472491Y-124682179D01*
X190499527Y-124693378D01*
X190528791Y-124693378D01*
X190555827Y-124682179D01*
X190576519Y-124661487D01*
X190587718Y-124634451D01*
X190589159Y-124619819D01*
X190589159Y-124143628D01*
X191010588Y-124143628D01*
X191010588Y-124429342D01*
X191012029Y-124443974D01*
X191013060Y-124446463D01*
X191013251Y-124449151D01*
X191018506Y-124462883D01*
X191066125Y-124558121D01*
X191070088Y-124564417D01*
X191070846Y-124566247D01*
X191072535Y-124568305D01*
X191073957Y-124570564D01*
X191075455Y-124571863D01*
X191080173Y-124577612D01*
X191127792Y-124625232D01*
X191133541Y-124629950D01*
X191134842Y-124631450D01*
X191137101Y-124632872D01*
X191139158Y-124634560D01*
X191140985Y-124635317D01*
X191147285Y-124639282D01*
X191242523Y-124686901D01*
X191256254Y-124692156D01*
X191258943Y-124692347D01*
X191261432Y-124693378D01*
X191276064Y-124694819D01*
X191418921Y-124694819D01*
X191433553Y-124693378D01*
X191436042Y-124692346D01*
X191438730Y-124692156D01*
X191452462Y-124686901D01*
X191547700Y-124639282D01*
X191553999Y-124635317D01*
X191555827Y-124634560D01*
X191557883Y-124632872D01*
X191560143Y-124631450D01*
X191561443Y-124629950D01*
X191567193Y-124625232D01*
X191614811Y-124577613D01*
X191619529Y-124571863D01*
X191621028Y-124570564D01*
X191622449Y-124568305D01*
X191624139Y-124566247D01*
X191624896Y-124564417D01*
X191628860Y-124558121D01*
X191676479Y-124462883D01*
X191681734Y-124449152D01*
X191681925Y-124446462D01*
X191682956Y-124443974D01*
X191684397Y-124429342D01*
X191684397Y-124143628D01*
X191682956Y-124128996D01*
X191681925Y-124126507D01*
X191681734Y-124123818D01*
X191676479Y-124110087D01*
X191628860Y-124014849D01*
X191624895Y-124008549D01*
X191624138Y-124006722D01*
X191622449Y-124004665D01*
X191621028Y-124002406D01*
X191619529Y-124001106D01*
X191614811Y-123995357D01*
X191567192Y-123947738D01*
X191561442Y-123943019D01*
X191560143Y-123941521D01*
X191557883Y-123940099D01*
X191555827Y-123938411D01*
X191553999Y-123937653D01*
X191547700Y-123933689D01*
X191452462Y-123886070D01*
X191438730Y-123880815D01*
X191436042Y-123880624D01*
X191433553Y-123879593D01*
X191418921Y-123878152D01*
X191276064Y-123878152D01*
X191261432Y-123879593D01*
X191258943Y-123880623D01*
X191256254Y-123880815D01*
X191242523Y-123886070D01*
X191147285Y-123933689D01*
X191140985Y-123937653D01*
X191139158Y-123938411D01*
X191137101Y-123940099D01*
X191134842Y-123941521D01*
X191133542Y-123943019D01*
X191127793Y-123947738D01*
X191080174Y-123995357D01*
X191075455Y-124001106D01*
X191073957Y-124002406D01*
X191072535Y-124004665D01*
X191070847Y-124006722D01*
X191070089Y-124008549D01*
X191066125Y-124014849D01*
X191018506Y-124110087D01*
X191013251Y-124123819D01*
X191013060Y-124126506D01*
X191012029Y-124128996D01*
X191010588Y-124143628D01*
X190589159Y-124143628D01*
X190589159Y-123694819D01*
X190799873Y-123694819D01*
X190814505Y-123693378D01*
X190841541Y-123682179D01*
X190862233Y-123661487D01*
X190873432Y-123634451D01*
X190873432Y-123619819D01*
X192724874Y-123619819D01*
X192724874Y-124619819D01*
X192726315Y-124634451D01*
X192737514Y-124661487D01*
X192758206Y-124682179D01*
X192785242Y-124693378D01*
X192814506Y-124693378D01*
X192841542Y-124682179D01*
X192862234Y-124661487D01*
X192873433Y-124634451D01*
X192874874Y-124619819D01*
X192874874Y-124218628D01*
X193180826Y-124218628D01*
X193195458Y-124217187D01*
X193197947Y-124216155D01*
X193200635Y-124215965D01*
X193214367Y-124210710D01*
X193309605Y-124163091D01*
X193315904Y-124159126D01*
X193317732Y-124158369D01*
X193319788Y-124156680D01*
X193322048Y-124155259D01*
X193323347Y-124153760D01*
X193329097Y-124149042D01*
X193334511Y-124143628D01*
X193677255Y-124143628D01*
X193677255Y-124429342D01*
X193678696Y-124443974D01*
X193679727Y-124446463D01*
X193679918Y-124449151D01*
X193685173Y-124462883D01*
X193732792Y-124558121D01*
X193736755Y-124564417D01*
X193737513Y-124566247D01*
X193739202Y-124568305D01*
X193740624Y-124570564D01*
X193742122Y-124571863D01*
X193746840Y-124577612D01*
X193794459Y-124625232D01*
X193800208Y-124629950D01*
X193801509Y-124631450D01*
X193803768Y-124632872D01*
X193805825Y-124634560D01*
X193807652Y-124635317D01*
X193813952Y-124639282D01*
X193909190Y-124686901D01*
X193922921Y-124692156D01*
X193925610Y-124692347D01*
X193928099Y-124693378D01*
X193942731Y-124694819D01*
X194085588Y-124694819D01*
X194100220Y-124693378D01*
X194102709Y-124692346D01*
X194105397Y-124692156D01*
X194119129Y-124686901D01*
X194214367Y-124639282D01*
X194220666Y-124635317D01*
X194222494Y-124634560D01*
X194224550Y-124632872D01*
X194226810Y-124631450D01*
X194228110Y-124629950D01*
X194233860Y-124625232D01*
X194281478Y-124577613D01*
X194286196Y-124571863D01*
X194287695Y-124570564D01*
X194289116Y-124568305D01*
X194290806Y-124566247D01*
X194291563Y-124564417D01*
X194295527Y-124558121D01*
X194343146Y-124462883D01*
X194348401Y-124449152D01*
X194348592Y-124446462D01*
X194349623Y-124443974D01*
X194351064Y-124429342D01*
X194351064Y-124143628D01*
X194349623Y-124128996D01*
X194348592Y-124126507D01*
X194348401Y-124123818D01*
X194343146Y-124110087D01*
X194295527Y-124014849D01*
X194291562Y-124008549D01*
X194290805Y-124006722D01*
X194289116Y-124004665D01*
X194287695Y-124002406D01*
X194286196Y-124001106D01*
X194281478Y-123995357D01*
X194245412Y-123959291D01*
X194534650Y-123959291D01*
X194537284Y-123973756D01*
X194727760Y-124640423D01*
X194733165Y-124654096D01*
X194736140Y-124657843D01*
X194738026Y-124662244D01*
X194745163Y-124669209D01*
X194751360Y-124677015D01*
X194755541Y-124679338D01*
X194758969Y-124682683D01*
X194768228Y-124686386D01*
X194776941Y-124691227D01*
X194781695Y-124691773D01*
X194786140Y-124693551D01*
X194796110Y-124693429D01*
X194806013Y-124694567D01*
X194810614Y-124693252D01*
X194815402Y-124693194D01*
X194824567Y-124689265D01*
X194834151Y-124686528D01*
X194837898Y-124683552D01*
X194842299Y-124681667D01*
X194849264Y-124674529D01*
X194857070Y-124668333D01*
X194859393Y-124664151D01*
X194862738Y-124660724D01*
X194869510Y-124647673D01*
X194990350Y-124345572D01*
X195111190Y-124647673D01*
X195117962Y-124660723D01*
X195121305Y-124664148D01*
X195123630Y-124668333D01*
X195131439Y-124674532D01*
X195138401Y-124681666D01*
X195142799Y-124683551D01*
X195146549Y-124686528D01*
X195156134Y-124689266D01*
X195165298Y-124693194D01*
X195170085Y-124693252D01*
X195174687Y-124694567D01*
X195184589Y-124693429D01*
X195194560Y-124693551D01*
X195199003Y-124691773D01*
X195203759Y-124691227D01*
X195212477Y-124686383D01*
X195221730Y-124682682D01*
X195225154Y-124679340D01*
X195229340Y-124677015D01*
X195235538Y-124669206D01*
X195242674Y-124662244D01*
X195244559Y-124657843D01*
X195247535Y-124654096D01*
X195252940Y-124640423D01*
X195408487Y-124096009D01*
X195629636Y-124096009D01*
X195629636Y-124476961D01*
X195631077Y-124491593D01*
X195632108Y-124494082D01*
X195632299Y-124496770D01*
X195637554Y-124510502D01*
X195685173Y-124605741D01*
X195686713Y-124608187D01*
X195687098Y-124609342D01*
X195688344Y-124610779D01*
X195693005Y-124618183D01*
X195700107Y-124624342D01*
X195706271Y-124631450D01*
X195713676Y-124636111D01*
X195715113Y-124637357D01*
X195716266Y-124637741D01*
X195718714Y-124639282D01*
X195813952Y-124686901D01*
X195827683Y-124692156D01*
X195830372Y-124692347D01*
X195832861Y-124693378D01*
X195847493Y-124694819D01*
X196037969Y-124694819D01*
X196052601Y-124693378D01*
X196055090Y-124692346D01*
X196057778Y-124692156D01*
X196071510Y-124686901D01*
X196166748Y-124639282D01*
X196179191Y-124631450D01*
X196198364Y-124609342D01*
X196207618Y-124581581D01*
X196205544Y-124552391D01*
X196192456Y-124526216D01*
X196170349Y-124507043D01*
X196142587Y-124497789D01*
X196113397Y-124499863D01*
X196099666Y-124505118D01*
X196020264Y-124544819D01*
X195865198Y-124544819D01*
X195808156Y-124516298D01*
X195779636Y-124459256D01*
X195779636Y-124347970D01*
X196195534Y-124264791D01*
X196209600Y-124260508D01*
X196215705Y-124256419D01*
X196222494Y-124253607D01*
X196227746Y-124248354D01*
X196233914Y-124244224D01*
X196237988Y-124238113D01*
X196243186Y-124232915D01*
X196246029Y-124226051D01*
X196250146Y-124219876D01*
X196251571Y-124212670D01*
X196254385Y-124205879D01*
X196255826Y-124191247D01*
X196255826Y-124096009D01*
X196254385Y-124081377D01*
X196253354Y-124078888D01*
X196253163Y-124076199D01*
X196247908Y-124062468D01*
X196200289Y-123967230D01*
X196198748Y-123964782D01*
X196198364Y-123963629D01*
X196197118Y-123962192D01*
X196192457Y-123954787D01*
X196190572Y-123953152D01*
X196534398Y-123953152D01*
X196534398Y-124619819D01*
X196535839Y-124634451D01*
X196547038Y-124661487D01*
X196567730Y-124682179D01*
X196594766Y-124693378D01*
X196624030Y-124693378D01*
X196651066Y-124682179D01*
X196671758Y-124661487D01*
X196682957Y-124634451D01*
X196684398Y-124619819D01*
X196684398Y-124161333D01*
X196718656Y-124092817D01*
X196749063Y-124062410D01*
X196817579Y-124028152D01*
X196895112Y-124028152D01*
X196909744Y-124026711D01*
X196936780Y-124015512D01*
X196957472Y-123994820D01*
X196968671Y-123967784D01*
X196968671Y-123938520D01*
X196957472Y-123911484D01*
X196936780Y-123890792D01*
X196909744Y-123879593D01*
X196895112Y-123878152D01*
X196799874Y-123878152D01*
X196785242Y-123879593D01*
X196782753Y-123880623D01*
X196780064Y-123880815D01*
X196766333Y-123886070D01*
X196679263Y-123929604D01*
X196671758Y-123911484D01*
X196651066Y-123890792D01*
X196624030Y-123879593D01*
X196594766Y-123879593D01*
X196567730Y-123890792D01*
X196547038Y-123911484D01*
X196535839Y-123938520D01*
X196534398Y-123953152D01*
X196190572Y-123953152D01*
X196185352Y-123948625D01*
X196179191Y-123941521D01*
X196171785Y-123936859D01*
X196170349Y-123935614D01*
X196169195Y-123935229D01*
X196166748Y-123933689D01*
X196071510Y-123886070D01*
X196057778Y-123880815D01*
X196055090Y-123880624D01*
X196052601Y-123879593D01*
X196037969Y-123878152D01*
X195847493Y-123878152D01*
X195832861Y-123879593D01*
X195830372Y-123880623D01*
X195827683Y-123880815D01*
X195813952Y-123886070D01*
X195718714Y-123933689D01*
X195716266Y-123935229D01*
X195715113Y-123935614D01*
X195713676Y-123936859D01*
X195706271Y-123941521D01*
X195700109Y-123948625D01*
X195693005Y-123954787D01*
X195688343Y-123962192D01*
X195687098Y-123963629D01*
X195686713Y-123964782D01*
X195685173Y-123967230D01*
X195637554Y-124062468D01*
X195632299Y-124076200D01*
X195632108Y-124078887D01*
X195631077Y-124081377D01*
X195629636Y-124096009D01*
X195408487Y-124096009D01*
X195443416Y-123973756D01*
X195446050Y-123959291D01*
X195442710Y-123930219D01*
X195428498Y-123904638D01*
X195405579Y-123886443D01*
X195377441Y-123878404D01*
X195348369Y-123881744D01*
X195322788Y-123895956D01*
X195304593Y-123918875D01*
X195299188Y-123932548D01*
X195168982Y-124388266D01*
X195059986Y-124115774D01*
X195053214Y-124102723D01*
X195052563Y-124102056D01*
X195052198Y-124101203D01*
X195042387Y-124091629D01*
X195032775Y-124081780D01*
X195031917Y-124081412D01*
X195031254Y-124080765D01*
X195018522Y-124075671D01*
X195005878Y-124070253D01*
X195004948Y-124070241D01*
X195004084Y-124069896D01*
X194990350Y-124070063D01*
X194976616Y-124069896D01*
X194975751Y-124070241D01*
X194974822Y-124070253D01*
X194962220Y-124075654D01*
X194949445Y-124080764D01*
X194948777Y-124081415D01*
X194947925Y-124081781D01*
X194938352Y-124091589D01*
X194928502Y-124101203D01*
X194928135Y-124102058D01*
X194927486Y-124102724D01*
X194920714Y-124115774D01*
X194811717Y-124388266D01*
X194681512Y-123932548D01*
X194676107Y-123918875D01*
X194657912Y-123895956D01*
X194632331Y-123881744D01*
X194603259Y-123878404D01*
X194575121Y-123886443D01*
X194552202Y-123904638D01*
X194537990Y-123930219D01*
X194534650Y-123959291D01*
X194245412Y-123959291D01*
X194233859Y-123947738D01*
X194228109Y-123943019D01*
X194226810Y-123941521D01*
X194224550Y-123940099D01*
X194222494Y-123938411D01*
X194220666Y-123937653D01*
X194214367Y-123933689D01*
X194119129Y-123886070D01*
X194105397Y-123880815D01*
X194102709Y-123880624D01*
X194100220Y-123879593D01*
X194085588Y-123878152D01*
X193942731Y-123878152D01*
X193928099Y-123879593D01*
X193925610Y-123880623D01*
X193922921Y-123880815D01*
X193909190Y-123886070D01*
X193813952Y-123933689D01*
X193807652Y-123937653D01*
X193805825Y-123938411D01*
X193803768Y-123940099D01*
X193801509Y-123941521D01*
X193800209Y-123943019D01*
X193794460Y-123947738D01*
X193746841Y-123995357D01*
X193742122Y-124001106D01*
X193740624Y-124002406D01*
X193739202Y-124004665D01*
X193737514Y-124006722D01*
X193736756Y-124008549D01*
X193732792Y-124014849D01*
X193685173Y-124110087D01*
X193679918Y-124123819D01*
X193679727Y-124126506D01*
X193678696Y-124128996D01*
X193677255Y-124143628D01*
X193334511Y-124143628D01*
X193376716Y-124101423D01*
X193381434Y-124095673D01*
X193382933Y-124094374D01*
X193384354Y-124092114D01*
X193386043Y-124090058D01*
X193386800Y-124088230D01*
X193390765Y-124081931D01*
X193438384Y-123986693D01*
X193443639Y-123972962D01*
X193443830Y-123970272D01*
X193444861Y-123967784D01*
X193446302Y-123953152D01*
X193446302Y-123810295D01*
X193444861Y-123795663D01*
X193443830Y-123793174D01*
X193443639Y-123790485D01*
X193438384Y-123776754D01*
X193390765Y-123681516D01*
X193386800Y-123675216D01*
X193386043Y-123673389D01*
X193384354Y-123671332D01*
X193382933Y-123669073D01*
X193381434Y-123667773D01*
X193376716Y-123662024D01*
X193334511Y-123619819D01*
X197915351Y-123619819D01*
X197915351Y-124619819D01*
X197916792Y-124634451D01*
X197927991Y-124661487D01*
X197948683Y-124682179D01*
X197975719Y-124693378D01*
X197990351Y-124694819D01*
X198371303Y-124694819D01*
X198385935Y-124693378D01*
X198388424Y-124692346D01*
X198391112Y-124692156D01*
X198404844Y-124686901D01*
X198500082Y-124639282D01*
X198506381Y-124635317D01*
X198508209Y-124634560D01*
X198510265Y-124632872D01*
X198512525Y-124631450D01*
X198513825Y-124629950D01*
X198519575Y-124625232D01*
X198567193Y-124577613D01*
X198571911Y-124571863D01*
X198573410Y-124570564D01*
X198574831Y-124568305D01*
X198576521Y-124566247D01*
X198577278Y-124564417D01*
X198581242Y-124558121D01*
X198628861Y-124462883D01*
X198634116Y-124449152D01*
X198634307Y-124446462D01*
X198635338Y-124443974D01*
X198636779Y-124429342D01*
X198636779Y-124286485D01*
X198635338Y-124271853D01*
X198634307Y-124269364D01*
X198634116Y-124266675D01*
X198628861Y-124252944D01*
X198581242Y-124157706D01*
X198577277Y-124151406D01*
X198576520Y-124149579D01*
X198574831Y-124147522D01*
X198573410Y-124145263D01*
X198571911Y-124143963D01*
X198571636Y-124143628D01*
X198867732Y-124143628D01*
X198867732Y-124429342D01*
X198869173Y-124443974D01*
X198870204Y-124446463D01*
X198870395Y-124449151D01*
X198875650Y-124462883D01*
X198923269Y-124558121D01*
X198927232Y-124564417D01*
X198927990Y-124566247D01*
X198929679Y-124568305D01*
X198931101Y-124570564D01*
X198932599Y-124571863D01*
X198937317Y-124577612D01*
X198984936Y-124625232D01*
X198990685Y-124629950D01*
X198991986Y-124631450D01*
X198994245Y-124632872D01*
X198996302Y-124634560D01*
X198998129Y-124635317D01*
X199004429Y-124639282D01*
X199099667Y-124686901D01*
X199113398Y-124692156D01*
X199116087Y-124692347D01*
X199118576Y-124693378D01*
X199133208Y-124694819D01*
X199276065Y-124694819D01*
X199290697Y-124693378D01*
X199293186Y-124692346D01*
X199295874Y-124692156D01*
X199309606Y-124686901D01*
X199404844Y-124639282D01*
X199411143Y-124635317D01*
X199412971Y-124634560D01*
X199415027Y-124632872D01*
X199417287Y-124631450D01*
X199418587Y-124629950D01*
X199424337Y-124625232D01*
X199471955Y-124577613D01*
X199476673Y-124571863D01*
X199478172Y-124570564D01*
X199479593Y-124568305D01*
X199481283Y-124566247D01*
X199482040Y-124564417D01*
X199486004Y-124558121D01*
X199533623Y-124462883D01*
X199538878Y-124449152D01*
X199539069Y-124446462D01*
X199540100Y-124443974D01*
X199541541Y-124429342D01*
X199541541Y-124381723D01*
X199772494Y-124381723D01*
X199772494Y-124476961D01*
X199773935Y-124491593D01*
X199774966Y-124494082D01*
X199775157Y-124496770D01*
X199780412Y-124510502D01*
X199828031Y-124605741D01*
X199829571Y-124608187D01*
X199829956Y-124609342D01*
X199831202Y-124610779D01*
X199835863Y-124618183D01*
X199842965Y-124624342D01*
X199849129Y-124631450D01*
X199856534Y-124636111D01*
X199857971Y-124637357D01*
X199859124Y-124637741D01*
X199861572Y-124639282D01*
X199956810Y-124686901D01*
X199970541Y-124692156D01*
X199973230Y-124692347D01*
X199975719Y-124693378D01*
X199990351Y-124694819D01*
X200228446Y-124694819D01*
X200243078Y-124693378D01*
X200245567Y-124692346D01*
X200248255Y-124692156D01*
X200261987Y-124686901D01*
X200278487Y-124678650D01*
X200282016Y-124682179D01*
X200309052Y-124693378D01*
X200338316Y-124693378D01*
X200365352Y-124682179D01*
X200386044Y-124661487D01*
X200397243Y-124634451D01*
X200398684Y-124619819D01*
X200398684Y-124096009D01*
X200397243Y-124081377D01*
X200396212Y-124078888D01*
X200396021Y-124076199D01*
X200390766Y-124062468D01*
X200343147Y-123967230D01*
X200341606Y-123964782D01*
X200341222Y-123963629D01*
X200339976Y-123962192D01*
X200335315Y-123954787D01*
X200333430Y-123953152D01*
X200724875Y-123953152D01*
X200724875Y-124619819D01*
X200726316Y-124634451D01*
X200737515Y-124661487D01*
X200758207Y-124682179D01*
X200785243Y-124693378D01*
X200814507Y-124693378D01*
X200841543Y-124682179D01*
X200862235Y-124661487D01*
X200873434Y-124634451D01*
X200874875Y-124619819D01*
X200874875Y-124161333D01*
X200883728Y-124143628D01*
X201296304Y-124143628D01*
X201296304Y-124429342D01*
X201297745Y-124443974D01*
X201298776Y-124446463D01*
X201298967Y-124449151D01*
X201304222Y-124462883D01*
X201351841Y-124558121D01*
X201355804Y-124564417D01*
X201356562Y-124566247D01*
X201358251Y-124568305D01*
X201359673Y-124570564D01*
X201361171Y-124571863D01*
X201365889Y-124577612D01*
X201413508Y-124625232D01*
X201419257Y-124629950D01*
X201420558Y-124631450D01*
X201422817Y-124632872D01*
X201424874Y-124634560D01*
X201426701Y-124635317D01*
X201433001Y-124639282D01*
X201528239Y-124686901D01*
X201541970Y-124692156D01*
X201544659Y-124692347D01*
X201547148Y-124693378D01*
X201561780Y-124694819D01*
X201752256Y-124694819D01*
X201766888Y-124693378D01*
X201769377Y-124692346D01*
X201772065Y-124692156D01*
X201785797Y-124686901D01*
X201802297Y-124678650D01*
X201805826Y-124682179D01*
X201832862Y-124693378D01*
X201862126Y-124693378D01*
X201889162Y-124682179D01*
X201909854Y-124661487D01*
X201921053Y-124634451D01*
X201922494Y-124619819D01*
X201922494Y-124605187D01*
X202916793Y-124605187D01*
X202916793Y-124634451D01*
X202927992Y-124661487D01*
X202948684Y-124682179D01*
X202975720Y-124693378D01*
X202990352Y-124694819D01*
X203085590Y-124694819D01*
X203092995Y-124694089D01*
X203094970Y-124694230D01*
X203097567Y-124693639D01*
X203100222Y-124693378D01*
X203102053Y-124692619D01*
X203109307Y-124690970D01*
X203252164Y-124643351D01*
X203265589Y-124637357D01*
X203267624Y-124635591D01*
X203270115Y-124634560D01*
X203281480Y-124625233D01*
X203301526Y-124605187D01*
X203678698Y-124605187D01*
X203678698Y-124634451D01*
X203689897Y-124661487D01*
X203710589Y-124682179D01*
X203737625Y-124693378D01*
X203752257Y-124694819D01*
X204371304Y-124694819D01*
X204385936Y-124693378D01*
X204412972Y-124682179D01*
X204433664Y-124661487D01*
X204444863Y-124634451D01*
X204444863Y-124605187D01*
X204433664Y-124578151D01*
X204412972Y-124557459D01*
X204385936Y-124546260D01*
X204371304Y-124544819D01*
X203933323Y-124544819D01*
X204374892Y-124103249D01*
X204677607Y-124103249D01*
X204678698Y-124106864D01*
X204678698Y-124110640D01*
X204682892Y-124120765D01*
X204686060Y-124131265D01*
X204688451Y-124134188D01*
X204689897Y-124137677D01*
X204697650Y-124145430D01*
X204704591Y-124153913D01*
X204707917Y-124155697D01*
X204710589Y-124158369D01*
X204720716Y-124162564D01*
X204730378Y-124167747D01*
X204734137Y-124168122D01*
X204737626Y-124169568D01*
X204748587Y-124169568D01*
X204759497Y-124170659D01*
X204763113Y-124169568D01*
X204766888Y-124169568D01*
X204777013Y-124165373D01*
X204787513Y-124162206D01*
X204790436Y-124159814D01*
X204793925Y-124158369D01*
X204805290Y-124149042D01*
X204844303Y-124110029D01*
X204912819Y-124075771D01*
X205115504Y-124075771D01*
X205184020Y-124110029D01*
X205214427Y-124140436D01*
X205248685Y-124208952D01*
X205248685Y-124411637D01*
X205214426Y-124480153D01*
X205184019Y-124510561D01*
X205115504Y-124544819D01*
X204912819Y-124544819D01*
X204844303Y-124510561D01*
X204805291Y-124471548D01*
X204793925Y-124462220D01*
X204766889Y-124451021D01*
X204737626Y-124451021D01*
X204710590Y-124462219D01*
X204689897Y-124482912D01*
X204678698Y-124509948D01*
X204678698Y-124539211D01*
X204689896Y-124566247D01*
X204699223Y-124577612D01*
X204746842Y-124625232D01*
X204752591Y-124629950D01*
X204753892Y-124631450D01*
X204756151Y-124632872D01*
X204758208Y-124634560D01*
X204760035Y-124635317D01*
X204766335Y-124639282D01*
X204861573Y-124686901D01*
X204875304Y-124692156D01*
X204877993Y-124692347D01*
X204880482Y-124693378D01*
X204895114Y-124694819D01*
X205133209Y-124694819D01*
X205147841Y-124693378D01*
X205150330Y-124692346D01*
X205153018Y-124692156D01*
X205166750Y-124686901D01*
X205261988Y-124639282D01*
X205268287Y-124635317D01*
X205270115Y-124634560D01*
X205272171Y-124632872D01*
X205274431Y-124631450D01*
X205275731Y-124629950D01*
X205281481Y-124625232D01*
X205329099Y-124577613D01*
X205333817Y-124571863D01*
X205335316Y-124570564D01*
X205336737Y-124568305D01*
X205338427Y-124566247D01*
X205339184Y-124564417D01*
X205343148Y-124558121D01*
X205390767Y-124462883D01*
X205396022Y-124449152D01*
X205396213Y-124446462D01*
X205397244Y-124443974D01*
X205398685Y-124429342D01*
X205398685Y-124191247D01*
X205397244Y-124176615D01*
X205396213Y-124174126D01*
X205396022Y-124171437D01*
X205390767Y-124157706D01*
X205343148Y-124062468D01*
X205339183Y-124056168D01*
X205338426Y-124054341D01*
X205336737Y-124052284D01*
X205335316Y-124050025D01*
X205333817Y-124048725D01*
X205329099Y-124042976D01*
X205281480Y-123995357D01*
X205275730Y-123990638D01*
X205274431Y-123989140D01*
X205272171Y-123987718D01*
X205270115Y-123986030D01*
X205268287Y-123985272D01*
X205261988Y-123981308D01*
X205166750Y-123933689D01*
X205153018Y-123928434D01*
X205150330Y-123928243D01*
X205147841Y-123927212D01*
X205133209Y-123925771D01*
X204895114Y-123925771D01*
X204880482Y-123927212D01*
X204877993Y-123928242D01*
X204875304Y-123928434D01*
X204861573Y-123933689D01*
X204842931Y-123943009D01*
X204867750Y-123694819D01*
X205276066Y-123694819D01*
X205290698Y-123693378D01*
X205317734Y-123682179D01*
X205338426Y-123661487D01*
X205349625Y-123634451D01*
X205349625Y-123605187D01*
X205338426Y-123578151D01*
X205317734Y-123557459D01*
X205290698Y-123546260D01*
X205276066Y-123544819D01*
X204799876Y-123544819D01*
X204794464Y-123545351D01*
X204792636Y-123545169D01*
X204790849Y-123545707D01*
X204785244Y-123546260D01*
X204775117Y-123550454D01*
X204764620Y-123553622D01*
X204761696Y-123556013D01*
X204758208Y-123557459D01*
X204750454Y-123565212D01*
X204741972Y-123572153D01*
X204740187Y-123575479D01*
X204737516Y-123578151D01*
X204733320Y-123588280D01*
X204728138Y-123597940D01*
X204727030Y-123603464D01*
X204726317Y-123605187D01*
X204726317Y-123607023D01*
X204725248Y-123612356D01*
X204677629Y-124088546D01*
X204677607Y-124103249D01*
X204374892Y-124103249D01*
X204376718Y-124101423D01*
X204386046Y-124090058D01*
X204387077Y-124087567D01*
X204388842Y-124085533D01*
X204394836Y-124072107D01*
X204442455Y-123929251D01*
X204444104Y-123921995D01*
X204444863Y-123920165D01*
X204445124Y-123917511D01*
X204445715Y-123914914D01*
X204445574Y-123912939D01*
X204446304Y-123905533D01*
X204446304Y-123810295D01*
X204444863Y-123795663D01*
X204443832Y-123793174D01*
X204443641Y-123790485D01*
X204438386Y-123776754D01*
X204390767Y-123681516D01*
X204386802Y-123675216D01*
X204386045Y-123673389D01*
X204384356Y-123671332D01*
X204382935Y-123669073D01*
X204381436Y-123667773D01*
X204376718Y-123662024D01*
X204329099Y-123614405D01*
X204323349Y-123609686D01*
X204322050Y-123608188D01*
X204319790Y-123606766D01*
X204317734Y-123605078D01*
X204315906Y-123604320D01*
X204309607Y-123600356D01*
X204214369Y-123552737D01*
X204200637Y-123547482D01*
X204197949Y-123547291D01*
X204195460Y-123546260D01*
X204180828Y-123544819D01*
X203942733Y-123544819D01*
X203928101Y-123546260D01*
X203925612Y-123547290D01*
X203922923Y-123547482D01*
X203909192Y-123552737D01*
X203813954Y-123600356D01*
X203807654Y-123604320D01*
X203805827Y-123605078D01*
X203803770Y-123606766D01*
X203801511Y-123608188D01*
X203800211Y-123609686D01*
X203794462Y-123614405D01*
X203746843Y-123662024D01*
X203737516Y-123673389D01*
X203726317Y-123700426D01*
X203726317Y-123729688D01*
X203737516Y-123756725D01*
X203758208Y-123777417D01*
X203785245Y-123788616D01*
X203814507Y-123788616D01*
X203841544Y-123777417D01*
X203852909Y-123768090D01*
X203891922Y-123729077D01*
X203960438Y-123694819D01*
X204163123Y-123694819D01*
X204231639Y-123729077D01*
X204262046Y-123759484D01*
X204296304Y-123828000D01*
X204296304Y-123893363D01*
X204258132Y-124007876D01*
X203699224Y-124566786D01*
X203689897Y-124578151D01*
X203678698Y-124605187D01*
X203301526Y-124605187D01*
X203376719Y-124529993D01*
X203386046Y-124518628D01*
X203387076Y-124516139D01*
X203388842Y-124514104D01*
X203394836Y-124500678D01*
X203442455Y-124357822D01*
X203444104Y-124350566D01*
X203444863Y-124348736D01*
X203445124Y-124346082D01*
X203445715Y-124343485D01*
X203445574Y-124341510D01*
X203446304Y-124334104D01*
X203446304Y-123619819D01*
X203444863Y-123605187D01*
X203433664Y-123578151D01*
X203412972Y-123557459D01*
X203385936Y-123546260D01*
X203356672Y-123546260D01*
X203329636Y-123557459D01*
X203308944Y-123578151D01*
X203297745Y-123605187D01*
X203296304Y-123619819D01*
X203296304Y-124321934D01*
X203258132Y-124436447D01*
X203187933Y-124506647D01*
X203073420Y-124544819D01*
X202990352Y-124544819D01*
X202975720Y-124546260D01*
X202948684Y-124557459D01*
X202927992Y-124578151D01*
X202916793Y-124605187D01*
X201922494Y-124605187D01*
X201922494Y-123619819D01*
X201921053Y-123605187D01*
X201909854Y-123578151D01*
X201889162Y-123557459D01*
X201862126Y-123546260D01*
X201832862Y-123546260D01*
X201805826Y-123557459D01*
X201785134Y-123578151D01*
X201773935Y-123605187D01*
X201772494Y-123619819D01*
X201772494Y-123880979D01*
X201772065Y-123880815D01*
X201769377Y-123880624D01*
X201766888Y-123879593D01*
X201752256Y-123878152D01*
X201561780Y-123878152D01*
X201547148Y-123879593D01*
X201544659Y-123880623D01*
X201541970Y-123880815D01*
X201528239Y-123886070D01*
X201433001Y-123933689D01*
X201426701Y-123937653D01*
X201424874Y-123938411D01*
X201422817Y-123940099D01*
X201420558Y-123941521D01*
X201419258Y-123943019D01*
X201413509Y-123947738D01*
X201365890Y-123995357D01*
X201361171Y-124001106D01*
X201359673Y-124002406D01*
X201358251Y-124004665D01*
X201356563Y-124006722D01*
X201355805Y-124008549D01*
X201351841Y-124014849D01*
X201304222Y-124110087D01*
X201298967Y-124123819D01*
X201298776Y-124126506D01*
X201297745Y-124128996D01*
X201296304Y-124143628D01*
X200883728Y-124143628D01*
X200909133Y-124092817D01*
X200939540Y-124062410D01*
X201008056Y-124028152D01*
X201085589Y-124028152D01*
X201100221Y-124026711D01*
X201127257Y-124015512D01*
X201147949Y-123994820D01*
X201159148Y-123967784D01*
X201159148Y-123938520D01*
X201147949Y-123911484D01*
X201127257Y-123890792D01*
X201100221Y-123879593D01*
X201085589Y-123878152D01*
X200990351Y-123878152D01*
X200975719Y-123879593D01*
X200973230Y-123880623D01*
X200970541Y-123880815D01*
X200956810Y-123886070D01*
X200869740Y-123929604D01*
X200862235Y-123911484D01*
X200841543Y-123890792D01*
X200814507Y-123879593D01*
X200785243Y-123879593D01*
X200758207Y-123890792D01*
X200737515Y-123911484D01*
X200726316Y-123938520D01*
X200724875Y-123953152D01*
X200333430Y-123953152D01*
X200328210Y-123948625D01*
X200322049Y-123941521D01*
X200314643Y-123936859D01*
X200313207Y-123935614D01*
X200312053Y-123935229D01*
X200309606Y-123933689D01*
X200214368Y-123886070D01*
X200200636Y-123880815D01*
X200197948Y-123880624D01*
X200195459Y-123879593D01*
X200180827Y-123878152D01*
X199990351Y-123878152D01*
X199975719Y-123879593D01*
X199973230Y-123880623D01*
X199970541Y-123880815D01*
X199956810Y-123886070D01*
X199861572Y-123933689D01*
X199849129Y-123941521D01*
X199829956Y-123963629D01*
X199820702Y-123991390D01*
X199822776Y-124020580D01*
X199835863Y-124046755D01*
X199857971Y-124065928D01*
X199885732Y-124075182D01*
X199914922Y-124073108D01*
X199928654Y-124067853D01*
X200008056Y-124028152D01*
X200163122Y-124028152D01*
X200220163Y-124056672D01*
X200248684Y-124113714D01*
X200248684Y-124144894D01*
X200210741Y-124163866D01*
X199990351Y-124163866D01*
X199975719Y-124165307D01*
X199973230Y-124166337D01*
X199970541Y-124166529D01*
X199956810Y-124171784D01*
X199861572Y-124219403D01*
X199859124Y-124220943D01*
X199857971Y-124221328D01*
X199856534Y-124222573D01*
X199849129Y-124227235D01*
X199842967Y-124234339D01*
X199835863Y-124240501D01*
X199831201Y-124247906D01*
X199829956Y-124249343D01*
X199829571Y-124250496D01*
X199828031Y-124252944D01*
X199780412Y-124348182D01*
X199775157Y-124361914D01*
X199774966Y-124364601D01*
X199773935Y-124367091D01*
X199772494Y-124381723D01*
X199541541Y-124381723D01*
X199541541Y-124143628D01*
X199540100Y-124128996D01*
X199539069Y-124126507D01*
X199538878Y-124123818D01*
X199533623Y-124110087D01*
X199486004Y-124014849D01*
X199482039Y-124008549D01*
X199481282Y-124006722D01*
X199479593Y-124004665D01*
X199478172Y-124002406D01*
X199476673Y-124001106D01*
X199471955Y-123995357D01*
X199424336Y-123947738D01*
X199418586Y-123943019D01*
X199417287Y-123941521D01*
X199415027Y-123940099D01*
X199412971Y-123938411D01*
X199411143Y-123937653D01*
X199404844Y-123933689D01*
X199309606Y-123886070D01*
X199295874Y-123880815D01*
X199293186Y-123880624D01*
X199290697Y-123879593D01*
X199276065Y-123878152D01*
X199133208Y-123878152D01*
X199118576Y-123879593D01*
X199116087Y-123880623D01*
X199113398Y-123880815D01*
X199099667Y-123886070D01*
X199004429Y-123933689D01*
X198998129Y-123937653D01*
X198996302Y-123938411D01*
X198994245Y-123940099D01*
X198991986Y-123941521D01*
X198990686Y-123943019D01*
X198984937Y-123947738D01*
X198937318Y-123995357D01*
X198932599Y-124001106D01*
X198931101Y-124002406D01*
X198929679Y-124004665D01*
X198927991Y-124006722D01*
X198927233Y-124008549D01*
X198923269Y-124014849D01*
X198875650Y-124110087D01*
X198870395Y-124123819D01*
X198870204Y-124126506D01*
X198869173Y-124128996D01*
X198867732Y-124143628D01*
X198571636Y-124143628D01*
X198567193Y-124138214D01*
X198519574Y-124090595D01*
X198508209Y-124081268D01*
X198505718Y-124080236D01*
X198503683Y-124078471D01*
X198497615Y-124075762D01*
X198519574Y-124053804D01*
X198524292Y-124048054D01*
X198525791Y-124046755D01*
X198527212Y-124044495D01*
X198528901Y-124042439D01*
X198529658Y-124040611D01*
X198533623Y-124034312D01*
X198581242Y-123939074D01*
X198586497Y-123925343D01*
X198586688Y-123922653D01*
X198587719Y-123920165D01*
X198589160Y-123905533D01*
X198589160Y-123810295D01*
X198587719Y-123795663D01*
X198586688Y-123793174D01*
X198586497Y-123790485D01*
X198581242Y-123776754D01*
X198533623Y-123681516D01*
X198529658Y-123675216D01*
X198528901Y-123673389D01*
X198527212Y-123671332D01*
X198525791Y-123669073D01*
X198524292Y-123667773D01*
X198519574Y-123662024D01*
X198471955Y-123614405D01*
X198466205Y-123609686D01*
X198464906Y-123608188D01*
X198462646Y-123606766D01*
X198460590Y-123605078D01*
X198458762Y-123604320D01*
X198452463Y-123600356D01*
X198357225Y-123552737D01*
X198343493Y-123547482D01*
X198340805Y-123547291D01*
X198338316Y-123546260D01*
X198323684Y-123544819D01*
X197990351Y-123544819D01*
X197975719Y-123546260D01*
X197948683Y-123557459D01*
X197927991Y-123578151D01*
X197916792Y-123605187D01*
X197915351Y-123619819D01*
X193334511Y-123619819D01*
X193329097Y-123614405D01*
X193323347Y-123609686D01*
X193322048Y-123608188D01*
X193319788Y-123606766D01*
X193317732Y-123605078D01*
X193315904Y-123604320D01*
X193309605Y-123600356D01*
X193214367Y-123552737D01*
X193200635Y-123547482D01*
X193197947Y-123547291D01*
X193195458Y-123546260D01*
X193180826Y-123544819D01*
X192799874Y-123544819D01*
X192785242Y-123546260D01*
X192758206Y-123557459D01*
X192737514Y-123578151D01*
X192726315Y-123605187D01*
X192724874Y-123619819D01*
X190873432Y-123619819D01*
X190873432Y-123605187D01*
X190862233Y-123578151D01*
X190841541Y-123557459D01*
X190814505Y-123546260D01*
X190799873Y-123544819D01*
X190228445Y-123544819D01*
X190213813Y-123546260D01*
X190186777Y-123557459D01*
X190166085Y-123578151D01*
X190154886Y-123605187D01*
X190043775Y-123605187D01*
X190043775Y-123433708D01*
X205509796Y-123433708D01*
X205509796Y-124805930D01*
G37*
X197710588Y-158167438D02*
X197615350Y-158119819D01*
X197615350Y-158119819D02*
X197472493Y-158119819D01*
X197472493Y-158119819D02*
X197329636Y-158167438D01*
X197329636Y-158167438D02*
X197234398Y-158262676D01*
X197234398Y-158262676D02*
X197186779Y-158357914D01*
X197186779Y-158357914D02*
X197139160Y-158548390D01*
X197139160Y-158548390D02*
X197139160Y-158691247D01*
X197139160Y-158691247D02*
X197186779Y-158881723D01*
X197186779Y-158881723D02*
X197234398Y-158976961D01*
X197234398Y-158976961D02*
X197329636Y-159072200D01*
X197329636Y-159072200D02*
X197472493Y-159119819D01*
X197472493Y-159119819D02*
X197567731Y-159119819D01*
X197567731Y-159119819D02*
X197710588Y-159072200D01*
X197710588Y-159072200D02*
X197758207Y-159024580D01*
X197758207Y-159024580D02*
X197758207Y-158691247D01*
X197758207Y-158691247D02*
X197567731Y-158691247D01*
X197948684Y-159215057D02*
X198710588Y-159215057D01*
X198948684Y-159119819D02*
X198948684Y-158119819D01*
X198948684Y-158119819D02*
X199520112Y-159119819D01*
X199520112Y-159119819D02*
X199520112Y-158119819D01*
X200139160Y-159119819D02*
X200043922Y-159072200D01*
X200043922Y-159072200D02*
X199996303Y-159024580D01*
X199996303Y-159024580D02*
X199948684Y-158929342D01*
X199948684Y-158929342D02*
X199948684Y-158643628D01*
X199948684Y-158643628D02*
X199996303Y-158548390D01*
X199996303Y-158548390D02*
X200043922Y-158500771D01*
X200043922Y-158500771D02*
X200139160Y-158453152D01*
X200139160Y-158453152D02*
X200282017Y-158453152D01*
X200282017Y-158453152D02*
X200377255Y-158500771D01*
X200377255Y-158500771D02*
X200424874Y-158548390D01*
X200424874Y-158548390D02*
X200472493Y-158643628D01*
X200472493Y-158643628D02*
X200472493Y-158929342D01*
X200472493Y-158929342D02*
X200424874Y-159024580D01*
X200424874Y-159024580D02*
X200377255Y-159072200D01*
X200377255Y-159072200D02*
X200282017Y-159119819D01*
X200282017Y-159119819D02*
X200139160Y-159119819D01*
X201329636Y-159119819D02*
X201329636Y-158119819D01*
X201329636Y-159072200D02*
X201234398Y-159119819D01*
X201234398Y-159119819D02*
X201043922Y-159119819D01*
X201043922Y-159119819D02*
X200948684Y-159072200D01*
X200948684Y-159072200D02*
X200901065Y-159024580D01*
X200901065Y-159024580D02*
X200853446Y-158929342D01*
X200853446Y-158929342D02*
X200853446Y-158643628D01*
X200853446Y-158643628D02*
X200901065Y-158548390D01*
X200901065Y-158548390D02*
X200948684Y-158500771D01*
X200948684Y-158500771D02*
X201043922Y-158453152D01*
X201043922Y-158453152D02*
X201234398Y-158453152D01*
X201234398Y-158453152D02*
X201329636Y-158500771D01*
X202186779Y-159072200D02*
X202091541Y-159119819D01*
X202091541Y-159119819D02*
X201901065Y-159119819D01*
X201901065Y-159119819D02*
X201805827Y-159072200D01*
X201805827Y-159072200D02*
X201758208Y-158976961D01*
X201758208Y-158976961D02*
X201758208Y-158596009D01*
X201758208Y-158596009D02*
X201805827Y-158500771D01*
X201805827Y-158500771D02*
X201901065Y-158453152D01*
X201901065Y-158453152D02*
X202091541Y-158453152D01*
X202091541Y-158453152D02*
X202186779Y-158500771D01*
X202186779Y-158500771D02*
X202234398Y-158596009D01*
X202234398Y-158596009D02*
X202234398Y-158691247D01*
X202234398Y-158691247D02*
X201758208Y-158786485D01*
G36*
X202166161Y-164812410D02*
G01*
X202196568Y-164842817D01*
X202230826Y-164911333D01*
X202230826Y-165161637D01*
X202196567Y-165230153D01*
X202166160Y-165260561D01*
X202097645Y-165294819D01*
X201942579Y-165294819D01*
X201904636Y-165275847D01*
X201904636Y-164797123D01*
X201942579Y-164778152D01*
X202097645Y-164778152D01*
X202166161Y-164812410D01*
G37*
G36*
X198027217Y-164482990D02*
G01*
X198101330Y-164557103D01*
X198139823Y-164634090D01*
X198183207Y-164807624D01*
X198183207Y-164932013D01*
X198139823Y-165105547D01*
X198101329Y-165182534D01*
X198027217Y-165256647D01*
X197912704Y-165294819D01*
X197761779Y-165294819D01*
X197761779Y-164444819D01*
X197912704Y-164444819D01*
X198027217Y-164482990D01*
G37*
G36*
X208737591Y-164812410D02*
G01*
X208767998Y-164842817D01*
X208802256Y-164911333D01*
X208802256Y-165161637D01*
X208767997Y-165230153D01*
X208737590Y-165260561D01*
X208669075Y-165294819D01*
X208561628Y-165294819D01*
X208493112Y-165260561D01*
X208462705Y-165230153D01*
X208428447Y-165161637D01*
X208428447Y-164911333D01*
X208462705Y-164842817D01*
X208493112Y-164812410D01*
X208561628Y-164778152D01*
X208669075Y-164778152D01*
X208737591Y-164812410D01*
G37*
G36*
X210202307Y-164806672D02*
G01*
X210230828Y-164863714D01*
X210230828Y-164879762D01*
X209904638Y-164944999D01*
X209904638Y-164863714D01*
X209933158Y-164806672D01*
X209990200Y-164778152D01*
X210145266Y-164778152D01*
X210202307Y-164806672D01*
G37*
G36*
X212975687Y-164812410D02*
G01*
X213006094Y-164842817D01*
X213040352Y-164911333D01*
X213040352Y-165161637D01*
X213006093Y-165230153D01*
X212975686Y-165260561D01*
X212907171Y-165294819D01*
X212799724Y-165294819D01*
X212731208Y-165260561D01*
X212700801Y-165230153D01*
X212666543Y-165161637D01*
X212666543Y-164911333D01*
X212700801Y-164842817D01*
X212731208Y-164812410D01*
X212799724Y-164778152D01*
X212907171Y-164778152D01*
X212975687Y-164812410D01*
G37*
G36*
X207213781Y-164479077D02*
G01*
X207244188Y-164509484D01*
X207278446Y-164578000D01*
X207278446Y-164685447D01*
X207244188Y-164753963D01*
X207213781Y-164784370D01*
X207145265Y-164818628D01*
X206857018Y-164818628D01*
X206857018Y-164444819D01*
X207145265Y-164444819D01*
X207213781Y-164479077D01*
G37*
G36*
X219966689Y-165887822D02*
G01*
X197500668Y-165887822D01*
X197500668Y-164369819D01*
X197611779Y-164369819D01*
X197611779Y-165369819D01*
X197613220Y-165384451D01*
X197624419Y-165411487D01*
X197645111Y-165432179D01*
X197672147Y-165443378D01*
X197686779Y-165444819D01*
X197924874Y-165444819D01*
X197932279Y-165444089D01*
X197934254Y-165444230D01*
X197936851Y-165443639D01*
X197939506Y-165443378D01*
X197941337Y-165442619D01*
X197948591Y-165440970D01*
X198091448Y-165393351D01*
X198104873Y-165387357D01*
X198106908Y-165385591D01*
X198109399Y-165384560D01*
X198120764Y-165375233D01*
X198216003Y-165279993D01*
X198220720Y-165274244D01*
X198222219Y-165272945D01*
X198223640Y-165270686D01*
X198225330Y-165268628D01*
X198226087Y-165266798D01*
X198230051Y-165260502D01*
X198277670Y-165165264D01*
X198278079Y-165164194D01*
X198278402Y-165163759D01*
X198280594Y-165157622D01*
X198282925Y-165151533D01*
X198282963Y-165150992D01*
X198283349Y-165149913D01*
X198330968Y-164959437D01*
X198331343Y-164956900D01*
X198331766Y-164955879D01*
X198332308Y-164950366D01*
X198333118Y-164944893D01*
X198332955Y-164943800D01*
X198333207Y-164941247D01*
X198333207Y-164798390D01*
X198564160Y-164798390D01*
X198564160Y-164941247D01*
X198564411Y-164943800D01*
X198564249Y-164944893D01*
X198565058Y-164950366D01*
X198565601Y-164955879D01*
X198566023Y-164956900D01*
X198566399Y-164959437D01*
X198614018Y-165149913D01*
X198614403Y-165150992D01*
X198614442Y-165151532D01*
X198616769Y-165157613D01*
X198618965Y-165163759D01*
X198619287Y-165164194D01*
X198619697Y-165165264D01*
X198667316Y-165260502D01*
X198671279Y-165266798D01*
X198672037Y-165268628D01*
X198673726Y-165270686D01*
X198675148Y-165272945D01*
X198676646Y-165274244D01*
X198681365Y-165279994D01*
X198776603Y-165375233D01*
X198787968Y-165384561D01*
X198790458Y-165385592D01*
X198792493Y-165387357D01*
X198805919Y-165393351D01*
X198948775Y-165440970D01*
X198956030Y-165442619D01*
X198957861Y-165443378D01*
X198960514Y-165443639D01*
X198963112Y-165444230D01*
X198965086Y-165444089D01*
X198972493Y-165444819D01*
X199067731Y-165444819D01*
X199075136Y-165444089D01*
X199077111Y-165444230D01*
X199079708Y-165443639D01*
X199082363Y-165443378D01*
X199084194Y-165442619D01*
X199091448Y-165440970D01*
X199234305Y-165393351D01*
X199247730Y-165387357D01*
X199249765Y-165385591D01*
X199252256Y-165384560D01*
X199263622Y-165375232D01*
X199311240Y-165327613D01*
X199320568Y-165316247D01*
X199331766Y-165289211D01*
X199331766Y-165259948D01*
X199320567Y-165232912D01*
X199299874Y-165212219D01*
X199272838Y-165201021D01*
X199243575Y-165201021D01*
X199216539Y-165212220D01*
X199205173Y-165221548D01*
X199170074Y-165256647D01*
X199055561Y-165294819D01*
X198984663Y-165294819D01*
X198870150Y-165256648D01*
X198796037Y-165182534D01*
X198757543Y-165105547D01*
X198714160Y-164932013D01*
X198714160Y-164807624D01*
X198757543Y-164634090D01*
X198796037Y-164557103D01*
X198870150Y-164482990D01*
X198984663Y-164444819D01*
X199055561Y-164444819D01*
X199170074Y-164482990D01*
X199205174Y-164518090D01*
X199216539Y-164527417D01*
X199243575Y-164538616D01*
X199272838Y-164538616D01*
X199299874Y-164527417D01*
X199320567Y-164506724D01*
X199331766Y-164479688D01*
X199331766Y-164450425D01*
X199320567Y-164423389D01*
X199311240Y-164412024D01*
X199269035Y-164369819D01*
X200373684Y-164369819D01*
X200373684Y-165369819D01*
X200375125Y-165384451D01*
X200386324Y-165411487D01*
X200407016Y-165432179D01*
X200434052Y-165443378D01*
X200463316Y-165443378D01*
X200490352Y-165432179D01*
X200511044Y-165411487D01*
X200522243Y-165384451D01*
X200523684Y-165369819D01*
X200523684Y-164703152D01*
X200849874Y-164703152D01*
X200849874Y-165369819D01*
X200851315Y-165384451D01*
X200862514Y-165411487D01*
X200883206Y-165432179D01*
X200910242Y-165443378D01*
X200939506Y-165443378D01*
X200966542Y-165432179D01*
X200987234Y-165411487D01*
X200998433Y-165384451D01*
X200999874Y-165369819D01*
X200999874Y-164829456D01*
X201016920Y-164812410D01*
X201085436Y-164778152D01*
X201192883Y-164778152D01*
X201249924Y-164806672D01*
X201278445Y-164863714D01*
X201278445Y-165369819D01*
X201279886Y-165384451D01*
X201291085Y-165411487D01*
X201311777Y-165432179D01*
X201338813Y-165443378D01*
X201368077Y-165443378D01*
X201395113Y-165432179D01*
X201415805Y-165411487D01*
X201427004Y-165384451D01*
X201428445Y-165369819D01*
X201428445Y-164846009D01*
X201427004Y-164831377D01*
X201425973Y-164828888D01*
X201425782Y-164826199D01*
X201420527Y-164812468D01*
X201372908Y-164717230D01*
X201371367Y-164714782D01*
X201370983Y-164713629D01*
X201369737Y-164712192D01*
X201365076Y-164704787D01*
X201363191Y-164703152D01*
X201754636Y-164703152D01*
X201754636Y-165703152D01*
X201756077Y-165717784D01*
X201767276Y-165744820D01*
X201787968Y-165765512D01*
X201815004Y-165776711D01*
X201844268Y-165776711D01*
X201871304Y-165765512D01*
X201891996Y-165744820D01*
X201903195Y-165717784D01*
X201904636Y-165703152D01*
X201904636Y-165607993D01*
X204754637Y-165607993D01*
X204760376Y-165636687D01*
X204776659Y-165661002D01*
X204801008Y-165677235D01*
X204829716Y-165682914D01*
X204858410Y-165677175D01*
X204882725Y-165660892D01*
X204892041Y-165649516D01*
X205745172Y-164369819D01*
X206707018Y-164369819D01*
X206707018Y-165369819D01*
X206708459Y-165384451D01*
X206719658Y-165411487D01*
X206740350Y-165432179D01*
X206767386Y-165443378D01*
X206796650Y-165443378D01*
X206823686Y-165432179D01*
X206844378Y-165411487D01*
X206855577Y-165384451D01*
X206857018Y-165369819D01*
X206857018Y-164968628D01*
X207162970Y-164968628D01*
X207177602Y-164967187D01*
X207180091Y-164966155D01*
X207182779Y-164965965D01*
X207196511Y-164960710D01*
X207291749Y-164913091D01*
X207298048Y-164909126D01*
X207299876Y-164908369D01*
X207301932Y-164906680D01*
X207304192Y-164905259D01*
X207305491Y-164903760D01*
X207311241Y-164899042D01*
X207358860Y-164851423D01*
X207363578Y-164845673D01*
X207365077Y-164844374D01*
X207366498Y-164842114D01*
X207368187Y-164840058D01*
X207368944Y-164838230D01*
X207372909Y-164831931D01*
X207420528Y-164736693D01*
X207425783Y-164722962D01*
X207425974Y-164720272D01*
X207427005Y-164717784D01*
X207428446Y-164703152D01*
X207707018Y-164703152D01*
X207707018Y-165369819D01*
X207708459Y-165384451D01*
X207719658Y-165411487D01*
X207740350Y-165432179D01*
X207767386Y-165443378D01*
X207796650Y-165443378D01*
X207823686Y-165432179D01*
X207844378Y-165411487D01*
X207855577Y-165384451D01*
X207857018Y-165369819D01*
X207857018Y-164911333D01*
X207865871Y-164893628D01*
X208278447Y-164893628D01*
X208278447Y-165179342D01*
X208279888Y-165193974D01*
X208280919Y-165196463D01*
X208281110Y-165199151D01*
X208286365Y-165212883D01*
X208333984Y-165308121D01*
X208337947Y-165314417D01*
X208338705Y-165316247D01*
X208340394Y-165318305D01*
X208341816Y-165320564D01*
X208343314Y-165321863D01*
X208348032Y-165327612D01*
X208395651Y-165375232D01*
X208401400Y-165379950D01*
X208402701Y-165381450D01*
X208404960Y-165382872D01*
X208407017Y-165384560D01*
X208408844Y-165385317D01*
X208415144Y-165389282D01*
X208510382Y-165436901D01*
X208524113Y-165442156D01*
X208526802Y-165442347D01*
X208529291Y-165443378D01*
X208543923Y-165444819D01*
X208686780Y-165444819D01*
X208701412Y-165443378D01*
X208703901Y-165442346D01*
X208706589Y-165442156D01*
X208720321Y-165436901D01*
X208815559Y-165389282D01*
X208821858Y-165385317D01*
X208823686Y-165384560D01*
X208825742Y-165382872D01*
X208828002Y-165381450D01*
X208829302Y-165379950D01*
X208835052Y-165375232D01*
X208882670Y-165327613D01*
X208887388Y-165321863D01*
X208888887Y-165320564D01*
X208890308Y-165318305D01*
X208891998Y-165316247D01*
X208892755Y-165314417D01*
X208896719Y-165308121D01*
X208944338Y-165212883D01*
X208949593Y-165199152D01*
X208949784Y-165196462D01*
X208950815Y-165193974D01*
X208952256Y-165179342D01*
X208952256Y-164893628D01*
X208950815Y-164878996D01*
X208949784Y-164876507D01*
X208949593Y-164873818D01*
X208944338Y-164860087D01*
X208896719Y-164764849D01*
X208892754Y-164758549D01*
X208891997Y-164756722D01*
X208890308Y-164754665D01*
X208888887Y-164752406D01*
X208887388Y-164751106D01*
X208882670Y-164745357D01*
X208835051Y-164697738D01*
X208829301Y-164693019D01*
X208828002Y-164691521D01*
X208825742Y-164690099D01*
X208823819Y-164688520D01*
X209089412Y-164688520D01*
X209089412Y-164717784D01*
X209100611Y-164744820D01*
X209121303Y-164765512D01*
X209148339Y-164776711D01*
X209162971Y-164778152D01*
X209230828Y-164778152D01*
X209230828Y-165226961D01*
X209232269Y-165241593D01*
X209233300Y-165244082D01*
X209233491Y-165246770D01*
X209238746Y-165260502D01*
X209286365Y-165355741D01*
X209287905Y-165358187D01*
X209288290Y-165359342D01*
X209289536Y-165360779D01*
X209294197Y-165368183D01*
X209301299Y-165374342D01*
X209307463Y-165381450D01*
X209314868Y-165386111D01*
X209316305Y-165387357D01*
X209317458Y-165387741D01*
X209319906Y-165389282D01*
X209415144Y-165436901D01*
X209428875Y-165442156D01*
X209431564Y-165442347D01*
X209434053Y-165443378D01*
X209448685Y-165444819D01*
X209543923Y-165444819D01*
X209558555Y-165443378D01*
X209585591Y-165432179D01*
X209606283Y-165411487D01*
X209617482Y-165384451D01*
X209617482Y-165355187D01*
X209606283Y-165328151D01*
X209585591Y-165307459D01*
X209558555Y-165296260D01*
X209543923Y-165294819D01*
X209466390Y-165294819D01*
X209409348Y-165266298D01*
X209380828Y-165209256D01*
X209380828Y-164846009D01*
X209754638Y-164846009D01*
X209754638Y-165226961D01*
X209756079Y-165241593D01*
X209757110Y-165244082D01*
X209757301Y-165246770D01*
X209762556Y-165260502D01*
X209810175Y-165355741D01*
X209811715Y-165358187D01*
X209812100Y-165359342D01*
X209813346Y-165360779D01*
X209818007Y-165368183D01*
X209825109Y-165374342D01*
X209831273Y-165381450D01*
X209838678Y-165386111D01*
X209840115Y-165387357D01*
X209841268Y-165387741D01*
X209843716Y-165389282D01*
X209938954Y-165436901D01*
X209952685Y-165442156D01*
X209955374Y-165442347D01*
X209957863Y-165443378D01*
X209972495Y-165444819D01*
X210162971Y-165444819D01*
X210177603Y-165443378D01*
X210180092Y-165442346D01*
X210182780Y-165442156D01*
X210196512Y-165436901D01*
X210291750Y-165389282D01*
X210304193Y-165381450D01*
X210323366Y-165359342D01*
X210332620Y-165331581D01*
X210330546Y-165302391D01*
X210317458Y-165276216D01*
X210295351Y-165257043D01*
X210267589Y-165247789D01*
X210238399Y-165249863D01*
X210224668Y-165255118D01*
X210145266Y-165294819D01*
X209990200Y-165294819D01*
X209933158Y-165266298D01*
X209904638Y-165209256D01*
X209904638Y-165097970D01*
X210320536Y-165014791D01*
X210334602Y-165010508D01*
X210340707Y-165006419D01*
X210347496Y-165003607D01*
X210352748Y-164998354D01*
X210358916Y-164994224D01*
X210362990Y-164988113D01*
X210368188Y-164982915D01*
X210371031Y-164976051D01*
X210375148Y-164969876D01*
X210376573Y-164962670D01*
X210379387Y-164955879D01*
X210380828Y-164941247D01*
X210380828Y-164893628D01*
X210611781Y-164893628D01*
X210611781Y-165179342D01*
X210613222Y-165193974D01*
X210614253Y-165196463D01*
X210614444Y-165199151D01*
X210619699Y-165212883D01*
X210667318Y-165308121D01*
X210671281Y-165314417D01*
X210672039Y-165316247D01*
X210673728Y-165318305D01*
X210675150Y-165320564D01*
X210676648Y-165321863D01*
X210681366Y-165327612D01*
X210728985Y-165375232D01*
X210734734Y-165379950D01*
X210736035Y-165381450D01*
X210738294Y-165382872D01*
X210740351Y-165384560D01*
X210742178Y-165385317D01*
X210748478Y-165389282D01*
X210843716Y-165436901D01*
X210857447Y-165442156D01*
X210860136Y-165442347D01*
X210862625Y-165443378D01*
X210877257Y-165444819D01*
X211067733Y-165444819D01*
X211082365Y-165443378D01*
X211084854Y-165442346D01*
X211087542Y-165442156D01*
X211101274Y-165436901D01*
X211196512Y-165389282D01*
X211208955Y-165381450D01*
X211228128Y-165359342D01*
X211237382Y-165331581D01*
X211235308Y-165302391D01*
X211222220Y-165276216D01*
X211200113Y-165257043D01*
X211172351Y-165247789D01*
X211143161Y-165249863D01*
X211129430Y-165255118D01*
X211050028Y-165294819D01*
X210894962Y-165294819D01*
X210826446Y-165260561D01*
X210796039Y-165230153D01*
X210761781Y-165161637D01*
X210761781Y-164911333D01*
X210796039Y-164842817D01*
X210826446Y-164812410D01*
X210894962Y-164778152D01*
X211050028Y-164778152D01*
X211129430Y-164817853D01*
X211143161Y-164823108D01*
X211172351Y-164825182D01*
X211200113Y-164815928D01*
X211222220Y-164796755D01*
X211235308Y-164770580D01*
X211237382Y-164741390D01*
X211228128Y-164713629D01*
X211208955Y-164691521D01*
X211204187Y-164688520D01*
X211375127Y-164688520D01*
X211375127Y-164717784D01*
X211386326Y-164744820D01*
X211407018Y-164765512D01*
X211434054Y-164776711D01*
X211448686Y-164778152D01*
X211516543Y-164778152D01*
X211516543Y-165226961D01*
X211517984Y-165241593D01*
X211519015Y-165244082D01*
X211519206Y-165246770D01*
X211524461Y-165260502D01*
X211572080Y-165355741D01*
X211573620Y-165358187D01*
X211574005Y-165359342D01*
X211575251Y-165360779D01*
X211579912Y-165368183D01*
X211587014Y-165374342D01*
X211593178Y-165381450D01*
X211600583Y-165386111D01*
X211602020Y-165387357D01*
X211603173Y-165387741D01*
X211605621Y-165389282D01*
X211700859Y-165436901D01*
X211714590Y-165442156D01*
X211717279Y-165442347D01*
X211719768Y-165443378D01*
X211734400Y-165444819D01*
X211829638Y-165444819D01*
X211844270Y-165443378D01*
X211871306Y-165432179D01*
X211891998Y-165411487D01*
X211903197Y-165384451D01*
X211903197Y-165355187D01*
X211891998Y-165328151D01*
X211871306Y-165307459D01*
X211844270Y-165296260D01*
X211829638Y-165294819D01*
X211752105Y-165294819D01*
X211695063Y-165266298D01*
X211666543Y-165209256D01*
X211666543Y-164778152D01*
X211829638Y-164778152D01*
X211844270Y-164776711D01*
X211871306Y-164765512D01*
X211891998Y-164744820D01*
X211903197Y-164717784D01*
X211903197Y-164703152D01*
X212087972Y-164703152D01*
X212087972Y-165369819D01*
X212089413Y-165384451D01*
X212100612Y-165411487D01*
X212121304Y-165432179D01*
X212148340Y-165443378D01*
X212177604Y-165443378D01*
X212204640Y-165432179D01*
X212225332Y-165411487D01*
X212236531Y-165384451D01*
X212237972Y-165369819D01*
X212237972Y-164893628D01*
X212516543Y-164893628D01*
X212516543Y-165179342D01*
X212517984Y-165193974D01*
X212519015Y-165196463D01*
X212519206Y-165199151D01*
X212524461Y-165212883D01*
X212572080Y-165308121D01*
X212576043Y-165314417D01*
X212576801Y-165316247D01*
X212578490Y-165318305D01*
X212579912Y-165320564D01*
X212581410Y-165321863D01*
X212586128Y-165327612D01*
X212633747Y-165375232D01*
X212639496Y-165379950D01*
X212640797Y-165381450D01*
X212643056Y-165382872D01*
X212645113Y-165384560D01*
X212646940Y-165385317D01*
X212653240Y-165389282D01*
X212748478Y-165436901D01*
X212762209Y-165442156D01*
X212764898Y-165442347D01*
X212767387Y-165443378D01*
X212782019Y-165444819D01*
X212924876Y-165444819D01*
X212939508Y-165443378D01*
X212941997Y-165442346D01*
X212944685Y-165442156D01*
X212958417Y-165436901D01*
X213053655Y-165389282D01*
X213059954Y-165385317D01*
X213061782Y-165384560D01*
X213063838Y-165382872D01*
X213066098Y-165381450D01*
X213067398Y-165379950D01*
X213073148Y-165375232D01*
X213120766Y-165327613D01*
X213125484Y-165321863D01*
X213126983Y-165320564D01*
X213128404Y-165318305D01*
X213130094Y-165316247D01*
X213130851Y-165314417D01*
X213134815Y-165308121D01*
X213182434Y-165212883D01*
X213187689Y-165199152D01*
X213187880Y-165196462D01*
X213188911Y-165193974D01*
X213190352Y-165179342D01*
X213190352Y-164893628D01*
X213188911Y-164878996D01*
X213187880Y-164876507D01*
X213187689Y-164873818D01*
X213182434Y-164860087D01*
X213134815Y-164764849D01*
X213130850Y-164758549D01*
X213130093Y-164756722D01*
X213128404Y-164754665D01*
X213126983Y-164752406D01*
X213125484Y-164751106D01*
X213120766Y-164745357D01*
X213078561Y-164703152D01*
X213468924Y-164703152D01*
X213468924Y-165369819D01*
X213470365Y-165384451D01*
X213481564Y-165411487D01*
X213502256Y-165432179D01*
X213529292Y-165443378D01*
X213558556Y-165443378D01*
X213585592Y-165432179D01*
X213606284Y-165411487D01*
X213617483Y-165384451D01*
X213618924Y-165369819D01*
X213618924Y-164829456D01*
X213635970Y-164812410D01*
X213704486Y-164778152D01*
X213811933Y-164778152D01*
X213868974Y-164806672D01*
X213897495Y-164863714D01*
X213897495Y-165369819D01*
X213898936Y-165384451D01*
X213910135Y-165411487D01*
X213930827Y-165432179D01*
X213957863Y-165443378D01*
X213987127Y-165443378D01*
X214014163Y-165432179D01*
X214034855Y-165411487D01*
X214046054Y-165384451D01*
X214047495Y-165369819D01*
X214047495Y-164846009D01*
X214046054Y-164831377D01*
X214045023Y-164828888D01*
X214044832Y-164826199D01*
X214039577Y-164812468D01*
X214032538Y-164798390D01*
X215087972Y-164798390D01*
X215087972Y-164941247D01*
X215088223Y-164943800D01*
X215088061Y-164944893D01*
X215088870Y-164950366D01*
X215089413Y-164955879D01*
X215089835Y-164956900D01*
X215090211Y-164959437D01*
X215137830Y-165149913D01*
X215138215Y-165150992D01*
X215138254Y-165151532D01*
X215140581Y-165157613D01*
X215142777Y-165163759D01*
X215143099Y-165164194D01*
X215143509Y-165165264D01*
X215191128Y-165260502D01*
X215195091Y-165266798D01*
X215195849Y-165268628D01*
X215197538Y-165270686D01*
X215198960Y-165272945D01*
X215200458Y-165274244D01*
X215205177Y-165279994D01*
X215300415Y-165375233D01*
X215311780Y-165384561D01*
X215314270Y-165385592D01*
X215316305Y-165387357D01*
X215329731Y-165393351D01*
X215472587Y-165440970D01*
X215479842Y-165442619D01*
X215481673Y-165443378D01*
X215484326Y-165443639D01*
X215486924Y-165444230D01*
X215488898Y-165444089D01*
X215496305Y-165444819D01*
X215591543Y-165444819D01*
X215598948Y-165444089D01*
X215600923Y-165444230D01*
X215603520Y-165443639D01*
X215606175Y-165443378D01*
X215608006Y-165442619D01*
X215615260Y-165440970D01*
X215758117Y-165393351D01*
X215771542Y-165387357D01*
X215773577Y-165385591D01*
X215776068Y-165384560D01*
X215787434Y-165375232D01*
X215835052Y-165327613D01*
X215844380Y-165316247D01*
X215855578Y-165289211D01*
X215855578Y-165259948D01*
X215844379Y-165232912D01*
X215823686Y-165212219D01*
X215796650Y-165201021D01*
X215767387Y-165201021D01*
X215740351Y-165212220D01*
X215728985Y-165221548D01*
X215693886Y-165256647D01*
X215579373Y-165294819D01*
X215508475Y-165294819D01*
X215393962Y-165256648D01*
X215319849Y-165182534D01*
X215281355Y-165105547D01*
X215237972Y-164932013D01*
X215237972Y-164807624D01*
X215264090Y-164703152D01*
X216135591Y-164703152D01*
X216135591Y-165369819D01*
X216137032Y-165384451D01*
X216148231Y-165411487D01*
X216168923Y-165432179D01*
X216195959Y-165443378D01*
X216225223Y-165443378D01*
X216252259Y-165432179D01*
X216272951Y-165411487D01*
X216284150Y-165384451D01*
X216285591Y-165369819D01*
X216285591Y-164703152D01*
X216611781Y-164703152D01*
X216611781Y-165369819D01*
X216613222Y-165384451D01*
X216624421Y-165411487D01*
X216645113Y-165432179D01*
X216672149Y-165443378D01*
X216701413Y-165443378D01*
X216728449Y-165432179D01*
X216749141Y-165411487D01*
X216760340Y-165384451D01*
X216761781Y-165369819D01*
X216761781Y-164911333D01*
X216770634Y-164893628D01*
X217183210Y-164893628D01*
X217183210Y-165179342D01*
X217184651Y-165193974D01*
X217185682Y-165196463D01*
X217185873Y-165199151D01*
X217191128Y-165212883D01*
X217238747Y-165308121D01*
X217242710Y-165314417D01*
X217243468Y-165316247D01*
X217245157Y-165318305D01*
X217246579Y-165320564D01*
X217248077Y-165321863D01*
X217252795Y-165327612D01*
X217300414Y-165375232D01*
X217306163Y-165379950D01*
X217307464Y-165381450D01*
X217309723Y-165382872D01*
X217311780Y-165384560D01*
X217313607Y-165385317D01*
X217319907Y-165389282D01*
X217415145Y-165436901D01*
X217428876Y-165442156D01*
X217431565Y-165442347D01*
X217434054Y-165443378D01*
X217448686Y-165444819D01*
X217639162Y-165444819D01*
X217653794Y-165443378D01*
X217656283Y-165442346D01*
X217658971Y-165442156D01*
X217672703Y-165436901D01*
X217767941Y-165389282D01*
X217780384Y-165381450D01*
X217799557Y-165359342D01*
X217808811Y-165331581D01*
X217806737Y-165302391D01*
X217793649Y-165276216D01*
X217771542Y-165257043D01*
X217743780Y-165247789D01*
X217714590Y-165249863D01*
X217700859Y-165255118D01*
X217621457Y-165294819D01*
X217466391Y-165294819D01*
X217397875Y-165260561D01*
X217367468Y-165230153D01*
X217333210Y-165161637D01*
X217333210Y-164911333D01*
X217367468Y-164842817D01*
X217397875Y-164812410D01*
X217466391Y-164778152D01*
X217621457Y-164778152D01*
X217700859Y-164817853D01*
X217714590Y-164823108D01*
X217743780Y-164825182D01*
X217771542Y-164815928D01*
X217793649Y-164796755D01*
X217806737Y-164770580D01*
X217808811Y-164741390D01*
X217799557Y-164713629D01*
X217790471Y-164703152D01*
X218087972Y-164703152D01*
X218087972Y-165226961D01*
X218089413Y-165241593D01*
X218090444Y-165244082D01*
X218090635Y-165246770D01*
X218095890Y-165260502D01*
X218143509Y-165355741D01*
X218145049Y-165358187D01*
X218145434Y-165359342D01*
X218146680Y-165360779D01*
X218151341Y-165368183D01*
X218158443Y-165374342D01*
X218164607Y-165381450D01*
X218172012Y-165386111D01*
X218173449Y-165387357D01*
X218174602Y-165387741D01*
X218177050Y-165389282D01*
X218272288Y-165436901D01*
X218286019Y-165442156D01*
X218288708Y-165442347D01*
X218291197Y-165443378D01*
X218305829Y-165444819D01*
X218448686Y-165444819D01*
X218463318Y-165443378D01*
X218465807Y-165442346D01*
X218468495Y-165442156D01*
X218482227Y-165436901D01*
X218530473Y-165412777D01*
X218549875Y-165432179D01*
X218576911Y-165443378D01*
X218606175Y-165443378D01*
X218633211Y-165432179D01*
X218653903Y-165411487D01*
X218665102Y-165384451D01*
X218666543Y-165369819D01*
X218666543Y-164703152D01*
X218992734Y-164703152D01*
X218992734Y-165369819D01*
X218994175Y-165384451D01*
X219005374Y-165411487D01*
X219026066Y-165432179D01*
X219053102Y-165443378D01*
X219082366Y-165443378D01*
X219109402Y-165432179D01*
X219130094Y-165411487D01*
X219141293Y-165384451D01*
X219142734Y-165369819D01*
X219142734Y-164703152D01*
X219141293Y-164688520D01*
X219327508Y-164688520D01*
X219327508Y-164717784D01*
X219338707Y-164744820D01*
X219359399Y-164765512D01*
X219386435Y-164776711D01*
X219401067Y-164778152D01*
X219468924Y-164778152D01*
X219468924Y-165226961D01*
X219470365Y-165241593D01*
X219471396Y-165244082D01*
X219471587Y-165246770D01*
X219476842Y-165260502D01*
X219524461Y-165355741D01*
X219526001Y-165358187D01*
X219526386Y-165359342D01*
X219527632Y-165360779D01*
X219532293Y-165368183D01*
X219539395Y-165374342D01*
X219545559Y-165381450D01*
X219552964Y-165386111D01*
X219554401Y-165387357D01*
X219555554Y-165387741D01*
X219558002Y-165389282D01*
X219653240Y-165436901D01*
X219666971Y-165442156D01*
X219669660Y-165442347D01*
X219672149Y-165443378D01*
X219686781Y-165444819D01*
X219782019Y-165444819D01*
X219796651Y-165443378D01*
X219823687Y-165432179D01*
X219844379Y-165411487D01*
X219855578Y-165384451D01*
X219855578Y-165355187D01*
X219844379Y-165328151D01*
X219823687Y-165307459D01*
X219796651Y-165296260D01*
X219782019Y-165294819D01*
X219704486Y-165294819D01*
X219647444Y-165266298D01*
X219618924Y-165209256D01*
X219618924Y-164778152D01*
X219782019Y-164778152D01*
X219796651Y-164776711D01*
X219823687Y-164765512D01*
X219844379Y-164744820D01*
X219855578Y-164717784D01*
X219855578Y-164688520D01*
X219844379Y-164661484D01*
X219823687Y-164640792D01*
X219796651Y-164629593D01*
X219782019Y-164628152D01*
X219618924Y-164628152D01*
X219618924Y-164369819D01*
X219617483Y-164355187D01*
X219606284Y-164328151D01*
X219585592Y-164307459D01*
X219558556Y-164296260D01*
X219529292Y-164296260D01*
X219502256Y-164307459D01*
X219481564Y-164328151D01*
X219470365Y-164355187D01*
X219468924Y-164369819D01*
X219468924Y-164628152D01*
X219401067Y-164628152D01*
X219386435Y-164629593D01*
X219359399Y-164640792D01*
X219338707Y-164661484D01*
X219327508Y-164688520D01*
X219141293Y-164688520D01*
X219130094Y-164661484D01*
X219109402Y-164640792D01*
X219082366Y-164629593D01*
X219053102Y-164629593D01*
X219026066Y-164640792D01*
X219005374Y-164661484D01*
X218994175Y-164688520D01*
X218992734Y-164703152D01*
X218666543Y-164703152D01*
X218665102Y-164688520D01*
X218653903Y-164661484D01*
X218633211Y-164640792D01*
X218606175Y-164629593D01*
X218576911Y-164629593D01*
X218549875Y-164640792D01*
X218529183Y-164661484D01*
X218517984Y-164688520D01*
X218516543Y-164703152D01*
X218516543Y-165243514D01*
X218499496Y-165260561D01*
X218430981Y-165294819D01*
X218323534Y-165294819D01*
X218266492Y-165266298D01*
X218237972Y-165209256D01*
X218237972Y-164703152D01*
X218236531Y-164688520D01*
X218225332Y-164661484D01*
X218204640Y-164640792D01*
X218177604Y-164629593D01*
X218148340Y-164629593D01*
X218121304Y-164640792D01*
X218100612Y-164661484D01*
X218089413Y-164688520D01*
X218087972Y-164703152D01*
X217790471Y-164703152D01*
X217780384Y-164691521D01*
X217767941Y-164683689D01*
X217672703Y-164636070D01*
X217658971Y-164630815D01*
X217656283Y-164630624D01*
X217653794Y-164629593D01*
X217639162Y-164628152D01*
X217448686Y-164628152D01*
X217434054Y-164629593D01*
X217431565Y-164630623D01*
X217428876Y-164630815D01*
X217415145Y-164636070D01*
X217319907Y-164683689D01*
X217313607Y-164687653D01*
X217311780Y-164688411D01*
X217309723Y-164690099D01*
X217307464Y-164691521D01*
X217306164Y-164693019D01*
X217300415Y-164697738D01*
X217252796Y-164745357D01*
X217248077Y-164751106D01*
X217246579Y-164752406D01*
X217245157Y-164754665D01*
X217243469Y-164756722D01*
X217242711Y-164758549D01*
X217238747Y-164764849D01*
X217191128Y-164860087D01*
X217185873Y-164873819D01*
X217185682Y-164876506D01*
X217184651Y-164878996D01*
X217183210Y-164893628D01*
X216770634Y-164893628D01*
X216796039Y-164842817D01*
X216826446Y-164812410D01*
X216894962Y-164778152D01*
X216972495Y-164778152D01*
X216987127Y-164776711D01*
X217014163Y-164765512D01*
X217034855Y-164744820D01*
X217046054Y-164717784D01*
X217046054Y-164688520D01*
X217034855Y-164661484D01*
X217014163Y-164640792D01*
X216987127Y-164629593D01*
X216972495Y-164628152D01*
X216877257Y-164628152D01*
X216862625Y-164629593D01*
X216860136Y-164630623D01*
X216857447Y-164630815D01*
X216843716Y-164636070D01*
X216756646Y-164679604D01*
X216749141Y-164661484D01*
X216728449Y-164640792D01*
X216701413Y-164629593D01*
X216672149Y-164629593D01*
X216645113Y-164640792D01*
X216624421Y-164661484D01*
X216613222Y-164688520D01*
X216611781Y-164703152D01*
X216285591Y-164703152D01*
X216284150Y-164688520D01*
X216272951Y-164661484D01*
X216252259Y-164640792D01*
X216225223Y-164629593D01*
X216195959Y-164629593D01*
X216168923Y-164640792D01*
X216148231Y-164661484D01*
X216137032Y-164688520D01*
X216135591Y-164703152D01*
X215264090Y-164703152D01*
X215281355Y-164634090D01*
X215319849Y-164557103D01*
X215393962Y-164482990D01*
X215508475Y-164444819D01*
X215579373Y-164444819D01*
X215693886Y-164482990D01*
X215728986Y-164518090D01*
X215740351Y-164527417D01*
X215767387Y-164538616D01*
X215796650Y-164538616D01*
X215823686Y-164527417D01*
X215844379Y-164506724D01*
X215855578Y-164479688D01*
X215855578Y-164450425D01*
X215844379Y-164423389D01*
X215835052Y-164412024D01*
X215825835Y-164402807D01*
X216089413Y-164402807D01*
X216089413Y-164432069D01*
X216100612Y-164459106D01*
X216109939Y-164470471D01*
X216157558Y-164518090D01*
X216168923Y-164527417D01*
X216195959Y-164538616D01*
X216195960Y-164538616D01*
X216225222Y-164538616D01*
X216225223Y-164538616D01*
X216252259Y-164527417D01*
X216263624Y-164518090D01*
X216311243Y-164470471D01*
X216320570Y-164459106D01*
X216331769Y-164432070D01*
X216331769Y-164402807D01*
X218946556Y-164402807D01*
X218946556Y-164432069D01*
X218957755Y-164459106D01*
X218967082Y-164470471D01*
X219014701Y-164518090D01*
X219026066Y-164527417D01*
X219053102Y-164538616D01*
X219053103Y-164538616D01*
X219082365Y-164538616D01*
X219082366Y-164538616D01*
X219109402Y-164527417D01*
X219120767Y-164518090D01*
X219168386Y-164470471D01*
X219177713Y-164459106D01*
X219188912Y-164432070D01*
X219188912Y-164402807D01*
X219183454Y-164389629D01*
X219177713Y-164375770D01*
X219168386Y-164364405D01*
X219120767Y-164316786D01*
X219109402Y-164307459D01*
X219082366Y-164296260D01*
X219082365Y-164296260D01*
X219053102Y-164296260D01*
X219026066Y-164307459D01*
X219014701Y-164316786D01*
X218967082Y-164364405D01*
X218957755Y-164375770D01*
X218946556Y-164402807D01*
X216331769Y-164402807D01*
X216326311Y-164389629D01*
X216320570Y-164375770D01*
X216311243Y-164364405D01*
X216263624Y-164316786D01*
X216252259Y-164307459D01*
X216225223Y-164296260D01*
X216225222Y-164296260D01*
X216195959Y-164296260D01*
X216168923Y-164307459D01*
X216157558Y-164316786D01*
X216109939Y-164364405D01*
X216100612Y-164375770D01*
X216089413Y-164402807D01*
X215825835Y-164402807D01*
X215787433Y-164364405D01*
X215776068Y-164355078D01*
X215773577Y-164354046D01*
X215771542Y-164352281D01*
X215758117Y-164346287D01*
X215615260Y-164298668D01*
X215608006Y-164297018D01*
X215606175Y-164296260D01*
X215603520Y-164295998D01*
X215600923Y-164295408D01*
X215598948Y-164295548D01*
X215591543Y-164294819D01*
X215496305Y-164294819D01*
X215488898Y-164295548D01*
X215486924Y-164295408D01*
X215484326Y-164295998D01*
X215481673Y-164296260D01*
X215479842Y-164297018D01*
X215472587Y-164298668D01*
X215329731Y-164346287D01*
X215316305Y-164352281D01*
X215314270Y-164354045D01*
X215311780Y-164355077D01*
X215300415Y-164364405D01*
X215205177Y-164459643D01*
X215200458Y-164465392D01*
X215198960Y-164466692D01*
X215197538Y-164468951D01*
X215195850Y-164471008D01*
X215195092Y-164472835D01*
X215191128Y-164479135D01*
X215143509Y-164574373D01*
X215143099Y-164575442D01*
X215142777Y-164575878D01*
X215140581Y-164582023D01*
X215138254Y-164588105D01*
X215138215Y-164588644D01*
X215137830Y-164589724D01*
X215090211Y-164780200D01*
X215089835Y-164782736D01*
X215089413Y-164783758D01*
X215088870Y-164789270D01*
X215088061Y-164794744D01*
X215088223Y-164795836D01*
X215087972Y-164798390D01*
X214032538Y-164798390D01*
X213991958Y-164717230D01*
X213990417Y-164714782D01*
X213990033Y-164713629D01*
X213988787Y-164712192D01*
X213984126Y-164704787D01*
X213977021Y-164698625D01*
X213970860Y-164691521D01*
X213963454Y-164686859D01*
X213962018Y-164685614D01*
X213960864Y-164685229D01*
X213958417Y-164683689D01*
X213863179Y-164636070D01*
X213849447Y-164630815D01*
X213846759Y-164630624D01*
X213844270Y-164629593D01*
X213829638Y-164628152D01*
X213686781Y-164628152D01*
X213672149Y-164629593D01*
X213669660Y-164630623D01*
X213666971Y-164630815D01*
X213653240Y-164636070D01*
X213604993Y-164660193D01*
X213585592Y-164640792D01*
X213558556Y-164629593D01*
X213529292Y-164629593D01*
X213502256Y-164640792D01*
X213481564Y-164661484D01*
X213470365Y-164688520D01*
X213468924Y-164703152D01*
X213078561Y-164703152D01*
X213073147Y-164697738D01*
X213067397Y-164693019D01*
X213066098Y-164691521D01*
X213063838Y-164690099D01*
X213061782Y-164688411D01*
X213059954Y-164687653D01*
X213053655Y-164683689D01*
X212958417Y-164636070D01*
X212944685Y-164630815D01*
X212941997Y-164630624D01*
X212939508Y-164629593D01*
X212924876Y-164628152D01*
X212782019Y-164628152D01*
X212767387Y-164629593D01*
X212764898Y-164630623D01*
X212762209Y-164630815D01*
X212748478Y-164636070D01*
X212653240Y-164683689D01*
X212646940Y-164687653D01*
X212645113Y-164688411D01*
X212643056Y-164690099D01*
X212640797Y-164691521D01*
X212639497Y-164693019D01*
X212633748Y-164697738D01*
X212586129Y-164745357D01*
X212581410Y-164751106D01*
X212579912Y-164752406D01*
X212578490Y-164754665D01*
X212576802Y-164756722D01*
X212576044Y-164758549D01*
X212572080Y-164764849D01*
X212524461Y-164860087D01*
X212519206Y-164873819D01*
X212519015Y-164876506D01*
X212517984Y-164878996D01*
X212516543Y-164893628D01*
X212237972Y-164893628D01*
X212237972Y-164703152D01*
X212236531Y-164688520D01*
X212225332Y-164661484D01*
X212204640Y-164640792D01*
X212177604Y-164629593D01*
X212148340Y-164629593D01*
X212121304Y-164640792D01*
X212100612Y-164661484D01*
X212089413Y-164688520D01*
X212087972Y-164703152D01*
X211903197Y-164703152D01*
X211903197Y-164688520D01*
X211891998Y-164661484D01*
X211871306Y-164640792D01*
X211844270Y-164629593D01*
X211829638Y-164628152D01*
X211666543Y-164628152D01*
X211666543Y-164402807D01*
X212041794Y-164402807D01*
X212041794Y-164432069D01*
X212052993Y-164459106D01*
X212062320Y-164470471D01*
X212109939Y-164518090D01*
X212121304Y-164527417D01*
X212148340Y-164538616D01*
X212148341Y-164538616D01*
X212177603Y-164538616D01*
X212177604Y-164538616D01*
X212204640Y-164527417D01*
X212216005Y-164518090D01*
X212263624Y-164470471D01*
X212272951Y-164459106D01*
X212284150Y-164432070D01*
X212284150Y-164402807D01*
X212278692Y-164389629D01*
X212272951Y-164375770D01*
X212263624Y-164364405D01*
X212216005Y-164316786D01*
X212204640Y-164307459D01*
X212177604Y-164296260D01*
X212177603Y-164296260D01*
X212148340Y-164296260D01*
X212121304Y-164307459D01*
X212109939Y-164316786D01*
X212062320Y-164364405D01*
X212052993Y-164375770D01*
X212041794Y-164402807D01*
X211666543Y-164402807D01*
X211666543Y-164369819D01*
X211665102Y-164355187D01*
X211653903Y-164328151D01*
X211633211Y-164307459D01*
X211606175Y-164296260D01*
X211576911Y-164296260D01*
X211549875Y-164307459D01*
X211529183Y-164328151D01*
X211517984Y-164355187D01*
X211516543Y-164369819D01*
X211516543Y-164628152D01*
X211448686Y-164628152D01*
X211434054Y-164629593D01*
X211407018Y-164640792D01*
X211386326Y-164661484D01*
X211375127Y-164688520D01*
X211204187Y-164688520D01*
X211196512Y-164683689D01*
X211101274Y-164636070D01*
X211087542Y-164630815D01*
X211084854Y-164630624D01*
X211082365Y-164629593D01*
X211067733Y-164628152D01*
X210877257Y-164628152D01*
X210862625Y-164629593D01*
X210860136Y-164630623D01*
X210857447Y-164630815D01*
X210843716Y-164636070D01*
X210748478Y-164683689D01*
X210742178Y-164687653D01*
X210740351Y-164688411D01*
X210738294Y-164690099D01*
X210736035Y-164691521D01*
X210734735Y-164693019D01*
X210728986Y-164697738D01*
X210681367Y-164745357D01*
X210676648Y-164751106D01*
X210675150Y-164752406D01*
X210673728Y-164754665D01*
X210672040Y-164756722D01*
X210671282Y-164758549D01*
X210667318Y-164764849D01*
X210619699Y-164860087D01*
X210614444Y-164873819D01*
X210614253Y-164876506D01*
X210613222Y-164878996D01*
X210611781Y-164893628D01*
X210380828Y-164893628D01*
X210380828Y-164846009D01*
X210379387Y-164831377D01*
X210378356Y-164828888D01*
X210378165Y-164826199D01*
X210372910Y-164812468D01*
X210325291Y-164717230D01*
X210323750Y-164714782D01*
X210323366Y-164713629D01*
X210322120Y-164712192D01*
X210317459Y-164704787D01*
X210310354Y-164698625D01*
X210304193Y-164691521D01*
X210296787Y-164686859D01*
X210295351Y-164685614D01*
X210294197Y-164685229D01*
X210291750Y-164683689D01*
X210196512Y-164636070D01*
X210182780Y-164630815D01*
X210180092Y-164630624D01*
X210177603Y-164629593D01*
X210162971Y-164628152D01*
X209972495Y-164628152D01*
X209957863Y-164629593D01*
X209955374Y-164630623D01*
X209952685Y-164630815D01*
X209938954Y-164636070D01*
X209843716Y-164683689D01*
X209841268Y-164685229D01*
X209840115Y-164685614D01*
X209838678Y-164686859D01*
X209831273Y-164691521D01*
X209825111Y-164698625D01*
X209818007Y-164704787D01*
X209813345Y-164712192D01*
X209812100Y-164713629D01*
X209811715Y-164714782D01*
X209810175Y-164717230D01*
X209762556Y-164812468D01*
X209757301Y-164826200D01*
X209757110Y-164828887D01*
X209756079Y-164831377D01*
X209754638Y-164846009D01*
X209380828Y-164846009D01*
X209380828Y-164778152D01*
X209543923Y-164778152D01*
X209558555Y-164776711D01*
X209585591Y-164765512D01*
X209606283Y-164744820D01*
X209617482Y-164717784D01*
X209617482Y-164688520D01*
X209606283Y-164661484D01*
X209585591Y-164640792D01*
X209558555Y-164629593D01*
X209543923Y-164628152D01*
X209380828Y-164628152D01*
X209380828Y-164369819D01*
X209379387Y-164355187D01*
X209368188Y-164328151D01*
X209347496Y-164307459D01*
X209320460Y-164296260D01*
X209291196Y-164296260D01*
X209264160Y-164307459D01*
X209243468Y-164328151D01*
X209232269Y-164355187D01*
X209230828Y-164369819D01*
X209230828Y-164628152D01*
X209162971Y-164628152D01*
X209148339Y-164629593D01*
X209121303Y-164640792D01*
X209100611Y-164661484D01*
X209089412Y-164688520D01*
X208823819Y-164688520D01*
X208823686Y-164688411D01*
X208821858Y-164687653D01*
X208815559Y-164683689D01*
X208720321Y-164636070D01*
X208706589Y-164630815D01*
X208703901Y-164630624D01*
X208701412Y-164629593D01*
X208686780Y-164628152D01*
X208543923Y-164628152D01*
X208529291Y-164629593D01*
X208526802Y-164630623D01*
X208524113Y-164630815D01*
X208510382Y-164636070D01*
X208415144Y-164683689D01*
X208408844Y-164687653D01*
X208407017Y-164688411D01*
X208404960Y-164690099D01*
X208402701Y-164691521D01*
X208401401Y-164693019D01*
X208395652Y-164697738D01*
X208348033Y-164745357D01*
X208343314Y-164751106D01*
X208341816Y-164752406D01*
X208340394Y-164754665D01*
X208338706Y-164756722D01*
X208337948Y-164758549D01*
X208333984Y-164764849D01*
X208286365Y-164860087D01*
X208281110Y-164873819D01*
X208280919Y-164876506D01*
X208279888Y-164878996D01*
X208278447Y-164893628D01*
X207865871Y-164893628D01*
X207891276Y-164842817D01*
X207921683Y-164812410D01*
X207990199Y-164778152D01*
X208067732Y-164778152D01*
X208082364Y-164776711D01*
X208109400Y-164765512D01*
X208130092Y-164744820D01*
X208141291Y-164717784D01*
X208141291Y-164688520D01*
X208130092Y-164661484D01*
X208109400Y-164640792D01*
X208082364Y-164629593D01*
X208067732Y-164628152D01*
X207972494Y-164628152D01*
X207957862Y-164629593D01*
X207955373Y-164630623D01*
X207952684Y-164630815D01*
X207938953Y-164636070D01*
X207851883Y-164679604D01*
X207844378Y-164661484D01*
X207823686Y-164640792D01*
X207796650Y-164629593D01*
X207767386Y-164629593D01*
X207740350Y-164640792D01*
X207719658Y-164661484D01*
X207708459Y-164688520D01*
X207707018Y-164703152D01*
X207428446Y-164703152D01*
X207428446Y-164560295D01*
X207427005Y-164545663D01*
X207425974Y-164543174D01*
X207425783Y-164540485D01*
X207420528Y-164526754D01*
X207372909Y-164431516D01*
X207368944Y-164425216D01*
X207368187Y-164423389D01*
X207366498Y-164421332D01*
X207365077Y-164419073D01*
X207363578Y-164417773D01*
X207358860Y-164412024D01*
X207311241Y-164364405D01*
X207305491Y-164359686D01*
X207304192Y-164358188D01*
X207301932Y-164356766D01*
X207299876Y-164355078D01*
X207298048Y-164354320D01*
X207291749Y-164350356D01*
X207196511Y-164302737D01*
X207182779Y-164297482D01*
X207180091Y-164297291D01*
X207177602Y-164296260D01*
X207162970Y-164294819D01*
X206782018Y-164294819D01*
X206767386Y-164296260D01*
X206740350Y-164307459D01*
X206719658Y-164328151D01*
X206708459Y-164355187D01*
X206707018Y-164369819D01*
X205745172Y-164369819D01*
X205749183Y-164363802D01*
X205756100Y-164350828D01*
X205761779Y-164322121D01*
X205756040Y-164293426D01*
X205739757Y-164269111D01*
X205715408Y-164252878D01*
X205686700Y-164247200D01*
X205658006Y-164252939D01*
X205633691Y-164269222D01*
X205624375Y-164280597D01*
X204767233Y-165566312D01*
X204760316Y-165579285D01*
X204754637Y-165607993D01*
X201904636Y-165607993D01*
X201904636Y-165441992D01*
X201905064Y-165442156D01*
X201907753Y-165442347D01*
X201910242Y-165443378D01*
X201924874Y-165444819D01*
X202115350Y-165444819D01*
X202129982Y-165443378D01*
X202132471Y-165442346D01*
X202135159Y-165442156D01*
X202148891Y-165436901D01*
X202244129Y-165389282D01*
X202250428Y-165385317D01*
X202252256Y-165384560D01*
X202254312Y-165382872D01*
X202256572Y-165381450D01*
X202257872Y-165379950D01*
X202263622Y-165375232D01*
X202311240Y-165327613D01*
X202315958Y-165321863D01*
X202317457Y-165320564D01*
X202318878Y-165318305D01*
X202320568Y-165316247D01*
X202321325Y-165314417D01*
X202325289Y-165308121D01*
X202372908Y-165212883D01*
X202378163Y-165199152D01*
X202378354Y-165196462D01*
X202379385Y-165193974D01*
X202380826Y-165179342D01*
X202380826Y-164893628D01*
X202379385Y-164878996D01*
X202378354Y-164876507D01*
X202378163Y-164873818D01*
X202372908Y-164860087D01*
X202325289Y-164764849D01*
X202321324Y-164758549D01*
X202320567Y-164756722D01*
X202318878Y-164754665D01*
X202317457Y-164752406D01*
X202315958Y-164751106D01*
X202311240Y-164745357D01*
X202269035Y-164703152D01*
X202659398Y-164703152D01*
X202659398Y-165226961D01*
X202660839Y-165241593D01*
X202661870Y-165244082D01*
X202662061Y-165246770D01*
X202667316Y-165260502D01*
X202714935Y-165355741D01*
X202716475Y-165358187D01*
X202716860Y-165359342D01*
X202718106Y-165360779D01*
X202722767Y-165368183D01*
X202729869Y-165374342D01*
X202736033Y-165381450D01*
X202743438Y-165386111D01*
X202744875Y-165387357D01*
X202746028Y-165387741D01*
X202748476Y-165389282D01*
X202843714Y-165436901D01*
X202857445Y-165442156D01*
X202860134Y-165442347D01*
X202862623Y-165443378D01*
X202877255Y-165444819D01*
X203020112Y-165444819D01*
X203034744Y-165443378D01*
X203037233Y-165442346D01*
X203039921Y-165442156D01*
X203053653Y-165436901D01*
X203101899Y-165412777D01*
X203121301Y-165432179D01*
X203148337Y-165443378D01*
X203177601Y-165443378D01*
X203204637Y-165432179D01*
X203225329Y-165411487D01*
X203236528Y-165384451D01*
X203237969Y-165369819D01*
X203237969Y-164703152D01*
X203236528Y-164688520D01*
X203422744Y-164688520D01*
X203422744Y-164717784D01*
X203433943Y-164744820D01*
X203454635Y-164765512D01*
X203481671Y-164776711D01*
X203496303Y-164778152D01*
X203564160Y-164778152D01*
X203564160Y-165226961D01*
X203565601Y-165241593D01*
X203566632Y-165244082D01*
X203566823Y-165246770D01*
X203572078Y-165260502D01*
X203619697Y-165355741D01*
X203621237Y-165358187D01*
X203621622Y-165359342D01*
X203622868Y-165360779D01*
X203627529Y-165368183D01*
X203634631Y-165374342D01*
X203640795Y-165381450D01*
X203648200Y-165386111D01*
X203649637Y-165387357D01*
X203650790Y-165387741D01*
X203653238Y-165389282D01*
X203748476Y-165436901D01*
X203762207Y-165442156D01*
X203764896Y-165442347D01*
X203767385Y-165443378D01*
X203782017Y-165444819D01*
X203877255Y-165444819D01*
X203891887Y-165443378D01*
X203918923Y-165432179D01*
X203939615Y-165411487D01*
X203950814Y-165384451D01*
X203950814Y-165355187D01*
X203939615Y-165328151D01*
X203918923Y-165307459D01*
X203891887Y-165296260D01*
X203877255Y-165294819D01*
X203799722Y-165294819D01*
X203742680Y-165266298D01*
X203714160Y-165209256D01*
X203714160Y-164778152D01*
X203877255Y-164778152D01*
X203891887Y-164776711D01*
X203918923Y-164765512D01*
X203939615Y-164744820D01*
X203950814Y-164717784D01*
X203950814Y-164688520D01*
X203939615Y-164661484D01*
X203918923Y-164640792D01*
X203891887Y-164629593D01*
X203877255Y-164628152D01*
X203714160Y-164628152D01*
X203714160Y-164369819D01*
X203712719Y-164355187D01*
X203701520Y-164328151D01*
X203680828Y-164307459D01*
X203653792Y-164296260D01*
X203624528Y-164296260D01*
X203597492Y-164307459D01*
X203576800Y-164328151D01*
X203565601Y-164355187D01*
X203564160Y-164369819D01*
X203564160Y-164628152D01*
X203496303Y-164628152D01*
X203481671Y-164629593D01*
X203454635Y-164640792D01*
X203433943Y-164661484D01*
X203422744Y-164688520D01*
X203236528Y-164688520D01*
X203225329Y-164661484D01*
X203204637Y-164640792D01*
X203177601Y-164629593D01*
X203148337Y-164629593D01*
X203121301Y-164640792D01*
X203100609Y-164661484D01*
X203089410Y-164688520D01*
X203087969Y-164703152D01*
X203087969Y-165243514D01*
X203070922Y-165260561D01*
X203002407Y-165294819D01*
X202894960Y-165294819D01*
X202837918Y-165266298D01*
X202809398Y-165209256D01*
X202809398Y-164703152D01*
X202807957Y-164688520D01*
X202796758Y-164661484D01*
X202776066Y-164640792D01*
X202749030Y-164629593D01*
X202719766Y-164629593D01*
X202692730Y-164640792D01*
X202672038Y-164661484D01*
X202660839Y-164688520D01*
X202659398Y-164703152D01*
X202269035Y-164703152D01*
X202263621Y-164697738D01*
X202257871Y-164693019D01*
X202256572Y-164691521D01*
X202254312Y-164690099D01*
X202252256Y-164688411D01*
X202250428Y-164687653D01*
X202244129Y-164683689D01*
X202148891Y-164636070D01*
X202135159Y-164630815D01*
X202132471Y-164630624D01*
X202129982Y-164629593D01*
X202115350Y-164628152D01*
X201924874Y-164628152D01*
X201910242Y-164629593D01*
X201907753Y-164630623D01*
X201905064Y-164630815D01*
X201891333Y-164636070D01*
X201874832Y-164644320D01*
X201871304Y-164640792D01*
X201844268Y-164629593D01*
X201815004Y-164629593D01*
X201787968Y-164640792D01*
X201767276Y-164661484D01*
X201756077Y-164688520D01*
X201754636Y-164703152D01*
X201363191Y-164703152D01*
X201357971Y-164698625D01*
X201351810Y-164691521D01*
X201344404Y-164686859D01*
X201342968Y-164685614D01*
X201341814Y-164685229D01*
X201339367Y-164683689D01*
X201244129Y-164636070D01*
X201230397Y-164630815D01*
X201227709Y-164630624D01*
X201225220Y-164629593D01*
X201210588Y-164628152D01*
X201067731Y-164628152D01*
X201053099Y-164629593D01*
X201050610Y-164630623D01*
X201047921Y-164630815D01*
X201034190Y-164636070D01*
X200985943Y-164660193D01*
X200966542Y-164640792D01*
X200939506Y-164629593D01*
X200910242Y-164629593D01*
X200883206Y-164640792D01*
X200862514Y-164661484D01*
X200851315Y-164688520D01*
X200849874Y-164703152D01*
X200523684Y-164703152D01*
X200523684Y-164369819D01*
X200522243Y-164355187D01*
X200511044Y-164328151D01*
X200490352Y-164307459D01*
X200463316Y-164296260D01*
X200434052Y-164296260D01*
X200407016Y-164307459D01*
X200386324Y-164328151D01*
X200375125Y-164355187D01*
X200373684Y-164369819D01*
X199269035Y-164369819D01*
X199263621Y-164364405D01*
X199252256Y-164355078D01*
X199249765Y-164354046D01*
X199247730Y-164352281D01*
X199234305Y-164346287D01*
X199091448Y-164298668D01*
X199084194Y-164297018D01*
X199082363Y-164296260D01*
X199079708Y-164295998D01*
X199077111Y-164295408D01*
X199075136Y-164295548D01*
X199067731Y-164294819D01*
X198972493Y-164294819D01*
X198965086Y-164295548D01*
X198963112Y-164295408D01*
X198960514Y-164295998D01*
X198957861Y-164296260D01*
X198956030Y-164297018D01*
X198948775Y-164298668D01*
X198805919Y-164346287D01*
X198792493Y-164352281D01*
X198790458Y-164354045D01*
X198787968Y-164355077D01*
X198776603Y-164364405D01*
X198681365Y-164459643D01*
X198676646Y-164465392D01*
X198675148Y-164466692D01*
X198673726Y-164468951D01*
X198672038Y-164471008D01*
X198671280Y-164472835D01*
X198667316Y-164479135D01*
X198619697Y-164574373D01*
X198619287Y-164575442D01*
X198618965Y-164575878D01*
X198616769Y-164582023D01*
X198614442Y-164588105D01*
X198614403Y-164588644D01*
X198614018Y-164589724D01*
X198566399Y-164780200D01*
X198566023Y-164782736D01*
X198565601Y-164783758D01*
X198565058Y-164789270D01*
X198564249Y-164794744D01*
X198564411Y-164795836D01*
X198564160Y-164798390D01*
X198333207Y-164798390D01*
X198332955Y-164795836D01*
X198333118Y-164794744D01*
X198332308Y-164789270D01*
X198331766Y-164783758D01*
X198331343Y-164782736D01*
X198330968Y-164780200D01*
X198283349Y-164589724D01*
X198282963Y-164588644D01*
X198282925Y-164588104D01*
X198280594Y-164582014D01*
X198278402Y-164575878D01*
X198278079Y-164575442D01*
X198277670Y-164574373D01*
X198230051Y-164479135D01*
X198226088Y-164472840D01*
X198225330Y-164471008D01*
X198223638Y-164468946D01*
X198222219Y-164466692D01*
X198220722Y-164465393D01*
X198216002Y-164459643D01*
X198120764Y-164364405D01*
X198109399Y-164355078D01*
X198106908Y-164354046D01*
X198104873Y-164352281D01*
X198091448Y-164346287D01*
X197948591Y-164298668D01*
X197941337Y-164297018D01*
X197939506Y-164296260D01*
X197936851Y-164295998D01*
X197934254Y-164295408D01*
X197932279Y-164295548D01*
X197924874Y-164294819D01*
X197686779Y-164294819D01*
X197672147Y-164296260D01*
X197645111Y-164307459D01*
X197624419Y-164328151D01*
X197613220Y-164355187D01*
X197611779Y-164369819D01*
X197500668Y-164369819D01*
X197500668Y-164136089D01*
X219966689Y-164136089D01*
X219966689Y-165887822D01*
G37*
X213609398Y-126238866D02*
X214371303Y-126238866D01*
X213990350Y-126619819D02*
X213990350Y-125857914D01*
X214704636Y-125619819D02*
X215037969Y-126619819D01*
X215037969Y-126619819D02*
X215371302Y-125619819D01*
X215704636Y-126619819D02*
X215704636Y-125619819D01*
X216180826Y-126619819D02*
X216180826Y-125619819D01*
X216180826Y-125619819D02*
X216752254Y-126619819D01*
X216752254Y-126619819D02*
X216752254Y-125619819D01*
X216990350Y-126715057D02*
X217752254Y-126715057D01*
X217990350Y-126619819D02*
X217990350Y-125619819D01*
X217990350Y-125619819D02*
X218371302Y-125619819D01*
X218371302Y-125619819D02*
X218466540Y-125667438D01*
X218466540Y-125667438D02*
X218514159Y-125715057D01*
X218514159Y-125715057D02*
X218561778Y-125810295D01*
X218561778Y-125810295D02*
X218561778Y-125953152D01*
X218561778Y-125953152D02*
X218514159Y-126048390D01*
X218514159Y-126048390D02*
X218466540Y-126096009D01*
X218466540Y-126096009D02*
X218371302Y-126143628D01*
X218371302Y-126143628D02*
X217990350Y-126143628D01*
X218990350Y-126619819D02*
X218990350Y-125953152D01*
X218990350Y-126143628D02*
X219037969Y-126048390D01*
X219037969Y-126048390D02*
X219085588Y-126000771D01*
X219085588Y-126000771D02*
X219180826Y-125953152D01*
X219180826Y-125953152D02*
X219276064Y-125953152D01*
X219752255Y-126619819D02*
X219657017Y-126572200D01*
X219657017Y-126572200D02*
X219609398Y-126524580D01*
X219609398Y-126524580D02*
X219561779Y-126429342D01*
X219561779Y-126429342D02*
X219561779Y-126143628D01*
X219561779Y-126143628D02*
X219609398Y-126048390D01*
X219609398Y-126048390D02*
X219657017Y-126000771D01*
X219657017Y-126000771D02*
X219752255Y-125953152D01*
X219752255Y-125953152D02*
X219895112Y-125953152D01*
X219895112Y-125953152D02*
X219990350Y-126000771D01*
X219990350Y-126000771D02*
X220037969Y-126048390D01*
X220037969Y-126048390D02*
X220085588Y-126143628D01*
X220085588Y-126143628D02*
X220085588Y-126429342D01*
X220085588Y-126429342D02*
X220037969Y-126524580D01*
X220037969Y-126524580D02*
X219990350Y-126572200D01*
X219990350Y-126572200D02*
X219895112Y-126619819D01*
X219895112Y-126619819D02*
X219752255Y-126619819D01*
X216210588Y-158167438D02*
X216115350Y-158119819D01*
X216115350Y-158119819D02*
X215972493Y-158119819D01*
X215972493Y-158119819D02*
X215829636Y-158167438D01*
X215829636Y-158167438D02*
X215734398Y-158262676D01*
X215734398Y-158262676D02*
X215686779Y-158357914D01*
X215686779Y-158357914D02*
X215639160Y-158548390D01*
X215639160Y-158548390D02*
X215639160Y-158691247D01*
X215639160Y-158691247D02*
X215686779Y-158881723D01*
X215686779Y-158881723D02*
X215734398Y-158976961D01*
X215734398Y-158976961D02*
X215829636Y-159072200D01*
X215829636Y-159072200D02*
X215972493Y-159119819D01*
X215972493Y-159119819D02*
X216067731Y-159119819D01*
X216067731Y-159119819D02*
X216210588Y-159072200D01*
X216210588Y-159072200D02*
X216258207Y-159024580D01*
X216258207Y-159024580D02*
X216258207Y-158691247D01*
X216258207Y-158691247D02*
X216067731Y-158691247D01*
X216686779Y-159119819D02*
X216686779Y-158119819D01*
X216686779Y-158119819D02*
X217258207Y-159119819D01*
X217258207Y-159119819D02*
X217258207Y-158119819D01*
X217734398Y-159119819D02*
X217734398Y-158119819D01*
X217734398Y-158119819D02*
X217972493Y-158119819D01*
X217972493Y-158119819D02*
X218115350Y-158167438D01*
X218115350Y-158167438D02*
X218210588Y-158262676D01*
X218210588Y-158262676D02*
X218258207Y-158357914D01*
X218258207Y-158357914D02*
X218305826Y-158548390D01*
X218305826Y-158548390D02*
X218305826Y-158691247D01*
X218305826Y-158691247D02*
X218258207Y-158881723D01*
X218258207Y-158881723D02*
X218210588Y-158976961D01*
X218210588Y-158976961D02*
X218115350Y-159072200D01*
X218115350Y-159072200D02*
X217972493Y-159119819D01*
X217972493Y-159119819D02*
X217734398Y-159119819D01*
X201389580Y-139642857D02*
X201437200Y-139690476D01*
X201437200Y-139690476D02*
X201484819Y-139833333D01*
X201484819Y-139833333D02*
X201484819Y-139928571D01*
X201484819Y-139928571D02*
X201437200Y-140071428D01*
X201437200Y-140071428D02*
X201341961Y-140166666D01*
X201341961Y-140166666D02*
X201246723Y-140214285D01*
X201246723Y-140214285D02*
X201056247Y-140261904D01*
X201056247Y-140261904D02*
X200913390Y-140261904D01*
X200913390Y-140261904D02*
X200722914Y-140214285D01*
X200722914Y-140214285D02*
X200627676Y-140166666D01*
X200627676Y-140166666D02*
X200532438Y-140071428D01*
X200532438Y-140071428D02*
X200484819Y-139928571D01*
X200484819Y-139928571D02*
X200484819Y-139833333D01*
X200484819Y-139833333D02*
X200532438Y-139690476D01*
X200532438Y-139690476D02*
X200580057Y-139642857D01*
X200484819Y-138785714D02*
X200484819Y-138976190D01*
X200484819Y-138976190D02*
X200532438Y-139071428D01*
X200532438Y-139071428D02*
X200580057Y-139119047D01*
X200580057Y-139119047D02*
X200722914Y-139214285D01*
X200722914Y-139214285D02*
X200913390Y-139261904D01*
X200913390Y-139261904D02*
X201294342Y-139261904D01*
X201294342Y-139261904D02*
X201389580Y-139214285D01*
X201389580Y-139214285D02*
X201437200Y-139166666D01*
X201437200Y-139166666D02*
X201484819Y-139071428D01*
X201484819Y-139071428D02*
X201484819Y-138880952D01*
X201484819Y-138880952D02*
X201437200Y-138785714D01*
X201437200Y-138785714D02*
X201389580Y-138738095D01*
X201389580Y-138738095D02*
X201294342Y-138690476D01*
X201294342Y-138690476D02*
X201056247Y-138690476D01*
X201056247Y-138690476D02*
X200961009Y-138738095D01*
X200961009Y-138738095D02*
X200913390Y-138785714D01*
X200913390Y-138785714D02*
X200865771Y-138880952D01*
X200865771Y-138880952D02*
X200865771Y-139071428D01*
X200865771Y-139071428D02*
X200913390Y-139166666D01*
X200913390Y-139166666D02*
X200961009Y-139214285D01*
X200961009Y-139214285D02*
X201056247Y-139261904D01*
X200484819Y-137833333D02*
X200484819Y-138023809D01*
X200484819Y-138023809D02*
X200532438Y-138119047D01*
X200532438Y-138119047D02*
X200580057Y-138166666D01*
X200580057Y-138166666D02*
X200722914Y-138261904D01*
X200722914Y-138261904D02*
X200913390Y-138309523D01*
X200913390Y-138309523D02*
X201294342Y-138309523D01*
X201294342Y-138309523D02*
X201389580Y-138261904D01*
X201389580Y-138261904D02*
X201437200Y-138214285D01*
X201437200Y-138214285D02*
X201484819Y-138119047D01*
X201484819Y-138119047D02*
X201484819Y-137928571D01*
X201484819Y-137928571D02*
X201437200Y-137833333D01*
X201437200Y-137833333D02*
X201389580Y-137785714D01*
X201389580Y-137785714D02*
X201294342Y-137738095D01*
X201294342Y-137738095D02*
X201056247Y-137738095D01*
X201056247Y-137738095D02*
X200961009Y-137785714D01*
X200961009Y-137785714D02*
X200913390Y-137833333D01*
X200913390Y-137833333D02*
X200865771Y-137928571D01*
X200865771Y-137928571D02*
X200865771Y-138119047D01*
X200865771Y-138119047D02*
X200913390Y-138214285D01*
X200913390Y-138214285D02*
X200961009Y-138261904D01*
X200961009Y-138261904D02*
X201056247Y-138309523D01*
X194010057Y-158345238D02*
X193962438Y-158440476D01*
X193962438Y-158440476D02*
X193867200Y-158535714D01*
X193867200Y-158535714D02*
X193724342Y-158678571D01*
X193724342Y-158678571D02*
X193676723Y-158773809D01*
X193676723Y-158773809D02*
X193676723Y-158869047D01*
X193914819Y-158821428D02*
X193867200Y-158916666D01*
X193867200Y-158916666D02*
X193771961Y-159011904D01*
X193771961Y-159011904D02*
X193581485Y-159059523D01*
X193581485Y-159059523D02*
X193248152Y-159059523D01*
X193248152Y-159059523D02*
X193057676Y-159011904D01*
X193057676Y-159011904D02*
X192962438Y-158916666D01*
X192962438Y-158916666D02*
X192914819Y-158821428D01*
X192914819Y-158821428D02*
X192914819Y-158630952D01*
X192914819Y-158630952D02*
X192962438Y-158535714D01*
X192962438Y-158535714D02*
X193057676Y-158440476D01*
X193057676Y-158440476D02*
X193248152Y-158392857D01*
X193248152Y-158392857D02*
X193581485Y-158392857D01*
X193581485Y-158392857D02*
X193771961Y-158440476D01*
X193771961Y-158440476D02*
X193867200Y-158535714D01*
X193867200Y-158535714D02*
X193914819Y-158630952D01*
X193914819Y-158630952D02*
X193914819Y-158821428D01*
X193343390Y-157821428D02*
X193295771Y-157916666D01*
X193295771Y-157916666D02*
X193248152Y-157964285D01*
X193248152Y-157964285D02*
X193152914Y-158011904D01*
X193152914Y-158011904D02*
X193105295Y-158011904D01*
X193105295Y-158011904D02*
X193010057Y-157964285D01*
X193010057Y-157964285D02*
X192962438Y-157916666D01*
X192962438Y-157916666D02*
X192914819Y-157821428D01*
X192914819Y-157821428D02*
X192914819Y-157630952D01*
X192914819Y-157630952D02*
X192962438Y-157535714D01*
X192962438Y-157535714D02*
X193010057Y-157488095D01*
X193010057Y-157488095D02*
X193105295Y-157440476D01*
X193105295Y-157440476D02*
X193152914Y-157440476D01*
X193152914Y-157440476D02*
X193248152Y-157488095D01*
X193248152Y-157488095D02*
X193295771Y-157535714D01*
X193295771Y-157535714D02*
X193343390Y-157630952D01*
X193343390Y-157630952D02*
X193343390Y-157821428D01*
X193343390Y-157821428D02*
X193391009Y-157916666D01*
X193391009Y-157916666D02*
X193438628Y-157964285D01*
X193438628Y-157964285D02*
X193533866Y-158011904D01*
X193533866Y-158011904D02*
X193724342Y-158011904D01*
X193724342Y-158011904D02*
X193819580Y-157964285D01*
X193819580Y-157964285D02*
X193867200Y-157916666D01*
X193867200Y-157916666D02*
X193914819Y-157821428D01*
X193914819Y-157821428D02*
X193914819Y-157630952D01*
X193914819Y-157630952D02*
X193867200Y-157535714D01*
X193867200Y-157535714D02*
X193819580Y-157488095D01*
X193819580Y-157488095D02*
X193724342Y-157440476D01*
X193724342Y-157440476D02*
X193533866Y-157440476D01*
X193533866Y-157440476D02*
X193438628Y-157488095D01*
X193438628Y-157488095D02*
X193391009Y-157535714D01*
X193391009Y-157535714D02*
X193343390Y-157630952D01*
X188757142Y-138124819D02*
X188423809Y-137648628D01*
X188185714Y-138124819D02*
X188185714Y-137124819D01*
X188185714Y-137124819D02*
X188566666Y-137124819D01*
X188566666Y-137124819D02*
X188661904Y-137172438D01*
X188661904Y-137172438D02*
X188709523Y-137220057D01*
X188709523Y-137220057D02*
X188757142Y-137315295D01*
X188757142Y-137315295D02*
X188757142Y-137458152D01*
X188757142Y-137458152D02*
X188709523Y-137553390D01*
X188709523Y-137553390D02*
X188661904Y-137601009D01*
X188661904Y-137601009D02*
X188566666Y-137648628D01*
X188566666Y-137648628D02*
X188185714Y-137648628D01*
X189614285Y-137458152D02*
X189614285Y-138124819D01*
X189376190Y-137077200D02*
X189138095Y-137791485D01*
X189138095Y-137791485D02*
X189757142Y-137791485D01*
X190042857Y-137124819D02*
X190709523Y-137124819D01*
X190709523Y-137124819D02*
X190280952Y-138124819D01*
X198207142Y-145784819D02*
X197873809Y-145308628D01*
X197635714Y-145784819D02*
X197635714Y-144784819D01*
X197635714Y-144784819D02*
X198016666Y-144784819D01*
X198016666Y-144784819D02*
X198111904Y-144832438D01*
X198111904Y-144832438D02*
X198159523Y-144880057D01*
X198159523Y-144880057D02*
X198207142Y-144975295D01*
X198207142Y-144975295D02*
X198207142Y-145118152D01*
X198207142Y-145118152D02*
X198159523Y-145213390D01*
X198159523Y-145213390D02*
X198111904Y-145261009D01*
X198111904Y-145261009D02*
X198016666Y-145308628D01*
X198016666Y-145308628D02*
X197635714Y-145308628D01*
X199064285Y-145118152D02*
X199064285Y-145784819D01*
X198826190Y-144737200D02*
X198588095Y-145451485D01*
X198588095Y-145451485D02*
X199207142Y-145451485D01*
X200064285Y-144784819D02*
X199588095Y-144784819D01*
X199588095Y-144784819D02*
X199540476Y-145261009D01*
X199540476Y-145261009D02*
X199588095Y-145213390D01*
X199588095Y-145213390D02*
X199683333Y-145165771D01*
X199683333Y-145165771D02*
X199921428Y-145165771D01*
X199921428Y-145165771D02*
X200016666Y-145213390D01*
X200016666Y-145213390D02*
X200064285Y-145261009D01*
X200064285Y-145261009D02*
X200111904Y-145356247D01*
X200111904Y-145356247D02*
X200111904Y-145594342D01*
X200111904Y-145594342D02*
X200064285Y-145689580D01*
X200064285Y-145689580D02*
X200016666Y-145737200D01*
X200016666Y-145737200D02*
X199921428Y-145784819D01*
X199921428Y-145784819D02*
X199683333Y-145784819D01*
X199683333Y-145784819D02*
X199588095Y-145737200D01*
X199588095Y-145737200D02*
X199540476Y-145689580D01*
X180954819Y-138088094D02*
X179954819Y-138088094D01*
X179954819Y-138088094D02*
X179954819Y-137849999D01*
X179954819Y-137849999D02*
X180002438Y-137707142D01*
X180002438Y-137707142D02*
X180097676Y-137611904D01*
X180097676Y-137611904D02*
X180192914Y-137564285D01*
X180192914Y-137564285D02*
X180383390Y-137516666D01*
X180383390Y-137516666D02*
X180526247Y-137516666D01*
X180526247Y-137516666D02*
X180716723Y-137564285D01*
X180716723Y-137564285D02*
X180811961Y-137611904D01*
X180811961Y-137611904D02*
X180907200Y-137707142D01*
X180907200Y-137707142D02*
X180954819Y-137849999D01*
X180954819Y-137849999D02*
X180954819Y-138088094D01*
X179954819Y-136659523D02*
X179954819Y-136849999D01*
X179954819Y-136849999D02*
X180002438Y-136945237D01*
X180002438Y-136945237D02*
X180050057Y-136992856D01*
X180050057Y-136992856D02*
X180192914Y-137088094D01*
X180192914Y-137088094D02*
X180383390Y-137135713D01*
X180383390Y-137135713D02*
X180764342Y-137135713D01*
X180764342Y-137135713D02*
X180859580Y-137088094D01*
X180859580Y-137088094D02*
X180907200Y-137040475D01*
X180907200Y-137040475D02*
X180954819Y-136945237D01*
X180954819Y-136945237D02*
X180954819Y-136754761D01*
X180954819Y-136754761D02*
X180907200Y-136659523D01*
X180907200Y-136659523D02*
X180859580Y-136611904D01*
X180859580Y-136611904D02*
X180764342Y-136564285D01*
X180764342Y-136564285D02*
X180526247Y-136564285D01*
X180526247Y-136564285D02*
X180431009Y-136611904D01*
X180431009Y-136611904D02*
X180383390Y-136659523D01*
X180383390Y-136659523D02*
X180335771Y-136754761D01*
X180335771Y-136754761D02*
X180335771Y-136945237D01*
X180335771Y-136945237D02*
X180383390Y-137040475D01*
X180383390Y-137040475D02*
X180431009Y-137088094D01*
X180431009Y-137088094D02*
X180526247Y-137135713D01*
X180954819Y-140611904D02*
X179954819Y-140611904D01*
X180954819Y-140040476D02*
X180383390Y-140469047D01*
X179954819Y-140040476D02*
X180526247Y-140611904D01*
X193904819Y-139238094D02*
X192904819Y-139238094D01*
X192904819Y-139238094D02*
X192904819Y-138999999D01*
X192904819Y-138999999D02*
X192952438Y-138857142D01*
X192952438Y-138857142D02*
X193047676Y-138761904D01*
X193047676Y-138761904D02*
X193142914Y-138714285D01*
X193142914Y-138714285D02*
X193333390Y-138666666D01*
X193333390Y-138666666D02*
X193476247Y-138666666D01*
X193476247Y-138666666D02*
X193666723Y-138714285D01*
X193666723Y-138714285D02*
X193761961Y-138761904D01*
X193761961Y-138761904D02*
X193857200Y-138857142D01*
X193857200Y-138857142D02*
X193904819Y-138999999D01*
X193904819Y-138999999D02*
X193904819Y-139238094D01*
X192904819Y-138333332D02*
X192904819Y-137666666D01*
X192904819Y-137666666D02*
X193904819Y-138095237D01*
X203304819Y-141392857D02*
X202828628Y-141726190D01*
X203304819Y-141964285D02*
X202304819Y-141964285D01*
X202304819Y-141964285D02*
X202304819Y-141583333D01*
X202304819Y-141583333D02*
X202352438Y-141488095D01*
X202352438Y-141488095D02*
X202400057Y-141440476D01*
X202400057Y-141440476D02*
X202495295Y-141392857D01*
X202495295Y-141392857D02*
X202638152Y-141392857D01*
X202638152Y-141392857D02*
X202733390Y-141440476D01*
X202733390Y-141440476D02*
X202781009Y-141488095D01*
X202781009Y-141488095D02*
X202828628Y-141583333D01*
X202828628Y-141583333D02*
X202828628Y-141964285D01*
X202638152Y-140535714D02*
X203304819Y-140535714D01*
X202257200Y-140773809D02*
X202971485Y-141011904D01*
X202971485Y-141011904D02*
X202971485Y-140392857D01*
X202638152Y-139583333D02*
X203304819Y-139583333D01*
X202257200Y-139821428D02*
X202971485Y-140059523D01*
X202971485Y-140059523D02*
X202971485Y-139440476D01*
X192807142Y-145904819D02*
X192473809Y-145428628D01*
X192235714Y-145904819D02*
X192235714Y-144904819D01*
X192235714Y-144904819D02*
X192616666Y-144904819D01*
X192616666Y-144904819D02*
X192711904Y-144952438D01*
X192711904Y-144952438D02*
X192759523Y-145000057D01*
X192759523Y-145000057D02*
X192807142Y-145095295D01*
X192807142Y-145095295D02*
X192807142Y-145238152D01*
X192807142Y-145238152D02*
X192759523Y-145333390D01*
X192759523Y-145333390D02*
X192711904Y-145381009D01*
X192711904Y-145381009D02*
X192616666Y-145428628D01*
X192616666Y-145428628D02*
X192235714Y-145428628D01*
X193664285Y-145238152D02*
X193664285Y-145904819D01*
X193426190Y-144857200D02*
X193188095Y-145571485D01*
X193188095Y-145571485D02*
X193807142Y-145571485D01*
X194616666Y-144904819D02*
X194426190Y-144904819D01*
X194426190Y-144904819D02*
X194330952Y-144952438D01*
X194330952Y-144952438D02*
X194283333Y-145000057D01*
X194283333Y-145000057D02*
X194188095Y-145142914D01*
X194188095Y-145142914D02*
X194140476Y-145333390D01*
X194140476Y-145333390D02*
X194140476Y-145714342D01*
X194140476Y-145714342D02*
X194188095Y-145809580D01*
X194188095Y-145809580D02*
X194235714Y-145857200D01*
X194235714Y-145857200D02*
X194330952Y-145904819D01*
X194330952Y-145904819D02*
X194521428Y-145904819D01*
X194521428Y-145904819D02*
X194616666Y-145857200D01*
X194616666Y-145857200D02*
X194664285Y-145809580D01*
X194664285Y-145809580D02*
X194711904Y-145714342D01*
X194711904Y-145714342D02*
X194711904Y-145476247D01*
X194711904Y-145476247D02*
X194664285Y-145381009D01*
X194664285Y-145381009D02*
X194616666Y-145333390D01*
X194616666Y-145333390D02*
X194521428Y-145285771D01*
X194521428Y-145285771D02*
X194330952Y-145285771D01*
X194330952Y-145285771D02*
X194235714Y-145333390D01*
X194235714Y-145333390D02*
X194188095Y-145381009D01*
X194188095Y-145381009D02*
X194140476Y-145476247D01*
X166302920Y-133539999D02*
X166541015Y-133539999D01*
X166445777Y-133778094D02*
X166541015Y-133539999D01*
X166541015Y-133539999D02*
X166445777Y-133301904D01*
X166731491Y-133682856D02*
X166541015Y-133539999D01*
X166541015Y-133539999D02*
X166731491Y-133397142D01*
X166302920Y-160539999D02*
X166541015Y-160539999D01*
X166445777Y-160778094D02*
X166541015Y-160539999D01*
X166541015Y-160539999D02*
X166445777Y-160301904D01*
X166731491Y-160682856D02*
X166541015Y-160539999D01*
X166541015Y-160539999D02*
X166731491Y-160397142D01*
D11*
X166016666Y-148683609D02*
X165683333Y-148683609D01*
X165683333Y-149207419D02*
X165683333Y-148207419D01*
X165683333Y-148207419D02*
X166159523Y-148207419D01*
X167064285Y-149207419D02*
X166492857Y-149207419D01*
X166778571Y-149207419D02*
X166778571Y-148207419D01*
X166778571Y-148207419D02*
X166683333Y-148350276D01*
X166683333Y-148350276D02*
X166588095Y-148445514D01*
X166588095Y-148445514D02*
X166492857Y-148493133D01*
D12*
X196821905Y-132054318D02*
X196821905Y-132961461D01*
X196821905Y-132961461D02*
X196761428Y-133142889D01*
X196761428Y-133142889D02*
X196640476Y-133263842D01*
X196640476Y-133263842D02*
X196459047Y-133324318D01*
X196459047Y-133324318D02*
X196338095Y-133324318D01*
X197366190Y-132175270D02*
X197426666Y-132114794D01*
X197426666Y-132114794D02*
X197547619Y-132054318D01*
X197547619Y-132054318D02*
X197850000Y-132054318D01*
X197850000Y-132054318D02*
X197970952Y-132114794D01*
X197970952Y-132114794D02*
X198031428Y-132175270D01*
X198031428Y-132175270D02*
X198091905Y-132296222D01*
X198091905Y-132296222D02*
X198091905Y-132417175D01*
X198091905Y-132417175D02*
X198031428Y-132598603D01*
X198031428Y-132598603D02*
X197305714Y-133324318D01*
X197305714Y-133324318D02*
X198091905Y-133324318D01*
X199180476Y-132477651D02*
X199180476Y-133324318D01*
X198878095Y-131993842D02*
X198575714Y-132900984D01*
X198575714Y-132900984D02*
X199361905Y-132900984D01*
D10*
X206367976Y-135954819D02*
X206367976Y-136669104D01*
X206367976Y-136669104D02*
X206320357Y-136811961D01*
X206320357Y-136811961D02*
X206225119Y-136907200D01*
X206225119Y-136907200D02*
X206082262Y-136954819D01*
X206082262Y-136954819D02*
X205987024Y-136954819D01*
X206796548Y-136050057D02*
X206844167Y-136002438D01*
X206844167Y-136002438D02*
X206939405Y-135954819D01*
X206939405Y-135954819D02*
X207177500Y-135954819D01*
X207177500Y-135954819D02*
X207272738Y-136002438D01*
X207272738Y-136002438D02*
X207320357Y-136050057D01*
X207320357Y-136050057D02*
X207367976Y-136145295D01*
X207367976Y-136145295D02*
X207367976Y-136240533D01*
X207367976Y-136240533D02*
X207320357Y-136383390D01*
X207320357Y-136383390D02*
X206748929Y-136954819D01*
X206748929Y-136954819D02*
X207367976Y-136954819D01*
X207701310Y-135954819D02*
X208320357Y-135954819D01*
X208320357Y-135954819D02*
X207987024Y-136335771D01*
X207987024Y-136335771D02*
X208129881Y-136335771D01*
X208129881Y-136335771D02*
X208225119Y-136383390D01*
X208225119Y-136383390D02*
X208272738Y-136431009D01*
X208272738Y-136431009D02*
X208320357Y-136526247D01*
X208320357Y-136526247D02*
X208320357Y-136764342D01*
X208320357Y-136764342D02*
X208272738Y-136859580D01*
X208272738Y-136859580D02*
X208225119Y-136907200D01*
X208225119Y-136907200D02*
X208129881Y-136954819D01*
X208129881Y-136954819D02*
X207844167Y-136954819D01*
X207844167Y-136954819D02*
X207748929Y-136907200D01*
X207748929Y-136907200D02*
X207701310Y-136859580D01*
%TO.C,C66*%
D13*
X200085000Y-138738748D02*
X200085000Y-139261252D01*
X198615000Y-138738748D02*
X198615000Y-139261252D01*
%TO.C,Q8*%
X192010000Y-151825000D02*
X190200000Y-151825000D01*
X181610000Y-151825000D02*
X183420000Y-151825000D01*
X192010000Y-153190000D02*
X192010000Y-151825000D01*
X181610000Y-153190000D02*
X181610000Y-151825000D01*
X190630000Y-149340000D02*
X190160000Y-149000000D01*
X190630000Y-148660000D01*
X190630000Y-149340000D01*
G36*
X190630000Y-149340000D02*
G01*
X190160000Y-149000000D01*
X190630000Y-148660000D01*
X190630000Y-149340000D01*
G37*
%TO.C,R47*%
X188672936Y-138590000D02*
X190127064Y-138590000D01*
X188672936Y-140410000D02*
X190127064Y-140410000D01*
%TO.C,R45*%
X199577064Y-144410000D02*
X198122936Y-144410000D01*
X199577064Y-142590000D02*
X198122936Y-142590000D01*
%TO.C,D6*%
X183350000Y-141910000D02*
X183350000Y-140920000D01*
X181430000Y-139780000D02*
X185270000Y-139780000D01*
X181430000Y-139660000D02*
X185270000Y-139660000D01*
X181430000Y-139540000D02*
X185270000Y-139540000D01*
X183350000Y-132090000D02*
X183350000Y-133080000D01*
X181430000Y-133080000D02*
X185270000Y-133080000D01*
X185270000Y-140920000D01*
X181430000Y-140920000D01*
X181430000Y-133080000D01*
%TO.C,D7*%
X194290000Y-139410000D02*
X194290000Y-137590000D01*
X194340000Y-139410000D02*
X194290000Y-139410000D01*
X196240000Y-139410000D02*
X195460000Y-139410000D01*
X197410000Y-139410000D02*
X197360000Y-139410000D01*
X194290000Y-137590000D02*
X195290000Y-137590000D01*
X196410000Y-137590000D02*
X197410000Y-137590000D01*
X197410000Y-137590000D02*
X197410000Y-139410000D01*
X195800000Y-140190000D02*
X195470000Y-139950000D01*
X195800000Y-139710000D01*
X195800000Y-140190000D01*
G36*
X195800000Y-140190000D02*
G01*
X195470000Y-139950000D01*
X195800000Y-139710000D01*
X195800000Y-140190000D01*
G37*
%TO.C,R44*%
X201940000Y-145477064D02*
X201940000Y-144022936D01*
X203760000Y-145477064D02*
X203760000Y-144022936D01*
%TO.C,R46*%
X192622936Y-142590000D02*
X194077064Y-142590000D01*
X192622936Y-144410000D02*
X194077064Y-144410000D01*
%TO.C,J1*%
D14*
X153404785Y-137051401D02*
X159632232Y-137051401D01*
X159632232Y-124808601D02*
X153404785Y-124808601D01*
X160457337Y-137051401D02*
X169792171Y-137051401D01*
X169792171Y-124808601D02*
X160457337Y-124808601D01*
X170617276Y-137051401D02*
X172030984Y-137051401D01*
X172030984Y-124808601D02*
X170617276Y-124808601D01*
X172030984Y-137051401D02*
X172030984Y-124808601D01*
%TO.C,J2*%
X153404785Y-164051401D02*
X159632232Y-164051401D01*
X159632232Y-151808601D02*
X153404785Y-151808601D01*
X160457337Y-164051401D02*
X169792171Y-164051401D01*
X169792171Y-151808601D02*
X160457337Y-151808601D01*
X170617276Y-164051401D02*
X172030984Y-164051401D01*
X172030984Y-151808601D02*
X170617276Y-151808601D01*
X172030984Y-164051401D02*
X172030984Y-151808601D01*
%TO.C,J24*%
D15*
X189830350Y-125715000D02*
X205480350Y-125715000D01*
X205480350Y-131285000D02*
X189830350Y-131285000D01*
X206155350Y-128815000D02*
X207155350Y-128315000D01*
X207155350Y-128315000D02*
X207155350Y-129315000D01*
X207155350Y-129315000D02*
X206155350Y-128815000D01*
%TO.C,J23*%
D14*
X206210699Y-137555301D02*
X220927500Y-137555301D01*
X206210699Y-139389239D02*
X206210699Y-137555301D01*
X206210699Y-142389238D02*
X206210699Y-141110762D01*
X206210699Y-144889238D02*
X206210699Y-144110761D01*
X206210699Y-147889237D02*
X206210699Y-146610761D01*
X206210699Y-151804701D02*
X206210699Y-149610760D01*
X220927500Y-137555301D02*
X220927500Y-151804701D01*
X220927500Y-151804701D02*
X206210699Y-151804701D01*
%TD*%
M02*
