M48
; DRILL file KiCad 10.0.0 date 2026-03-26T21:16:12
; FORMAT={-:-/ absolute / metric / decimal}
; #@! TF.CreationDate,2026-03-26T21:16:12-04:00
; #@! TF.GenerationSoftware,Kicad,Pcbnew,10.0.0
; #@! TF.FileFunction,Plated,1,2,PTH
FMAT,2
METRIC
; #@! TA.AperFunction,Plated,PTH,ViaDrill
T1C0.300
; #@! TA.AperFunction,Plated,PTH,ComponentDrill
T2C1.020
; #@! TA.AperFunction,Plated,PTH,ComponentDrill
T3C1.067
; #@! TA.AperFunction,Plated,PTH,ComponentDrill
T4C1.200
; #@! TA.AperFunction,Plated,PTH,ComponentDrill
T5C1.300
; #@! TA.AperFunction,Plated,PTH,ComponentDrill
T6C1.600
; #@! TA.AperFunction,Plated,PTH,ComponentDrill
T7C2.300
; #@! TA.AperFunction,Plated,PTH,ComponentDrill
T8C2.410
%
G90
G05
T1
X185.85Y-147.25
X186.85Y-141.25
X186.85Y-142.25
X186.85Y-143.25
X186.85Y-144.25
X186.85Y-145.25
X186.85Y-146.25
X187.35Y-137.85
X191.65Y-138.0
X199.35Y-136.7
T2
X193.155Y-128.815
X196.155Y-128.815
X199.155Y-128.815
X202.155Y-128.815
T3
X206.927Y-140.25
X206.927Y-143.25
X206.927Y-145.75
X206.927Y-148.75
X209.427Y-140.25
X209.427Y-143.25
X209.427Y-145.75
X209.427Y-148.75
X211.927Y-140.25
X211.927Y-143.25
X211.927Y-145.75
X211.927Y-148.75
X214.427Y-140.25
X214.427Y-143.25
X214.427Y-145.75
X214.427Y-148.75
X216.927Y-140.25
X216.927Y-143.25
X216.927Y-145.75
X216.927Y-148.75
T4
X183.35Y-130.65
X183.35Y-143.35
T5
X160.045Y-125.85
X160.045Y-136.01
X160.045Y-152.85
X160.045Y-163.01
X170.205Y-125.85
X170.205Y-136.01
X170.205Y-152.85
X170.205Y-163.01
T6
X176.35Y-126.75
X176.35Y-162.25
X199.713Y-161.0
X216.85Y-128.5
X216.999Y-161.0
T7
X166.405Y-130.93
X166.405Y-157.93
T8
X191.005Y-128.815
X204.305Y-128.815
M30
