%TF.GenerationSoftware,KiCad,Pcbnew,10.0.0*%
%TF.CreationDate,2026-03-27T08:39:46-04:00*%
%TF.ProjectId,Pre-charge_Circuit,5072652d-6368-4617-9267-655f43697263,rev?*%
%TF.SameCoordinates,Original*%
%TF.FileFunction,Copper,L2,Bot*%
%TF.FilePolarity,Positive*%
%FSLAX46Y46*%
G04 Gerber Fmt 4.6, Leading zero omitted, Abs format (unit mm)*
G04 Created by KiCad (PCBNEW 10.0.0) date 2026-03-27 08:39:46*
%MOMM*%
%LPD*%
G01*
G04 APERTURE LIST*
%TA.AperFunction,ComponentPad*%
%ADD10R,1.828800X1.828800*%
%TD*%
%TA.AperFunction,ComponentPad*%
%ADD11C,1.828800*%
%TD*%
%TA.AperFunction,ComponentPad*%
%ADD12R,1.900000X1.900000*%
%TD*%
%TA.AperFunction,ComponentPad*%
%ADD13C,1.574800*%
%TD*%
%TA.AperFunction,ComponentPad*%
%ADD14C,2.560000*%
%TD*%
%TA.AperFunction,ComponentPad*%
%ADD15R,1.170000X1.170000*%
%TD*%
%TA.AperFunction,ComponentPad*%
%ADD16C,1.170000*%
%TD*%
%TA.AperFunction,ViaPad*%
%ADD17C,0.600000*%
%TD*%
%TA.AperFunction,Conductor*%
%ADD18C,0.200000*%
%TD*%
%TA.AperFunction,Conductor*%
%ADD19C,2.000000*%
%TD*%
G04 APERTURE END LIST*
D10*
%TO.P,R2,1*%
%TO.N,/EMI_Input_Filter/BUS+_Filtered*%
X128632800Y-115149998D03*
D11*
%TO.P,R2,2*%
%TO.N,/DC_Link_Caps/BUS_DC+*%
X162567200Y-115149998D03*
%TD*%
D12*
%TO.P,TP8,1,1_1*%
%TO.N,/DC_Link_Caps/BUS_DC+*%
X168600000Y-110649998D03*
%TD*%
D13*
%TO.P,J8,P1_1,P1_1_P1_1*%
%TO.N,GND*%
X122510101Y-95149998D03*
%TO.P,J8,P1_2,P1_2_P1_2*%
X125010101Y-95149998D03*
%TO.P,J8,P1_3,P1_3_P1_3*%
X127510101Y-95149998D03*
%TO.P,J8,P1_4,P1_4_P1_4*%
X130010101Y-95149998D03*
%TO.P,J8,P1_5,P1_5_P1_5*%
X132510101Y-95149998D03*
%TO.P,J8,P1_6,P1_6_P1_6*%
X122510101Y-98150000D03*
%TO.P,J8,P1_7,P1_7_P1_7*%
X125010101Y-98150000D03*
%TO.P,J8,P1_8,P1_8_P1_8*%
X127510101Y-98150000D03*
%TO.P,J8,P1_9,P1_9_P1_9*%
X130010101Y-98150000D03*
%TO.P,J8,P1_10,P1_10_P1_10*%
X132510101Y-98150000D03*
%TO.P,J8,P2_1,P2_1_P2_1*%
%TO.N,/EMI_Input_Filter/BUS+_Filtered*%
X122510101Y-100650000D03*
%TO.P,J8,P2_2,P2_2_P2_2*%
X125010101Y-100650000D03*
%TO.P,J8,P2_3,P2_3_P2_3*%
X127510101Y-100650000D03*
%TO.P,J8,P2_4,P2_4_P2_4*%
X130010101Y-100650000D03*
%TO.P,J8,P2_5,P2_5_P2_5*%
X132510101Y-100650000D03*
%TO.P,J8,P2_6,P2_6_P2_6*%
X122510101Y-103649999D03*
%TO.P,J8,P2_7,P2_7_P2_7*%
X125010101Y-103649999D03*
%TO.P,J8,P2_8,P2_8_P2_8*%
X127510101Y-103649999D03*
%TO.P,J8,P2_9,P2_9_P2_9*%
X130010101Y-103649999D03*
%TO.P,J8,P2_10,P2_10_P2_10*%
X132510101Y-103649999D03*
%TD*%
D12*
%TO.P,TP7,1,1_1*%
%TO.N,/Con_Gate_node_prech*%
X138100000Y-82724998D03*
%TD*%
%TO.P,TP9,1,1_1*%
%TO.N,GND*%
X168600000Y-89149998D03*
%TD*%
D14*
%TO.P,J7,*%
%TO.N,*%
X147255350Y-84149998D03*
X160555350Y-84149998D03*
D15*
%TO.P,J7,1,1_1*%
%TO.N,/Con_Gate_node_prech*%
X158405350Y-84149998D03*
D16*
%TO.P,J7,2,2_2*%
%TO.N,GND*%
X155405350Y-84149998D03*
%TO.P,J7,3,3_3*%
%TO.N,unconnected-(J7-Pad3)*%
X152405350Y-84149998D03*
%TO.P,J7,4,4_4*%
%TO.N,unconnected-(J7-Pad4)*%
X149405350Y-84149998D03*
%TD*%
D13*
%TO.P,J9,P1_1,P1_1_P1_1*%
%TO.N,/DC_Link_Caps/BUS_DC+*%
X169750000Y-103649999D03*
%TO.P,J9,P1_2,P1_2_P1_2*%
X167250000Y-103649999D03*
%TO.P,J9,P1_3,P1_3_P1_3*%
X164750000Y-103649999D03*
%TO.P,J9,P1_4,P1_4_P1_4*%
X162250000Y-103649999D03*
%TO.P,J9,P1_5,P1_5_P1_5*%
X159750000Y-103649999D03*
%TO.P,J9,P1_6,P1_6_P1_6*%
X169750000Y-100649997D03*
%TO.P,J9,P1_7,P1_7_P1_7*%
X167250000Y-100649997D03*
%TO.P,J9,P1_8,P1_8_P1_8*%
X164750000Y-100649997D03*
%TO.P,J9,P1_9,P1_9_P1_9*%
X162250000Y-100649997D03*
%TO.P,J9,P1_10,P1_10_P1_10*%
X159750000Y-100649997D03*
%TO.P,J9,P2_1,P2_1_P2_1*%
%TO.N,GND*%
X169750000Y-98149997D03*
%TO.P,J9,P2_2,P2_2_P2_2*%
X167250000Y-98149997D03*
%TO.P,J9,P2_3,P2_3_P2_3*%
X164750000Y-98149997D03*
%TO.P,J9,P2_4,P2_4_P2_4*%
X162250000Y-98149997D03*
%TO.P,J9,P2_5,P2_5_P2_5*%
X159750000Y-98149997D03*
%TO.P,J9,P2_6,P2_6_P2_6*%
X169750000Y-95149998D03*
%TO.P,J9,P2_7,P2_7_P2_7*%
X167250000Y-95149998D03*
%TO.P,J9,P2_8,P2_8_P2_8*%
X164750000Y-95149998D03*
%TO.P,J9,P2_9,P2_9_P2_9*%
X162250000Y-95149998D03*
%TO.P,J9,P2_10,P2_10_P2_10*%
X159750000Y-95149998D03*
%TD*%
D17*
%TO.N,GND*%
X141100000Y-86649998D03*
%TO.N,Net-(D1-K)*%
X157100000Y-94149998D03*
X151600000Y-103149998D03*
%TD*%
%TO.N,Net-(D1-K)*%
D18*
X151650000Y-103099998D02*
X151600000Y-103149998D01*
X151650000Y-95600000D02*
X151650000Y-103099998D01*
X157100000Y-94149998D02*
X153100002Y-94149998D01*
X153100002Y-94149998D02*
X151650000Y-95600000D01*
%TO.N,GND*%
D19*
X155405350Y-84149998D02*
X155405350Y-89556210D01*
%TD*%
%TA.AperFunction,Conductor*%
%TO.N,GND*%
G36*
X173542539Y-77420183D02*
G01*
X173588294Y-77472987D01*
X173599500Y-77524498D01*
X173599500Y-92388115D01*
X173595274Y-92420208D01*
X173569499Y-92516407D01*
X173569499Y-106643591D01*
X173575376Y-106665525D01*
X173595275Y-106739788D01*
X173599500Y-106771881D01*
X173599500Y-121525498D01*
X173579815Y-121592537D01*
X173527011Y-121638292D01*
X173475500Y-121649498D01*
X118724500Y-121649498D01*
X118657461Y-121629813D01*
X118611706Y-121577009D01*
X118600500Y-121525498D01*
X118600500Y-117043711D01*
X122249500Y-117043711D01*
X122249500Y-117256285D01*
X122282754Y-117466241D01*
X122319763Y-117580143D01*
X122348444Y-117668412D01*
X122444951Y-117857818D01*
X122569890Y-118029784D01*
X122720213Y-118180107D01*
X122892179Y-118305046D01*
X122892181Y-118305047D01*
X122892184Y-118305049D01*
X123081588Y-118401555D01*
X123283757Y-118467244D01*
X123493713Y-118500498D01*
X123493714Y-118500498D01*
X123706286Y-118500498D01*
X123706287Y-118500498D01*
X123916243Y-118467244D01*
X124118412Y-118401555D01*
X124307816Y-118305049D01*
X124329789Y-118289084D01*
X124479786Y-118180107D01*
X124479788Y-118180104D01*
X124479792Y-118180102D01*
X124630104Y-118029790D01*
X124630106Y-118029786D01*
X124630109Y-118029784D01*
X124755048Y-117857818D01*
X124755047Y-117857818D01*
X124755051Y-117857814D01*
X124851557Y-117668410D01*
X124917246Y-117466241D01*
X124950500Y-117256285D01*
X124950500Y-117043711D01*
X124917246Y-116833755D01*
X124851557Y-116631586D01*
X124755051Y-116442182D01*
X124755049Y-116442179D01*
X124755048Y-116442177D01*
X124630109Y-116270211D01*
X124479786Y-116119888D01*
X124307820Y-115994949D01*
X124118414Y-115898442D01*
X124118413Y-115898441D01*
X124118412Y-115898441D01*
X123916243Y-115832752D01*
X123916241Y-115832751D01*
X123916240Y-115832751D01*
X123754957Y-115807206D01*
X123706287Y-115799498D01*
X123493713Y-115799498D01*
X123445042Y-115807206D01*
X123283760Y-115832751D01*
X123081585Y-115898442D01*
X122892179Y-115994949D01*
X122720213Y-116119888D01*
X122569890Y-116270211D01*
X122444951Y-116442177D01*
X122348444Y-116631583D01*
X122282753Y-116833758D01*
X122249500Y-117043711D01*
X118600500Y-117043711D01*
X118600500Y-114164147D01*
X125717900Y-114164147D01*
X125717900Y-116135848D01*
X125733204Y-116349831D01*
X125794028Y-116629435D01*
X125794030Y-116629441D01*
X125794031Y-116629444D01*
X125872350Y-116839425D01*
X125894035Y-116897564D01*
X126031170Y-117148707D01*
X126031175Y-117148715D01*
X126202654Y-117377785D01*
X126202670Y-117377803D01*
X126404994Y-117580127D01*
X126405012Y-117580143D01*
X126634082Y-117751622D01*
X126634090Y-117751627D01*
X126885233Y-117888762D01*
X126885232Y-117888762D01*
X126885236Y-117888763D01*
X126885239Y-117888765D01*
X127153354Y-117988767D01*
X127153360Y-117988768D01*
X127153362Y-117988769D01*
X127432966Y-118049593D01*
X127432968Y-118049593D01*
X127432972Y-118049594D01*
X127646952Y-118064898D01*
X129618648Y-118064898D01*
X129832628Y-118049594D01*
X129923694Y-118029784D01*
X130112237Y-117988769D01*
X130112237Y-117988768D01*
X130112246Y-117988767D01*
X130380361Y-117888765D01*
X130631515Y-117751624D01*
X130860595Y-117580137D01*
X131062939Y-117377793D01*
X131234426Y-117148713D01*
X131371567Y-116897559D01*
X131471569Y-116629444D01*
X131471571Y-116629435D01*
X131532395Y-116349831D01*
X131532395Y-116349830D01*
X131532396Y-116349826D01*
X131547700Y-116135846D01*
X131547700Y-114986294D01*
X159652300Y-114986294D01*
X159652300Y-115313701D01*
X159688953Y-115639016D01*
X159688956Y-115639030D01*
X159761808Y-115958216D01*
X159761809Y-115958218D01*
X159869940Y-116267241D01*
X160011989Y-116562209D01*
X160011991Y-116562212D01*
X160186176Y-116839425D01*
X160390303Y-117095392D01*
X160621806Y-117326895D01*
X160877773Y-117531022D01*
X161154986Y-117705207D01*
X161154988Y-117705208D01*
X161261051Y-117756285D01*
X161449958Y-117847258D01*
X161758981Y-117955389D01*
X162078167Y-118028242D01*
X162078176Y-118028243D01*
X162078181Y-118028244D01*
X162267665Y-118049593D01*
X162403497Y-118064897D01*
X162403500Y-118064898D01*
X162403503Y-118064898D01*
X162730900Y-118064898D01*
X162730901Y-118064897D01*
X162897163Y-118046164D01*
X163056218Y-118028244D01*
X163056221Y-118028243D01*
X163056233Y-118028242D01*
X163375419Y-117955389D01*
X163684442Y-117847258D01*
X163979414Y-117705207D01*
X164236433Y-117543711D01*
X167249500Y-117543711D01*
X167249500Y-117756285D01*
X167282754Y-117966241D01*
X167314809Y-118064897D01*
X167348444Y-118168412D01*
X167444951Y-118357818D01*
X167569890Y-118529784D01*
X167720213Y-118680107D01*
X167892179Y-118805046D01*
X167892181Y-118805047D01*
X167892184Y-118805049D01*
X168081588Y-118901555D01*
X168283757Y-118967244D01*
X168493713Y-119000498D01*
X168493714Y-119000498D01*
X168706286Y-119000498D01*
X168706287Y-119000498D01*
X168916243Y-118967244D01*
X169118412Y-118901555D01*
X169307816Y-118805049D01*
X169329789Y-118789084D01*
X169479786Y-118680107D01*
X169479788Y-118680104D01*
X169479792Y-118680102D01*
X169630104Y-118529790D01*
X169630106Y-118529786D01*
X169630109Y-118529784D01*
X169755048Y-118357818D01*
X169755047Y-118357818D01*
X169755051Y-118357814D01*
X169851557Y-118168410D01*
X169917246Y-117966241D01*
X169950500Y-117756285D01*
X169950500Y-117543711D01*
X169917246Y-117333755D01*
X169851557Y-117131586D01*
X169755051Y-116942182D01*
X169755049Y-116942179D01*
X169755048Y-116942177D01*
X169630109Y-116770211D01*
X169479786Y-116619888D01*
X169307820Y-116494949D01*
X169118414Y-116398442D01*
X169118413Y-116398441D01*
X169118412Y-116398441D01*
X168916243Y-116332752D01*
X168916241Y-116332751D01*
X168916240Y-116332751D01*
X168754957Y-116307206D01*
X168706287Y-116299498D01*
X168493713Y-116299498D01*
X168445042Y-116307206D01*
X168283760Y-116332751D01*
X168081585Y-116398442D01*
X167892179Y-116494949D01*
X167720213Y-116619888D01*
X167569890Y-116770211D01*
X167444951Y-116942177D01*
X167348444Y-117131583D01*
X167282753Y-117333758D01*
X167261771Y-117466237D01*
X167249500Y-117543711D01*
X164236433Y-117543711D01*
X164256627Y-117531022D01*
X164512594Y-117326895D01*
X164744097Y-117095392D01*
X164948224Y-116839425D01*
X165122409Y-116562212D01*
X165264460Y-116267240D01*
X165372591Y-115958217D01*
X165445444Y-115639031D01*
X165482100Y-115313695D01*
X165482100Y-114986301D01*
X165445444Y-114660965D01*
X165372591Y-114341779D01*
X165264460Y-114032756D01*
X165122409Y-113737784D01*
X164948224Y-113460571D01*
X164744097Y-113204604D01*
X164512594Y-112973101D01*
X164256627Y-112768974D01*
X163979414Y-112594789D01*
X163979411Y-112594787D01*
X163684443Y-112452738D01*
X163375420Y-112344607D01*
X163375418Y-112344606D01*
X163129085Y-112288382D01*
X163056233Y-112271754D01*
X163056230Y-112271753D01*
X163056218Y-112271751D01*
X162730903Y-112235098D01*
X162730897Y-112235098D01*
X162403503Y-112235098D01*
X162403496Y-112235098D01*
X162078181Y-112271751D01*
X162078167Y-112271754D01*
X161758981Y-112344606D01*
X161758979Y-112344607D01*
X161449956Y-112452738D01*
X161154988Y-112594787D01*
X160877774Y-112768973D01*
X160621806Y-112973100D01*
X160390302Y-113204604D01*
X160186175Y-113460572D01*
X160011989Y-113737786D01*
X159869940Y-114032754D01*
X159761809Y-114341777D01*
X159761808Y-114341779D01*
X159688956Y-114660965D01*
X159688953Y-114660979D01*
X159652300Y-114986294D01*
X131547700Y-114986294D01*
X131547700Y-114164150D01*
X131532396Y-113950170D01*
X131486194Y-113737784D01*
X131471571Y-113670560D01*
X131471570Y-113670558D01*
X131471569Y-113670552D01*
X131371567Y-113402437D01*
X131308657Y-113287227D01*
X131234429Y-113151288D01*
X131234424Y-113151280D01*
X131062945Y-112922210D01*
X131062929Y-112922192D01*
X130860605Y-112719868D01*
X130860587Y-112719852D01*
X130631517Y-112548373D01*
X130631509Y-112548368D01*
X130380366Y-112411233D01*
X130380367Y-112411233D01*
X130273115Y-112371230D01*
X130112246Y-112311229D01*
X130112243Y-112311228D01*
X130112237Y-112311226D01*
X129832633Y-112250402D01*
X129618650Y-112235098D01*
X129618648Y-112235098D01*
X127646952Y-112235098D01*
X127646949Y-112235098D01*
X127432966Y-112250402D01*
X127153362Y-112311226D01*
X126885233Y-112411233D01*
X126634090Y-112548368D01*
X126634082Y-112548373D01*
X126405012Y-112719852D01*
X126404994Y-112719868D01*
X126202670Y-112922192D01*
X126202654Y-112922210D01*
X126031175Y-113151280D01*
X126031170Y-113151288D01*
X125894035Y-113402431D01*
X125794028Y-113670560D01*
X125733204Y-113950164D01*
X125717900Y-114164147D01*
X118600500Y-114164147D01*
X118600500Y-109628547D01*
X165649500Y-109628547D01*
X165649500Y-111671448D01*
X165664804Y-111885431D01*
X165725628Y-112165035D01*
X165725630Y-112165041D01*
X165725631Y-112165044D01*
X165792605Y-112344607D01*
X165825635Y-112433164D01*
X165962770Y-112684307D01*
X165962775Y-112684315D01*
X166134254Y-112913385D01*
X166134270Y-112913403D01*
X166336594Y-113115727D01*
X166336612Y-113115743D01*
X166565682Y-113287222D01*
X166565690Y-113287227D01*
X166816833Y-113424362D01*
X166816832Y-113424362D01*
X166816836Y-113424363D01*
X166816839Y-113424365D01*
X167084954Y-113524367D01*
X167084960Y-113524368D01*
X167084962Y-113524369D01*
X167364566Y-113585193D01*
X167364568Y-113585193D01*
X167364572Y-113585194D01*
X167578552Y-113600498D01*
X169621448Y-113600498D01*
X169835428Y-113585194D01*
X170115046Y-113524367D01*
X170383161Y-113424365D01*
X170634315Y-113287224D01*
X170863395Y-113115737D01*
X171065739Y-112913393D01*
X171237226Y-112684313D01*
X171374367Y-112433159D01*
X171474369Y-112165044D01*
X171535196Y-111885426D01*
X171550500Y-111671446D01*
X171550500Y-109628550D01*
X171535196Y-109414570D01*
X171474369Y-109134952D01*
X171374367Y-108866837D01*
X171237226Y-108615683D01*
X171237224Y-108615680D01*
X171065745Y-108386610D01*
X171065729Y-108386592D01*
X170863405Y-108184268D01*
X170863387Y-108184252D01*
X170634317Y-108012773D01*
X170634309Y-108012768D01*
X170383166Y-107875633D01*
X170383167Y-107875633D01*
X170275915Y-107835630D01*
X170115046Y-107775629D01*
X170115043Y-107775628D01*
X170115037Y-107775626D01*
X169835433Y-107714802D01*
X169621450Y-107699498D01*
X169621448Y-107699498D01*
X167578552Y-107699498D01*
X167578549Y-107699498D01*
X167364566Y-107714802D01*
X167084962Y-107775626D01*
X166816833Y-107875633D01*
X166565690Y-108012768D01*
X166565682Y-108012773D01*
X166336612Y-108184252D01*
X166336594Y-108184268D01*
X166134270Y-108386592D01*
X166134254Y-108386610D01*
X165962775Y-108615680D01*
X165962770Y-108615688D01*
X165825635Y-108866831D01*
X165725628Y-109134960D01*
X165664804Y-109414564D01*
X165649500Y-109628547D01*
X118600500Y-109628547D01*
X118600500Y-106697617D01*
X118604725Y-106665525D01*
X118606107Y-106660364D01*
X118610602Y-106643591D01*
X118610602Y-100493428D01*
X119722201Y-100493428D01*
X119722201Y-100806571D01*
X119757257Y-101117711D01*
X119757260Y-101117729D01*
X119826937Y-101423005D01*
X119826941Y-101423017D01*
X119930356Y-101718557D01*
X119930365Y-101718579D01*
X120066217Y-102000679D01*
X120118588Y-102084027D01*
X120137588Y-102151264D01*
X120118588Y-102215970D01*
X120066222Y-102299311D01*
X120066217Y-102299319D01*
X119930365Y-102581419D01*
X119930356Y-102581441D01*
X119826941Y-102876981D01*
X119826937Y-102876993D01*
X119757260Y-103182269D01*
X119757257Y-103182287D01*
X119722201Y-103493427D01*
X119722201Y-103806570D01*
X119757257Y-104117710D01*
X119757260Y-104117728D01*
X119826937Y-104423004D01*
X119826941Y-104423016D01*
X119930356Y-104718556D01*
X119930365Y-104718578D01*
X120066217Y-105000678D01*
X120066221Y-105000684D01*
X120232816Y-105265819D01*
X120428050Y-105510634D01*
X120649466Y-105732050D01*
X120894281Y-105927284D01*
X121159416Y-106093879D01*
X121159421Y-106093882D01*
X121441521Y-106229734D01*
X121441530Y-106229737D01*
X121441537Y-106229741D01*
X121441543Y-106229743D01*
X121737083Y-106333158D01*
X121737095Y-106333162D01*
X122042375Y-106402840D01*
X122042381Y-106402840D01*
X122042389Y-106402842D01*
X122249815Y-106426212D01*
X122353530Y-106437898D01*
X122353533Y-106437899D01*
X122353536Y-106437899D01*
X122666669Y-106437899D01*
X122666670Y-106437898D01*
X122825688Y-106419981D01*
X122977812Y-106402842D01*
X122977817Y-106402841D01*
X122977827Y-106402840D01*
X123283107Y-106333162D01*
X123578665Y-106229741D01*
X123706301Y-106168274D01*
X123775240Y-106156923D01*
X123813899Y-106168273D01*
X123941537Y-106229741D01*
X123941543Y-106229743D01*
X124237083Y-106333158D01*
X124237095Y-106333162D01*
X124542375Y-106402840D01*
X124542381Y-106402840D01*
X124542389Y-106402842D01*
X124749815Y-106426212D01*
X124853530Y-106437898D01*
X124853533Y-106437899D01*
X124853536Y-106437899D01*
X125166669Y-106437899D01*
X125166670Y-106437898D01*
X125325688Y-106419981D01*
X125477812Y-106402842D01*
X125477817Y-106402841D01*
X125477827Y-106402840D01*
X125783107Y-106333162D01*
X126078665Y-106229741D01*
X126206301Y-106168274D01*
X126275240Y-106156923D01*
X126313899Y-106168273D01*
X126441537Y-106229741D01*
X126441543Y-106229743D01*
X126737083Y-106333158D01*
X126737095Y-106333162D01*
X127042375Y-106402840D01*
X127042381Y-106402840D01*
X127042389Y-106402842D01*
X127249815Y-106426212D01*
X127353530Y-106437898D01*
X127353533Y-106437899D01*
X127353536Y-106437899D01*
X127666669Y-106437899D01*
X127666670Y-106437898D01*
X127825688Y-106419981D01*
X127977812Y-106402842D01*
X127977817Y-106402841D01*
X127977827Y-106402840D01*
X128283107Y-106333162D01*
X128578665Y-106229741D01*
X128706301Y-106168274D01*
X128775240Y-106156923D01*
X128813899Y-106168273D01*
X128941537Y-106229741D01*
X128941543Y-106229743D01*
X129237083Y-106333158D01*
X129237095Y-106333162D01*
X129542375Y-106402840D01*
X129542381Y-106402840D01*
X129542389Y-106402842D01*
X129749815Y-106426212D01*
X129853530Y-106437898D01*
X129853533Y-106437899D01*
X129853536Y-106437899D01*
X130166669Y-106437899D01*
X130166670Y-106437898D01*
X130325688Y-106419981D01*
X130477812Y-106402842D01*
X130477817Y-106402841D01*
X130477827Y-106402840D01*
X130783107Y-106333162D01*
X131078665Y-106229741D01*
X131206301Y-106168274D01*
X131275240Y-106156923D01*
X131313899Y-106168273D01*
X131441537Y-106229741D01*
X131441543Y-106229743D01*
X131737083Y-106333158D01*
X131737095Y-106333162D01*
X132042375Y-106402840D01*
X132042381Y-106402840D01*
X132042389Y-106402842D01*
X132249815Y-106426212D01*
X132353530Y-106437898D01*
X132353533Y-106437899D01*
X132353536Y-106437899D01*
X132666669Y-106437899D01*
X132666670Y-106437898D01*
X132825688Y-106419981D01*
X132977812Y-106402842D01*
X132977817Y-106402841D01*
X132977827Y-106402840D01*
X133283107Y-106333162D01*
X133578665Y-106229741D01*
X133729874Y-106156923D01*
X133860780Y-106093882D01*
X133860780Y-106093881D01*
X133860786Y-106093879D01*
X134125921Y-105927284D01*
X134370736Y-105732050D01*
X134592152Y-105510634D01*
X134787386Y-105265819D01*
X134953981Y-105000684D01*
X134953984Y-105000678D01*
X135089836Y-104718578D01*
X135089837Y-104718574D01*
X135089843Y-104718563D01*
X135193264Y-104423005D01*
X135262942Y-104117725D01*
X135298001Y-103806564D01*
X135298001Y-103493434D01*
X135276296Y-103300791D01*
X135262944Y-103182287D01*
X135262941Y-103182269D01*
X135226532Y-103022748D01*
X135221162Y-102999221D01*
X149299500Y-102999221D01*
X149299500Y-103300774D01*
X149299501Y-103300791D01*
X149338861Y-103599764D01*
X149416913Y-103891058D01*
X149532314Y-104169659D01*
X149532318Y-104169669D01*
X149683099Y-104430829D01*
X149866679Y-104670076D01*
X149866685Y-104670083D01*
X150079914Y-104883312D01*
X150079921Y-104883318D01*
X150319168Y-105066898D01*
X150580328Y-105217679D01*
X150580329Y-105217679D01*
X150580332Y-105217681D01*
X150766072Y-105294617D01*
X150858939Y-105333084D01*
X150858940Y-105333084D01*
X150858942Y-105333085D01*
X151150232Y-105411136D01*
X151449217Y-105450498D01*
X151449224Y-105450498D01*
X151750776Y-105450498D01*
X151750783Y-105450498D01*
X152049768Y-105411136D01*
X152341058Y-105333085D01*
X152619668Y-105217681D01*
X152880832Y-105066898D01*
X153120080Y-104883317D01*
X153333319Y-104670078D01*
X153516900Y-104430830D01*
X153667683Y-104169666D01*
X153783087Y-103891056D01*
X153861138Y-103599766D01*
X153900500Y-103300781D01*
X153900500Y-102999215D01*
X153861138Y-102700230D01*
X153783087Y-102408940D01*
X153759939Y-102353055D01*
X153750500Y-102305602D01*
X153750500Y-100493425D01*
X156962100Y-100493425D01*
X156962100Y-100806568D01*
X156997156Y-101117708D01*
X156997159Y-101117726D01*
X157066836Y-101423002D01*
X157066840Y-101423014D01*
X157170255Y-101718554D01*
X157170264Y-101718576D01*
X157306116Y-102000676D01*
X157306121Y-102000684D01*
X157358488Y-102084027D01*
X157377488Y-102151263D01*
X157358488Y-102215969D01*
X157306121Y-102299311D01*
X157306116Y-102299319D01*
X157170264Y-102581419D01*
X157170255Y-102581441D01*
X157066840Y-102876981D01*
X157066836Y-102876993D01*
X156997159Y-103182269D01*
X156997156Y-103182287D01*
X156962100Y-103493427D01*
X156962100Y-103806570D01*
X156997156Y-104117710D01*
X156997159Y-104117728D01*
X157066836Y-104423004D01*
X157066840Y-104423016D01*
X157170255Y-104718556D01*
X157170264Y-104718578D01*
X157306116Y-105000678D01*
X157306120Y-105000684D01*
X157472715Y-105265819D01*
X157667949Y-105510634D01*
X157889365Y-105732050D01*
X158134180Y-105927284D01*
X158399315Y-106093879D01*
X158399320Y-106093882D01*
X158681420Y-106229734D01*
X158681429Y-106229737D01*
X158681436Y-106229741D01*
X158681442Y-106229743D01*
X158976982Y-106333158D01*
X158976994Y-106333162D01*
X159282274Y-106402840D01*
X159282280Y-106402840D01*
X159282288Y-106402842D01*
X159489714Y-106426212D01*
X159593429Y-106437898D01*
X159593432Y-106437899D01*
X159593435Y-106437899D01*
X159906568Y-106437899D01*
X159906569Y-106437898D01*
X160065587Y-106419981D01*
X160217711Y-106402842D01*
X160217716Y-106402841D01*
X160217726Y-106402840D01*
X160523006Y-106333162D01*
X160818564Y-106229741D01*
X160946200Y-106168274D01*
X161015139Y-106156923D01*
X161053798Y-106168273D01*
X161181436Y-106229741D01*
X161181442Y-106229743D01*
X161476982Y-106333158D01*
X161476994Y-106333162D01*
X161782274Y-106402840D01*
X161782280Y-106402840D01*
X161782288Y-106402842D01*
X161989714Y-106426212D01*
X162093429Y-106437898D01*
X162093432Y-106437899D01*
X162093435Y-106437899D01*
X162406568Y-106437899D01*
X162406569Y-106437898D01*
X162565587Y-106419981D01*
X162717711Y-106402842D01*
X162717716Y-106402841D01*
X162717726Y-106402840D01*
X163023006Y-106333162D01*
X163318564Y-106229741D01*
X163446200Y-106168274D01*
X163515139Y-106156923D01*
X163553798Y-106168273D01*
X163681436Y-106229741D01*
X163681442Y-106229743D01*
X163976982Y-106333158D01*
X163976994Y-106333162D01*
X164282274Y-106402840D01*
X164282280Y-106402840D01*
X164282288Y-106402842D01*
X164489714Y-106426212D01*
X164593429Y-106437898D01*
X164593432Y-106437899D01*
X164593435Y-106437899D01*
X164906568Y-106437899D01*
X164906569Y-106437898D01*
X165065587Y-106419981D01*
X165217711Y-106402842D01*
X165217716Y-106402841D01*
X165217726Y-106402840D01*
X165523006Y-106333162D01*
X165818564Y-106229741D01*
X165946200Y-106168274D01*
X166015139Y-106156923D01*
X166053798Y-106168273D01*
X166181436Y-106229741D01*
X166181442Y-106229743D01*
X166476982Y-106333158D01*
X166476994Y-106333162D01*
X166782274Y-106402840D01*
X166782280Y-106402840D01*
X166782288Y-106402842D01*
X166989714Y-106426212D01*
X167093429Y-106437898D01*
X167093432Y-106437899D01*
X167093435Y-106437899D01*
X167406568Y-106437899D01*
X167406569Y-106437898D01*
X167565587Y-106419981D01*
X167717711Y-106402842D01*
X167717716Y-106402841D01*
X167717726Y-106402840D01*
X168023006Y-106333162D01*
X168318564Y-106229741D01*
X168446200Y-106168274D01*
X168515139Y-106156923D01*
X168553798Y-106168273D01*
X168681436Y-106229741D01*
X168681442Y-106229743D01*
X168976982Y-106333158D01*
X168976994Y-106333162D01*
X169282274Y-106402840D01*
X169282280Y-106402840D01*
X169282288Y-106402842D01*
X169489714Y-106426212D01*
X169593429Y-106437898D01*
X169593432Y-106437899D01*
X169593435Y-106437899D01*
X169906568Y-106437899D01*
X169906569Y-106437898D01*
X170065587Y-106419981D01*
X170217711Y-106402842D01*
X170217716Y-106402841D01*
X170217726Y-106402840D01*
X170523006Y-106333162D01*
X170818564Y-106229741D01*
X170969773Y-106156923D01*
X171100679Y-106093882D01*
X171100679Y-106093881D01*
X171100685Y-106093879D01*
X171365820Y-105927284D01*
X171610635Y-105732050D01*
X171832051Y-105510634D01*
X172027285Y-105265819D01*
X172193880Y-105000684D01*
X172193883Y-105000678D01*
X172329735Y-104718578D01*
X172329736Y-104718574D01*
X172329742Y-104718563D01*
X172433163Y-104423005D01*
X172502841Y-104117725D01*
X172537900Y-103806564D01*
X172537900Y-103493434D01*
X172516195Y-103300791D01*
X172502843Y-103182287D01*
X172502840Y-103182269D01*
X172433163Y-102876993D01*
X172433159Y-102876981D01*
X172329744Y-102581441D01*
X172329735Y-102581419D01*
X172193883Y-102299319D01*
X172141511Y-102215970D01*
X172122511Y-102148734D01*
X172141511Y-102084026D01*
X172193880Y-102000682D01*
X172193883Y-102000676D01*
X172329735Y-101718576D01*
X172329736Y-101718572D01*
X172329742Y-101718561D01*
X172433163Y-101423003D01*
X172502841Y-101117723D01*
X172537900Y-100806562D01*
X172537900Y-100493432D01*
X172502841Y-100182271D01*
X172433163Y-99876991D01*
X172329742Y-99581433D01*
X172329736Y-99581420D01*
X172329735Y-99581417D01*
X172193883Y-99299317D01*
X172193880Y-99299312D01*
X172027285Y-99034177D01*
X171832051Y-98789362D01*
X171610635Y-98567946D01*
X171365820Y-98372712D01*
X171100685Y-98206117D01*
X171100684Y-98206116D01*
X171097739Y-98204266D01*
X171098296Y-98203378D01*
X171052251Y-98156838D01*
X171037400Y-98097994D01*
X171037400Y-98048676D01*
X171027483Y-97986065D01*
X170964964Y-98048584D01*
X170903641Y-98082068D01*
X170833949Y-98077084D01*
X170823489Y-98072626D01*
X170818573Y-98070259D01*
X170818557Y-98070252D01*
X170523017Y-97966837D01*
X170523005Y-97966833D01*
X170220275Y-97897737D01*
X170176826Y-97822482D01*
X170077515Y-97723171D01*
X169955885Y-97652947D01*
X169820223Y-97616597D01*
X169679777Y-97616597D01*
X169544115Y-97652947D01*
X169422485Y-97723171D01*
X169323174Y-97822482D01*
X169279725Y-97897736D01*
X168976994Y-97966833D01*
X168976982Y-97966837D01*
X168681443Y-98070252D01*
X168681420Y-98070262D01*
X168676511Y-98072626D01*
X168622715Y-98084903D01*
X168377282Y-98084902D01*
X168356035Y-98078663D01*
X168333948Y-98077083D01*
X168323489Y-98072626D01*
X168318573Y-98070259D01*
X168318557Y-98070252D01*
X168023017Y-97966837D01*
X168023005Y-97966833D01*
X167720275Y-97897737D01*
X167676826Y-97822482D01*
X167577515Y-97723171D01*
X167455885Y-97652947D01*
X167320223Y-97616597D01*
X167179777Y-97616597D01*
X167044115Y-97652947D01*
X166922485Y-97723171D01*
X166823174Y-97822482D01*
X166779725Y-97897736D01*
X166476994Y-97966833D01*
X166476982Y-97966837D01*
X166181443Y-98070252D01*
X166181420Y-98070262D01*
X166176511Y-98072626D01*
X166122715Y-98084903D01*
X165877282Y-98084902D01*
X165856035Y-98078663D01*
X165833948Y-98077083D01*
X165823489Y-98072626D01*
X165818573Y-98070259D01*
X165818557Y-98070252D01*
X165523017Y-97966837D01*
X165523005Y-97966833D01*
X165220275Y-97897737D01*
X165176826Y-97822482D01*
X165077515Y-97723171D01*
X164955885Y-97652947D01*
X164820223Y-97616597D01*
X164679777Y-97616597D01*
X164544115Y-97652947D01*
X164422485Y-97723171D01*
X164323174Y-97822482D01*
X164279725Y-97897736D01*
X163976994Y-97966833D01*
X163976982Y-97966837D01*
X163681443Y-98070252D01*
X163681420Y-98070262D01*
X163676511Y-98072626D01*
X163622715Y-98084903D01*
X163377282Y-98084902D01*
X163356035Y-98078663D01*
X163333948Y-98077083D01*
X163323489Y-98072626D01*
X163318573Y-98070259D01*
X163318557Y-98070252D01*
X163023017Y-97966837D01*
X163023005Y-97966833D01*
X162720275Y-97897737D01*
X162676826Y-97822482D01*
X162577515Y-97723171D01*
X162455885Y-97652947D01*
X162320223Y-97616597D01*
X162179777Y-97616597D01*
X162044115Y-97652947D01*
X161922485Y-97723171D01*
X161823174Y-97822482D01*
X161779725Y-97897736D01*
X161476994Y-97966833D01*
X161476982Y-97966837D01*
X161181443Y-98070252D01*
X161181420Y-98070262D01*
X161176511Y-98072626D01*
X161122715Y-98084903D01*
X160877282Y-98084902D01*
X160856035Y-98078663D01*
X160833948Y-98077083D01*
X160823489Y-98072626D01*
X160818573Y-98070259D01*
X160818557Y-98070252D01*
X160523017Y-97966837D01*
X160523005Y-97966833D01*
X160220275Y-97897737D01*
X160176826Y-97822482D01*
X160077515Y-97723171D01*
X159955885Y-97652947D01*
X159820223Y-97616597D01*
X159679777Y-97616597D01*
X159544115Y-97652947D01*
X159422485Y-97723171D01*
X159323174Y-97822482D01*
X159279725Y-97897736D01*
X158976994Y-97966833D01*
X158976982Y-97966837D01*
X158681443Y-98070252D01*
X158681420Y-98070262D01*
X158676511Y-98072626D01*
X158607569Y-98083974D01*
X158543436Y-98056248D01*
X158535034Y-98048584D01*
X158472515Y-97986065D01*
X158462600Y-98048670D01*
X158462600Y-98097994D01*
X158442915Y-98165033D01*
X158401794Y-98203523D01*
X158402261Y-98204266D01*
X158134181Y-98372711D01*
X157889365Y-98567945D01*
X157667948Y-98789362D01*
X157472714Y-99034178D01*
X157306116Y-99299317D01*
X157170264Y-99581417D01*
X157170255Y-99581439D01*
X157066840Y-99876979D01*
X157066836Y-99876991D01*
X156997159Y-100182267D01*
X156997156Y-100182285D01*
X156962100Y-100493425D01*
X153750500Y-100493425D01*
X153750500Y-96872513D01*
X159586067Y-96872513D01*
X159750000Y-97036445D01*
X159750001Y-97036445D01*
X159913931Y-96872514D01*
X159913930Y-96872513D01*
X162086067Y-96872513D01*
X162250000Y-97036445D01*
X162250001Y-97036445D01*
X162413931Y-96872514D01*
X162413930Y-96872513D01*
X164586067Y-96872513D01*
X164750000Y-97036445D01*
X164750001Y-97036445D01*
X164913931Y-96872514D01*
X164913930Y-96872513D01*
X167086067Y-96872513D01*
X167250000Y-97036445D01*
X167250001Y-97036445D01*
X167413931Y-96872514D01*
X167413930Y-96872513D01*
X169586067Y-96872513D01*
X169750000Y-97036445D01*
X169750001Y-97036445D01*
X169913931Y-96872514D01*
X169913930Y-96872512D01*
X169851327Y-96862597D01*
X169648673Y-96862597D01*
X169586068Y-96872512D01*
X169586067Y-96872513D01*
X167413930Y-96872513D01*
X167413930Y-96872512D01*
X167351327Y-96862597D01*
X167148673Y-96862597D01*
X167086068Y-96872512D01*
X167086067Y-96872513D01*
X164913930Y-96872513D01*
X164913930Y-96872512D01*
X164851327Y-96862597D01*
X164648673Y-96862597D01*
X164586068Y-96872512D01*
X164586067Y-96872513D01*
X162413930Y-96872513D01*
X162413930Y-96872512D01*
X162351327Y-96862597D01*
X162148673Y-96862597D01*
X162086068Y-96872512D01*
X162086067Y-96872513D01*
X159913930Y-96872513D01*
X159913930Y-96872512D01*
X159851327Y-96862597D01*
X159648673Y-96862597D01*
X159586068Y-96872512D01*
X159586067Y-96872513D01*
X153750500Y-96872513D01*
X153750500Y-96521418D01*
X153770185Y-96454379D01*
X153786819Y-96433737D01*
X153933739Y-96286817D01*
X153995062Y-96253332D01*
X154021420Y-96250498D01*
X156134894Y-96250498D01*
X156182346Y-96259936D01*
X156227093Y-96278471D01*
X156358939Y-96333084D01*
X156358940Y-96333084D01*
X156358942Y-96333085D01*
X156650232Y-96411136D01*
X156949217Y-96450498D01*
X156949224Y-96450498D01*
X157250776Y-96450498D01*
X157250783Y-96450498D01*
X157425615Y-96427481D01*
X159586067Y-96427481D01*
X159648680Y-96437398D01*
X159851321Y-96437398D01*
X159913930Y-96427481D01*
X162086067Y-96427481D01*
X162148680Y-96437398D01*
X162351321Y-96437398D01*
X162413930Y-96427481D01*
X164586067Y-96427481D01*
X164648680Y-96437398D01*
X164851321Y-96437398D01*
X164913930Y-96427481D01*
X167086068Y-96427481D01*
X167148680Y-96437398D01*
X167351321Y-96437398D01*
X167413930Y-96427481D01*
X169586068Y-96427481D01*
X169648680Y-96437398D01*
X169851321Y-96437398D01*
X169913930Y-96427481D01*
X169913931Y-96427480D01*
X169750001Y-96263550D01*
X169586068Y-96427481D01*
X167413930Y-96427481D01*
X167413931Y-96427480D01*
X167250001Y-96263550D01*
X167086068Y-96427481D01*
X164913930Y-96427481D01*
X164913931Y-96427480D01*
X164750001Y-96263550D01*
X164586067Y-96427481D01*
X162413930Y-96427481D01*
X162413931Y-96427480D01*
X162250001Y-96263550D01*
X162086067Y-96427481D01*
X159913930Y-96427481D01*
X159913931Y-96427480D01*
X159750001Y-96263550D01*
X159586067Y-96427481D01*
X157425615Y-96427481D01*
X157549768Y-96411136D01*
X157841058Y-96333085D01*
X158119668Y-96217681D01*
X158380832Y-96066898D01*
X158620080Y-95883317D01*
X158833319Y-95670078D01*
X159016900Y-95430830D01*
X159167683Y-95169666D01*
X159175830Y-95149997D01*
X159216761Y-95051183D01*
X159216761Y-95051181D01*
X159238001Y-94999901D01*
X159216600Y-95079775D01*
X159216600Y-95220221D01*
X159252950Y-95355883D01*
X159323174Y-95477513D01*
X159422485Y-95576824D01*
X159544115Y-95647048D01*
X159679777Y-95683398D01*
X159820223Y-95683398D01*
X159955885Y-95647048D01*
X160077515Y-95576824D01*
X160176826Y-95477513D01*
X160247050Y-95355883D01*
X160283400Y-95220221D01*
X160283400Y-95149998D01*
X160863552Y-95149998D01*
X161000000Y-95286446D01*
X161136448Y-95149998D01*
X161066225Y-95079775D01*
X161716600Y-95079775D01*
X161716600Y-95220221D01*
X161752950Y-95355883D01*
X161823174Y-95477513D01*
X161922485Y-95576824D01*
X162044115Y-95647048D01*
X162179777Y-95683398D01*
X162320223Y-95683398D01*
X162455885Y-95647048D01*
X162577515Y-95576824D01*
X162676826Y-95477513D01*
X162747050Y-95355883D01*
X162783400Y-95220221D01*
X162783400Y-95149998D01*
X163363552Y-95149998D01*
X163500000Y-95286446D01*
X163636448Y-95149998D01*
X163566225Y-95079775D01*
X164216600Y-95079775D01*
X164216600Y-95220221D01*
X164252950Y-95355883D01*
X164323174Y-95477513D01*
X164422485Y-95576824D01*
X164544115Y-95647048D01*
X164679777Y-95683398D01*
X164820223Y-95683398D01*
X164955885Y-95647048D01*
X165077515Y-95576824D01*
X165176826Y-95477513D01*
X165247050Y-95355883D01*
X165283400Y-95220221D01*
X165283400Y-95149998D01*
X165863552Y-95149998D01*
X166000000Y-95286446D01*
X166136448Y-95149998D01*
X166066225Y-95079775D01*
X166716600Y-95079775D01*
X166716600Y-95220221D01*
X166752950Y-95355883D01*
X166823174Y-95477513D01*
X166922485Y-95576824D01*
X167044115Y-95647048D01*
X167179777Y-95683398D01*
X167320223Y-95683398D01*
X167455885Y-95647048D01*
X167577515Y-95576824D01*
X167676826Y-95477513D01*
X167747050Y-95355883D01*
X167783400Y-95220221D01*
X167783400Y-95149998D01*
X168363552Y-95149998D01*
X168500000Y-95286446D01*
X168636448Y-95149998D01*
X168566225Y-95079775D01*
X169216600Y-95079775D01*
X169216600Y-95220221D01*
X169252950Y-95355883D01*
X169323174Y-95477513D01*
X169422485Y-95576824D01*
X169544115Y-95647048D01*
X169679777Y-95683398D01*
X169820223Y-95683398D01*
X169955885Y-95647048D01*
X170077515Y-95576824D01*
X170176826Y-95477513D01*
X170247050Y-95355883D01*
X170283400Y-95220221D01*
X170283400Y-95149998D01*
X170863552Y-95149998D01*
X171027482Y-95313929D01*
X171027483Y-95313928D01*
X171037400Y-95251318D01*
X171037400Y-95048677D01*
X171027483Y-94986066D01*
X170863552Y-95149998D01*
X170283400Y-95149998D01*
X170283400Y-95079775D01*
X170247050Y-94944113D01*
X170176826Y-94822483D01*
X170077515Y-94723172D01*
X169955885Y-94652948D01*
X169820223Y-94616598D01*
X169679777Y-94616598D01*
X169544115Y-94652948D01*
X169422485Y-94723172D01*
X169323174Y-94822483D01*
X169252950Y-94944113D01*
X169216600Y-95079775D01*
X168566225Y-95079775D01*
X168500000Y-95013550D01*
X168363552Y-95149998D01*
X167783400Y-95149998D01*
X167783400Y-95079775D01*
X167747050Y-94944113D01*
X167676826Y-94822483D01*
X167577515Y-94723172D01*
X167455885Y-94652948D01*
X167320223Y-94616598D01*
X167179777Y-94616598D01*
X167044115Y-94652948D01*
X166922485Y-94723172D01*
X166823174Y-94822483D01*
X166752950Y-94944113D01*
X166716600Y-95079775D01*
X166066225Y-95079775D01*
X166000000Y-95013550D01*
X165863552Y-95149998D01*
X165283400Y-95149998D01*
X165283400Y-95079775D01*
X165247050Y-94944113D01*
X165176826Y-94822483D01*
X165077515Y-94723172D01*
X164955885Y-94652948D01*
X164820223Y-94616598D01*
X164679777Y-94616598D01*
X164544115Y-94652948D01*
X164422485Y-94723172D01*
X164323174Y-94822483D01*
X164252950Y-94944113D01*
X164216600Y-95079775D01*
X163566225Y-95079775D01*
X163500000Y-95013550D01*
X163363552Y-95149998D01*
X162783400Y-95149998D01*
X162783400Y-95079775D01*
X162747050Y-94944113D01*
X162676826Y-94822483D01*
X162577515Y-94723172D01*
X162455885Y-94652948D01*
X162320223Y-94616598D01*
X162179777Y-94616598D01*
X162044115Y-94652948D01*
X161922485Y-94723172D01*
X161823174Y-94822483D01*
X161752950Y-94944113D01*
X161716600Y-95079775D01*
X161066225Y-95079775D01*
X161000000Y-95013550D01*
X160863552Y-95149998D01*
X160283400Y-95149998D01*
X160283400Y-95079775D01*
X160247050Y-94944113D01*
X160176826Y-94822483D01*
X160077515Y-94723172D01*
X159955885Y-94652948D01*
X159820223Y-94616598D01*
X159679777Y-94616598D01*
X159544115Y-94652948D01*
X159422485Y-94723172D01*
X159323174Y-94822483D01*
X159281828Y-94894094D01*
X159283081Y-94891071D01*
X159283081Y-94891068D01*
X159283087Y-94891056D01*
X159361138Y-94599766D01*
X159382094Y-94440585D01*
X159410359Y-94376693D01*
X159417351Y-94369093D01*
X159913931Y-93872514D01*
X162086067Y-93872514D01*
X162250000Y-94036446D01*
X162250001Y-94036446D01*
X162413931Y-93872515D01*
X162413930Y-93872514D01*
X164586067Y-93872514D01*
X164750000Y-94036446D01*
X164750001Y-94036446D01*
X164913931Y-93872515D01*
X164913930Y-93872514D01*
X167086067Y-93872514D01*
X167250000Y-94036446D01*
X167250001Y-94036446D01*
X167413931Y-93872515D01*
X167413930Y-93872514D01*
X169586067Y-93872514D01*
X169750000Y-94036446D01*
X169750001Y-94036446D01*
X169913931Y-93872515D01*
X169913930Y-93872513D01*
X169851327Y-93862598D01*
X169648673Y-93862598D01*
X169586068Y-93872513D01*
X169586067Y-93872514D01*
X167413930Y-93872514D01*
X167413930Y-93872513D01*
X167351327Y-93862598D01*
X167148673Y-93862598D01*
X167086068Y-93872513D01*
X167086067Y-93872514D01*
X164913930Y-93872514D01*
X164913930Y-93872513D01*
X164851327Y-93862598D01*
X164648673Y-93862598D01*
X164586068Y-93872513D01*
X164586067Y-93872514D01*
X162413930Y-93872514D01*
X162413930Y-93872513D01*
X162351327Y-93862598D01*
X162148673Y-93862598D01*
X162086068Y-93872513D01*
X162086067Y-93872514D01*
X159913931Y-93872514D01*
X159913930Y-93872513D01*
X159851327Y-93862598D01*
X159648685Y-93862598D01*
X159513671Y-93883981D01*
X159444378Y-93875025D01*
X159390926Y-93830028D01*
X159371336Y-93777694D01*
X159361138Y-93700230D01*
X159283087Y-93408940D01*
X159167683Y-93130330D01*
X159016900Y-92869166D01*
X158833319Y-92629918D01*
X158833314Y-92629912D01*
X158620085Y-92416683D01*
X158620078Y-92416677D01*
X158380831Y-92233097D01*
X158119671Y-92082316D01*
X158119661Y-92082312D01*
X157841060Y-91966911D01*
X157549766Y-91888859D01*
X157250793Y-91849499D01*
X157250788Y-91849498D01*
X157250783Y-91849498D01*
X156949217Y-91849498D01*
X156949211Y-91849498D01*
X156949206Y-91849499D01*
X156650233Y-91888859D01*
X156358939Y-91966911D01*
X156182347Y-92040059D01*
X156134894Y-92049498D01*
X152962328Y-92049498D01*
X152962322Y-92049498D01*
X152962317Y-92049499D01*
X152689346Y-92085436D01*
X152689339Y-92085437D01*
X152689336Y-92085438D01*
X152423370Y-92156703D01*
X152423360Y-92156706D01*
X152243489Y-92231211D01*
X152243489Y-92231212D01*
X152168980Y-92262075D01*
X152168977Y-92262076D01*
X152168969Y-92262080D01*
X151930529Y-92399744D01*
X151930513Y-92399755D01*
X151712075Y-92567368D01*
X151712068Y-92567374D01*
X150067376Y-94212066D01*
X150067370Y-94212073D01*
X149899750Y-94430520D01*
X149802037Y-94599766D01*
X149762078Y-94668975D01*
X149762074Y-94668985D01*
X149656704Y-94923369D01*
X149585441Y-95189331D01*
X149585438Y-95189344D01*
X149549501Y-95462315D01*
X149549500Y-95462332D01*
X149549500Y-102067342D01*
X149533658Y-102126472D01*
X149534110Y-102126695D01*
X149532989Y-102128966D01*
X149532891Y-102129335D01*
X149532320Y-102130322D01*
X149532314Y-102130336D01*
X149416913Y-102408937D01*
X149338861Y-102700231D01*
X149299501Y-102999204D01*
X149299500Y-102999221D01*
X135221162Y-102999221D01*
X135193263Y-102876989D01*
X135193260Y-102876981D01*
X135089845Y-102581441D01*
X135089836Y-102581419D01*
X134953984Y-102299319D01*
X134901613Y-102215971D01*
X134882613Y-102148734D01*
X134901614Y-102084026D01*
X134912097Y-102067342D01*
X134953981Y-102000685D01*
X135089843Y-101718564D01*
X135193264Y-101423006D01*
X135262942Y-101117726D01*
X135298001Y-100806565D01*
X135298001Y-100493435D01*
X135262943Y-100182285D01*
X135262941Y-100182270D01*
X135193264Y-99876994D01*
X135193260Y-99876982D01*
X135089845Y-99581442D01*
X135089841Y-99581433D01*
X135089839Y-99581429D01*
X135089836Y-99581420D01*
X134953984Y-99299320D01*
X134953979Y-99299312D01*
X134787386Y-99034180D01*
X134592152Y-98789365D01*
X134370736Y-98567949D01*
X134125921Y-98372715D01*
X133860786Y-98206120D01*
X133860785Y-98206119D01*
X133857840Y-98204269D01*
X133858397Y-98203381D01*
X133812352Y-98156841D01*
X133797501Y-98097997D01*
X133797501Y-98048679D01*
X133787584Y-97986068D01*
X133725065Y-98048587D01*
X133663742Y-98082071D01*
X133594050Y-98077087D01*
X133583590Y-98072629D01*
X133578674Y-98070262D01*
X133578658Y-98070255D01*
X133283118Y-97966840D01*
X133283106Y-97966836D01*
X132980376Y-97897740D01*
X132936927Y-97822485D01*
X132837616Y-97723174D01*
X132715986Y-97652950D01*
X132580324Y-97616600D01*
X132439878Y-97616600D01*
X132304216Y-97652950D01*
X132182586Y-97723174D01*
X132083275Y-97822485D01*
X132039826Y-97897739D01*
X131737095Y-97966836D01*
X131737083Y-97966840D01*
X131441544Y-98070255D01*
X131441521Y-98070265D01*
X131436612Y-98072629D01*
X131382816Y-98084906D01*
X131137383Y-98084905D01*
X131116136Y-98078666D01*
X131094049Y-98077086D01*
X131083590Y-98072629D01*
X131078674Y-98070262D01*
X131078658Y-98070255D01*
X130783118Y-97966840D01*
X130783106Y-97966836D01*
X130480376Y-97897740D01*
X130436927Y-97822485D01*
X130337616Y-97723174D01*
X130215986Y-97652950D01*
X130080324Y-97616600D01*
X129939878Y-97616600D01*
X129804216Y-97652950D01*
X129682586Y-97723174D01*
X129583275Y-97822485D01*
X129539826Y-97897739D01*
X129237095Y-97966836D01*
X129237083Y-97966840D01*
X128941544Y-98070255D01*
X128941521Y-98070265D01*
X128936612Y-98072629D01*
X128882816Y-98084906D01*
X128637383Y-98084905D01*
X128616136Y-98078666D01*
X128594049Y-98077086D01*
X128583590Y-98072629D01*
X128578674Y-98070262D01*
X128578658Y-98070255D01*
X128283118Y-97966840D01*
X128283106Y-97966836D01*
X127980376Y-97897740D01*
X127936927Y-97822485D01*
X127837616Y-97723174D01*
X127715986Y-97652950D01*
X127580324Y-97616600D01*
X127439878Y-97616600D01*
X127304216Y-97652950D01*
X127182586Y-97723174D01*
X127083275Y-97822485D01*
X127039826Y-97897739D01*
X126737095Y-97966836D01*
X126737083Y-97966840D01*
X126441544Y-98070255D01*
X126441521Y-98070265D01*
X126436612Y-98072629D01*
X126382816Y-98084906D01*
X126137383Y-98084905D01*
X126116136Y-98078666D01*
X126094049Y-98077086D01*
X126083590Y-98072629D01*
X126078674Y-98070262D01*
X126078658Y-98070255D01*
X125783118Y-97966840D01*
X125783106Y-97966836D01*
X125480376Y-97897740D01*
X125436927Y-97822485D01*
X125337616Y-97723174D01*
X125215986Y-97652950D01*
X125080324Y-97616600D01*
X124939878Y-97616600D01*
X124804216Y-97652950D01*
X124682586Y-97723174D01*
X124583275Y-97822485D01*
X124539826Y-97897739D01*
X124237095Y-97966836D01*
X124237083Y-97966840D01*
X123941544Y-98070255D01*
X123941521Y-98070265D01*
X123936612Y-98072629D01*
X123882816Y-98084906D01*
X123637383Y-98084905D01*
X123616136Y-98078666D01*
X123594049Y-98077086D01*
X123583590Y-98072629D01*
X123578674Y-98070262D01*
X123578658Y-98070255D01*
X123283118Y-97966840D01*
X123283106Y-97966836D01*
X122980376Y-97897740D01*
X122936927Y-97822485D01*
X122837616Y-97723174D01*
X122715986Y-97652950D01*
X122580324Y-97616600D01*
X122439878Y-97616600D01*
X122304216Y-97652950D01*
X122182586Y-97723174D01*
X122083275Y-97822485D01*
X122039826Y-97897739D01*
X121737095Y-97966836D01*
X121737083Y-97966840D01*
X121441544Y-98070255D01*
X121441521Y-98070265D01*
X121436612Y-98072629D01*
X121367670Y-98083977D01*
X121303537Y-98056251D01*
X121295135Y-98048587D01*
X121232616Y-97986068D01*
X121222701Y-98048673D01*
X121222701Y-98097997D01*
X121203016Y-98165036D01*
X121161895Y-98203526D01*
X121162362Y-98204269D01*
X120894282Y-98372714D01*
X120649466Y-98567948D01*
X120428049Y-98789365D01*
X120232815Y-99034181D01*
X120066217Y-99299320D01*
X119930365Y-99581420D01*
X119930356Y-99581442D01*
X119826941Y-99876982D01*
X119826937Y-99876994D01*
X119757260Y-100182270D01*
X119757257Y-100182288D01*
X119722201Y-100493428D01*
X118610602Y-100493428D01*
X118610602Y-96872516D01*
X122346168Y-96872516D01*
X122510101Y-97036448D01*
X122510102Y-97036448D01*
X122674032Y-96872517D01*
X122674031Y-96872516D01*
X124846168Y-96872516D01*
X125010101Y-97036448D01*
X125010102Y-97036448D01*
X125174032Y-96872517D01*
X125174031Y-96872516D01*
X127346168Y-96872516D01*
X127510101Y-97036448D01*
X127510102Y-97036448D01*
X127674032Y-96872517D01*
X127674031Y-96872516D01*
X129846168Y-96872516D01*
X130010101Y-97036448D01*
X130010102Y-97036448D01*
X130174032Y-96872517D01*
X130174031Y-96872516D01*
X132346168Y-96872516D01*
X132510101Y-97036448D01*
X132510102Y-97036448D01*
X132674032Y-96872517D01*
X132674031Y-96872515D01*
X132611428Y-96862600D01*
X132408774Y-96862600D01*
X132346169Y-96872515D01*
X132346168Y-96872516D01*
X130174031Y-96872516D01*
X130174031Y-96872515D01*
X130111428Y-96862600D01*
X129908774Y-96862600D01*
X129846169Y-96872515D01*
X129846168Y-96872516D01*
X127674031Y-96872516D01*
X127674031Y-96872515D01*
X127611428Y-96862600D01*
X127408774Y-96862600D01*
X127346169Y-96872515D01*
X127346168Y-96872516D01*
X125174031Y-96872516D01*
X125174031Y-96872515D01*
X125111428Y-96862600D01*
X124908774Y-96862600D01*
X124846169Y-96872515D01*
X124846168Y-96872516D01*
X122674031Y-96872516D01*
X122674031Y-96872515D01*
X122611428Y-96862600D01*
X122408774Y-96862600D01*
X122346169Y-96872515D01*
X122346168Y-96872516D01*
X118610602Y-96872516D01*
X118610602Y-96427481D01*
X122346168Y-96427481D01*
X122408781Y-96437398D01*
X122611422Y-96437398D01*
X122674031Y-96427481D01*
X124846168Y-96427481D01*
X124908781Y-96437398D01*
X125111422Y-96437398D01*
X125174031Y-96427481D01*
X127346168Y-96427481D01*
X127408781Y-96437398D01*
X127611422Y-96437398D01*
X127674031Y-96427481D01*
X129846168Y-96427481D01*
X129908781Y-96437398D01*
X130111422Y-96437398D01*
X130174031Y-96427481D01*
X132346168Y-96427481D01*
X132408781Y-96437398D01*
X132611422Y-96437398D01*
X132674031Y-96427481D01*
X132674032Y-96427480D01*
X132510102Y-96263550D01*
X132346168Y-96427481D01*
X130174031Y-96427481D01*
X130174032Y-96427480D01*
X130010102Y-96263550D01*
X129846168Y-96427481D01*
X127674031Y-96427481D01*
X127674032Y-96427480D01*
X127510102Y-96263550D01*
X127346168Y-96427481D01*
X125174031Y-96427481D01*
X125174032Y-96427480D01*
X125010102Y-96263550D01*
X124846168Y-96427481D01*
X122674031Y-96427481D01*
X122674032Y-96427480D01*
X122510102Y-96263550D01*
X122346168Y-96427481D01*
X118610602Y-96427481D01*
X118610602Y-95048671D01*
X121222701Y-95048671D01*
X121222701Y-95251324D01*
X121232616Y-95313928D01*
X121232618Y-95313929D01*
X121396549Y-95149998D01*
X121396549Y-95149997D01*
X121326327Y-95079775D01*
X121976701Y-95079775D01*
X121976701Y-95220221D01*
X122013051Y-95355883D01*
X122083275Y-95477513D01*
X122182586Y-95576824D01*
X122304216Y-95647048D01*
X122439878Y-95683398D01*
X122580324Y-95683398D01*
X122715986Y-95647048D01*
X122837616Y-95576824D01*
X122936927Y-95477513D01*
X123007151Y-95355883D01*
X123043501Y-95220221D01*
X123043501Y-95149998D01*
X123623653Y-95149998D01*
X123760101Y-95286446D01*
X123896549Y-95149998D01*
X123826326Y-95079775D01*
X124476701Y-95079775D01*
X124476701Y-95220221D01*
X124513051Y-95355883D01*
X124583275Y-95477513D01*
X124682586Y-95576824D01*
X124804216Y-95647048D01*
X124939878Y-95683398D01*
X125080324Y-95683398D01*
X125215986Y-95647048D01*
X125337616Y-95576824D01*
X125436927Y-95477513D01*
X125507151Y-95355883D01*
X125543501Y-95220221D01*
X125543501Y-95149998D01*
X126123653Y-95149998D01*
X126260101Y-95286446D01*
X126396549Y-95149998D01*
X126326326Y-95079775D01*
X126976701Y-95079775D01*
X126976701Y-95220221D01*
X127013051Y-95355883D01*
X127083275Y-95477513D01*
X127182586Y-95576824D01*
X127304216Y-95647048D01*
X127439878Y-95683398D01*
X127580324Y-95683398D01*
X127715986Y-95647048D01*
X127837616Y-95576824D01*
X127936927Y-95477513D01*
X128007151Y-95355883D01*
X128043501Y-95220221D01*
X128043501Y-95149998D01*
X128623653Y-95149998D01*
X128760101Y-95286446D01*
X128896549Y-95149998D01*
X128826326Y-95079775D01*
X129476701Y-95079775D01*
X129476701Y-95220221D01*
X129513051Y-95355883D01*
X129583275Y-95477513D01*
X129682586Y-95576824D01*
X129804216Y-95647048D01*
X129939878Y-95683398D01*
X130080324Y-95683398D01*
X130215986Y-95647048D01*
X130337616Y-95576824D01*
X130436927Y-95477513D01*
X130507151Y-95355883D01*
X130543501Y-95220221D01*
X130543501Y-95149998D01*
X131123653Y-95149998D01*
X131260101Y-95286446D01*
X131396549Y-95149998D01*
X131326326Y-95079775D01*
X131976701Y-95079775D01*
X131976701Y-95220221D01*
X132013051Y-95355883D01*
X132083275Y-95477513D01*
X132182586Y-95576824D01*
X132304216Y-95647048D01*
X132439878Y-95683398D01*
X132580324Y-95683398D01*
X132715986Y-95647048D01*
X132837616Y-95576824D01*
X132936927Y-95477513D01*
X133007151Y-95355883D01*
X133043501Y-95220221D01*
X133043501Y-95149998D01*
X133623653Y-95149998D01*
X133787583Y-95313929D01*
X133787584Y-95313928D01*
X133797501Y-95251318D01*
X133797501Y-95048677D01*
X133787584Y-94986066D01*
X133623653Y-95149998D01*
X133043501Y-95149998D01*
X133043501Y-95079775D01*
X133007151Y-94944113D01*
X132936927Y-94822483D01*
X132837616Y-94723172D01*
X132715986Y-94652948D01*
X132580324Y-94616598D01*
X132439878Y-94616598D01*
X132304216Y-94652948D01*
X132182586Y-94723172D01*
X132083275Y-94822483D01*
X132013051Y-94944113D01*
X131976701Y-95079775D01*
X131326326Y-95079775D01*
X131260101Y-95013550D01*
X131123653Y-95149998D01*
X130543501Y-95149998D01*
X130543501Y-95079775D01*
X130507151Y-94944113D01*
X130436927Y-94822483D01*
X130337616Y-94723172D01*
X130215986Y-94652948D01*
X130080324Y-94616598D01*
X129939878Y-94616598D01*
X129804216Y-94652948D01*
X129682586Y-94723172D01*
X129583275Y-94822483D01*
X129513051Y-94944113D01*
X129476701Y-95079775D01*
X128826326Y-95079775D01*
X128760101Y-95013550D01*
X128623653Y-95149998D01*
X128043501Y-95149998D01*
X128043501Y-95079775D01*
X128007151Y-94944113D01*
X127936927Y-94822483D01*
X127837616Y-94723172D01*
X127715986Y-94652948D01*
X127580324Y-94616598D01*
X127439878Y-94616598D01*
X127304216Y-94652948D01*
X127182586Y-94723172D01*
X127083275Y-94822483D01*
X127013051Y-94944113D01*
X126976701Y-95079775D01*
X126326326Y-95079775D01*
X126260101Y-95013550D01*
X126123653Y-95149998D01*
X125543501Y-95149998D01*
X125543501Y-95079775D01*
X125507151Y-94944113D01*
X125436927Y-94822483D01*
X125337616Y-94723172D01*
X125215986Y-94652948D01*
X125080324Y-94616598D01*
X124939878Y-94616598D01*
X124804216Y-94652948D01*
X124682586Y-94723172D01*
X124583275Y-94822483D01*
X124513051Y-94944113D01*
X124476701Y-95079775D01*
X123826326Y-95079775D01*
X123760101Y-95013550D01*
X123623653Y-95149998D01*
X123043501Y-95149998D01*
X123043501Y-95079775D01*
X123007151Y-94944113D01*
X122936927Y-94822483D01*
X122837616Y-94723172D01*
X122715986Y-94652948D01*
X122580324Y-94616598D01*
X122439878Y-94616598D01*
X122304216Y-94652948D01*
X122182586Y-94723172D01*
X122083275Y-94822483D01*
X122013051Y-94944113D01*
X121976701Y-95079775D01*
X121326327Y-95079775D01*
X121232617Y-94986065D01*
X121232616Y-94986066D01*
X121222701Y-95048671D01*
X118610602Y-95048671D01*
X118610602Y-93872514D01*
X122346168Y-93872514D01*
X122510101Y-94036446D01*
X122510102Y-94036446D01*
X122674032Y-93872515D01*
X122674031Y-93872514D01*
X124846168Y-93872514D01*
X125010101Y-94036446D01*
X125010102Y-94036446D01*
X125174032Y-93872515D01*
X125174031Y-93872514D01*
X127346168Y-93872514D01*
X127510101Y-94036446D01*
X127510102Y-94036446D01*
X127674032Y-93872515D01*
X127674031Y-93872514D01*
X129846168Y-93872514D01*
X130010101Y-94036446D01*
X130010102Y-94036446D01*
X130174032Y-93872515D01*
X130174031Y-93872514D01*
X132346168Y-93872514D01*
X132510101Y-94036446D01*
X132510102Y-94036446D01*
X132674032Y-93872515D01*
X132674031Y-93872513D01*
X132611428Y-93862598D01*
X132408774Y-93862598D01*
X132346169Y-93872513D01*
X132346168Y-93872514D01*
X130174031Y-93872514D01*
X130174031Y-93872513D01*
X130111428Y-93862598D01*
X129908774Y-93862598D01*
X129846169Y-93872513D01*
X129846168Y-93872514D01*
X127674031Y-93872514D01*
X127674031Y-93872513D01*
X127611428Y-93862598D01*
X127408774Y-93862598D01*
X127346169Y-93872513D01*
X127346168Y-93872514D01*
X125174031Y-93872514D01*
X125174031Y-93872513D01*
X125111428Y-93862598D01*
X124908774Y-93862598D01*
X124846169Y-93872513D01*
X124846168Y-93872514D01*
X122674031Y-93872514D01*
X122674031Y-93872513D01*
X122611428Y-93862598D01*
X122408774Y-93862598D01*
X122346169Y-93872513D01*
X122346168Y-93872514D01*
X118610602Y-93872514D01*
X118610602Y-92516407D01*
X118610601Y-92516402D01*
X118604725Y-92494471D01*
X118600500Y-92462380D01*
X118600500Y-90147842D01*
X167150000Y-90147842D01*
X167156401Y-90207370D01*
X167156403Y-90207377D01*
X167206645Y-90342084D01*
X167206649Y-90342091D01*
X167292809Y-90457185D01*
X167292812Y-90457188D01*
X167407906Y-90543348D01*
X167407913Y-90543352D01*
X167542620Y-90593594D01*
X167542627Y-90593596D01*
X167602155Y-90599997D01*
X167602172Y-90599998D01*
X167650000Y-90599998D01*
X169550000Y-90599998D01*
X169597828Y-90599998D01*
X169597844Y-90599997D01*
X169657372Y-90593596D01*
X169657379Y-90593594D01*
X169792086Y-90543352D01*
X169792093Y-90543348D01*
X169907187Y-90457188D01*
X169907190Y-90457185D01*
X169993350Y-90342091D01*
X169993354Y-90342084D01*
X170043596Y-90207377D01*
X170043598Y-90207370D01*
X170049999Y-90147842D01*
X170050000Y-90147825D01*
X170050000Y-90099998D01*
X169550000Y-90099998D01*
X169550000Y-90599998D01*
X167650000Y-90599998D01*
X167650000Y-90099998D01*
X167150000Y-90099998D01*
X167150000Y-90147842D01*
X118600500Y-90147842D01*
X118600500Y-89071205D01*
X167800000Y-89071205D01*
X167800000Y-89228791D01*
X167830743Y-89383349D01*
X167891049Y-89528940D01*
X167978599Y-89659968D01*
X168090030Y-89771399D01*
X168221058Y-89858949D01*
X168366649Y-89919255D01*
X168521207Y-89949998D01*
X168678793Y-89949998D01*
X168833351Y-89919255D01*
X168978942Y-89858949D01*
X169109970Y-89771399D01*
X169221401Y-89659968D01*
X169308951Y-89528940D01*
X169369257Y-89383349D01*
X169400000Y-89228791D01*
X169400000Y-89071205D01*
X169369257Y-88916647D01*
X169308951Y-88771056D01*
X169221401Y-88640028D01*
X169109970Y-88528597D01*
X168978942Y-88441047D01*
X168833351Y-88380741D01*
X168678793Y-88349998D01*
X168521207Y-88349998D01*
X168366649Y-88380741D01*
X168221058Y-88441047D01*
X168090030Y-88528597D01*
X167978599Y-88640028D01*
X167891049Y-88771056D01*
X167830743Y-88916647D01*
X167800000Y-89071205D01*
X118600500Y-89071205D01*
X118600500Y-88152153D01*
X167150000Y-88152153D01*
X167150000Y-88199998D01*
X167650000Y-88199998D01*
X169550000Y-88199998D01*
X170050000Y-88199998D01*
X170050000Y-88152170D01*
X170049999Y-88152153D01*
X170043598Y-88092625D01*
X170043596Y-88092618D01*
X169993354Y-87957911D01*
X169993350Y-87957904D01*
X169907190Y-87842810D01*
X169907187Y-87842807D01*
X169792093Y-87756647D01*
X169792086Y-87756643D01*
X169657379Y-87706401D01*
X169657372Y-87706399D01*
X169597844Y-87699998D01*
X169550000Y-87699998D01*
X169550000Y-88199998D01*
X167650000Y-88199998D01*
X167650000Y-87699998D01*
X167602155Y-87699998D01*
X167542627Y-87706399D01*
X167542620Y-87706401D01*
X167407913Y-87756643D01*
X167407906Y-87756647D01*
X167292812Y-87842807D01*
X167292809Y-87842810D01*
X167206649Y-87957904D01*
X167206645Y-87957911D01*
X167156403Y-88092618D01*
X167156401Y-88092625D01*
X167150000Y-88152153D01*
X118600500Y-88152153D01*
X118600500Y-82043711D01*
X122249500Y-82043711D01*
X122249500Y-82256285D01*
X122282754Y-82466241D01*
X122342942Y-82651481D01*
X122348444Y-82668412D01*
X122444951Y-82857818D01*
X122569890Y-83029784D01*
X122720213Y-83180107D01*
X122892179Y-83305046D01*
X122892181Y-83305047D01*
X122892184Y-83305049D01*
X123081588Y-83401555D01*
X123283757Y-83467244D01*
X123493713Y-83500498D01*
X123493714Y-83500498D01*
X123706286Y-83500498D01*
X123706287Y-83500498D01*
X123916243Y-83467244D01*
X124118412Y-83401555D01*
X124307816Y-83305049D01*
X124342885Y-83279570D01*
X124479786Y-83180107D01*
X124479788Y-83180104D01*
X124479792Y-83180102D01*
X124630104Y-83029790D01*
X124630106Y-83029786D01*
X124630109Y-83029784D01*
X124755048Y-82857818D01*
X124755047Y-82857818D01*
X124755051Y-82857814D01*
X124851557Y-82668410D01*
X124917246Y-82466241D01*
X124950500Y-82256285D01*
X124950500Y-82043711D01*
X124917246Y-81833755D01*
X124874939Y-81703547D01*
X135149500Y-81703547D01*
X135149500Y-83746448D01*
X135164804Y-83960431D01*
X135225628Y-84240035D01*
X135325635Y-84508164D01*
X135462770Y-84759307D01*
X135462775Y-84759315D01*
X135634254Y-84988385D01*
X135634270Y-84988403D01*
X135836594Y-85190727D01*
X135836612Y-85190743D01*
X136065682Y-85362222D01*
X136065690Y-85362227D01*
X136316833Y-85499362D01*
X136316832Y-85499362D01*
X136316836Y-85499363D01*
X136316839Y-85499365D01*
X136584954Y-85599367D01*
X136584960Y-85599368D01*
X136584962Y-85599369D01*
X136864566Y-85660193D01*
X136864568Y-85660193D01*
X136864572Y-85660194D01*
X137078552Y-85675498D01*
X139121448Y-85675498D01*
X139335428Y-85660194D01*
X139389121Y-85648514D01*
X139615037Y-85599369D01*
X139615037Y-85599368D01*
X139615046Y-85599367D01*
X139883161Y-85499365D01*
X140134315Y-85362224D01*
X140363395Y-85190737D01*
X140565739Y-84988393D01*
X140737226Y-84759313D01*
X140874367Y-84508159D01*
X140974369Y-84240044D01*
X141029016Y-83988837D01*
X143974850Y-83988837D01*
X143974850Y-84311159D01*
X143984346Y-84407578D01*
X144006441Y-84631917D01*
X144006444Y-84631934D01*
X144069323Y-84948050D01*
X144162890Y-85256499D01*
X144286238Y-85554286D01*
X144286240Y-85554291D01*
X144438171Y-85838534D01*
X144438182Y-85838552D01*
X144617244Y-86106537D01*
X144617254Y-86106551D01*
X144821733Y-86355709D01*
X145049638Y-86583614D01*
X145049643Y-86583618D01*
X145049644Y-86583619D01*
X145298802Y-86788098D01*
X145566802Y-86967170D01*
X145566811Y-86967175D01*
X145566813Y-86967176D01*
X145851056Y-87119107D01*
X145851058Y-87119107D01*
X145851064Y-87119111D01*
X146148850Y-87242458D01*
X146457292Y-87336023D01*
X146773420Y-87398905D01*
X147094189Y-87430498D01*
X147094192Y-87430498D01*
X147416508Y-87430498D01*
X147416511Y-87430498D01*
X147737280Y-87398905D01*
X148053408Y-87336023D01*
X148361850Y-87242458D01*
X148659636Y-87119111D01*
X148943898Y-86967170D01*
X149211898Y-86788098D01*
X149241694Y-86763645D01*
X149306004Y-86736332D01*
X149320359Y-86735498D01*
X149550552Y-86735498D01*
X149550553Y-86735497D01*
X149698028Y-86718881D01*
X149839105Y-86702986D01*
X149839110Y-86702985D01*
X149839120Y-86702984D01*
X150122236Y-86638365D01*
X150396337Y-86542452D01*
X150645995Y-86422224D01*
X150657970Y-86416457D01*
X150657970Y-86416456D01*
X150657976Y-86416454D01*
X150839379Y-86302470D01*
X150906614Y-86283470D01*
X150971320Y-86302470D01*
X151152724Y-86416454D01*
X151152726Y-86416455D01*
X151152729Y-86416457D01*
X151414347Y-86542445D01*
X151414356Y-86542448D01*
X151414363Y-86542452D01*
X151414369Y-86542454D01*
X151688452Y-86638361D01*
X151688464Y-86638365D01*
X151971580Y-86702984D01*
X151971586Y-86702984D01*
X151971594Y-86702986D01*
X152163960Y-86724660D01*
X152260145Y-86735497D01*
X152260148Y-86735498D01*
X152260151Y-86735498D01*
X152550552Y-86735498D01*
X152550553Y-86735497D01*
X152698028Y-86718881D01*
X152839105Y-86702986D01*
X152839110Y-86702985D01*
X152839120Y-86702984D01*
X153122236Y-86638365D01*
X153396337Y-86542452D01*
X153645995Y-86422224D01*
X153657970Y-86416457D01*
X153657970Y-86416456D01*
X153657976Y-86416454D01*
X153903862Y-86261953D01*
X153903866Y-86261950D01*
X154130897Y-86080900D01*
X154130899Y-86080897D01*
X154130904Y-86080894D01*
X154336246Y-85875552D01*
X154365753Y-85838552D01*
X154517302Y-85648514D01*
X154517303Y-85648512D01*
X154517305Y-85648510D01*
X154671806Y-85402624D01*
X154774808Y-85188734D01*
X154821630Y-85136876D01*
X154889057Y-85118563D01*
X154942824Y-85132053D01*
X154988848Y-85155504D01*
X155151278Y-85208282D01*
X155319954Y-85234998D01*
X155490746Y-85234998D01*
X155659422Y-85208281D01*
X155659428Y-85208280D01*
X155731367Y-85184905D01*
X155801208Y-85182908D01*
X155861042Y-85218988D01*
X155890852Y-85276474D01*
X155895977Y-85300032D01*
X155895980Y-85300040D01*
X155895981Y-85300044D01*
X155995983Y-85568159D01*
X155995985Y-85568164D01*
X156133120Y-85819307D01*
X156133125Y-85819315D01*
X156304604Y-86048385D01*
X156304620Y-86048403D01*
X156506944Y-86250727D01*
X156506962Y-86250743D01*
X156736032Y-86422222D01*
X156736040Y-86422227D01*
X156987183Y-86559362D01*
X156987182Y-86559362D01*
X156987186Y-86559363D01*
X156987189Y-86559365D01*
X157255304Y-86659367D01*
X157255310Y-86659368D01*
X157255312Y-86659369D01*
X157534916Y-86720193D01*
X157534918Y-86720193D01*
X157534922Y-86720194D01*
X157748902Y-86735498D01*
X158490341Y-86735498D01*
X158557380Y-86755183D01*
X158569006Y-86763645D01*
X158598802Y-86788098D01*
X158866802Y-86967170D01*
X158866811Y-86967175D01*
X158866813Y-86967176D01*
X159151056Y-87119107D01*
X159151058Y-87119107D01*
X159151064Y-87119111D01*
X159448850Y-87242458D01*
X159757292Y-87336023D01*
X160073420Y-87398905D01*
X160394189Y-87430498D01*
X160394192Y-87430498D01*
X160716508Y-87430498D01*
X160716511Y-87430498D01*
X161037280Y-87398905D01*
X161353408Y-87336023D01*
X161661850Y-87242458D01*
X161959636Y-87119111D01*
X162243898Y-86967170D01*
X162511898Y-86788098D01*
X162761056Y-86583619D01*
X162988971Y-86355704D01*
X163193450Y-86106546D01*
X163372522Y-85838546D01*
X163524463Y-85554284D01*
X163647810Y-85256498D01*
X163741375Y-84948056D01*
X163804257Y-84631928D01*
X163835850Y-84311159D01*
X163835850Y-83988837D01*
X163804257Y-83668068D01*
X163741375Y-83351940D01*
X163647810Y-83043498D01*
X163524463Y-82745712D01*
X163517043Y-82731831D01*
X163372528Y-82461461D01*
X163372527Y-82461459D01*
X163372522Y-82461450D01*
X163193450Y-82193450D01*
X163075115Y-82049259D01*
X163070562Y-82043711D01*
X167749500Y-82043711D01*
X167749500Y-82256285D01*
X167782754Y-82466241D01*
X167842942Y-82651481D01*
X167848444Y-82668412D01*
X167944951Y-82857818D01*
X168069890Y-83029784D01*
X168220213Y-83180107D01*
X168392179Y-83305046D01*
X168392181Y-83305047D01*
X168392184Y-83305049D01*
X168581588Y-83401555D01*
X168783757Y-83467244D01*
X168993713Y-83500498D01*
X168993714Y-83500498D01*
X169206286Y-83500498D01*
X169206287Y-83500498D01*
X169416243Y-83467244D01*
X169618412Y-83401555D01*
X169807816Y-83305049D01*
X169842885Y-83279570D01*
X169979786Y-83180107D01*
X169979788Y-83180104D01*
X169979792Y-83180102D01*
X170130104Y-83029790D01*
X170130106Y-83029786D01*
X170130109Y-83029784D01*
X170255048Y-82857818D01*
X170255047Y-82857818D01*
X170255051Y-82857814D01*
X170351557Y-82668410D01*
X170417246Y-82466241D01*
X170450500Y-82256285D01*
X170450500Y-82043711D01*
X170417246Y-81833755D01*
X170351557Y-81631586D01*
X170255051Y-81442182D01*
X170255049Y-81442179D01*
X170255048Y-81442177D01*
X170130109Y-81270211D01*
X169979786Y-81119888D01*
X169807820Y-80994949D01*
X169618414Y-80898442D01*
X169618413Y-80898441D01*
X169618412Y-80898441D01*
X169416243Y-80832752D01*
X169416241Y-80832751D01*
X169416240Y-80832751D01*
X169254957Y-80807206D01*
X169206287Y-80799498D01*
X168993713Y-80799498D01*
X168945042Y-80807206D01*
X168783760Y-80832751D01*
X168581585Y-80898442D01*
X168392179Y-80994949D01*
X168220213Y-81119888D01*
X168069890Y-81270211D01*
X167944951Y-81442177D01*
X167848444Y-81631583D01*
X167782753Y-81833758D01*
X167756815Y-81997525D01*
X167749500Y-82043711D01*
X163070562Y-82043711D01*
X162988966Y-81944286D01*
X162761061Y-81716381D01*
X162511903Y-81511902D01*
X162511902Y-81511901D01*
X162511898Y-81511898D01*
X162243898Y-81332826D01*
X162243893Y-81332823D01*
X162243886Y-81332819D01*
X161959643Y-81180888D01*
X161959638Y-81180886D01*
X161661851Y-81057538D01*
X161353402Y-80963971D01*
X161037286Y-80901092D01*
X161037269Y-80901089D01*
X160794702Y-80877199D01*
X160716511Y-80869498D01*
X160394189Y-80869498D01*
X160321874Y-80876620D01*
X160073430Y-80901089D01*
X160073413Y-80901092D01*
X159757297Y-80963971D01*
X159448848Y-81057538D01*
X159151061Y-81180886D01*
X159151056Y-81180888D01*
X158866813Y-81332819D01*
X158866795Y-81332830D01*
X158598810Y-81511892D01*
X158598796Y-81511902D01*
X158569006Y-81536351D01*
X158504696Y-81563664D01*
X158490341Y-81564498D01*
X157748899Y-81564498D01*
X157534916Y-81579802D01*
X157255312Y-81640626D01*
X156987183Y-81740633D01*
X156736040Y-81877768D01*
X156736032Y-81877773D01*
X156506962Y-82049252D01*
X156506944Y-82049268D01*
X156304620Y-82251592D01*
X156304604Y-82251610D01*
X156133125Y-82480680D01*
X156133120Y-82480688D01*
X155995985Y-82731831D01*
X155895977Y-82999962D01*
X155890852Y-83023522D01*
X155857365Y-83084844D01*
X155796041Y-83118327D01*
X155731368Y-83115091D01*
X155659421Y-83091713D01*
X155490746Y-83064998D01*
X155319954Y-83064998D01*
X155151278Y-83091713D01*
X154988850Y-83144491D01*
X154942821Y-83167943D01*
X154874151Y-83180838D01*
X154809411Y-83154560D01*
X154774808Y-83111258D01*
X154671809Y-82897377D01*
X154517303Y-82651483D01*
X154517302Y-82651481D01*
X154336252Y-82424450D01*
X154130897Y-82219095D01*
X153903866Y-82038045D01*
X153903864Y-82038044D01*
X153657970Y-81883538D01*
X153396352Y-81757550D01*
X153396330Y-81757541D01*
X153122247Y-81661634D01*
X153122235Y-81661630D01*
X152839123Y-81597012D01*
X152839105Y-81597009D01*
X152550555Y-81564498D01*
X152550549Y-81564498D01*
X152260151Y-81564498D01*
X152260144Y-81564498D01*
X151971594Y-81597009D01*
X151971576Y-81597012D01*
X151688464Y-81661630D01*
X151688452Y-81661634D01*
X151414369Y-81757541D01*
X151414347Y-81757550D01*
X151152729Y-81883538D01*
X150971322Y-81997525D01*
X150904085Y-82016525D01*
X150839378Y-81997525D01*
X150657970Y-81883538D01*
X150396352Y-81757550D01*
X150396330Y-81757541D01*
X150122247Y-81661634D01*
X150122235Y-81661630D01*
X149839123Y-81597012D01*
X149839105Y-81597009D01*
X149550555Y-81564498D01*
X149550549Y-81564498D01*
X149320359Y-81564498D01*
X149253320Y-81544813D01*
X149241694Y-81536351D01*
X149211903Y-81511902D01*
X149211902Y-81511901D01*
X149211898Y-81511898D01*
X148943898Y-81332826D01*
X148943893Y-81332823D01*
X148943886Y-81332819D01*
X148659643Y-81180888D01*
X148659638Y-81180886D01*
X148361851Y-81057538D01*
X148053402Y-80963971D01*
X147737286Y-80901092D01*
X147737269Y-80901089D01*
X147494702Y-80877199D01*
X147416511Y-80869498D01*
X147094189Y-80869498D01*
X147021874Y-80876620D01*
X146773430Y-80901089D01*
X146773413Y-80901092D01*
X146457297Y-80963971D01*
X146148848Y-81057538D01*
X145851061Y-81180886D01*
X145851056Y-81180888D01*
X145566813Y-81332819D01*
X145566795Y-81332830D01*
X145298810Y-81511892D01*
X145298796Y-81511902D01*
X145049638Y-81716381D01*
X144821733Y-81944286D01*
X144617254Y-82193444D01*
X144617244Y-82193458D01*
X144438182Y-82461443D01*
X144438171Y-82461461D01*
X144286240Y-82745704D01*
X144286238Y-82745709D01*
X144162890Y-83043496D01*
X144069323Y-83351945D01*
X144006444Y-83668061D01*
X144006441Y-83668078D01*
X143998723Y-83746446D01*
X143974850Y-83988837D01*
X141029016Y-83988837D01*
X141035196Y-83960426D01*
X141050500Y-83746446D01*
X141050500Y-81703550D01*
X141035196Y-81489570D01*
X141024887Y-81442182D01*
X140974371Y-81209960D01*
X140974370Y-81209958D01*
X140974369Y-81209952D01*
X140874367Y-80941837D01*
X140852118Y-80901092D01*
X140737229Y-80690688D01*
X140737224Y-80690680D01*
X140565745Y-80461610D01*
X140565729Y-80461592D01*
X140363405Y-80259268D01*
X140363387Y-80259252D01*
X140134317Y-80087773D01*
X140134309Y-80087768D01*
X139883166Y-79950633D01*
X139883167Y-79950633D01*
X139775915Y-79910630D01*
X139615046Y-79850629D01*
X139615043Y-79850628D01*
X139615037Y-79850626D01*
X139335433Y-79789802D01*
X139121450Y-79774498D01*
X139121448Y-79774498D01*
X137078552Y-79774498D01*
X137078549Y-79774498D01*
X136864566Y-79789802D01*
X136584962Y-79850626D01*
X136316833Y-79950633D01*
X136065690Y-80087768D01*
X136065682Y-80087773D01*
X135836612Y-80259252D01*
X135836594Y-80259268D01*
X135634270Y-80461592D01*
X135634254Y-80461610D01*
X135462775Y-80690680D01*
X135462770Y-80690688D01*
X135325635Y-80941831D01*
X135225628Y-81209960D01*
X135164804Y-81489564D01*
X135149500Y-81703547D01*
X124874939Y-81703547D01*
X124851557Y-81631586D01*
X124755051Y-81442182D01*
X124755049Y-81442179D01*
X124755048Y-81442177D01*
X124630109Y-81270211D01*
X124479786Y-81119888D01*
X124307820Y-80994949D01*
X124118414Y-80898442D01*
X124118413Y-80898441D01*
X124118412Y-80898441D01*
X123916243Y-80832752D01*
X123916241Y-80832751D01*
X123916240Y-80832751D01*
X123754957Y-80807206D01*
X123706287Y-80799498D01*
X123493713Y-80799498D01*
X123445042Y-80807206D01*
X123283760Y-80832751D01*
X123081585Y-80898442D01*
X122892179Y-80994949D01*
X122720213Y-81119888D01*
X122569890Y-81270211D01*
X122444951Y-81442177D01*
X122348444Y-81631583D01*
X122282753Y-81833758D01*
X122256815Y-81997525D01*
X122249500Y-82043711D01*
X118600500Y-82043711D01*
X118600500Y-77524498D01*
X118620185Y-77457459D01*
X118672989Y-77411704D01*
X118724500Y-77400498D01*
X173475500Y-77400498D01*
X173542539Y-77420183D01*
G37*
%TD.AperFunction*%
%TD*%
M02*
