M48
; DRILL file KiCad 10.0.0 date 2026-03-27T08:39:49
; FORMAT={-:-/ absolute / metric / decimal}
; #@! TF.CreationDate,2026-03-27T08:39:49-04:00
; #@! TF.GenerationSoftware,Kicad,Pcbnew,10.0.0
; #@! TF.FileFunction,Plated,1,2,PTH
FMAT,2
METRIC
; #@! TA.AperFunction,Plated,PTH,ViaDrill
T1C0.300
; #@! TA.AperFunction,Plated,PTH,ComponentDrill
T2C1.020
; #@! TA.AperFunction,Plated,PTH,ComponentDrill
T3C1.067
; #@! TA.AperFunction,Plated,PTH,ComponentDrill
T4C1.321
; #@! TA.AperFunction,Plated,PTH,ComponentDrill
T5C1.600
; #@! TA.AperFunction,Plated,PTH,ComponentDrill
T6C2.410
%
G90
G05
T1
X141.1Y-86.65
X151.6Y-103.15
X157.1Y-94.15
T2
X149.405Y-84.15
X152.405Y-84.15
X155.405Y-84.15
X158.405Y-84.15
T3
X122.51Y-95.15
X122.51Y-98.15
X122.51Y-100.65
X122.51Y-103.65
X125.01Y-95.15
X125.01Y-98.15
X125.01Y-100.65
X125.01Y-103.65
X127.51Y-95.15
X127.51Y-98.15
X127.51Y-100.65
X127.51Y-103.65
X130.01Y-95.15
X130.01Y-98.15
X130.01Y-100.65
X130.01Y-103.65
X132.51Y-95.15
X132.51Y-98.15
X132.51Y-100.65
X132.51Y-103.65
X159.75Y-95.15
X159.75Y-98.15
X159.75Y-100.65
X159.75Y-103.65
X162.25Y-95.15
X162.25Y-98.15
X162.25Y-100.65
X162.25Y-103.65
X164.75Y-95.15
X164.75Y-98.15
X164.75Y-100.65
X164.75Y-103.65
X167.25Y-95.15
X167.25Y-98.15
X167.25Y-100.65
X167.25Y-103.65
X169.75Y-95.15
X169.75Y-98.15
X169.75Y-100.65
X169.75Y-103.65
T4
X128.633Y-115.15
X162.567Y-115.15
T5
X138.1Y-82.725
X168.6Y-89.15
X168.6Y-110.65
T6
X147.255Y-84.15
X160.555Y-84.15
M30
