%TF.GenerationSoftware,KiCad,Pcbnew,10.0.0*%
%TF.CreationDate,2026-03-25T18:17:41-04:00*%
%TF.ProjectId,AC_Output_Filter,41435f4f-7574-4707-9574-5f46696c7465,rev?*%
%TF.SameCoordinates,Original*%
%TF.FileFunction,Copper,L2,Bot*%
%TF.FilePolarity,Positive*%
%FSLAX46Y46*%
G04 Gerber Fmt 4.6, Leading zero omitted, Abs format (unit mm)*
G04 Created by KiCad (PCBNEW 10.0.0) date 2026-03-25 18:17:41*
%MOMM*%
%LPD*%
G01*
G04 APERTURE LIST*
%TA.AperFunction,ComponentPad*%
%ADD10R,2.014000X2.014000*%
%TD*%
%TA.AperFunction,ComponentPad*%
%ADD11C,2.014000*%
%TD*%
%TA.AperFunction,ComponentPad*%
%ADD12C,1.700000*%
%TD*%
%TA.AperFunction,ComponentPad*%
%ADD13C,2.768600*%
%TD*%
%TA.AperFunction,ComponentPad*%
%ADD14R,1.900000X1.900000*%
%TD*%
%TA.AperFunction,ComponentPad*%
%ADD15C,1.574800*%
%TD*%
%TA.AperFunction,ComponentPad*%
%ADD16R,1.828800X1.828800*%
%TD*%
%TA.AperFunction,ComponentPad*%
%ADD17C,1.828800*%
%TD*%
%TA.AperFunction,ComponentPad*%
%ADD18R,2.100000X2.100000*%
%TD*%
%TA.AperFunction,ComponentPad*%
%ADD19C,2.100000*%
%TD*%
G04 APERTURE END LIST*
D10*
%TO.P,L3,1*%
%TO.N,GND_ISO_LAHS*%
X125500000Y-42550000D03*
D11*
%TO.P,L3,2*%
%TO.N,/Phase_A_Output*%
X154710000Y-42550000D03*
%TD*%
D12*
%TO.P,J3,*%
%TO.N,*%
X189461899Y-29420000D03*
X179301960Y-29420000D03*
X189461899Y-39580000D03*
X179301960Y-39580000D03*
D13*
%TO.P,J3,1,1_1*%
%TO.N,/Phase_A_Output*%
X183101899Y-34500000D03*
%TD*%
D10*
%TO.P,L4,1*%
%TO.N,GND_ISO_LBHS*%
X125500000Y-87700000D03*
D11*
%TO.P,L4,2*%
%TO.N,/Phase_B_Output*%
X154710000Y-87700000D03*
%TD*%
D12*
%TO.P,J4,*%
%TO.N,*%
X189461899Y-89720000D03*
X179301960Y-89720000D03*
X189461899Y-99880000D03*
X179301960Y-99880000D03*
D13*
%TO.P,J4,1,1_1*%
%TO.N,/Phase_B_Output*%
X183101899Y-94800000D03*
%TD*%
D14*
%TO.P,TP4,1,1_1*%
%TO.N,/Phase_B_Output*%
X168750000Y-94800000D03*
%TD*%
D15*
%TO.P,J17,P1_1,P1_1_P1_1*%
%TO.N,GND_ISO_LBHS*%
X107860101Y-60949999D03*
%TO.P,J17,P1_2,P1_2_P1_2*%
X110360101Y-60949999D03*
%TO.P,J17,P1_3,P1_3_P1_3*%
X112860101Y-60949999D03*
%TO.P,J17,P1_4,P1_4_P1_4*%
X115360101Y-60949999D03*
%TO.P,J17,P1_5,P1_5_P1_5*%
X117860101Y-60949999D03*
%TO.P,J17,P1_6,P1_6_P1_6*%
X107860101Y-63950001D03*
%TO.P,J17,P1_7,P1_7_P1_7*%
X110360101Y-63950001D03*
%TO.P,J17,P1_8,P1_8_P1_8*%
X112860101Y-63950001D03*
%TO.P,J17,P1_9,P1_9_P1_9*%
X115360101Y-63950001D03*
%TO.P,J17,P1_10,P1_10_P1_10*%
X117860101Y-63950001D03*
%TO.P,J17,P2_1,P2_1_P2_1*%
%TO.N,GND_ISO_LAHS*%
X107860101Y-66450001D03*
%TO.P,J17,P2_2,P2_2_P2_2*%
X110360101Y-66450001D03*
%TO.P,J17,P2_3,P2_3_P2_3*%
X112860101Y-66450001D03*
%TO.P,J17,P2_4,P2_4_P2_4*%
X115360101Y-66450001D03*
%TO.P,J17,P2_5,P2_5_P2_5*%
X117860101Y-66450001D03*
%TO.P,J17,P2_6,P2_6_P2_6*%
X107860101Y-69450000D03*
%TO.P,J17,P2_7,P2_7_P2_7*%
X110360101Y-69450000D03*
%TO.P,J17,P2_8,P2_8_P2_8*%
X112860101Y-69450000D03*
%TO.P,J17,P2_9,P2_9_P2_9*%
X115360101Y-69450000D03*
%TO.P,J17,P2_10,P2_10_P2_10*%
X117860101Y-69450000D03*
%TD*%
D16*
%TO.P,R33,1*%
%TO.N,/Phase_A_Output*%
X166400000Y-48232800D03*
D17*
%TO.P,R33,2*%
%TO.N,/Phase_B_Output*%
X166400000Y-82167200D03*
%TD*%
D14*
%TO.P,TP3,1,1_1*%
%TO.N,/Phase_A_Output*%
X168750000Y-34500000D03*
%TD*%
D18*
%TO.P,C53,1,1_1*%
%TO.N,/Phase_A_Output*%
X177900000Y-45650000D03*
D19*
%TO.P,C53,2,2_2*%
%TO.N,/Phase_B_Output*%
X177900000Y-83150000D03*
%TO.P,C53,3,3_3*%
%TO.N,/Phase_A_Output*%
X188100000Y-45650000D03*
%TO.P,C53,4,4_4*%
%TO.N,/Phase_B_Output*%
X188100000Y-83150000D03*
%TD*%
%TA.AperFunction,Conductor*%
%TO.N,/Phase_B_Output*%
G36*
X195892606Y-20055523D02*
G01*
X195907604Y-20059927D01*
X195966355Y-20097672D01*
X195967542Y-20099041D01*
X195987407Y-20142504D01*
X195990863Y-20141408D01*
X195993695Y-20150335D01*
X195995082Y-20159294D01*
X195996587Y-20162587D01*
X195996108Y-20165923D01*
X195999500Y-20187831D01*
X195999500Y-109407670D01*
X195994475Y-109442614D01*
X195990070Y-109457612D01*
X195952327Y-109516355D01*
X195950958Y-109517542D01*
X195896097Y-109545018D01*
X195888539Y-109546663D01*
X195862168Y-109549500D01*
X152979121Y-109549500D01*
X152912082Y-109529815D01*
X152866327Y-109477011D01*
X152855121Y-109425546D01*
X152855121Y-109424713D01*
X152853355Y-104643707D01*
X189599500Y-104643707D01*
X189599500Y-104856291D01*
X189632752Y-105066239D01*
X189698445Y-105268418D01*
X189791532Y-105451111D01*
X189794951Y-105457820D01*
X189919890Y-105629786D01*
X189919892Y-105629788D01*
X190070216Y-105780112D01*
X190242169Y-105905042D01*
X190242177Y-105905047D01*
X190242179Y-105905048D01*
X190242181Y-105905049D01*
X190242182Y-105905050D01*
X190242200Y-105905060D01*
X190242442Y-105905182D01*
X190431588Y-106001557D01*
X190633757Y-106067246D01*
X190843713Y-106100500D01*
X190843714Y-106100500D01*
X191056286Y-106100500D01*
X191056287Y-106100500D01*
X191266243Y-106067246D01*
X191468412Y-106001557D01*
X191657816Y-105905051D01*
X191679789Y-105889086D01*
X191829786Y-105780109D01*
X191829786Y-105780108D01*
X191829844Y-105780066D01*
X191830605Y-105779290D01*
X191980104Y-105629792D01*
X191980106Y-105629788D01*
X191980109Y-105629786D01*
X192105048Y-105457820D01*
X192105047Y-105457820D01*
X192105051Y-105457816D01*
X192105053Y-105457810D01*
X192125445Y-105429744D01*
X192133730Y-105401529D01*
X192201557Y-105268412D01*
X192267246Y-105066243D01*
X192300500Y-104856287D01*
X192300500Y-104643713D01*
X192267246Y-104433757D01*
X192201557Y-104231588D01*
X192105051Y-104042184D01*
X192105049Y-104042181D01*
X192105048Y-104042179D01*
X192104702Y-104041703D01*
X192104700Y-104041699D01*
X191980112Y-103870216D01*
X191829788Y-103719892D01*
X191829786Y-103719890D01*
X191657820Y-103594951D01*
X191644167Y-103587994D01*
X191490245Y-103509567D01*
X191490240Y-103509565D01*
X191468414Y-103498444D01*
X191468413Y-103498443D01*
X191468412Y-103498443D01*
X191371550Y-103466970D01*
X191275074Y-103435623D01*
X191270552Y-103433770D01*
X191261362Y-103431600D01*
X191256599Y-103431226D01*
X191104957Y-103407208D01*
X191085489Y-103404124D01*
X191056290Y-103399500D01*
X191056287Y-103399500D01*
X190843713Y-103399500D01*
X190843709Y-103399500D01*
X190804776Y-103405666D01*
X190795042Y-103407208D01*
X190757654Y-103413129D01*
X190633763Y-103432752D01*
X190431582Y-103498445D01*
X190242182Y-103594949D01*
X190070210Y-103719892D01*
X189919892Y-103870210D01*
X189794949Y-104042182D01*
X189698445Y-104231580D01*
X189632752Y-104433759D01*
X189599500Y-104643707D01*
X152853355Y-104643707D01*
X152851537Y-99719909D01*
X176451460Y-99719909D01*
X176451460Y-100040089D01*
X176487302Y-100358203D01*
X176487307Y-100358233D01*
X176558550Y-100670371D01*
X176558715Y-100670835D01*
X176664292Y-100972560D01*
X176803202Y-101261008D01*
X176803406Y-101261366D01*
X176804092Y-101262425D01*
X176973541Y-101532101D01*
X177173158Y-101782413D01*
X177399547Y-102008802D01*
X177649859Y-102208419D01*
X177920947Y-102378755D01*
X178209402Y-102517668D01*
X178511597Y-102623410D01*
X178823731Y-102694653D01*
X178823739Y-102694653D01*
X178823744Y-102694655D01*
X178963620Y-102710414D01*
X179124480Y-102728539D01*
X179132081Y-102730500D01*
X179462044Y-102730500D01*
X179487542Y-102730500D01*
X179492676Y-102727696D01*
X179505146Y-102725642D01*
X179686133Y-102705250D01*
X179780175Y-102694655D01*
X179780178Y-102694654D01*
X179780189Y-102694653D01*
X180092323Y-102623410D01*
X180394518Y-102517668D01*
X180682973Y-102378755D01*
X180954061Y-102208419D01*
X181204373Y-102008802D01*
X181430762Y-101782413D01*
X181630379Y-101532101D01*
X181800715Y-101261013D01*
X181939628Y-100972558D01*
X182045370Y-100670363D01*
X182116613Y-100358229D01*
X182152460Y-100040081D01*
X182152460Y-99719919D01*
X182152459Y-99719909D01*
X186611399Y-99719909D01*
X186611399Y-100040089D01*
X186647241Y-100358203D01*
X186647246Y-100358233D01*
X186718489Y-100670371D01*
X186718654Y-100670835D01*
X186824231Y-100972560D01*
X186963141Y-101261008D01*
X186963345Y-101261366D01*
X186964031Y-101262425D01*
X187133480Y-101532101D01*
X187333097Y-101782413D01*
X187559486Y-102008802D01*
X187809798Y-102208419D01*
X188080886Y-102378755D01*
X188369341Y-102517668D01*
X188671536Y-102623410D01*
X188983670Y-102694653D01*
X188983678Y-102694653D01*
X188983683Y-102694655D01*
X189123559Y-102710414D01*
X189284419Y-102728539D01*
X189292020Y-102730500D01*
X189621983Y-102730500D01*
X189647481Y-102730500D01*
X189652615Y-102727696D01*
X189665085Y-102725642D01*
X189846072Y-102705250D01*
X189940114Y-102694655D01*
X189940117Y-102694654D01*
X189940128Y-102694653D01*
X190252262Y-102623410D01*
X190554457Y-102517668D01*
X190842912Y-102378755D01*
X191114000Y-102208419D01*
X191364312Y-102008802D01*
X191590701Y-101782413D01*
X191790318Y-101532101D01*
X191960654Y-101261013D01*
X192099567Y-100972558D01*
X192205309Y-100670363D01*
X192276552Y-100358229D01*
X192312399Y-100040081D01*
X192312399Y-99719919D01*
X192276552Y-99401771D01*
X192205309Y-99089637D01*
X192099567Y-98787442D01*
X191960654Y-98498987D01*
X191790318Y-98227899D01*
X191590701Y-97977587D01*
X191364312Y-97751198D01*
X191114000Y-97551581D01*
X190844324Y-97382132D01*
X190843265Y-97381446D01*
X190842907Y-97381242D01*
X190554459Y-97242332D01*
X190359243Y-97174023D01*
X190252700Y-97136743D01*
X190252270Y-97136590D01*
X190011370Y-97081607D01*
X189983713Y-97075294D01*
X189941387Y-97065634D01*
X189940348Y-97065385D01*
X189940133Y-97065347D01*
X189940115Y-97065345D01*
X189940115Y-97065343D01*
X189940034Y-97065329D01*
X189939924Y-97065323D01*
X189621988Y-97029500D01*
X189621984Y-97029500D01*
X189621980Y-97029500D01*
X189301818Y-97029500D01*
X189301813Y-97029500D01*
X189301808Y-97029500D01*
X188983694Y-97065342D01*
X188983664Y-97065347D01*
X188671523Y-97136591D01*
X188671062Y-97136755D01*
X188369337Y-97242332D01*
X188080890Y-97381241D01*
X187809796Y-97551581D01*
X187809794Y-97551582D01*
X187559492Y-97751190D01*
X187333089Y-97977593D01*
X187133481Y-98227895D01*
X187133480Y-98227897D01*
X186963140Y-98498991D01*
X186824231Y-98787438D01*
X186718654Y-99089163D01*
X186718490Y-99089624D01*
X186647246Y-99401765D01*
X186647241Y-99401795D01*
X186611399Y-99719909D01*
X182152459Y-99719909D01*
X182116613Y-99401771D01*
X182045370Y-99089637D01*
X181939628Y-98787442D01*
X181800715Y-98498987D01*
X181630379Y-98227899D01*
X181430762Y-97977587D01*
X181204373Y-97751198D01*
X180954061Y-97551581D01*
X180684385Y-97382132D01*
X180683326Y-97381446D01*
X180682968Y-97381242D01*
X180394520Y-97242332D01*
X180199304Y-97174023D01*
X180092761Y-97136743D01*
X180092331Y-97136590D01*
X179851431Y-97081607D01*
X179823774Y-97075294D01*
X179781448Y-97065634D01*
X179780409Y-97065385D01*
X179780194Y-97065347D01*
X179780176Y-97065345D01*
X179780176Y-97065343D01*
X179780095Y-97065329D01*
X179779985Y-97065323D01*
X179462049Y-97029500D01*
X179462045Y-97029500D01*
X179462041Y-97029500D01*
X179141879Y-97029500D01*
X179141874Y-97029500D01*
X179141869Y-97029500D01*
X178823755Y-97065342D01*
X178823725Y-97065347D01*
X178511584Y-97136591D01*
X178511123Y-97136755D01*
X178209398Y-97242332D01*
X177920951Y-97381241D01*
X177649857Y-97551581D01*
X177649855Y-97551582D01*
X177399553Y-97751190D01*
X177173150Y-97977593D01*
X176973542Y-98227895D01*
X176973541Y-98227897D01*
X176803201Y-98498991D01*
X176664292Y-98787438D01*
X176558715Y-99089163D01*
X176558551Y-99089624D01*
X176487307Y-99401765D01*
X176487302Y-99401795D01*
X176451460Y-99719909D01*
X152851537Y-99719909D01*
X152849351Y-93802146D01*
X167300000Y-93802146D01*
X167300000Y-93802155D01*
X167300000Y-94550000D01*
X167832961Y-94550000D01*
X167900000Y-94569685D01*
X167945755Y-94622489D01*
X167955699Y-94691647D01*
X167954578Y-94698193D01*
X167950000Y-94721206D01*
X167950000Y-94878793D01*
X167954578Y-94901807D01*
X167948351Y-94971399D01*
X167905489Y-95026577D01*
X167839599Y-95049822D01*
X167832961Y-95050000D01*
X167300000Y-95050000D01*
X167300000Y-95797852D01*
X167306400Y-95857370D01*
X167306402Y-95857377D01*
X167312881Y-95874748D01*
X167356645Y-95992086D01*
X167356649Y-95992093D01*
X167399487Y-96049317D01*
X167442807Y-96107185D01*
X167442808Y-96107186D01*
X167442809Y-96107187D01*
X167442812Y-96107190D01*
X167557906Y-96193350D01*
X167557913Y-96193354D01*
X167692620Y-96243596D01*
X167692627Y-96243598D01*
X167699468Y-96244333D01*
X167752138Y-96249998D01*
X167752155Y-96249999D01*
X167752172Y-96250000D01*
X168500000Y-96250000D01*
X168500000Y-95717039D01*
X168519685Y-95650000D01*
X168572489Y-95604245D01*
X168641647Y-95594301D01*
X168648181Y-95595420D01*
X168671207Y-95600000D01*
X168828793Y-95600000D01*
X168851808Y-95595422D01*
X168921399Y-95601649D01*
X168976577Y-95644511D01*
X168999822Y-95710401D01*
X169000000Y-95717039D01*
X169000000Y-96250000D01*
X169747828Y-96250000D01*
X169747836Y-96250000D01*
X169747847Y-96249999D01*
X169783560Y-96246158D01*
X169807372Y-96243598D01*
X169807379Y-96243596D01*
X169942086Y-96193354D01*
X169942089Y-96193352D01*
X169999756Y-96150183D01*
X169999757Y-96150182D01*
X170057190Y-96107186D01*
X170143350Y-95992093D01*
X170143354Y-95992086D01*
X170193596Y-95857379D01*
X170193598Y-95857372D01*
X170198510Y-95811694D01*
X170199998Y-95797860D01*
X170200000Y-95797827D01*
X170200000Y-95050000D01*
X169667039Y-95050000D01*
X169600000Y-95030315D01*
X169554245Y-94977511D01*
X169544301Y-94908353D01*
X169545422Y-94901807D01*
X169550000Y-94878793D01*
X169550000Y-94721206D01*
X169545422Y-94698193D01*
X169547364Y-94676487D01*
X181217599Y-94676487D01*
X181217599Y-94923511D01*
X181249836Y-95168367D01*
X181249839Y-95168390D01*
X181249841Y-95168397D01*
X181249841Y-95168398D01*
X181313769Y-95406985D01*
X181313772Y-95406995D01*
X181408011Y-95634505D01*
X181408271Y-95635143D01*
X181408295Y-95635193D01*
X181531797Y-95849105D01*
X181551474Y-95874748D01*
X181604495Y-95943847D01*
X181604496Y-95943847D01*
X182027150Y-95521192D01*
X182088471Y-95487709D01*
X182158162Y-95492693D01*
X182214096Y-95534564D01*
X182215146Y-95535988D01*
X182224724Y-95549171D01*
X182224728Y-95549175D01*
X182352724Y-95677171D01*
X182361313Y-95683411D01*
X182365908Y-95686750D01*
X182408573Y-95742081D01*
X182414551Y-95811694D01*
X182381944Y-95873489D01*
X182380702Y-95874748D01*
X181958050Y-96297399D01*
X181958050Y-96297401D01*
X182052795Y-96370103D01*
X182266704Y-96493602D01*
X182266748Y-96493624D01*
X182267301Y-96493849D01*
X182494912Y-96588129D01*
X182733499Y-96652057D01*
X182733510Y-96652059D01*
X182978387Y-96684299D01*
X182978402Y-96684300D01*
X183225384Y-96684300D01*
X183225396Y-96684300D01*
X183225410Y-96684299D01*
X183470287Y-96652059D01*
X183470298Y-96652057D01*
X183708885Y-96588129D01*
X183936632Y-96493792D01*
X183937053Y-96493621D01*
X183937089Y-96493603D01*
X183937095Y-96493601D01*
X184150999Y-96370103D01*
X184151016Y-96370092D01*
X184245746Y-96297402D01*
X184245746Y-96297400D01*
X183823094Y-95874748D01*
X183789609Y-95813425D01*
X183794593Y-95743733D01*
X183836465Y-95687800D01*
X183837889Y-95686750D01*
X183851074Y-95677171D01*
X183979070Y-95549175D01*
X183988646Y-95535993D01*
X184043973Y-95493327D01*
X184113586Y-95487345D01*
X184175383Y-95519948D01*
X184176646Y-95521194D01*
X184599299Y-95943847D01*
X184599301Y-95943847D01*
X184671991Y-95849117D01*
X184672002Y-95849100D01*
X184795500Y-95635196D01*
X184795504Y-95635186D01*
X184795520Y-95635154D01*
X184795691Y-95634733D01*
X184890028Y-95406986D01*
X184953956Y-95168399D01*
X184953958Y-95168388D01*
X184986198Y-94923511D01*
X184986199Y-94923497D01*
X184986199Y-94676502D01*
X184986198Y-94676488D01*
X184953958Y-94431611D01*
X184953956Y-94431600D01*
X184890028Y-94193013D01*
X184795748Y-93965402D01*
X184795523Y-93964849D01*
X184795501Y-93964805D01*
X184672002Y-93750896D01*
X184599300Y-93656151D01*
X184599299Y-93656151D01*
X184176647Y-94078803D01*
X184115324Y-94112288D01*
X184045632Y-94107304D01*
X183989699Y-94065432D01*
X183988647Y-94064006D01*
X183979073Y-94050828D01*
X183851070Y-93922825D01*
X183837887Y-93913247D01*
X183795222Y-93857916D01*
X183789244Y-93788302D01*
X183821851Y-93726508D01*
X183823019Y-93725323D01*
X184245746Y-93302597D01*
X184245746Y-93302596D01*
X184151005Y-93229899D01*
X184151006Y-93229899D01*
X184151004Y-93229898D01*
X183937092Y-93106396D01*
X183937042Y-93106372D01*
X183936404Y-93106112D01*
X183708894Y-93011873D01*
X183708887Y-93011871D01*
X183708885Y-93011870D01*
X183470298Y-92947942D01*
X183470292Y-92947941D01*
X183470289Y-92947940D01*
X183470266Y-92947937D01*
X183225411Y-92915700D01*
X183225410Y-92915700D01*
X182978387Y-92915700D01*
X182978386Y-92915700D01*
X182733530Y-92947937D01*
X182733507Y-92947940D01*
X182733501Y-92947941D01*
X182733499Y-92947942D01*
X182494912Y-93011870D01*
X182494902Y-93011873D01*
X182267392Y-93106112D01*
X182266762Y-93106368D01*
X182266704Y-93106396D01*
X182052801Y-93229892D01*
X182051664Y-93230697D01*
X182050133Y-93231940D01*
X181958050Y-93302596D01*
X181958049Y-93302596D01*
X182380704Y-93725251D01*
X182414189Y-93786574D01*
X182409205Y-93856266D01*
X182367333Y-93912199D01*
X182365909Y-93913249D01*
X182352730Y-93922824D01*
X182352721Y-93922831D01*
X182224730Y-94050822D01*
X182224723Y-94050831D01*
X182215148Y-94064010D01*
X182159818Y-94106676D01*
X182090205Y-94112654D01*
X182028410Y-94080048D01*
X182027150Y-94078805D01*
X181604496Y-93656151D01*
X181604495Y-93656151D01*
X181533839Y-93748234D01*
X181532596Y-93749765D01*
X181531791Y-93750902D01*
X181408295Y-93964805D01*
X181408267Y-93964863D01*
X181408011Y-93965493D01*
X181313772Y-94193003D01*
X181313769Y-94193013D01*
X181249841Y-94431600D01*
X181249841Y-94431601D01*
X181249839Y-94431608D01*
X181249836Y-94431631D01*
X181217599Y-94676487D01*
X169547364Y-94676487D01*
X169551649Y-94628601D01*
X169594511Y-94573423D01*
X169660401Y-94550178D01*
X169667039Y-94550000D01*
X170200000Y-94550000D01*
X170200000Y-93802172D01*
X170199998Y-93802138D01*
X170193598Y-93742628D01*
X170193596Y-93742621D01*
X170193596Y-93742620D01*
X170143354Y-93607913D01*
X170143350Y-93607906D01*
X170057190Y-93492812D01*
X170057187Y-93492809D01*
X170057185Y-93492807D01*
X170057176Y-93492800D01*
X169999756Y-93449815D01*
X169999755Y-93449815D01*
X169942095Y-93406650D01*
X169942089Y-93406647D01*
X169942089Y-93406646D01*
X169807377Y-93356402D01*
X169807370Y-93356400D01*
X169747852Y-93350000D01*
X169747844Y-93350000D01*
X169000000Y-93350000D01*
X169000000Y-93882960D01*
X168980315Y-93949999D01*
X168927511Y-93995754D01*
X168858353Y-94005698D01*
X168851811Y-94004578D01*
X168828793Y-94000000D01*
X168671207Y-94000000D01*
X168648189Y-94004578D01*
X168578597Y-93998349D01*
X168523421Y-93955485D01*
X168500178Y-93889594D01*
X168500000Y-93882960D01*
X168500000Y-93350000D01*
X167752155Y-93350000D01*
X167752146Y-93350000D01*
X167692628Y-93356400D01*
X167692621Y-93356402D01*
X167557910Y-93406646D01*
X167557907Y-93406648D01*
X167442813Y-93492807D01*
X167442807Y-93492813D01*
X167356648Y-93607907D01*
X167356646Y-93607910D01*
X167306402Y-93742621D01*
X167306400Y-93742628D01*
X167300000Y-93802146D01*
X152849351Y-93802146D01*
X152847784Y-89559909D01*
X176451460Y-89559909D01*
X176451460Y-89880089D01*
X176487302Y-90198203D01*
X176487307Y-90198233D01*
X176558550Y-90510371D01*
X176558715Y-90510835D01*
X176664292Y-90812560D01*
X176803202Y-91101008D01*
X176803406Y-91101366D01*
X176804092Y-91102425D01*
X176973541Y-91372101D01*
X177173158Y-91622413D01*
X177399547Y-91848802D01*
X177649859Y-92048419D01*
X177920947Y-92218755D01*
X178209402Y-92357668D01*
X178511597Y-92463410D01*
X178823731Y-92534653D01*
X178823739Y-92534653D01*
X178823744Y-92534655D01*
X178963620Y-92550414D01*
X179124480Y-92568539D01*
X179132081Y-92570500D01*
X179462044Y-92570500D01*
X179487542Y-92570500D01*
X179492676Y-92567696D01*
X179505146Y-92565642D01*
X179686133Y-92545250D01*
X179780175Y-92534655D01*
X179780178Y-92534654D01*
X179780189Y-92534653D01*
X180092323Y-92463410D01*
X180394518Y-92357668D01*
X180682973Y-92218755D01*
X180954061Y-92048419D01*
X181204373Y-91848802D01*
X181430762Y-91622413D01*
X181630379Y-91372101D01*
X181800715Y-91101013D01*
X181939628Y-90812558D01*
X182045370Y-90510363D01*
X182116613Y-90198229D01*
X182152460Y-89880081D01*
X182152460Y-89559919D01*
X182152459Y-89559909D01*
X186611399Y-89559909D01*
X186611399Y-89880089D01*
X186647241Y-90198203D01*
X186647246Y-90198233D01*
X186718489Y-90510371D01*
X186718654Y-90510835D01*
X186824231Y-90812560D01*
X186963141Y-91101008D01*
X186963345Y-91101366D01*
X186964031Y-91102425D01*
X187133480Y-91372101D01*
X187333097Y-91622413D01*
X187559486Y-91848802D01*
X187809798Y-92048419D01*
X188080886Y-92218755D01*
X188369341Y-92357668D01*
X188671536Y-92463410D01*
X188983670Y-92534653D01*
X188983678Y-92534653D01*
X188983683Y-92534655D01*
X189123559Y-92550414D01*
X189284419Y-92568539D01*
X189292020Y-92570500D01*
X189621983Y-92570500D01*
X189647481Y-92570500D01*
X189652615Y-92567696D01*
X189665085Y-92565642D01*
X189846072Y-92545250D01*
X189940114Y-92534655D01*
X189940117Y-92534654D01*
X189940128Y-92534653D01*
X190252262Y-92463410D01*
X190554457Y-92357668D01*
X190842912Y-92218755D01*
X191114000Y-92048419D01*
X191364312Y-91848802D01*
X191590701Y-91622413D01*
X191790318Y-91372101D01*
X191960654Y-91101013D01*
X192099567Y-90812558D01*
X192205309Y-90510363D01*
X192276552Y-90198229D01*
X192312399Y-89880081D01*
X192312399Y-89559919D01*
X192276552Y-89241771D01*
X192205309Y-88929637D01*
X192205304Y-88929624D01*
X192178984Y-88854406D01*
X192099567Y-88627442D01*
X192030110Y-88483214D01*
X192005725Y-88432577D01*
X191960658Y-88338994D01*
X191933062Y-88295075D01*
X191828117Y-88128056D01*
X191790318Y-88067899D01*
X191590701Y-87817587D01*
X191364317Y-87591202D01*
X191364302Y-87591190D01*
X191352014Y-87581391D01*
X191255133Y-87504131D01*
X191114000Y-87391581D01*
X190844324Y-87222132D01*
X190843265Y-87221446D01*
X190842907Y-87221242D01*
X190554459Y-87082332D01*
X190359243Y-87014023D01*
X190252700Y-86976743D01*
X190252270Y-86976590D01*
X190011370Y-86921607D01*
X189983713Y-86915294D01*
X189941387Y-86905634D01*
X189940348Y-86905385D01*
X189940133Y-86905347D01*
X189940115Y-86905345D01*
X189940115Y-86905343D01*
X189940034Y-86905329D01*
X189939924Y-86905323D01*
X189621988Y-86869500D01*
X189621984Y-86869500D01*
X189621980Y-86869500D01*
X189301818Y-86869500D01*
X189301813Y-86869500D01*
X189301808Y-86869500D01*
X188983694Y-86905342D01*
X188983664Y-86905347D01*
X188671523Y-86976591D01*
X188671062Y-86976755D01*
X188369337Y-87082332D01*
X188080890Y-87221241D01*
X187809796Y-87391581D01*
X187809794Y-87391582D01*
X187559492Y-87591190D01*
X187333089Y-87817593D01*
X187133481Y-88067895D01*
X187133480Y-88067897D01*
X186963140Y-88338991D01*
X186824231Y-88627438D01*
X186718654Y-88929163D01*
X186718490Y-88929624D01*
X186647246Y-89241765D01*
X186647241Y-89241795D01*
X186611399Y-89559909D01*
X182152459Y-89559909D01*
X182116613Y-89241771D01*
X182045370Y-88929637D01*
X182045365Y-88929624D01*
X182019045Y-88854406D01*
X181939628Y-88627442D01*
X181870171Y-88483214D01*
X181845786Y-88432577D01*
X181800719Y-88338994D01*
X181773123Y-88295075D01*
X181668178Y-88128056D01*
X181630379Y-88067899D01*
X181430762Y-87817587D01*
X181204378Y-87591202D01*
X181204363Y-87591190D01*
X181192075Y-87581391D01*
X181095194Y-87504131D01*
X180954061Y-87391581D01*
X180684385Y-87222132D01*
X180683326Y-87221446D01*
X180682968Y-87221242D01*
X180394520Y-87082332D01*
X180199304Y-87014023D01*
X180092761Y-86976743D01*
X180092331Y-86976590D01*
X179851431Y-86921607D01*
X179823774Y-86915294D01*
X179781448Y-86905634D01*
X179780409Y-86905385D01*
X179780194Y-86905347D01*
X179780176Y-86905345D01*
X179780176Y-86905343D01*
X179780095Y-86905329D01*
X179779985Y-86905323D01*
X179462049Y-86869500D01*
X179462045Y-86869500D01*
X179462041Y-86869500D01*
X179141879Y-86869500D01*
X179141874Y-86869500D01*
X179141869Y-86869500D01*
X178823755Y-86905342D01*
X178823725Y-86905347D01*
X178511584Y-86976591D01*
X178511123Y-86976755D01*
X178209398Y-87082332D01*
X177920951Y-87221241D01*
X177649857Y-87391581D01*
X177649855Y-87391582D01*
X177399553Y-87591190D01*
X177173150Y-87817593D01*
X176973542Y-88067895D01*
X176973541Y-88067897D01*
X176803201Y-88338991D01*
X176664292Y-88627438D01*
X176558715Y-88929163D01*
X176558551Y-88929624D01*
X176487307Y-89241765D01*
X176487302Y-89241795D01*
X176451460Y-89559909D01*
X152847784Y-89559909D01*
X152847053Y-87581385D01*
X153203000Y-87581385D01*
X153203000Y-87818613D01*
X153239731Y-88050523D01*
X153240106Y-88052890D01*
X153313409Y-88278491D01*
X153360675Y-88371254D01*
X153421098Y-88489840D01*
X153458646Y-88541519D01*
X153468187Y-88568259D01*
X153482329Y-88574117D01*
X153977422Y-88079024D01*
X154038745Y-88045539D01*
X154108436Y-88050523D01*
X154164370Y-88092394D01*
X154168206Y-88097815D01*
X154188413Y-88128058D01*
X154281941Y-88221586D01*
X154312182Y-88241792D01*
X154356987Y-88295404D01*
X154365695Y-88364729D01*
X154335541Y-88427757D01*
X154330973Y-88432576D01*
X153835880Y-88927668D01*
X153835881Y-88927668D01*
X153835881Y-88927669D01*
X153920159Y-88988901D01*
X154131508Y-89096590D01*
X154357109Y-89169893D01*
X154591392Y-89207000D01*
X154828607Y-89207000D01*
X154828608Y-89207000D01*
X155062890Y-89169893D01*
X155288491Y-89096590D01*
X155499839Y-88988902D01*
X155551520Y-88951351D01*
X155578259Y-88941810D01*
X155584117Y-88927668D01*
X155089025Y-88432577D01*
X155055540Y-88371254D01*
X155060524Y-88301563D01*
X155102395Y-88245629D01*
X155107817Y-88241793D01*
X155115642Y-88236563D01*
X155138056Y-88221588D01*
X155231588Y-88128056D01*
X155251793Y-88097817D01*
X155305404Y-88053011D01*
X155374729Y-88044302D01*
X155437757Y-88074456D01*
X155442577Y-88079025D01*
X155937668Y-88574117D01*
X155937668Y-88574116D01*
X155937669Y-88574117D01*
X155937669Y-88574116D01*
X155951137Y-88568537D01*
X155957354Y-88547368D01*
X155961352Y-88541520D01*
X155961353Y-88541519D01*
X155998902Y-88489839D01*
X156106590Y-88278491D01*
X156179893Y-88052890D01*
X156217000Y-87818608D01*
X156217000Y-87581391D01*
X156179893Y-87347109D01*
X156106590Y-87121508D01*
X155998901Y-86910159D01*
X155961350Y-86858476D01*
X155951810Y-86831738D01*
X155937668Y-86825880D01*
X155442576Y-87320973D01*
X155381253Y-87354458D01*
X155311561Y-87349474D01*
X155255628Y-87307602D01*
X155251792Y-87302182D01*
X155231586Y-87271941D01*
X155138056Y-87178411D01*
X155107813Y-87158204D01*
X155063008Y-87104592D01*
X155054301Y-87035267D01*
X155084455Y-86972240D01*
X155089023Y-86967421D01*
X155134838Y-86921607D01*
X155584117Y-86472329D01*
X155499840Y-86411098D01*
X155288491Y-86303409D01*
X155062890Y-86230106D01*
X155062888Y-86230105D01*
X155062886Y-86230105D01*
X154828613Y-86193000D01*
X154828608Y-86193000D01*
X154591392Y-86193000D01*
X154591387Y-86193000D01*
X154357112Y-86230105D01*
X154131509Y-86303408D01*
X154131496Y-86303414D01*
X153920161Y-86411096D01*
X153835881Y-86472328D01*
X153835881Y-86472329D01*
X154330974Y-86967422D01*
X154364459Y-87028745D01*
X154359475Y-87098437D01*
X154317603Y-87154370D01*
X154312186Y-87158204D01*
X154281942Y-87178412D01*
X154188412Y-87271942D01*
X154168204Y-87302186D01*
X154114591Y-87346990D01*
X154045266Y-87355696D01*
X153982239Y-87325540D01*
X153977422Y-87320974D01*
X153482329Y-86825881D01*
X153482328Y-86825882D01*
X153458647Y-86858477D01*
X153421096Y-86910161D01*
X153313414Y-87121496D01*
X153313408Y-87121509D01*
X153240105Y-87347112D01*
X153203000Y-87581385D01*
X152847053Y-87581385D01*
X152845012Y-82055872D01*
X164985600Y-82055872D01*
X164985600Y-82278526D01*
X165017513Y-82480017D01*
X165020426Y-82498406D01*
X165089225Y-82710145D01*
X165190296Y-82908507D01*
X165214940Y-82942426D01*
X165224481Y-82969165D01*
X165238623Y-82975023D01*
X165675426Y-82538219D01*
X165736747Y-82504736D01*
X165806438Y-82509720D01*
X165862372Y-82551591D01*
X165866207Y-82557011D01*
X165887033Y-82588179D01*
X165887036Y-82588183D01*
X165979016Y-82680163D01*
X165979020Y-82680166D01*
X166010186Y-82700991D01*
X166054991Y-82754603D01*
X166063698Y-82823928D01*
X166033543Y-82886956D01*
X166028976Y-82891774D01*
X165592174Y-83328574D01*
X165592175Y-83328575D01*
X165658692Y-83376903D01*
X165857054Y-83477974D01*
X166068793Y-83546773D01*
X166288679Y-83581600D01*
X166511320Y-83581600D01*
X166511321Y-83581600D01*
X166731206Y-83546773D01*
X166942945Y-83477974D01*
X167141307Y-83376903D01*
X167207822Y-83328575D01*
X166907247Y-83028000D01*
X176350000Y-83028000D01*
X176350000Y-83271998D01*
X176382624Y-83477974D01*
X176388165Y-83512959D01*
X176463560Y-83744998D01*
X176574323Y-83962380D01*
X176574325Y-83962383D01*
X176641537Y-84054895D01*
X176641543Y-84054901D01*
X176641544Y-84054902D01*
X177146876Y-83549569D01*
X177208197Y-83516086D01*
X177277888Y-83521070D01*
X177333822Y-83562941D01*
X177337657Y-83568362D01*
X177356272Y-83596222D01*
X177356278Y-83596229D01*
X177453770Y-83693721D01*
X177453777Y-83693727D01*
X177481635Y-83712341D01*
X177526441Y-83765953D01*
X177535148Y-83835278D01*
X177504994Y-83898305D01*
X177500426Y-83903124D01*
X176995096Y-84408452D01*
X176995095Y-84408454D01*
X176995097Y-84408456D01*
X177087619Y-84475676D01*
X177305001Y-84586439D01*
X177537040Y-84661834D01*
X177778007Y-84700000D01*
X178021992Y-84700000D01*
X178021993Y-84700000D01*
X178262959Y-84661834D01*
X178494998Y-84586439D01*
X178712377Y-84475678D01*
X178772305Y-84432136D01*
X178799044Y-84422595D01*
X178804902Y-84408453D01*
X178299572Y-83903124D01*
X178266087Y-83841801D01*
X178271071Y-83772110D01*
X178312942Y-83716176D01*
X178318323Y-83712368D01*
X178346224Y-83693726D01*
X178443726Y-83596224D01*
X178462342Y-83568361D01*
X178515950Y-83523559D01*
X178585274Y-83514849D01*
X178648303Y-83545002D01*
X178653124Y-83549572D01*
X179158453Y-84054902D01*
X179158453Y-84054901D01*
X179158454Y-84054902D01*
X179158454Y-84054901D01*
X179171922Y-84049322D01*
X179178139Y-84028152D01*
X179182127Y-84022317D01*
X179225678Y-83962377D01*
X179336439Y-83744998D01*
X179411834Y-83512959D01*
X179450000Y-83271993D01*
X179450000Y-83028006D01*
X179449999Y-83028000D01*
X186550000Y-83028000D01*
X186550000Y-83271998D01*
X186582624Y-83477974D01*
X186588165Y-83512959D01*
X186663560Y-83744998D01*
X186774323Y-83962380D01*
X186774325Y-83962383D01*
X186841537Y-84054895D01*
X186841543Y-84054901D01*
X186841544Y-84054902D01*
X187346876Y-83549569D01*
X187408197Y-83516086D01*
X187477888Y-83521070D01*
X187533822Y-83562941D01*
X187537657Y-83568362D01*
X187556272Y-83596222D01*
X187556278Y-83596229D01*
X187653770Y-83693721D01*
X187653777Y-83693727D01*
X187681635Y-83712341D01*
X187726441Y-83765953D01*
X187735148Y-83835278D01*
X187704994Y-83898305D01*
X187700426Y-83903124D01*
X187195096Y-84408452D01*
X187195095Y-84408454D01*
X187195097Y-84408456D01*
X187287619Y-84475676D01*
X187505001Y-84586439D01*
X187737040Y-84661834D01*
X187978007Y-84700000D01*
X188221992Y-84700000D01*
X188221993Y-84700000D01*
X188462959Y-84661834D01*
X188694998Y-84586439D01*
X188912377Y-84475678D01*
X188972305Y-84432136D01*
X188999044Y-84422595D01*
X189004902Y-84408453D01*
X188499572Y-83903124D01*
X188466087Y-83841801D01*
X188471071Y-83772110D01*
X188512942Y-83716176D01*
X188518323Y-83712368D01*
X188546224Y-83693726D01*
X188643726Y-83596224D01*
X188662342Y-83568361D01*
X188715950Y-83523559D01*
X188785274Y-83514849D01*
X188848303Y-83545002D01*
X188853124Y-83549572D01*
X189358453Y-84054902D01*
X189358453Y-84054901D01*
X189358454Y-84054902D01*
X189358454Y-84054901D01*
X189371922Y-84049322D01*
X189378139Y-84028152D01*
X189382127Y-84022317D01*
X189425678Y-83962377D01*
X189536439Y-83744998D01*
X189611834Y-83512959D01*
X189650000Y-83271993D01*
X189650000Y-83028006D01*
X189611834Y-82787040D01*
X189536439Y-82555001D01*
X189425676Y-82337619D01*
X189358456Y-82245097D01*
X189358454Y-82245096D01*
X189358453Y-82245095D01*
X188853123Y-82750425D01*
X188791800Y-82783910D01*
X188722108Y-82778926D01*
X188666175Y-82737054D01*
X188662343Y-82731639D01*
X188643726Y-82703776D01*
X188643721Y-82703771D01*
X188643721Y-82703770D01*
X188546229Y-82606278D01*
X188546222Y-82606272D01*
X188518362Y-82587657D01*
X188473556Y-82534045D01*
X188464849Y-82464720D01*
X188495003Y-82401693D01*
X188499571Y-82396874D01*
X189004902Y-81891544D01*
X189004895Y-81891537D01*
X188912383Y-81824325D01*
X188912382Y-81824324D01*
X188912380Y-81824323D01*
X188694998Y-81713560D01*
X188462959Y-81638165D01*
X188462953Y-81638164D01*
X188221998Y-81600000D01*
X188221993Y-81600000D01*
X187978007Y-81600000D01*
X187978002Y-81600000D01*
X187737045Y-81638164D01*
X187737043Y-81638164D01*
X187737040Y-81638165D01*
X187505001Y-81713560D01*
X187440911Y-81746216D01*
X187287629Y-81824317D01*
X187287626Y-81824318D01*
X187287626Y-81824319D01*
X187287618Y-81824325D01*
X187195097Y-81891544D01*
X187700428Y-82396874D01*
X187733913Y-82458197D01*
X187728929Y-82527888D01*
X187687058Y-82583822D01*
X187681639Y-82587656D01*
X187653776Y-82606273D01*
X187653770Y-82606278D01*
X187556278Y-82703770D01*
X187556271Y-82703779D01*
X187537655Y-82731639D01*
X187484042Y-82776443D01*
X187414717Y-82785149D01*
X187351690Y-82754993D01*
X187346874Y-82750427D01*
X186841544Y-82245097D01*
X186774319Y-82337626D01*
X186663560Y-82555001D01*
X186588165Y-82787040D01*
X186588164Y-82787043D01*
X186588164Y-82787045D01*
X186550000Y-83028000D01*
X179449999Y-83028000D01*
X179411834Y-82787040D01*
X179336439Y-82555001D01*
X179225676Y-82337619D01*
X179158456Y-82245097D01*
X179158454Y-82245096D01*
X179158453Y-82245095D01*
X178653123Y-82750425D01*
X178591800Y-82783910D01*
X178522108Y-82778926D01*
X178466175Y-82737054D01*
X178462343Y-82731639D01*
X178443726Y-82703776D01*
X178443721Y-82703771D01*
X178443721Y-82703770D01*
X178346229Y-82606278D01*
X178346222Y-82606272D01*
X178318362Y-82587657D01*
X178273556Y-82534045D01*
X178264849Y-82464720D01*
X178295003Y-82401693D01*
X178299571Y-82396874D01*
X178804902Y-81891544D01*
X178804895Y-81891537D01*
X178712383Y-81824325D01*
X178712382Y-81824324D01*
X178712380Y-81824323D01*
X178494998Y-81713560D01*
X178262959Y-81638165D01*
X178262953Y-81638164D01*
X178021998Y-81600000D01*
X178021993Y-81600000D01*
X177778007Y-81600000D01*
X177778002Y-81600000D01*
X177537045Y-81638164D01*
X177537043Y-81638164D01*
X177537040Y-81638165D01*
X177305001Y-81713560D01*
X177240911Y-81746216D01*
X177087629Y-81824317D01*
X177087626Y-81824318D01*
X177087626Y-81824319D01*
X177087618Y-81824325D01*
X176995097Y-81891544D01*
X177500428Y-82396874D01*
X177533913Y-82458197D01*
X177528929Y-82527888D01*
X177487058Y-82583822D01*
X177481639Y-82587656D01*
X177453776Y-82606273D01*
X177453770Y-82606278D01*
X177356278Y-82703770D01*
X177356271Y-82703779D01*
X177337655Y-82731639D01*
X177284042Y-82776443D01*
X177214717Y-82785149D01*
X177151690Y-82754993D01*
X177146874Y-82750427D01*
X176641544Y-82245097D01*
X176574319Y-82337626D01*
X176463560Y-82555001D01*
X176388165Y-82787040D01*
X176388164Y-82787043D01*
X176388164Y-82787045D01*
X176350000Y-83028000D01*
X166907247Y-83028000D01*
X166771021Y-82891774D01*
X166737537Y-82830452D01*
X166742521Y-82760760D01*
X166784393Y-82704827D01*
X166789813Y-82700992D01*
X166810227Y-82687350D01*
X166820980Y-82680166D01*
X166912966Y-82588180D01*
X166933792Y-82557010D01*
X166987401Y-82512208D01*
X167056725Y-82503499D01*
X167119754Y-82533653D01*
X167124574Y-82538222D01*
X167561374Y-82975023D01*
X167561374Y-82975022D01*
X167561375Y-82975023D01*
X167561375Y-82975022D01*
X167574844Y-82969443D01*
X167581060Y-82948275D01*
X167585059Y-82942426D01*
X167585060Y-82942425D01*
X167609701Y-82908511D01*
X167609702Y-82908509D01*
X167710774Y-82710145D01*
X167779573Y-82498406D01*
X167814400Y-82278521D01*
X167814400Y-82055878D01*
X167798929Y-81958201D01*
X167779573Y-81835993D01*
X167710774Y-81624254D01*
X167609703Y-81425892D01*
X167609701Y-81425889D01*
X167609700Y-81425887D01*
X167585058Y-81391971D01*
X167575517Y-81365233D01*
X167561374Y-81359374D01*
X167124574Y-81796176D01*
X167063251Y-81829661D01*
X166993560Y-81824677D01*
X166937626Y-81782806D01*
X166933791Y-81777386D01*
X166912966Y-81746220D01*
X166912963Y-81746216D01*
X166820983Y-81654236D01*
X166820979Y-81654233D01*
X166789811Y-81633407D01*
X166745006Y-81579795D01*
X166736299Y-81510470D01*
X166766454Y-81447442D01*
X166771021Y-81442624D01*
X167207823Y-81005823D01*
X167141307Y-80957496D01*
X166942947Y-80856426D01*
X166942946Y-80856425D01*
X166942945Y-80856425D01*
X166731206Y-80787626D01*
X166731204Y-80787625D01*
X166731202Y-80787625D01*
X166511326Y-80752800D01*
X166511321Y-80752800D01*
X166288679Y-80752800D01*
X166288674Y-80752800D01*
X166068796Y-80787625D01*
X165857056Y-80856424D01*
X165658692Y-80957496D01*
X165658690Y-80957497D01*
X165592177Y-81005821D01*
X165592175Y-81005823D01*
X166028977Y-81442625D01*
X166062462Y-81503948D01*
X166057478Y-81573639D01*
X166015607Y-81629573D01*
X166010188Y-81633408D01*
X165979016Y-81654236D01*
X165887036Y-81746216D01*
X165866208Y-81777388D01*
X165812595Y-81822192D01*
X165743270Y-81830899D01*
X165680243Y-81800744D01*
X165675425Y-81796177D01*
X165238624Y-81359375D01*
X165238623Y-81359375D01*
X165190297Y-81425890D01*
X165190296Y-81425892D01*
X165089224Y-81624256D01*
X165020425Y-81835996D01*
X164985600Y-82055872D01*
X152845012Y-82055872D01*
X152832156Y-47246946D01*
X163485100Y-47246946D01*
X163485100Y-49218652D01*
X163500404Y-49432638D01*
X163561226Y-49712230D01*
X163561228Y-49712237D01*
X163623321Y-49878715D01*
X163661235Y-49980367D01*
X163661237Y-49980371D01*
X163745336Y-50134385D01*
X163798370Y-50231509D01*
X163798374Y-50231515D01*
X163798377Y-50231520D01*
X163969848Y-50460580D01*
X163969861Y-50460596D01*
X164172202Y-50662937D01*
X164172218Y-50662950D01*
X164398761Y-50832536D01*
X164401282Y-50834424D01*
X164401290Y-50834429D01*
X164652433Y-50971564D01*
X164652432Y-50971564D01*
X164652436Y-50971565D01*
X164652439Y-50971567D01*
X164914369Y-51069262D01*
X164915893Y-51069925D01*
X164919426Y-51071170D01*
X164919444Y-51071176D01*
X164920464Y-51071535D01*
X164920554Y-51071569D01*
X164920560Y-51071570D01*
X164920562Y-51071571D01*
X164920569Y-51071572D01*
X164921036Y-51071737D01*
X164923510Y-51072212D01*
X165200166Y-51132395D01*
X165200168Y-51132395D01*
X165200172Y-51132396D01*
X165200177Y-51132396D01*
X165200484Y-51132463D01*
X165202362Y-51132632D01*
X165204574Y-51132711D01*
X165241114Y-51135324D01*
X165414152Y-51147700D01*
X167385848Y-51147700D01*
X167599828Y-51132396D01*
X167601695Y-51131990D01*
X167879437Y-51071571D01*
X167879437Y-51071570D01*
X167879446Y-51071569D01*
X168147561Y-50971567D01*
X168398715Y-50834426D01*
X168627795Y-50662939D01*
X168830139Y-50460595D01*
X169001626Y-50231515D01*
X169138767Y-49980361D01*
X169238769Y-49712246D01*
X169238771Y-49712237D01*
X169299595Y-49432633D01*
X169299595Y-49432632D01*
X169299596Y-49432628D01*
X169314900Y-49218648D01*
X169314900Y-47246952D01*
X169299596Y-47032972D01*
X169289253Y-46985428D01*
X169289185Y-46985117D01*
X169269545Y-46894831D01*
X169239412Y-46756310D01*
X169238937Y-46753836D01*
X169238772Y-46753368D01*
X169238771Y-46753362D01*
X169238770Y-46753360D01*
X169238769Y-46753354D01*
X169238735Y-46753264D01*
X169238376Y-46752244D01*
X169238375Y-46752242D01*
X169238370Y-46752226D01*
X169237125Y-46748693D01*
X169236462Y-46747169D01*
X169142888Y-46496289D01*
X169138767Y-46485239D01*
X169138760Y-46485227D01*
X169106770Y-46426641D01*
X169001626Y-46234085D01*
X169001624Y-46234082D01*
X169001619Y-46234075D01*
X169001615Y-46234069D01*
X168830150Y-46005019D01*
X168830137Y-46005002D01*
X168627796Y-45802661D01*
X168627780Y-45802648D01*
X168398720Y-45631177D01*
X168398718Y-45631176D01*
X168398717Y-45631175D01*
X168398709Y-45631170D01*
X168333175Y-45595386D01*
X168230753Y-45539458D01*
X168230746Y-45539455D01*
X168147566Y-45494035D01*
X168147567Y-45494035D01*
X168014782Y-45444509D01*
X167879446Y-45394031D01*
X167879441Y-45394029D01*
X167879438Y-45394028D01*
X167599838Y-45333204D01*
X167385852Y-45317900D01*
X167385850Y-45317900D01*
X167385848Y-45317900D01*
X165414152Y-45317900D01*
X165414149Y-45317900D01*
X165414146Y-45317900D01*
X165200160Y-45333204D01*
X164920568Y-45394026D01*
X164920563Y-45394027D01*
X164920562Y-45394028D01*
X164855734Y-45418207D01*
X164652431Y-45494035D01*
X164652427Y-45494037D01*
X164401299Y-45631165D01*
X164401278Y-45631177D01*
X164172218Y-45802648D01*
X164172202Y-45802661D01*
X163969861Y-46005002D01*
X163969848Y-46005018D01*
X163798377Y-46234078D01*
X163798365Y-46234099D01*
X163661237Y-46485227D01*
X163661235Y-46485231D01*
X163657111Y-46496289D01*
X163562970Y-46748693D01*
X163561226Y-46753368D01*
X163500404Y-47032960D01*
X163485100Y-47246946D01*
X152832156Y-47246946D01*
X152831380Y-45145914D01*
X152851040Y-45078869D01*
X152903827Y-45033095D01*
X152972982Y-45023126D01*
X153021351Y-45040875D01*
X153252923Y-45186382D01*
X153557266Y-45332946D01*
X153663545Y-45370135D01*
X153876068Y-45444501D01*
X153876089Y-45444508D01*
X153876093Y-45444509D01*
X153876105Y-45444513D01*
X154205431Y-45519679D01*
X154205439Y-45519679D01*
X154205444Y-45519681D01*
X154366673Y-45537846D01*
X154523701Y-45555538D01*
X154531304Y-45557500D01*
X154878901Y-45557500D01*
X154904399Y-45557500D01*
X154909533Y-45554696D01*
X154922002Y-45552642D01*
X155118027Y-45530556D01*
X155214555Y-45519681D01*
X155214561Y-45519679D01*
X155214569Y-45519679D01*
X155543895Y-45444513D01*
X155862734Y-45332946D01*
X156167077Y-45186382D01*
X156453096Y-45006664D01*
X156717195Y-44796052D01*
X156956052Y-44557195D01*
X156978899Y-44528546D01*
X174849500Y-44528546D01*
X174849500Y-46771452D01*
X174864804Y-46985438D01*
X174925626Y-47265030D01*
X174925628Y-47265037D01*
X174982686Y-47418016D01*
X175025635Y-47533167D01*
X175025637Y-47533171D01*
X175109030Y-47685892D01*
X175162770Y-47784309D01*
X175162774Y-47784315D01*
X175162777Y-47784320D01*
X175334248Y-48013380D01*
X175334261Y-48013396D01*
X175536602Y-48215737D01*
X175536618Y-48215750D01*
X175681326Y-48324076D01*
X175765682Y-48387224D01*
X175765690Y-48387229D01*
X176016833Y-48524364D01*
X176016832Y-48524364D01*
X176016836Y-48524365D01*
X176016839Y-48524367D01*
X176278769Y-48622062D01*
X176280293Y-48622725D01*
X176283826Y-48623970D01*
X176283844Y-48623976D01*
X176284864Y-48624335D01*
X176284954Y-48624369D01*
X176284960Y-48624370D01*
X176284962Y-48624371D01*
X176284969Y-48624372D01*
X176285436Y-48624537D01*
X176287910Y-48625012D01*
X176564566Y-48685195D01*
X176564568Y-48685195D01*
X176564572Y-48685196D01*
X176564577Y-48685196D01*
X176564884Y-48685263D01*
X176566762Y-48685432D01*
X176568974Y-48685511D01*
X176605514Y-48688124D01*
X176778552Y-48700500D01*
X179021448Y-48700500D01*
X179235428Y-48685196D01*
X179341411Y-48662141D01*
X179508775Y-48625733D01*
X179510498Y-48625451D01*
X179513826Y-48624658D01*
X179516219Y-48624113D01*
X179537073Y-48619577D01*
X179546907Y-48612485D01*
X179783161Y-48524367D01*
X180034315Y-48387226D01*
X180263395Y-48215739D01*
X180465739Y-48013395D01*
X180637226Y-47784315D01*
X180774367Y-47533161D01*
X180874369Y-47265046D01*
X180874373Y-47265030D01*
X180904202Y-47127907D01*
X180904202Y-47127905D01*
X180935195Y-46985433D01*
X180935195Y-46985432D01*
X180935196Y-46985428D01*
X180935196Y-46985423D01*
X180935263Y-46985117D01*
X180935432Y-46983226D01*
X180935511Y-46981025D01*
X180936997Y-46960240D01*
X180950500Y-46771448D01*
X180950500Y-45478674D01*
X185049500Y-45478674D01*
X185049500Y-45821324D01*
X185087856Y-46161753D01*
X185087859Y-46161776D01*
X185087865Y-46161801D01*
X185164104Y-46495826D01*
X185164268Y-46496289D01*
X185277264Y-46819217D01*
X185425921Y-47127905D01*
X185426125Y-47128263D01*
X185426811Y-47129322D01*
X185608211Y-47418018D01*
X185821834Y-47685893D01*
X186064107Y-47928166D01*
X186331982Y-48141789D01*
X186622090Y-48324076D01*
X186930785Y-48472736D01*
X187254183Y-48585897D01*
X187588217Y-48662139D01*
X187588226Y-48662140D01*
X187588231Y-48662141D01*
X187588249Y-48662143D01*
X187792849Y-48685195D01*
X187792848Y-48685195D01*
X187812977Y-48687462D01*
X187925686Y-48700161D01*
X187928151Y-48700500D01*
X188271315Y-48700500D01*
X188281110Y-48700500D01*
X188288710Y-48698539D01*
X188445311Y-48680895D01*
X188611768Y-48662141D01*
X188611771Y-48662140D01*
X188611783Y-48662139D01*
X188611799Y-48662135D01*
X188611802Y-48662135D01*
X188612454Y-48661989D01*
X188616903Y-48661008D01*
X188617633Y-48660803D01*
X188945817Y-48585897D01*
X189269215Y-48472736D01*
X189577910Y-48324076D01*
X189868018Y-48141789D01*
X190135893Y-47928166D01*
X190378166Y-47685893D01*
X190591789Y-47418018D01*
X190774076Y-47127910D01*
X190922736Y-46819215D01*
X191035897Y-46495817D01*
X191112139Y-46161783D01*
X191112143Y-46161753D01*
X191130895Y-45995311D01*
X191150500Y-45821312D01*
X191150500Y-45478688D01*
X191117566Y-45186382D01*
X191112141Y-45138231D01*
X191112140Y-45138226D01*
X191112139Y-45138217D01*
X191035897Y-44804183D01*
X190922736Y-44480785D01*
X190774076Y-44172090D01*
X190591789Y-43881982D01*
X190378166Y-43614107D01*
X190135893Y-43371834D01*
X189868018Y-43158211D01*
X189579322Y-42976811D01*
X189578263Y-42976125D01*
X189577905Y-42975921D01*
X189269217Y-42827264D01*
X189060400Y-42754196D01*
X188946244Y-42714252D01*
X188945826Y-42714104D01*
X188777261Y-42675630D01*
X188688024Y-42655262D01*
X188688023Y-42655261D01*
X188612954Y-42638128D01*
X188611935Y-42637885D01*
X188611770Y-42637858D01*
X188611750Y-42637855D01*
X188271324Y-42599500D01*
X188271318Y-42599500D01*
X188271312Y-42599500D01*
X187928688Y-42599500D01*
X187928681Y-42599500D01*
X187928674Y-42599500D01*
X187588245Y-42637856D01*
X187588222Y-42637859D01*
X187588197Y-42637865D01*
X187254168Y-42714104D01*
X187253709Y-42714268D01*
X186930781Y-42827264D01*
X186622094Y-42975920D01*
X186331980Y-43158211D01*
X186331978Y-43158212D01*
X186064113Y-43371826D01*
X185821826Y-43614113D01*
X185608212Y-43881978D01*
X185608211Y-43881980D01*
X185425922Y-44172092D01*
X185277264Y-44480781D01*
X185164268Y-44803709D01*
X185164104Y-44804168D01*
X185087865Y-45138197D01*
X185087859Y-45138222D01*
X185087856Y-45138245D01*
X185049500Y-45478674D01*
X180950500Y-45478674D01*
X180950500Y-44528552D01*
X180935196Y-44314572D01*
X180904201Y-44172092D01*
X180875010Y-44037903D01*
X180874536Y-44035435D01*
X180874372Y-44034968D01*
X180874371Y-44034962D01*
X180874370Y-44034960D01*
X180874369Y-44034954D01*
X180874328Y-44034844D01*
X180873976Y-44033844D01*
X180873975Y-44033842D01*
X180873970Y-44033826D01*
X180872725Y-44030293D01*
X180872062Y-44028769D01*
X180863970Y-44007074D01*
X180774367Y-43766839D01*
X180774360Y-43766827D01*
X180637229Y-43515690D01*
X180637224Y-43515682D01*
X180538578Y-43383906D01*
X180465745Y-43286612D01*
X180465738Y-43286604D01*
X180465737Y-43286602D01*
X180263396Y-43084261D01*
X180263380Y-43084248D01*
X180034320Y-42912777D01*
X180034318Y-42912776D01*
X180034317Y-42912775D01*
X180034309Y-42912770D01*
X179950923Y-42867237D01*
X179861646Y-42818488D01*
X179839888Y-42796790D01*
X179618190Y-42714102D01*
X179525489Y-42679526D01*
X179525488Y-42679525D01*
X179515046Y-42675631D01*
X179515044Y-42675630D01*
X179515040Y-42675629D01*
X179503641Y-42673149D01*
X179499484Y-42671936D01*
X179495763Y-42669553D01*
X179474795Y-42661732D01*
X179468395Y-42658237D01*
X179451132Y-42640972D01*
X179440645Y-42634257D01*
X179437448Y-42627288D01*
X179418991Y-42608829D01*
X179404142Y-42540556D01*
X179428562Y-42475093D01*
X179482134Y-42434133D01*
X179487548Y-42431987D01*
X179519355Y-42424041D01*
X179659695Y-42408229D01*
X179780175Y-42394655D01*
X179780178Y-42394654D01*
X179780189Y-42394653D01*
X179780213Y-42394647D01*
X179780818Y-42394512D01*
X179785310Y-42393522D01*
X179786047Y-42393315D01*
X180092323Y-42323410D01*
X180394518Y-42217668D01*
X180682973Y-42078755D01*
X180954061Y-41908419D01*
X181204373Y-41708802D01*
X181430762Y-41482413D01*
X181630379Y-41232101D01*
X181800715Y-40961013D01*
X181939628Y-40672558D01*
X182045370Y-40370363D01*
X182116613Y-40058229D01*
X182152460Y-39740081D01*
X182152460Y-39419919D01*
X182152459Y-39419909D01*
X186611399Y-39419909D01*
X186611399Y-39740089D01*
X186647241Y-40058203D01*
X186647246Y-40058233D01*
X186718489Y-40370371D01*
X186718654Y-40370835D01*
X186824231Y-40672560D01*
X186963141Y-40961008D01*
X186963345Y-40961366D01*
X186964031Y-40962425D01*
X187133480Y-41232101D01*
X187333097Y-41482413D01*
X187559486Y-41708802D01*
X187809798Y-41908419D01*
X188080886Y-42078755D01*
X188369341Y-42217668D01*
X188671536Y-42323410D01*
X188983670Y-42394653D01*
X188983678Y-42394653D01*
X188983683Y-42394655D01*
X189123559Y-42410414D01*
X189284419Y-42428539D01*
X189292020Y-42430500D01*
X189621983Y-42430500D01*
X189647481Y-42430500D01*
X189652615Y-42427696D01*
X189665085Y-42425642D01*
X189846072Y-42405250D01*
X189940114Y-42394655D01*
X189940117Y-42394654D01*
X189940128Y-42394653D01*
X190252262Y-42323410D01*
X190554457Y-42217668D01*
X190842912Y-42078755D01*
X191114000Y-41908419D01*
X191364312Y-41708802D01*
X191590701Y-41482413D01*
X191790318Y-41232101D01*
X191960654Y-40961013D01*
X192099567Y-40672558D01*
X192205309Y-40370363D01*
X192276552Y-40058229D01*
X192312399Y-39740081D01*
X192312399Y-39419919D01*
X192276552Y-39101771D01*
X192205309Y-38789637D01*
X192099567Y-38487442D01*
X191960654Y-38198987D01*
X191790318Y-37927899D01*
X191590701Y-37677587D01*
X191364312Y-37451198D01*
X191364302Y-37451190D01*
X191364300Y-37451188D01*
X191363427Y-37450492D01*
X191363409Y-37450478D01*
X191267971Y-37374369D01*
X191253068Y-37362484D01*
X191114000Y-37251581D01*
X190844324Y-37082132D01*
X190843265Y-37081446D01*
X190842907Y-37081242D01*
X190554459Y-36942332D01*
X190359243Y-36874023D01*
X190252700Y-36836743D01*
X190252270Y-36836590D01*
X189986074Y-36775834D01*
X189941375Y-36765631D01*
X189940343Y-36765384D01*
X189940133Y-36765347D01*
X189940115Y-36765345D01*
X189940115Y-36765343D01*
X189940034Y-36765329D01*
X189939924Y-36765323D01*
X189621988Y-36729500D01*
X189621984Y-36729500D01*
X189621980Y-36729500D01*
X189301818Y-36729500D01*
X189301813Y-36729500D01*
X189301808Y-36729500D01*
X188983694Y-36765342D01*
X188983664Y-36765347D01*
X188671523Y-36836591D01*
X188671062Y-36836755D01*
X188369337Y-36942332D01*
X188080890Y-37081241D01*
X187809796Y-37251581D01*
X187809794Y-37251582D01*
X187559492Y-37451190D01*
X187333089Y-37677593D01*
X187133481Y-37927895D01*
X187133480Y-37927897D01*
X186963140Y-38198991D01*
X186824231Y-38487438D01*
X186718654Y-38789163D01*
X186718490Y-38789624D01*
X186647246Y-39101765D01*
X186647241Y-39101795D01*
X186611399Y-39419909D01*
X182152459Y-39419909D01*
X182116613Y-39101771D01*
X182045370Y-38789637D01*
X181939628Y-38487442D01*
X181800715Y-38198987D01*
X181630379Y-37927899D01*
X181493151Y-37755820D01*
X181477782Y-37718175D01*
X181464210Y-37689941D01*
X181467717Y-37661589D01*
X181467843Y-37657787D01*
X181469086Y-37650454D01*
X181469095Y-37650455D01*
X181472789Y-37620600D01*
X181517494Y-37566905D01*
X181584133Y-37545903D01*
X181619160Y-37550237D01*
X181623926Y-37551535D01*
X181649793Y-37561818D01*
X181652957Y-37563509D01*
X181652965Y-37563513D01*
X181960219Y-37690782D01*
X182278468Y-37787321D01*
X182278474Y-37787322D01*
X182278477Y-37787323D01*
X182278488Y-37787326D01*
X182278496Y-37787327D01*
X182279051Y-37787458D01*
X182280323Y-37787691D01*
X182482971Y-37827999D01*
X182482991Y-37828002D01*
X182483013Y-37828007D01*
X182604647Y-37852202D01*
X182935614Y-37884800D01*
X182935617Y-37884800D01*
X183268181Y-37884800D01*
X183268184Y-37884800D01*
X183599151Y-37852202D01*
X183760599Y-37820087D01*
X183919473Y-37788486D01*
X183919532Y-37788478D01*
X183923971Y-37787592D01*
X183925309Y-37787326D01*
X183925315Y-37787324D01*
X183925598Y-37787268D01*
X183927067Y-37786845D01*
X183955594Y-37779065D01*
X183957315Y-37777802D01*
X183963554Y-37775725D01*
X184243579Y-37690782D01*
X184550833Y-37563513D01*
X184844133Y-37406741D01*
X185120654Y-37221976D01*
X185377733Y-37010996D01*
X185612895Y-36775834D01*
X185823875Y-36518755D01*
X186008640Y-36242234D01*
X186165412Y-35948934D01*
X186292681Y-35641680D01*
X186389220Y-35323431D01*
X186389222Y-35323421D01*
X186389225Y-35323410D01*
X186421986Y-35158700D01*
X186454101Y-34997252D01*
X186486699Y-34666285D01*
X186486699Y-34333715D01*
X186454101Y-34002748D01*
X186429906Y-33881114D01*
X186389589Y-33678419D01*
X186389357Y-33677152D01*
X186389224Y-33676586D01*
X186389222Y-33676578D01*
X186389221Y-33676575D01*
X186389220Y-33676569D01*
X186292681Y-33358320D01*
X186165412Y-33051066D01*
X186165405Y-33051052D01*
X186130075Y-32984955D01*
X186130073Y-32984953D01*
X186009443Y-32759269D01*
X186009014Y-32758440D01*
X186008641Y-32757767D01*
X185823872Y-32481241D01*
X185823870Y-32481239D01*
X185613384Y-32224762D01*
X185613384Y-32224761D01*
X185612886Y-32224155D01*
X185377743Y-31989012D01*
X185292135Y-31918755D01*
X185121965Y-31779099D01*
X185120977Y-31778266D01*
X185120660Y-31778028D01*
X185120655Y-31778025D01*
X184844147Y-31593268D01*
X184844142Y-31593265D01*
X184844133Y-31593259D01*
X184844128Y-31593256D01*
X184844121Y-31593252D01*
X184844112Y-31593247D01*
X184844105Y-31593243D01*
X184674707Y-31502698D01*
X184550840Y-31436490D01*
X184550835Y-31436488D01*
X184550830Y-31436486D01*
X184550829Y-31436485D01*
X184550731Y-31436440D01*
X184550152Y-31436204D01*
X184408958Y-31377720D01*
X184408957Y-31377720D01*
X184243585Y-31309219D01*
X183925317Y-31212674D01*
X183925292Y-31212668D01*
X183599182Y-31147803D01*
X183599167Y-31147800D01*
X183599133Y-31147795D01*
X183348863Y-31123146D01*
X183348863Y-31123145D01*
X183281459Y-31116507D01*
X183268184Y-31115200D01*
X183268182Y-31115200D01*
X182935616Y-31115200D01*
X182935614Y-31115200D01*
X182924269Y-31116317D01*
X182860996Y-31122548D01*
X182860997Y-31122549D01*
X182604663Y-31147795D01*
X182604629Y-31147800D01*
X182604614Y-31147803D01*
X182278504Y-31212668D01*
X182278479Y-31212674D01*
X181960211Y-31309219D01*
X181660677Y-31433292D01*
X181660665Y-31433297D01*
X181658906Y-31434026D01*
X181652965Y-31436487D01*
X181649517Y-31438329D01*
X181645718Y-31440045D01*
X181641421Y-31440643D01*
X181619974Y-31448423D01*
X181610846Y-31450323D01*
X181586188Y-31448336D01*
X181576517Y-31449684D01*
X181570943Y-31447108D01*
X181541202Y-31444713D01*
X181485647Y-31402341D01*
X181461818Y-31336660D01*
X181473826Y-31275190D01*
X181475970Y-31270731D01*
X181490766Y-31247168D01*
X181630379Y-31072101D01*
X181800715Y-30801013D01*
X181939628Y-30512558D01*
X182045370Y-30210363D01*
X182116613Y-29898229D01*
X182152460Y-29580081D01*
X182152460Y-29259919D01*
X182152459Y-29259909D01*
X186611399Y-29259909D01*
X186611399Y-29580089D01*
X186647241Y-29898203D01*
X186647246Y-29898233D01*
X186718489Y-30210371D01*
X186718654Y-30210835D01*
X186824231Y-30512560D01*
X186963141Y-30801008D01*
X186963345Y-30801366D01*
X186964031Y-30802425D01*
X187133480Y-31072101D01*
X187333097Y-31322413D01*
X187559486Y-31548802D01*
X187809798Y-31748419D01*
X188080886Y-31918755D01*
X188369341Y-32057668D01*
X188671536Y-32163410D01*
X188983670Y-32234653D01*
X188983678Y-32234653D01*
X188983683Y-32234655D01*
X189123559Y-32250414D01*
X189284419Y-32268539D01*
X189292020Y-32270500D01*
X189621983Y-32270500D01*
X189647481Y-32270500D01*
X189652615Y-32267696D01*
X189665085Y-32265642D01*
X189846072Y-32245250D01*
X189940114Y-32234655D01*
X189940117Y-32234654D01*
X189940128Y-32234653D01*
X190252262Y-32163410D01*
X190554457Y-32057668D01*
X190842912Y-31918755D01*
X191114000Y-31748419D01*
X191364312Y-31548802D01*
X191590701Y-31322413D01*
X191790318Y-31072101D01*
X191960654Y-30801013D01*
X192099567Y-30512558D01*
X192205309Y-30210363D01*
X192276552Y-29898229D01*
X192312399Y-29580081D01*
X192312399Y-29259919D01*
X192276552Y-28941771D01*
X192205309Y-28629637D01*
X192099567Y-28327442D01*
X191960654Y-28038987D01*
X191790318Y-27767899D01*
X191590701Y-27517587D01*
X191364312Y-27291198D01*
X191114000Y-27091581D01*
X190844324Y-26922132D01*
X190843265Y-26921446D01*
X190842907Y-26921242D01*
X190554459Y-26782332D01*
X190359243Y-26714023D01*
X190252700Y-26676743D01*
X190252270Y-26676590D01*
X190011370Y-26621607D01*
X189983713Y-26615294D01*
X189941387Y-26605634D01*
X189940348Y-26605385D01*
X189940133Y-26605347D01*
X189940115Y-26605345D01*
X189940115Y-26605343D01*
X189940034Y-26605329D01*
X189939924Y-26605323D01*
X189621988Y-26569500D01*
X189621984Y-26569500D01*
X189621980Y-26569500D01*
X189301818Y-26569500D01*
X189301813Y-26569500D01*
X189301808Y-26569500D01*
X188983694Y-26605342D01*
X188983664Y-26605347D01*
X188671523Y-26676591D01*
X188671062Y-26676755D01*
X188369337Y-26782332D01*
X188080890Y-26921241D01*
X187809796Y-27091581D01*
X187809794Y-27091582D01*
X187559492Y-27291190D01*
X187333089Y-27517593D01*
X187133481Y-27767895D01*
X187133480Y-27767897D01*
X186963140Y-28038991D01*
X186824231Y-28327438D01*
X186718654Y-28629163D01*
X186718490Y-28629624D01*
X186647246Y-28941765D01*
X186647241Y-28941795D01*
X186611399Y-29259909D01*
X182152459Y-29259909D01*
X182116613Y-28941771D01*
X182045370Y-28629637D01*
X181939628Y-28327442D01*
X181800715Y-28038987D01*
X181630379Y-27767899D01*
X181430762Y-27517587D01*
X181204373Y-27291198D01*
X180954061Y-27091581D01*
X180684385Y-26922132D01*
X180683326Y-26921446D01*
X180682968Y-26921242D01*
X180394520Y-26782332D01*
X180199304Y-26714023D01*
X180092761Y-26676743D01*
X180092331Y-26676590D01*
X179851431Y-26621607D01*
X179823774Y-26615294D01*
X179781448Y-26605634D01*
X179780409Y-26605385D01*
X179780194Y-26605347D01*
X179780176Y-26605345D01*
X179780176Y-26605343D01*
X179780095Y-26605329D01*
X179779985Y-26605323D01*
X179462049Y-26569500D01*
X179462045Y-26569500D01*
X179462041Y-26569500D01*
X179141879Y-26569500D01*
X179141874Y-26569500D01*
X179141869Y-26569500D01*
X178823755Y-26605342D01*
X178823725Y-26605347D01*
X178511584Y-26676591D01*
X178511123Y-26676755D01*
X178209398Y-26782332D01*
X177920951Y-26921241D01*
X177649857Y-27091581D01*
X177649855Y-27091582D01*
X177399553Y-27291190D01*
X177173150Y-27517593D01*
X176973542Y-27767895D01*
X176973541Y-27767897D01*
X176803201Y-28038991D01*
X176664292Y-28327438D01*
X176558715Y-28629163D01*
X176558551Y-28629624D01*
X176487307Y-28941765D01*
X176487302Y-28941795D01*
X176451460Y-29259909D01*
X176451460Y-29580089D01*
X176487302Y-29898203D01*
X176487307Y-29898233D01*
X176558550Y-30210371D01*
X176558715Y-30210835D01*
X176664292Y-30512560D01*
X176803202Y-30801008D01*
X176803406Y-30801366D01*
X176804092Y-30802425D01*
X176973541Y-31072101D01*
X177173158Y-31322413D01*
X177399547Y-31548802D01*
X177649859Y-31748419D01*
X177920947Y-31918755D01*
X178209402Y-32057668D01*
X178511597Y-32163410D01*
X178823731Y-32234653D01*
X178823739Y-32234653D01*
X178823744Y-32234655D01*
X178963620Y-32250414D01*
X179124480Y-32268539D01*
X179132081Y-32270500D01*
X179462044Y-32270500D01*
X179487542Y-32270500D01*
X179492676Y-32267696D01*
X179505146Y-32265642D01*
X179686133Y-32245250D01*
X179780175Y-32234655D01*
X179780178Y-32234654D01*
X179780189Y-32234653D01*
X180092323Y-32163410D01*
X180394518Y-32057668D01*
X180423304Y-32043804D01*
X180463202Y-32037233D01*
X180492841Y-32030048D01*
X180512231Y-32036762D01*
X180514067Y-32037159D01*
X180521801Y-32039574D01*
X180521659Y-32040027D01*
X180558864Y-32052912D01*
X180602046Y-32107841D01*
X180608675Y-32177395D01*
X180597126Y-32210746D01*
X180595047Y-32214777D01*
X180580694Y-32236603D01*
X180392680Y-32465699D01*
X180379927Y-32481239D01*
X180379917Y-32481253D01*
X180269676Y-32646239D01*
X180195160Y-32757761D01*
X180195157Y-32757767D01*
X180195146Y-32757786D01*
X180038392Y-33051052D01*
X180038339Y-33051166D01*
X180038105Y-33051741D01*
X179911118Y-33358312D01*
X179814573Y-33676580D01*
X179814567Y-33676605D01*
X179749702Y-34002715D01*
X179749699Y-34002730D01*
X179749695Y-34002758D01*
X179717099Y-34333718D01*
X179717099Y-34666281D01*
X179735325Y-34851339D01*
X179749694Y-34997234D01*
X179749699Y-34997268D01*
X179749702Y-34997283D01*
X179814567Y-35323393D01*
X179814573Y-35323418D01*
X179911118Y-35641686D01*
X180038105Y-35948257D01*
X180038340Y-35948836D01*
X180038385Y-35948931D01*
X180038387Y-35948936D01*
X180038389Y-35948941D01*
X180195151Y-36242222D01*
X180195162Y-36242240D01*
X180379917Y-36518746D01*
X180379927Y-36518760D01*
X180392697Y-36534320D01*
X180577714Y-36759764D01*
X180593528Y-36797001D01*
X180607506Y-36824111D01*
X180605560Y-36844488D01*
X180605609Y-36846327D01*
X180605093Y-36854412D01*
X180604616Y-36854381D01*
X180600867Y-36893664D01*
X180557678Y-36948587D01*
X180491652Y-36971441D01*
X180456523Y-36968088D01*
X180452114Y-36967019D01*
X180427545Y-36958235D01*
X180394529Y-36942336D01*
X180394525Y-36942334D01*
X180394520Y-36942332D01*
X180092761Y-36836743D01*
X180092331Y-36836590D01*
X179826135Y-36775834D01*
X179781436Y-36765631D01*
X179780404Y-36765384D01*
X179780194Y-36765347D01*
X179780176Y-36765345D01*
X179780176Y-36765343D01*
X179780095Y-36765329D01*
X179779985Y-36765323D01*
X179462049Y-36729500D01*
X179462045Y-36729500D01*
X179462041Y-36729500D01*
X179141879Y-36729500D01*
X179141874Y-36729500D01*
X179141869Y-36729500D01*
X178823755Y-36765342D01*
X178823725Y-36765347D01*
X178511584Y-36836591D01*
X178511123Y-36836755D01*
X178209398Y-36942332D01*
X177920951Y-37081241D01*
X177649857Y-37251581D01*
X177649855Y-37251582D01*
X177399553Y-37451190D01*
X177173150Y-37677593D01*
X176973542Y-37927895D01*
X176973541Y-37927897D01*
X176803201Y-38198991D01*
X176664292Y-38487438D01*
X176558715Y-38789163D01*
X176558551Y-38789624D01*
X176487307Y-39101765D01*
X176487302Y-39101795D01*
X176451460Y-39419909D01*
X176451460Y-39740089D01*
X176487302Y-40058203D01*
X176487307Y-40058233D01*
X176558550Y-40370371D01*
X176558715Y-40370835D01*
X176664292Y-40672560D01*
X176803202Y-40961008D01*
X176803406Y-40961366D01*
X176804092Y-40962425D01*
X176973541Y-41232101D01*
X177173158Y-41482413D01*
X177399547Y-41708802D01*
X177649859Y-41908419D01*
X177920947Y-42078755D01*
X178209402Y-42217668D01*
X178511597Y-42323410D01*
X178630904Y-42350641D01*
X178666723Y-42370676D01*
X178697191Y-42387708D01*
X178702919Y-42398450D01*
X178706970Y-42403480D01*
X178709575Y-42407448D01*
X178708198Y-42408351D01*
X178730065Y-42449361D01*
X178724388Y-42519000D01*
X178681963Y-42574515D01*
X178650820Y-42591121D01*
X178648984Y-42591785D01*
X178648092Y-42592107D01*
X178605917Y-42599500D01*
X176778546Y-42599500D01*
X176564560Y-42614804D01*
X176284968Y-42675626D01*
X176284963Y-42675627D01*
X176284962Y-42675628D01*
X176220134Y-42699807D01*
X176016831Y-42775635D01*
X176016827Y-42775637D01*
X175765699Y-42912765D01*
X175765678Y-42912777D01*
X175536618Y-43084248D01*
X175536602Y-43084261D01*
X175334261Y-43286602D01*
X175334248Y-43286618D01*
X175162777Y-43515678D01*
X175162765Y-43515699D01*
X175025637Y-43766827D01*
X175025635Y-43766831D01*
X174982686Y-43881983D01*
X174927370Y-44030293D01*
X174925626Y-44034968D01*
X174864804Y-44314560D01*
X174849500Y-44528546D01*
X156978899Y-44528546D01*
X157166664Y-44293096D01*
X157346382Y-44007077D01*
X157492946Y-43702734D01*
X157604513Y-43383895D01*
X157679679Y-43054569D01*
X157717500Y-42718898D01*
X157717500Y-42381102D01*
X157679679Y-42045431D01*
X157604513Y-41716105D01*
X157492946Y-41397266D01*
X157346382Y-41092923D01*
X157166664Y-40806904D01*
X156956052Y-40542805D01*
X156717195Y-40303948D01*
X156453096Y-40093336D01*
X156168489Y-39914505D01*
X156167430Y-39913819D01*
X156167072Y-39913615D01*
X156136843Y-39899057D01*
X155862741Y-39767057D01*
X155862732Y-39767053D01*
X155862721Y-39767048D01*
X155543930Y-39655497D01*
X155543909Y-39655490D01*
X155543897Y-39655487D01*
X155543894Y-39655486D01*
X155456367Y-39635508D01*
X155214566Y-39580319D01*
X154878906Y-39542500D01*
X154878902Y-39542500D01*
X154878898Y-39542500D01*
X154541102Y-39542500D01*
X154541097Y-39542500D01*
X154541092Y-39542500D01*
X154205432Y-39580319D01*
X153876105Y-39655486D01*
X153876089Y-39655490D01*
X153876068Y-39655497D01*
X153557277Y-39767048D01*
X153557262Y-39767054D01*
X153557260Y-39767055D01*
X153252930Y-39913612D01*
X153019435Y-40060327D01*
X152952198Y-40079327D01*
X152885363Y-40058959D01*
X152840149Y-40005691D01*
X152829463Y-39955381D01*
X152827071Y-33478546D01*
X165799500Y-33478546D01*
X165799500Y-35521452D01*
X165814804Y-35735438D01*
X165875626Y-36015030D01*
X165875628Y-36015037D01*
X165937721Y-36181515D01*
X165975635Y-36283167D01*
X165975637Y-36283171D01*
X166059736Y-36437185D01*
X166112770Y-36534309D01*
X166112774Y-36534315D01*
X166112777Y-36534320D01*
X166284248Y-36763380D01*
X166284261Y-36763396D01*
X166486602Y-36965737D01*
X166486618Y-36965750D01*
X166641171Y-37081446D01*
X166715682Y-37137224D01*
X166715690Y-37137229D01*
X166966833Y-37274364D01*
X166966832Y-37274364D01*
X166966836Y-37274365D01*
X166966839Y-37274367D01*
X167228769Y-37372062D01*
X167230293Y-37372725D01*
X167233826Y-37373970D01*
X167233844Y-37373976D01*
X167234864Y-37374335D01*
X167234954Y-37374369D01*
X167234960Y-37374370D01*
X167234962Y-37374371D01*
X167234969Y-37374372D01*
X167235436Y-37374537D01*
X167237910Y-37375012D01*
X167514566Y-37435195D01*
X167514568Y-37435195D01*
X167514572Y-37435196D01*
X167514577Y-37435196D01*
X167514884Y-37435263D01*
X167516762Y-37435432D01*
X167518974Y-37435511D01*
X167555514Y-37438124D01*
X167728552Y-37450500D01*
X169771448Y-37450500D01*
X169985428Y-37435196D01*
X170116207Y-37406747D01*
X170265037Y-37374371D01*
X170265037Y-37374370D01*
X170265046Y-37374369D01*
X170265052Y-37374366D01*
X170266172Y-37374123D01*
X170266219Y-37374113D01*
X170287073Y-37369577D01*
X170296907Y-37362485D01*
X170533161Y-37274367D01*
X170784315Y-37137226D01*
X171013395Y-36965739D01*
X171215739Y-36763395D01*
X171387226Y-36534315D01*
X171524367Y-36283161D01*
X171624369Y-36015046D01*
X171624371Y-36015037D01*
X171685195Y-35735433D01*
X171685195Y-35735432D01*
X171685196Y-35735428D01*
X171700500Y-35521448D01*
X171700500Y-33478552D01*
X171685196Y-33264572D01*
X171685193Y-33264560D01*
X171624371Y-32984962D01*
X171624370Y-32984960D01*
X171624369Y-32984954D01*
X171524367Y-32716839D01*
X171395722Y-32481245D01*
X171387229Y-32465690D01*
X171387224Y-32465682D01*
X171385336Y-32463161D01*
X171215750Y-32236618D01*
X171215737Y-32236602D01*
X171013396Y-32034261D01*
X171013380Y-32034248D01*
X170784320Y-31862777D01*
X170784318Y-31862776D01*
X170784317Y-31862775D01*
X170784309Y-31862770D01*
X170700923Y-31817237D01*
X170611646Y-31768488D01*
X170589985Y-31746827D01*
X170425915Y-31685632D01*
X170265041Y-31625629D01*
X170265038Y-31625628D01*
X169985438Y-31564804D01*
X169771452Y-31549500D01*
X169771450Y-31549500D01*
X169771448Y-31549500D01*
X167728552Y-31549500D01*
X167728549Y-31549500D01*
X167728546Y-31549500D01*
X167514560Y-31564804D01*
X167234968Y-31625626D01*
X167234963Y-31625627D01*
X167234962Y-31625628D01*
X167170134Y-31649807D01*
X166966831Y-31725635D01*
X166966827Y-31725637D01*
X166715699Y-31862765D01*
X166715678Y-31862777D01*
X166486618Y-32034248D01*
X166486602Y-32034261D01*
X166284261Y-32236602D01*
X166284248Y-32236618D01*
X166112777Y-32465678D01*
X166112765Y-32465699D01*
X165975637Y-32716827D01*
X165975635Y-32716831D01*
X165960360Y-32757786D01*
X165875632Y-32984953D01*
X165875626Y-32984968D01*
X165814804Y-33264560D01*
X165799500Y-33478546D01*
X152827071Y-33478546D01*
X152826889Y-32984968D01*
X152824273Y-25899759D01*
X152823754Y-24493707D01*
X189649500Y-24493707D01*
X189649500Y-24706291D01*
X189682752Y-24916239D01*
X189748445Y-25118418D01*
X189841532Y-25301111D01*
X189844951Y-25307820D01*
X189969890Y-25479786D01*
X189969892Y-25479788D01*
X190120216Y-25630112D01*
X190292169Y-25755042D01*
X190292177Y-25755047D01*
X190292179Y-25755048D01*
X190292181Y-25755049D01*
X190292182Y-25755050D01*
X190292200Y-25755060D01*
X190292442Y-25755182D01*
X190481588Y-25851557D01*
X190683757Y-25917246D01*
X190893713Y-25950500D01*
X190893714Y-25950500D01*
X191106286Y-25950500D01*
X191106287Y-25950500D01*
X191316243Y-25917246D01*
X191518412Y-25851557D01*
X191707816Y-25755051D01*
X191729789Y-25739086D01*
X191879786Y-25630109D01*
X191879786Y-25630108D01*
X191879844Y-25630066D01*
X191880605Y-25629290D01*
X192030104Y-25479792D01*
X192030106Y-25479788D01*
X192030109Y-25479786D01*
X192155048Y-25307820D01*
X192155047Y-25307820D01*
X192155051Y-25307816D01*
X192155053Y-25307810D01*
X192175445Y-25279744D01*
X192183730Y-25251529D01*
X192251557Y-25118412D01*
X192317246Y-24916243D01*
X192350500Y-24706287D01*
X192350500Y-24493713D01*
X192317246Y-24283757D01*
X192251557Y-24081588D01*
X192155051Y-23892184D01*
X192155049Y-23892181D01*
X192155048Y-23892179D01*
X192154702Y-23891703D01*
X192154700Y-23891699D01*
X192030112Y-23720216D01*
X191879788Y-23569892D01*
X191879786Y-23569890D01*
X191707820Y-23444951D01*
X191694167Y-23437994D01*
X191540245Y-23359567D01*
X191540240Y-23359565D01*
X191518414Y-23348444D01*
X191518413Y-23348443D01*
X191518412Y-23348443D01*
X191421550Y-23316970D01*
X191325074Y-23285623D01*
X191320552Y-23283770D01*
X191311362Y-23281600D01*
X191306599Y-23281226D01*
X191154957Y-23257208D01*
X191135489Y-23254124D01*
X191106290Y-23249500D01*
X191106287Y-23249500D01*
X190893713Y-23249500D01*
X190893709Y-23249500D01*
X190854776Y-23255666D01*
X190845042Y-23257208D01*
X190807654Y-23263129D01*
X190683763Y-23282752D01*
X190481582Y-23348445D01*
X190292182Y-23444949D01*
X190120210Y-23569892D01*
X189969892Y-23720210D01*
X189844949Y-23892182D01*
X189748445Y-24081580D01*
X189682752Y-24283759D01*
X189649500Y-24493707D01*
X152823754Y-24493707D01*
X152823752Y-24488887D01*
X152822157Y-20174546D01*
X152841817Y-20107499D01*
X152894604Y-20061725D01*
X152946157Y-20050500D01*
X195857670Y-20050500D01*
X195892606Y-20055523D01*
G37*
%TD.AperFunction*%
%TD*%
%TA.AperFunction,Conductor*%
%TO.N,GND_ISO_LBHS*%
G36*
X150759697Y-20070185D02*
G01*
X150805452Y-20122989D01*
X150816657Y-20174453D01*
X150818773Y-25900500D01*
X150849621Y-109425454D01*
X150829961Y-109492501D01*
X150777174Y-109538275D01*
X150725621Y-109549500D01*
X104124500Y-109549500D01*
X104057461Y-109529815D01*
X104011706Y-109477011D01*
X104000500Y-109425500D01*
X104000500Y-104643713D01*
X107399500Y-104643713D01*
X107399500Y-104856286D01*
X107432753Y-105066239D01*
X107498444Y-105268414D01*
X107594951Y-105457820D01*
X107719890Y-105629786D01*
X107870213Y-105780109D01*
X108042179Y-105905048D01*
X108042181Y-105905049D01*
X108042184Y-105905051D01*
X108231588Y-106001557D01*
X108433757Y-106067246D01*
X108643713Y-106100500D01*
X108643714Y-106100500D01*
X108856286Y-106100500D01*
X108856287Y-106100500D01*
X109066243Y-106067246D01*
X109268412Y-106001557D01*
X109457816Y-105905051D01*
X109479789Y-105889086D01*
X109629786Y-105780109D01*
X109629788Y-105780106D01*
X109629792Y-105780104D01*
X109780104Y-105629792D01*
X109780106Y-105629788D01*
X109780109Y-105629786D01*
X109905048Y-105457820D01*
X109905047Y-105457820D01*
X109905051Y-105457816D01*
X110001557Y-105268412D01*
X110067246Y-105066243D01*
X110100500Y-104856287D01*
X110100500Y-104643713D01*
X110067246Y-104433757D01*
X110001557Y-104231588D01*
X109905051Y-104042184D01*
X109905049Y-104042181D01*
X109905048Y-104042179D01*
X109780109Y-103870213D01*
X109629786Y-103719890D01*
X109457820Y-103594951D01*
X109268414Y-103498444D01*
X109268413Y-103498443D01*
X109268412Y-103498443D01*
X109066243Y-103432754D01*
X109066241Y-103432753D01*
X109066240Y-103432753D01*
X108904957Y-103407208D01*
X108856287Y-103399500D01*
X108643713Y-103399500D01*
X108595042Y-103407208D01*
X108433760Y-103432753D01*
X108231585Y-103498444D01*
X108042179Y-103594951D01*
X107870213Y-103719890D01*
X107719890Y-103870213D01*
X107594951Y-104042179D01*
X107498444Y-104231585D01*
X107432753Y-104433760D01*
X107399500Y-104643713D01*
X104000500Y-104643713D01*
X104000500Y-86645155D01*
X123993000Y-86645155D01*
X123993000Y-87450000D01*
X124876727Y-87450000D01*
X124854305Y-87504131D01*
X124828500Y-87633863D01*
X124828500Y-87766137D01*
X124854305Y-87895869D01*
X124876727Y-87950000D01*
X123993000Y-87950000D01*
X123993000Y-88754844D01*
X123999401Y-88814372D01*
X123999403Y-88814379D01*
X124049645Y-88949086D01*
X124049649Y-88949093D01*
X124135809Y-89064187D01*
X124135812Y-89064190D01*
X124250906Y-89150350D01*
X124250913Y-89150354D01*
X124385620Y-89200596D01*
X124385627Y-89200598D01*
X124445155Y-89206999D01*
X124445172Y-89207000D01*
X125250000Y-89207000D01*
X125250000Y-88323272D01*
X125304131Y-88345695D01*
X125433863Y-88371500D01*
X125566137Y-88371500D01*
X125695869Y-88345695D01*
X125750000Y-88323272D01*
X125750000Y-89207000D01*
X126554828Y-89207000D01*
X126554844Y-89206999D01*
X126614372Y-89200598D01*
X126614379Y-89200596D01*
X126749086Y-89150354D01*
X126749093Y-89150350D01*
X126864187Y-89064190D01*
X126864190Y-89064187D01*
X126950350Y-88949093D01*
X126950354Y-88949086D01*
X127000596Y-88814379D01*
X127000598Y-88814372D01*
X127006999Y-88754844D01*
X127007000Y-88754827D01*
X127007000Y-87950000D01*
X126123273Y-87950000D01*
X126145695Y-87895869D01*
X126171500Y-87766137D01*
X126171500Y-87633863D01*
X126145695Y-87504131D01*
X126123273Y-87450000D01*
X127007000Y-87450000D01*
X127007000Y-86645172D01*
X127006999Y-86645155D01*
X127000598Y-86585627D01*
X127000596Y-86585620D01*
X126950354Y-86450913D01*
X126950350Y-86450906D01*
X126864190Y-86335812D01*
X126864187Y-86335809D01*
X126749093Y-86249649D01*
X126749086Y-86249645D01*
X126614379Y-86199403D01*
X126614372Y-86199401D01*
X126554844Y-86193000D01*
X125750000Y-86193000D01*
X125750000Y-87076727D01*
X125695869Y-87054305D01*
X125566137Y-87028500D01*
X125433863Y-87028500D01*
X125304131Y-87054305D01*
X125250000Y-87076727D01*
X125250000Y-86193000D01*
X124445155Y-86193000D01*
X124385627Y-86199401D01*
X124385620Y-86199403D01*
X124250913Y-86249645D01*
X124250906Y-86249649D01*
X124135812Y-86335809D01*
X124135809Y-86335812D01*
X124049649Y-86450906D01*
X124049645Y-86450913D01*
X123999403Y-86585620D01*
X123999401Y-86585627D01*
X123993000Y-86645155D01*
X104000500Y-86645155D01*
X104000500Y-66293429D01*
X105072201Y-66293429D01*
X105072201Y-66606572D01*
X105107257Y-66917712D01*
X105107260Y-66917730D01*
X105176937Y-67223006D01*
X105176941Y-67223018D01*
X105280356Y-67518558D01*
X105280365Y-67518580D01*
X105416217Y-67800680D01*
X105468588Y-67884028D01*
X105487588Y-67951265D01*
X105468588Y-68015971D01*
X105416222Y-68099312D01*
X105416217Y-68099320D01*
X105280365Y-68381420D01*
X105280356Y-68381442D01*
X105176941Y-68676982D01*
X105176937Y-68676994D01*
X105107260Y-68982270D01*
X105107257Y-68982288D01*
X105072201Y-69293428D01*
X105072201Y-69606571D01*
X105107257Y-69917711D01*
X105107260Y-69917729D01*
X105176937Y-70223005D01*
X105176941Y-70223017D01*
X105280356Y-70518557D01*
X105280365Y-70518579D01*
X105416217Y-70800679D01*
X105416221Y-70800685D01*
X105582816Y-71065820D01*
X105778050Y-71310635D01*
X105999466Y-71532051D01*
X106244281Y-71727285D01*
X106509416Y-71893880D01*
X106509421Y-71893883D01*
X106791521Y-72029735D01*
X106791530Y-72029738D01*
X106791537Y-72029742D01*
X106791543Y-72029744D01*
X107087083Y-72133159D01*
X107087095Y-72133163D01*
X107392375Y-72202841D01*
X107392381Y-72202841D01*
X107392389Y-72202843D01*
X107599815Y-72226213D01*
X107703530Y-72237899D01*
X107703533Y-72237900D01*
X107703536Y-72237900D01*
X108016669Y-72237900D01*
X108016670Y-72237899D01*
X108175688Y-72219982D01*
X108327812Y-72202843D01*
X108327817Y-72202842D01*
X108327827Y-72202841D01*
X108633107Y-72133163D01*
X108928665Y-72029742D01*
X109056301Y-71968275D01*
X109125240Y-71956924D01*
X109163899Y-71968274D01*
X109291537Y-72029742D01*
X109291543Y-72029744D01*
X109587083Y-72133159D01*
X109587095Y-72133163D01*
X109892375Y-72202841D01*
X109892381Y-72202841D01*
X109892389Y-72202843D01*
X110099815Y-72226213D01*
X110203530Y-72237899D01*
X110203533Y-72237900D01*
X110203536Y-72237900D01*
X110516669Y-72237900D01*
X110516670Y-72237899D01*
X110675688Y-72219982D01*
X110827812Y-72202843D01*
X110827817Y-72202842D01*
X110827827Y-72202841D01*
X111133107Y-72133163D01*
X111428665Y-72029742D01*
X111556301Y-71968275D01*
X111625240Y-71956924D01*
X111663899Y-71968274D01*
X111791537Y-72029742D01*
X111791543Y-72029744D01*
X112087083Y-72133159D01*
X112087095Y-72133163D01*
X112392375Y-72202841D01*
X112392381Y-72202841D01*
X112392389Y-72202843D01*
X112599815Y-72226213D01*
X112703530Y-72237899D01*
X112703533Y-72237900D01*
X112703536Y-72237900D01*
X113016669Y-72237900D01*
X113016670Y-72237899D01*
X113175688Y-72219982D01*
X113327812Y-72202843D01*
X113327817Y-72202842D01*
X113327827Y-72202841D01*
X113633107Y-72133163D01*
X113928665Y-72029742D01*
X114056301Y-71968275D01*
X114125240Y-71956924D01*
X114163899Y-71968274D01*
X114291537Y-72029742D01*
X114291543Y-72029744D01*
X114587083Y-72133159D01*
X114587095Y-72133163D01*
X114892375Y-72202841D01*
X114892381Y-72202841D01*
X114892389Y-72202843D01*
X115099815Y-72226213D01*
X115203530Y-72237899D01*
X115203533Y-72237900D01*
X115203536Y-72237900D01*
X115516669Y-72237900D01*
X115516670Y-72237899D01*
X115675688Y-72219982D01*
X115827812Y-72202843D01*
X115827817Y-72202842D01*
X115827827Y-72202841D01*
X116133107Y-72133163D01*
X116428665Y-72029742D01*
X116556301Y-71968275D01*
X116625240Y-71956924D01*
X116663899Y-71968274D01*
X116791537Y-72029742D01*
X116791543Y-72029744D01*
X117087083Y-72133159D01*
X117087095Y-72133163D01*
X117392375Y-72202841D01*
X117392381Y-72202841D01*
X117392389Y-72202843D01*
X117599815Y-72226213D01*
X117703530Y-72237899D01*
X117703533Y-72237900D01*
X117703536Y-72237900D01*
X118016669Y-72237900D01*
X118016670Y-72237899D01*
X118175688Y-72219982D01*
X118327812Y-72202843D01*
X118327817Y-72202842D01*
X118327827Y-72202841D01*
X118633107Y-72133163D01*
X118928665Y-72029742D01*
X119079874Y-71956924D01*
X119210780Y-71893883D01*
X119210780Y-71893882D01*
X119210786Y-71893880D01*
X119475921Y-71727285D01*
X119720736Y-71532051D01*
X119942152Y-71310635D01*
X120137386Y-71065820D01*
X120303981Y-70800685D01*
X120439843Y-70518564D01*
X120543264Y-70223006D01*
X120612942Y-69917726D01*
X120648001Y-69606565D01*
X120648001Y-69293435D01*
X120612942Y-68982274D01*
X120543264Y-68676994D01*
X120439843Y-68381436D01*
X120439839Y-68381429D01*
X120439836Y-68381420D01*
X120303984Y-68099320D01*
X120251613Y-68015972D01*
X120232613Y-67948735D01*
X120251614Y-67884027D01*
X120254193Y-67879921D01*
X120303981Y-67800686D01*
X120439843Y-67518565D01*
X120543264Y-67223007D01*
X120612942Y-66917727D01*
X120648001Y-66606566D01*
X120648001Y-66293436D01*
X120612942Y-65982275D01*
X120543264Y-65676995D01*
X120439843Y-65381437D01*
X120439839Y-65381430D01*
X120439836Y-65381421D01*
X120303984Y-65099321D01*
X120303981Y-65099316D01*
X120137386Y-64834181D01*
X119942152Y-64589366D01*
X119720736Y-64367950D01*
X119475921Y-64172716D01*
X119210786Y-64006121D01*
X119210785Y-64006120D01*
X119207840Y-64004270D01*
X119208397Y-64003382D01*
X119162352Y-63956842D01*
X119147501Y-63897998D01*
X119147501Y-63848680D01*
X119115801Y-63648537D01*
X119053179Y-63455808D01*
X118961183Y-63275255D01*
X118930554Y-63233100D01*
X118489186Y-63674468D01*
X118427863Y-63707953D01*
X118373915Y-63707679D01*
X118355184Y-63703404D01*
X118330376Y-63697741D01*
X118286927Y-63622486D01*
X118187616Y-63523175D01*
X118065986Y-63452951D01*
X118016781Y-63439766D01*
X118577001Y-62879546D01*
X118534845Y-62848917D01*
X118354293Y-62756922D01*
X118161564Y-62694300D01*
X118161565Y-62694300D01*
X117961421Y-62662601D01*
X117758781Y-62662601D01*
X117558637Y-62694300D01*
X117365908Y-62756922D01*
X117185351Y-62848920D01*
X117143200Y-62879545D01*
X117143199Y-62879546D01*
X117703420Y-63439766D01*
X117654216Y-63452951D01*
X117532586Y-63523175D01*
X117433275Y-63622486D01*
X117389825Y-63697741D01*
X117346284Y-63707679D01*
X117276545Y-63703404D01*
X117231014Y-63674468D01*
X116789646Y-63233099D01*
X116789645Y-63233100D01*
X116759020Y-63275252D01*
X116720586Y-63350683D01*
X116672611Y-63401479D01*
X116604790Y-63418274D01*
X116538655Y-63395737D01*
X116499616Y-63350683D01*
X116461183Y-63275255D01*
X116430554Y-63233100D01*
X115989186Y-63674468D01*
X115927863Y-63707953D01*
X115873915Y-63707679D01*
X115855184Y-63703404D01*
X115830376Y-63697741D01*
X115786927Y-63622486D01*
X115687616Y-63523175D01*
X115565986Y-63452951D01*
X115516781Y-63439766D01*
X116077001Y-62879546D01*
X116034845Y-62848917D01*
X115854293Y-62756922D01*
X115661564Y-62694300D01*
X115661565Y-62694300D01*
X115461421Y-62662601D01*
X115258781Y-62662601D01*
X115058637Y-62694300D01*
X114865908Y-62756922D01*
X114685351Y-62848920D01*
X114643200Y-62879545D01*
X114643199Y-62879546D01*
X115203420Y-63439766D01*
X115154216Y-63452951D01*
X115032586Y-63523175D01*
X114933275Y-63622486D01*
X114889825Y-63697741D01*
X114846284Y-63707679D01*
X114776545Y-63703404D01*
X114731014Y-63674468D01*
X114289646Y-63233099D01*
X114289645Y-63233100D01*
X114259020Y-63275252D01*
X114220586Y-63350683D01*
X114172611Y-63401479D01*
X114104790Y-63418274D01*
X114038655Y-63395737D01*
X113999616Y-63350683D01*
X113961183Y-63275255D01*
X113930554Y-63233100D01*
X113489186Y-63674468D01*
X113427863Y-63707953D01*
X113373915Y-63707679D01*
X113355184Y-63703404D01*
X113330376Y-63697741D01*
X113286927Y-63622486D01*
X113187616Y-63523175D01*
X113065986Y-63452951D01*
X113016781Y-63439766D01*
X113577001Y-62879546D01*
X113534845Y-62848917D01*
X113354293Y-62756922D01*
X113161564Y-62694300D01*
X113161565Y-62694300D01*
X112961421Y-62662601D01*
X112758781Y-62662601D01*
X112558637Y-62694300D01*
X112365908Y-62756922D01*
X112185351Y-62848920D01*
X112143200Y-62879545D01*
X112143199Y-62879546D01*
X112703420Y-63439766D01*
X112654216Y-63452951D01*
X112532586Y-63523175D01*
X112433275Y-63622486D01*
X112389825Y-63697741D01*
X112346284Y-63707679D01*
X112276545Y-63703404D01*
X112231014Y-63674468D01*
X111789646Y-63233099D01*
X111789645Y-63233100D01*
X111759020Y-63275252D01*
X111720586Y-63350683D01*
X111672611Y-63401479D01*
X111604790Y-63418274D01*
X111538655Y-63395737D01*
X111499616Y-63350683D01*
X111461183Y-63275255D01*
X111430554Y-63233100D01*
X110989186Y-63674468D01*
X110927863Y-63707953D01*
X110873915Y-63707679D01*
X110855184Y-63703404D01*
X110830376Y-63697741D01*
X110786927Y-63622486D01*
X110687616Y-63523175D01*
X110565986Y-63452951D01*
X110516781Y-63439766D01*
X111077001Y-62879546D01*
X111034845Y-62848917D01*
X110854293Y-62756922D01*
X110661564Y-62694300D01*
X110661565Y-62694300D01*
X110461421Y-62662601D01*
X110258781Y-62662601D01*
X110058637Y-62694300D01*
X109865908Y-62756922D01*
X109685351Y-62848920D01*
X109643200Y-62879545D01*
X109643199Y-62879546D01*
X110203420Y-63439766D01*
X110154216Y-63452951D01*
X110032586Y-63523175D01*
X109933275Y-63622486D01*
X109889825Y-63697741D01*
X109846284Y-63707679D01*
X109776545Y-63703404D01*
X109731014Y-63674468D01*
X109289646Y-63233099D01*
X109289645Y-63233100D01*
X109259020Y-63275252D01*
X109220586Y-63350683D01*
X109172611Y-63401479D01*
X109104790Y-63418274D01*
X109038655Y-63395737D01*
X108999616Y-63350683D01*
X108961183Y-63275255D01*
X108930554Y-63233100D01*
X108489186Y-63674468D01*
X108427863Y-63707953D01*
X108373915Y-63707679D01*
X108355184Y-63703404D01*
X108330376Y-63697741D01*
X108286927Y-63622486D01*
X108187616Y-63523175D01*
X108065986Y-63452951D01*
X108016781Y-63439766D01*
X108577001Y-62879546D01*
X108534845Y-62848917D01*
X108354293Y-62756922D01*
X108161564Y-62694300D01*
X108161565Y-62694300D01*
X107961421Y-62662601D01*
X107758781Y-62662601D01*
X107558637Y-62694300D01*
X107365908Y-62756922D01*
X107185351Y-62848920D01*
X107143200Y-62879545D01*
X107143199Y-62879546D01*
X107703420Y-63439766D01*
X107654216Y-63452951D01*
X107532586Y-63523175D01*
X107433275Y-63622486D01*
X107389825Y-63697741D01*
X107346284Y-63707679D01*
X107276545Y-63703404D01*
X107231014Y-63674468D01*
X106789646Y-63233099D01*
X106789645Y-63233100D01*
X106759020Y-63275251D01*
X106667022Y-63455808D01*
X106604400Y-63648537D01*
X106572701Y-63848680D01*
X106572701Y-63897998D01*
X106553016Y-63965037D01*
X106511895Y-64003527D01*
X106512362Y-64004270D01*
X106244282Y-64172715D01*
X105999466Y-64367949D01*
X105778049Y-64589366D01*
X105582815Y-64834182D01*
X105416217Y-65099321D01*
X105280365Y-65381421D01*
X105280356Y-65381443D01*
X105176941Y-65676983D01*
X105176937Y-65676995D01*
X105107260Y-65982271D01*
X105107257Y-65982289D01*
X105072201Y-66293429D01*
X104000500Y-66293429D01*
X104000500Y-60848678D01*
X106572701Y-60848678D01*
X106572701Y-61051319D01*
X106604400Y-61251462D01*
X106667022Y-61444191D01*
X106759017Y-61624743D01*
X106789646Y-61666898D01*
X106789647Y-61666899D01*
X107349866Y-61106679D01*
X107363051Y-61155884D01*
X107433275Y-61277514D01*
X107532586Y-61376825D01*
X107654216Y-61447049D01*
X107703420Y-61460233D01*
X107143200Y-62020452D01*
X107143200Y-62020453D01*
X107185355Y-62051081D01*
X107365908Y-62143077D01*
X107558637Y-62205699D01*
X107558636Y-62205699D01*
X107758781Y-62237399D01*
X107961421Y-62237399D01*
X108161564Y-62205699D01*
X108354293Y-62143077D01*
X108534848Y-62051080D01*
X108534852Y-62051078D01*
X108577000Y-62020453D01*
X108577001Y-62020453D01*
X108016781Y-61460233D01*
X108065986Y-61447049D01*
X108187616Y-61376825D01*
X108286927Y-61277514D01*
X108357151Y-61155884D01*
X108370335Y-61106679D01*
X108930554Y-61666899D01*
X108930555Y-61666898D01*
X108961180Y-61624750D01*
X108961185Y-61624741D01*
X108999616Y-61549317D01*
X109047590Y-61498520D01*
X109115411Y-61481725D01*
X109181546Y-61504262D01*
X109220586Y-61549317D01*
X109259016Y-61624740D01*
X109289646Y-61666898D01*
X109289647Y-61666899D01*
X109849866Y-61106679D01*
X109863051Y-61155884D01*
X109933275Y-61277514D01*
X110032586Y-61376825D01*
X110154216Y-61447049D01*
X110203420Y-61460233D01*
X109643200Y-62020452D01*
X109643200Y-62020453D01*
X109685355Y-62051081D01*
X109865908Y-62143077D01*
X110058637Y-62205699D01*
X110058636Y-62205699D01*
X110258781Y-62237399D01*
X110461421Y-62237399D01*
X110661564Y-62205699D01*
X110854293Y-62143077D01*
X111034848Y-62051080D01*
X111034852Y-62051078D01*
X111077000Y-62020453D01*
X111077001Y-62020453D01*
X110516781Y-61460233D01*
X110565986Y-61447049D01*
X110687616Y-61376825D01*
X110786927Y-61277514D01*
X110857151Y-61155884D01*
X110870335Y-61106679D01*
X111430554Y-61666899D01*
X111430555Y-61666898D01*
X111461180Y-61624750D01*
X111461185Y-61624741D01*
X111499616Y-61549317D01*
X111547590Y-61498520D01*
X111615411Y-61481725D01*
X111681546Y-61504262D01*
X111720586Y-61549317D01*
X111759016Y-61624740D01*
X111789646Y-61666898D01*
X111789647Y-61666899D01*
X112349866Y-61106679D01*
X112363051Y-61155884D01*
X112433275Y-61277514D01*
X112532586Y-61376825D01*
X112654216Y-61447049D01*
X112703420Y-61460233D01*
X112143200Y-62020452D01*
X112143200Y-62020453D01*
X112185355Y-62051081D01*
X112365908Y-62143077D01*
X112558637Y-62205699D01*
X112558636Y-62205699D01*
X112758781Y-62237399D01*
X112961421Y-62237399D01*
X113161564Y-62205699D01*
X113354293Y-62143077D01*
X113534848Y-62051080D01*
X113534852Y-62051078D01*
X113577000Y-62020453D01*
X113577001Y-62020453D01*
X113016781Y-61460233D01*
X113065986Y-61447049D01*
X113187616Y-61376825D01*
X113286927Y-61277514D01*
X113357151Y-61155884D01*
X113370335Y-61106679D01*
X113930554Y-61666899D01*
X113930555Y-61666898D01*
X113961180Y-61624750D01*
X113961185Y-61624741D01*
X113999616Y-61549317D01*
X114047590Y-61498520D01*
X114115411Y-61481725D01*
X114181546Y-61504262D01*
X114220586Y-61549317D01*
X114259016Y-61624740D01*
X114289646Y-61666898D01*
X114289647Y-61666899D01*
X114849866Y-61106679D01*
X114863051Y-61155884D01*
X114933275Y-61277514D01*
X115032586Y-61376825D01*
X115154216Y-61447049D01*
X115203420Y-61460233D01*
X114643200Y-62020452D01*
X114643200Y-62020453D01*
X114685355Y-62051081D01*
X114865908Y-62143077D01*
X115058637Y-62205699D01*
X115058636Y-62205699D01*
X115258781Y-62237399D01*
X115461421Y-62237399D01*
X115661564Y-62205699D01*
X115854293Y-62143077D01*
X116034848Y-62051080D01*
X116034852Y-62051078D01*
X116077000Y-62020453D01*
X116077001Y-62020453D01*
X115516781Y-61460233D01*
X115565986Y-61447049D01*
X115687616Y-61376825D01*
X115786927Y-61277514D01*
X115857151Y-61155884D01*
X115870335Y-61106679D01*
X116430554Y-61666899D01*
X116430555Y-61666898D01*
X116461180Y-61624750D01*
X116461185Y-61624741D01*
X116499616Y-61549317D01*
X116547590Y-61498520D01*
X116615411Y-61481725D01*
X116681546Y-61504262D01*
X116720586Y-61549317D01*
X116759016Y-61624740D01*
X116789646Y-61666898D01*
X116789647Y-61666899D01*
X117349866Y-61106679D01*
X117363051Y-61155884D01*
X117433275Y-61277514D01*
X117532586Y-61376825D01*
X117654216Y-61447049D01*
X117703420Y-61460233D01*
X117143200Y-62020452D01*
X117143200Y-62020453D01*
X117185355Y-62051081D01*
X117365908Y-62143077D01*
X117558637Y-62205699D01*
X117558636Y-62205699D01*
X117758781Y-62237399D01*
X117961421Y-62237399D01*
X118161564Y-62205699D01*
X118354293Y-62143077D01*
X118534848Y-62051080D01*
X118534852Y-62051078D01*
X118577000Y-62020453D01*
X118577001Y-62020453D01*
X118016781Y-61460233D01*
X118065986Y-61447049D01*
X118187616Y-61376825D01*
X118286927Y-61277514D01*
X118357151Y-61155884D01*
X118370335Y-61106679D01*
X118930555Y-61666899D01*
X118930555Y-61666898D01*
X118961180Y-61624750D01*
X118961182Y-61624746D01*
X119053179Y-61444191D01*
X119115801Y-61251462D01*
X119147501Y-61051319D01*
X119147501Y-60848678D01*
X119115801Y-60648535D01*
X119053179Y-60455806D01*
X118961183Y-60275253D01*
X118930554Y-60233098D01*
X118370334Y-60793317D01*
X118357151Y-60744114D01*
X118286927Y-60622484D01*
X118187616Y-60523173D01*
X118065986Y-60452949D01*
X118016781Y-60439764D01*
X118577001Y-59879545D01*
X118577000Y-59879544D01*
X118534845Y-59848915D01*
X118354293Y-59756920D01*
X118161564Y-59694298D01*
X118161565Y-59694298D01*
X117961421Y-59662599D01*
X117758781Y-59662599D01*
X117558637Y-59694298D01*
X117365908Y-59756920D01*
X117185351Y-59848918D01*
X117143200Y-59879543D01*
X117143199Y-59879544D01*
X117703420Y-60439764D01*
X117654216Y-60452949D01*
X117532586Y-60523173D01*
X117433275Y-60622484D01*
X117363051Y-60744114D01*
X117349867Y-60793318D01*
X116789646Y-60233097D01*
X116789645Y-60233098D01*
X116759020Y-60275250D01*
X116720586Y-60350681D01*
X116672611Y-60401477D01*
X116604790Y-60418272D01*
X116538655Y-60395735D01*
X116499616Y-60350681D01*
X116461183Y-60275253D01*
X116430554Y-60233098D01*
X115870334Y-60793317D01*
X115857151Y-60744114D01*
X115786927Y-60622484D01*
X115687616Y-60523173D01*
X115565986Y-60452949D01*
X115516781Y-60439764D01*
X116077001Y-59879545D01*
X116077000Y-59879544D01*
X116034845Y-59848915D01*
X115854293Y-59756920D01*
X115661564Y-59694298D01*
X115661565Y-59694298D01*
X115461421Y-59662599D01*
X115258781Y-59662599D01*
X115058637Y-59694298D01*
X114865908Y-59756920D01*
X114685351Y-59848918D01*
X114643200Y-59879543D01*
X114643199Y-59879544D01*
X115203420Y-60439764D01*
X115154216Y-60452949D01*
X115032586Y-60523173D01*
X114933275Y-60622484D01*
X114863051Y-60744114D01*
X114849867Y-60793318D01*
X114289646Y-60233097D01*
X114289645Y-60233098D01*
X114259020Y-60275250D01*
X114220586Y-60350681D01*
X114172611Y-60401477D01*
X114104790Y-60418272D01*
X114038655Y-60395735D01*
X113999616Y-60350681D01*
X113961183Y-60275253D01*
X113930554Y-60233098D01*
X113370334Y-60793317D01*
X113357151Y-60744114D01*
X113286927Y-60622484D01*
X113187616Y-60523173D01*
X113065986Y-60452949D01*
X113016781Y-60439764D01*
X113577001Y-59879545D01*
X113577000Y-59879544D01*
X113534845Y-59848915D01*
X113354293Y-59756920D01*
X113161564Y-59694298D01*
X113161565Y-59694298D01*
X112961421Y-59662599D01*
X112758781Y-59662599D01*
X112558637Y-59694298D01*
X112365908Y-59756920D01*
X112185351Y-59848918D01*
X112143200Y-59879543D01*
X112143199Y-59879544D01*
X112703420Y-60439764D01*
X112654216Y-60452949D01*
X112532586Y-60523173D01*
X112433275Y-60622484D01*
X112363051Y-60744114D01*
X112349867Y-60793318D01*
X111789646Y-60233097D01*
X111789645Y-60233098D01*
X111759020Y-60275250D01*
X111720586Y-60350681D01*
X111672611Y-60401477D01*
X111604790Y-60418272D01*
X111538655Y-60395735D01*
X111499616Y-60350681D01*
X111461183Y-60275253D01*
X111430554Y-60233098D01*
X110870334Y-60793317D01*
X110857151Y-60744114D01*
X110786927Y-60622484D01*
X110687616Y-60523173D01*
X110565986Y-60452949D01*
X110516781Y-60439764D01*
X111077001Y-59879545D01*
X111077000Y-59879544D01*
X111034845Y-59848915D01*
X110854293Y-59756920D01*
X110661564Y-59694298D01*
X110661565Y-59694298D01*
X110461421Y-59662599D01*
X110258781Y-59662599D01*
X110058637Y-59694298D01*
X109865908Y-59756920D01*
X109685351Y-59848918D01*
X109643200Y-59879543D01*
X109643199Y-59879544D01*
X110203420Y-60439764D01*
X110154216Y-60452949D01*
X110032586Y-60523173D01*
X109933275Y-60622484D01*
X109863051Y-60744114D01*
X109849867Y-60793318D01*
X109289646Y-60233097D01*
X109289645Y-60233098D01*
X109259020Y-60275250D01*
X109220586Y-60350681D01*
X109172611Y-60401477D01*
X109104790Y-60418272D01*
X109038655Y-60395735D01*
X108999616Y-60350681D01*
X108961183Y-60275253D01*
X108930554Y-60233098D01*
X108370334Y-60793317D01*
X108357151Y-60744114D01*
X108286927Y-60622484D01*
X108187616Y-60523173D01*
X108065986Y-60452949D01*
X108016781Y-60439764D01*
X108577001Y-59879545D01*
X108577000Y-59879544D01*
X108534845Y-59848915D01*
X108354293Y-59756920D01*
X108161564Y-59694298D01*
X108161565Y-59694298D01*
X107961421Y-59662599D01*
X107758781Y-59662599D01*
X107558637Y-59694298D01*
X107365908Y-59756920D01*
X107185351Y-59848918D01*
X107143200Y-59879543D01*
X107143199Y-59879544D01*
X107703420Y-60439764D01*
X107654216Y-60452949D01*
X107532586Y-60523173D01*
X107433275Y-60622484D01*
X107363051Y-60744114D01*
X107349867Y-60793318D01*
X106789646Y-60233097D01*
X106789645Y-60233098D01*
X106759020Y-60275249D01*
X106667022Y-60455806D01*
X106604400Y-60648535D01*
X106572701Y-60848678D01*
X104000500Y-60848678D01*
X104000500Y-41471549D01*
X122492500Y-41471549D01*
X122492500Y-43628450D01*
X122507804Y-43842433D01*
X122568628Y-44122037D01*
X122668635Y-44390166D01*
X122805770Y-44641309D01*
X122805775Y-44641317D01*
X122977254Y-44870387D01*
X122977270Y-44870405D01*
X123179594Y-45072729D01*
X123179612Y-45072745D01*
X123408682Y-45244224D01*
X123408690Y-45244229D01*
X123659833Y-45381364D01*
X123659832Y-45381364D01*
X123659836Y-45381365D01*
X123659839Y-45381367D01*
X123927954Y-45481369D01*
X123927960Y-45481370D01*
X123927962Y-45481371D01*
X124207566Y-45542195D01*
X124207568Y-45542195D01*
X124207572Y-45542196D01*
X124421552Y-45557500D01*
X126578448Y-45557500D01*
X126792428Y-45542196D01*
X126895938Y-45519679D01*
X127072037Y-45481371D01*
X127072037Y-45481370D01*
X127072046Y-45481369D01*
X127340161Y-45381367D01*
X127591315Y-45244226D01*
X127820395Y-45072739D01*
X128022739Y-44870395D01*
X128194226Y-44641315D01*
X128331367Y-44390161D01*
X128431369Y-44122046D01*
X128492196Y-43842428D01*
X128507500Y-43628448D01*
X128507500Y-41471552D01*
X128492196Y-41257572D01*
X128431369Y-40977954D01*
X128331367Y-40709839D01*
X128194226Y-40458685D01*
X128194224Y-40458682D01*
X128022745Y-40229612D01*
X128022729Y-40229594D01*
X127820405Y-40027270D01*
X127820387Y-40027254D01*
X127591317Y-39855775D01*
X127591309Y-39855770D01*
X127340166Y-39718635D01*
X127340167Y-39718635D01*
X127170860Y-39655487D01*
X127072046Y-39618631D01*
X127072043Y-39618630D01*
X127072037Y-39618628D01*
X126792433Y-39557804D01*
X126578450Y-39542500D01*
X126578448Y-39542500D01*
X124421552Y-39542500D01*
X124421549Y-39542500D01*
X124207566Y-39557804D01*
X123927962Y-39618628D01*
X123659833Y-39718635D01*
X123408690Y-39855770D01*
X123408682Y-39855775D01*
X123179612Y-40027254D01*
X123179594Y-40027270D01*
X122977270Y-40229594D01*
X122977254Y-40229612D01*
X122805775Y-40458682D01*
X122805770Y-40458690D01*
X122668635Y-40709833D01*
X122568628Y-40977962D01*
X122507804Y-41257566D01*
X122492500Y-41471549D01*
X104000500Y-41471549D01*
X104000500Y-24443713D01*
X107299500Y-24443713D01*
X107299500Y-24656286D01*
X107332753Y-24866239D01*
X107398444Y-25068414D01*
X107494951Y-25257820D01*
X107619890Y-25429786D01*
X107770213Y-25580109D01*
X107942179Y-25705048D01*
X107942181Y-25705049D01*
X107942184Y-25705051D01*
X108131588Y-25801557D01*
X108333757Y-25867246D01*
X108543713Y-25900500D01*
X108543714Y-25900500D01*
X108756286Y-25900500D01*
X108756287Y-25900500D01*
X108966243Y-25867246D01*
X109168412Y-25801557D01*
X109357816Y-25705051D01*
X109379789Y-25689086D01*
X109529786Y-25580109D01*
X109529788Y-25580106D01*
X109529792Y-25580104D01*
X109680104Y-25429792D01*
X109680106Y-25429788D01*
X109680109Y-25429786D01*
X109805048Y-25257820D01*
X109805047Y-25257820D01*
X109805051Y-25257816D01*
X109901557Y-25068412D01*
X109967246Y-24866243D01*
X110000500Y-24656287D01*
X110000500Y-24443713D01*
X109967246Y-24233757D01*
X109901557Y-24031588D01*
X109805051Y-23842184D01*
X109805049Y-23842181D01*
X109805048Y-23842179D01*
X109680109Y-23670213D01*
X109529786Y-23519890D01*
X109357820Y-23394951D01*
X109168414Y-23298444D01*
X109168413Y-23298443D01*
X109168412Y-23298443D01*
X108966243Y-23232754D01*
X108966241Y-23232753D01*
X108966240Y-23232753D01*
X108804957Y-23207208D01*
X108756287Y-23199500D01*
X108543713Y-23199500D01*
X108495042Y-23207208D01*
X108333760Y-23232753D01*
X108131585Y-23298444D01*
X107942179Y-23394951D01*
X107770213Y-23519890D01*
X107619890Y-23670213D01*
X107494951Y-23842179D01*
X107398444Y-24031585D01*
X107332753Y-24233760D01*
X107299500Y-24443713D01*
X104000500Y-24443713D01*
X104000500Y-20174500D01*
X104020185Y-20107461D01*
X104072989Y-20061706D01*
X104124500Y-20050500D01*
X150692658Y-20050500D01*
X150759697Y-20070185D01*
G37*
%TD.AperFunction*%
%TD*%
M02*
