%TF.GenerationSoftware,KiCad,Pcbnew,10.0.0*%
%TF.CreationDate,2026-03-24T20:12:33-04:00*%
%TF.ProjectId,AC_Output_Filter,41435f4f-7574-4707-9574-5f46696c7465,rev?*%
%TF.SameCoordinates,Original*%
%TF.FileFunction,Legend,Top*%
%TF.FilePolarity,Positive*%
%FSLAX46Y46*%
G04 Gerber Fmt 4.6, Leading zero omitted, Abs format (unit mm)*
G04 Created by KiCad (PCBNEW 10.0.0) date 2026-03-24 20:12:33*
%MOMM*%
%LPD*%
G01*
G04 APERTURE LIST*
%ADD10C,0.150000*%
%ADD11C,0.254000*%
%ADD12C,0.152400*%
%ADD13C,0.200000*%
%ADD14C,0.000000*%
%ADD15C,0.100000*%
G04 APERTURE END LIST*
D10*
G36*
X111816162Y-74862410D02*
G01*
X111846569Y-74892817D01*
X111880827Y-74961333D01*
X111880827Y-75211637D01*
X111846568Y-75280153D01*
X111816161Y-75310561D01*
X111747646Y-75344819D01*
X111592580Y-75344819D01*
X111554637Y-75325847D01*
X111554637Y-74847123D01*
X111592580Y-74828152D01*
X111747646Y-74828152D01*
X111816162Y-74862410D01*
G37*
G36*
X109387590Y-74529077D02*
G01*
X109459532Y-74601019D01*
X109499874Y-74762386D01*
X109499874Y-75077251D01*
X109459532Y-75238617D01*
X109387589Y-75310561D01*
X109319074Y-75344819D01*
X109164008Y-75344819D01*
X109095492Y-75310561D01*
X109023549Y-75238617D01*
X108983208Y-75077251D01*
X108983208Y-74762386D01*
X109023549Y-74601019D01*
X109095492Y-74529077D01*
X109164008Y-74494819D01*
X109319074Y-74494819D01*
X109387590Y-74529077D01*
G37*
G36*
X117376117Y-74856672D02*
G01*
X117404638Y-74913714D01*
X117404638Y-74929762D01*
X117078448Y-74994999D01*
X117078448Y-74913714D01*
X117106968Y-74856672D01*
X117164010Y-74828152D01*
X117319076Y-74828152D01*
X117376117Y-74856672D01*
G37*
G36*
X106661293Y-75059104D02*
G01*
X106393217Y-75059104D01*
X106527255Y-74656989D01*
X106661293Y-75059104D01*
G37*
G36*
X118378594Y-75937822D02*
G01*
X106008400Y-75937822D01*
X106008400Y-75410439D01*
X106119511Y-75410439D01*
X106121586Y-75439629D01*
X106134672Y-75465802D01*
X106156779Y-75484976D01*
X106184542Y-75494230D01*
X106213732Y-75492155D01*
X106239905Y-75479069D01*
X106259079Y-75456962D01*
X106265073Y-75443536D01*
X106343217Y-75209104D01*
X106711293Y-75209104D01*
X106789437Y-75443536D01*
X106795431Y-75456961D01*
X106814605Y-75479068D01*
X106840778Y-75492155D01*
X106869968Y-75494230D01*
X106897730Y-75484976D01*
X106919838Y-75465802D01*
X106932924Y-75439628D01*
X106934999Y-75410438D01*
X106931739Y-75396102D01*
X106749169Y-74848390D01*
X107071303Y-74848390D01*
X107071303Y-74991247D01*
X107071554Y-74993800D01*
X107071392Y-74994893D01*
X107072201Y-75000366D01*
X107072744Y-75005879D01*
X107073166Y-75006900D01*
X107073542Y-75009437D01*
X107121161Y-75199913D01*
X107121546Y-75200992D01*
X107121585Y-75201532D01*
X107123912Y-75207613D01*
X107126108Y-75213759D01*
X107126430Y-75214194D01*
X107126840Y-75215264D01*
X107174459Y-75310502D01*
X107178422Y-75316798D01*
X107179180Y-75318628D01*
X107180869Y-75320686D01*
X107182291Y-75322945D01*
X107183789Y-75324244D01*
X107188508Y-75329994D01*
X107283746Y-75425233D01*
X107295111Y-75434561D01*
X107297601Y-75435592D01*
X107299636Y-75437357D01*
X107313062Y-75443351D01*
X107455918Y-75490970D01*
X107463173Y-75492619D01*
X107465004Y-75493378D01*
X107467657Y-75493639D01*
X107470255Y-75494230D01*
X107472229Y-75494089D01*
X107479636Y-75494819D01*
X107574874Y-75494819D01*
X107582279Y-75494089D01*
X107584254Y-75494230D01*
X107586851Y-75493639D01*
X107589506Y-75493378D01*
X107591337Y-75492619D01*
X107598591Y-75490970D01*
X107741448Y-75443351D01*
X107754873Y-75437357D01*
X107756908Y-75435591D01*
X107759399Y-75434560D01*
X107770765Y-75425232D01*
X107818383Y-75377613D01*
X107827711Y-75366247D01*
X107838909Y-75339211D01*
X107838909Y-75309948D01*
X107827710Y-75282912D01*
X107807017Y-75262219D01*
X107779981Y-75251021D01*
X107750718Y-75251021D01*
X107723682Y-75262220D01*
X107712316Y-75271548D01*
X107677217Y-75306647D01*
X107562704Y-75344819D01*
X107491806Y-75344819D01*
X107377293Y-75306648D01*
X107303180Y-75232534D01*
X107264686Y-75155547D01*
X107221303Y-74982013D01*
X107221303Y-74857624D01*
X107247421Y-74753152D01*
X108833208Y-74753152D01*
X108833208Y-75086485D01*
X108833459Y-75089038D01*
X108833297Y-75090131D01*
X108834106Y-75095604D01*
X108834649Y-75101117D01*
X108835071Y-75102138D01*
X108835447Y-75104675D01*
X108883066Y-75295151D01*
X108888013Y-75308997D01*
X108891332Y-75313476D01*
X108893466Y-75318628D01*
X108902794Y-75329994D01*
X108998032Y-75425233D01*
X109003782Y-75429953D01*
X109005081Y-75431450D01*
X109007335Y-75432869D01*
X109009397Y-75434561D01*
X109011229Y-75435319D01*
X109017524Y-75439282D01*
X109112762Y-75486901D01*
X109126493Y-75492156D01*
X109129182Y-75492347D01*
X109131671Y-75493378D01*
X109146303Y-75494819D01*
X109336779Y-75494819D01*
X109351411Y-75493378D01*
X109353900Y-75492346D01*
X109356588Y-75492156D01*
X109370320Y-75486901D01*
X109465558Y-75439282D01*
X109471857Y-75435317D01*
X109473685Y-75434560D01*
X109475741Y-75432871D01*
X109478001Y-75431450D01*
X109479300Y-75429951D01*
X109485050Y-75425233D01*
X109580289Y-75329993D01*
X109589616Y-75318628D01*
X109591749Y-75313476D01*
X109595069Y-75308997D01*
X109600016Y-75295151D01*
X109647635Y-75104675D01*
X109648010Y-75102138D01*
X109648433Y-75101117D01*
X109648975Y-75095604D01*
X109649785Y-75090131D01*
X109649622Y-75089038D01*
X109649874Y-75086485D01*
X109649874Y-74753152D01*
X109928446Y-74753152D01*
X109928446Y-75276961D01*
X109929887Y-75291593D01*
X109930918Y-75294082D01*
X109931109Y-75296770D01*
X109936364Y-75310502D01*
X109983983Y-75405741D01*
X109985523Y-75408187D01*
X109985908Y-75409342D01*
X109987154Y-75410779D01*
X109991815Y-75418183D01*
X109998917Y-75424342D01*
X110005081Y-75431450D01*
X110012486Y-75436111D01*
X110013923Y-75437357D01*
X110015076Y-75437741D01*
X110017524Y-75439282D01*
X110112762Y-75486901D01*
X110126493Y-75492156D01*
X110129182Y-75492347D01*
X110131671Y-75493378D01*
X110146303Y-75494819D01*
X110289160Y-75494819D01*
X110303792Y-75493378D01*
X110306281Y-75492346D01*
X110308969Y-75492156D01*
X110322701Y-75486901D01*
X110370947Y-75462777D01*
X110390349Y-75482179D01*
X110417385Y-75493378D01*
X110446649Y-75493378D01*
X110473685Y-75482179D01*
X110494377Y-75461487D01*
X110505576Y-75434451D01*
X110507017Y-75419819D01*
X110507017Y-74753152D01*
X110505576Y-74738520D01*
X110691792Y-74738520D01*
X110691792Y-74767784D01*
X110702991Y-74794820D01*
X110723683Y-74815512D01*
X110750719Y-74826711D01*
X110765351Y-74828152D01*
X110833208Y-74828152D01*
X110833208Y-75276961D01*
X110834649Y-75291593D01*
X110835680Y-75294082D01*
X110835871Y-75296770D01*
X110841126Y-75310502D01*
X110888745Y-75405741D01*
X110890285Y-75408187D01*
X110890670Y-75409342D01*
X110891916Y-75410779D01*
X110896577Y-75418183D01*
X110903679Y-75424342D01*
X110909843Y-75431450D01*
X110917248Y-75436111D01*
X110918685Y-75437357D01*
X110919838Y-75437741D01*
X110922286Y-75439282D01*
X111017524Y-75486901D01*
X111031255Y-75492156D01*
X111033944Y-75492347D01*
X111036433Y-75493378D01*
X111051065Y-75494819D01*
X111146303Y-75494819D01*
X111160935Y-75493378D01*
X111187971Y-75482179D01*
X111208663Y-75461487D01*
X111219862Y-75434451D01*
X111219862Y-75405187D01*
X111208663Y-75378151D01*
X111187971Y-75357459D01*
X111160935Y-75346260D01*
X111146303Y-75344819D01*
X111068770Y-75344819D01*
X111011728Y-75316298D01*
X110983208Y-75259256D01*
X110983208Y-74828152D01*
X111146303Y-74828152D01*
X111160935Y-74826711D01*
X111187971Y-74815512D01*
X111208663Y-74794820D01*
X111219862Y-74767784D01*
X111219862Y-74753152D01*
X111404637Y-74753152D01*
X111404637Y-75753152D01*
X111406078Y-75767784D01*
X111417277Y-75794820D01*
X111437969Y-75815512D01*
X111465005Y-75826711D01*
X111494269Y-75826711D01*
X111521305Y-75815512D01*
X111541997Y-75794820D01*
X111553196Y-75767784D01*
X111554637Y-75753152D01*
X111554637Y-75491992D01*
X111555065Y-75492156D01*
X111557754Y-75492347D01*
X111560243Y-75493378D01*
X111574875Y-75494819D01*
X111765351Y-75494819D01*
X111779983Y-75493378D01*
X111782472Y-75492346D01*
X111785160Y-75492156D01*
X111798892Y-75486901D01*
X111894130Y-75439282D01*
X111900429Y-75435317D01*
X111902257Y-75434560D01*
X111904313Y-75432872D01*
X111906573Y-75431450D01*
X111907873Y-75429950D01*
X111913623Y-75425232D01*
X111961241Y-75377613D01*
X111965959Y-75371863D01*
X111967458Y-75370564D01*
X111968879Y-75368305D01*
X111970569Y-75366247D01*
X111971326Y-75364417D01*
X111975290Y-75358121D01*
X112022909Y-75262883D01*
X112028164Y-75249152D01*
X112028355Y-75246462D01*
X112029386Y-75243974D01*
X112030827Y-75229342D01*
X112030827Y-74943628D01*
X112029386Y-74928996D01*
X112028355Y-74926507D01*
X112028164Y-74923818D01*
X112022909Y-74910087D01*
X111975290Y-74814849D01*
X111971325Y-74808549D01*
X111970568Y-74806722D01*
X111968879Y-74804665D01*
X111967458Y-74802406D01*
X111965959Y-74801106D01*
X111961241Y-74795357D01*
X111919036Y-74753152D01*
X112309399Y-74753152D01*
X112309399Y-75276961D01*
X112310840Y-75291593D01*
X112311871Y-75294082D01*
X112312062Y-75296770D01*
X112317317Y-75310502D01*
X112364936Y-75405741D01*
X112366476Y-75408187D01*
X112366861Y-75409342D01*
X112368107Y-75410779D01*
X112372768Y-75418183D01*
X112379870Y-75424342D01*
X112386034Y-75431450D01*
X112393439Y-75436111D01*
X112394876Y-75437357D01*
X112396029Y-75437741D01*
X112398477Y-75439282D01*
X112493715Y-75486901D01*
X112507446Y-75492156D01*
X112510135Y-75492347D01*
X112512624Y-75493378D01*
X112527256Y-75494819D01*
X112670113Y-75494819D01*
X112684745Y-75493378D01*
X112687234Y-75492346D01*
X112689922Y-75492156D01*
X112703654Y-75486901D01*
X112751900Y-75462777D01*
X112771302Y-75482179D01*
X112798338Y-75493378D01*
X112827602Y-75493378D01*
X112854638Y-75482179D01*
X112875330Y-75461487D01*
X112886529Y-75434451D01*
X112887970Y-75419819D01*
X112887970Y-74753152D01*
X112886529Y-74738520D01*
X113072745Y-74738520D01*
X113072745Y-74767784D01*
X113083944Y-74794820D01*
X113104636Y-74815512D01*
X113131672Y-74826711D01*
X113146304Y-74828152D01*
X113214161Y-74828152D01*
X113214161Y-75276961D01*
X113215602Y-75291593D01*
X113216633Y-75294082D01*
X113216824Y-75296770D01*
X113222079Y-75310502D01*
X113269698Y-75405741D01*
X113271238Y-75408187D01*
X113271623Y-75409342D01*
X113272869Y-75410779D01*
X113277530Y-75418183D01*
X113284632Y-75424342D01*
X113290796Y-75431450D01*
X113298201Y-75436111D01*
X113299638Y-75437357D01*
X113300791Y-75437741D01*
X113303239Y-75439282D01*
X113398477Y-75486901D01*
X113412208Y-75492156D01*
X113414897Y-75492347D01*
X113417386Y-75493378D01*
X113432018Y-75494819D01*
X113527256Y-75494819D01*
X113541888Y-75493378D01*
X113568924Y-75482179D01*
X113589616Y-75461487D01*
X113600815Y-75434451D01*
X113600815Y-75405187D01*
X113589616Y-75378151D01*
X113568924Y-75357459D01*
X113541888Y-75346260D01*
X113527256Y-75344819D01*
X113449723Y-75344819D01*
X113392681Y-75316298D01*
X113364161Y-75259256D01*
X113364161Y-74828152D01*
X113527256Y-74828152D01*
X113541888Y-74826711D01*
X113568924Y-74815512D01*
X113589616Y-74794820D01*
X113600815Y-74767784D01*
X113600815Y-74738520D01*
X113589616Y-74711484D01*
X113568924Y-74690792D01*
X113541888Y-74679593D01*
X113527256Y-74678152D01*
X113364161Y-74678152D01*
X113364161Y-74419819D01*
X114547495Y-74419819D01*
X114547495Y-75419819D01*
X114548936Y-75434451D01*
X114560135Y-75461487D01*
X114580827Y-75482179D01*
X114607863Y-75493378D01*
X114637127Y-75493378D01*
X114664163Y-75482179D01*
X114684855Y-75461487D01*
X114696054Y-75434451D01*
X114697495Y-75419819D01*
X114697495Y-74971009D01*
X114955828Y-74971009D01*
X114970460Y-74969568D01*
X114997496Y-74958369D01*
X115018188Y-74937677D01*
X115029387Y-74910641D01*
X115029387Y-74881377D01*
X115018188Y-74854341D01*
X114997496Y-74833649D01*
X114970460Y-74822450D01*
X114955828Y-74821009D01*
X114697495Y-74821009D01*
X114697495Y-74753152D01*
X115404638Y-74753152D01*
X115404638Y-75419819D01*
X115406079Y-75434451D01*
X115417278Y-75461487D01*
X115437970Y-75482179D01*
X115465006Y-75493378D01*
X115494270Y-75493378D01*
X115521306Y-75482179D01*
X115541998Y-75461487D01*
X115553197Y-75434451D01*
X115554638Y-75419819D01*
X115554638Y-74753152D01*
X115553197Y-74738520D01*
X115541998Y-74711484D01*
X115521306Y-74690792D01*
X115494270Y-74679593D01*
X115465006Y-74679593D01*
X115437970Y-74690792D01*
X115417278Y-74711484D01*
X115406079Y-74738520D01*
X115404638Y-74753152D01*
X114697495Y-74753152D01*
X114697495Y-74494819D01*
X115098685Y-74494819D01*
X115113317Y-74493378D01*
X115140353Y-74482179D01*
X115161045Y-74461487D01*
X115164640Y-74452807D01*
X115358460Y-74452807D01*
X115358460Y-74482069D01*
X115369659Y-74509106D01*
X115378986Y-74520471D01*
X115426605Y-74568090D01*
X115437970Y-74577417D01*
X115465006Y-74588616D01*
X115465007Y-74588616D01*
X115494269Y-74588616D01*
X115494270Y-74588616D01*
X115521306Y-74577417D01*
X115532671Y-74568090D01*
X115580290Y-74520471D01*
X115589617Y-74509106D01*
X115600816Y-74482070D01*
X115600816Y-74452807D01*
X115595358Y-74439629D01*
X115589617Y-74425770D01*
X115584733Y-74419819D01*
X115880828Y-74419819D01*
X115880828Y-75276961D01*
X115882269Y-75291593D01*
X115883300Y-75294082D01*
X115883491Y-75296770D01*
X115888746Y-75310502D01*
X115936365Y-75405741D01*
X115937905Y-75408187D01*
X115938290Y-75409342D01*
X115939536Y-75410779D01*
X115944197Y-75418183D01*
X115951299Y-75424342D01*
X115957463Y-75431450D01*
X115964868Y-75436111D01*
X115966305Y-75437357D01*
X115967458Y-75437741D01*
X115969906Y-75439282D01*
X116065144Y-75486901D01*
X116078875Y-75492156D01*
X116108065Y-75494230D01*
X116135827Y-75484976D01*
X116157934Y-75465803D01*
X116171022Y-75439628D01*
X116173096Y-75410438D01*
X116163842Y-75382677D01*
X116144669Y-75360569D01*
X116132226Y-75352737D01*
X116059348Y-75316298D01*
X116030828Y-75259256D01*
X116030828Y-74738520D01*
X116263222Y-74738520D01*
X116263222Y-74767784D01*
X116274421Y-74794820D01*
X116295113Y-74815512D01*
X116322149Y-74826711D01*
X116336781Y-74828152D01*
X116404638Y-74828152D01*
X116404638Y-75276961D01*
X116406079Y-75291593D01*
X116407110Y-75294082D01*
X116407301Y-75296770D01*
X116412556Y-75310502D01*
X116460175Y-75405741D01*
X116461715Y-75408187D01*
X116462100Y-75409342D01*
X116463346Y-75410779D01*
X116468007Y-75418183D01*
X116475109Y-75424342D01*
X116481273Y-75431450D01*
X116488678Y-75436111D01*
X116490115Y-75437357D01*
X116491268Y-75437741D01*
X116493716Y-75439282D01*
X116588954Y-75486901D01*
X116602685Y-75492156D01*
X116605374Y-75492347D01*
X116607863Y-75493378D01*
X116622495Y-75494819D01*
X116717733Y-75494819D01*
X116732365Y-75493378D01*
X116759401Y-75482179D01*
X116780093Y-75461487D01*
X116791292Y-75434451D01*
X116791292Y-75405187D01*
X116780093Y-75378151D01*
X116759401Y-75357459D01*
X116732365Y-75346260D01*
X116717733Y-75344819D01*
X116640200Y-75344819D01*
X116583158Y-75316298D01*
X116554638Y-75259256D01*
X116554638Y-74896009D01*
X116928448Y-74896009D01*
X116928448Y-75276961D01*
X116929889Y-75291593D01*
X116930920Y-75294082D01*
X116931111Y-75296770D01*
X116936366Y-75310502D01*
X116983985Y-75405741D01*
X116985525Y-75408187D01*
X116985910Y-75409342D01*
X116987156Y-75410779D01*
X116991817Y-75418183D01*
X116998919Y-75424342D01*
X117005083Y-75431450D01*
X117012488Y-75436111D01*
X117013925Y-75437357D01*
X117015078Y-75437741D01*
X117017526Y-75439282D01*
X117112764Y-75486901D01*
X117126495Y-75492156D01*
X117129184Y-75492347D01*
X117131673Y-75493378D01*
X117146305Y-75494819D01*
X117336781Y-75494819D01*
X117351413Y-75493378D01*
X117353902Y-75492346D01*
X117356590Y-75492156D01*
X117370322Y-75486901D01*
X117465560Y-75439282D01*
X117478003Y-75431450D01*
X117497176Y-75409342D01*
X117506430Y-75381581D01*
X117504356Y-75352391D01*
X117491268Y-75326216D01*
X117469161Y-75307043D01*
X117441399Y-75297789D01*
X117412209Y-75299863D01*
X117398478Y-75305118D01*
X117319076Y-75344819D01*
X117164010Y-75344819D01*
X117106968Y-75316298D01*
X117078448Y-75259256D01*
X117078448Y-75147970D01*
X117494346Y-75064791D01*
X117508412Y-75060508D01*
X117514517Y-75056419D01*
X117521306Y-75053607D01*
X117526558Y-75048354D01*
X117532726Y-75044224D01*
X117536800Y-75038113D01*
X117541998Y-75032915D01*
X117544841Y-75026051D01*
X117548958Y-75019876D01*
X117550383Y-75012670D01*
X117553197Y-75005879D01*
X117554638Y-74991247D01*
X117554638Y-74896009D01*
X117553197Y-74881377D01*
X117552166Y-74878888D01*
X117551975Y-74876199D01*
X117546720Y-74862468D01*
X117499101Y-74767230D01*
X117497560Y-74764782D01*
X117497176Y-74763629D01*
X117495930Y-74762192D01*
X117491269Y-74754787D01*
X117489384Y-74753152D01*
X117833210Y-74753152D01*
X117833210Y-75419819D01*
X117834651Y-75434451D01*
X117845850Y-75461487D01*
X117866542Y-75482179D01*
X117893578Y-75493378D01*
X117922842Y-75493378D01*
X117949878Y-75482179D01*
X117970570Y-75461487D01*
X117981769Y-75434451D01*
X117983210Y-75419819D01*
X117983210Y-74961333D01*
X118017468Y-74892817D01*
X118047875Y-74862410D01*
X118116391Y-74828152D01*
X118193924Y-74828152D01*
X118208556Y-74826711D01*
X118235592Y-74815512D01*
X118256284Y-74794820D01*
X118267483Y-74767784D01*
X118267483Y-74738520D01*
X118256284Y-74711484D01*
X118235592Y-74690792D01*
X118208556Y-74679593D01*
X118193924Y-74678152D01*
X118098686Y-74678152D01*
X118084054Y-74679593D01*
X118081565Y-74680623D01*
X118078876Y-74680815D01*
X118065145Y-74686070D01*
X117978075Y-74729604D01*
X117970570Y-74711484D01*
X117949878Y-74690792D01*
X117922842Y-74679593D01*
X117893578Y-74679593D01*
X117866542Y-74690792D01*
X117845850Y-74711484D01*
X117834651Y-74738520D01*
X117833210Y-74753152D01*
X117489384Y-74753152D01*
X117484164Y-74748625D01*
X117478003Y-74741521D01*
X117470597Y-74736859D01*
X117469161Y-74735614D01*
X117468007Y-74735229D01*
X117465560Y-74733689D01*
X117370322Y-74686070D01*
X117356590Y-74680815D01*
X117353902Y-74680624D01*
X117351413Y-74679593D01*
X117336781Y-74678152D01*
X117146305Y-74678152D01*
X117131673Y-74679593D01*
X117129184Y-74680623D01*
X117126495Y-74680815D01*
X117112764Y-74686070D01*
X117017526Y-74733689D01*
X117015078Y-74735229D01*
X117013925Y-74735614D01*
X117012488Y-74736859D01*
X117005083Y-74741521D01*
X116998921Y-74748625D01*
X116991817Y-74754787D01*
X116987155Y-74762192D01*
X116985910Y-74763629D01*
X116985525Y-74764782D01*
X116983985Y-74767230D01*
X116936366Y-74862468D01*
X116931111Y-74876200D01*
X116930920Y-74878887D01*
X116929889Y-74881377D01*
X116928448Y-74896009D01*
X116554638Y-74896009D01*
X116554638Y-74828152D01*
X116717733Y-74828152D01*
X116732365Y-74826711D01*
X116759401Y-74815512D01*
X116780093Y-74794820D01*
X116791292Y-74767784D01*
X116791292Y-74738520D01*
X116780093Y-74711484D01*
X116759401Y-74690792D01*
X116732365Y-74679593D01*
X116717733Y-74678152D01*
X116554638Y-74678152D01*
X116554638Y-74419819D01*
X116553197Y-74405187D01*
X116541998Y-74378151D01*
X116521306Y-74357459D01*
X116494270Y-74346260D01*
X116465006Y-74346260D01*
X116437970Y-74357459D01*
X116417278Y-74378151D01*
X116406079Y-74405187D01*
X116404638Y-74419819D01*
X116404638Y-74678152D01*
X116336781Y-74678152D01*
X116322149Y-74679593D01*
X116295113Y-74690792D01*
X116274421Y-74711484D01*
X116263222Y-74738520D01*
X116030828Y-74738520D01*
X116030828Y-74419819D01*
X116029387Y-74405187D01*
X116018188Y-74378151D01*
X115997496Y-74357459D01*
X115970460Y-74346260D01*
X115941196Y-74346260D01*
X115914160Y-74357459D01*
X115893468Y-74378151D01*
X115882269Y-74405187D01*
X115880828Y-74419819D01*
X115584733Y-74419819D01*
X115580290Y-74414405D01*
X115532671Y-74366786D01*
X115521306Y-74357459D01*
X115494270Y-74346260D01*
X115494269Y-74346260D01*
X115465006Y-74346260D01*
X115437970Y-74357459D01*
X115426605Y-74366786D01*
X115378986Y-74414405D01*
X115369659Y-74425770D01*
X115358460Y-74452807D01*
X115164640Y-74452807D01*
X115172244Y-74434451D01*
X115172244Y-74405187D01*
X115161045Y-74378151D01*
X115140353Y-74357459D01*
X115113317Y-74346260D01*
X115098685Y-74344819D01*
X114622495Y-74344819D01*
X114607863Y-74346260D01*
X114580827Y-74357459D01*
X114560135Y-74378151D01*
X114548936Y-74405187D01*
X114547495Y-74419819D01*
X113364161Y-74419819D01*
X113362720Y-74405187D01*
X113351521Y-74378151D01*
X113330829Y-74357459D01*
X113303793Y-74346260D01*
X113274529Y-74346260D01*
X113247493Y-74357459D01*
X113226801Y-74378151D01*
X113215602Y-74405187D01*
X113214161Y-74419819D01*
X113214161Y-74678152D01*
X113146304Y-74678152D01*
X113131672Y-74679593D01*
X113104636Y-74690792D01*
X113083944Y-74711484D01*
X113072745Y-74738520D01*
X112886529Y-74738520D01*
X112875330Y-74711484D01*
X112854638Y-74690792D01*
X112827602Y-74679593D01*
X112798338Y-74679593D01*
X112771302Y-74690792D01*
X112750610Y-74711484D01*
X112739411Y-74738520D01*
X112737970Y-74753152D01*
X112737970Y-75293514D01*
X112720923Y-75310561D01*
X112652408Y-75344819D01*
X112544961Y-75344819D01*
X112487919Y-75316298D01*
X112459399Y-75259256D01*
X112459399Y-74753152D01*
X112457958Y-74738520D01*
X112446759Y-74711484D01*
X112426067Y-74690792D01*
X112399031Y-74679593D01*
X112369767Y-74679593D01*
X112342731Y-74690792D01*
X112322039Y-74711484D01*
X112310840Y-74738520D01*
X112309399Y-74753152D01*
X111919036Y-74753152D01*
X111913622Y-74747738D01*
X111907872Y-74743019D01*
X111906573Y-74741521D01*
X111904313Y-74740099D01*
X111902257Y-74738411D01*
X111900429Y-74737653D01*
X111894130Y-74733689D01*
X111798892Y-74686070D01*
X111785160Y-74680815D01*
X111782472Y-74680624D01*
X111779983Y-74679593D01*
X111765351Y-74678152D01*
X111574875Y-74678152D01*
X111560243Y-74679593D01*
X111557754Y-74680623D01*
X111555065Y-74680815D01*
X111541334Y-74686070D01*
X111524833Y-74694320D01*
X111521305Y-74690792D01*
X111494269Y-74679593D01*
X111465005Y-74679593D01*
X111437969Y-74690792D01*
X111417277Y-74711484D01*
X111406078Y-74738520D01*
X111404637Y-74753152D01*
X111219862Y-74753152D01*
X111219862Y-74738520D01*
X111208663Y-74711484D01*
X111187971Y-74690792D01*
X111160935Y-74679593D01*
X111146303Y-74678152D01*
X110983208Y-74678152D01*
X110983208Y-74419819D01*
X110981767Y-74405187D01*
X110970568Y-74378151D01*
X110949876Y-74357459D01*
X110922840Y-74346260D01*
X110893576Y-74346260D01*
X110866540Y-74357459D01*
X110845848Y-74378151D01*
X110834649Y-74405187D01*
X110833208Y-74419819D01*
X110833208Y-74678152D01*
X110765351Y-74678152D01*
X110750719Y-74679593D01*
X110723683Y-74690792D01*
X110702991Y-74711484D01*
X110691792Y-74738520D01*
X110505576Y-74738520D01*
X110494377Y-74711484D01*
X110473685Y-74690792D01*
X110446649Y-74679593D01*
X110417385Y-74679593D01*
X110390349Y-74690792D01*
X110369657Y-74711484D01*
X110358458Y-74738520D01*
X110357017Y-74753152D01*
X110357017Y-75293514D01*
X110339970Y-75310561D01*
X110271455Y-75344819D01*
X110164008Y-75344819D01*
X110106966Y-75316298D01*
X110078446Y-75259256D01*
X110078446Y-74753152D01*
X110077005Y-74738520D01*
X110065806Y-74711484D01*
X110045114Y-74690792D01*
X110018078Y-74679593D01*
X109988814Y-74679593D01*
X109961778Y-74690792D01*
X109941086Y-74711484D01*
X109929887Y-74738520D01*
X109928446Y-74753152D01*
X109649874Y-74753152D01*
X109649622Y-74750598D01*
X109649785Y-74749506D01*
X109648975Y-74744032D01*
X109648433Y-74738520D01*
X109648010Y-74737498D01*
X109647635Y-74734962D01*
X109600016Y-74544486D01*
X109595069Y-74530640D01*
X109591750Y-74526161D01*
X109589616Y-74521008D01*
X109580288Y-74509643D01*
X109485050Y-74414405D01*
X109479300Y-74409686D01*
X109478001Y-74408188D01*
X109475741Y-74406766D01*
X109473685Y-74405078D01*
X109471857Y-74404320D01*
X109465558Y-74400356D01*
X109370320Y-74352737D01*
X109356588Y-74347482D01*
X109353900Y-74347291D01*
X109351411Y-74346260D01*
X109336779Y-74344819D01*
X109146303Y-74344819D01*
X109131671Y-74346260D01*
X109129182Y-74347290D01*
X109126493Y-74347482D01*
X109112762Y-74352737D01*
X109017524Y-74400356D01*
X109011229Y-74404318D01*
X109009397Y-74405077D01*
X109007335Y-74406768D01*
X109005081Y-74408188D01*
X109003782Y-74409684D01*
X108998032Y-74414405D01*
X108902794Y-74509643D01*
X108893467Y-74521008D01*
X108891333Y-74526158D01*
X108888013Y-74530640D01*
X108883066Y-74544486D01*
X108835447Y-74734962D01*
X108835071Y-74737498D01*
X108834649Y-74738520D01*
X108834106Y-74744032D01*
X108833297Y-74749506D01*
X108833459Y-74750598D01*
X108833208Y-74753152D01*
X107247421Y-74753152D01*
X107264686Y-74684090D01*
X107303180Y-74607103D01*
X107377293Y-74532990D01*
X107491806Y-74494819D01*
X107562704Y-74494819D01*
X107677217Y-74532990D01*
X107712317Y-74568090D01*
X107723682Y-74577417D01*
X107750718Y-74588616D01*
X107779981Y-74588616D01*
X107807017Y-74577417D01*
X107827710Y-74556724D01*
X107838909Y-74529688D01*
X107838909Y-74500425D01*
X107827710Y-74473389D01*
X107818383Y-74462024D01*
X107770764Y-74414405D01*
X107759399Y-74405078D01*
X107756908Y-74404046D01*
X107754873Y-74402281D01*
X107741448Y-74396287D01*
X107598591Y-74348668D01*
X107591337Y-74347018D01*
X107589506Y-74346260D01*
X107586851Y-74345998D01*
X107584254Y-74345408D01*
X107582279Y-74345548D01*
X107574874Y-74344819D01*
X107479636Y-74344819D01*
X107472229Y-74345548D01*
X107470255Y-74345408D01*
X107467657Y-74345998D01*
X107465004Y-74346260D01*
X107463173Y-74347018D01*
X107455918Y-74348668D01*
X107313062Y-74396287D01*
X107299636Y-74402281D01*
X107297601Y-74404045D01*
X107295111Y-74405077D01*
X107283746Y-74414405D01*
X107188508Y-74509643D01*
X107183789Y-74515392D01*
X107182291Y-74516692D01*
X107180869Y-74518951D01*
X107179181Y-74521008D01*
X107178423Y-74522835D01*
X107174459Y-74529135D01*
X107126840Y-74624373D01*
X107126430Y-74625442D01*
X107126108Y-74625878D01*
X107123912Y-74632023D01*
X107121585Y-74638105D01*
X107121546Y-74638644D01*
X107121161Y-74639724D01*
X107073542Y-74830200D01*
X107073166Y-74832736D01*
X107072744Y-74833758D01*
X107072201Y-74839270D01*
X107071392Y-74844744D01*
X107071554Y-74845836D01*
X107071303Y-74848390D01*
X106749169Y-74848390D01*
X106598406Y-74396102D01*
X106592412Y-74382676D01*
X106588900Y-74378627D01*
X106586505Y-74373836D01*
X106579401Y-74367674D01*
X106573238Y-74360569D01*
X106568444Y-74358172D01*
X106564397Y-74354662D01*
X106555475Y-74351688D01*
X106547065Y-74347483D01*
X106541720Y-74347103D01*
X106536635Y-74345408D01*
X106527255Y-74346074D01*
X106517875Y-74345408D01*
X106512789Y-74347103D01*
X106507445Y-74347483D01*
X106499037Y-74351687D01*
X106490112Y-74354662D01*
X106486061Y-74358175D01*
X106481272Y-74360570D01*
X106475113Y-74367670D01*
X106468005Y-74373836D01*
X106465608Y-74378629D01*
X106462098Y-74382677D01*
X106456104Y-74396102D01*
X106122771Y-75396102D01*
X106119511Y-75410439D01*
X106008400Y-75410439D01*
X106008400Y-74233708D01*
X118378594Y-74233708D01*
X118378594Y-75937822D01*
G37*
X163080826Y-37569819D02*
X163080826Y-36569819D01*
X163080826Y-36569819D02*
X163461778Y-36569819D01*
X163461778Y-36569819D02*
X163557016Y-36617438D01*
X163557016Y-36617438D02*
X163604635Y-36665057D01*
X163604635Y-36665057D02*
X163652254Y-36760295D01*
X163652254Y-36760295D02*
X163652254Y-36903152D01*
X163652254Y-36903152D02*
X163604635Y-36998390D01*
X163604635Y-36998390D02*
X163557016Y-37046009D01*
X163557016Y-37046009D02*
X163461778Y-37093628D01*
X163461778Y-37093628D02*
X163080826Y-37093628D01*
X164080826Y-37569819D02*
X164080826Y-36569819D01*
X164509397Y-37569819D02*
X164509397Y-37046009D01*
X164509397Y-37046009D02*
X164461778Y-36950771D01*
X164461778Y-36950771D02*
X164366540Y-36903152D01*
X164366540Y-36903152D02*
X164223683Y-36903152D01*
X164223683Y-36903152D02*
X164128445Y-36950771D01*
X164128445Y-36950771D02*
X164080826Y-36998390D01*
X165414159Y-37569819D02*
X165414159Y-37046009D01*
X165414159Y-37046009D02*
X165366540Y-36950771D01*
X165366540Y-36950771D02*
X165271302Y-36903152D01*
X165271302Y-36903152D02*
X165080826Y-36903152D01*
X165080826Y-36903152D02*
X164985588Y-36950771D01*
X165414159Y-37522200D02*
X165318921Y-37569819D01*
X165318921Y-37569819D02*
X165080826Y-37569819D01*
X165080826Y-37569819D02*
X164985588Y-37522200D01*
X164985588Y-37522200D02*
X164937969Y-37426961D01*
X164937969Y-37426961D02*
X164937969Y-37331723D01*
X164937969Y-37331723D02*
X164985588Y-37236485D01*
X164985588Y-37236485D02*
X165080826Y-37188866D01*
X165080826Y-37188866D02*
X165318921Y-37188866D01*
X165318921Y-37188866D02*
X165414159Y-37141247D01*
X165842731Y-37522200D02*
X165937969Y-37569819D01*
X165937969Y-37569819D02*
X166128445Y-37569819D01*
X166128445Y-37569819D02*
X166223683Y-37522200D01*
X166223683Y-37522200D02*
X166271302Y-37426961D01*
X166271302Y-37426961D02*
X166271302Y-37379342D01*
X166271302Y-37379342D02*
X166223683Y-37284104D01*
X166223683Y-37284104D02*
X166128445Y-37236485D01*
X166128445Y-37236485D02*
X165985588Y-37236485D01*
X165985588Y-37236485D02*
X165890350Y-37188866D01*
X165890350Y-37188866D02*
X165842731Y-37093628D01*
X165842731Y-37093628D02*
X165842731Y-37046009D01*
X165842731Y-37046009D02*
X165890350Y-36950771D01*
X165890350Y-36950771D02*
X165985588Y-36903152D01*
X165985588Y-36903152D02*
X166128445Y-36903152D01*
X166128445Y-36903152D02*
X166223683Y-36950771D01*
X167080826Y-37522200D02*
X166985588Y-37569819D01*
X166985588Y-37569819D02*
X166795112Y-37569819D01*
X166795112Y-37569819D02*
X166699874Y-37522200D01*
X166699874Y-37522200D02*
X166652255Y-37426961D01*
X166652255Y-37426961D02*
X166652255Y-37046009D01*
X166652255Y-37046009D02*
X166699874Y-36950771D01*
X166699874Y-36950771D02*
X166795112Y-36903152D01*
X166795112Y-36903152D02*
X166985588Y-36903152D01*
X166985588Y-36903152D02*
X167080826Y-36950771D01*
X167080826Y-36950771D02*
X167128445Y-37046009D01*
X167128445Y-37046009D02*
X167128445Y-37141247D01*
X167128445Y-37141247D02*
X166652255Y-37236485D01*
X168271303Y-37284104D02*
X168747493Y-37284104D01*
X168176065Y-37569819D02*
X168509398Y-36569819D01*
X168509398Y-36569819D02*
X168842731Y-37569819D01*
X170128446Y-36569819D02*
X170318922Y-36569819D01*
X170318922Y-36569819D02*
X170414160Y-36617438D01*
X170414160Y-36617438D02*
X170509398Y-36712676D01*
X170509398Y-36712676D02*
X170557017Y-36903152D01*
X170557017Y-36903152D02*
X170557017Y-37236485D01*
X170557017Y-37236485D02*
X170509398Y-37426961D01*
X170509398Y-37426961D02*
X170414160Y-37522200D01*
X170414160Y-37522200D02*
X170318922Y-37569819D01*
X170318922Y-37569819D02*
X170128446Y-37569819D01*
X170128446Y-37569819D02*
X170033208Y-37522200D01*
X170033208Y-37522200D02*
X169937970Y-37426961D01*
X169937970Y-37426961D02*
X169890351Y-37236485D01*
X169890351Y-37236485D02*
X169890351Y-36903152D01*
X169890351Y-36903152D02*
X169937970Y-36712676D01*
X169937970Y-36712676D02*
X170033208Y-36617438D01*
X170033208Y-36617438D02*
X170128446Y-36569819D01*
X171414160Y-36903152D02*
X171414160Y-37569819D01*
X170985589Y-36903152D02*
X170985589Y-37426961D01*
X170985589Y-37426961D02*
X171033208Y-37522200D01*
X171033208Y-37522200D02*
X171128446Y-37569819D01*
X171128446Y-37569819D02*
X171271303Y-37569819D01*
X171271303Y-37569819D02*
X171366541Y-37522200D01*
X171366541Y-37522200D02*
X171414160Y-37474580D01*
X171747494Y-36903152D02*
X172128446Y-36903152D01*
X171890351Y-36569819D02*
X171890351Y-37426961D01*
X171890351Y-37426961D02*
X171937970Y-37522200D01*
X171937970Y-37522200D02*
X172033208Y-37569819D01*
X172033208Y-37569819D02*
X172128446Y-37569819D01*
X172461780Y-36903152D02*
X172461780Y-37903152D01*
X172461780Y-36950771D02*
X172557018Y-36903152D01*
X172557018Y-36903152D02*
X172747494Y-36903152D01*
X172747494Y-36903152D02*
X172842732Y-36950771D01*
X172842732Y-36950771D02*
X172890351Y-36998390D01*
X172890351Y-36998390D02*
X172937970Y-37093628D01*
X172937970Y-37093628D02*
X172937970Y-37379342D01*
X172937970Y-37379342D02*
X172890351Y-37474580D01*
X172890351Y-37474580D02*
X172842732Y-37522200D01*
X172842732Y-37522200D02*
X172747494Y-37569819D01*
X172747494Y-37569819D02*
X172557018Y-37569819D01*
X172557018Y-37569819D02*
X172461780Y-37522200D01*
X173795113Y-36903152D02*
X173795113Y-37569819D01*
X173366542Y-36903152D02*
X173366542Y-37426961D01*
X173366542Y-37426961D02*
X173414161Y-37522200D01*
X173414161Y-37522200D02*
X173509399Y-37569819D01*
X173509399Y-37569819D02*
X173652256Y-37569819D01*
X173652256Y-37569819D02*
X173747494Y-37522200D01*
X173747494Y-37522200D02*
X173795113Y-37474580D01*
X174128447Y-36903152D02*
X174509399Y-36903152D01*
X174271304Y-36569819D02*
X174271304Y-37426961D01*
X174271304Y-37426961D02*
X174318923Y-37522200D01*
X174318923Y-37522200D02*
X174414161Y-37569819D01*
X174414161Y-37569819D02*
X174509399Y-37569819D01*
X163009397Y-97819819D02*
X163009397Y-96819819D01*
X163009397Y-96819819D02*
X163390349Y-96819819D01*
X163390349Y-96819819D02*
X163485587Y-96867438D01*
X163485587Y-96867438D02*
X163533206Y-96915057D01*
X163533206Y-96915057D02*
X163580825Y-97010295D01*
X163580825Y-97010295D02*
X163580825Y-97153152D01*
X163580825Y-97153152D02*
X163533206Y-97248390D01*
X163533206Y-97248390D02*
X163485587Y-97296009D01*
X163485587Y-97296009D02*
X163390349Y-97343628D01*
X163390349Y-97343628D02*
X163009397Y-97343628D01*
X164009397Y-97819819D02*
X164009397Y-96819819D01*
X164437968Y-97819819D02*
X164437968Y-97296009D01*
X164437968Y-97296009D02*
X164390349Y-97200771D01*
X164390349Y-97200771D02*
X164295111Y-97153152D01*
X164295111Y-97153152D02*
X164152254Y-97153152D01*
X164152254Y-97153152D02*
X164057016Y-97200771D01*
X164057016Y-97200771D02*
X164009397Y-97248390D01*
X165342730Y-97819819D02*
X165342730Y-97296009D01*
X165342730Y-97296009D02*
X165295111Y-97200771D01*
X165295111Y-97200771D02*
X165199873Y-97153152D01*
X165199873Y-97153152D02*
X165009397Y-97153152D01*
X165009397Y-97153152D02*
X164914159Y-97200771D01*
X165342730Y-97772200D02*
X165247492Y-97819819D01*
X165247492Y-97819819D02*
X165009397Y-97819819D01*
X165009397Y-97819819D02*
X164914159Y-97772200D01*
X164914159Y-97772200D02*
X164866540Y-97676961D01*
X164866540Y-97676961D02*
X164866540Y-97581723D01*
X164866540Y-97581723D02*
X164914159Y-97486485D01*
X164914159Y-97486485D02*
X165009397Y-97438866D01*
X165009397Y-97438866D02*
X165247492Y-97438866D01*
X165247492Y-97438866D02*
X165342730Y-97391247D01*
X165771302Y-97772200D02*
X165866540Y-97819819D01*
X165866540Y-97819819D02*
X166057016Y-97819819D01*
X166057016Y-97819819D02*
X166152254Y-97772200D01*
X166152254Y-97772200D02*
X166199873Y-97676961D01*
X166199873Y-97676961D02*
X166199873Y-97629342D01*
X166199873Y-97629342D02*
X166152254Y-97534104D01*
X166152254Y-97534104D02*
X166057016Y-97486485D01*
X166057016Y-97486485D02*
X165914159Y-97486485D01*
X165914159Y-97486485D02*
X165818921Y-97438866D01*
X165818921Y-97438866D02*
X165771302Y-97343628D01*
X165771302Y-97343628D02*
X165771302Y-97296009D01*
X165771302Y-97296009D02*
X165818921Y-97200771D01*
X165818921Y-97200771D02*
X165914159Y-97153152D01*
X165914159Y-97153152D02*
X166057016Y-97153152D01*
X166057016Y-97153152D02*
X166152254Y-97200771D01*
X167009397Y-97772200D02*
X166914159Y-97819819D01*
X166914159Y-97819819D02*
X166723683Y-97819819D01*
X166723683Y-97819819D02*
X166628445Y-97772200D01*
X166628445Y-97772200D02*
X166580826Y-97676961D01*
X166580826Y-97676961D02*
X166580826Y-97296009D01*
X166580826Y-97296009D02*
X166628445Y-97200771D01*
X166628445Y-97200771D02*
X166723683Y-97153152D01*
X166723683Y-97153152D02*
X166914159Y-97153152D01*
X166914159Y-97153152D02*
X167009397Y-97200771D01*
X167009397Y-97200771D02*
X167057016Y-97296009D01*
X167057016Y-97296009D02*
X167057016Y-97391247D01*
X167057016Y-97391247D02*
X166580826Y-97486485D01*
X168580826Y-97296009D02*
X168723683Y-97343628D01*
X168723683Y-97343628D02*
X168771302Y-97391247D01*
X168771302Y-97391247D02*
X168818921Y-97486485D01*
X168818921Y-97486485D02*
X168818921Y-97629342D01*
X168818921Y-97629342D02*
X168771302Y-97724580D01*
X168771302Y-97724580D02*
X168723683Y-97772200D01*
X168723683Y-97772200D02*
X168628445Y-97819819D01*
X168628445Y-97819819D02*
X168247493Y-97819819D01*
X168247493Y-97819819D02*
X168247493Y-96819819D01*
X168247493Y-96819819D02*
X168580826Y-96819819D01*
X168580826Y-96819819D02*
X168676064Y-96867438D01*
X168676064Y-96867438D02*
X168723683Y-96915057D01*
X168723683Y-96915057D02*
X168771302Y-97010295D01*
X168771302Y-97010295D02*
X168771302Y-97105533D01*
X168771302Y-97105533D02*
X168723683Y-97200771D01*
X168723683Y-97200771D02*
X168676064Y-97248390D01*
X168676064Y-97248390D02*
X168580826Y-97296009D01*
X168580826Y-97296009D02*
X168247493Y-97296009D01*
X170199874Y-96819819D02*
X170390350Y-96819819D01*
X170390350Y-96819819D02*
X170485588Y-96867438D01*
X170485588Y-96867438D02*
X170580826Y-96962676D01*
X170580826Y-96962676D02*
X170628445Y-97153152D01*
X170628445Y-97153152D02*
X170628445Y-97486485D01*
X170628445Y-97486485D02*
X170580826Y-97676961D01*
X170580826Y-97676961D02*
X170485588Y-97772200D01*
X170485588Y-97772200D02*
X170390350Y-97819819D01*
X170390350Y-97819819D02*
X170199874Y-97819819D01*
X170199874Y-97819819D02*
X170104636Y-97772200D01*
X170104636Y-97772200D02*
X170009398Y-97676961D01*
X170009398Y-97676961D02*
X169961779Y-97486485D01*
X169961779Y-97486485D02*
X169961779Y-97153152D01*
X169961779Y-97153152D02*
X170009398Y-96962676D01*
X170009398Y-96962676D02*
X170104636Y-96867438D01*
X170104636Y-96867438D02*
X170199874Y-96819819D01*
X171485588Y-97153152D02*
X171485588Y-97819819D01*
X171057017Y-97153152D02*
X171057017Y-97676961D01*
X171057017Y-97676961D02*
X171104636Y-97772200D01*
X171104636Y-97772200D02*
X171199874Y-97819819D01*
X171199874Y-97819819D02*
X171342731Y-97819819D01*
X171342731Y-97819819D02*
X171437969Y-97772200D01*
X171437969Y-97772200D02*
X171485588Y-97724580D01*
X171818922Y-97153152D02*
X172199874Y-97153152D01*
X171961779Y-96819819D02*
X171961779Y-97676961D01*
X171961779Y-97676961D02*
X172009398Y-97772200D01*
X172009398Y-97772200D02*
X172104636Y-97819819D01*
X172104636Y-97819819D02*
X172199874Y-97819819D01*
X172533208Y-97153152D02*
X172533208Y-98153152D01*
X172533208Y-97200771D02*
X172628446Y-97153152D01*
X172628446Y-97153152D02*
X172818922Y-97153152D01*
X172818922Y-97153152D02*
X172914160Y-97200771D01*
X172914160Y-97200771D02*
X172961779Y-97248390D01*
X172961779Y-97248390D02*
X173009398Y-97343628D01*
X173009398Y-97343628D02*
X173009398Y-97629342D01*
X173009398Y-97629342D02*
X172961779Y-97724580D01*
X172961779Y-97724580D02*
X172914160Y-97772200D01*
X172914160Y-97772200D02*
X172818922Y-97819819D01*
X172818922Y-97819819D02*
X172628446Y-97819819D01*
X172628446Y-97819819D02*
X172533208Y-97772200D01*
X173866541Y-97153152D02*
X173866541Y-97819819D01*
X173437970Y-97153152D02*
X173437970Y-97676961D01*
X173437970Y-97676961D02*
X173485589Y-97772200D01*
X173485589Y-97772200D02*
X173580827Y-97819819D01*
X173580827Y-97819819D02*
X173723684Y-97819819D01*
X173723684Y-97819819D02*
X173818922Y-97772200D01*
X173818922Y-97772200D02*
X173866541Y-97724580D01*
X174199875Y-97153152D02*
X174580827Y-97153152D01*
X174342732Y-96819819D02*
X174342732Y-97676961D01*
X174342732Y-97676961D02*
X174390351Y-97772200D01*
X174390351Y-97772200D02*
X174485589Y-97819819D01*
X174485589Y-97819819D02*
X174580827Y-97819819D01*
G36*
X175161779Y-107597123D02*
G01*
X175161779Y-108075847D01*
X175123836Y-108094819D01*
X174968770Y-108094819D01*
X174900254Y-108060561D01*
X174869847Y-108030153D01*
X174835589Y-107961637D01*
X174835589Y-107711333D01*
X174869847Y-107642817D01*
X174900254Y-107612410D01*
X174968770Y-107578152D01*
X175123836Y-107578152D01*
X175161779Y-107597123D01*
G37*
G36*
X167478066Y-107279077D02*
G01*
X167508473Y-107309484D01*
X167546966Y-107386471D01*
X167590350Y-107560005D01*
X167590350Y-107779632D01*
X167546966Y-107953166D01*
X167508472Y-108030153D01*
X167478065Y-108060561D01*
X167409550Y-108094819D01*
X167349722Y-108094819D01*
X167281206Y-108060561D01*
X167250799Y-108030153D01*
X167212305Y-107953166D01*
X167168922Y-107779632D01*
X167168922Y-107560005D01*
X167212305Y-107386471D01*
X167250799Y-107309484D01*
X167281206Y-107279077D01*
X167349722Y-107244819D01*
X167409550Y-107244819D01*
X167478066Y-107279077D01*
G37*
G36*
X176561830Y-107606672D02*
G01*
X176590351Y-107663714D01*
X176590351Y-107679762D01*
X176264161Y-107744999D01*
X176264161Y-107663714D01*
X176292681Y-107606672D01*
X176349723Y-107578152D01*
X176504789Y-107578152D01*
X176561830Y-107606672D01*
G37*
G36*
X180114161Y-108075847D02*
G01*
X180076218Y-108094819D01*
X179873533Y-108094819D01*
X179816491Y-108066298D01*
X179787971Y-108009256D01*
X179787971Y-107949428D01*
X179816491Y-107892386D01*
X179873533Y-107863866D01*
X180093923Y-107863866D01*
X180108555Y-107862425D01*
X180111044Y-107861393D01*
X180113732Y-107861203D01*
X180114161Y-107861038D01*
X180114161Y-108075847D01*
G37*
G36*
X181799926Y-107606672D02*
G01*
X181828447Y-107663714D01*
X181828447Y-107679762D01*
X181502257Y-107744999D01*
X181502257Y-107663714D01*
X181530777Y-107606672D01*
X181587819Y-107578152D01*
X181742885Y-107578152D01*
X181799926Y-107606672D01*
G37*
G36*
X178287591Y-107279077D02*
G01*
X178317998Y-107309484D01*
X178352256Y-107378000D01*
X178352256Y-107485447D01*
X178317998Y-107553963D01*
X178287591Y-107584370D01*
X178219075Y-107618628D01*
X177930828Y-107618628D01*
X177930828Y-107244819D01*
X178219075Y-107244819D01*
X178287591Y-107279077D01*
G37*
G36*
X186564308Y-108689263D02*
G01*
X165003638Y-108689263D01*
X165003638Y-107446152D01*
X165114749Y-107446152D01*
X165116823Y-107475342D01*
X165129910Y-107501517D01*
X165152018Y-107520690D01*
X165179779Y-107529944D01*
X165208969Y-107527870D01*
X165222701Y-107522615D01*
X165317939Y-107474996D01*
X165324238Y-107471031D01*
X165326066Y-107470274D01*
X165328122Y-107468585D01*
X165330382Y-107467164D01*
X165331681Y-107465665D01*
X165337431Y-107460947D01*
X165399874Y-107398504D01*
X165399874Y-108094819D01*
X165189160Y-108094819D01*
X165174528Y-108096260D01*
X165147492Y-108107459D01*
X165126800Y-108128151D01*
X165115601Y-108155187D01*
X165115601Y-108184451D01*
X165126800Y-108211487D01*
X165147492Y-108232179D01*
X165174528Y-108243378D01*
X165189160Y-108244819D01*
X165760588Y-108244819D01*
X165775220Y-108243378D01*
X165802256Y-108232179D01*
X165822948Y-108211487D01*
X165834147Y-108184451D01*
X165834147Y-108155187D01*
X166020363Y-108155187D01*
X166020363Y-108184451D01*
X166031562Y-108211487D01*
X166052254Y-108232179D01*
X166079290Y-108243378D01*
X166093922Y-108244819D01*
X166712969Y-108244819D01*
X166727601Y-108243378D01*
X166754637Y-108232179D01*
X166775329Y-108211487D01*
X166786528Y-108184451D01*
X166786528Y-108155187D01*
X166775329Y-108128151D01*
X166754637Y-108107459D01*
X166727601Y-108096260D01*
X166712969Y-108094819D01*
X166274988Y-108094819D01*
X166718383Y-107651423D01*
X166727711Y-107640058D01*
X166728742Y-107637567D01*
X166730507Y-107635533D01*
X166736501Y-107622107D01*
X166760280Y-107550771D01*
X167018922Y-107550771D01*
X167018922Y-107788866D01*
X167019173Y-107791419D01*
X167019011Y-107792512D01*
X167019820Y-107797985D01*
X167020363Y-107803498D01*
X167020785Y-107804519D01*
X167021161Y-107807056D01*
X167068780Y-107997532D01*
X167069165Y-107998611D01*
X167069204Y-107999151D01*
X167071531Y-108005232D01*
X167073727Y-108011378D01*
X167074049Y-108011813D01*
X167074459Y-108012883D01*
X167122078Y-108108121D01*
X167126041Y-108114417D01*
X167126799Y-108116247D01*
X167128488Y-108118305D01*
X167129910Y-108120564D01*
X167131408Y-108121863D01*
X167136126Y-108127612D01*
X167183745Y-108175232D01*
X167189494Y-108179950D01*
X167190795Y-108181450D01*
X167193054Y-108182872D01*
X167195111Y-108184560D01*
X167196938Y-108185317D01*
X167203238Y-108189282D01*
X167298476Y-108236901D01*
X167312207Y-108242156D01*
X167314896Y-108242347D01*
X167317385Y-108243378D01*
X167332017Y-108244819D01*
X167427255Y-108244819D01*
X167441887Y-108243378D01*
X167444376Y-108242346D01*
X167447064Y-108242156D01*
X167460796Y-108236901D01*
X167556034Y-108189282D01*
X167562333Y-108185317D01*
X167564161Y-108184560D01*
X167566217Y-108182872D01*
X167568477Y-108181450D01*
X167569777Y-108179950D01*
X167575527Y-108175232D01*
X167623145Y-108127613D01*
X167627863Y-108121863D01*
X167629362Y-108120564D01*
X167630783Y-108118305D01*
X167632473Y-108116247D01*
X167633230Y-108114417D01*
X167637194Y-108108121D01*
X167684813Y-108012883D01*
X167685222Y-108011813D01*
X167685545Y-108011378D01*
X167687737Y-108005241D01*
X167690068Y-107999152D01*
X167690106Y-107998611D01*
X167690492Y-107997532D01*
X167738111Y-107807056D01*
X167738486Y-107804519D01*
X167738909Y-107803498D01*
X167739451Y-107797985D01*
X167740261Y-107792512D01*
X167740098Y-107791419D01*
X167740350Y-107788866D01*
X167740350Y-107550771D01*
X167740098Y-107548217D01*
X167740261Y-107547125D01*
X167739451Y-107541651D01*
X167738909Y-107536139D01*
X167738486Y-107535117D01*
X167738111Y-107532581D01*
X167690492Y-107342105D01*
X167690106Y-107341025D01*
X167690068Y-107340485D01*
X167687737Y-107334395D01*
X167685545Y-107328259D01*
X167685222Y-107327823D01*
X167684813Y-107326754D01*
X167637194Y-107231516D01*
X167633229Y-107225216D01*
X167632472Y-107223389D01*
X167630783Y-107221332D01*
X167629362Y-107219073D01*
X167627863Y-107217773D01*
X167623145Y-107212024D01*
X167590320Y-107179199D01*
X167876654Y-107179199D01*
X167879914Y-107193536D01*
X168213247Y-108193536D01*
X168219241Y-108206961D01*
X168222751Y-108211008D01*
X168225148Y-108215802D01*
X168232256Y-108221967D01*
X168238415Y-108229068D01*
X168243204Y-108231462D01*
X168247255Y-108234976D01*
X168256180Y-108237950D01*
X168264588Y-108242155D01*
X168269932Y-108242534D01*
X168275018Y-108244230D01*
X168284398Y-108243563D01*
X168293778Y-108244230D01*
X168298863Y-108242534D01*
X168304208Y-108242155D01*
X168312618Y-108237949D01*
X168321540Y-108234976D01*
X168325587Y-108231465D01*
X168330381Y-108229069D01*
X168336544Y-108221963D01*
X168343648Y-108215802D01*
X168346043Y-108211010D01*
X168349555Y-108206962D01*
X168355549Y-108193536D01*
X168585677Y-107503152D01*
X168876065Y-107503152D01*
X168876065Y-108169819D01*
X168877506Y-108184451D01*
X168888705Y-108211487D01*
X168909397Y-108232179D01*
X168936433Y-108243378D01*
X168965697Y-108243378D01*
X168992733Y-108232179D01*
X169013425Y-108211487D01*
X169024624Y-108184451D01*
X169026065Y-108169819D01*
X169026065Y-107711333D01*
X169060323Y-107642817D01*
X169090730Y-107612410D01*
X169159246Y-107578152D01*
X169236779Y-107578152D01*
X169251411Y-107576711D01*
X169278447Y-107565512D01*
X169299139Y-107544820D01*
X169310338Y-107517784D01*
X169310338Y-107503152D01*
X169495113Y-107503152D01*
X169495113Y-108169819D01*
X169496554Y-108184451D01*
X169507753Y-108211487D01*
X169528445Y-108232179D01*
X169555481Y-108243378D01*
X169584745Y-108243378D01*
X169611781Y-108232179D01*
X169632473Y-108211487D01*
X169643672Y-108184451D01*
X169645113Y-108169819D01*
X169645113Y-107629456D01*
X169662159Y-107612410D01*
X169730675Y-107578152D01*
X169838122Y-107578152D01*
X169895163Y-107606672D01*
X169923684Y-107663714D01*
X169923684Y-108169819D01*
X169925125Y-108184451D01*
X169936324Y-108211487D01*
X169957016Y-108232179D01*
X169984052Y-108243378D01*
X170013316Y-108243378D01*
X170040352Y-108232179D01*
X170061044Y-108211487D01*
X170072243Y-108184451D01*
X170073684Y-108169819D01*
X170073684Y-107663714D01*
X170102204Y-107606672D01*
X170159246Y-107578152D01*
X170266693Y-107578152D01*
X170323735Y-107606672D01*
X170352256Y-107663714D01*
X170352256Y-108169819D01*
X170353697Y-108184451D01*
X170364896Y-108211487D01*
X170385588Y-108232179D01*
X170412624Y-108243378D01*
X170441888Y-108243378D01*
X170468924Y-108232179D01*
X170489616Y-108211487D01*
X170500815Y-108184451D01*
X170502256Y-108169819D01*
X170502256Y-107646009D01*
X170780827Y-107646009D01*
X170780827Y-107693628D01*
X170782268Y-107708260D01*
X170783299Y-107710749D01*
X170783490Y-107713437D01*
X170788745Y-107727169D01*
X170836364Y-107822407D01*
X170837904Y-107824854D01*
X170838289Y-107826008D01*
X170839534Y-107827444D01*
X170844196Y-107834850D01*
X170851300Y-107841011D01*
X170857462Y-107848116D01*
X170864867Y-107852777D01*
X170866304Y-107854023D01*
X170867457Y-107854407D01*
X170869905Y-107855948D01*
X170965143Y-107903567D01*
X170978874Y-107908822D01*
X170981563Y-107909013D01*
X170984052Y-107910044D01*
X170998684Y-107911485D01*
X171123836Y-107911485D01*
X171180877Y-107940005D01*
X171209398Y-107997047D01*
X171209398Y-108009256D01*
X171180877Y-108066298D01*
X171123836Y-108094819D01*
X170968770Y-108094819D01*
X170889368Y-108055118D01*
X170875636Y-108049863D01*
X170846446Y-108047789D01*
X170818685Y-108057043D01*
X170796577Y-108076216D01*
X170783490Y-108102391D01*
X170781416Y-108131581D01*
X170790670Y-108159342D01*
X170809843Y-108181450D01*
X170822286Y-108189282D01*
X170917524Y-108236901D01*
X170931255Y-108242156D01*
X170933944Y-108242347D01*
X170936433Y-108243378D01*
X170951065Y-108244819D01*
X171141541Y-108244819D01*
X171156173Y-108243378D01*
X171158662Y-108242346D01*
X171161350Y-108242156D01*
X171175082Y-108236901D01*
X171270320Y-108189282D01*
X171272767Y-108187741D01*
X171273921Y-108187357D01*
X171275357Y-108186111D01*
X171282763Y-108181450D01*
X171288924Y-108174345D01*
X171296029Y-108168184D01*
X171300690Y-108160778D01*
X171301936Y-108159342D01*
X171302320Y-108158188D01*
X171303861Y-108155741D01*
X171351480Y-108060502D01*
X171356735Y-108046770D01*
X171356925Y-108044082D01*
X171357957Y-108041593D01*
X171359398Y-108026961D01*
X171359398Y-107979342D01*
X171357957Y-107964710D01*
X171356926Y-107962221D01*
X171356735Y-107959532D01*
X171351480Y-107945801D01*
X171303861Y-107850563D01*
X171302320Y-107848115D01*
X171301936Y-107846962D01*
X171300690Y-107845525D01*
X171296029Y-107838120D01*
X171288924Y-107831958D01*
X171282763Y-107824854D01*
X171275357Y-107820192D01*
X171273921Y-107818947D01*
X171272767Y-107818562D01*
X171270320Y-107817022D01*
X171175082Y-107769403D01*
X171161350Y-107764148D01*
X171158662Y-107763957D01*
X171156173Y-107762926D01*
X171141541Y-107761485D01*
X171016389Y-107761485D01*
X170959347Y-107732964D01*
X170930827Y-107675923D01*
X170930827Y-107663714D01*
X170959347Y-107606672D01*
X171016389Y-107578152D01*
X171123836Y-107578152D01*
X171203238Y-107617853D01*
X171216969Y-107623108D01*
X171246159Y-107625182D01*
X171273921Y-107615928D01*
X171296028Y-107596755D01*
X171309116Y-107570580D01*
X171311190Y-107541390D01*
X171301936Y-107513629D01*
X171282763Y-107491521D01*
X171270320Y-107483689D01*
X171175082Y-107436070D01*
X171161350Y-107430815D01*
X171158662Y-107430624D01*
X171156173Y-107429593D01*
X171141541Y-107428152D01*
X170998684Y-107428152D01*
X170984052Y-107429593D01*
X170981563Y-107430623D01*
X170978874Y-107430815D01*
X170965143Y-107436070D01*
X170869905Y-107483689D01*
X170867457Y-107485229D01*
X170866304Y-107485614D01*
X170864867Y-107486859D01*
X170857462Y-107491521D01*
X170851300Y-107498625D01*
X170844196Y-107504787D01*
X170839534Y-107512192D01*
X170838289Y-107513629D01*
X170837904Y-107514782D01*
X170836364Y-107517230D01*
X170788745Y-107612468D01*
X170783490Y-107626200D01*
X170783299Y-107628887D01*
X170782268Y-107631377D01*
X170780827Y-107646009D01*
X170502256Y-107646009D01*
X170500815Y-107631377D01*
X170499784Y-107628888D01*
X170499593Y-107626199D01*
X170494338Y-107612468D01*
X170446719Y-107517230D01*
X170445178Y-107514782D01*
X170444794Y-107513629D01*
X170443548Y-107512192D01*
X170438887Y-107504787D01*
X170431779Y-107498623D01*
X170425620Y-107491521D01*
X170418216Y-107486860D01*
X170416779Y-107485614D01*
X170415624Y-107485229D01*
X170413178Y-107483689D01*
X170317939Y-107436070D01*
X170304207Y-107430815D01*
X170301519Y-107430624D01*
X170299030Y-107429593D01*
X170284398Y-107428152D01*
X170141541Y-107428152D01*
X170126909Y-107429593D01*
X170124420Y-107430623D01*
X170121731Y-107430815D01*
X170108000Y-107436070D01*
X170012762Y-107483689D01*
X170010314Y-107485229D01*
X170009161Y-107485614D01*
X170007724Y-107486859D01*
X170000319Y-107491521D01*
X169998684Y-107493406D01*
X169997049Y-107491521D01*
X169989643Y-107486859D01*
X169988207Y-107485614D01*
X169987053Y-107485229D01*
X169984606Y-107483689D01*
X169889368Y-107436070D01*
X169875636Y-107430815D01*
X169872948Y-107430624D01*
X169870459Y-107429593D01*
X169855827Y-107428152D01*
X169712970Y-107428152D01*
X169698338Y-107429593D01*
X169695849Y-107430623D01*
X169693160Y-107430815D01*
X169679429Y-107436070D01*
X169631182Y-107460193D01*
X169611781Y-107440792D01*
X169584745Y-107429593D01*
X169555481Y-107429593D01*
X169528445Y-107440792D01*
X169507753Y-107461484D01*
X169496554Y-107488520D01*
X169495113Y-107503152D01*
X169310338Y-107503152D01*
X169310338Y-107488520D01*
X169299139Y-107461484D01*
X169278447Y-107440792D01*
X169251411Y-107429593D01*
X169236779Y-107428152D01*
X169141541Y-107428152D01*
X169126909Y-107429593D01*
X169124420Y-107430623D01*
X169121731Y-107430815D01*
X169108000Y-107436070D01*
X169020930Y-107479604D01*
X169013425Y-107461484D01*
X168992733Y-107440792D01*
X168965697Y-107429593D01*
X168936433Y-107429593D01*
X168909397Y-107440792D01*
X168888705Y-107461484D01*
X168877506Y-107488520D01*
X168876065Y-107503152D01*
X168585677Y-107503152D01*
X168633296Y-107360295D01*
X172352256Y-107360295D01*
X172352256Y-107455533D01*
X172353697Y-107470165D01*
X172354728Y-107472654D01*
X172354919Y-107475342D01*
X172360174Y-107489074D01*
X172407793Y-107584312D01*
X172411757Y-107590611D01*
X172412515Y-107592439D01*
X172414203Y-107594495D01*
X172415625Y-107596755D01*
X172417123Y-107598054D01*
X172421842Y-107603804D01*
X172469461Y-107651423D01*
X172475210Y-107656141D01*
X172476510Y-107657640D01*
X172478769Y-107659061D01*
X172480826Y-107660750D01*
X172482653Y-107661507D01*
X172488953Y-107665472D01*
X172584191Y-107713091D01*
X172585260Y-107713500D01*
X172585696Y-107713823D01*
X172591832Y-107716015D01*
X172597922Y-107718346D01*
X172598462Y-107718384D01*
X172599542Y-107718770D01*
X172782032Y-107764392D01*
X172859019Y-107802886D01*
X172889426Y-107833293D01*
X172923684Y-107901809D01*
X172923684Y-107961637D01*
X172889425Y-108030153D01*
X172859018Y-108060561D01*
X172790503Y-108094819D01*
X172582283Y-108094819D01*
X172450973Y-108051049D01*
X172436636Y-108047789D01*
X172407446Y-108049864D01*
X172381273Y-108062950D01*
X172362099Y-108085057D01*
X172352845Y-108112820D01*
X172354920Y-108142010D01*
X172368006Y-108168183D01*
X172390113Y-108187357D01*
X172403539Y-108193351D01*
X172546395Y-108240970D01*
X172553650Y-108242619D01*
X172555481Y-108243378D01*
X172558134Y-108243639D01*
X172560732Y-108244230D01*
X172562706Y-108244089D01*
X172570113Y-108244819D01*
X172808208Y-108244819D01*
X172822840Y-108243378D01*
X172825329Y-108242346D01*
X172828017Y-108242156D01*
X172841749Y-108236901D01*
X172936987Y-108189282D01*
X172943286Y-108185317D01*
X172945114Y-108184560D01*
X172947170Y-108182872D01*
X172949430Y-108181450D01*
X172950730Y-108179950D01*
X172956480Y-108175232D01*
X173004098Y-108127613D01*
X173008816Y-108121863D01*
X173010315Y-108120564D01*
X173011736Y-108118305D01*
X173013426Y-108116247D01*
X173014183Y-108114417D01*
X173018147Y-108108121D01*
X173065766Y-108012883D01*
X173071021Y-107999152D01*
X173071212Y-107996462D01*
X173072243Y-107993974D01*
X173073684Y-107979342D01*
X173073684Y-107884104D01*
X173072243Y-107869472D01*
X173071212Y-107866983D01*
X173071021Y-107864294D01*
X173065766Y-107850563D01*
X173018147Y-107755325D01*
X173014182Y-107749025D01*
X173013425Y-107747198D01*
X173011736Y-107745141D01*
X173010315Y-107742882D01*
X173008816Y-107741582D01*
X173004098Y-107735833D01*
X172956479Y-107688214D01*
X172950729Y-107683495D01*
X172949430Y-107681997D01*
X172947170Y-107680575D01*
X172945114Y-107678887D01*
X172943286Y-107678129D01*
X172936987Y-107674165D01*
X172841749Y-107626546D01*
X172840679Y-107626136D01*
X172840244Y-107625814D01*
X172834098Y-107623618D01*
X172828017Y-107621291D01*
X172827477Y-107621252D01*
X172826398Y-107620867D01*
X172643908Y-107575244D01*
X172566921Y-107536751D01*
X172536514Y-107506344D01*
X172534918Y-107503152D01*
X173352256Y-107503152D01*
X173352256Y-108169819D01*
X173353697Y-108184451D01*
X173364896Y-108211487D01*
X173385588Y-108232179D01*
X173412624Y-108243378D01*
X173441888Y-108243378D01*
X173468924Y-108232179D01*
X173489616Y-108211487D01*
X173500815Y-108184451D01*
X173502256Y-108169819D01*
X173502256Y-107503152D01*
X173828446Y-107503152D01*
X173828446Y-108169819D01*
X173829887Y-108184451D01*
X173841086Y-108211487D01*
X173861778Y-108232179D01*
X173888814Y-108243378D01*
X173918078Y-108243378D01*
X173945114Y-108232179D01*
X173965806Y-108211487D01*
X173977005Y-108184451D01*
X173978446Y-108169819D01*
X173978446Y-107629456D01*
X173995492Y-107612410D01*
X174064008Y-107578152D01*
X174171455Y-107578152D01*
X174228496Y-107606672D01*
X174257017Y-107663714D01*
X174257017Y-108169819D01*
X174258458Y-108184451D01*
X174269657Y-108211487D01*
X174290349Y-108232179D01*
X174317385Y-108243378D01*
X174346649Y-108243378D01*
X174373685Y-108232179D01*
X174394377Y-108211487D01*
X174405576Y-108184451D01*
X174407017Y-108169819D01*
X174407017Y-107693628D01*
X174685589Y-107693628D01*
X174685589Y-107979342D01*
X174687030Y-107993974D01*
X174688061Y-107996463D01*
X174688252Y-107999151D01*
X174693507Y-108012883D01*
X174741126Y-108108121D01*
X174745089Y-108114417D01*
X174745847Y-108116247D01*
X174747536Y-108118305D01*
X174748958Y-108120564D01*
X174750456Y-108121863D01*
X174755174Y-108127612D01*
X174802793Y-108175232D01*
X174808542Y-108179950D01*
X174809843Y-108181450D01*
X174812102Y-108182872D01*
X174814159Y-108184560D01*
X174815986Y-108185317D01*
X174822286Y-108189282D01*
X174917524Y-108236901D01*
X174931255Y-108242156D01*
X174933944Y-108242347D01*
X174936433Y-108243378D01*
X174951065Y-108244819D01*
X175141541Y-108244819D01*
X175156173Y-108243378D01*
X175158662Y-108242346D01*
X175161350Y-108242156D01*
X175161779Y-108241991D01*
X175161779Y-108294971D01*
X175127521Y-108363487D01*
X175097114Y-108393894D01*
X175028598Y-108428152D01*
X174921151Y-108428152D01*
X174841749Y-108388451D01*
X174828017Y-108383196D01*
X174798827Y-108381122D01*
X174771066Y-108390376D01*
X174748958Y-108409549D01*
X174735871Y-108435724D01*
X174733797Y-108464914D01*
X174743051Y-108492675D01*
X174762224Y-108514783D01*
X174774667Y-108522615D01*
X174869905Y-108570234D01*
X174883636Y-108575489D01*
X174886325Y-108575680D01*
X174888814Y-108576711D01*
X174903446Y-108578152D01*
X175046303Y-108578152D01*
X175060935Y-108576711D01*
X175063424Y-108575679D01*
X175066112Y-108575489D01*
X175079844Y-108570234D01*
X175175082Y-108522615D01*
X175181381Y-108518650D01*
X175183209Y-108517893D01*
X175185265Y-108516204D01*
X175187525Y-108514783D01*
X175188824Y-108513284D01*
X175194574Y-108508566D01*
X175242193Y-108460947D01*
X175246911Y-108455197D01*
X175248410Y-108453898D01*
X175249831Y-108451638D01*
X175251520Y-108449582D01*
X175252277Y-108447754D01*
X175256242Y-108441455D01*
X175303861Y-108346217D01*
X175309116Y-108332486D01*
X175309307Y-108329796D01*
X175310338Y-108327308D01*
X175311779Y-108312676D01*
X175311779Y-107503152D01*
X175310338Y-107488520D01*
X175299139Y-107461484D01*
X175278447Y-107440792D01*
X175251411Y-107429593D01*
X175222147Y-107429593D01*
X175195111Y-107440792D01*
X175191582Y-107444320D01*
X175175082Y-107436070D01*
X175161350Y-107430815D01*
X175158662Y-107430624D01*
X175156173Y-107429593D01*
X175141541Y-107428152D01*
X174951065Y-107428152D01*
X174936433Y-107429593D01*
X174933944Y-107430623D01*
X174931255Y-107430815D01*
X174917524Y-107436070D01*
X174822286Y-107483689D01*
X174815986Y-107487653D01*
X174814159Y-107488411D01*
X174812102Y-107490099D01*
X174809843Y-107491521D01*
X174808543Y-107493019D01*
X174802794Y-107497738D01*
X174755175Y-107545357D01*
X174750456Y-107551106D01*
X174748958Y-107552406D01*
X174747536Y-107554665D01*
X174745848Y-107556722D01*
X174745090Y-107558549D01*
X174741126Y-107564849D01*
X174693507Y-107660087D01*
X174688252Y-107673819D01*
X174688061Y-107676506D01*
X174687030Y-107678996D01*
X174685589Y-107693628D01*
X174407017Y-107693628D01*
X174407017Y-107646009D01*
X174405576Y-107631377D01*
X174404545Y-107628888D01*
X174404354Y-107626199D01*
X174399099Y-107612468D01*
X174351480Y-107517230D01*
X174349939Y-107514782D01*
X174349555Y-107513629D01*
X174348309Y-107512192D01*
X174343648Y-107504787D01*
X174336543Y-107498625D01*
X174330382Y-107491521D01*
X174322976Y-107486859D01*
X174321540Y-107485614D01*
X174320386Y-107485229D01*
X174317939Y-107483689D01*
X174222701Y-107436070D01*
X174208969Y-107430815D01*
X174206281Y-107430624D01*
X174203792Y-107429593D01*
X174189160Y-107428152D01*
X174046303Y-107428152D01*
X174031671Y-107429593D01*
X174029182Y-107430623D01*
X174026493Y-107430815D01*
X174012762Y-107436070D01*
X173964515Y-107460193D01*
X173945114Y-107440792D01*
X173918078Y-107429593D01*
X173888814Y-107429593D01*
X173861778Y-107440792D01*
X173841086Y-107461484D01*
X173829887Y-107488520D01*
X173828446Y-107503152D01*
X173502256Y-107503152D01*
X173500815Y-107488520D01*
X173489616Y-107461484D01*
X173468924Y-107440792D01*
X173441888Y-107429593D01*
X173412624Y-107429593D01*
X173385588Y-107440792D01*
X173364896Y-107461484D01*
X173353697Y-107488520D01*
X173352256Y-107503152D01*
X172534918Y-107503152D01*
X172502256Y-107437828D01*
X172502256Y-107378000D01*
X172536514Y-107309484D01*
X172566921Y-107279077D01*
X172635437Y-107244819D01*
X172843657Y-107244819D01*
X172974966Y-107288589D01*
X172989303Y-107291849D01*
X173018493Y-107289774D01*
X173044667Y-107276688D01*
X173063841Y-107254580D01*
X173073095Y-107226818D01*
X173071388Y-107202807D01*
X173306078Y-107202807D01*
X173306078Y-107232069D01*
X173317277Y-107259106D01*
X173326604Y-107270471D01*
X173374223Y-107318090D01*
X173385588Y-107327417D01*
X173412624Y-107338616D01*
X173412625Y-107338616D01*
X173441887Y-107338616D01*
X173441888Y-107338616D01*
X173468924Y-107327417D01*
X173480289Y-107318090D01*
X173527908Y-107270471D01*
X173537235Y-107259106D01*
X173548434Y-107232070D01*
X173548434Y-107202807D01*
X173542976Y-107189629D01*
X173537235Y-107175770D01*
X173532351Y-107169819D01*
X175637970Y-107169819D01*
X175637970Y-108026961D01*
X175639411Y-108041593D01*
X175640442Y-108044082D01*
X175640633Y-108046770D01*
X175645888Y-108060502D01*
X175693507Y-108155741D01*
X175695047Y-108158187D01*
X175695432Y-108159342D01*
X175696678Y-108160779D01*
X175701339Y-108168183D01*
X175708441Y-108174342D01*
X175714605Y-108181450D01*
X175722010Y-108186111D01*
X175723447Y-108187357D01*
X175724600Y-108187741D01*
X175727048Y-108189282D01*
X175822286Y-108236901D01*
X175836017Y-108242156D01*
X175865207Y-108244230D01*
X175892969Y-108234976D01*
X175915076Y-108215803D01*
X175928164Y-108189628D01*
X175930238Y-108160438D01*
X175920984Y-108132677D01*
X175901811Y-108110569D01*
X175889368Y-108102737D01*
X175816490Y-108066298D01*
X175787970Y-108009256D01*
X175787970Y-107646009D01*
X176114161Y-107646009D01*
X176114161Y-108026961D01*
X176115602Y-108041593D01*
X176116633Y-108044082D01*
X176116824Y-108046770D01*
X176122079Y-108060502D01*
X176169698Y-108155741D01*
X176171238Y-108158187D01*
X176171623Y-108159342D01*
X176172869Y-108160779D01*
X176177530Y-108168183D01*
X176184632Y-108174342D01*
X176190796Y-108181450D01*
X176198201Y-108186111D01*
X176199638Y-108187357D01*
X176200791Y-108187741D01*
X176203239Y-108189282D01*
X176298477Y-108236901D01*
X176312208Y-108242156D01*
X176314897Y-108242347D01*
X176317386Y-108243378D01*
X176332018Y-108244819D01*
X176522494Y-108244819D01*
X176537126Y-108243378D01*
X176539615Y-108242346D01*
X176542303Y-108242156D01*
X176556035Y-108236901D01*
X176651273Y-108189282D01*
X176663716Y-108181450D01*
X176682889Y-108159342D01*
X176692143Y-108131581D01*
X176690069Y-108102391D01*
X176676981Y-108076216D01*
X176654874Y-108057043D01*
X176627112Y-108047789D01*
X176597922Y-108049863D01*
X176584191Y-108055118D01*
X176504789Y-108094819D01*
X176349723Y-108094819D01*
X176292681Y-108066298D01*
X176264161Y-108009256D01*
X176264161Y-107897970D01*
X176680059Y-107814791D01*
X176694125Y-107810508D01*
X176700230Y-107806419D01*
X176707019Y-107803607D01*
X176712271Y-107798354D01*
X176718439Y-107794224D01*
X176722513Y-107788113D01*
X176727711Y-107782915D01*
X176730554Y-107776051D01*
X176734671Y-107769876D01*
X176736096Y-107762670D01*
X176738910Y-107755879D01*
X176740351Y-107741247D01*
X176740351Y-107646009D01*
X176738910Y-107631377D01*
X176737879Y-107628888D01*
X176737688Y-107626199D01*
X176732433Y-107612468D01*
X176684814Y-107517230D01*
X176683273Y-107514782D01*
X176682889Y-107513629D01*
X176681643Y-107512192D01*
X176676982Y-107504787D01*
X176669877Y-107498625D01*
X176663716Y-107491521D01*
X176656310Y-107486859D01*
X176654874Y-107485614D01*
X176653720Y-107485229D01*
X176651273Y-107483689D01*
X176556035Y-107436070D01*
X176542303Y-107430815D01*
X176539615Y-107430624D01*
X176537126Y-107429593D01*
X176522494Y-107428152D01*
X176332018Y-107428152D01*
X176317386Y-107429593D01*
X176314897Y-107430623D01*
X176312208Y-107430815D01*
X176298477Y-107436070D01*
X176203239Y-107483689D01*
X176200791Y-107485229D01*
X176199638Y-107485614D01*
X176198201Y-107486859D01*
X176190796Y-107491521D01*
X176184634Y-107498625D01*
X176177530Y-107504787D01*
X176172868Y-107512192D01*
X176171623Y-107513629D01*
X176171238Y-107514782D01*
X176169698Y-107517230D01*
X176122079Y-107612468D01*
X176116824Y-107626200D01*
X176116633Y-107628887D01*
X176115602Y-107631377D01*
X176114161Y-107646009D01*
X175787970Y-107646009D01*
X175787970Y-107169819D01*
X177780828Y-107169819D01*
X177780828Y-108169819D01*
X177782269Y-108184451D01*
X177793468Y-108211487D01*
X177814160Y-108232179D01*
X177841196Y-108243378D01*
X177870460Y-108243378D01*
X177897496Y-108232179D01*
X177918188Y-108211487D01*
X177929387Y-108184451D01*
X177930828Y-108169819D01*
X177930828Y-107768628D01*
X178236780Y-107768628D01*
X178251412Y-107767187D01*
X178253901Y-107766155D01*
X178256589Y-107765965D01*
X178270321Y-107760710D01*
X178365559Y-107713091D01*
X178371858Y-107709126D01*
X178373686Y-107708369D01*
X178375742Y-107706680D01*
X178378002Y-107705259D01*
X178379301Y-107703760D01*
X178385051Y-107699042D01*
X178432670Y-107651423D01*
X178437388Y-107645673D01*
X178438887Y-107644374D01*
X178440308Y-107642114D01*
X178441997Y-107640058D01*
X178442754Y-107638230D01*
X178446719Y-107631931D01*
X178494338Y-107536693D01*
X178499593Y-107522962D01*
X178499784Y-107520272D01*
X178500815Y-107517784D01*
X178502256Y-107503152D01*
X178502256Y-107360295D01*
X178500815Y-107345663D01*
X178499784Y-107343174D01*
X178499593Y-107340485D01*
X178494338Y-107326754D01*
X178446719Y-107231516D01*
X178442754Y-107225216D01*
X178441997Y-107223389D01*
X178440308Y-107221332D01*
X178438887Y-107219073D01*
X178437388Y-107217773D01*
X178432670Y-107212024D01*
X178390465Y-107169819D01*
X178780828Y-107169819D01*
X178780828Y-108169819D01*
X178782269Y-108184451D01*
X178793468Y-108211487D01*
X178814160Y-108232179D01*
X178841196Y-108243378D01*
X178870460Y-108243378D01*
X178897496Y-108232179D01*
X178918188Y-108211487D01*
X178929387Y-108184451D01*
X178930828Y-108169819D01*
X178930828Y-107629456D01*
X178947874Y-107612410D01*
X179016390Y-107578152D01*
X179123837Y-107578152D01*
X179180878Y-107606672D01*
X179209399Y-107663714D01*
X179209399Y-108169819D01*
X179210840Y-108184451D01*
X179222039Y-108211487D01*
X179242731Y-108232179D01*
X179269767Y-108243378D01*
X179299031Y-108243378D01*
X179326067Y-108232179D01*
X179346759Y-108211487D01*
X179357958Y-108184451D01*
X179359399Y-108169819D01*
X179359399Y-107931723D01*
X179637971Y-107931723D01*
X179637971Y-108026961D01*
X179639412Y-108041593D01*
X179640443Y-108044082D01*
X179640634Y-108046770D01*
X179645889Y-108060502D01*
X179693508Y-108155741D01*
X179695048Y-108158187D01*
X179695433Y-108159342D01*
X179696679Y-108160779D01*
X179701340Y-108168183D01*
X179708442Y-108174342D01*
X179714606Y-108181450D01*
X179722011Y-108186111D01*
X179723448Y-108187357D01*
X179724601Y-108187741D01*
X179727049Y-108189282D01*
X179822287Y-108236901D01*
X179836018Y-108242156D01*
X179838707Y-108242347D01*
X179841196Y-108243378D01*
X179855828Y-108244819D01*
X180093923Y-108244819D01*
X180108555Y-108243378D01*
X180111044Y-108242346D01*
X180113732Y-108242156D01*
X180127464Y-108236901D01*
X180143964Y-108228650D01*
X180147493Y-108232179D01*
X180174529Y-108243378D01*
X180203793Y-108243378D01*
X180230829Y-108232179D01*
X180251521Y-108211487D01*
X180262720Y-108184451D01*
X180264161Y-108169819D01*
X180264161Y-107646009D01*
X180542733Y-107646009D01*
X180542733Y-107693628D01*
X180544174Y-107708260D01*
X180545205Y-107710749D01*
X180545396Y-107713437D01*
X180550651Y-107727169D01*
X180598270Y-107822407D01*
X180599810Y-107824854D01*
X180600195Y-107826008D01*
X180601440Y-107827444D01*
X180606102Y-107834850D01*
X180613206Y-107841011D01*
X180619368Y-107848116D01*
X180626773Y-107852777D01*
X180628210Y-107854023D01*
X180629363Y-107854407D01*
X180631811Y-107855948D01*
X180727049Y-107903567D01*
X180740780Y-107908822D01*
X180743469Y-107909013D01*
X180745958Y-107910044D01*
X180760590Y-107911485D01*
X180885742Y-107911485D01*
X180942783Y-107940005D01*
X180971304Y-107997047D01*
X180971304Y-108009256D01*
X180942783Y-108066298D01*
X180885742Y-108094819D01*
X180730676Y-108094819D01*
X180651274Y-108055118D01*
X180637542Y-108049863D01*
X180608352Y-108047789D01*
X180580591Y-108057043D01*
X180558483Y-108076216D01*
X180545396Y-108102391D01*
X180543322Y-108131581D01*
X180552576Y-108159342D01*
X180571749Y-108181450D01*
X180584192Y-108189282D01*
X180679430Y-108236901D01*
X180693161Y-108242156D01*
X180695850Y-108242347D01*
X180698339Y-108243378D01*
X180712971Y-108244819D01*
X180903447Y-108244819D01*
X180918079Y-108243378D01*
X180920568Y-108242346D01*
X180923256Y-108242156D01*
X180936988Y-108236901D01*
X181032226Y-108189282D01*
X181034673Y-108187741D01*
X181035827Y-108187357D01*
X181037263Y-108186111D01*
X181044669Y-108181450D01*
X181050830Y-108174345D01*
X181057935Y-108168184D01*
X181062596Y-108160778D01*
X181063842Y-108159342D01*
X181064226Y-108158188D01*
X181065767Y-108155741D01*
X181113386Y-108060502D01*
X181118641Y-108046770D01*
X181118831Y-108044082D01*
X181119863Y-108041593D01*
X181121304Y-108026961D01*
X181121304Y-107979342D01*
X181119863Y-107964710D01*
X181118832Y-107962221D01*
X181118641Y-107959532D01*
X181113386Y-107945801D01*
X181065767Y-107850563D01*
X181064226Y-107848115D01*
X181063842Y-107846962D01*
X181062596Y-107845525D01*
X181057935Y-107838120D01*
X181050830Y-107831958D01*
X181044669Y-107824854D01*
X181037263Y-107820192D01*
X181035827Y-107818947D01*
X181034673Y-107818562D01*
X181032226Y-107817022D01*
X180936988Y-107769403D01*
X180923256Y-107764148D01*
X180920568Y-107763957D01*
X180918079Y-107762926D01*
X180903447Y-107761485D01*
X180778295Y-107761485D01*
X180721253Y-107732964D01*
X180692733Y-107675923D01*
X180692733Y-107663714D01*
X180701585Y-107646009D01*
X181352257Y-107646009D01*
X181352257Y-108026961D01*
X181353698Y-108041593D01*
X181354729Y-108044082D01*
X181354920Y-108046770D01*
X181360175Y-108060502D01*
X181407794Y-108155741D01*
X181409334Y-108158187D01*
X181409719Y-108159342D01*
X181410965Y-108160779D01*
X181415626Y-108168183D01*
X181422728Y-108174342D01*
X181428892Y-108181450D01*
X181436297Y-108186111D01*
X181437734Y-108187357D01*
X181438887Y-108187741D01*
X181441335Y-108189282D01*
X181536573Y-108236901D01*
X181550304Y-108242156D01*
X181552993Y-108242347D01*
X181555482Y-108243378D01*
X181570114Y-108244819D01*
X181760590Y-108244819D01*
X181775222Y-108243378D01*
X181777711Y-108242346D01*
X181780399Y-108242156D01*
X181794131Y-108236901D01*
X181889369Y-108189282D01*
X181901812Y-108181450D01*
X181920985Y-108159342D01*
X181930239Y-108131581D01*
X181928165Y-108102391D01*
X181915077Y-108076216D01*
X181892970Y-108057043D01*
X181865208Y-108047789D01*
X181836018Y-108049863D01*
X181822287Y-108055118D01*
X181742885Y-108094819D01*
X181587819Y-108094819D01*
X181530777Y-108066298D01*
X181502257Y-108009256D01*
X181502257Y-107897970D01*
X181918155Y-107814791D01*
X181932221Y-107810508D01*
X181938326Y-107806419D01*
X181945115Y-107803607D01*
X181950367Y-107798354D01*
X181956535Y-107794224D01*
X181960609Y-107788113D01*
X181965807Y-107782915D01*
X181968650Y-107776051D01*
X181972767Y-107769876D01*
X181974192Y-107762670D01*
X181977006Y-107755879D01*
X181978447Y-107741247D01*
X181978447Y-107646009D01*
X181977006Y-107631377D01*
X181975975Y-107628888D01*
X181975784Y-107626199D01*
X181970529Y-107612468D01*
X181922910Y-107517230D01*
X181921369Y-107514782D01*
X181920985Y-107513629D01*
X181919739Y-107512192D01*
X181915078Y-107504787D01*
X181907973Y-107498625D01*
X181901812Y-107491521D01*
X181894406Y-107486859D01*
X181892970Y-107485614D01*
X181891816Y-107485229D01*
X181889369Y-107483689D01*
X181794131Y-107436070D01*
X181780399Y-107430815D01*
X181777711Y-107430624D01*
X181775222Y-107429593D01*
X181760590Y-107428152D01*
X181570114Y-107428152D01*
X181555482Y-107429593D01*
X181552993Y-107430623D01*
X181550304Y-107430815D01*
X181536573Y-107436070D01*
X181441335Y-107483689D01*
X181438887Y-107485229D01*
X181437734Y-107485614D01*
X181436297Y-107486859D01*
X181428892Y-107491521D01*
X181422730Y-107498625D01*
X181415626Y-107504787D01*
X181410964Y-107512192D01*
X181409719Y-107513629D01*
X181409334Y-107514782D01*
X181407794Y-107517230D01*
X181360175Y-107612468D01*
X181354920Y-107626200D01*
X181354729Y-107628887D01*
X181353698Y-107631377D01*
X181352257Y-107646009D01*
X180701585Y-107646009D01*
X180721253Y-107606672D01*
X180778295Y-107578152D01*
X180885742Y-107578152D01*
X180965144Y-107617853D01*
X180978875Y-107623108D01*
X181008065Y-107625182D01*
X181035827Y-107615928D01*
X181057934Y-107596755D01*
X181071022Y-107570580D01*
X181073096Y-107541390D01*
X181063842Y-107513629D01*
X181044669Y-107491521D01*
X181032226Y-107483689D01*
X180936988Y-107436070D01*
X180923256Y-107430815D01*
X180920568Y-107430624D01*
X180918079Y-107429593D01*
X180903447Y-107428152D01*
X180760590Y-107428152D01*
X180745958Y-107429593D01*
X180743469Y-107430623D01*
X180740780Y-107430815D01*
X180727049Y-107436070D01*
X180631811Y-107483689D01*
X180629363Y-107485229D01*
X180628210Y-107485614D01*
X180626773Y-107486859D01*
X180619368Y-107491521D01*
X180613206Y-107498625D01*
X180606102Y-107504787D01*
X180601440Y-107512192D01*
X180600195Y-107513629D01*
X180599810Y-107514782D01*
X180598270Y-107517230D01*
X180550651Y-107612468D01*
X180545396Y-107626200D01*
X180545205Y-107628887D01*
X180544174Y-107631377D01*
X180542733Y-107646009D01*
X180264161Y-107646009D01*
X180262720Y-107631377D01*
X180261689Y-107628888D01*
X180261498Y-107626199D01*
X180256243Y-107612468D01*
X180208624Y-107517230D01*
X180207083Y-107514782D01*
X180206699Y-107513629D01*
X180205453Y-107512192D01*
X180200792Y-107504787D01*
X180193687Y-107498625D01*
X180187526Y-107491521D01*
X180180120Y-107486859D01*
X180178684Y-107485614D01*
X180177530Y-107485229D01*
X180175083Y-107483689D01*
X180079845Y-107436070D01*
X180066113Y-107430815D01*
X180063425Y-107430624D01*
X180060936Y-107429593D01*
X180046304Y-107428152D01*
X179855828Y-107428152D01*
X179841196Y-107429593D01*
X179838707Y-107430623D01*
X179836018Y-107430815D01*
X179822287Y-107436070D01*
X179727049Y-107483689D01*
X179714606Y-107491521D01*
X179695433Y-107513629D01*
X179686179Y-107541390D01*
X179688253Y-107570580D01*
X179701340Y-107596755D01*
X179723448Y-107615928D01*
X179751209Y-107625182D01*
X179780399Y-107623108D01*
X179794131Y-107617853D01*
X179873533Y-107578152D01*
X180028599Y-107578152D01*
X180085640Y-107606672D01*
X180114161Y-107663714D01*
X180114161Y-107694894D01*
X180076218Y-107713866D01*
X179855828Y-107713866D01*
X179841196Y-107715307D01*
X179838707Y-107716337D01*
X179836018Y-107716529D01*
X179822287Y-107721784D01*
X179727049Y-107769403D01*
X179724601Y-107770943D01*
X179723448Y-107771328D01*
X179722011Y-107772573D01*
X179714606Y-107777235D01*
X179708444Y-107784339D01*
X179701340Y-107790501D01*
X179696678Y-107797906D01*
X179695433Y-107799343D01*
X179695048Y-107800496D01*
X179693508Y-107802944D01*
X179645889Y-107898182D01*
X179640634Y-107911914D01*
X179640443Y-107914601D01*
X179639412Y-107917091D01*
X179637971Y-107931723D01*
X179359399Y-107931723D01*
X179359399Y-107646009D01*
X179357958Y-107631377D01*
X179356927Y-107628888D01*
X179356736Y-107626199D01*
X179351481Y-107612468D01*
X179303862Y-107517230D01*
X179302321Y-107514782D01*
X179301937Y-107513629D01*
X179300691Y-107512192D01*
X179296030Y-107504787D01*
X179288925Y-107498625D01*
X179282764Y-107491521D01*
X179275358Y-107486859D01*
X179273922Y-107485614D01*
X179272768Y-107485229D01*
X179270321Y-107483689D01*
X179175083Y-107436070D01*
X179161351Y-107430815D01*
X179158663Y-107430624D01*
X179156174Y-107429593D01*
X179141542Y-107428152D01*
X178998685Y-107428152D01*
X178984053Y-107429593D01*
X178981564Y-107430623D01*
X178978875Y-107430815D01*
X178965144Y-107436070D01*
X178930828Y-107453228D01*
X178930828Y-107169819D01*
X183780829Y-107169819D01*
X183780829Y-108169819D01*
X183782270Y-108184451D01*
X183793469Y-108211487D01*
X183814161Y-108232179D01*
X183841197Y-108243378D01*
X183855829Y-108244819D01*
X184332019Y-108244819D01*
X184346651Y-108243378D01*
X184373687Y-108232179D01*
X184394379Y-108211487D01*
X184405578Y-108184451D01*
X184405578Y-108155187D01*
X184394379Y-108128151D01*
X184373687Y-108107459D01*
X184346651Y-108096260D01*
X184332019Y-108094819D01*
X183930829Y-108094819D01*
X183930829Y-107774234D01*
X184591794Y-107774234D01*
X184591794Y-107803498D01*
X184602993Y-107830534D01*
X184623685Y-107851226D01*
X184650721Y-107862425D01*
X184665353Y-107863866D01*
X185427258Y-107863866D01*
X185441890Y-107862425D01*
X185468926Y-107851226D01*
X185489618Y-107830534D01*
X185500817Y-107803498D01*
X185500817Y-107774234D01*
X185489618Y-107747198D01*
X185468926Y-107726506D01*
X185441890Y-107715307D01*
X185427258Y-107713866D01*
X184665353Y-107713866D01*
X184650721Y-107715307D01*
X184623685Y-107726506D01*
X184602993Y-107747198D01*
X184591794Y-107774234D01*
X183930829Y-107774234D01*
X183930829Y-107169819D01*
X185828448Y-107169819D01*
X185828448Y-108169819D01*
X185829889Y-108184451D01*
X185841088Y-108211487D01*
X185861780Y-108232179D01*
X185888816Y-108243378D01*
X185903448Y-108244819D01*
X186379638Y-108244819D01*
X186394270Y-108243378D01*
X186421306Y-108232179D01*
X186441998Y-108211487D01*
X186453197Y-108184451D01*
X186453197Y-108155187D01*
X186441998Y-108128151D01*
X186421306Y-108107459D01*
X186394270Y-108096260D01*
X186379638Y-108094819D01*
X185978448Y-108094819D01*
X185978448Y-107169819D01*
X185977007Y-107155187D01*
X185965808Y-107128151D01*
X185945116Y-107107459D01*
X185918080Y-107096260D01*
X185888816Y-107096260D01*
X185861780Y-107107459D01*
X185841088Y-107128151D01*
X185829889Y-107155187D01*
X185828448Y-107169819D01*
X183930829Y-107169819D01*
X183929388Y-107155187D01*
X183918189Y-107128151D01*
X183897497Y-107107459D01*
X183870461Y-107096260D01*
X183841197Y-107096260D01*
X183814161Y-107107459D01*
X183793469Y-107128151D01*
X183782270Y-107155187D01*
X183780829Y-107169819D01*
X178930828Y-107169819D01*
X178929387Y-107155187D01*
X178918188Y-107128151D01*
X178897496Y-107107459D01*
X178870460Y-107096260D01*
X178841196Y-107096260D01*
X178814160Y-107107459D01*
X178793468Y-107128151D01*
X178782269Y-107155187D01*
X178780828Y-107169819D01*
X178390465Y-107169819D01*
X178385051Y-107164405D01*
X178379301Y-107159686D01*
X178378002Y-107158188D01*
X178375742Y-107156766D01*
X178373686Y-107155078D01*
X178371858Y-107154320D01*
X178365559Y-107150356D01*
X178270321Y-107102737D01*
X178256589Y-107097482D01*
X178253901Y-107097291D01*
X178251412Y-107096260D01*
X178236780Y-107094819D01*
X177855828Y-107094819D01*
X177841196Y-107096260D01*
X177814160Y-107107459D01*
X177793468Y-107128151D01*
X177782269Y-107155187D01*
X177780828Y-107169819D01*
X175787970Y-107169819D01*
X175786529Y-107155187D01*
X175775330Y-107128151D01*
X175754638Y-107107459D01*
X175727602Y-107096260D01*
X175698338Y-107096260D01*
X175671302Y-107107459D01*
X175650610Y-107128151D01*
X175639411Y-107155187D01*
X175637970Y-107169819D01*
X173532351Y-107169819D01*
X173527908Y-107164405D01*
X173480289Y-107116786D01*
X173468924Y-107107459D01*
X173441888Y-107096260D01*
X173441887Y-107096260D01*
X173412624Y-107096260D01*
X173385588Y-107107459D01*
X173374223Y-107116786D01*
X173326604Y-107164405D01*
X173317277Y-107175770D01*
X173306078Y-107202807D01*
X173071388Y-107202807D01*
X173071020Y-107197628D01*
X173057933Y-107171455D01*
X173035826Y-107152281D01*
X173022401Y-107146287D01*
X172879544Y-107098668D01*
X172872290Y-107097018D01*
X172870459Y-107096260D01*
X172867804Y-107095998D01*
X172865207Y-107095408D01*
X172863232Y-107095548D01*
X172855827Y-107094819D01*
X172617732Y-107094819D01*
X172603100Y-107096260D01*
X172600611Y-107097290D01*
X172597922Y-107097482D01*
X172584191Y-107102737D01*
X172488953Y-107150356D01*
X172482653Y-107154320D01*
X172480826Y-107155078D01*
X172478769Y-107156766D01*
X172476510Y-107158188D01*
X172475210Y-107159686D01*
X172469461Y-107164405D01*
X172421842Y-107212024D01*
X172417123Y-107217773D01*
X172415625Y-107219073D01*
X172414203Y-107221332D01*
X172412515Y-107223389D01*
X172411757Y-107225216D01*
X172407793Y-107231516D01*
X172360174Y-107326754D01*
X172354919Y-107340486D01*
X172354728Y-107343173D01*
X172353697Y-107345663D01*
X172352256Y-107360295D01*
X168633296Y-107360295D01*
X168688882Y-107193536D01*
X168692142Y-107179200D01*
X168690067Y-107150010D01*
X168676981Y-107123836D01*
X168654873Y-107104662D01*
X168627111Y-107095408D01*
X168597921Y-107097483D01*
X168571748Y-107110570D01*
X168552574Y-107132677D01*
X168546580Y-107146102D01*
X168284398Y-107932648D01*
X168022216Y-107146102D01*
X168016222Y-107132676D01*
X167997048Y-107110569D01*
X167970875Y-107097483D01*
X167941685Y-107095408D01*
X167913922Y-107104662D01*
X167891815Y-107123836D01*
X167878729Y-107150009D01*
X167876654Y-107179199D01*
X167590320Y-107179199D01*
X167575526Y-107164405D01*
X167569776Y-107159686D01*
X167568477Y-107158188D01*
X167566217Y-107156766D01*
X167564161Y-107155078D01*
X167562333Y-107154320D01*
X167556034Y-107150356D01*
X167460796Y-107102737D01*
X167447064Y-107097482D01*
X167444376Y-107097291D01*
X167441887Y-107096260D01*
X167427255Y-107094819D01*
X167332017Y-107094819D01*
X167317385Y-107096260D01*
X167314896Y-107097290D01*
X167312207Y-107097482D01*
X167298476Y-107102737D01*
X167203238Y-107150356D01*
X167196938Y-107154320D01*
X167195111Y-107155078D01*
X167193054Y-107156766D01*
X167190795Y-107158188D01*
X167189495Y-107159686D01*
X167183746Y-107164405D01*
X167136127Y-107212024D01*
X167131408Y-107217773D01*
X167129910Y-107219073D01*
X167128488Y-107221332D01*
X167126800Y-107223389D01*
X167126042Y-107225216D01*
X167122078Y-107231516D01*
X167074459Y-107326754D01*
X167074049Y-107327823D01*
X167073727Y-107328259D01*
X167071531Y-107334404D01*
X167069204Y-107340486D01*
X167069165Y-107341025D01*
X167068780Y-107342105D01*
X167021161Y-107532581D01*
X167020785Y-107535117D01*
X167020363Y-107536139D01*
X167019820Y-107541651D01*
X167019011Y-107547125D01*
X167019173Y-107548217D01*
X167018922Y-107550771D01*
X166760280Y-107550771D01*
X166784120Y-107479251D01*
X166785769Y-107471995D01*
X166786528Y-107470165D01*
X166786789Y-107467511D01*
X166787380Y-107464914D01*
X166787239Y-107462939D01*
X166787969Y-107455533D01*
X166787969Y-107360295D01*
X166786528Y-107345663D01*
X166785497Y-107343174D01*
X166785306Y-107340485D01*
X166780051Y-107326754D01*
X166732432Y-107231516D01*
X166728467Y-107225216D01*
X166727710Y-107223389D01*
X166726021Y-107221332D01*
X166724600Y-107219073D01*
X166723101Y-107217773D01*
X166718383Y-107212024D01*
X166670764Y-107164405D01*
X166665014Y-107159686D01*
X166663715Y-107158188D01*
X166661455Y-107156766D01*
X166659399Y-107155078D01*
X166657571Y-107154320D01*
X166651272Y-107150356D01*
X166556034Y-107102737D01*
X166542302Y-107097482D01*
X166539614Y-107097291D01*
X166537125Y-107096260D01*
X166522493Y-107094819D01*
X166284398Y-107094819D01*
X166269766Y-107096260D01*
X166267277Y-107097290D01*
X166264588Y-107097482D01*
X166250857Y-107102737D01*
X166155619Y-107150356D01*
X166149319Y-107154320D01*
X166147492Y-107155078D01*
X166145435Y-107156766D01*
X166143176Y-107158188D01*
X166141876Y-107159686D01*
X166136127Y-107164405D01*
X166088508Y-107212024D01*
X166079181Y-107223389D01*
X166067982Y-107250426D01*
X166067982Y-107279688D01*
X166079181Y-107306725D01*
X166099873Y-107327417D01*
X166126910Y-107338616D01*
X166156172Y-107338616D01*
X166183209Y-107327417D01*
X166194574Y-107318090D01*
X166233587Y-107279077D01*
X166302103Y-107244819D01*
X166504788Y-107244819D01*
X166573304Y-107279077D01*
X166603711Y-107309484D01*
X166637969Y-107378000D01*
X166637969Y-107443363D01*
X166599797Y-107557876D01*
X166040889Y-108116786D01*
X166031562Y-108128151D01*
X166020363Y-108155187D01*
X165834147Y-108155187D01*
X165822948Y-108128151D01*
X165802256Y-108107459D01*
X165775220Y-108096260D01*
X165760588Y-108094819D01*
X165549874Y-108094819D01*
X165549874Y-107169819D01*
X165549868Y-107169766D01*
X165549874Y-107169740D01*
X165549858Y-107169663D01*
X165548433Y-107155187D01*
X165545591Y-107148326D01*
X165544135Y-107141045D01*
X165540045Y-107134938D01*
X165537234Y-107128151D01*
X165531985Y-107122902D01*
X165527852Y-107116730D01*
X165521735Y-107112652D01*
X165516542Y-107107459D01*
X165509682Y-107104617D01*
X165503503Y-107100498D01*
X165496294Y-107099072D01*
X165489506Y-107096260D01*
X165482079Y-107096260D01*
X165474795Y-107094819D01*
X165467590Y-107096260D01*
X165460242Y-107096260D01*
X165453381Y-107099101D01*
X165446101Y-107100558D01*
X165439995Y-107104646D01*
X165433206Y-107107459D01*
X165427955Y-107112709D01*
X165421786Y-107116841D01*
X165412565Y-107128099D01*
X165412514Y-107128151D01*
X165412504Y-107128173D01*
X165412470Y-107128216D01*
X165321350Y-107264896D01*
X165239971Y-107346275D01*
X165155619Y-107388451D01*
X165143176Y-107396283D01*
X165124003Y-107418391D01*
X165114749Y-107446152D01*
X165003638Y-107446152D01*
X165003638Y-106983708D01*
X186564308Y-106983708D01*
X186564308Y-108689263D01*
G37*
X120405281Y-65140475D02*
X119690996Y-65140475D01*
X119690996Y-65140475D02*
X119548139Y-65092856D01*
X119548139Y-65092856D02*
X119452901Y-64997618D01*
X119452901Y-64997618D02*
X119405281Y-64854761D01*
X119405281Y-64854761D02*
X119405281Y-64759523D01*
X119405281Y-66140475D02*
X119405281Y-65569047D01*
X119405281Y-65854761D02*
X120405281Y-65854761D01*
X120405281Y-65854761D02*
X120262424Y-65759523D01*
X120262424Y-65759523D02*
X120167186Y-65664285D01*
X120167186Y-65664285D02*
X120119567Y-65569047D01*
X120405281Y-66473809D02*
X120405281Y-67140475D01*
X120405281Y-67140475D02*
X119405281Y-66711904D01*
D11*
X118288333Y-43174318D02*
X117683571Y-43174318D01*
X117683571Y-43174318D02*
X117683571Y-41904318D01*
X118590714Y-41904318D02*
X119376905Y-41904318D01*
X119376905Y-41904318D02*
X118953571Y-42388127D01*
X118953571Y-42388127D02*
X119135000Y-42388127D01*
X119135000Y-42388127D02*
X119255952Y-42448603D01*
X119255952Y-42448603D02*
X119316428Y-42509080D01*
X119316428Y-42509080D02*
X119376905Y-42630032D01*
X119376905Y-42630032D02*
X119376905Y-42932413D01*
X119376905Y-42932413D02*
X119316428Y-43053365D01*
X119316428Y-43053365D02*
X119255952Y-43113842D01*
X119255952Y-43113842D02*
X119135000Y-43174318D01*
X119135000Y-43174318D02*
X118772143Y-43174318D01*
X118772143Y-43174318D02*
X118651190Y-43113842D01*
X118651190Y-43113842D02*
X118590714Y-43053365D01*
X118288333Y-88174318D02*
X117683571Y-88174318D01*
X117683571Y-88174318D02*
X117683571Y-86904318D01*
X119255952Y-87327651D02*
X119255952Y-88174318D01*
X118953571Y-86843842D02*
X118651190Y-87750984D01*
X118651190Y-87750984D02*
X119437381Y-87750984D01*
D10*
X165945180Y-64557142D02*
X166421371Y-64223809D01*
X165945180Y-63985714D02*
X166945180Y-63985714D01*
X166945180Y-63985714D02*
X166945180Y-64366666D01*
X166945180Y-64366666D02*
X166897561Y-64461904D01*
X166897561Y-64461904D02*
X166849942Y-64509523D01*
X166849942Y-64509523D02*
X166754704Y-64557142D01*
X166754704Y-64557142D02*
X166611847Y-64557142D01*
X166611847Y-64557142D02*
X166516609Y-64509523D01*
X166516609Y-64509523D02*
X166468990Y-64461904D01*
X166468990Y-64461904D02*
X166421371Y-64366666D01*
X166421371Y-64366666D02*
X166421371Y-63985714D01*
X166945180Y-64890476D02*
X166945180Y-65509523D01*
X166945180Y-65509523D02*
X166564228Y-65176190D01*
X166564228Y-65176190D02*
X166564228Y-65319047D01*
X166564228Y-65319047D02*
X166516609Y-65414285D01*
X166516609Y-65414285D02*
X166468990Y-65461904D01*
X166468990Y-65461904D02*
X166373752Y-65509523D01*
X166373752Y-65509523D02*
X166135657Y-65509523D01*
X166135657Y-65509523D02*
X166040419Y-65461904D01*
X166040419Y-65461904D02*
X165992800Y-65414285D01*
X165992800Y-65414285D02*
X165945180Y-65319047D01*
X165945180Y-65319047D02*
X165945180Y-65033333D01*
X165945180Y-65033333D02*
X165992800Y-64938095D01*
X165992800Y-64938095D02*
X166040419Y-64890476D01*
X166945180Y-65842857D02*
X166945180Y-66461904D01*
X166945180Y-66461904D02*
X166564228Y-66128571D01*
X166564228Y-66128571D02*
X166564228Y-66271428D01*
X166564228Y-66271428D02*
X166516609Y-66366666D01*
X166516609Y-66366666D02*
X166468990Y-66414285D01*
X166468990Y-66414285D02*
X166373752Y-66461904D01*
X166373752Y-66461904D02*
X166135657Y-66461904D01*
X166135657Y-66461904D02*
X166040419Y-66414285D01*
X166040419Y-66414285D02*
X165992800Y-66366666D01*
X165992800Y-66366666D02*
X165945180Y-66271428D01*
X165945180Y-66271428D02*
X165945180Y-65985714D01*
X165945180Y-65985714D02*
X165992800Y-65890476D01*
X165992800Y-65890476D02*
X166040419Y-65842857D01*
D11*
X194853365Y-65516428D02*
X194913842Y-65576904D01*
X194913842Y-65576904D02*
X194974318Y-65758333D01*
X194974318Y-65758333D02*
X194974318Y-65879285D01*
X194974318Y-65879285D02*
X194913842Y-66060714D01*
X194913842Y-66060714D02*
X194792889Y-66181666D01*
X194792889Y-66181666D02*
X194671937Y-66242143D01*
X194671937Y-66242143D02*
X194430032Y-66302619D01*
X194430032Y-66302619D02*
X194248603Y-66302619D01*
X194248603Y-66302619D02*
X194006699Y-66242143D01*
X194006699Y-66242143D02*
X193885746Y-66181666D01*
X193885746Y-66181666D02*
X193764794Y-66060714D01*
X193764794Y-66060714D02*
X193704318Y-65879285D01*
X193704318Y-65879285D02*
X193704318Y-65758333D01*
X193704318Y-65758333D02*
X193764794Y-65576904D01*
X193764794Y-65576904D02*
X193825270Y-65516428D01*
X193704318Y-64367381D02*
X193704318Y-64972143D01*
X193704318Y-64972143D02*
X194309080Y-65032619D01*
X194309080Y-65032619D02*
X194248603Y-64972143D01*
X194248603Y-64972143D02*
X194188127Y-64851190D01*
X194188127Y-64851190D02*
X194188127Y-64548809D01*
X194188127Y-64548809D02*
X194248603Y-64427857D01*
X194248603Y-64427857D02*
X194309080Y-64367381D01*
X194309080Y-64367381D02*
X194430032Y-64306904D01*
X194430032Y-64306904D02*
X194732413Y-64306904D01*
X194732413Y-64306904D02*
X194853365Y-64367381D01*
X194853365Y-64367381D02*
X194913842Y-64427857D01*
X194913842Y-64427857D02*
X194974318Y-64548809D01*
X194974318Y-64548809D02*
X194974318Y-64851190D01*
X194974318Y-64851190D02*
X194913842Y-64972143D01*
X194913842Y-64972143D02*
X194853365Y-65032619D01*
X193704318Y-63883571D02*
X193704318Y-63097380D01*
X193704318Y-63097380D02*
X194188127Y-63520714D01*
X194188127Y-63520714D02*
X194188127Y-63339285D01*
X194188127Y-63339285D02*
X194248603Y-63218333D01*
X194248603Y-63218333D02*
X194309080Y-63157857D01*
X194309080Y-63157857D02*
X194430032Y-63097380D01*
X194430032Y-63097380D02*
X194732413Y-63097380D01*
X194732413Y-63097380D02*
X194853365Y-63157857D01*
X194853365Y-63157857D02*
X194913842Y-63218333D01*
X194913842Y-63218333D02*
X194974318Y-63339285D01*
X194974318Y-63339285D02*
X194974318Y-63702142D01*
X194974318Y-63702142D02*
X194913842Y-63823095D01*
X194913842Y-63823095D02*
X194853365Y-63883571D01*
%TO.C,J17*%
D12*
X118573102Y-72504700D02*
X103333102Y-72504700D01*
X118573102Y-70313911D02*
X118573102Y-72504700D01*
X118573102Y-67313912D02*
X118573102Y-68586088D01*
X118573102Y-64813912D02*
X118573102Y-65586089D01*
X118573102Y-61813913D02*
X118573102Y-63086089D01*
X103333102Y-58255300D02*
X118573102Y-58255300D01*
X118573102Y-58255300D02*
X118573102Y-60086090D01*
%TO.C,L3*%
D13*
D14*
X121055000Y-42550000D02*
X121054999Y-42550000D01*
X121054999Y-42550000D01*
X121054999Y-42550000D01*
X121054999Y-42550000D01*
X121054999Y-42550000D01*
X121054999Y-42550000D01*
X121054999Y-42550000D01*
X121054999Y-42549999D01*
X121054999Y-42549999D01*
X121054999Y-42549999D01*
X121054999Y-42549999D01*
X121054999Y-42549999D01*
X121055000Y-42549999D01*
X121055000Y-42549999D01*
X121055000Y-42549999D01*
X121055000Y-42549999D01*
X121055000Y-42549999D01*
X121055000Y-42549999D01*
X121055000Y-42549999D01*
X121055000Y-42549999D01*
X121055000Y-42549999D01*
X121055000Y-42549999D01*
X121055000Y-42549999D01*
X121055000Y-42549999D01*
X121055001Y-42549999D01*
X121055001Y-42549999D01*
X121055001Y-42549999D01*
X121055001Y-42549999D01*
X121055001Y-42549999D01*
X121055001Y-42549999D01*
X121055001Y-42550000D01*
X121055001Y-42550000D01*
X121055001Y-42550000D01*
X121055001Y-42550000D01*
X121055001Y-42550000D01*
X121055001Y-42550000D01*
X121055001Y-42550000D01*
X121055000Y-42550000D01*
X121055000Y-42550000D02*
X121055001Y-42550000D01*
X121055001Y-42550000D01*
X121055001Y-42550000D01*
X121055001Y-42550000D01*
X121055001Y-42550000D01*
X121055001Y-42550000D01*
X121055001Y-42550001D01*
X121055001Y-42550001D01*
X121055001Y-42550001D01*
X121055001Y-42550001D01*
X121055001Y-42550001D01*
X121055001Y-42550001D01*
X121055001Y-42550001D01*
X121055000Y-42550001D01*
X121055000Y-42550001D01*
X121055000Y-42550001D01*
X121055000Y-42550001D01*
X121055000Y-42550001D01*
X121055000Y-42550001D01*
X121055000Y-42550001D01*
X121055000Y-42550001D01*
X121055000Y-42550001D01*
X121055000Y-42550001D01*
X121055000Y-42550001D01*
X121055000Y-42550001D01*
X121054999Y-42550001D01*
X121054999Y-42550001D01*
X121054999Y-42550001D01*
X121054999Y-42550001D01*
X121054999Y-42550001D01*
X121054999Y-42550001D01*
X121054999Y-42550000D01*
X121054999Y-42550000D01*
X121054999Y-42550000D01*
X121054999Y-42550000D01*
X121054999Y-42550000D01*
X121054999Y-42550000D01*
X121055000Y-42550000D01*
D13*
D14*
X159155000Y-42550000D02*
X159154999Y-42550000D01*
X159154999Y-42550000D01*
X159154999Y-42550000D01*
X159154999Y-42550000D01*
X159154999Y-42550000D01*
X159154999Y-42550000D01*
X159154999Y-42550000D01*
X159154999Y-42549999D01*
X159154999Y-42549999D01*
X159154999Y-42549999D01*
X159154999Y-42549999D01*
X159154999Y-42549999D01*
X159155000Y-42549999D01*
X159155000Y-42549999D01*
X159155000Y-42549999D01*
X159155000Y-42549999D01*
X159155000Y-42549999D01*
X159155000Y-42549999D01*
X159155000Y-42549999D01*
X159155000Y-42549999D01*
X159155000Y-42549999D01*
X159155000Y-42549999D01*
X159155000Y-42549999D01*
X159155000Y-42549999D01*
X159155001Y-42549999D01*
X159155001Y-42549999D01*
X159155001Y-42549999D01*
X159155001Y-42549999D01*
X159155001Y-42549999D01*
X159155001Y-42549999D01*
X159155001Y-42550000D01*
X159155001Y-42550000D01*
X159155001Y-42550000D01*
X159155001Y-42550000D01*
X159155001Y-42550000D01*
X159155001Y-42550000D01*
X159155001Y-42550000D01*
X159155000Y-42550000D01*
X159155000Y-42550000D02*
X159155001Y-42550000D01*
X159155001Y-42550000D01*
X159155001Y-42550000D01*
X159155001Y-42550000D01*
X159155001Y-42550000D01*
X159155001Y-42550000D01*
X159155001Y-42550001D01*
X159155001Y-42550001D01*
X159155001Y-42550001D01*
X159155001Y-42550001D01*
X159155001Y-42550001D01*
X159155001Y-42550001D01*
X159155001Y-42550001D01*
X159155000Y-42550001D01*
X159155000Y-42550001D01*
X159155000Y-42550001D01*
X159155000Y-42550001D01*
X159155000Y-42550001D01*
X159155000Y-42550001D01*
X159155000Y-42550001D01*
X159155000Y-42550001D01*
X159155000Y-42550001D01*
X159155000Y-42550001D01*
X159155000Y-42550001D01*
X159155000Y-42550001D01*
X159154999Y-42550001D01*
X159154999Y-42550001D01*
X159154999Y-42550001D01*
X159154999Y-42550001D01*
X159154999Y-42550001D01*
X159154999Y-42550001D01*
X159154999Y-42550000D01*
X159154999Y-42550000D01*
X159154999Y-42550000D01*
X159154999Y-42550000D01*
X159154999Y-42550000D01*
X159154999Y-42550000D01*
X159155000Y-42550000D01*
D13*
X121055000Y-42550000D02*
G75*
G02*
X159155000Y-42550000I19050000J0D01*
G01*
X159155000Y-42550000D02*
G75*
G02*
X121055000Y-42550000I-19050000J0D01*
G01*
%TO.C,J3*%
D12*
X196101899Y-28378600D02*
X189874452Y-28378600D01*
X189049347Y-28378600D02*
X179714513Y-28378600D01*
X178889408Y-28378600D02*
X177475700Y-28378600D01*
X177475700Y-28378600D02*
X177475700Y-40621400D01*
X189874452Y-40621400D02*
X196101899Y-40621400D01*
X179714513Y-40621400D02*
X189049347Y-40621400D01*
X177475700Y-40621400D02*
X178889408Y-40621400D01*
%TO.C,L4*%
D13*
D14*
X121055000Y-87700000D02*
X121054999Y-87700000D01*
X121054999Y-87700000D01*
X121054999Y-87700000D01*
X121054999Y-87700000D01*
X121054999Y-87700000D01*
X121054999Y-87700000D01*
X121054999Y-87700000D01*
X121054999Y-87699999D01*
X121054999Y-87699999D01*
X121054999Y-87699999D01*
X121054999Y-87699999D01*
X121054999Y-87699999D01*
X121055000Y-87699999D01*
X121055000Y-87699999D01*
X121055000Y-87699999D01*
X121055000Y-87699999D01*
X121055000Y-87699999D01*
X121055000Y-87699999D01*
X121055000Y-87699999D01*
X121055000Y-87699999D01*
X121055000Y-87699999D01*
X121055000Y-87699999D01*
X121055000Y-87699999D01*
X121055000Y-87699999D01*
X121055001Y-87699999D01*
X121055001Y-87699999D01*
X121055001Y-87699999D01*
X121055001Y-87699999D01*
X121055001Y-87699999D01*
X121055001Y-87699999D01*
X121055001Y-87700000D01*
X121055001Y-87700000D01*
X121055001Y-87700000D01*
X121055001Y-87700000D01*
X121055001Y-87700000D01*
X121055001Y-87700000D01*
X121055001Y-87700000D01*
X121055000Y-87700000D01*
X121055000Y-87700000D02*
X121055001Y-87700000D01*
X121055001Y-87700000D01*
X121055001Y-87700000D01*
X121055001Y-87700000D01*
X121055001Y-87700000D01*
X121055001Y-87700000D01*
X121055001Y-87700001D01*
X121055001Y-87700001D01*
X121055001Y-87700001D01*
X121055001Y-87700001D01*
X121055001Y-87700001D01*
X121055001Y-87700001D01*
X121055001Y-87700001D01*
X121055000Y-87700001D01*
X121055000Y-87700001D01*
X121055000Y-87700001D01*
X121055000Y-87700001D01*
X121055000Y-87700001D01*
X121055000Y-87700001D01*
X121055000Y-87700001D01*
X121055000Y-87700001D01*
X121055000Y-87700001D01*
X121055000Y-87700001D01*
X121055000Y-87700001D01*
X121055000Y-87700001D01*
X121054999Y-87700001D01*
X121054999Y-87700001D01*
X121054999Y-87700001D01*
X121054999Y-87700001D01*
X121054999Y-87700001D01*
X121054999Y-87700001D01*
X121054999Y-87700000D01*
X121054999Y-87700000D01*
X121054999Y-87700000D01*
X121054999Y-87700000D01*
X121054999Y-87700000D01*
X121054999Y-87700000D01*
X121055000Y-87700000D01*
D13*
D14*
X159155000Y-87700000D02*
X159154999Y-87700000D01*
X159154999Y-87700000D01*
X159154999Y-87700000D01*
X159154999Y-87700000D01*
X159154999Y-87700000D01*
X159154999Y-87700000D01*
X159154999Y-87700000D01*
X159154999Y-87699999D01*
X159154999Y-87699999D01*
X159154999Y-87699999D01*
X159154999Y-87699999D01*
X159154999Y-87699999D01*
X159155000Y-87699999D01*
X159155000Y-87699999D01*
X159155000Y-87699999D01*
X159155000Y-87699999D01*
X159155000Y-87699999D01*
X159155000Y-87699999D01*
X159155000Y-87699999D01*
X159155000Y-87699999D01*
X159155000Y-87699999D01*
X159155000Y-87699999D01*
X159155000Y-87699999D01*
X159155000Y-87699999D01*
X159155001Y-87699999D01*
X159155001Y-87699999D01*
X159155001Y-87699999D01*
X159155001Y-87699999D01*
X159155001Y-87699999D01*
X159155001Y-87699999D01*
X159155001Y-87700000D01*
X159155001Y-87700000D01*
X159155001Y-87700000D01*
X159155001Y-87700000D01*
X159155001Y-87700000D01*
X159155001Y-87700000D01*
X159155001Y-87700000D01*
X159155000Y-87700000D01*
X159155000Y-87700000D02*
X159155001Y-87700000D01*
X159155001Y-87700000D01*
X159155001Y-87700000D01*
X159155001Y-87700000D01*
X159155001Y-87700000D01*
X159155001Y-87700000D01*
X159155001Y-87700001D01*
X159155001Y-87700001D01*
X159155001Y-87700001D01*
X159155001Y-87700001D01*
X159155001Y-87700001D01*
X159155001Y-87700001D01*
X159155001Y-87700001D01*
X159155000Y-87700001D01*
X159155000Y-87700001D01*
X159155000Y-87700001D01*
X159155000Y-87700001D01*
X159155000Y-87700001D01*
X159155000Y-87700001D01*
X159155000Y-87700001D01*
X159155000Y-87700001D01*
X159155000Y-87700001D01*
X159155000Y-87700001D01*
X159155000Y-87700001D01*
X159155000Y-87700001D01*
X159154999Y-87700001D01*
X159154999Y-87700001D01*
X159154999Y-87700001D01*
X159154999Y-87700001D01*
X159154999Y-87700001D01*
X159154999Y-87700001D01*
X159154999Y-87700000D01*
X159154999Y-87700000D01*
X159154999Y-87700000D01*
X159154999Y-87700000D01*
X159154999Y-87700000D01*
X159154999Y-87700000D01*
X159155000Y-87700000D01*
D13*
X121055000Y-87700000D02*
G75*
G02*
X159155000Y-87700000I19050000J0D01*
G01*
X159155000Y-87700000D02*
G75*
G02*
X121055000Y-87700000I-19050000J0D01*
G01*
%TO.C,J4*%
D12*
X196101899Y-88678600D02*
X189874452Y-88678600D01*
X189049347Y-88678600D02*
X179714513Y-88678600D01*
X178889408Y-88678600D02*
X177475700Y-88678600D01*
X177475700Y-88678600D02*
X177475700Y-100921400D01*
X189874452Y-100921400D02*
X196101899Y-100921400D01*
X179714513Y-100921400D02*
X189049347Y-100921400D01*
X177475700Y-100921400D02*
X178889408Y-100921400D01*
%TO.C,R33*%
X170895800Y-52373000D02*
X161904200Y-52373000D01*
X161904200Y-52373000D02*
X161904200Y-78027000D01*
X170895800Y-78027000D02*
X170895800Y-52373000D01*
X161904200Y-78027000D02*
X170895800Y-78027000D01*
%TO.C,C53*%
D15*
D14*
X177900000Y-42850000D02*
X177899999Y-42850000D01*
X177899999Y-42850000D01*
X177899999Y-42850000D01*
X177899999Y-42850000D01*
X177899999Y-42850000D01*
X177899999Y-42850000D01*
X177899999Y-42850000D01*
X177899999Y-42849999D01*
X177899999Y-42849999D01*
X177899999Y-42849999D01*
X177899999Y-42849999D01*
X177899999Y-42849999D01*
X177900000Y-42849999D01*
X177900000Y-42849999D01*
X177900000Y-42849999D01*
X177900000Y-42849999D01*
X177900000Y-42849999D01*
X177900000Y-42849999D01*
X177900000Y-42849999D01*
X177900000Y-42849999D01*
X177900000Y-42849999D01*
X177900000Y-42849999D01*
X177900000Y-42849999D01*
X177900000Y-42849999D01*
X177900001Y-42849999D01*
X177900001Y-42849999D01*
X177900001Y-42849999D01*
X177900001Y-42849999D01*
X177900001Y-42849999D01*
X177900001Y-42849999D01*
X177900001Y-42850000D01*
X177900001Y-42850000D01*
X177900001Y-42850000D01*
X177900001Y-42850000D01*
X177900001Y-42850000D01*
X177900001Y-42850000D01*
X177900001Y-42850000D01*
X177900000Y-42850000D01*
X177900000Y-42850000D02*
X177900001Y-42850000D01*
X177900001Y-42850000D01*
X177900001Y-42850000D01*
X177900001Y-42850000D01*
X177900001Y-42850000D01*
X177900001Y-42850000D01*
X177900001Y-42850001D01*
X177900001Y-42850001D01*
X177900001Y-42850001D01*
X177900001Y-42850001D01*
X177900001Y-42850001D01*
X177900001Y-42850001D01*
X177900001Y-42850001D01*
X177900000Y-42850001D01*
X177900000Y-42850001D01*
X177900000Y-42850001D01*
X177900000Y-42850001D01*
X177900000Y-42850001D01*
X177900000Y-42850001D01*
X177900000Y-42850001D01*
X177900000Y-42850001D01*
X177900000Y-42850001D01*
X177900000Y-42850001D01*
X177900000Y-42850001D01*
X177900000Y-42850001D01*
X177899999Y-42850001D01*
X177899999Y-42850001D01*
X177899999Y-42850001D01*
X177899999Y-42850001D01*
X177899999Y-42850001D01*
X177899999Y-42850001D01*
X177899999Y-42850000D01*
X177899999Y-42850000D01*
X177899999Y-42850000D01*
X177899999Y-42850000D01*
X177899999Y-42850000D01*
X177899999Y-42850000D01*
X177900000Y-42850000D01*
D15*
D14*
X177900000Y-42950000D02*
X177899999Y-42950000D01*
X177899999Y-42950000D01*
X177899999Y-42950000D01*
X177899999Y-42950000D01*
X177899999Y-42950000D01*
X177899999Y-42950000D01*
X177899999Y-42950000D01*
X177899999Y-42949999D01*
X177899999Y-42949999D01*
X177899999Y-42949999D01*
X177899999Y-42949999D01*
X177899999Y-42949999D01*
X177900000Y-42949999D01*
X177900000Y-42949999D01*
X177900000Y-42949999D01*
X177900000Y-42949999D01*
X177900000Y-42949999D01*
X177900000Y-42949999D01*
X177900000Y-42949999D01*
X177900000Y-42949999D01*
X177900000Y-42949999D01*
X177900000Y-42949999D01*
X177900000Y-42949999D01*
X177900000Y-42949999D01*
X177900001Y-42949999D01*
X177900001Y-42949999D01*
X177900001Y-42949999D01*
X177900001Y-42949999D01*
X177900001Y-42949999D01*
X177900001Y-42949999D01*
X177900001Y-42950000D01*
X177900001Y-42950000D01*
X177900001Y-42950000D01*
X177900001Y-42950000D01*
X177900001Y-42950000D01*
X177900001Y-42950000D01*
X177900001Y-42950000D01*
X177900000Y-42950000D01*
X177900000Y-42950000D02*
X177900001Y-42950000D01*
X177900001Y-42950000D01*
X177900001Y-42950000D01*
X177900001Y-42950000D01*
X177900001Y-42950000D01*
X177900001Y-42950000D01*
X177900001Y-42950001D01*
X177900001Y-42950001D01*
X177900001Y-42950001D01*
X177900001Y-42950001D01*
X177900001Y-42950001D01*
X177900001Y-42950001D01*
X177900001Y-42950001D01*
X177900000Y-42950001D01*
X177900000Y-42950001D01*
X177900000Y-42950001D01*
X177900000Y-42950001D01*
X177900000Y-42950001D01*
X177900000Y-42950001D01*
X177900000Y-42950001D01*
X177900000Y-42950001D01*
X177900000Y-42950001D01*
X177900000Y-42950001D01*
X177900000Y-42950001D01*
X177900000Y-42950001D01*
X177899999Y-42950001D01*
X177899999Y-42950001D01*
X177899999Y-42950001D01*
X177899999Y-42950001D01*
X177899999Y-42950001D01*
X177899999Y-42950001D01*
X177899999Y-42950000D01*
X177899999Y-42950000D01*
X177899999Y-42950000D01*
X177899999Y-42950000D01*
X177899999Y-42950000D01*
X177899999Y-42950000D01*
X177900000Y-42950000D01*
D13*
X193000000Y-43400000D02*
X193000000Y-85400000D01*
X173000000Y-43400000D02*
X193000000Y-43400000D01*
X193000000Y-85400000D02*
X173000000Y-85400000D01*
X173000000Y-85400000D02*
X173000000Y-43400000D01*
D15*
X177900000Y-42850000D02*
G75*
G02*
X177900000Y-42950000I0J-50000D01*
G01*
X177900000Y-42950000D02*
G75*
G02*
X177900000Y-42850000I0J50000D01*
G01*
%TD*%
M02*
