%TF.GenerationSoftware,KiCad,Pcbnew,10.0.0*%
%TF.CreationDate,2026-03-25T20:15:04-04:00*%
%TF.ProjectId,AC_Output_Filter,41435f4f-7574-4707-9574-5f46696c7465,rev?*%
%TF.SameCoordinates,Original*%
%TF.FileFunction,Copper,L1,Top*%
%TF.FilePolarity,Positive*%
%FSLAX46Y46*%
G04 Gerber Fmt 4.6, Leading zero omitted, Abs format (unit mm)*
G04 Created by KiCad (PCBNEW 10.0.0) date 2026-03-25 20:15:04*
%MOMM*%
%LPD*%
G01*
G04 APERTURE LIST*
%TA.AperFunction,ComponentPad*%
%ADD10R,2.014000X2.014000*%
%TD*%
%TA.AperFunction,ComponentPad*%
%ADD11C,2.014000*%
%TD*%
%TA.AperFunction,ComponentPad*%
%ADD12C,1.700000*%
%TD*%
%TA.AperFunction,ComponentPad*%
%ADD13C,2.768600*%
%TD*%
%TA.AperFunction,ComponentPad*%
%ADD14R,1.900000X1.900000*%
%TD*%
%TA.AperFunction,ComponentPad*%
%ADD15C,1.574800*%
%TD*%
%TA.AperFunction,ComponentPad*%
%ADD16R,1.828800X1.828800*%
%TD*%
%TA.AperFunction,ComponentPad*%
%ADD17C,1.828800*%
%TD*%
%TA.AperFunction,ComponentPad*%
%ADD18R,2.100000X2.100000*%
%TD*%
%TA.AperFunction,ComponentPad*%
%ADD19C,2.100000*%
%TD*%
G04 APERTURE END LIST*
D10*
%TO.P,L3,1*%
%TO.N,GND_ISO_LAHS*%
X125500000Y-42550000D03*
D11*
%TO.P,L3,2*%
%TO.N,/Phase_A_Output*%
X154710000Y-42550000D03*
%TD*%
D12*
%TO.P,J3,*%
%TO.N,*%
X189461899Y-29420000D03*
X179301960Y-29420000D03*
X189461899Y-39580000D03*
X179301960Y-39580000D03*
D13*
%TO.P,J3,1,1_1*%
%TO.N,/Phase_A_Output*%
X183101899Y-34500000D03*
%TD*%
D10*
%TO.P,L4,1*%
%TO.N,GND_ISO_LBHS*%
X125500000Y-87700000D03*
D11*
%TO.P,L4,2*%
%TO.N,/Phase_B_Output*%
X154710000Y-87700000D03*
%TD*%
D12*
%TO.P,J4,*%
%TO.N,*%
X189461899Y-89720000D03*
X179301960Y-89720000D03*
X189461899Y-99880000D03*
X179301960Y-99880000D03*
D13*
%TO.P,J4,1,1_1*%
%TO.N,/Phase_B_Output*%
X183101899Y-94800000D03*
%TD*%
D14*
%TO.P,TP4,1,1_1*%
%TO.N,/Phase_B_Output*%
X168750000Y-94800000D03*
%TD*%
D15*
%TO.P,J17,P1_1,P1_1_P1_1*%
%TO.N,GND_ISO_LBHS*%
X107860101Y-60949999D03*
%TO.P,J17,P1_2,P1_2_P1_2*%
X110360101Y-60949999D03*
%TO.P,J17,P1_3,P1_3_P1_3*%
X112860101Y-60949999D03*
%TO.P,J17,P1_4,P1_4_P1_4*%
X115360101Y-60949999D03*
%TO.P,J17,P1_5,P1_5_P1_5*%
X117860101Y-60949999D03*
%TO.P,J17,P1_6,P1_6_P1_6*%
X107860101Y-63950001D03*
%TO.P,J17,P1_7,P1_7_P1_7*%
X110360101Y-63950001D03*
%TO.P,J17,P1_8,P1_8_P1_8*%
X112860101Y-63950001D03*
%TO.P,J17,P1_9,P1_9_P1_9*%
X115360101Y-63950001D03*
%TO.P,J17,P1_10,P1_10_P1_10*%
X117860101Y-63950001D03*
%TO.P,J17,P2_1,P2_1_P2_1*%
%TO.N,GND_ISO_LAHS*%
X107860101Y-66450001D03*
%TO.P,J17,P2_2,P2_2_P2_2*%
X110360101Y-66450001D03*
%TO.P,J17,P2_3,P2_3_P2_3*%
X112860101Y-66450001D03*
%TO.P,J17,P2_4,P2_4_P2_4*%
X115360101Y-66450001D03*
%TO.P,J17,P2_5,P2_5_P2_5*%
X117860101Y-66450001D03*
%TO.P,J17,P2_6,P2_6_P2_6*%
X107860101Y-69450000D03*
%TO.P,J17,P2_7,P2_7_P2_7*%
X110360101Y-69450000D03*
%TO.P,J17,P2_8,P2_8_P2_8*%
X112860101Y-69450000D03*
%TO.P,J17,P2_9,P2_9_P2_9*%
X115360101Y-69450000D03*
%TO.P,J17,P2_10,P2_10_P2_10*%
X117860101Y-69450000D03*
%TD*%
D16*
%TO.P,R33,1*%
%TO.N,/Phase_A_Output*%
X166400000Y-48232800D03*
D17*
%TO.P,R33,2*%
%TO.N,/Phase_B_Output*%
X166400000Y-82167200D03*
%TD*%
D14*
%TO.P,TP3,1,1_1*%
%TO.N,/Phase_A_Output*%
X168750000Y-34500000D03*
%TD*%
D18*
%TO.P,C53,1,1_1*%
%TO.N,/Phase_A_Output*%
X177900000Y-45650000D03*
D19*
%TO.P,C53,2,2_2*%
%TO.N,/Phase_B_Output*%
X177900000Y-83150000D03*
%TO.P,C53,3,3_3*%
%TO.N,/Phase_A_Output*%
X188100000Y-45650000D03*
%TO.P,C53,4,4_4*%
%TO.N,/Phase_B_Output*%
X188100000Y-83150000D03*
%TD*%
%TA.AperFunction,Conductor*%
%TO.N,GND_ISO_LAHS*%
G36*
X150561815Y-20070185D02*
G01*
X150607570Y-20122989D01*
X150618775Y-20174843D01*
X150610117Y-23290871D01*
X150606790Y-24488140D01*
X150593545Y-29254341D01*
X150581757Y-33496582D01*
X150565313Y-39414341D01*
X150556945Y-42425818D01*
X150551052Y-44546582D01*
X150543498Y-47264982D01*
X150446982Y-81997923D01*
X150437505Y-85408507D01*
X150438682Y-85483033D01*
X150438997Y-85492173D01*
X150442921Y-85566299D01*
X150483637Y-85849508D01*
X150483638Y-85849514D01*
X150483639Y-85849517D01*
X150486668Y-85859833D01*
X150521828Y-85979583D01*
X150526849Y-86014949D01*
X150515181Y-89359247D01*
X150510061Y-89394082D01*
X150507995Y-89401046D01*
X150507719Y-89401942D01*
X150507647Y-89402212D01*
X150446042Y-89681666D01*
X150424838Y-89967000D01*
X150424837Y-89967016D01*
X150414261Y-93772976D01*
X150398636Y-99396198D01*
X150384085Y-104632923D01*
X150384084Y-104633114D01*
X150384071Y-104637942D01*
X150384071Y-104638131D01*
X150384071Y-104638140D01*
X150370784Y-109419581D01*
X150370843Y-109421324D01*
X150370778Y-109421573D01*
X150370778Y-109421839D01*
X150370710Y-109421838D01*
X150353427Y-109488988D01*
X150302194Y-109536495D01*
X150246913Y-109549500D01*
X104142330Y-109549500D01*
X104107389Y-109544475D01*
X104092390Y-109540070D01*
X104033644Y-109502327D01*
X104032457Y-109500958D01*
X104004977Y-109446083D01*
X104003332Y-109438521D01*
X104000500Y-109412168D01*
X104000500Y-104643707D01*
X107399500Y-104643707D01*
X107399500Y-104856291D01*
X107432752Y-105066239D01*
X107498445Y-105268418D01*
X107591532Y-105451111D01*
X107594951Y-105457820D01*
X107719890Y-105629786D01*
X107719892Y-105629788D01*
X107870216Y-105780112D01*
X108042169Y-105905042D01*
X108042177Y-105905047D01*
X108042179Y-105905048D01*
X108042181Y-105905049D01*
X108042182Y-105905050D01*
X108042200Y-105905060D01*
X108042442Y-105905182D01*
X108231588Y-106001557D01*
X108433757Y-106067246D01*
X108643713Y-106100500D01*
X108643714Y-106100500D01*
X108856286Y-106100500D01*
X108856287Y-106100500D01*
X109066243Y-106067246D01*
X109268412Y-106001557D01*
X109457816Y-105905051D01*
X109479789Y-105889086D01*
X109629786Y-105780109D01*
X109629786Y-105780108D01*
X109629844Y-105780066D01*
X109630605Y-105779290D01*
X109780104Y-105629792D01*
X109780106Y-105629788D01*
X109780109Y-105629786D01*
X109905048Y-105457820D01*
X109905047Y-105457820D01*
X109905051Y-105457816D01*
X109905053Y-105457810D01*
X109925445Y-105429744D01*
X109933730Y-105401529D01*
X110001557Y-105268412D01*
X110067246Y-105066243D01*
X110100500Y-104856287D01*
X110100500Y-104643713D01*
X110067246Y-104433757D01*
X110001557Y-104231588D01*
X109905051Y-104042184D01*
X109905049Y-104042181D01*
X109905048Y-104042179D01*
X109904702Y-104041703D01*
X109904700Y-104041699D01*
X109780112Y-103870216D01*
X109629788Y-103719892D01*
X109629786Y-103719890D01*
X109457820Y-103594951D01*
X109444167Y-103587994D01*
X109290245Y-103509567D01*
X109290240Y-103509565D01*
X109268414Y-103498444D01*
X109268413Y-103498443D01*
X109268412Y-103498443D01*
X109171550Y-103466970D01*
X109075074Y-103435623D01*
X109070552Y-103433770D01*
X109061362Y-103431600D01*
X109056599Y-103431226D01*
X108904957Y-103407208D01*
X108885489Y-103404124D01*
X108856290Y-103399500D01*
X108856287Y-103399500D01*
X108643713Y-103399500D01*
X108643709Y-103399500D01*
X108604776Y-103405666D01*
X108595042Y-103407208D01*
X108557654Y-103413129D01*
X108433763Y-103432752D01*
X108231582Y-103498445D01*
X108042182Y-103594949D01*
X107870210Y-103719892D01*
X107719892Y-103870210D01*
X107594949Y-104042182D01*
X107498445Y-104231580D01*
X107432752Y-104433759D01*
X107399500Y-104643707D01*
X104000500Y-104643707D01*
X104000500Y-86621546D01*
X122492500Y-86621546D01*
X122492500Y-88778452D01*
X122507804Y-88992438D01*
X122568626Y-89272030D01*
X122568628Y-89272037D01*
X122616746Y-89401046D01*
X122668635Y-89540167D01*
X122668637Y-89540171D01*
X122745898Y-89681662D01*
X122805770Y-89791309D01*
X122805774Y-89791315D01*
X122805777Y-89791320D01*
X122977248Y-90020380D01*
X122977261Y-90020396D01*
X123179602Y-90222737D01*
X123179618Y-90222750D01*
X123406161Y-90392336D01*
X123408682Y-90394224D01*
X123408690Y-90394229D01*
X123659833Y-90531364D01*
X123659832Y-90531364D01*
X123659836Y-90531365D01*
X123659839Y-90531367D01*
X123921769Y-90629062D01*
X123923293Y-90629725D01*
X123926826Y-90630970D01*
X123926844Y-90630976D01*
X123927864Y-90631335D01*
X123927954Y-90631369D01*
X123927960Y-90631370D01*
X123927962Y-90631371D01*
X123927969Y-90631372D01*
X123928436Y-90631537D01*
X123930910Y-90632012D01*
X124207566Y-90692195D01*
X124207568Y-90692195D01*
X124207572Y-90692196D01*
X124207577Y-90692196D01*
X124207884Y-90692263D01*
X124209762Y-90692432D01*
X124211974Y-90692511D01*
X124248514Y-90695124D01*
X124421552Y-90707500D01*
X126578448Y-90707500D01*
X126792428Y-90692196D01*
X126794295Y-90691790D01*
X127072037Y-90631371D01*
X127072037Y-90631370D01*
X127072046Y-90631369D01*
X127340161Y-90531367D01*
X127591315Y-90394226D01*
X127820395Y-90222739D01*
X128022739Y-90020395D01*
X128194226Y-89791315D01*
X128331367Y-89540161D01*
X128431369Y-89272046D01*
X128431371Y-89272037D01*
X128492195Y-88992433D01*
X128492195Y-88992432D01*
X128492196Y-88992428D01*
X128507500Y-88778448D01*
X128507500Y-86621552D01*
X128492196Y-86407572D01*
X128492193Y-86407560D01*
X128431371Y-86127962D01*
X128431370Y-86127960D01*
X128431369Y-86127954D01*
X128331367Y-85859839D01*
X128331360Y-85859827D01*
X128299370Y-85801241D01*
X128194226Y-85608685D01*
X128194224Y-85608682D01*
X128194219Y-85608675D01*
X128194215Y-85608669D01*
X128022750Y-85379619D01*
X128022737Y-85379602D01*
X127820396Y-85177261D01*
X127820380Y-85177248D01*
X127591320Y-85005777D01*
X127591318Y-85005776D01*
X127591317Y-85005775D01*
X127591309Y-85005770D01*
X127507923Y-84960237D01*
X127418646Y-84911488D01*
X127396985Y-84889827D01*
X127232915Y-84828632D01*
X127072041Y-84768629D01*
X127072038Y-84768628D01*
X126792438Y-84707804D01*
X126578452Y-84692500D01*
X126578450Y-84692500D01*
X126578448Y-84692500D01*
X124421552Y-84692500D01*
X124421549Y-84692500D01*
X124421546Y-84692500D01*
X124207560Y-84707804D01*
X123927968Y-84768626D01*
X123927963Y-84768627D01*
X123927962Y-84768628D01*
X123863134Y-84792807D01*
X123659831Y-84868635D01*
X123659827Y-84868637D01*
X123408699Y-85005765D01*
X123408678Y-85005777D01*
X123179618Y-85177248D01*
X123179602Y-85177261D01*
X122977261Y-85379602D01*
X122977248Y-85379618D01*
X122805777Y-85608678D01*
X122805765Y-85608699D01*
X122668637Y-85859827D01*
X122668635Y-85859831D01*
X122568626Y-86127968D01*
X122507804Y-86407560D01*
X122492500Y-86621546D01*
X104000500Y-86621546D01*
X104000500Y-69348673D01*
X106572701Y-69348673D01*
X106572701Y-69551325D01*
X106603213Y-69743969D01*
X106604400Y-69751463D01*
X106649116Y-69889085D01*
X106667023Y-69944194D01*
X106759018Y-70124746D01*
X106759020Y-70124750D01*
X106789643Y-70166896D01*
X106789646Y-70166899D01*
X106789647Y-70166900D01*
X106789648Y-70166900D01*
X107225947Y-69730599D01*
X107287270Y-69697114D01*
X107356961Y-69702098D01*
X107412895Y-69743969D01*
X107421013Y-69756277D01*
X107433275Y-69777515D01*
X107532586Y-69876826D01*
X107553815Y-69889083D01*
X107553819Y-69889085D01*
X107602035Y-69939652D01*
X107615257Y-70008259D01*
X107589289Y-70073124D01*
X107579500Y-70084153D01*
X107143200Y-70520452D01*
X107143199Y-70520453D01*
X107143200Y-70520453D01*
X107143200Y-70520454D01*
X107185355Y-70551082D01*
X107365908Y-70643078D01*
X107465667Y-70675492D01*
X107495138Y-70695643D01*
X107558636Y-70705700D01*
X107758781Y-70737400D01*
X107961420Y-70737400D01*
X107961421Y-70737400D01*
X108161564Y-70705700D01*
X108354293Y-70643078D01*
X108534848Y-70551081D01*
X108534852Y-70551079D01*
X108546937Y-70542297D01*
X108549540Y-70540600D01*
X108571379Y-70534024D01*
X108577001Y-70520453D01*
X108140700Y-70084153D01*
X108107215Y-70022830D01*
X108112199Y-69953139D01*
X108154070Y-69897205D01*
X108166366Y-69889094D01*
X108187616Y-69876826D01*
X108286927Y-69777515D01*
X108299187Y-69756279D01*
X108349752Y-69708066D01*
X108418359Y-69694842D01*
X108483224Y-69720810D01*
X108494254Y-69730600D01*
X108930553Y-70166900D01*
X108930554Y-70166900D01*
X108930555Y-70166899D01*
X108961180Y-70124751D01*
X108961185Y-70124742D01*
X108991524Y-70065197D01*
X109011851Y-70036362D01*
X109020750Y-70026940D01*
X109081089Y-69991719D01*
X109150895Y-69994711D01*
X109204608Y-70030879D01*
X109210680Y-70037886D01*
X109227450Y-70062791D01*
X109259009Y-70124728D01*
X109259016Y-70124741D01*
X109289646Y-70166899D01*
X109289647Y-70166900D01*
X109289648Y-70166900D01*
X109725947Y-69730599D01*
X109787270Y-69697114D01*
X109856961Y-69702098D01*
X109912895Y-69743969D01*
X109921013Y-69756277D01*
X109933275Y-69777515D01*
X110032586Y-69876826D01*
X110053815Y-69889083D01*
X110053819Y-69889085D01*
X110102035Y-69939652D01*
X110115257Y-70008259D01*
X110089289Y-70073124D01*
X110079500Y-70084153D01*
X109643200Y-70520452D01*
X109643199Y-70520453D01*
X109643200Y-70520453D01*
X109643200Y-70520454D01*
X109685355Y-70551082D01*
X109865908Y-70643078D01*
X109965667Y-70675492D01*
X109995138Y-70695643D01*
X110058636Y-70705700D01*
X110258781Y-70737400D01*
X110461420Y-70737400D01*
X110461421Y-70737400D01*
X110661564Y-70705700D01*
X110854293Y-70643078D01*
X111034848Y-70551081D01*
X111034852Y-70551079D01*
X111046937Y-70542297D01*
X111049540Y-70540600D01*
X111071379Y-70534024D01*
X111077001Y-70520453D01*
X110640700Y-70084153D01*
X110607215Y-70022830D01*
X110612199Y-69953139D01*
X110654070Y-69897205D01*
X110666366Y-69889094D01*
X110687616Y-69876826D01*
X110786927Y-69777515D01*
X110799187Y-69756279D01*
X110849752Y-69708066D01*
X110918359Y-69694842D01*
X110983224Y-69720810D01*
X110994254Y-69730600D01*
X111430553Y-70166900D01*
X111430554Y-70166900D01*
X111430555Y-70166899D01*
X111461180Y-70124751D01*
X111461185Y-70124742D01*
X111491524Y-70065197D01*
X111511851Y-70036362D01*
X111520750Y-70026940D01*
X111581089Y-69991719D01*
X111650895Y-69994711D01*
X111704608Y-70030879D01*
X111710680Y-70037886D01*
X111727450Y-70062791D01*
X111759009Y-70124728D01*
X111759016Y-70124741D01*
X111789646Y-70166899D01*
X111789647Y-70166900D01*
X111789648Y-70166900D01*
X112225947Y-69730599D01*
X112287270Y-69697114D01*
X112356961Y-69702098D01*
X112412895Y-69743969D01*
X112421013Y-69756277D01*
X112433275Y-69777515D01*
X112532586Y-69876826D01*
X112553815Y-69889083D01*
X112553819Y-69889085D01*
X112602035Y-69939652D01*
X112615257Y-70008259D01*
X112589289Y-70073124D01*
X112579500Y-70084153D01*
X112143200Y-70520452D01*
X112143199Y-70520453D01*
X112143200Y-70520453D01*
X112143200Y-70520454D01*
X112185355Y-70551082D01*
X112365908Y-70643078D01*
X112465667Y-70675492D01*
X112495138Y-70695643D01*
X112558636Y-70705700D01*
X112758781Y-70737400D01*
X112961420Y-70737400D01*
X112961421Y-70737400D01*
X113161564Y-70705700D01*
X113354293Y-70643078D01*
X113534848Y-70551081D01*
X113534852Y-70551079D01*
X113546937Y-70542297D01*
X113549540Y-70540600D01*
X113571379Y-70534024D01*
X113577001Y-70520453D01*
X113140700Y-70084153D01*
X113107215Y-70022830D01*
X113112199Y-69953139D01*
X113154070Y-69897205D01*
X113166366Y-69889094D01*
X113187616Y-69876826D01*
X113286927Y-69777515D01*
X113299187Y-69756279D01*
X113349752Y-69708066D01*
X113418359Y-69694842D01*
X113483224Y-69720810D01*
X113494254Y-69730600D01*
X113930553Y-70166900D01*
X113930554Y-70166900D01*
X113930555Y-70166899D01*
X113961180Y-70124751D01*
X113961185Y-70124742D01*
X113991524Y-70065197D01*
X114011851Y-70036362D01*
X114020750Y-70026940D01*
X114081089Y-69991719D01*
X114150895Y-69994711D01*
X114204608Y-70030879D01*
X114210680Y-70037886D01*
X114227450Y-70062791D01*
X114259009Y-70124728D01*
X114259016Y-70124741D01*
X114289646Y-70166899D01*
X114289647Y-70166900D01*
X114289648Y-70166900D01*
X114725947Y-69730599D01*
X114787270Y-69697114D01*
X114856961Y-69702098D01*
X114912895Y-69743969D01*
X114921013Y-69756277D01*
X114933275Y-69777515D01*
X115032586Y-69876826D01*
X115053815Y-69889083D01*
X115053819Y-69889085D01*
X115102035Y-69939652D01*
X115115257Y-70008259D01*
X115089289Y-70073124D01*
X115079500Y-70084153D01*
X114643200Y-70520452D01*
X114643199Y-70520453D01*
X114643200Y-70520453D01*
X114643200Y-70520454D01*
X114685355Y-70551082D01*
X114865908Y-70643078D01*
X114965667Y-70675492D01*
X114995138Y-70695643D01*
X115058636Y-70705700D01*
X115258781Y-70737400D01*
X115461420Y-70737400D01*
X115461421Y-70737400D01*
X115661564Y-70705700D01*
X115854293Y-70643078D01*
X116034848Y-70551081D01*
X116034852Y-70551079D01*
X116046937Y-70542297D01*
X116049540Y-70540600D01*
X116071379Y-70534024D01*
X116077001Y-70520453D01*
X115640700Y-70084153D01*
X115607215Y-70022830D01*
X115612199Y-69953139D01*
X115654070Y-69897205D01*
X115666366Y-69889094D01*
X115687616Y-69876826D01*
X115786927Y-69777515D01*
X115799187Y-69756279D01*
X115849752Y-69708066D01*
X115918359Y-69694842D01*
X115983224Y-69720810D01*
X115994254Y-69730600D01*
X116430553Y-70166900D01*
X116430554Y-70166900D01*
X116430555Y-70166899D01*
X116461180Y-70124751D01*
X116461185Y-70124742D01*
X116491524Y-70065197D01*
X116511851Y-70036362D01*
X116520750Y-70026940D01*
X116581089Y-69991719D01*
X116650895Y-69994711D01*
X116704608Y-70030879D01*
X116710680Y-70037886D01*
X116727450Y-70062791D01*
X116759009Y-70124728D01*
X116759016Y-70124741D01*
X116789646Y-70166899D01*
X116789647Y-70166900D01*
X116789648Y-70166900D01*
X117225947Y-69730599D01*
X117287270Y-69697114D01*
X117356961Y-69702098D01*
X117412895Y-69743969D01*
X117421013Y-69756277D01*
X117433275Y-69777515D01*
X117532586Y-69876826D01*
X117553815Y-69889083D01*
X117553819Y-69889085D01*
X117602035Y-69939652D01*
X117615257Y-70008259D01*
X117589289Y-70073124D01*
X117579500Y-70084153D01*
X117143200Y-70520452D01*
X117143199Y-70520453D01*
X117143200Y-70520453D01*
X117143200Y-70520454D01*
X117185355Y-70551082D01*
X117365908Y-70643078D01*
X117465667Y-70675492D01*
X117495138Y-70695643D01*
X117558636Y-70705700D01*
X117758781Y-70737400D01*
X117961420Y-70737400D01*
X117961421Y-70737400D01*
X118161564Y-70705700D01*
X118354293Y-70643078D01*
X118534848Y-70551081D01*
X118534852Y-70551079D01*
X118546937Y-70542297D01*
X118549540Y-70540600D01*
X118571379Y-70534024D01*
X118577001Y-70520453D01*
X118140700Y-70084153D01*
X118107215Y-70022830D01*
X118112199Y-69953139D01*
X118154070Y-69897205D01*
X118166366Y-69889094D01*
X118187616Y-69876826D01*
X118286927Y-69777515D01*
X118299187Y-69756279D01*
X118349752Y-69708066D01*
X118418359Y-69694842D01*
X118483224Y-69720810D01*
X118494254Y-69730600D01*
X118930553Y-70166900D01*
X118930553Y-70166899D01*
X118930554Y-70166900D01*
X118930555Y-70166899D01*
X118961180Y-70124751D01*
X118961182Y-70124747D01*
X119053179Y-69944192D01*
X119115801Y-69751463D01*
X119147501Y-69551320D01*
X119147501Y-69348679D01*
X119115801Y-69148536D01*
X119053179Y-68955807D01*
X118961183Y-68775254D01*
X118961181Y-68775251D01*
X118961179Y-68775247D01*
X118930554Y-68733099D01*
X118930553Y-68733098D01*
X118494253Y-69169398D01*
X118432930Y-69202883D01*
X118363238Y-69197899D01*
X118307305Y-69156027D01*
X118299191Y-69143726D01*
X118286927Y-69122485D01*
X118187616Y-69023174D01*
X118166380Y-69010913D01*
X118118165Y-68960347D01*
X118104942Y-68891740D01*
X118130910Y-68826875D01*
X118140700Y-68815846D01*
X118577001Y-68379546D01*
X118577001Y-68379545D01*
X118576997Y-68379542D01*
X118534851Y-68348919D01*
X118534847Y-68348917D01*
X118354297Y-68256922D01*
X118302231Y-68240004D01*
X118254532Y-68224506D01*
X118225061Y-68204354D01*
X117961427Y-68162600D01*
X117961421Y-68162600D01*
X117758781Y-68162600D01*
X117758776Y-68162600D01*
X117558636Y-68194298D01*
X117365903Y-68256922D01*
X117185358Y-68348915D01*
X117185355Y-68348916D01*
X117185351Y-68348919D01*
X117143203Y-68379542D01*
X117143199Y-68379545D01*
X117579501Y-68815846D01*
X117612986Y-68877169D01*
X117608002Y-68946860D01*
X117566131Y-69002794D01*
X117553822Y-69010913D01*
X117532589Y-69023172D01*
X117532583Y-69023176D01*
X117433277Y-69122482D01*
X117433270Y-69122491D01*
X117421013Y-69143721D01*
X117370445Y-69191935D01*
X117301837Y-69205156D01*
X117236973Y-69179186D01*
X117225947Y-69169399D01*
X116789646Y-68733098D01*
X116759018Y-68775254D01*
X116728678Y-68834798D01*
X116708339Y-68863648D01*
X116699448Y-68873061D01*
X116639104Y-68908281D01*
X116569299Y-68905285D01*
X116515590Y-68869118D01*
X116509518Y-68862110D01*
X116492751Y-68837208D01*
X116461184Y-68775256D01*
X116461183Y-68775254D01*
X116430554Y-68733099D01*
X116430553Y-68733098D01*
X115994253Y-69169398D01*
X115932930Y-69202883D01*
X115863238Y-69197899D01*
X115807305Y-69156027D01*
X115799191Y-69143726D01*
X115786927Y-69122485D01*
X115687616Y-69023174D01*
X115666380Y-69010913D01*
X115618165Y-68960347D01*
X115604942Y-68891740D01*
X115630910Y-68826875D01*
X115640700Y-68815846D01*
X116077001Y-68379546D01*
X116077001Y-68379545D01*
X116076997Y-68379542D01*
X116034851Y-68348919D01*
X116034847Y-68348917D01*
X115854297Y-68256922D01*
X115802231Y-68240004D01*
X115754532Y-68224506D01*
X115725061Y-68204354D01*
X115461427Y-68162600D01*
X115461421Y-68162600D01*
X115258781Y-68162600D01*
X115258776Y-68162600D01*
X115058636Y-68194298D01*
X114865903Y-68256922D01*
X114685358Y-68348915D01*
X114685355Y-68348916D01*
X114685351Y-68348919D01*
X114643203Y-68379542D01*
X114643199Y-68379545D01*
X115079501Y-68815846D01*
X115112986Y-68877169D01*
X115108002Y-68946860D01*
X115066131Y-69002794D01*
X115053822Y-69010913D01*
X115032589Y-69023172D01*
X115032583Y-69023176D01*
X114933277Y-69122482D01*
X114933270Y-69122491D01*
X114921013Y-69143721D01*
X114870445Y-69191935D01*
X114801837Y-69205156D01*
X114736973Y-69179186D01*
X114725947Y-69169399D01*
X114289646Y-68733098D01*
X114259018Y-68775254D01*
X114228678Y-68834798D01*
X114208339Y-68863648D01*
X114199448Y-68873061D01*
X114139104Y-68908281D01*
X114069299Y-68905285D01*
X114015590Y-68869118D01*
X114009518Y-68862110D01*
X113992751Y-68837208D01*
X113961184Y-68775256D01*
X113961183Y-68775254D01*
X113930554Y-68733099D01*
X113930553Y-68733098D01*
X113494253Y-69169398D01*
X113432930Y-69202883D01*
X113363238Y-69197899D01*
X113307305Y-69156027D01*
X113299191Y-69143726D01*
X113286927Y-69122485D01*
X113187616Y-69023174D01*
X113166380Y-69010913D01*
X113118165Y-68960347D01*
X113104942Y-68891740D01*
X113130910Y-68826875D01*
X113140700Y-68815846D01*
X113577001Y-68379546D01*
X113577001Y-68379545D01*
X113576997Y-68379542D01*
X113534851Y-68348919D01*
X113534847Y-68348917D01*
X113354297Y-68256922D01*
X113302231Y-68240004D01*
X113254532Y-68224506D01*
X113225061Y-68204354D01*
X112961427Y-68162600D01*
X112961421Y-68162600D01*
X112758781Y-68162600D01*
X112758776Y-68162600D01*
X112558636Y-68194298D01*
X112365903Y-68256922D01*
X112185358Y-68348915D01*
X112185355Y-68348916D01*
X112185351Y-68348919D01*
X112143203Y-68379542D01*
X112143199Y-68379545D01*
X112579501Y-68815846D01*
X112612986Y-68877169D01*
X112608002Y-68946860D01*
X112566131Y-69002794D01*
X112553822Y-69010913D01*
X112532589Y-69023172D01*
X112532583Y-69023176D01*
X112433277Y-69122482D01*
X112433270Y-69122491D01*
X112421013Y-69143721D01*
X112370445Y-69191935D01*
X112301837Y-69205156D01*
X112236973Y-69179186D01*
X112225947Y-69169399D01*
X111789646Y-68733098D01*
X111759018Y-68775254D01*
X111728678Y-68834798D01*
X111708339Y-68863648D01*
X111699448Y-68873061D01*
X111639104Y-68908281D01*
X111569299Y-68905285D01*
X111515590Y-68869118D01*
X111509518Y-68862110D01*
X111492751Y-68837208D01*
X111461184Y-68775256D01*
X111461183Y-68775254D01*
X111430554Y-68733099D01*
X111430553Y-68733098D01*
X110994253Y-69169398D01*
X110932930Y-69202883D01*
X110863238Y-69197899D01*
X110807305Y-69156027D01*
X110799191Y-69143726D01*
X110786927Y-69122485D01*
X110687616Y-69023174D01*
X110666380Y-69010913D01*
X110618165Y-68960347D01*
X110604942Y-68891740D01*
X110630910Y-68826875D01*
X110640700Y-68815846D01*
X111077001Y-68379546D01*
X111077001Y-68379545D01*
X111076997Y-68379542D01*
X111034851Y-68348919D01*
X111034847Y-68348917D01*
X110854297Y-68256922D01*
X110802231Y-68240004D01*
X110754532Y-68224506D01*
X110725061Y-68204354D01*
X110461427Y-68162600D01*
X110461421Y-68162600D01*
X110258781Y-68162600D01*
X110258776Y-68162600D01*
X110058636Y-68194298D01*
X109865903Y-68256922D01*
X109685358Y-68348915D01*
X109685355Y-68348916D01*
X109685351Y-68348919D01*
X109643203Y-68379542D01*
X109643199Y-68379545D01*
X110079501Y-68815846D01*
X110112986Y-68877169D01*
X110108002Y-68946860D01*
X110066131Y-69002794D01*
X110053822Y-69010913D01*
X110032589Y-69023172D01*
X110032583Y-69023176D01*
X109933277Y-69122482D01*
X109933270Y-69122491D01*
X109921013Y-69143721D01*
X109870445Y-69191935D01*
X109801837Y-69205156D01*
X109736973Y-69179186D01*
X109725947Y-69169399D01*
X109289646Y-68733098D01*
X109259018Y-68775254D01*
X109228678Y-68834798D01*
X109208339Y-68863648D01*
X109199448Y-68873061D01*
X109139104Y-68908281D01*
X109069299Y-68905285D01*
X109015590Y-68869118D01*
X109009518Y-68862110D01*
X108992751Y-68837208D01*
X108961184Y-68775256D01*
X108961183Y-68775254D01*
X108930554Y-68733099D01*
X108930553Y-68733098D01*
X108494253Y-69169398D01*
X108432930Y-69202883D01*
X108363238Y-69197899D01*
X108307305Y-69156027D01*
X108299191Y-69143726D01*
X108286927Y-69122485D01*
X108187616Y-69023174D01*
X108166380Y-69010913D01*
X108118165Y-68960347D01*
X108104942Y-68891740D01*
X108130910Y-68826875D01*
X108140700Y-68815846D01*
X108577001Y-68379546D01*
X108577001Y-68379545D01*
X108576997Y-68379542D01*
X108534851Y-68348919D01*
X108534847Y-68348917D01*
X108354297Y-68256922D01*
X108302231Y-68240004D01*
X108254532Y-68224506D01*
X108225061Y-68204354D01*
X107961427Y-68162600D01*
X107961421Y-68162600D01*
X107758781Y-68162600D01*
X107758776Y-68162600D01*
X107558636Y-68194298D01*
X107365903Y-68256922D01*
X107185358Y-68348915D01*
X107185355Y-68348916D01*
X107185351Y-68348919D01*
X107143203Y-68379542D01*
X107143199Y-68379545D01*
X107579501Y-68815846D01*
X107612986Y-68877169D01*
X107608002Y-68946860D01*
X107566131Y-69002794D01*
X107553822Y-69010913D01*
X107532589Y-69023172D01*
X107532583Y-69023176D01*
X107433277Y-69122482D01*
X107433270Y-69122491D01*
X107421013Y-69143721D01*
X107370445Y-69191935D01*
X107301837Y-69205156D01*
X107236973Y-69179186D01*
X107225947Y-69169399D01*
X106789646Y-68733098D01*
X106789645Y-68733099D01*
X106759020Y-68775250D01*
X106759017Y-68775254D01*
X106759016Y-68775257D01*
X106667023Y-68955804D01*
X106667022Y-68955806D01*
X106667022Y-68955807D01*
X106645134Y-69023172D01*
X106604399Y-69148539D01*
X106572701Y-69348673D01*
X104000500Y-69348673D01*
X104000500Y-60793420D01*
X105072201Y-60793420D01*
X105072201Y-61106576D01*
X105107254Y-61417692D01*
X105107255Y-61417702D01*
X105107260Y-61417728D01*
X105176937Y-61723004D01*
X105176938Y-61723007D01*
X105176941Y-61723019D01*
X105176948Y-61723040D01*
X105280351Y-62018544D01*
X105280357Y-62018559D01*
X105280364Y-62018577D01*
X105416215Y-62300675D01*
X105416303Y-62300815D01*
X105459103Y-62368933D01*
X105473436Y-62401185D01*
X105477873Y-62416887D01*
X105477525Y-62485535D01*
X105473432Y-62499477D01*
X105459447Y-62530519D01*
X105416302Y-62599183D01*
X105416303Y-62599184D01*
X105416215Y-62599323D01*
X105280364Y-62881421D01*
X105280357Y-62881439D01*
X105280351Y-62881454D01*
X105176948Y-63176958D01*
X105176941Y-63176979D01*
X105176938Y-63176991D01*
X105107260Y-63482268D01*
X105107255Y-63482296D01*
X105107254Y-63482306D01*
X105072201Y-63793422D01*
X105072201Y-64106578D01*
X105107254Y-64417694D01*
X105107255Y-64417704D01*
X105107260Y-64417730D01*
X105176937Y-64723006D01*
X105176938Y-64723009D01*
X105176941Y-64723021D01*
X105176948Y-64723042D01*
X105280351Y-65018546D01*
X105280357Y-65018561D01*
X105280364Y-65018579D01*
X105416216Y-65300678D01*
X105416419Y-65301035D01*
X105417108Y-65302098D01*
X105582816Y-65565821D01*
X105778050Y-65810636D01*
X105999466Y-66032052D01*
X106244281Y-66227286D01*
X106486971Y-66379778D01*
X106486970Y-66379778D01*
X106496430Y-66385722D01*
X106518580Y-66403477D01*
X106534014Y-66419067D01*
X106566116Y-66475934D01*
X106568924Y-66487049D01*
X106572701Y-66517421D01*
X106572701Y-66551326D01*
X106604399Y-66751460D01*
X106604400Y-66751464D01*
X106667022Y-66944193D01*
X106759016Y-67124744D01*
X106759018Y-67124746D01*
X106765961Y-67134302D01*
X106775503Y-67161042D01*
X106789645Y-67166900D01*
X106789645Y-67166899D01*
X106789646Y-67166900D01*
X106789646Y-67166901D01*
X107218413Y-66738132D01*
X107246649Y-66716994D01*
X107255700Y-66712051D01*
X107323968Y-66697197D01*
X107389434Y-66721610D01*
X107422515Y-66758880D01*
X107433275Y-66777516D01*
X107532586Y-66876827D01*
X107553818Y-66889085D01*
X107602033Y-66939651D01*
X107615257Y-67008258D01*
X107589289Y-67073123D01*
X107579499Y-67084153D01*
X107143200Y-67520453D01*
X107143199Y-67520454D01*
X107143200Y-67520454D01*
X107143200Y-67520455D01*
X107185355Y-67551083D01*
X107365908Y-67643079D01*
X107465667Y-67675493D01*
X107495138Y-67695644D01*
X107558636Y-67705701D01*
X107758781Y-67737401D01*
X107961420Y-67737401D01*
X107961421Y-67737401D01*
X108161564Y-67705701D01*
X108354293Y-67643079D01*
X108534848Y-67551082D01*
X108534852Y-67551080D01*
X108546937Y-67542298D01*
X108549540Y-67540601D01*
X108571379Y-67534025D01*
X108577001Y-67520454D01*
X108140700Y-67084154D01*
X108107215Y-67022831D01*
X108112199Y-66953140D01*
X108154070Y-66897206D01*
X108166366Y-66889095D01*
X108187616Y-66876827D01*
X108286927Y-66777516D01*
X108298481Y-66757502D01*
X108349046Y-66709289D01*
X108417653Y-66696065D01*
X108472374Y-66714848D01*
X108477666Y-66718211D01*
X108498840Y-66735186D01*
X108930554Y-67166901D01*
X108930554Y-67166900D01*
X108930555Y-67166901D01*
X108930555Y-67166900D01*
X108942212Y-67162071D01*
X108946075Y-67147124D01*
X108949760Y-67140468D01*
X108961180Y-67124752D01*
X108961185Y-67124743D01*
X108992511Y-67063261D01*
X108993526Y-67061430D01*
X108995686Y-67059294D01*
X109011851Y-67036363D01*
X109020750Y-67026941D01*
X109039497Y-67015998D01*
X109043222Y-67012317D01*
X109047268Y-67011461D01*
X109081089Y-66991720D01*
X109150895Y-66994712D01*
X109204608Y-67030880D01*
X109210680Y-67037887D01*
X109227450Y-67062792D01*
X109238335Y-67084154D01*
X109259016Y-67124742D01*
X109265962Y-67134302D01*
X109275504Y-67161043D01*
X109289645Y-67166900D01*
X109289645Y-67166899D01*
X109289646Y-67166900D01*
X109289646Y-67166901D01*
X109718413Y-66738132D01*
X109746649Y-66716994D01*
X109755700Y-66712051D01*
X109823968Y-66697197D01*
X109889434Y-66721610D01*
X109922515Y-66758880D01*
X109933275Y-66777516D01*
X110032586Y-66876827D01*
X110053818Y-66889085D01*
X110102033Y-66939651D01*
X110115257Y-67008258D01*
X110089289Y-67073123D01*
X110079499Y-67084153D01*
X109643200Y-67520453D01*
X109643199Y-67520454D01*
X109643200Y-67520454D01*
X109643200Y-67520455D01*
X109685355Y-67551083D01*
X109865908Y-67643079D01*
X109965667Y-67675493D01*
X109995138Y-67695644D01*
X110058636Y-67705701D01*
X110258781Y-67737401D01*
X110461420Y-67737401D01*
X110461421Y-67737401D01*
X110661564Y-67705701D01*
X110854293Y-67643079D01*
X111034848Y-67551082D01*
X111034852Y-67551080D01*
X111046937Y-67542298D01*
X111049540Y-67540601D01*
X111071379Y-67534025D01*
X111077001Y-67520454D01*
X110640700Y-67084154D01*
X110607215Y-67022831D01*
X110612199Y-66953140D01*
X110654070Y-66897206D01*
X110666366Y-66889095D01*
X110687616Y-66876827D01*
X110786927Y-66777516D01*
X110798481Y-66757502D01*
X110849046Y-66709289D01*
X110917653Y-66696065D01*
X110972374Y-66714848D01*
X110977666Y-66718211D01*
X110998840Y-66735186D01*
X111430554Y-67166901D01*
X111430554Y-67166900D01*
X111430555Y-67166901D01*
X111430555Y-67166900D01*
X111442212Y-67162071D01*
X111446075Y-67147124D01*
X111449760Y-67140468D01*
X111461180Y-67124752D01*
X111461185Y-67124743D01*
X111492511Y-67063261D01*
X111493526Y-67061430D01*
X111495686Y-67059294D01*
X111511851Y-67036363D01*
X111520750Y-67026941D01*
X111539497Y-67015998D01*
X111543222Y-67012317D01*
X111547268Y-67011461D01*
X111581089Y-66991720D01*
X111650895Y-66994712D01*
X111704608Y-67030880D01*
X111710680Y-67037887D01*
X111727450Y-67062792D01*
X111738335Y-67084154D01*
X111759016Y-67124742D01*
X111765962Y-67134302D01*
X111775504Y-67161043D01*
X111789645Y-67166900D01*
X111789645Y-67166899D01*
X111789646Y-67166900D01*
X111789646Y-67166901D01*
X112218413Y-66738132D01*
X112246649Y-66716994D01*
X112255700Y-66712051D01*
X112323968Y-66697197D01*
X112389434Y-66721610D01*
X112422515Y-66758880D01*
X112433275Y-66777516D01*
X112532586Y-66876827D01*
X112553818Y-66889085D01*
X112602033Y-66939651D01*
X112615257Y-67008258D01*
X112589289Y-67073123D01*
X112579499Y-67084153D01*
X112143200Y-67520453D01*
X112143199Y-67520454D01*
X112143200Y-67520454D01*
X112143200Y-67520455D01*
X112185355Y-67551083D01*
X112365908Y-67643079D01*
X112465667Y-67675493D01*
X112495138Y-67695644D01*
X112558636Y-67705701D01*
X112758781Y-67737401D01*
X112961420Y-67737401D01*
X112961421Y-67737401D01*
X113161564Y-67705701D01*
X113354293Y-67643079D01*
X113534848Y-67551082D01*
X113534852Y-67551080D01*
X113546937Y-67542298D01*
X113549540Y-67540601D01*
X113571379Y-67534025D01*
X113577001Y-67520454D01*
X113140700Y-67084154D01*
X113107215Y-67022831D01*
X113112199Y-66953140D01*
X113154070Y-66897206D01*
X113166366Y-66889095D01*
X113187616Y-66876827D01*
X113286927Y-66777516D01*
X113298481Y-66757502D01*
X113349046Y-66709289D01*
X113417653Y-66696065D01*
X113472374Y-66714848D01*
X113477666Y-66718211D01*
X113498840Y-66735186D01*
X113930554Y-67166901D01*
X113930554Y-67166900D01*
X113930555Y-67166901D01*
X113930555Y-67166900D01*
X113942212Y-67162071D01*
X113946075Y-67147124D01*
X113949760Y-67140468D01*
X113961180Y-67124752D01*
X113961185Y-67124743D01*
X113992511Y-67063261D01*
X113993526Y-67061430D01*
X113995686Y-67059294D01*
X114011851Y-67036363D01*
X114020750Y-67026941D01*
X114039497Y-67015998D01*
X114043222Y-67012317D01*
X114047268Y-67011461D01*
X114081089Y-66991720D01*
X114150895Y-66994712D01*
X114204608Y-67030880D01*
X114210680Y-67037887D01*
X114227450Y-67062792D01*
X114238335Y-67084154D01*
X114259016Y-67124742D01*
X114265962Y-67134302D01*
X114275504Y-67161043D01*
X114289645Y-67166900D01*
X114289645Y-67166899D01*
X114289646Y-67166900D01*
X114289646Y-67166901D01*
X114718413Y-66738132D01*
X114746649Y-66716994D01*
X114755700Y-66712051D01*
X114823968Y-66697197D01*
X114889434Y-66721610D01*
X114922515Y-66758880D01*
X114933275Y-66777516D01*
X115032586Y-66876827D01*
X115053818Y-66889085D01*
X115102033Y-66939651D01*
X115115257Y-67008258D01*
X115089289Y-67073123D01*
X115079499Y-67084153D01*
X114643200Y-67520453D01*
X114643199Y-67520454D01*
X114643200Y-67520454D01*
X114643200Y-67520455D01*
X114685355Y-67551083D01*
X114865908Y-67643079D01*
X114965667Y-67675493D01*
X114995138Y-67695644D01*
X115058636Y-67705701D01*
X115258781Y-67737401D01*
X115461420Y-67737401D01*
X115461421Y-67737401D01*
X115661564Y-67705701D01*
X115854293Y-67643079D01*
X116034848Y-67551082D01*
X116034852Y-67551080D01*
X116046937Y-67542298D01*
X116049540Y-67540601D01*
X116071379Y-67534025D01*
X116077001Y-67520454D01*
X115640700Y-67084154D01*
X115607215Y-67022831D01*
X115612199Y-66953140D01*
X115654070Y-66897206D01*
X115666366Y-66889095D01*
X115687616Y-66876827D01*
X115786927Y-66777516D01*
X115798481Y-66757502D01*
X115849046Y-66709289D01*
X115917653Y-66696065D01*
X115972374Y-66714848D01*
X115977666Y-66718211D01*
X115998840Y-66735186D01*
X116430554Y-67166901D01*
X116430554Y-67166900D01*
X116430555Y-67166901D01*
X116430555Y-67166900D01*
X116442212Y-67162071D01*
X116446075Y-67147124D01*
X116449760Y-67140468D01*
X116461180Y-67124752D01*
X116461185Y-67124743D01*
X116492511Y-67063261D01*
X116493526Y-67061430D01*
X116495686Y-67059294D01*
X116511851Y-67036363D01*
X116520750Y-67026941D01*
X116539497Y-67015998D01*
X116543222Y-67012317D01*
X116547268Y-67011461D01*
X116581089Y-66991720D01*
X116650895Y-66994712D01*
X116704608Y-67030880D01*
X116710680Y-67037887D01*
X116727450Y-67062792D01*
X116738335Y-67084154D01*
X116759016Y-67124742D01*
X116765962Y-67134302D01*
X116775504Y-67161043D01*
X116789645Y-67166900D01*
X116789645Y-67166899D01*
X116789646Y-67166900D01*
X116789646Y-67166901D01*
X117218413Y-66738132D01*
X117246649Y-66716994D01*
X117255700Y-66712051D01*
X117323968Y-66697197D01*
X117389434Y-66721610D01*
X117422515Y-66758880D01*
X117433275Y-66777516D01*
X117532586Y-66876827D01*
X117553818Y-66889085D01*
X117602033Y-66939651D01*
X117615257Y-67008258D01*
X117589289Y-67073123D01*
X117579499Y-67084153D01*
X117143200Y-67520453D01*
X117143199Y-67520454D01*
X117143200Y-67520454D01*
X117143200Y-67520455D01*
X117185355Y-67551083D01*
X117365908Y-67643079D01*
X117465667Y-67675493D01*
X117495138Y-67695644D01*
X117558636Y-67705701D01*
X117758781Y-67737401D01*
X117961420Y-67737401D01*
X117961421Y-67737401D01*
X118161564Y-67705701D01*
X118354293Y-67643079D01*
X118534848Y-67551082D01*
X118534852Y-67551080D01*
X118546937Y-67542298D01*
X118549540Y-67540601D01*
X118571379Y-67534025D01*
X118577001Y-67520454D01*
X118140700Y-67084154D01*
X118107215Y-67022831D01*
X118112199Y-66953140D01*
X118154070Y-66897206D01*
X118166366Y-66889095D01*
X118187616Y-66876827D01*
X118286927Y-66777516D01*
X118298481Y-66757502D01*
X118349046Y-66709289D01*
X118417653Y-66696065D01*
X118472374Y-66714848D01*
X118477666Y-66718211D01*
X118498840Y-66735186D01*
X118930554Y-67166901D01*
X118930554Y-67166900D01*
X118930555Y-67166901D01*
X118930555Y-67166900D01*
X118944024Y-67161321D01*
X118950240Y-67140153D01*
X118950701Y-67139440D01*
X118952398Y-67136837D01*
X118961180Y-67124752D01*
X118961182Y-67124748D01*
X119053179Y-66944193D01*
X119115801Y-66751464D01*
X119147501Y-66551321D01*
X119147501Y-66519832D01*
X119152523Y-66484901D01*
X119157648Y-66467445D01*
X119191897Y-66411839D01*
X119203029Y-66401422D01*
X119221775Y-66386975D01*
X119233231Y-66379778D01*
X119475921Y-66227286D01*
X119720736Y-66032052D01*
X119942152Y-65810636D01*
X120137386Y-65565821D01*
X120303981Y-65300686D01*
X120439843Y-65018565D01*
X120543264Y-64723007D01*
X120612942Y-64417727D01*
X120648001Y-64106566D01*
X120648001Y-63793436D01*
X120636314Y-63689715D01*
X120612944Y-63482289D01*
X120612941Y-63482271D01*
X120543264Y-63176995D01*
X120543260Y-63176983D01*
X120440117Y-62882221D01*
X120440115Y-62882215D01*
X120439845Y-62881443D01*
X120439843Y-62881437D01*
X120439842Y-62881435D01*
X120439795Y-62881301D01*
X120439284Y-62880210D01*
X120438705Y-62878940D01*
X120437955Y-62877514D01*
X120303987Y-62599326D01*
X120261096Y-62531066D01*
X120246764Y-62498819D01*
X120242326Y-62483111D01*
X120242675Y-62414461D01*
X120246773Y-62400505D01*
X120260754Y-62369478D01*
X120261097Y-62368933D01*
X120303981Y-62300684D01*
X120439843Y-62018563D01*
X120543264Y-61723005D01*
X120612942Y-61417725D01*
X120648001Y-61106564D01*
X120648001Y-60793434D01*
X120636314Y-60689713D01*
X120612944Y-60482287D01*
X120612941Y-60482269D01*
X120543264Y-60176993D01*
X120543260Y-60176981D01*
X120440117Y-59882219D01*
X120440115Y-59882213D01*
X120439845Y-59881441D01*
X120439843Y-59881435D01*
X120439842Y-59881433D01*
X120439795Y-59881299D01*
X120439284Y-59880208D01*
X120438705Y-59878938D01*
X120437955Y-59877512D01*
X120303992Y-59599335D01*
X120303986Y-59599324D01*
X120303984Y-59599319D01*
X120303981Y-59599314D01*
X120137386Y-59334179D01*
X119942152Y-59089364D01*
X119720736Y-58867948D01*
X119720733Y-58867946D01*
X119658562Y-58818366D01*
X119475921Y-58672714D01*
X119397571Y-58623483D01*
X119288095Y-58554695D01*
X119280226Y-58545799D01*
X119210786Y-58506119D01*
X119210787Y-58506119D01*
X119210780Y-58506115D01*
X119210771Y-58506111D01*
X119210751Y-58506100D01*
X118928685Y-58370265D01*
X118928661Y-58370255D01*
X118928646Y-58370249D01*
X118633142Y-58266846D01*
X118633121Y-58266839D01*
X118633109Y-58266836D01*
X118633106Y-58266835D01*
X118508399Y-58238371D01*
X118327832Y-58197158D01*
X118327804Y-58197153D01*
X118327794Y-58197152D01*
X118016678Y-58162099D01*
X118016672Y-58162099D01*
X118016666Y-58162099D01*
X117703536Y-58162099D01*
X117703529Y-58162099D01*
X117703522Y-58162099D01*
X117392406Y-58197152D01*
X117392396Y-58197153D01*
X117392368Y-58197158D01*
X117087091Y-58266836D01*
X117087079Y-58266839D01*
X117087058Y-58266846D01*
X116791554Y-58370249D01*
X116791539Y-58370255D01*
X116791515Y-58370265D01*
X116679963Y-58423985D01*
X116646310Y-58434617D01*
X116622888Y-58438474D01*
X116567791Y-58435095D01*
X116566014Y-58434573D01*
X116547162Y-58427320D01*
X116428685Y-58370265D01*
X116428661Y-58370255D01*
X116428646Y-58370249D01*
X116133142Y-58266846D01*
X116133121Y-58266839D01*
X116133109Y-58266836D01*
X116133106Y-58266835D01*
X116008399Y-58238371D01*
X115827832Y-58197158D01*
X115827804Y-58197153D01*
X115827794Y-58197152D01*
X115516678Y-58162099D01*
X115516672Y-58162099D01*
X115516666Y-58162099D01*
X115203536Y-58162099D01*
X115203529Y-58162099D01*
X115203522Y-58162099D01*
X114892406Y-58197152D01*
X114892396Y-58197153D01*
X114892368Y-58197158D01*
X114587091Y-58266836D01*
X114587079Y-58266839D01*
X114587058Y-58266846D01*
X114291554Y-58370249D01*
X114291539Y-58370255D01*
X114291515Y-58370265D01*
X114179963Y-58423985D01*
X114146310Y-58434617D01*
X114122888Y-58438474D01*
X114067791Y-58435095D01*
X114066014Y-58434573D01*
X114047162Y-58427320D01*
X113928685Y-58370265D01*
X113928661Y-58370255D01*
X113928646Y-58370249D01*
X113633142Y-58266846D01*
X113633121Y-58266839D01*
X113633109Y-58266836D01*
X113633106Y-58266835D01*
X113508399Y-58238371D01*
X113327832Y-58197158D01*
X113327804Y-58197153D01*
X113327794Y-58197152D01*
X113016678Y-58162099D01*
X113016672Y-58162099D01*
X113016666Y-58162099D01*
X112703536Y-58162099D01*
X112703529Y-58162099D01*
X112703522Y-58162099D01*
X112392406Y-58197152D01*
X112392396Y-58197153D01*
X112392368Y-58197158D01*
X112087091Y-58266836D01*
X112087079Y-58266839D01*
X112087058Y-58266846D01*
X111791554Y-58370249D01*
X111791539Y-58370255D01*
X111791515Y-58370265D01*
X111679963Y-58423985D01*
X111646310Y-58434617D01*
X111622888Y-58438474D01*
X111567791Y-58435095D01*
X111566014Y-58434573D01*
X111547162Y-58427320D01*
X111428685Y-58370265D01*
X111428661Y-58370255D01*
X111428646Y-58370249D01*
X111133142Y-58266846D01*
X111133121Y-58266839D01*
X111133109Y-58266836D01*
X111133106Y-58266835D01*
X111008399Y-58238371D01*
X110827832Y-58197158D01*
X110827804Y-58197153D01*
X110827794Y-58197152D01*
X110516678Y-58162099D01*
X110516672Y-58162099D01*
X110516666Y-58162099D01*
X110203536Y-58162099D01*
X110203529Y-58162099D01*
X110203522Y-58162099D01*
X109892406Y-58197152D01*
X109892396Y-58197153D01*
X109892368Y-58197158D01*
X109587091Y-58266836D01*
X109587079Y-58266839D01*
X109587058Y-58266846D01*
X109291554Y-58370249D01*
X109291539Y-58370255D01*
X109291515Y-58370265D01*
X109179963Y-58423985D01*
X109146310Y-58434617D01*
X109122888Y-58438474D01*
X109067791Y-58435095D01*
X109066014Y-58434573D01*
X109047162Y-58427320D01*
X108928685Y-58370265D01*
X108928661Y-58370255D01*
X108928646Y-58370249D01*
X108633142Y-58266846D01*
X108633121Y-58266839D01*
X108633109Y-58266836D01*
X108633106Y-58266835D01*
X108508399Y-58238371D01*
X108327832Y-58197158D01*
X108327804Y-58197153D01*
X108327794Y-58197152D01*
X108016678Y-58162099D01*
X108016672Y-58162099D01*
X108016666Y-58162099D01*
X107703536Y-58162099D01*
X107703529Y-58162099D01*
X107703522Y-58162099D01*
X107392406Y-58197152D01*
X107392396Y-58197153D01*
X107392368Y-58197158D01*
X107087091Y-58266836D01*
X107087079Y-58266839D01*
X107087058Y-58266846D01*
X106791554Y-58370249D01*
X106791539Y-58370255D01*
X106791515Y-58370265D01*
X106509426Y-58506111D01*
X106244283Y-58672712D01*
X105999466Y-58867946D01*
X105778048Y-59089364D01*
X105582814Y-59334181D01*
X105416213Y-59599324D01*
X105280367Y-59881413D01*
X105280357Y-59881437D01*
X105280351Y-59881452D01*
X105176948Y-60176956D01*
X105176941Y-60176977D01*
X105176938Y-60176989D01*
X105107260Y-60482266D01*
X105107255Y-60482294D01*
X105107254Y-60482304D01*
X105072201Y-60793420D01*
X104000500Y-60793420D01*
X104000500Y-41495146D01*
X123993000Y-41495146D01*
X123993000Y-41495155D01*
X123993000Y-42300000D01*
X124713978Y-42300000D01*
X124781017Y-42319685D01*
X124826772Y-42372489D01*
X124836716Y-42441647D01*
X124835595Y-42448191D01*
X124828500Y-42483858D01*
X124828500Y-42616141D01*
X124835595Y-42651809D01*
X124829368Y-42721401D01*
X124786505Y-42776578D01*
X124720615Y-42799822D01*
X124713978Y-42800000D01*
X123993000Y-42800000D01*
X123993000Y-43604852D01*
X123999400Y-43664370D01*
X123999402Y-43664377D01*
X124049646Y-43799088D01*
X124049648Y-43799091D01*
X124135807Y-43914185D01*
X124135809Y-43914187D01*
X124135812Y-43914190D01*
X124250906Y-44000350D01*
X124250913Y-44000354D01*
X124385620Y-44050596D01*
X124385627Y-44050598D01*
X124392468Y-44051333D01*
X124445138Y-44056998D01*
X124445155Y-44056999D01*
X124445172Y-44057000D01*
X125250000Y-44057000D01*
X125250000Y-43336021D01*
X125269685Y-43268982D01*
X125322489Y-43223227D01*
X125391647Y-43213283D01*
X125398155Y-43214397D01*
X125433863Y-43221500D01*
X125566136Y-43221500D01*
X125566137Y-43221500D01*
X125601809Y-43214404D01*
X125671398Y-43220630D01*
X125726576Y-43263492D01*
X125749822Y-43329381D01*
X125750000Y-43336021D01*
X125750000Y-44057000D01*
X126554828Y-44057000D01*
X126554836Y-44057000D01*
X126554847Y-44056999D01*
X126590560Y-44053158D01*
X126614372Y-44050598D01*
X126614379Y-44050596D01*
X126749086Y-44000354D01*
X126749093Y-44000350D01*
X126864187Y-43914190D01*
X126864190Y-43914187D01*
X126950350Y-43799093D01*
X126950354Y-43799086D01*
X127000596Y-43664379D01*
X127000598Y-43664372D01*
X127002069Y-43650689D01*
X127006998Y-43604860D01*
X127007000Y-43604827D01*
X127007000Y-42800000D01*
X126286022Y-42800000D01*
X126218983Y-42780315D01*
X126173228Y-42727511D01*
X126163284Y-42658353D01*
X126164405Y-42651809D01*
X126171499Y-42616141D01*
X126171500Y-42616138D01*
X126171500Y-42483862D01*
X126171499Y-42483858D01*
X126164405Y-42448191D01*
X126170632Y-42378599D01*
X126213495Y-42323422D01*
X126279385Y-42300178D01*
X126286022Y-42300000D01*
X127007000Y-42300000D01*
X127007000Y-41495172D01*
X127006998Y-41495138D01*
X127000598Y-41435628D01*
X127000596Y-41435621D01*
X127000596Y-41435620D01*
X126950354Y-41300913D01*
X126950350Y-41300906D01*
X126864190Y-41185812D01*
X126864187Y-41185809D01*
X126864185Y-41185807D01*
X126806317Y-41142487D01*
X126749093Y-41099649D01*
X126749088Y-41099646D01*
X126749089Y-41099646D01*
X126614377Y-41049402D01*
X126614370Y-41049400D01*
X126554852Y-41043000D01*
X126554844Y-41043000D01*
X125750000Y-41043000D01*
X125750000Y-41763978D01*
X125730315Y-41831017D01*
X125677511Y-41876772D01*
X125608353Y-41886716D01*
X125601809Y-41885595D01*
X125566141Y-41878500D01*
X125566137Y-41878500D01*
X125433863Y-41878500D01*
X125433858Y-41878500D01*
X125398191Y-41885595D01*
X125328599Y-41879368D01*
X125273422Y-41836505D01*
X125250178Y-41770615D01*
X125250000Y-41763978D01*
X125250000Y-41043000D01*
X124445155Y-41043000D01*
X124445146Y-41043000D01*
X124385628Y-41049400D01*
X124385621Y-41049402D01*
X124250910Y-41099646D01*
X124250907Y-41099648D01*
X124135813Y-41185807D01*
X124135807Y-41185813D01*
X124049648Y-41300907D01*
X124049646Y-41300910D01*
X123999402Y-41435621D01*
X123999400Y-41435628D01*
X123993000Y-41495146D01*
X104000500Y-41495146D01*
X104000500Y-24443707D01*
X107299500Y-24443707D01*
X107299500Y-24656291D01*
X107332752Y-24866239D01*
X107398445Y-25068418D01*
X107491532Y-25251111D01*
X107494951Y-25257820D01*
X107619890Y-25429786D01*
X107619892Y-25429788D01*
X107770216Y-25580112D01*
X107942169Y-25705042D01*
X107942177Y-25705047D01*
X107942179Y-25705048D01*
X107942181Y-25705049D01*
X107942182Y-25705050D01*
X107942200Y-25705060D01*
X107942442Y-25705182D01*
X108131588Y-25801557D01*
X108333757Y-25867246D01*
X108543713Y-25900500D01*
X108543714Y-25900500D01*
X108756286Y-25900500D01*
X108756287Y-25900500D01*
X108966243Y-25867246D01*
X109168412Y-25801557D01*
X109357816Y-25705051D01*
X109379789Y-25689086D01*
X109529786Y-25580109D01*
X109529786Y-25580108D01*
X109529844Y-25580066D01*
X109530605Y-25579290D01*
X109680104Y-25429792D01*
X109680106Y-25429788D01*
X109680109Y-25429786D01*
X109805048Y-25257820D01*
X109805047Y-25257820D01*
X109805051Y-25257816D01*
X109805053Y-25257810D01*
X109825445Y-25229744D01*
X109833730Y-25201529D01*
X109901557Y-25068412D01*
X109967246Y-24866243D01*
X110000500Y-24656287D01*
X110000500Y-24443713D01*
X109967246Y-24233757D01*
X109901557Y-24031588D01*
X109805051Y-23842184D01*
X109805049Y-23842181D01*
X109805048Y-23842179D01*
X109804702Y-23841703D01*
X109804700Y-23841699D01*
X109680112Y-23670216D01*
X109529788Y-23519892D01*
X109529786Y-23519890D01*
X109357820Y-23394951D01*
X109344167Y-23387994D01*
X109190245Y-23309567D01*
X109190240Y-23309565D01*
X109168414Y-23298444D01*
X109168413Y-23298443D01*
X109168412Y-23298443D01*
X109071550Y-23266970D01*
X108975074Y-23235623D01*
X108970552Y-23233770D01*
X108961362Y-23231600D01*
X108956599Y-23231226D01*
X108804957Y-23207208D01*
X108785489Y-23204124D01*
X108756290Y-23199500D01*
X108756287Y-23199500D01*
X108543713Y-23199500D01*
X108543709Y-23199500D01*
X108504776Y-23205666D01*
X108495042Y-23207208D01*
X108457654Y-23213129D01*
X108333763Y-23232752D01*
X108131582Y-23298445D01*
X107942182Y-23394949D01*
X107770210Y-23519892D01*
X107619892Y-23670210D01*
X107494949Y-23842182D01*
X107398445Y-24031580D01*
X107332752Y-24233759D01*
X107299500Y-24443707D01*
X104000500Y-24443707D01*
X104000500Y-20192329D01*
X104005523Y-20157393D01*
X104009927Y-20142395D01*
X104047672Y-20083644D01*
X104049041Y-20082457D01*
X104103920Y-20054977D01*
X104111479Y-20053333D01*
X104137832Y-20050500D01*
X150494776Y-20050500D01*
X150561815Y-20070185D01*
G37*
%TD.AperFunction*%
%TD*%
%TA.AperFunction,Conductor*%
%TO.N,/Phase_A_Output*%
G36*
X195942539Y-20070185D02*
G01*
X195988294Y-20122989D01*
X195999500Y-20174500D01*
X195999500Y-109425500D01*
X195979815Y-109492539D01*
X195927011Y-109538294D01*
X195875500Y-109549500D01*
X152500276Y-109549500D01*
X152433237Y-109529815D01*
X152387482Y-109477011D01*
X152376276Y-109425155D01*
X152389563Y-104643713D01*
X189599500Y-104643713D01*
X189599500Y-104856286D01*
X189632753Y-105066239D01*
X189698444Y-105268414D01*
X189794951Y-105457820D01*
X189919890Y-105629786D01*
X190070213Y-105780109D01*
X190242179Y-105905048D01*
X190242181Y-105905049D01*
X190242184Y-105905051D01*
X190431588Y-106001557D01*
X190633757Y-106067246D01*
X190843713Y-106100500D01*
X190843714Y-106100500D01*
X191056286Y-106100500D01*
X191056287Y-106100500D01*
X191266243Y-106067246D01*
X191468412Y-106001557D01*
X191657816Y-105905051D01*
X191679789Y-105889086D01*
X191829786Y-105780109D01*
X191829788Y-105780106D01*
X191829792Y-105780104D01*
X191980104Y-105629792D01*
X191980106Y-105629788D01*
X191980109Y-105629786D01*
X192105048Y-105457820D01*
X192105047Y-105457820D01*
X192105051Y-105457816D01*
X192201557Y-105268412D01*
X192267246Y-105066243D01*
X192300500Y-104856287D01*
X192300500Y-104643713D01*
X192267246Y-104433757D01*
X192201557Y-104231588D01*
X192105051Y-104042184D01*
X192105049Y-104042181D01*
X192105048Y-104042179D01*
X191980109Y-103870213D01*
X191829786Y-103719890D01*
X191657820Y-103594951D01*
X191468414Y-103498444D01*
X191468413Y-103498443D01*
X191468412Y-103498443D01*
X191266243Y-103432754D01*
X191266241Y-103432753D01*
X191266240Y-103432753D01*
X191104957Y-103407208D01*
X191056287Y-103399500D01*
X190843713Y-103399500D01*
X190795042Y-103407208D01*
X190633760Y-103432753D01*
X190431585Y-103498444D01*
X190242179Y-103594951D01*
X190070213Y-103719890D01*
X189919890Y-103870213D01*
X189794951Y-104042179D01*
X189698444Y-104231585D01*
X189632753Y-104433760D01*
X189599500Y-104643713D01*
X152389563Y-104643713D01*
X152389577Y-104638496D01*
X152404128Y-99401771D01*
X152419753Y-93778549D01*
X165799500Y-93778549D01*
X165799500Y-95821450D01*
X165814804Y-96035433D01*
X165875628Y-96315037D01*
X165975635Y-96583166D01*
X166112770Y-96834309D01*
X166112775Y-96834317D01*
X166284254Y-97063387D01*
X166284270Y-97063405D01*
X166486594Y-97265729D01*
X166486612Y-97265745D01*
X166715682Y-97437224D01*
X166715690Y-97437229D01*
X166966833Y-97574364D01*
X166966832Y-97574364D01*
X166966836Y-97574365D01*
X166966839Y-97574367D01*
X167234954Y-97674369D01*
X167234960Y-97674370D01*
X167234962Y-97674371D01*
X167514566Y-97735195D01*
X167514568Y-97735195D01*
X167514572Y-97735196D01*
X167728552Y-97750500D01*
X169771448Y-97750500D01*
X169985428Y-97735196D01*
X170116207Y-97706747D01*
X170265037Y-97674371D01*
X170265037Y-97674370D01*
X170265046Y-97674369D01*
X170533161Y-97574367D01*
X170784315Y-97437226D01*
X171013395Y-97265739D01*
X171215739Y-97063395D01*
X171387226Y-96834315D01*
X171524367Y-96583161D01*
X171624369Y-96315046D01*
X171685196Y-96035428D01*
X171700500Y-95821448D01*
X171700500Y-93778552D01*
X171685196Y-93564572D01*
X171624369Y-93284954D01*
X171524367Y-93016839D01*
X171395722Y-92781245D01*
X171387229Y-92765690D01*
X171387224Y-92765682D01*
X171215745Y-92536612D01*
X171215729Y-92536594D01*
X171013405Y-92334270D01*
X171013387Y-92334254D01*
X170784317Y-92162775D01*
X170784309Y-92162770D01*
X170533166Y-92025635D01*
X170533167Y-92025635D01*
X170425915Y-91985632D01*
X170265046Y-91925631D01*
X170265043Y-91925630D01*
X170265037Y-91925628D01*
X169985433Y-91864804D01*
X169771450Y-91849500D01*
X169771448Y-91849500D01*
X167728552Y-91849500D01*
X167728549Y-91849500D01*
X167514566Y-91864804D01*
X167234962Y-91925628D01*
X166966833Y-92025635D01*
X166715690Y-92162770D01*
X166715682Y-92162775D01*
X166486612Y-92334254D01*
X166486594Y-92334270D01*
X166284270Y-92536594D01*
X166284254Y-92536612D01*
X166112775Y-92765682D01*
X166112770Y-92765690D01*
X165975635Y-93016833D01*
X165875628Y-93284962D01*
X165814804Y-93564566D01*
X165799500Y-93778549D01*
X152419753Y-93778549D01*
X152430329Y-89972589D01*
X152450200Y-89905609D01*
X152503131Y-89860001D01*
X152572317Y-89850250D01*
X152635792Y-89879451D01*
X152642010Y-89885257D01*
X152702805Y-89946052D01*
X152966904Y-90156664D01*
X153252923Y-90336382D01*
X153557266Y-90482946D01*
X153557272Y-90482948D01*
X153876093Y-90594509D01*
X153876105Y-90594513D01*
X154205431Y-90669679D01*
X154541098Y-90707499D01*
X154541099Y-90707500D01*
X154541102Y-90707500D01*
X154878901Y-90707500D01*
X154878901Y-90707499D01*
X155214569Y-90669679D01*
X155543895Y-90594513D01*
X155862734Y-90482946D01*
X156167077Y-90336382D01*
X156453096Y-90156664D01*
X156717195Y-89946052D01*
X156956052Y-89707195D01*
X157073505Y-89559914D01*
X176451460Y-89559914D01*
X176451460Y-89880085D01*
X176487305Y-90198216D01*
X176487307Y-90198228D01*
X176558549Y-90510362D01*
X176558550Y-90510364D01*
X176664292Y-90812559D01*
X176803203Y-91101010D01*
X176803205Y-91101013D01*
X176973541Y-91372101D01*
X177173158Y-91622413D01*
X177399547Y-91848802D01*
X177649859Y-92048419D01*
X177920947Y-92218755D01*
X178209402Y-92357668D01*
X178511597Y-92463410D01*
X178823731Y-92534653D01*
X179141875Y-92570499D01*
X179141876Y-92570500D01*
X179141879Y-92570500D01*
X179462044Y-92570500D01*
X179462044Y-92570499D01*
X179780189Y-92534653D01*
X180092323Y-92463410D01*
X180394518Y-92357668D01*
X180439371Y-92336067D01*
X180508310Y-92324716D01*
X180572445Y-92352437D01*
X180611411Y-92410432D01*
X180612837Y-92480287D01*
X180589025Y-92526453D01*
X180379927Y-92781239D01*
X180379917Y-92781253D01*
X180195162Y-93057759D01*
X180195151Y-93057777D01*
X180038389Y-93351058D01*
X180038387Y-93351063D01*
X179911117Y-93658318D01*
X179814575Y-93976578D01*
X179814572Y-93976589D01*
X179749698Y-94302741D01*
X179749695Y-94302758D01*
X179717099Y-94633718D01*
X179717099Y-94966281D01*
X179749695Y-95297241D01*
X179749698Y-95297258D01*
X179814572Y-95623410D01*
X179814575Y-95623421D01*
X179911117Y-95941681D01*
X180038387Y-96248936D01*
X180038389Y-96248941D01*
X180195151Y-96542222D01*
X180195162Y-96542240D01*
X180379917Y-96818746D01*
X180379927Y-96818760D01*
X180589025Y-97073546D01*
X180616338Y-97137856D01*
X180604547Y-97206724D01*
X180557395Y-97258284D01*
X180489852Y-97276167D01*
X180439371Y-97263931D01*
X180394525Y-97242334D01*
X180394520Y-97242332D01*
X180092324Y-97136590D01*
X180092322Y-97136589D01*
X179826135Y-97075834D01*
X179780189Y-97065347D01*
X179780185Y-97065346D01*
X179780176Y-97065345D01*
X179462045Y-97029500D01*
X179462041Y-97029500D01*
X179141879Y-97029500D01*
X179141874Y-97029500D01*
X178823743Y-97065345D01*
X178823731Y-97065347D01*
X178511597Y-97136589D01*
X178511595Y-97136590D01*
X178209400Y-97242332D01*
X177920949Y-97381243D01*
X177649860Y-97551580D01*
X177399547Y-97751197D01*
X177173157Y-97977587D01*
X176973540Y-98227900D01*
X176803203Y-98498989D01*
X176664292Y-98787440D01*
X176558550Y-99089635D01*
X176558549Y-99089637D01*
X176487307Y-99401771D01*
X176487305Y-99401783D01*
X176451460Y-99719914D01*
X176451460Y-100040085D01*
X176487305Y-100358216D01*
X176487307Y-100358228D01*
X176558549Y-100670362D01*
X176558550Y-100670364D01*
X176664292Y-100972559D01*
X176803203Y-101261010D01*
X176803205Y-101261013D01*
X176973541Y-101532101D01*
X177173158Y-101782413D01*
X177399547Y-102008802D01*
X177649859Y-102208419D01*
X177920947Y-102378755D01*
X178209402Y-102517668D01*
X178511597Y-102623410D01*
X178823731Y-102694653D01*
X179141875Y-102730499D01*
X179141876Y-102730500D01*
X179141879Y-102730500D01*
X179462044Y-102730500D01*
X179462044Y-102730499D01*
X179780189Y-102694653D01*
X180092323Y-102623410D01*
X180394518Y-102517668D01*
X180682973Y-102378755D01*
X180954061Y-102208419D01*
X181204373Y-102008802D01*
X181430762Y-101782413D01*
X181630379Y-101532101D01*
X181800715Y-101261013D01*
X181939628Y-100972558D01*
X182045370Y-100670363D01*
X182116613Y-100358229D01*
X182152460Y-100040081D01*
X182152460Y-99719919D01*
X182152459Y-99719914D01*
X186611399Y-99719914D01*
X186611399Y-100040085D01*
X186647244Y-100358216D01*
X186647246Y-100358228D01*
X186718488Y-100670362D01*
X186718489Y-100670364D01*
X186824231Y-100972559D01*
X186963142Y-101261010D01*
X186963144Y-101261013D01*
X187133480Y-101532101D01*
X187333097Y-101782413D01*
X187559486Y-102008802D01*
X187809798Y-102208419D01*
X188080886Y-102378755D01*
X188369341Y-102517668D01*
X188671536Y-102623410D01*
X188983670Y-102694653D01*
X189301814Y-102730499D01*
X189301815Y-102730500D01*
X189301818Y-102730500D01*
X189621983Y-102730500D01*
X189621983Y-102730499D01*
X189940128Y-102694653D01*
X190252262Y-102623410D01*
X190554457Y-102517668D01*
X190842912Y-102378755D01*
X191114000Y-102208419D01*
X191364312Y-102008802D01*
X191590701Y-101782413D01*
X191790318Y-101532101D01*
X191960654Y-101261013D01*
X192099567Y-100972558D01*
X192205309Y-100670363D01*
X192276552Y-100358229D01*
X192312399Y-100040081D01*
X192312399Y-99719919D01*
X192276552Y-99401771D01*
X192205309Y-99089637D01*
X192099567Y-98787442D01*
X191960654Y-98498987D01*
X191790318Y-98227899D01*
X191590701Y-97977587D01*
X191364312Y-97751198D01*
X191363435Y-97750499D01*
X191267971Y-97674369D01*
X191114000Y-97551581D01*
X190842912Y-97381245D01*
X190842909Y-97381243D01*
X190554458Y-97242332D01*
X190252263Y-97136590D01*
X190252261Y-97136589D01*
X189986074Y-97075834D01*
X189940128Y-97065347D01*
X189940124Y-97065346D01*
X189940115Y-97065345D01*
X189621984Y-97029500D01*
X189621980Y-97029500D01*
X189301818Y-97029500D01*
X189301813Y-97029500D01*
X188983682Y-97065345D01*
X188983670Y-97065347D01*
X188671536Y-97136589D01*
X188671534Y-97136590D01*
X188369339Y-97242332D01*
X188080888Y-97381243D01*
X187809799Y-97551580D01*
X187559486Y-97751197D01*
X187333096Y-97977587D01*
X187133479Y-98227900D01*
X186963142Y-98498989D01*
X186824231Y-98787440D01*
X186718489Y-99089635D01*
X186718488Y-99089637D01*
X186647246Y-99401771D01*
X186647244Y-99401783D01*
X186611399Y-99719914D01*
X182152459Y-99719914D01*
X182116613Y-99401771D01*
X182045370Y-99089637D01*
X181939628Y-98787442D01*
X181800715Y-98498987D01*
X181630379Y-98227899D01*
X181482036Y-98041883D01*
X181455628Y-97977197D01*
X181468385Y-97908502D01*
X181516255Y-97857608D01*
X181584042Y-97840674D01*
X181637439Y-97855214D01*
X181652957Y-97863509D01*
X181652965Y-97863513D01*
X181960219Y-97990782D01*
X182278468Y-98087321D01*
X182278474Y-98087322D01*
X182278477Y-98087323D01*
X182278488Y-98087326D01*
X182483013Y-98128007D01*
X182604647Y-98152202D01*
X182935614Y-98184800D01*
X182935617Y-98184800D01*
X183268181Y-98184800D01*
X183268184Y-98184800D01*
X183599151Y-98152202D01*
X183760599Y-98120087D01*
X183925309Y-98087326D01*
X183925320Y-98087323D01*
X183925320Y-98087322D01*
X183925330Y-98087321D01*
X184243579Y-97990782D01*
X184550833Y-97863513D01*
X184844133Y-97706741D01*
X185120654Y-97521976D01*
X185377733Y-97310996D01*
X185612895Y-97075834D01*
X185823875Y-96818755D01*
X186008640Y-96542234D01*
X186165412Y-96248934D01*
X186292681Y-95941680D01*
X186389220Y-95623431D01*
X186389222Y-95623421D01*
X186389225Y-95623410D01*
X186421986Y-95458700D01*
X186454101Y-95297252D01*
X186486699Y-94966285D01*
X186486699Y-94633715D01*
X186454101Y-94302748D01*
X186429906Y-94181114D01*
X186389225Y-93976589D01*
X186389222Y-93976578D01*
X186389221Y-93976575D01*
X186389220Y-93976569D01*
X186292681Y-93658320D01*
X186165412Y-93351066D01*
X186130074Y-93284954D01*
X186008646Y-93057777D01*
X186008645Y-93057775D01*
X186008640Y-93057766D01*
X185823875Y-92781245D01*
X185612895Y-92524166D01*
X185612894Y-92524165D01*
X185612890Y-92524160D01*
X185377738Y-92289008D01*
X185120659Y-92078028D01*
X185120658Y-92078027D01*
X185120654Y-92078024D01*
X184844133Y-91893259D01*
X184844128Y-91893256D01*
X184844121Y-91893252D01*
X184550840Y-91736490D01*
X184550835Y-91736488D01*
X184550830Y-91736486D01*
X184408957Y-91677720D01*
X184243580Y-91609218D01*
X183925320Y-91512676D01*
X183925309Y-91512673D01*
X183599157Y-91447799D01*
X183599140Y-91447796D01*
X183348863Y-91423146D01*
X183268184Y-91415200D01*
X182935614Y-91415200D01*
X182860997Y-91422549D01*
X182604657Y-91447796D01*
X182604640Y-91447799D01*
X182278488Y-91512673D01*
X182278477Y-91512676D01*
X181960217Y-91609218D01*
X181658906Y-91734026D01*
X181652965Y-91736487D01*
X181637435Y-91744788D01*
X181569032Y-91759028D01*
X181503788Y-91734026D01*
X181462419Y-91677720D01*
X181458058Y-91607987D01*
X181482035Y-91558117D01*
X181630379Y-91372101D01*
X181800715Y-91101013D01*
X181939628Y-90812558D01*
X182045370Y-90510363D01*
X182116613Y-90198229D01*
X182152460Y-89880081D01*
X182152460Y-89559919D01*
X182152459Y-89559914D01*
X186611399Y-89559914D01*
X186611399Y-89880085D01*
X186647244Y-90198216D01*
X186647246Y-90198228D01*
X186718488Y-90510362D01*
X186718489Y-90510364D01*
X186824231Y-90812559D01*
X186963142Y-91101010D01*
X186963144Y-91101013D01*
X187133480Y-91372101D01*
X187333097Y-91622413D01*
X187559486Y-91848802D01*
X187809798Y-92048419D01*
X188080886Y-92218755D01*
X188369341Y-92357668D01*
X188671536Y-92463410D01*
X188983670Y-92534653D01*
X189301814Y-92570499D01*
X189301815Y-92570500D01*
X189301818Y-92570500D01*
X189621983Y-92570500D01*
X189621983Y-92570499D01*
X189940128Y-92534653D01*
X190252262Y-92463410D01*
X190554457Y-92357668D01*
X190842912Y-92218755D01*
X191114000Y-92048419D01*
X191364312Y-91848802D01*
X191590701Y-91622413D01*
X191790318Y-91372101D01*
X191960654Y-91101013D01*
X192099567Y-90812558D01*
X192205309Y-90510363D01*
X192276552Y-90198229D01*
X192312399Y-89880081D01*
X192312399Y-89559919D01*
X192276552Y-89241771D01*
X192205309Y-88929637D01*
X192099567Y-88627442D01*
X191960654Y-88338987D01*
X191790318Y-88067899D01*
X191590701Y-87817587D01*
X191364312Y-87591198D01*
X191114000Y-87391581D01*
X190842912Y-87221245D01*
X190842909Y-87221243D01*
X190554458Y-87082332D01*
X190252263Y-86976590D01*
X190252261Y-86976589D01*
X190011370Y-86921607D01*
X189940128Y-86905347D01*
X189940124Y-86905346D01*
X189940115Y-86905345D01*
X189621984Y-86869500D01*
X189621980Y-86869500D01*
X189301818Y-86869500D01*
X189301813Y-86869500D01*
X188983682Y-86905345D01*
X188983670Y-86905347D01*
X188671536Y-86976589D01*
X188671534Y-86976590D01*
X188369339Y-87082332D01*
X188080888Y-87221243D01*
X187809799Y-87391580D01*
X187559486Y-87591197D01*
X187333096Y-87817587D01*
X187133479Y-88067900D01*
X186963142Y-88338989D01*
X186824231Y-88627440D01*
X186718489Y-88929635D01*
X186718488Y-88929637D01*
X186647246Y-89241771D01*
X186647244Y-89241783D01*
X186611399Y-89559914D01*
X182152459Y-89559914D01*
X182116613Y-89241771D01*
X182045370Y-88929637D01*
X181939628Y-88627442D01*
X181800715Y-88338987D01*
X181630379Y-88067899D01*
X181430762Y-87817587D01*
X181204373Y-87591198D01*
X180954061Y-87391581D01*
X180682973Y-87221245D01*
X180682970Y-87221243D01*
X180394519Y-87082332D01*
X180092324Y-86976590D01*
X180092322Y-86976589D01*
X179851431Y-86921607D01*
X179780189Y-86905347D01*
X179780185Y-86905346D01*
X179780176Y-86905345D01*
X179462045Y-86869500D01*
X179462041Y-86869500D01*
X179141879Y-86869500D01*
X179141874Y-86869500D01*
X178823743Y-86905345D01*
X178823731Y-86905347D01*
X178511597Y-86976589D01*
X178511595Y-86976590D01*
X178209400Y-87082332D01*
X177920949Y-87221243D01*
X177649860Y-87391580D01*
X177399547Y-87591197D01*
X177173157Y-87817587D01*
X176973540Y-88067900D01*
X176803203Y-88338989D01*
X176664292Y-88627440D01*
X176558550Y-88929635D01*
X176558549Y-88929637D01*
X176487307Y-89241771D01*
X176487305Y-89241783D01*
X176451460Y-89559914D01*
X157073505Y-89559914D01*
X157166664Y-89443096D01*
X157346382Y-89157077D01*
X157492946Y-88852734D01*
X157604513Y-88533895D01*
X157679679Y-88204569D01*
X157717500Y-87868898D01*
X157717500Y-87531102D01*
X157679679Y-87195431D01*
X157604513Y-86866105D01*
X157492946Y-86547266D01*
X157346382Y-86242923D01*
X157166664Y-85956904D01*
X156956052Y-85692805D01*
X156717195Y-85453948D01*
X156684865Y-85428166D01*
X156650123Y-85400460D01*
X156453096Y-85243336D01*
X156167077Y-85063618D01*
X156167074Y-85063616D01*
X155862741Y-84917057D01*
X155862727Y-84917051D01*
X155543906Y-84805490D01*
X155543894Y-84805486D01*
X155214572Y-84730321D01*
X155214556Y-84730319D01*
X154878902Y-84692500D01*
X154878898Y-84692500D01*
X154541102Y-84692500D01*
X154541097Y-84692500D01*
X154205443Y-84730319D01*
X154205427Y-84730321D01*
X153876105Y-84805486D01*
X153876093Y-84805490D01*
X153557272Y-84917051D01*
X153557258Y-84917057D01*
X153252925Y-85063616D01*
X152966905Y-85243335D01*
X152702805Y-85453947D01*
X152654676Y-85502076D01*
X152593353Y-85535560D01*
X152523661Y-85530575D01*
X152467728Y-85488703D01*
X152443312Y-85423239D01*
X152442997Y-85414081D01*
X152452474Y-82003496D01*
X163485100Y-82003496D01*
X163485100Y-82330903D01*
X163521753Y-82656218D01*
X163521756Y-82656232D01*
X163594608Y-82975418D01*
X163594609Y-82975420D01*
X163702740Y-83284443D01*
X163844789Y-83579411D01*
X163844791Y-83579414D01*
X164018976Y-83856627D01*
X164223103Y-84112594D01*
X164454606Y-84344097D01*
X164710573Y-84548224D01*
X164987786Y-84722409D01*
X165282758Y-84864460D01*
X165591781Y-84972591D01*
X165910967Y-85045444D01*
X165910976Y-85045445D01*
X165910981Y-85045446D01*
X166127857Y-85069881D01*
X166236297Y-85082099D01*
X166236300Y-85082100D01*
X166236303Y-85082100D01*
X166563700Y-85082100D01*
X166563701Y-85082099D01*
X166729963Y-85063366D01*
X166889018Y-85045446D01*
X166889021Y-85045445D01*
X166889033Y-85045444D01*
X167208219Y-84972591D01*
X167517242Y-84864460D01*
X167812214Y-84722409D01*
X168089427Y-84548224D01*
X168345394Y-84344097D01*
X168576897Y-84112594D01*
X168781024Y-83856627D01*
X168955209Y-83579414D01*
X169097260Y-83284442D01*
X169204250Y-82978681D01*
X174849500Y-82978681D01*
X174849500Y-83321318D01*
X174887858Y-83661768D01*
X174887861Y-83661782D01*
X174964102Y-83995816D01*
X174964103Y-83995818D01*
X175077264Y-84319216D01*
X175225922Y-84627907D01*
X175225924Y-84627910D01*
X175408211Y-84918018D01*
X175621834Y-85185893D01*
X175864107Y-85428166D01*
X176131982Y-85641789D01*
X176422090Y-85824076D01*
X176730785Y-85972736D01*
X177054183Y-86085897D01*
X177388217Y-86162139D01*
X177388226Y-86162140D01*
X177388231Y-86162141D01*
X177615197Y-86187713D01*
X177728682Y-86200499D01*
X177728685Y-86200500D01*
X177728688Y-86200500D01*
X178071315Y-86200500D01*
X178071316Y-86200499D01*
X178245311Y-86180895D01*
X178411768Y-86162141D01*
X178411771Y-86162140D01*
X178411783Y-86162139D01*
X178745817Y-86085897D01*
X179069215Y-85972736D01*
X179377910Y-85824076D01*
X179668018Y-85641789D01*
X179935893Y-85428166D01*
X180178166Y-85185893D01*
X180391789Y-84918018D01*
X180574076Y-84627910D01*
X180722736Y-84319215D01*
X180835897Y-83995817D01*
X180912139Y-83661783D01*
X180950500Y-83321312D01*
X180950500Y-82978688D01*
X180950499Y-82978681D01*
X185049500Y-82978681D01*
X185049500Y-83321318D01*
X185087858Y-83661768D01*
X185087861Y-83661782D01*
X185164102Y-83995816D01*
X185164103Y-83995818D01*
X185277264Y-84319216D01*
X185425922Y-84627907D01*
X185425924Y-84627910D01*
X185608211Y-84918018D01*
X185821834Y-85185893D01*
X186064107Y-85428166D01*
X186331982Y-85641789D01*
X186622090Y-85824076D01*
X186930785Y-85972736D01*
X187254183Y-86085897D01*
X187588217Y-86162139D01*
X187588226Y-86162140D01*
X187588231Y-86162141D01*
X187815197Y-86187713D01*
X187928682Y-86200499D01*
X187928685Y-86200500D01*
X187928688Y-86200500D01*
X188271315Y-86200500D01*
X188271316Y-86200499D01*
X188445311Y-86180895D01*
X188611768Y-86162141D01*
X188611771Y-86162140D01*
X188611783Y-86162139D01*
X188945817Y-86085897D01*
X189269215Y-85972736D01*
X189577910Y-85824076D01*
X189868018Y-85641789D01*
X190135893Y-85428166D01*
X190378166Y-85185893D01*
X190591789Y-84918018D01*
X190774076Y-84627910D01*
X190922736Y-84319215D01*
X191035897Y-83995817D01*
X191112139Y-83661783D01*
X191150500Y-83321312D01*
X191150500Y-82978688D01*
X191114169Y-82656232D01*
X191112141Y-82638231D01*
X191112140Y-82638226D01*
X191112139Y-82638217D01*
X191035897Y-82304183D01*
X190922736Y-81980785D01*
X190774076Y-81672090D01*
X190591789Y-81381982D01*
X190378166Y-81114107D01*
X190135893Y-80871834D01*
X189868018Y-80658211D01*
X189577910Y-80475924D01*
X189577907Y-80475922D01*
X189269216Y-80327264D01*
X188945818Y-80214103D01*
X188945816Y-80214102D01*
X188688024Y-80155262D01*
X188611783Y-80137861D01*
X188611780Y-80137860D01*
X188611768Y-80137858D01*
X188271318Y-80099500D01*
X188271312Y-80099500D01*
X187928688Y-80099500D01*
X187928681Y-80099500D01*
X187588231Y-80137858D01*
X187588217Y-80137861D01*
X187254183Y-80214102D01*
X187254181Y-80214103D01*
X186930783Y-80327264D01*
X186622092Y-80475922D01*
X186331983Y-80658210D01*
X186064107Y-80871833D01*
X185821833Y-81114107D01*
X185608210Y-81381983D01*
X185425922Y-81672092D01*
X185277264Y-81980783D01*
X185164103Y-82304181D01*
X185164102Y-82304183D01*
X185087861Y-82638217D01*
X185087858Y-82638231D01*
X185049500Y-82978681D01*
X180950499Y-82978681D01*
X180914169Y-82656232D01*
X180912141Y-82638231D01*
X180912140Y-82638226D01*
X180912139Y-82638217D01*
X180835897Y-82304183D01*
X180722736Y-81980785D01*
X180574076Y-81672090D01*
X180391789Y-81381982D01*
X180178166Y-81114107D01*
X179935893Y-80871834D01*
X179668018Y-80658211D01*
X179377910Y-80475924D01*
X179377907Y-80475922D01*
X179069216Y-80327264D01*
X178745818Y-80214103D01*
X178745816Y-80214102D01*
X178488024Y-80155262D01*
X178411783Y-80137861D01*
X178411780Y-80137860D01*
X178411768Y-80137858D01*
X178071318Y-80099500D01*
X178071312Y-80099500D01*
X177728688Y-80099500D01*
X177728681Y-80099500D01*
X177388231Y-80137858D01*
X177388217Y-80137861D01*
X177054183Y-80214102D01*
X177054181Y-80214103D01*
X176730783Y-80327264D01*
X176422092Y-80475922D01*
X176131983Y-80658210D01*
X175864107Y-80871833D01*
X175621833Y-81114107D01*
X175408210Y-81381983D01*
X175225922Y-81672092D01*
X175077264Y-81980783D01*
X174964103Y-82304181D01*
X174964102Y-82304183D01*
X174887861Y-82638217D01*
X174887858Y-82638231D01*
X174849500Y-82978681D01*
X169204250Y-82978681D01*
X169205391Y-82975419D01*
X169278244Y-82656233D01*
X169280273Y-82638231D01*
X169314899Y-82330903D01*
X169314900Y-82330899D01*
X169314900Y-82003500D01*
X169314899Y-82003496D01*
X169278246Y-81678181D01*
X169278245Y-81678176D01*
X169278244Y-81678167D01*
X169205391Y-81358981D01*
X169097260Y-81049958D01*
X168955209Y-80754986D01*
X168781024Y-80477773D01*
X168576897Y-80221806D01*
X168345394Y-79990303D01*
X168089427Y-79786176D01*
X167812214Y-79611991D01*
X167812211Y-79611989D01*
X167517243Y-79469940D01*
X167208220Y-79361809D01*
X167208218Y-79361808D01*
X166961885Y-79305584D01*
X166889033Y-79288956D01*
X166889030Y-79288955D01*
X166889018Y-79288953D01*
X166563703Y-79252300D01*
X166563697Y-79252300D01*
X166236303Y-79252300D01*
X166236296Y-79252300D01*
X165910981Y-79288953D01*
X165910967Y-79288956D01*
X165591781Y-79361808D01*
X165591779Y-79361809D01*
X165282756Y-79469940D01*
X164987788Y-79611989D01*
X164710574Y-79786175D01*
X164454606Y-79990302D01*
X164223102Y-80221806D01*
X164018975Y-80477774D01*
X163844789Y-80754988D01*
X163702740Y-81049956D01*
X163594609Y-81358979D01*
X163594608Y-81358981D01*
X163521756Y-81678167D01*
X163521753Y-81678181D01*
X163485100Y-82003496D01*
X152452474Y-82003496D01*
X152548990Y-47270555D01*
X164985600Y-47270555D01*
X164985600Y-47982800D01*
X165788742Y-47982800D01*
X165764979Y-48040169D01*
X165739600Y-48167756D01*
X165739600Y-48297844D01*
X165764979Y-48425431D01*
X165788742Y-48482800D01*
X164985600Y-48482800D01*
X164985600Y-49195044D01*
X164992001Y-49254572D01*
X164992003Y-49254579D01*
X165042245Y-49389286D01*
X165042249Y-49389293D01*
X165128409Y-49504387D01*
X165128412Y-49504390D01*
X165243506Y-49590550D01*
X165243513Y-49590554D01*
X165378220Y-49640796D01*
X165378227Y-49640798D01*
X165437755Y-49647199D01*
X165437772Y-49647200D01*
X166150000Y-49647200D01*
X166150000Y-48844058D01*
X166207369Y-48867821D01*
X166334956Y-48893200D01*
X166465044Y-48893200D01*
X166592631Y-48867821D01*
X166650000Y-48844058D01*
X166650000Y-49647200D01*
X167362228Y-49647200D01*
X167362244Y-49647199D01*
X167421772Y-49640798D01*
X167421779Y-49640796D01*
X167556486Y-49590554D01*
X167556493Y-49590550D01*
X167671587Y-49504390D01*
X167671590Y-49504387D01*
X167757750Y-49389293D01*
X167757754Y-49389286D01*
X167807996Y-49254579D01*
X167807998Y-49254572D01*
X167814399Y-49195044D01*
X167814400Y-49195027D01*
X167814400Y-48482800D01*
X167011258Y-48482800D01*
X167035021Y-48425431D01*
X167060400Y-48297844D01*
X167060400Y-48167756D01*
X167035021Y-48040169D01*
X167011258Y-47982800D01*
X167814400Y-47982800D01*
X167814400Y-47270572D01*
X167814399Y-47270555D01*
X167807998Y-47211027D01*
X167807996Y-47211020D01*
X167757754Y-47076313D01*
X167757750Y-47076306D01*
X167671590Y-46961212D01*
X167671587Y-46961209D01*
X167556493Y-46875049D01*
X167556486Y-46875045D01*
X167421779Y-46824803D01*
X167421772Y-46824801D01*
X167362244Y-46818400D01*
X166650000Y-46818400D01*
X166650000Y-47621541D01*
X166592631Y-47597779D01*
X166465044Y-47572400D01*
X166334956Y-47572400D01*
X166207369Y-47597779D01*
X166150000Y-47621541D01*
X166150000Y-46818400D01*
X165437755Y-46818400D01*
X165378227Y-46824801D01*
X165378220Y-46824803D01*
X165243513Y-46875045D01*
X165243506Y-46875049D01*
X165128412Y-46961209D01*
X165128409Y-46961212D01*
X165042249Y-47076306D01*
X165042245Y-47076313D01*
X164992003Y-47211020D01*
X164992001Y-47211027D01*
X164985600Y-47270555D01*
X152548990Y-47270555D01*
X152556544Y-44552155D01*
X176350000Y-44552155D01*
X176350000Y-45400000D01*
X177245879Y-45400000D01*
X177226901Y-45445818D01*
X177200000Y-45581056D01*
X177200000Y-45718944D01*
X177226901Y-45854182D01*
X177245879Y-45900000D01*
X176350000Y-45900000D01*
X176350000Y-46747844D01*
X176356401Y-46807372D01*
X176356403Y-46807379D01*
X176406645Y-46942086D01*
X176406649Y-46942093D01*
X176492809Y-47057187D01*
X176492812Y-47057190D01*
X176607906Y-47143350D01*
X176607913Y-47143354D01*
X176742620Y-47193596D01*
X176742627Y-47193598D01*
X176802155Y-47199999D01*
X176802172Y-47200000D01*
X177650000Y-47200000D01*
X177650000Y-46304120D01*
X177695818Y-46323099D01*
X177831056Y-46350000D01*
X177968944Y-46350000D01*
X178104182Y-46323099D01*
X178150000Y-46304120D01*
X178150000Y-47200000D01*
X178997828Y-47200000D01*
X178997844Y-47199999D01*
X179057372Y-47193598D01*
X179057379Y-47193596D01*
X179192086Y-47143354D01*
X179192093Y-47143350D01*
X179307187Y-47057190D01*
X179307190Y-47057187D01*
X179393350Y-46942093D01*
X179393354Y-46942086D01*
X179439687Y-46817862D01*
X179439687Y-46817861D01*
X179443597Y-46807376D01*
X179443598Y-46807372D01*
X179449999Y-46747844D01*
X179450000Y-46747827D01*
X179450000Y-45900000D01*
X178554121Y-45900000D01*
X178573099Y-45854182D01*
X178600000Y-45718944D01*
X178600000Y-45581056D01*
X178589448Y-45528006D01*
X186550000Y-45528006D01*
X186550000Y-45771993D01*
X186588165Y-46012959D01*
X186663560Y-46244998D01*
X186774323Y-46462380D01*
X186841543Y-46554901D01*
X186841544Y-46554902D01*
X187460690Y-45935756D01*
X187479668Y-45981574D01*
X187556274Y-46096224D01*
X187653776Y-46193726D01*
X187768426Y-46270332D01*
X187814242Y-46289309D01*
X187195096Y-46908454D01*
X187195097Y-46908456D01*
X187287619Y-46975676D01*
X187505001Y-47086439D01*
X187737040Y-47161834D01*
X187978007Y-47200000D01*
X188221993Y-47200000D01*
X188462959Y-47161834D01*
X188694998Y-47086439D01*
X188912377Y-46975678D01*
X189004901Y-46908454D01*
X189004902Y-46908454D01*
X188385757Y-46289309D01*
X188431574Y-46270332D01*
X188546224Y-46193726D01*
X188643726Y-46096224D01*
X188720332Y-45981574D01*
X188739309Y-45935757D01*
X189358454Y-46554902D01*
X189358454Y-46554901D01*
X189425678Y-46462377D01*
X189536439Y-46244998D01*
X189611834Y-46012959D01*
X189650000Y-45771993D01*
X189650000Y-45528006D01*
X189611834Y-45287040D01*
X189536439Y-45055001D01*
X189425676Y-44837619D01*
X189358456Y-44745097D01*
X189358454Y-44745096D01*
X188739309Y-45364241D01*
X188720332Y-45318426D01*
X188643726Y-45203776D01*
X188546224Y-45106274D01*
X188431574Y-45029668D01*
X188385756Y-45010689D01*
X189004902Y-44391544D01*
X189004901Y-44391543D01*
X188912380Y-44324323D01*
X188694998Y-44213560D01*
X188462959Y-44138165D01*
X188221993Y-44100000D01*
X187978007Y-44100000D01*
X187737040Y-44138165D01*
X187505001Y-44213560D01*
X187287626Y-44324319D01*
X187195097Y-44391544D01*
X187814243Y-45010689D01*
X187768426Y-45029668D01*
X187653776Y-45106274D01*
X187556274Y-45203776D01*
X187479668Y-45318426D01*
X187460690Y-45364243D01*
X186841544Y-44745097D01*
X186774319Y-44837626D01*
X186663560Y-45055001D01*
X186588165Y-45287040D01*
X186550000Y-45528006D01*
X178589448Y-45528006D01*
X178573099Y-45445818D01*
X178554121Y-45400000D01*
X179450000Y-45400000D01*
X179450000Y-44552172D01*
X179449999Y-44552155D01*
X179443598Y-44492627D01*
X179443597Y-44492622D01*
X179439687Y-44482139D01*
X179439686Y-44482138D01*
X179439686Y-44482136D01*
X179393354Y-44357913D01*
X179393350Y-44357906D01*
X179307190Y-44242812D01*
X179307187Y-44242809D01*
X179192093Y-44156649D01*
X179192086Y-44156645D01*
X179057379Y-44106403D01*
X179057372Y-44106401D01*
X178997844Y-44100000D01*
X178150000Y-44100000D01*
X178150000Y-44995879D01*
X178104182Y-44976901D01*
X177968944Y-44950000D01*
X177831056Y-44950000D01*
X177695818Y-44976901D01*
X177650000Y-44995879D01*
X177650000Y-44100000D01*
X176802155Y-44100000D01*
X176742627Y-44106401D01*
X176742620Y-44106403D01*
X176607913Y-44156645D01*
X176607906Y-44156649D01*
X176492812Y-44242809D01*
X176492809Y-44242812D01*
X176406649Y-44357906D01*
X176406645Y-44357913D01*
X176356403Y-44492620D01*
X176356401Y-44492627D01*
X176350000Y-44552155D01*
X152556544Y-44552155D01*
X152562437Y-42431391D01*
X153203000Y-42431391D01*
X153203000Y-42668608D01*
X153240106Y-42902890D01*
X153313409Y-43128491D01*
X153421098Y-43339840D01*
X153482329Y-43424116D01*
X153482329Y-43424117D01*
X154092503Y-42813943D01*
X154114925Y-42868074D01*
X154188412Y-42978056D01*
X154281944Y-43071588D01*
X154391926Y-43145075D01*
X154446055Y-43167496D01*
X153835881Y-43777669D01*
X153920159Y-43838901D01*
X154131508Y-43946590D01*
X154357109Y-44019893D01*
X154591392Y-44057000D01*
X154828608Y-44057000D01*
X155062890Y-44019893D01*
X155288491Y-43946590D01*
X155499839Y-43838902D01*
X155584116Y-43777669D01*
X155584117Y-43777669D01*
X154973944Y-43167496D01*
X155028074Y-43145075D01*
X155138056Y-43071588D01*
X155231588Y-42978056D01*
X155305075Y-42868074D01*
X155327496Y-42813944D01*
X155937669Y-43424117D01*
X155937669Y-43424116D01*
X155998902Y-43339839D01*
X156106590Y-43128491D01*
X156179893Y-42902890D01*
X156217000Y-42668608D01*
X156217000Y-42431391D01*
X156179893Y-42197109D01*
X156106590Y-41971508D01*
X155998901Y-41760159D01*
X155937669Y-41675882D01*
X155937669Y-41675881D01*
X155327496Y-42286054D01*
X155305075Y-42231926D01*
X155231588Y-42121944D01*
X155138056Y-42028412D01*
X155028074Y-41954925D01*
X154973942Y-41932502D01*
X155584117Y-41322329D01*
X155499840Y-41261098D01*
X155288491Y-41153409D01*
X155062890Y-41080106D01*
X154828608Y-41043000D01*
X154591392Y-41043000D01*
X154357109Y-41080106D01*
X154131508Y-41153409D01*
X153920156Y-41261100D01*
X153835882Y-41322328D01*
X153835881Y-41322329D01*
X154446055Y-41932503D01*
X154391926Y-41954925D01*
X154281944Y-42028412D01*
X154188412Y-42121944D01*
X154114925Y-42231926D01*
X154092503Y-42286055D01*
X153482329Y-41675881D01*
X153482328Y-41675882D01*
X153421100Y-41760156D01*
X153313409Y-41971508D01*
X153240106Y-42197109D01*
X153203000Y-42431391D01*
X152562437Y-42431391D01*
X152570805Y-39419914D01*
X176451460Y-39419914D01*
X176451460Y-39740085D01*
X176487305Y-40058216D01*
X176487307Y-40058228D01*
X176558549Y-40370362D01*
X176558550Y-40370364D01*
X176664292Y-40672559D01*
X176803203Y-40961010D01*
X176803205Y-40961013D01*
X176973541Y-41232101D01*
X177173158Y-41482413D01*
X177399547Y-41708802D01*
X177649859Y-41908419D01*
X177920947Y-42078755D01*
X178209402Y-42217668D01*
X178511597Y-42323410D01*
X178823731Y-42394653D01*
X179141875Y-42430499D01*
X179141876Y-42430500D01*
X179141879Y-42430500D01*
X179462044Y-42430500D01*
X179462044Y-42430499D01*
X179780189Y-42394653D01*
X180092323Y-42323410D01*
X180394518Y-42217668D01*
X180682973Y-42078755D01*
X180954061Y-41908419D01*
X181204373Y-41708802D01*
X181430762Y-41482413D01*
X181630379Y-41232101D01*
X181800715Y-40961013D01*
X181939628Y-40672558D01*
X182045370Y-40370363D01*
X182116613Y-40058229D01*
X182152460Y-39740081D01*
X182152460Y-39419919D01*
X182152459Y-39419914D01*
X186611399Y-39419914D01*
X186611399Y-39740085D01*
X186647244Y-40058216D01*
X186647246Y-40058228D01*
X186718488Y-40370362D01*
X186718489Y-40370364D01*
X186824231Y-40672559D01*
X186963142Y-40961010D01*
X186963144Y-40961013D01*
X187133480Y-41232101D01*
X187333097Y-41482413D01*
X187559486Y-41708802D01*
X187809798Y-41908419D01*
X188080886Y-42078755D01*
X188369341Y-42217668D01*
X188671536Y-42323410D01*
X188983670Y-42394653D01*
X189301814Y-42430499D01*
X189301815Y-42430500D01*
X189301818Y-42430500D01*
X189621983Y-42430500D01*
X189621983Y-42430499D01*
X189940128Y-42394653D01*
X190252262Y-42323410D01*
X190554457Y-42217668D01*
X190842912Y-42078755D01*
X191114000Y-41908419D01*
X191364312Y-41708802D01*
X191590701Y-41482413D01*
X191790318Y-41232101D01*
X191960654Y-40961013D01*
X192099567Y-40672558D01*
X192205309Y-40370363D01*
X192276552Y-40058229D01*
X192312399Y-39740081D01*
X192312399Y-39419919D01*
X192276552Y-39101771D01*
X192205309Y-38789637D01*
X192099567Y-38487442D01*
X191960654Y-38198987D01*
X191790318Y-37927899D01*
X191590701Y-37677587D01*
X191364312Y-37451198D01*
X191114000Y-37251581D01*
X190842912Y-37081245D01*
X190842909Y-37081243D01*
X190554458Y-36942332D01*
X190252263Y-36836590D01*
X190252261Y-36836589D01*
X190011370Y-36781607D01*
X189940128Y-36765347D01*
X189940124Y-36765346D01*
X189940115Y-36765345D01*
X189621984Y-36729500D01*
X189621980Y-36729500D01*
X189301818Y-36729500D01*
X189301813Y-36729500D01*
X188983682Y-36765345D01*
X188983670Y-36765347D01*
X188671536Y-36836589D01*
X188671534Y-36836590D01*
X188369339Y-36942332D01*
X188080888Y-37081243D01*
X187809799Y-37251580D01*
X187559486Y-37451197D01*
X187333096Y-37677587D01*
X187133479Y-37927900D01*
X186963142Y-38198989D01*
X186824231Y-38487440D01*
X186718489Y-38789635D01*
X186718488Y-38789637D01*
X186647246Y-39101771D01*
X186647244Y-39101783D01*
X186611399Y-39419914D01*
X182152459Y-39419914D01*
X182116613Y-39101771D01*
X182045370Y-38789637D01*
X181939628Y-38487442D01*
X181800715Y-38198987D01*
X181630379Y-37927899D01*
X181430762Y-37677587D01*
X181204373Y-37451198D01*
X180954061Y-37251581D01*
X180682973Y-37081245D01*
X180682970Y-37081243D01*
X180394519Y-36942332D01*
X180092324Y-36836590D01*
X180092322Y-36836589D01*
X179851431Y-36781607D01*
X179780189Y-36765347D01*
X179780185Y-36765346D01*
X179780176Y-36765345D01*
X179462045Y-36729500D01*
X179462041Y-36729500D01*
X179141879Y-36729500D01*
X179141874Y-36729500D01*
X178823743Y-36765345D01*
X178823731Y-36765347D01*
X178511597Y-36836589D01*
X178511595Y-36836590D01*
X178209400Y-36942332D01*
X177920949Y-37081243D01*
X177649860Y-37251580D01*
X177399547Y-37451197D01*
X177173157Y-37677587D01*
X176973540Y-37927900D01*
X176803203Y-38198989D01*
X176664292Y-38487440D01*
X176558550Y-38789635D01*
X176558549Y-38789637D01*
X176487307Y-39101771D01*
X176487305Y-39101783D01*
X176451460Y-39419914D01*
X152570805Y-39419914D01*
X152587249Y-33502155D01*
X167300000Y-33502155D01*
X167300000Y-34250000D01*
X167987639Y-34250000D01*
X167980743Y-34266649D01*
X167950000Y-34421207D01*
X167950000Y-34578793D01*
X167980743Y-34733351D01*
X167987639Y-34750000D01*
X167300000Y-34750000D01*
X167300000Y-35497844D01*
X167306401Y-35557372D01*
X167306403Y-35557379D01*
X167356645Y-35692086D01*
X167356649Y-35692093D01*
X167442809Y-35807187D01*
X167442812Y-35807190D01*
X167557906Y-35893350D01*
X167557913Y-35893354D01*
X167692620Y-35943596D01*
X167692627Y-35943598D01*
X167752155Y-35949999D01*
X167752172Y-35950000D01*
X168500000Y-35950000D01*
X168500000Y-35262360D01*
X168516649Y-35269257D01*
X168671207Y-35300000D01*
X168828793Y-35300000D01*
X168983351Y-35269257D01*
X169000000Y-35262360D01*
X169000000Y-35950000D01*
X169747828Y-35950000D01*
X169747844Y-35949999D01*
X169807372Y-35943598D01*
X169807379Y-35943596D01*
X169942086Y-35893354D01*
X169942089Y-35893352D01*
X169999756Y-35850183D01*
X169999757Y-35850182D01*
X170057190Y-35807186D01*
X170143350Y-35692093D01*
X170143354Y-35692086D01*
X170193596Y-35557379D01*
X170193598Y-35557372D01*
X170199999Y-35497844D01*
X170200000Y-35497827D01*
X170200000Y-34750000D01*
X169512361Y-34750000D01*
X169519257Y-34733351D01*
X169550000Y-34578793D01*
X169550000Y-34421207D01*
X169541105Y-34376488D01*
X181217599Y-34376488D01*
X181217599Y-34623511D01*
X181249839Y-34868388D01*
X181249841Y-34868399D01*
X181313769Y-35106986D01*
X181408293Y-35335186D01*
X181408297Y-35335196D01*
X181531798Y-35549106D01*
X181604495Y-35643847D01*
X181604496Y-35643847D01*
X182129811Y-35118532D01*
X182224728Y-35249175D01*
X182352724Y-35377171D01*
X182483365Y-35472086D01*
X181958050Y-35997401D01*
X182052796Y-36070103D01*
X182266702Y-36193601D01*
X182266712Y-36193605D01*
X182494912Y-36288129D01*
X182733499Y-36352057D01*
X182733510Y-36352059D01*
X182978387Y-36384299D01*
X182978402Y-36384300D01*
X183225396Y-36384300D01*
X183225410Y-36384299D01*
X183470287Y-36352059D01*
X183470298Y-36352057D01*
X183708885Y-36288129D01*
X183937085Y-36193605D01*
X183937095Y-36193601D01*
X184150999Y-36070103D01*
X184151016Y-36070092D01*
X184245746Y-35997402D01*
X184245746Y-35997400D01*
X183720432Y-35472086D01*
X183851074Y-35377171D01*
X183979070Y-35249175D01*
X184073985Y-35118533D01*
X184599299Y-35643847D01*
X184599301Y-35643847D01*
X184671991Y-35549117D01*
X184672002Y-35549100D01*
X184795500Y-35335196D01*
X184795504Y-35335186D01*
X184890028Y-35106986D01*
X184953956Y-34868399D01*
X184953958Y-34868388D01*
X184986198Y-34623511D01*
X184986199Y-34623497D01*
X184986199Y-34376502D01*
X184986198Y-34376488D01*
X184953958Y-34131611D01*
X184953956Y-34131600D01*
X184890028Y-33893013D01*
X184795504Y-33664813D01*
X184795500Y-33664803D01*
X184672002Y-33450897D01*
X184599300Y-33356151D01*
X184073985Y-33881465D01*
X183979070Y-33750825D01*
X183851074Y-33622829D01*
X183720431Y-33527912D01*
X184245746Y-33002597D01*
X184245746Y-33002596D01*
X184151005Y-32929899D01*
X183937095Y-32806398D01*
X183937085Y-32806394D01*
X183708885Y-32711870D01*
X183470298Y-32647942D01*
X183470287Y-32647940D01*
X183225410Y-32615700D01*
X182978387Y-32615700D01*
X182733510Y-32647940D01*
X182733499Y-32647942D01*
X182494912Y-32711870D01*
X182266712Y-32806394D01*
X182266702Y-32806398D01*
X182052801Y-32929893D01*
X182052794Y-32929899D01*
X181958050Y-33002596D01*
X181958050Y-33002597D01*
X182483365Y-33527912D01*
X182352724Y-33622829D01*
X182224728Y-33750825D01*
X182129811Y-33881466D01*
X181604496Y-33356151D01*
X181604495Y-33356151D01*
X181531798Y-33450895D01*
X181531792Y-33450902D01*
X181408297Y-33664803D01*
X181408293Y-33664813D01*
X181313769Y-33893013D01*
X181249841Y-34131600D01*
X181249839Y-34131611D01*
X181217599Y-34376488D01*
X169541105Y-34376488D01*
X169519257Y-34266649D01*
X169512361Y-34250000D01*
X170200000Y-34250000D01*
X170200000Y-33502172D01*
X170199999Y-33502155D01*
X170193598Y-33442627D01*
X170193596Y-33442620D01*
X170143354Y-33307913D01*
X170143350Y-33307906D01*
X170057190Y-33192812D01*
X170057187Y-33192809D01*
X169999756Y-33149816D01*
X169942093Y-33106649D01*
X169942086Y-33106645D01*
X169807379Y-33056403D01*
X169807372Y-33056401D01*
X169747844Y-33050000D01*
X169000000Y-33050000D01*
X169000000Y-33737639D01*
X168983351Y-33730743D01*
X168828793Y-33700000D01*
X168671207Y-33700000D01*
X168516649Y-33730743D01*
X168500000Y-33737639D01*
X168500000Y-33050000D01*
X167752155Y-33050000D01*
X167692627Y-33056401D01*
X167692620Y-33056403D01*
X167557913Y-33106645D01*
X167557906Y-33106649D01*
X167442812Y-33192809D01*
X167442809Y-33192812D01*
X167356649Y-33307906D01*
X167356645Y-33307913D01*
X167306403Y-33442620D01*
X167306401Y-33442627D01*
X167300000Y-33502155D01*
X152587249Y-33502155D01*
X152599037Y-29259914D01*
X176451460Y-29259914D01*
X176451460Y-29580085D01*
X176487305Y-29898216D01*
X176487307Y-29898228D01*
X176558549Y-30210362D01*
X176558550Y-30210364D01*
X176664292Y-30512559D01*
X176803203Y-30801010D01*
X176803205Y-30801013D01*
X176973541Y-31072101D01*
X177173158Y-31322413D01*
X177399547Y-31548802D01*
X177649859Y-31748419D01*
X177920947Y-31918755D01*
X178209402Y-32057668D01*
X178511597Y-32163410D01*
X178823731Y-32234653D01*
X179141875Y-32270499D01*
X179141876Y-32270500D01*
X179141879Y-32270500D01*
X179462044Y-32270500D01*
X179462044Y-32270499D01*
X179780189Y-32234653D01*
X180092323Y-32163410D01*
X180394518Y-32057668D01*
X180682973Y-31918755D01*
X180954061Y-31748419D01*
X181204373Y-31548802D01*
X181430762Y-31322413D01*
X181630379Y-31072101D01*
X181800715Y-30801013D01*
X181939628Y-30512558D01*
X182045370Y-30210363D01*
X182116613Y-29898229D01*
X182152460Y-29580081D01*
X182152460Y-29259919D01*
X182152459Y-29259914D01*
X186611399Y-29259914D01*
X186611399Y-29580085D01*
X186647244Y-29898216D01*
X186647246Y-29898228D01*
X186718488Y-30210362D01*
X186718489Y-30210364D01*
X186824231Y-30512559D01*
X186963142Y-30801010D01*
X186963144Y-30801013D01*
X187133480Y-31072101D01*
X187333097Y-31322413D01*
X187559486Y-31548802D01*
X187809798Y-31748419D01*
X188080886Y-31918755D01*
X188369341Y-32057668D01*
X188671536Y-32163410D01*
X188983670Y-32234653D01*
X189301814Y-32270499D01*
X189301815Y-32270500D01*
X189301818Y-32270500D01*
X189621983Y-32270500D01*
X189621983Y-32270499D01*
X189940128Y-32234653D01*
X190252262Y-32163410D01*
X190554457Y-32057668D01*
X190842912Y-31918755D01*
X191114000Y-31748419D01*
X191364312Y-31548802D01*
X191590701Y-31322413D01*
X191790318Y-31072101D01*
X191960654Y-30801013D01*
X192099567Y-30512558D01*
X192205309Y-30210363D01*
X192276552Y-29898229D01*
X192312399Y-29580081D01*
X192312399Y-29259919D01*
X192276552Y-28941771D01*
X192205309Y-28629637D01*
X192099567Y-28327442D01*
X191960654Y-28038987D01*
X191790318Y-27767899D01*
X191590701Y-27517587D01*
X191364312Y-27291198D01*
X191114000Y-27091581D01*
X190842912Y-26921245D01*
X190842909Y-26921243D01*
X190554458Y-26782332D01*
X190252263Y-26676590D01*
X190252261Y-26676589D01*
X190011370Y-26621607D01*
X189940128Y-26605347D01*
X189940124Y-26605346D01*
X189940115Y-26605345D01*
X189621984Y-26569500D01*
X189621980Y-26569500D01*
X189301818Y-26569500D01*
X189301813Y-26569500D01*
X188983682Y-26605345D01*
X188983670Y-26605347D01*
X188671536Y-26676589D01*
X188671534Y-26676590D01*
X188369339Y-26782332D01*
X188080888Y-26921243D01*
X187809799Y-27091580D01*
X187559486Y-27291197D01*
X187333096Y-27517587D01*
X187133479Y-27767900D01*
X186963142Y-28038989D01*
X186824231Y-28327440D01*
X186718489Y-28629635D01*
X186718488Y-28629637D01*
X186647246Y-28941771D01*
X186647244Y-28941783D01*
X186611399Y-29259914D01*
X182152459Y-29259914D01*
X182116613Y-28941771D01*
X182045370Y-28629637D01*
X181939628Y-28327442D01*
X181800715Y-28038987D01*
X181630379Y-27767899D01*
X181430762Y-27517587D01*
X181204373Y-27291198D01*
X180954061Y-27091581D01*
X180682973Y-26921245D01*
X180682970Y-26921243D01*
X180394519Y-26782332D01*
X180092324Y-26676590D01*
X180092322Y-26676589D01*
X179851431Y-26621607D01*
X179780189Y-26605347D01*
X179780185Y-26605346D01*
X179780176Y-26605345D01*
X179462045Y-26569500D01*
X179462041Y-26569500D01*
X179141879Y-26569500D01*
X179141874Y-26569500D01*
X178823743Y-26605345D01*
X178823731Y-26605347D01*
X178511597Y-26676589D01*
X178511595Y-26676590D01*
X178209400Y-26782332D01*
X177920949Y-26921243D01*
X177649860Y-27091580D01*
X177399547Y-27291197D01*
X177173157Y-27517587D01*
X176973540Y-27767900D01*
X176803203Y-28038989D01*
X176664292Y-28327440D01*
X176558550Y-28629635D01*
X176558549Y-28629637D01*
X176487307Y-28941771D01*
X176487305Y-28941783D01*
X176451460Y-29259914D01*
X152599037Y-29259914D01*
X152612282Y-24493713D01*
X189649500Y-24493713D01*
X189649500Y-24706286D01*
X189682753Y-24916239D01*
X189748444Y-25118414D01*
X189844951Y-25307820D01*
X189969890Y-25479786D01*
X190120213Y-25630109D01*
X190292179Y-25755048D01*
X190292181Y-25755049D01*
X190292184Y-25755051D01*
X190481588Y-25851557D01*
X190683757Y-25917246D01*
X190893713Y-25950500D01*
X190893714Y-25950500D01*
X191106286Y-25950500D01*
X191106287Y-25950500D01*
X191316243Y-25917246D01*
X191518412Y-25851557D01*
X191707816Y-25755051D01*
X191729789Y-25739086D01*
X191879786Y-25630109D01*
X191879788Y-25630106D01*
X191879792Y-25630104D01*
X192030104Y-25479792D01*
X192030106Y-25479788D01*
X192030109Y-25479786D01*
X192155048Y-25307820D01*
X192155047Y-25307820D01*
X192155051Y-25307816D01*
X192251557Y-25118412D01*
X192317246Y-24916243D01*
X192350500Y-24706287D01*
X192350500Y-24493713D01*
X192317246Y-24283757D01*
X192251557Y-24081588D01*
X192155051Y-23892184D01*
X192155049Y-23892181D01*
X192155048Y-23892179D01*
X192030109Y-23720213D01*
X191879786Y-23569890D01*
X191707820Y-23444951D01*
X191518414Y-23348444D01*
X191518413Y-23348443D01*
X191518412Y-23348443D01*
X191316243Y-23282754D01*
X191316241Y-23282753D01*
X191316240Y-23282753D01*
X191154957Y-23257208D01*
X191106287Y-23249500D01*
X190893713Y-23249500D01*
X190845042Y-23257208D01*
X190683760Y-23282753D01*
X190481585Y-23348444D01*
X190292179Y-23444951D01*
X190120213Y-23569890D01*
X189969890Y-23720213D01*
X189844951Y-23892179D01*
X189748444Y-24081585D01*
X189682753Y-24283760D01*
X189649500Y-24493713D01*
X152612282Y-24493713D01*
X152624285Y-20174153D01*
X152644156Y-20107171D01*
X152697087Y-20061563D01*
X152748285Y-20050500D01*
X195875500Y-20050500D01*
X195942539Y-20070185D01*
G37*
%TD.AperFunction*%
%TD*%
M02*
