M48
; DRILL file KiCad 10.0.0 date 2026-03-26T21:39:40
; FORMAT={-:-/ absolute / metric / decimal}
; #@! TF.CreationDate,2026-03-26T21:39:40-04:00
; #@! TF.GenerationSoftware,Kicad,Pcbnew,10.0.0
; #@! TF.FileFunction,Plated,1,2,PTH
FMAT,2
METRIC
; #@! TA.AperFunction,Plated,PTH,ComponentDrill
T1C0.900
; #@! TA.AperFunction,Plated,PTH,ComponentDrill
T2C1.041
; #@! TA.AperFunction,Plated,PTH,ComponentDrill
T3C1.067
; #@! TA.AperFunction,Plated,PTH,ComponentDrill
T4C1.600
%
G90
G05
T1
X267.5Y-128.375
X267.5Y-143.185
X267.5Y-187.615
X267.5Y-202.425
X272.5Y-128.375
X272.5Y-143.185
X272.5Y-187.615
X272.5Y-202.425
X281.5Y-128.325
X281.5Y-143.135
X281.5Y-157.945
X281.5Y-172.755
X281.5Y-187.565
X281.5Y-202.375
X286.5Y-128.325
X286.5Y-143.135
X286.5Y-157.945
X286.5Y-172.755
X286.5Y-187.565
X286.5Y-202.375
T2
X296.5Y-122.049
X296.5Y-149.989
X296.5Y-178.761
X296.5Y-206.701
X307.0Y-122.049
X307.0Y-149.989
X307.0Y-178.761
X307.0Y-206.701
X317.5Y-178.761
X317.5Y-206.701
T3
X265.36Y-160.875
X265.36Y-163.875
X265.36Y-166.375
X265.36Y-169.375
X267.86Y-160.875
X267.86Y-163.875
X267.86Y-166.375
X267.86Y-169.375
X270.36Y-160.875
X270.36Y-163.875
X270.36Y-166.375
X270.36Y-169.375
X272.86Y-160.875
X272.86Y-163.875
X272.86Y-166.375
X272.86Y-169.375
X275.36Y-160.875
X275.36Y-163.875
X275.36Y-166.375
X275.36Y-169.375
X309.0Y-160.875
X309.0Y-163.875
X309.0Y-166.375
X309.0Y-169.375
X311.5Y-160.875
X311.5Y-163.875
X311.5Y-166.375
X311.5Y-169.375
X314.0Y-160.875
X314.0Y-163.875
X314.0Y-166.375
X314.0Y-169.375
X316.5Y-160.875
X316.5Y-163.875
X316.5Y-166.375
X316.5Y-169.375
X319.0Y-160.875
X319.0Y-163.875
X319.0Y-166.375
X319.0Y-169.375
T4
X317.0Y-124.25
X317.0Y-146.85
M30
