%TF.GenerationSoftware,KiCad,Pcbnew,10.0.0*%
%TF.CreationDate,2026-03-26T21:39:37-04:00*%
%TF.ProjectId,DC_Link_Caps_Circuit,44435f4c-696e-46b5-9f43-6170735f4369,rev?*%
%TF.SameCoordinates,Original*%
%TF.FileFunction,Legend,Bot*%
%TF.FilePolarity,Positive*%
%FSLAX46Y46*%
G04 Gerber Fmt 4.6, Leading zero omitted, Abs format (unit mm)*
G04 Created by KiCad (PCBNEW 10.0.0) date 2026-03-26 21:39:37*
%MOMM*%
%LPD*%
G01*
G04 APERTURE LIST*
%ADD10C,0.100000*%
%ADD11C,0.150000*%
%ADD12C,0.000000*%
G04 APERTURE END LIST*
D10*
X289000000Y-152375000D02*
X293500000Y-152375000D01*
X293500000Y-177375000D01*
X289000000Y-177375000D01*
X289000000Y-152375000D01*
D11*
X290822200Y-153164160D02*
X290869819Y-153307017D01*
X290869819Y-153307017D02*
X290869819Y-153545112D01*
X290869819Y-153545112D02*
X290822200Y-153640350D01*
X290822200Y-153640350D02*
X290774580Y-153687969D01*
X290774580Y-153687969D02*
X290679342Y-153735588D01*
X290679342Y-153735588D02*
X290584104Y-153735588D01*
X290584104Y-153735588D02*
X290488866Y-153687969D01*
X290488866Y-153687969D02*
X290441247Y-153640350D01*
X290441247Y-153640350D02*
X290393628Y-153545112D01*
X290393628Y-153545112D02*
X290346009Y-153354636D01*
X290346009Y-153354636D02*
X290298390Y-153259398D01*
X290298390Y-153259398D02*
X290250771Y-153211779D01*
X290250771Y-153211779D02*
X290155533Y-153164160D01*
X290155533Y-153164160D02*
X290060295Y-153164160D01*
X290060295Y-153164160D02*
X289965057Y-153211779D01*
X289965057Y-153211779D02*
X289917438Y-153259398D01*
X289917438Y-153259398D02*
X289869819Y-153354636D01*
X289869819Y-153354636D02*
X289869819Y-153592731D01*
X289869819Y-153592731D02*
X289917438Y-153735588D01*
X290869819Y-154164160D02*
X290203152Y-154164160D01*
X289869819Y-154164160D02*
X289917438Y-154116541D01*
X289917438Y-154116541D02*
X289965057Y-154164160D01*
X289965057Y-154164160D02*
X289917438Y-154211779D01*
X289917438Y-154211779D02*
X289869819Y-154164160D01*
X289869819Y-154164160D02*
X289965057Y-154164160D01*
X290774580Y-155211778D02*
X290822200Y-155164159D01*
X290822200Y-155164159D02*
X290869819Y-155021302D01*
X290869819Y-155021302D02*
X290869819Y-154926064D01*
X290869819Y-154926064D02*
X290822200Y-154783207D01*
X290822200Y-154783207D02*
X290726961Y-154687969D01*
X290726961Y-154687969D02*
X290631723Y-154640350D01*
X290631723Y-154640350D02*
X290441247Y-154592731D01*
X290441247Y-154592731D02*
X290298390Y-154592731D01*
X290298390Y-154592731D02*
X290107914Y-154640350D01*
X290107914Y-154640350D02*
X290012676Y-154687969D01*
X290012676Y-154687969D02*
X289917438Y-154783207D01*
X289917438Y-154783207D02*
X289869819Y-154926064D01*
X289869819Y-154926064D02*
X289869819Y-155021302D01*
X289869819Y-155021302D02*
X289917438Y-155164159D01*
X289917438Y-155164159D02*
X289965057Y-155211778D01*
X290822200Y-156354636D02*
X290869819Y-156497493D01*
X290869819Y-156497493D02*
X290869819Y-156735588D01*
X290869819Y-156735588D02*
X290822200Y-156830826D01*
X290822200Y-156830826D02*
X290774580Y-156878445D01*
X290774580Y-156878445D02*
X290679342Y-156926064D01*
X290679342Y-156926064D02*
X290584104Y-156926064D01*
X290584104Y-156926064D02*
X290488866Y-156878445D01*
X290488866Y-156878445D02*
X290441247Y-156830826D01*
X290441247Y-156830826D02*
X290393628Y-156735588D01*
X290393628Y-156735588D02*
X290346009Y-156545112D01*
X290346009Y-156545112D02*
X290298390Y-156449874D01*
X290298390Y-156449874D02*
X290250771Y-156402255D01*
X290250771Y-156402255D02*
X290155533Y-156354636D01*
X290155533Y-156354636D02*
X290060295Y-156354636D01*
X290060295Y-156354636D02*
X289965057Y-156402255D01*
X289965057Y-156402255D02*
X289917438Y-156449874D01*
X289917438Y-156449874D02*
X289869819Y-156545112D01*
X289869819Y-156545112D02*
X289869819Y-156783207D01*
X289869819Y-156783207D02*
X289917438Y-156926064D01*
X290869819Y-157354636D02*
X290203152Y-157354636D01*
X289869819Y-157354636D02*
X289917438Y-157307017D01*
X289917438Y-157307017D02*
X289965057Y-157354636D01*
X289965057Y-157354636D02*
X289917438Y-157402255D01*
X289917438Y-157402255D02*
X289869819Y-157354636D01*
X289869819Y-157354636D02*
X289965057Y-157354636D01*
X290203152Y-157830826D02*
X290869819Y-157830826D01*
X290298390Y-157830826D02*
X290250771Y-157878445D01*
X290250771Y-157878445D02*
X290203152Y-157973683D01*
X290203152Y-157973683D02*
X290203152Y-158116540D01*
X290203152Y-158116540D02*
X290250771Y-158211778D01*
X290250771Y-158211778D02*
X290346009Y-158259397D01*
X290346009Y-158259397D02*
X290869819Y-158259397D01*
X290203152Y-159164159D02*
X291012676Y-159164159D01*
X291012676Y-159164159D02*
X291107914Y-159116540D01*
X291107914Y-159116540D02*
X291155533Y-159068921D01*
X291155533Y-159068921D02*
X291203152Y-158973683D01*
X291203152Y-158973683D02*
X291203152Y-158830826D01*
X291203152Y-158830826D02*
X291155533Y-158735588D01*
X290822200Y-159164159D02*
X290869819Y-159068921D01*
X290869819Y-159068921D02*
X290869819Y-158878445D01*
X290869819Y-158878445D02*
X290822200Y-158783207D01*
X290822200Y-158783207D02*
X290774580Y-158735588D01*
X290774580Y-158735588D02*
X290679342Y-158687969D01*
X290679342Y-158687969D02*
X290393628Y-158687969D01*
X290393628Y-158687969D02*
X290298390Y-158735588D01*
X290298390Y-158735588D02*
X290250771Y-158783207D01*
X290250771Y-158783207D02*
X290203152Y-158878445D01*
X290203152Y-158878445D02*
X290203152Y-159068921D01*
X290203152Y-159068921D02*
X290250771Y-159164159D01*
X290869819Y-159783207D02*
X290822200Y-159687969D01*
X290822200Y-159687969D02*
X290726961Y-159640350D01*
X290726961Y-159640350D02*
X289869819Y-159640350D01*
X290822200Y-160545112D02*
X290869819Y-160449874D01*
X290869819Y-160449874D02*
X290869819Y-160259398D01*
X290869819Y-160259398D02*
X290822200Y-160164160D01*
X290822200Y-160164160D02*
X290726961Y-160116541D01*
X290726961Y-160116541D02*
X290346009Y-160116541D01*
X290346009Y-160116541D02*
X290250771Y-160164160D01*
X290250771Y-160164160D02*
X290203152Y-160259398D01*
X290203152Y-160259398D02*
X290203152Y-160449874D01*
X290203152Y-160449874D02*
X290250771Y-160545112D01*
X290250771Y-160545112D02*
X290346009Y-160592731D01*
X290346009Y-160592731D02*
X290441247Y-160592731D01*
X290441247Y-160592731D02*
X290536485Y-160116541D01*
X290869819Y-161783208D02*
X289869819Y-161783208D01*
X289869819Y-161783208D02*
X289869819Y-162164160D01*
X289869819Y-162164160D02*
X289917438Y-162259398D01*
X289917438Y-162259398D02*
X289965057Y-162307017D01*
X289965057Y-162307017D02*
X290060295Y-162354636D01*
X290060295Y-162354636D02*
X290203152Y-162354636D01*
X290203152Y-162354636D02*
X290298390Y-162307017D01*
X290298390Y-162307017D02*
X290346009Y-162259398D01*
X290346009Y-162259398D02*
X290393628Y-162164160D01*
X290393628Y-162164160D02*
X290393628Y-161783208D01*
X290869819Y-162783208D02*
X289869819Y-162783208D01*
X290869819Y-163211779D02*
X290346009Y-163211779D01*
X290346009Y-163211779D02*
X290250771Y-163164160D01*
X290250771Y-163164160D02*
X290203152Y-163068922D01*
X290203152Y-163068922D02*
X290203152Y-162926065D01*
X290203152Y-162926065D02*
X290250771Y-162830827D01*
X290250771Y-162830827D02*
X290298390Y-162783208D01*
X290869819Y-164116541D02*
X290346009Y-164116541D01*
X290346009Y-164116541D02*
X290250771Y-164068922D01*
X290250771Y-164068922D02*
X290203152Y-163973684D01*
X290203152Y-163973684D02*
X290203152Y-163783208D01*
X290203152Y-163783208D02*
X290250771Y-163687970D01*
X290822200Y-164116541D02*
X290869819Y-164021303D01*
X290869819Y-164021303D02*
X290869819Y-163783208D01*
X290869819Y-163783208D02*
X290822200Y-163687970D01*
X290822200Y-163687970D02*
X290726961Y-163640351D01*
X290726961Y-163640351D02*
X290631723Y-163640351D01*
X290631723Y-163640351D02*
X290536485Y-163687970D01*
X290536485Y-163687970D02*
X290488866Y-163783208D01*
X290488866Y-163783208D02*
X290488866Y-164021303D01*
X290488866Y-164021303D02*
X290441247Y-164116541D01*
X290822200Y-164545113D02*
X290869819Y-164640351D01*
X290869819Y-164640351D02*
X290869819Y-164830827D01*
X290869819Y-164830827D02*
X290822200Y-164926065D01*
X290822200Y-164926065D02*
X290726961Y-164973684D01*
X290726961Y-164973684D02*
X290679342Y-164973684D01*
X290679342Y-164973684D02*
X290584104Y-164926065D01*
X290584104Y-164926065D02*
X290536485Y-164830827D01*
X290536485Y-164830827D02*
X290536485Y-164687970D01*
X290536485Y-164687970D02*
X290488866Y-164592732D01*
X290488866Y-164592732D02*
X290393628Y-164545113D01*
X290393628Y-164545113D02*
X290346009Y-164545113D01*
X290346009Y-164545113D02*
X290250771Y-164592732D01*
X290250771Y-164592732D02*
X290203152Y-164687970D01*
X290203152Y-164687970D02*
X290203152Y-164830827D01*
X290203152Y-164830827D02*
X290250771Y-164926065D01*
X290822200Y-165783208D02*
X290869819Y-165687970D01*
X290869819Y-165687970D02*
X290869819Y-165497494D01*
X290869819Y-165497494D02*
X290822200Y-165402256D01*
X290822200Y-165402256D02*
X290726961Y-165354637D01*
X290726961Y-165354637D02*
X290346009Y-165354637D01*
X290346009Y-165354637D02*
X290250771Y-165402256D01*
X290250771Y-165402256D02*
X290203152Y-165497494D01*
X290203152Y-165497494D02*
X290203152Y-165687970D01*
X290203152Y-165687970D02*
X290250771Y-165783208D01*
X290250771Y-165783208D02*
X290346009Y-165830827D01*
X290346009Y-165830827D02*
X290441247Y-165830827D01*
X290441247Y-165830827D02*
X290536485Y-165354637D01*
X290869819Y-167021304D02*
X289869819Y-167021304D01*
X290203152Y-167497494D02*
X290869819Y-167497494D01*
X290298390Y-167497494D02*
X290250771Y-167545113D01*
X290250771Y-167545113D02*
X290203152Y-167640351D01*
X290203152Y-167640351D02*
X290203152Y-167783208D01*
X290203152Y-167783208D02*
X290250771Y-167878446D01*
X290250771Y-167878446D02*
X290346009Y-167926065D01*
X290346009Y-167926065D02*
X290869819Y-167926065D01*
X290203152Y-168307018D02*
X290869819Y-168545113D01*
X290869819Y-168545113D02*
X290203152Y-168783208D01*
X290822200Y-169545113D02*
X290869819Y-169449875D01*
X290869819Y-169449875D02*
X290869819Y-169259399D01*
X290869819Y-169259399D02*
X290822200Y-169164161D01*
X290822200Y-169164161D02*
X290726961Y-169116542D01*
X290726961Y-169116542D02*
X290346009Y-169116542D01*
X290346009Y-169116542D02*
X290250771Y-169164161D01*
X290250771Y-169164161D02*
X290203152Y-169259399D01*
X290203152Y-169259399D02*
X290203152Y-169449875D01*
X290203152Y-169449875D02*
X290250771Y-169545113D01*
X290250771Y-169545113D02*
X290346009Y-169592732D01*
X290346009Y-169592732D02*
X290441247Y-169592732D01*
X290441247Y-169592732D02*
X290536485Y-169116542D01*
X290869819Y-170021304D02*
X290203152Y-170021304D01*
X290393628Y-170021304D02*
X290298390Y-170068923D01*
X290298390Y-170068923D02*
X290250771Y-170116542D01*
X290250771Y-170116542D02*
X290203152Y-170211780D01*
X290203152Y-170211780D02*
X290203152Y-170307018D01*
X290203152Y-170497495D02*
X290203152Y-170878447D01*
X289869819Y-170640352D02*
X290726961Y-170640352D01*
X290726961Y-170640352D02*
X290822200Y-170687971D01*
X290822200Y-170687971D02*
X290869819Y-170783209D01*
X290869819Y-170783209D02*
X290869819Y-170878447D01*
X290822200Y-171592733D02*
X290869819Y-171497495D01*
X290869819Y-171497495D02*
X290869819Y-171307019D01*
X290869819Y-171307019D02*
X290822200Y-171211781D01*
X290822200Y-171211781D02*
X290726961Y-171164162D01*
X290726961Y-171164162D02*
X290346009Y-171164162D01*
X290346009Y-171164162D02*
X290250771Y-171211781D01*
X290250771Y-171211781D02*
X290203152Y-171307019D01*
X290203152Y-171307019D02*
X290203152Y-171497495D01*
X290203152Y-171497495D02*
X290250771Y-171592733D01*
X290250771Y-171592733D02*
X290346009Y-171640352D01*
X290346009Y-171640352D02*
X290441247Y-171640352D01*
X290441247Y-171640352D02*
X290536485Y-171164162D01*
X290869819Y-172068924D02*
X290203152Y-172068924D01*
X290393628Y-172068924D02*
X290298390Y-172116543D01*
X290298390Y-172116543D02*
X290250771Y-172164162D01*
X290250771Y-172164162D02*
X290203152Y-172259400D01*
X290203152Y-172259400D02*
X290203152Y-172354638D01*
X290346009Y-173783210D02*
X290393628Y-173926067D01*
X290393628Y-173926067D02*
X290441247Y-173973686D01*
X290441247Y-173973686D02*
X290536485Y-174021305D01*
X290536485Y-174021305D02*
X290679342Y-174021305D01*
X290679342Y-174021305D02*
X290774580Y-173973686D01*
X290774580Y-173973686D02*
X290822200Y-173926067D01*
X290822200Y-173926067D02*
X290869819Y-173830829D01*
X290869819Y-173830829D02*
X290869819Y-173449877D01*
X290869819Y-173449877D02*
X289869819Y-173449877D01*
X289869819Y-173449877D02*
X289869819Y-173783210D01*
X289869819Y-173783210D02*
X289917438Y-173878448D01*
X289917438Y-173878448D02*
X289965057Y-173926067D01*
X289965057Y-173926067D02*
X290060295Y-173973686D01*
X290060295Y-173973686D02*
X290155533Y-173973686D01*
X290155533Y-173973686D02*
X290250771Y-173926067D01*
X290250771Y-173926067D02*
X290298390Y-173878448D01*
X290298390Y-173878448D02*
X290346009Y-173783210D01*
X290346009Y-173783210D02*
X290346009Y-173449877D01*
X290869819Y-174973686D02*
X290869819Y-174402258D01*
X290869819Y-174687972D02*
X289869819Y-174687972D01*
X289869819Y-174687972D02*
X290012676Y-174592734D01*
X290012676Y-174592734D02*
X290107914Y-174497496D01*
X290107914Y-174497496D02*
X290155533Y-174402258D01*
X290774580Y-175402258D02*
X290822200Y-175449877D01*
X290822200Y-175449877D02*
X290869819Y-175402258D01*
X290869819Y-175402258D02*
X290822200Y-175354639D01*
X290822200Y-175354639D02*
X290774580Y-175402258D01*
X290774580Y-175402258D02*
X290869819Y-175402258D01*
X289869819Y-176068924D02*
X289869819Y-176164162D01*
X289869819Y-176164162D02*
X289917438Y-176259400D01*
X289917438Y-176259400D02*
X289965057Y-176307019D01*
X289965057Y-176307019D02*
X290060295Y-176354638D01*
X290060295Y-176354638D02*
X290250771Y-176402257D01*
X290250771Y-176402257D02*
X290488866Y-176402257D01*
X290488866Y-176402257D02*
X290679342Y-176354638D01*
X290679342Y-176354638D02*
X290774580Y-176307019D01*
X290774580Y-176307019D02*
X290822200Y-176259400D01*
X290822200Y-176259400D02*
X290869819Y-176164162D01*
X290869819Y-176164162D02*
X290869819Y-176068924D01*
X290869819Y-176068924D02*
X290822200Y-175973686D01*
X290822200Y-175973686D02*
X290774580Y-175926067D01*
X290774580Y-175926067D02*
X290679342Y-175878448D01*
X290679342Y-175878448D02*
X290488866Y-175830829D01*
X290488866Y-175830829D02*
X290250771Y-175830829D01*
X290250771Y-175830829D02*
X290060295Y-175878448D01*
X290060295Y-175878448D02*
X289965057Y-175926067D01*
X289965057Y-175926067D02*
X289917438Y-175973686D01*
X289917438Y-175973686D02*
X289869819Y-176068924D01*
X292369819Y-155211779D02*
X291369819Y-155211779D01*
X291369819Y-155211779D02*
X291369819Y-155449874D01*
X291369819Y-155449874D02*
X291417438Y-155592731D01*
X291417438Y-155592731D02*
X291512676Y-155687969D01*
X291512676Y-155687969D02*
X291607914Y-155735588D01*
X291607914Y-155735588D02*
X291798390Y-155783207D01*
X291798390Y-155783207D02*
X291941247Y-155783207D01*
X291941247Y-155783207D02*
X292131723Y-155735588D01*
X292131723Y-155735588D02*
X292226961Y-155687969D01*
X292226961Y-155687969D02*
X292322200Y-155592731D01*
X292322200Y-155592731D02*
X292369819Y-155449874D01*
X292369819Y-155449874D02*
X292369819Y-155211779D01*
X292322200Y-156592731D02*
X292369819Y-156497493D01*
X292369819Y-156497493D02*
X292369819Y-156307017D01*
X292369819Y-156307017D02*
X292322200Y-156211779D01*
X292322200Y-156211779D02*
X292226961Y-156164160D01*
X292226961Y-156164160D02*
X291846009Y-156164160D01*
X291846009Y-156164160D02*
X291750771Y-156211779D01*
X291750771Y-156211779D02*
X291703152Y-156307017D01*
X291703152Y-156307017D02*
X291703152Y-156497493D01*
X291703152Y-156497493D02*
X291750771Y-156592731D01*
X291750771Y-156592731D02*
X291846009Y-156640350D01*
X291846009Y-156640350D02*
X291941247Y-156640350D01*
X291941247Y-156640350D02*
X292036485Y-156164160D01*
X292322200Y-157021303D02*
X292369819Y-157116541D01*
X292369819Y-157116541D02*
X292369819Y-157307017D01*
X292369819Y-157307017D02*
X292322200Y-157402255D01*
X292322200Y-157402255D02*
X292226961Y-157449874D01*
X292226961Y-157449874D02*
X292179342Y-157449874D01*
X292179342Y-157449874D02*
X292084104Y-157402255D01*
X292084104Y-157402255D02*
X292036485Y-157307017D01*
X292036485Y-157307017D02*
X292036485Y-157164160D01*
X292036485Y-157164160D02*
X291988866Y-157068922D01*
X291988866Y-157068922D02*
X291893628Y-157021303D01*
X291893628Y-157021303D02*
X291846009Y-157021303D01*
X291846009Y-157021303D02*
X291750771Y-157068922D01*
X291750771Y-157068922D02*
X291703152Y-157164160D01*
X291703152Y-157164160D02*
X291703152Y-157307017D01*
X291703152Y-157307017D02*
X291750771Y-157402255D01*
X292369819Y-157878446D02*
X291703152Y-157878446D01*
X291369819Y-157878446D02*
X291417438Y-157830827D01*
X291417438Y-157830827D02*
X291465057Y-157878446D01*
X291465057Y-157878446D02*
X291417438Y-157926065D01*
X291417438Y-157926065D02*
X291369819Y-157878446D01*
X291369819Y-157878446D02*
X291465057Y-157878446D01*
X291703152Y-158783207D02*
X292512676Y-158783207D01*
X292512676Y-158783207D02*
X292607914Y-158735588D01*
X292607914Y-158735588D02*
X292655533Y-158687969D01*
X292655533Y-158687969D02*
X292703152Y-158592731D01*
X292703152Y-158592731D02*
X292703152Y-158449874D01*
X292703152Y-158449874D02*
X292655533Y-158354636D01*
X292322200Y-158783207D02*
X292369819Y-158687969D01*
X292369819Y-158687969D02*
X292369819Y-158497493D01*
X292369819Y-158497493D02*
X292322200Y-158402255D01*
X292322200Y-158402255D02*
X292274580Y-158354636D01*
X292274580Y-158354636D02*
X292179342Y-158307017D01*
X292179342Y-158307017D02*
X291893628Y-158307017D01*
X291893628Y-158307017D02*
X291798390Y-158354636D01*
X291798390Y-158354636D02*
X291750771Y-158402255D01*
X291750771Y-158402255D02*
X291703152Y-158497493D01*
X291703152Y-158497493D02*
X291703152Y-158687969D01*
X291703152Y-158687969D02*
X291750771Y-158783207D01*
X291703152Y-159259398D02*
X292369819Y-159259398D01*
X291798390Y-159259398D02*
X291750771Y-159307017D01*
X291750771Y-159307017D02*
X291703152Y-159402255D01*
X291703152Y-159402255D02*
X291703152Y-159545112D01*
X291703152Y-159545112D02*
X291750771Y-159640350D01*
X291750771Y-159640350D02*
X291846009Y-159687969D01*
X291846009Y-159687969D02*
X292369819Y-159687969D01*
X291846009Y-161259398D02*
X291893628Y-161402255D01*
X291893628Y-161402255D02*
X291941247Y-161449874D01*
X291941247Y-161449874D02*
X292036485Y-161497493D01*
X292036485Y-161497493D02*
X292179342Y-161497493D01*
X292179342Y-161497493D02*
X292274580Y-161449874D01*
X292274580Y-161449874D02*
X292322200Y-161402255D01*
X292322200Y-161402255D02*
X292369819Y-161307017D01*
X292369819Y-161307017D02*
X292369819Y-160926065D01*
X292369819Y-160926065D02*
X291369819Y-160926065D01*
X291369819Y-160926065D02*
X291369819Y-161259398D01*
X291369819Y-161259398D02*
X291417438Y-161354636D01*
X291417438Y-161354636D02*
X291465057Y-161402255D01*
X291465057Y-161402255D02*
X291560295Y-161449874D01*
X291560295Y-161449874D02*
X291655533Y-161449874D01*
X291655533Y-161449874D02*
X291750771Y-161402255D01*
X291750771Y-161402255D02*
X291798390Y-161354636D01*
X291798390Y-161354636D02*
X291846009Y-161259398D01*
X291846009Y-161259398D02*
X291846009Y-160926065D01*
X291703152Y-161830827D02*
X292369819Y-162068922D01*
X291703152Y-162307017D02*
X292369819Y-162068922D01*
X292369819Y-162068922D02*
X292607914Y-161973684D01*
X292607914Y-161973684D02*
X292655533Y-161926065D01*
X292655533Y-161926065D02*
X292703152Y-161830827D01*
X291369819Y-163735589D02*
X292084104Y-163735589D01*
X292084104Y-163735589D02*
X292226961Y-163687970D01*
X292226961Y-163687970D02*
X292322200Y-163592732D01*
X292322200Y-163592732D02*
X292369819Y-163449875D01*
X292369819Y-163449875D02*
X292369819Y-163354637D01*
X292369819Y-164354637D02*
X292322200Y-164259399D01*
X292322200Y-164259399D02*
X292274580Y-164211780D01*
X292274580Y-164211780D02*
X292179342Y-164164161D01*
X292179342Y-164164161D02*
X291893628Y-164164161D01*
X291893628Y-164164161D02*
X291798390Y-164211780D01*
X291798390Y-164211780D02*
X291750771Y-164259399D01*
X291750771Y-164259399D02*
X291703152Y-164354637D01*
X291703152Y-164354637D02*
X291703152Y-164497494D01*
X291703152Y-164497494D02*
X291750771Y-164592732D01*
X291750771Y-164592732D02*
X291798390Y-164640351D01*
X291798390Y-164640351D02*
X291893628Y-164687970D01*
X291893628Y-164687970D02*
X292179342Y-164687970D01*
X292179342Y-164687970D02*
X292274580Y-164640351D01*
X292274580Y-164640351D02*
X292322200Y-164592732D01*
X292322200Y-164592732D02*
X292369819Y-164497494D01*
X292369819Y-164497494D02*
X292369819Y-164354637D01*
X292322200Y-165068923D02*
X292369819Y-165164161D01*
X292369819Y-165164161D02*
X292369819Y-165354637D01*
X292369819Y-165354637D02*
X292322200Y-165449875D01*
X292322200Y-165449875D02*
X292226961Y-165497494D01*
X292226961Y-165497494D02*
X292179342Y-165497494D01*
X292179342Y-165497494D02*
X292084104Y-165449875D01*
X292084104Y-165449875D02*
X292036485Y-165354637D01*
X292036485Y-165354637D02*
X292036485Y-165211780D01*
X292036485Y-165211780D02*
X291988866Y-165116542D01*
X291988866Y-165116542D02*
X291893628Y-165068923D01*
X291893628Y-165068923D02*
X291846009Y-165068923D01*
X291846009Y-165068923D02*
X291750771Y-165116542D01*
X291750771Y-165116542D02*
X291703152Y-165211780D01*
X291703152Y-165211780D02*
X291703152Y-165354637D01*
X291703152Y-165354637D02*
X291750771Y-165449875D01*
X292322200Y-166307018D02*
X292369819Y-166211780D01*
X292369819Y-166211780D02*
X292369819Y-166021304D01*
X292369819Y-166021304D02*
X292322200Y-165926066D01*
X292322200Y-165926066D02*
X292226961Y-165878447D01*
X292226961Y-165878447D02*
X291846009Y-165878447D01*
X291846009Y-165878447D02*
X291750771Y-165926066D01*
X291750771Y-165926066D02*
X291703152Y-166021304D01*
X291703152Y-166021304D02*
X291703152Y-166211780D01*
X291703152Y-166211780D02*
X291750771Y-166307018D01*
X291750771Y-166307018D02*
X291846009Y-166354637D01*
X291846009Y-166354637D02*
X291941247Y-166354637D01*
X291941247Y-166354637D02*
X292036485Y-165878447D01*
X291703152Y-166783209D02*
X292703152Y-166783209D01*
X291750771Y-166783209D02*
X291703152Y-166878447D01*
X291703152Y-166878447D02*
X291703152Y-167068923D01*
X291703152Y-167068923D02*
X291750771Y-167164161D01*
X291750771Y-167164161D02*
X291798390Y-167211780D01*
X291798390Y-167211780D02*
X291893628Y-167259399D01*
X291893628Y-167259399D02*
X292179342Y-167259399D01*
X292179342Y-167259399D02*
X292274580Y-167211780D01*
X292274580Y-167211780D02*
X292322200Y-167164161D01*
X292322200Y-167164161D02*
X292369819Y-167068923D01*
X292369819Y-167068923D02*
X292369819Y-166878447D01*
X292369819Y-166878447D02*
X292322200Y-166783209D01*
X292369819Y-167687971D02*
X291369819Y-167687971D01*
X292369819Y-168116542D02*
X291846009Y-168116542D01*
X291846009Y-168116542D02*
X291750771Y-168068923D01*
X291750771Y-168068923D02*
X291703152Y-167973685D01*
X291703152Y-167973685D02*
X291703152Y-167830828D01*
X291703152Y-167830828D02*
X291750771Y-167735590D01*
X291750771Y-167735590D02*
X291798390Y-167687971D01*
X291369819Y-169640352D02*
X292084104Y-169640352D01*
X292084104Y-169640352D02*
X292226961Y-169592733D01*
X292226961Y-169592733D02*
X292322200Y-169497495D01*
X292322200Y-169497495D02*
X292369819Y-169354638D01*
X292369819Y-169354638D02*
X292369819Y-169259400D01*
X292274580Y-170116543D02*
X292322200Y-170164162D01*
X292322200Y-170164162D02*
X292369819Y-170116543D01*
X292369819Y-170116543D02*
X292322200Y-170068924D01*
X292322200Y-170068924D02*
X292274580Y-170116543D01*
X292274580Y-170116543D02*
X292369819Y-170116543D01*
X291369819Y-171211781D02*
X292369819Y-171545114D01*
X292369819Y-171545114D02*
X291369819Y-171878447D01*
X292369819Y-172211781D02*
X291703152Y-172211781D01*
X291369819Y-172211781D02*
X291417438Y-172164162D01*
X291417438Y-172164162D02*
X291465057Y-172211781D01*
X291465057Y-172211781D02*
X291417438Y-172259400D01*
X291417438Y-172259400D02*
X291369819Y-172211781D01*
X291369819Y-172211781D02*
X291465057Y-172211781D01*
X291703152Y-172545114D02*
X291703152Y-172926066D01*
X291369819Y-172687971D02*
X292226961Y-172687971D01*
X292226961Y-172687971D02*
X292322200Y-172735590D01*
X292322200Y-172735590D02*
X292369819Y-172830828D01*
X292369819Y-172830828D02*
X292369819Y-172926066D01*
X292369819Y-173687971D02*
X291846009Y-173687971D01*
X291846009Y-173687971D02*
X291750771Y-173640352D01*
X291750771Y-173640352D02*
X291703152Y-173545114D01*
X291703152Y-173545114D02*
X291703152Y-173354638D01*
X291703152Y-173354638D02*
X291750771Y-173259400D01*
X292322200Y-173687971D02*
X292369819Y-173592733D01*
X292369819Y-173592733D02*
X292369819Y-173354638D01*
X292369819Y-173354638D02*
X292322200Y-173259400D01*
X292322200Y-173259400D02*
X292226961Y-173211781D01*
X292226961Y-173211781D02*
X292131723Y-173211781D01*
X292131723Y-173211781D02*
X292036485Y-173259400D01*
X292036485Y-173259400D02*
X291988866Y-173354638D01*
X291988866Y-173354638D02*
X291988866Y-173592733D01*
X291988866Y-173592733D02*
X291941247Y-173687971D01*
X292369819Y-174307019D02*
X292322200Y-174211781D01*
X292322200Y-174211781D02*
X292226961Y-174164162D01*
X292226961Y-174164162D02*
X291369819Y-174164162D01*
X292322200Y-175068924D02*
X292369819Y-174973686D01*
X292369819Y-174973686D02*
X292369819Y-174783210D01*
X292369819Y-174783210D02*
X292322200Y-174687972D01*
X292322200Y-174687972D02*
X292226961Y-174640353D01*
X292226961Y-174640353D02*
X291846009Y-174640353D01*
X291846009Y-174640353D02*
X291750771Y-174687972D01*
X291750771Y-174687972D02*
X291703152Y-174783210D01*
X291703152Y-174783210D02*
X291703152Y-174973686D01*
X291703152Y-174973686D02*
X291750771Y-175068924D01*
X291750771Y-175068924D02*
X291846009Y-175116543D01*
X291846009Y-175116543D02*
X291941247Y-175116543D01*
X291941247Y-175116543D02*
X292036485Y-174640353D01*
D12*
%TO.C,G\u002A\u002A\u002A*%
G36*
X297632281Y-165731234D02*
G01*
X297669177Y-165755410D01*
X297665258Y-166117233D01*
X297661339Y-166479056D01*
X297624835Y-166497247D01*
X297619225Y-166499952D01*
X297587787Y-166507902D01*
X297558880Y-166495921D01*
X297547681Y-166486543D01*
X297537858Y-166469301D01*
X297531624Y-166440438D01*
X297527824Y-166394057D01*
X297525306Y-166324260D01*
X297521183Y-166172115D01*
X297336071Y-166173416D01*
X297315051Y-166173541D01*
X297242547Y-166173270D01*
X297192624Y-166171214D01*
X297159848Y-166166716D01*
X297138788Y-166159120D01*
X297124008Y-166147767D01*
X297101629Y-166113601D01*
X297101887Y-166074584D01*
X297129632Y-166041036D01*
X297135604Y-166037335D01*
X297161064Y-166028157D01*
X297200601Y-166022274D01*
X297259276Y-166019143D01*
X297342154Y-166018220D01*
X297522101Y-166018220D01*
X297522101Y-165886648D01*
X297522464Y-165830817D01*
X297524716Y-165787530D01*
X297530452Y-165760980D01*
X297541264Y-165744411D01*
X297558742Y-165731067D01*
X297581010Y-165717969D01*
X297603506Y-165715627D01*
X297632281Y-165731234D01*
G37*
G36*
X297969129Y-165731067D02*
G01*
X297970569Y-165732015D01*
X297987084Y-165744872D01*
X297997420Y-165761183D01*
X298003020Y-165787410D01*
X298005323Y-165830020D01*
X298005771Y-165895476D01*
X298005771Y-166035876D01*
X298199972Y-166030712D01*
X298394172Y-166025548D01*
X298401501Y-165888031D01*
X298403047Y-165860839D01*
X298407747Y-165803280D01*
X298414217Y-165766590D01*
X298423911Y-165744571D01*
X298438279Y-165731026D01*
X298442673Y-165728223D01*
X298471011Y-165718995D01*
X298504234Y-165729687D01*
X298512113Y-165733849D01*
X298527809Y-165746660D01*
X298537048Y-165767371D01*
X298542046Y-165803119D01*
X298545020Y-165861043D01*
X298545562Y-165874136D01*
X298548688Y-165925050D01*
X298552530Y-165960773D01*
X298556378Y-165974250D01*
X298557859Y-165973912D01*
X298578362Y-165965192D01*
X298616581Y-165947071D01*
X298665687Y-165922767D01*
X298695967Y-165907336D01*
X298735661Y-165884964D01*
X298757233Y-165866801D01*
X298766159Y-165847414D01*
X298767917Y-165821369D01*
X298768797Y-165791110D01*
X298777034Y-165750714D01*
X298797024Y-165730564D01*
X298832509Y-165725086D01*
X298833591Y-165725088D01*
X298869156Y-165728529D01*
X298892612Y-165741826D01*
X298906374Y-165769818D01*
X298912859Y-165817343D01*
X298914484Y-165889241D01*
X298914484Y-166018220D01*
X299042730Y-166018444D01*
X299096784Y-166019065D01*
X299149038Y-166022290D01*
X299181674Y-166029584D01*
X299200259Y-166042399D01*
X299210362Y-166062190D01*
X299213425Y-166088296D01*
X299205376Y-166126976D01*
X299186918Y-166153569D01*
X299181750Y-166155566D01*
X299151322Y-166160096D01*
X299102390Y-166163292D01*
X299042730Y-166164562D01*
X298914484Y-166164786D01*
X298914484Y-166317850D01*
X298914484Y-166320049D01*
X298913941Y-166388791D01*
X298911637Y-166434403D01*
X298906504Y-166462902D01*
X298897477Y-166480304D01*
X298883488Y-166492625D01*
X298858056Y-166504593D01*
X298828525Y-166506064D01*
X298825340Y-166504929D01*
X298803519Y-166493590D01*
X298787967Y-166475250D01*
X298777656Y-166445450D01*
X298771562Y-166399734D01*
X298768657Y-166333642D01*
X298767917Y-166242717D01*
X298767917Y-166033116D01*
X298657992Y-166087509D01*
X298548067Y-166141901D01*
X298548067Y-166304967D01*
X298548064Y-166312712D01*
X298547430Y-166382855D01*
X298545034Y-166430221D01*
X298539923Y-166460791D01*
X298531147Y-166480546D01*
X298517752Y-166495468D01*
X298499276Y-166510326D01*
X298478133Y-166514511D01*
X298448133Y-166500876D01*
X298439549Y-166495912D01*
X298424807Y-166484375D01*
X298415442Y-166467575D01*
X298409966Y-166439500D01*
X298406891Y-166394139D01*
X298404731Y-166325482D01*
X298400633Y-166172115D01*
X298203202Y-166176572D01*
X298005771Y-166181029D01*
X298005771Y-166326465D01*
X298005763Y-166340953D01*
X298005134Y-166402958D01*
X298002522Y-166443143D01*
X297996560Y-166467821D01*
X297985885Y-166483305D01*
X297969129Y-166495909D01*
X297947087Y-166508909D01*
X297924532Y-166511417D01*
X297895846Y-166495909D01*
X297859204Y-166471901D01*
X297859204Y-166113488D01*
X297859204Y-165755075D01*
X297895846Y-165731067D01*
X297917888Y-165718067D01*
X297940443Y-165715559D01*
X297969129Y-165731067D01*
G37*
G36*
X297623283Y-166828570D02*
G01*
X297645438Y-166845803D01*
X297659365Y-166880101D01*
X297666597Y-166935470D01*
X297668667Y-167015920D01*
X297668667Y-167161440D01*
X297778592Y-167161440D01*
X297888517Y-167161440D01*
X297888517Y-167132126D01*
X298035084Y-167132126D01*
X298035084Y-167258417D01*
X298035401Y-167318519D01*
X298037356Y-167355540D01*
X298042450Y-167373874D01*
X298052185Y-167378869D01*
X298068062Y-167375871D01*
X298076134Y-167374612D01*
X298112366Y-167372167D01*
X298170991Y-167370052D01*
X298247334Y-167368381D01*
X298336721Y-167367269D01*
X298434478Y-167366833D01*
X298767917Y-167366633D01*
X298767917Y-167249380D01*
X298767917Y-167132126D01*
X298401501Y-167132126D01*
X298035084Y-167132126D01*
X297888517Y-167132126D01*
X297888517Y-167100303D01*
X297888699Y-167071428D01*
X297891135Y-167045474D01*
X297898828Y-167025358D01*
X297914785Y-167010338D01*
X297942014Y-166999668D01*
X297983521Y-166992606D01*
X298042314Y-166988408D01*
X298121399Y-166986330D01*
X298223783Y-166985628D01*
X298352474Y-166985560D01*
X298401501Y-166985560D01*
X298767917Y-166985560D01*
X298767917Y-166937522D01*
X298771857Y-166901156D01*
X298790650Y-166857533D01*
X298820300Y-166831508D01*
X298855627Y-166826860D01*
X298891452Y-166847368D01*
X298902002Y-166863915D01*
X298909433Y-166894436D01*
X298913346Y-166943285D01*
X298914484Y-167015920D01*
X298914484Y-167161440D01*
X299028476Y-167161440D01*
X299083627Y-167162881D01*
X299140267Y-167170194D01*
X299175043Y-167184256D01*
X299180273Y-167188303D01*
X299202690Y-167221718D01*
X299205763Y-167260071D01*
X299188035Y-167291356D01*
X299183632Y-167293891D01*
X299153177Y-167301951D01*
X299104254Y-167308874D01*
X299045132Y-167313385D01*
X298921812Y-167319163D01*
X298917426Y-167401199D01*
X298916409Y-167421065D01*
X298913949Y-167450820D01*
X298908165Y-167474466D01*
X298896170Y-167492705D01*
X298875076Y-167506237D01*
X298841996Y-167515764D01*
X298794042Y-167521987D01*
X298728326Y-167525606D01*
X298641960Y-167527324D01*
X298532057Y-167527840D01*
X298395729Y-167527856D01*
X298318900Y-167527873D01*
X298198355Y-167527704D01*
X298102693Y-167526669D01*
X298029041Y-167524049D01*
X297974527Y-167519127D01*
X297936280Y-167511183D01*
X297911427Y-167499499D01*
X297897096Y-167483357D01*
X297890415Y-167462040D01*
X297888513Y-167434828D01*
X297888517Y-167401003D01*
X297888517Y-167322663D01*
X297778592Y-167322663D01*
X297668667Y-167322663D01*
X297668667Y-167460854D01*
X297667489Y-167520848D01*
X297661225Y-167581178D01*
X297648141Y-167619347D01*
X297626651Y-167639332D01*
X297595168Y-167645109D01*
X297588977Y-167644832D01*
X297558477Y-167631366D01*
X297537716Y-167596089D01*
X297525867Y-167536803D01*
X297522101Y-167451312D01*
X297522101Y-167322663D01*
X297332611Y-167322663D01*
X297244230Y-167321582D01*
X297180471Y-167317394D01*
X297137915Y-167308712D01*
X297112522Y-167294150D01*
X297100250Y-167272320D01*
X297097057Y-167241835D01*
X297098585Y-167223851D01*
X297110488Y-167198248D01*
X297137213Y-167180381D01*
X297182343Y-167169074D01*
X297249462Y-167163152D01*
X297342154Y-167161440D01*
X297522101Y-167161440D01*
X297522101Y-167015920D01*
X297523720Y-166942985D01*
X297530312Y-166885064D01*
X297543431Y-166848655D01*
X297564611Y-166829748D01*
X297595384Y-166824336D01*
X297623283Y-166828570D01*
G37*
G36*
X295348860Y-164455629D02*
G01*
X295378967Y-164472773D01*
X295383949Y-164476419D01*
X295398574Y-164491851D01*
X295406913Y-164514742D01*
X295410668Y-164552370D01*
X295411541Y-164612011D01*
X295411541Y-164728433D01*
X295451847Y-164728243D01*
X295452415Y-164728238D01*
X295483015Y-164725774D01*
X295535142Y-164719478D01*
X295601641Y-164710283D01*
X295675361Y-164699120D01*
X295740710Y-164688862D01*
X295808020Y-164678845D01*
X295854723Y-164673290D01*
X295885626Y-164672095D01*
X295905535Y-164675156D01*
X295919258Y-164682370D01*
X295931601Y-164693634D01*
X295947227Y-164713154D01*
X295954753Y-164745585D01*
X295938499Y-164780400D01*
X295897117Y-164819876D01*
X295829256Y-164866288D01*
X295827758Y-164867218D01*
X295768260Y-164904172D01*
X295693556Y-164950580D01*
X295613044Y-165000605D01*
X295536123Y-165048406D01*
X295440706Y-165107748D01*
X295344186Y-165167668D01*
X295267801Y-165214557D01*
X295208869Y-165249666D01*
X295164709Y-165274247D01*
X295132638Y-165289551D01*
X295109976Y-165296831D01*
X295094041Y-165297337D01*
X295082151Y-165292321D01*
X295071625Y-165283035D01*
X295059781Y-165270730D01*
X295052643Y-165262881D01*
X295041210Y-165243022D01*
X295034472Y-165213905D01*
X295031277Y-165168853D01*
X295030468Y-165101190D01*
X295030153Y-165045099D01*
X295028407Y-165000922D01*
X295024250Y-164976862D01*
X295016711Y-164967916D01*
X295004819Y-164969083D01*
X295001415Y-164970120D01*
X294967242Y-164979149D01*
X294913751Y-164992057D01*
X294846925Y-165007525D01*
X294772747Y-165024232D01*
X294697198Y-165040860D01*
X294626263Y-165056089D01*
X294565922Y-165068601D01*
X294522160Y-165077075D01*
X294500958Y-165080193D01*
X294486687Y-165077995D01*
X294457709Y-165056837D01*
X294442764Y-165021734D01*
X294447644Y-164983221D01*
X294460660Y-164960017D01*
X294473182Y-164948283D01*
X294480196Y-164945008D01*
X294509684Y-164928625D01*
X294559256Y-164900048D01*
X294625897Y-164861043D01*
X294649499Y-164847102D01*
X294935199Y-164847102D01*
X295034802Y-164837828D01*
X295056506Y-164835921D01*
X295112425Y-164834157D01*
X295147739Y-164842947D01*
X295167146Y-164866965D01*
X295175345Y-164910887D01*
X295177034Y-164979391D01*
X295177073Y-164994404D01*
X295177851Y-165045547D01*
X295179427Y-165081359D01*
X295181529Y-165094850D01*
X295186657Y-165092326D01*
X295212791Y-165077485D01*
X295257078Y-165051575D01*
X295315145Y-165017164D01*
X295382616Y-164976818D01*
X295422234Y-164952950D01*
X295485465Y-164914489D01*
X295536995Y-164882675D01*
X295572331Y-164860294D01*
X295586978Y-164850131D01*
X295587369Y-164849622D01*
X295578807Y-164846458D01*
X295550779Y-164849788D01*
X295523714Y-164854254D01*
X295472127Y-164861476D01*
X295415310Y-164868432D01*
X295357598Y-164872912D01*
X295316081Y-164867527D01*
X295292539Y-164846881D01*
X295282035Y-164806346D01*
X295279631Y-164741295D01*
X295279629Y-164738723D01*
X295278639Y-164689138D01*
X295276192Y-164653901D01*
X295272797Y-164640493D01*
X295272563Y-164640516D01*
X295256581Y-164648538D01*
X295223237Y-164668202D01*
X295179418Y-164695456D01*
X295135760Y-164723021D01*
X295070926Y-164763569D01*
X295014036Y-164798760D01*
X294935199Y-164847102D01*
X294649499Y-164847102D01*
X294706598Y-164813376D01*
X294798346Y-164758813D01*
X294898128Y-164699120D01*
X294964664Y-164659330D01*
X295060066Y-164602743D01*
X295145755Y-164552469D01*
X295218658Y-164510280D01*
X295272797Y-164479595D01*
X295275702Y-164477949D01*
X295313815Y-164457250D01*
X295329924Y-164449957D01*
X295348860Y-164455629D01*
G37*
G36*
X301119474Y-162971919D02*
G01*
X301132199Y-162978185D01*
X301144139Y-162988273D01*
X301151448Y-163005466D01*
X301155264Y-163035316D01*
X301156720Y-163083374D01*
X301156954Y-163155194D01*
X301156954Y-163321393D01*
X301315246Y-163321393D01*
X301358528Y-163321648D01*
X301424580Y-163324299D01*
X301468130Y-163331225D01*
X301493673Y-163344128D01*
X301505702Y-163364711D01*
X301508714Y-163394677D01*
X301501766Y-163432847D01*
X301474674Y-163459470D01*
X301425258Y-163467960D01*
X301376979Y-163467960D01*
X301453497Y-163621817D01*
X301530015Y-163775673D01*
X301564396Y-163731742D01*
X301587428Y-163707890D01*
X301626133Y-163688642D01*
X301661312Y-163694171D01*
X301687414Y-163724789D01*
X301694916Y-163745627D01*
X301692600Y-163772030D01*
X301672005Y-163805401D01*
X301639746Y-163849033D01*
X301808736Y-163849033D01*
X301977727Y-163849033D01*
X301977727Y-163778681D01*
X301978505Y-163752856D01*
X301988241Y-163705781D01*
X302011439Y-163680612D01*
X302051010Y-163673153D01*
X302068945Y-163674273D01*
X302101635Y-163688294D01*
X302119114Y-163721700D01*
X302124293Y-163778681D01*
X302124293Y-163849033D01*
X302248875Y-163849033D01*
X302373457Y-163849033D01*
X302373457Y-163778681D01*
X302373844Y-163760335D01*
X302382480Y-163709518D01*
X302404198Y-163681649D01*
X302441296Y-163673153D01*
X302443778Y-163673184D01*
X302485645Y-163686680D01*
X302511306Y-163724007D01*
X302520023Y-163784125D01*
X302520023Y-163849033D01*
X302632459Y-163849033D01*
X302646006Y-163849091D01*
X302707436Y-163851852D01*
X302747224Y-163859550D01*
X302771697Y-163873290D01*
X302791934Y-163902848D01*
X302797146Y-163943441D01*
X302780912Y-163978012D01*
X302757789Y-163987155D01*
X302709616Y-163993387D01*
X302641674Y-163995600D01*
X302520023Y-163995600D01*
X302520023Y-164072950D01*
X302518436Y-164106157D01*
X302505361Y-164164128D01*
X302480830Y-164201933D01*
X302446956Y-164215450D01*
X302429934Y-164213716D01*
X302397910Y-164193975D01*
X302379408Y-164150820D01*
X302373457Y-164082493D01*
X302373457Y-163995600D01*
X302248875Y-163995600D01*
X302124293Y-163995600D01*
X302124293Y-164082493D01*
X302120632Y-164133142D01*
X302104889Y-164184146D01*
X302078792Y-164212184D01*
X302044589Y-164215213D01*
X302004530Y-164191193D01*
X301990646Y-164173158D01*
X301980638Y-164137717D01*
X301977727Y-164081268D01*
X301977727Y-163995600D01*
X301680197Y-163995600D01*
X301568718Y-163994992D01*
X301482156Y-163993045D01*
X301420751Y-163989644D01*
X301382420Y-163984672D01*
X301365078Y-163978012D01*
X301350867Y-163953907D01*
X301351540Y-163913024D01*
X301375146Y-163871963D01*
X301380119Y-163866399D01*
X301388501Y-163853866D01*
X301390907Y-163838556D01*
X301386005Y-163815733D01*
X301372468Y-163780662D01*
X301348963Y-163728607D01*
X301314162Y-163654833D01*
X301225523Y-163467960D01*
X301074970Y-163467960D01*
X300924417Y-163467960D01*
X300819395Y-163676818D01*
X300808766Y-163697971D01*
X300765229Y-163784042D01*
X300730807Y-163848062D01*
X300701838Y-163893290D01*
X300674656Y-163922985D01*
X300645601Y-163940407D01*
X300611007Y-163948815D01*
X300567212Y-163951469D01*
X300510552Y-163951630D01*
X300442206Y-163950173D01*
X300383412Y-163943697D01*
X300346365Y-163930600D01*
X300327068Y-163909333D01*
X300321524Y-163878347D01*
X300321743Y-163871441D01*
X300331905Y-163839944D01*
X300359865Y-163819474D01*
X300409246Y-163808393D01*
X300483672Y-163805063D01*
X300599755Y-163805063D01*
X300680490Y-163644084D01*
X300682317Y-163640438D01*
X300713027Y-163578561D01*
X300738109Y-163526914D01*
X300755021Y-163490802D01*
X300761224Y-163475532D01*
X300752698Y-163470629D01*
X300725629Y-163467960D01*
X300691846Y-163462079D01*
X300658743Y-163436595D01*
X300646605Y-163396951D01*
X300659143Y-163349743D01*
X300660843Y-163346739D01*
X300671050Y-163335378D01*
X300688885Y-163328002D01*
X300719767Y-163323771D01*
X300769116Y-163321848D01*
X300842351Y-163321393D01*
X301010387Y-163321393D01*
X301010387Y-163176025D01*
X301010705Y-163137037D01*
X301012513Y-163077155D01*
X301015561Y-163031281D01*
X301019440Y-163007067D01*
X301037357Y-162980631D01*
X301074633Y-162964148D01*
X301119474Y-162971919D01*
G37*
G36*
X298201568Y-164992255D02*
G01*
X298422592Y-164992287D01*
X298616879Y-164992386D01*
X298786239Y-164992589D01*
X298856929Y-164992755D01*
X298932485Y-164992932D01*
X299057430Y-164993453D01*
X299162884Y-164994186D01*
X299250659Y-164995168D01*
X299322568Y-164996437D01*
X299380423Y-164998027D01*
X299426035Y-164999976D01*
X299461215Y-165002320D01*
X299487777Y-165005095D01*
X299507531Y-165008338D01*
X299522290Y-165012084D01*
X299533866Y-165016371D01*
X299544070Y-165021235D01*
X299583948Y-165046978D01*
X299640801Y-165107245D01*
X299676946Y-165179732D01*
X299677602Y-165183987D01*
X299679257Y-165214601D01*
X299680784Y-165271671D01*
X299682168Y-165353124D01*
X299683398Y-165456888D01*
X299684458Y-165580889D01*
X299685336Y-165723055D01*
X299686018Y-165881313D01*
X299686490Y-166053589D01*
X299686738Y-166237810D01*
X299686749Y-166431905D01*
X299686509Y-166633800D01*
X299683959Y-168048168D01*
X299650243Y-168102391D01*
X299645286Y-168109889D01*
X299606564Y-168154472D01*
X299562303Y-168190331D01*
X299508079Y-168224048D01*
X298141111Y-168228214D01*
X298109516Y-168228308D01*
X297847825Y-168228926D01*
X297614817Y-168229159D01*
X297409926Y-168229002D01*
X297232588Y-168228450D01*
X297082238Y-168227500D01*
X296958313Y-168226146D01*
X296860246Y-168224385D01*
X296787475Y-168222210D01*
X296739434Y-168219618D01*
X296715558Y-168216605D01*
X296681932Y-168204508D01*
X296619538Y-168166039D01*
X296569237Y-168114562D01*
X296539588Y-168057801D01*
X296539142Y-168055989D01*
X296536270Y-168028856D01*
X296533806Y-167976068D01*
X296531746Y-167897218D01*
X296530089Y-167791900D01*
X296528831Y-167659708D01*
X296527968Y-167500236D01*
X296527498Y-167313078D01*
X296527433Y-167137670D01*
X296688783Y-167137670D01*
X296688868Y-167304214D01*
X296689138Y-167456485D01*
X296689584Y-167592334D01*
X296690202Y-167709612D01*
X296690982Y-167806172D01*
X296691920Y-167879864D01*
X296693007Y-167928541D01*
X296694237Y-167950053D01*
X296708476Y-167992031D01*
X296731458Y-168027000D01*
X296732317Y-168027848D01*
X296738034Y-168032604D01*
X296745977Y-168036781D01*
X296757951Y-168040416D01*
X296775763Y-168043548D01*
X296801219Y-168046213D01*
X296836124Y-168048450D01*
X296882284Y-168050296D01*
X296941505Y-168051788D01*
X297015593Y-168052963D01*
X297106353Y-168053861D01*
X297215592Y-168054517D01*
X297345115Y-168054969D01*
X297496728Y-168055256D01*
X297672237Y-168055414D01*
X297873448Y-168055482D01*
X298102166Y-168055496D01*
X299444379Y-168055496D01*
X299487221Y-168012654D01*
X299530064Y-167969811D01*
X299529848Y-166616606D01*
X299529819Y-166517541D01*
X299529632Y-166287611D01*
X299529265Y-166084909D01*
X299528696Y-165907943D01*
X299527906Y-165755219D01*
X299526876Y-165625246D01*
X299525585Y-165516530D01*
X299524012Y-165427579D01*
X299522139Y-165356899D01*
X299519945Y-165303000D01*
X299517410Y-165264386D01*
X299514515Y-165239567D01*
X299511238Y-165227049D01*
X299508819Y-165222179D01*
X299502863Y-165210429D01*
X299496068Y-165200105D01*
X299486654Y-165191120D01*
X299472840Y-165183387D01*
X299452848Y-165176820D01*
X299424897Y-165171331D01*
X299387209Y-165166833D01*
X299338004Y-165163239D01*
X299275501Y-165160463D01*
X299197922Y-165158417D01*
X299103487Y-165157014D01*
X298990416Y-165156167D01*
X298856929Y-165155790D01*
X298701248Y-165155795D01*
X298521592Y-165156095D01*
X298316182Y-165156603D01*
X298083238Y-165157232D01*
X297950273Y-165157594D01*
X297737384Y-165158223D01*
X297550990Y-165158872D01*
X297389292Y-165159580D01*
X297250491Y-165160386D01*
X297132785Y-165161330D01*
X297034377Y-165162451D01*
X296953467Y-165163788D01*
X296888255Y-165165380D01*
X296836942Y-165167267D01*
X296797728Y-165169487D01*
X296768814Y-165172081D01*
X296748401Y-165175088D01*
X296734688Y-165178546D01*
X296725877Y-165182495D01*
X296720169Y-165186974D01*
X296717406Y-165190144D01*
X296713259Y-165197509D01*
X296709615Y-165209069D01*
X296706431Y-165226616D01*
X296703670Y-165251946D01*
X296701291Y-165286853D01*
X296699254Y-165333131D01*
X296697520Y-165392574D01*
X296696048Y-165466976D01*
X296694799Y-165558132D01*
X296693733Y-165667836D01*
X296692810Y-165797882D01*
X296691991Y-165950065D01*
X296691235Y-166126178D01*
X296690503Y-166328015D01*
X296689755Y-166557372D01*
X296689704Y-166573886D01*
X296689194Y-166770358D01*
X296688890Y-166959002D01*
X296688783Y-167137670D01*
X296527433Y-167137670D01*
X296527418Y-167097827D01*
X296527724Y-166854077D01*
X296528414Y-166581423D01*
X296532776Y-165158648D01*
X296569166Y-165105545D01*
X296575067Y-165097450D01*
X296615039Y-165055155D01*
X296659101Y-165022348D01*
X296665329Y-165018935D01*
X296675226Y-165014288D01*
X296687323Y-165010215D01*
X296703429Y-165006677D01*
X296725350Y-165003637D01*
X296754894Y-165001058D01*
X296793869Y-164998901D01*
X296844082Y-164997128D01*
X296907340Y-164995702D01*
X296985452Y-164994585D01*
X297080224Y-164993740D01*
X297193465Y-164993128D01*
X297326981Y-164992713D01*
X297482581Y-164992455D01*
X297662071Y-164992318D01*
X297867260Y-164992263D01*
X298099954Y-164992253D01*
X298201568Y-164992255D01*
G37*
G36*
X302461610Y-161520494D02*
G01*
X302585860Y-161520729D01*
X302690977Y-161521220D01*
X302778704Y-161521993D01*
X302850786Y-161523076D01*
X302908966Y-161524496D01*
X302954989Y-161526280D01*
X302990599Y-161528457D01*
X303017539Y-161531052D01*
X303037555Y-161534094D01*
X303052390Y-161537610D01*
X303063788Y-161541627D01*
X303073494Y-161546172D01*
X303117610Y-161572255D01*
X303165048Y-161617448D01*
X303200487Y-161680283D01*
X303203056Y-161687383D01*
X303206485Y-161702316D01*
X303209477Y-161724047D01*
X303212055Y-161754309D01*
X303214240Y-161794833D01*
X303216056Y-161847352D01*
X303217524Y-161913596D01*
X303218667Y-161995298D01*
X303219508Y-162094190D01*
X303220069Y-162212004D01*
X303220372Y-162350471D01*
X303220440Y-162511324D01*
X303220296Y-162696294D01*
X303219961Y-162907113D01*
X303219458Y-163145513D01*
X303216215Y-164559882D01*
X303182457Y-164618760D01*
X303175344Y-164630205D01*
X303137578Y-164676877D01*
X303095590Y-164714028D01*
X303042483Y-164750418D01*
X301560015Y-164750418D01*
X300077548Y-164750418D01*
X300018103Y-164711079D01*
X299969173Y-164668014D01*
X299927569Y-164607520D01*
X299922419Y-164596564D01*
X299917863Y-164585057D01*
X299913874Y-164571222D01*
X299910415Y-164553260D01*
X299907448Y-164529373D01*
X299904935Y-164497760D01*
X299904855Y-164496181D01*
X300057704Y-164496181D01*
X300100546Y-164539024D01*
X300143389Y-164581867D01*
X301560012Y-164581867D01*
X302976635Y-164581867D01*
X303019477Y-164539024D01*
X303062320Y-164496181D01*
X303062320Y-163133961D01*
X303062318Y-162987844D01*
X303062288Y-162774702D01*
X303062192Y-162587949D01*
X303061991Y-162425778D01*
X303061644Y-162286386D01*
X303061114Y-162167966D01*
X303060360Y-162068712D01*
X303059345Y-161986820D01*
X303058028Y-161920483D01*
X303056370Y-161867896D01*
X303054333Y-161827254D01*
X303051877Y-161796751D01*
X303048962Y-161774580D01*
X303045551Y-161758938D01*
X303041604Y-161748018D01*
X303037081Y-161740014D01*
X303031943Y-161733122D01*
X303001566Y-161694504D01*
X302086588Y-161694504D01*
X301171610Y-161694504D01*
X301171687Y-161932674D01*
X301171763Y-162170845D01*
X301321917Y-162175859D01*
X301366023Y-162177950D01*
X301424845Y-162182865D01*
X301468691Y-162189158D01*
X301490393Y-162195975D01*
X301496900Y-162203439D01*
X301507389Y-162237089D01*
X301505498Y-162276762D01*
X301491126Y-162307152D01*
X301469120Y-162318801D01*
X301432499Y-162324740D01*
X301404153Y-162326863D01*
X301391460Y-162332361D01*
X301394567Y-162340570D01*
X301408011Y-162369858D01*
X301429047Y-162413747D01*
X301454334Y-162465472D01*
X301480536Y-162518273D01*
X301504313Y-162565386D01*
X301522327Y-162600050D01*
X301531239Y-162615500D01*
X301532580Y-162615877D01*
X301549921Y-162607971D01*
X301579171Y-162588332D01*
X301608533Y-162571155D01*
X301647233Y-162564183D01*
X301674364Y-162578912D01*
X301684594Y-162614043D01*
X301679367Y-162643413D01*
X301660337Y-162679010D01*
X301653215Y-162687520D01*
X301650576Y-162696158D01*
X301660417Y-162701537D01*
X301686946Y-162704426D01*
X301734373Y-162705595D01*
X301806904Y-162705813D01*
X301977727Y-162705813D01*
X301977727Y-162633577D01*
X301977853Y-162624413D01*
X301987532Y-162564183D01*
X302011498Y-162527523D01*
X302048164Y-162515817D01*
X302095944Y-162530449D01*
X302097168Y-162531120D01*
X302113844Y-162547060D01*
X302122083Y-162575893D01*
X302124293Y-162625717D01*
X302124293Y-162705813D01*
X302248144Y-162705813D01*
X302371994Y-162705813D01*
X302376390Y-162621827D01*
X302379161Y-162582005D01*
X302385518Y-162550876D01*
X302398693Y-162534072D01*
X302422625Y-162523190D01*
X302441226Y-162517601D01*
X302467724Y-162519526D01*
X302492244Y-162542845D01*
X302510952Y-162578772D01*
X302520023Y-162641482D01*
X302520023Y-162705813D01*
X302641674Y-162705813D01*
X302693733Y-162706709D01*
X302746722Y-162712177D01*
X302778666Y-162724579D01*
X302794336Y-162746143D01*
X302798500Y-162779097D01*
X302796584Y-162803424D01*
X302784882Y-162828185D01*
X302758342Y-162843112D01*
X302712196Y-162850434D01*
X302641674Y-162852380D01*
X302520023Y-162852380D01*
X302520023Y-162933955D01*
X302517142Y-162993566D01*
X302505353Y-163039816D01*
X302482561Y-163064763D01*
X302446740Y-163072230D01*
X302415148Y-163066793D01*
X302390636Y-163044550D01*
X302377414Y-163001544D01*
X302373457Y-162933955D01*
X302373457Y-162852380D01*
X302249575Y-162852380D01*
X302125692Y-162852380D01*
X302121329Y-162943490D01*
X302118594Y-162985344D01*
X302112270Y-163020253D01*
X302099736Y-163041125D01*
X302077661Y-163056593D01*
X302054421Y-163068166D01*
X302032335Y-163069004D01*
X302008042Y-163051152D01*
X302007137Y-163050324D01*
X301989150Y-163026559D01*
X301980171Y-162992208D01*
X301977727Y-162938049D01*
X301977727Y-162852380D01*
X301680197Y-162852380D01*
X301568718Y-162851772D01*
X301482156Y-162849825D01*
X301420751Y-162846424D01*
X301382420Y-162841452D01*
X301365078Y-162834792D01*
X301349147Y-162802221D01*
X301353120Y-162760645D01*
X301377226Y-162723223D01*
X301383303Y-162717453D01*
X301392245Y-162706051D01*
X301395043Y-162691655D01*
X301390419Y-162669565D01*
X301377091Y-162635081D01*
X301353781Y-162583503D01*
X301319210Y-162510130D01*
X301231458Y-162324740D01*
X301077044Y-162324740D01*
X300922630Y-162324740D01*
X300811046Y-162548254D01*
X300783004Y-162603820D01*
X300746477Y-162674366D01*
X300714815Y-162733453D01*
X300690690Y-162776123D01*
X300676773Y-162797418D01*
X300674766Y-162799578D01*
X300657406Y-162811333D01*
X300629300Y-162818509D01*
X300584274Y-162822092D01*
X300516154Y-162823067D01*
X300484833Y-162822688D01*
X300424322Y-162819764D01*
X300376579Y-162814582D01*
X300349874Y-162807894D01*
X300334058Y-162792159D01*
X300322372Y-162757746D01*
X300323898Y-162721080D01*
X300339845Y-162695686D01*
X300342757Y-162694262D01*
X300370897Y-162687687D01*
X300417933Y-162681368D01*
X300475419Y-162676500D01*
X300592672Y-162669172D01*
X300676367Y-162507948D01*
X300678579Y-162503683D01*
X300710354Y-162441625D01*
X300736379Y-162389359D01*
X300754020Y-162352267D01*
X300760643Y-162335733D01*
X300755031Y-162329205D01*
X300730947Y-162324740D01*
X300691409Y-162318618D01*
X300656461Y-162293774D01*
X300643970Y-162252736D01*
X300644817Y-162235217D01*
X300652957Y-162208699D01*
X300673252Y-162190808D01*
X300709978Y-162179872D01*
X300767406Y-162174218D01*
X300849810Y-162172174D01*
X301010376Y-162170845D01*
X301010395Y-161929010D01*
X301010413Y-161687175D01*
X300556654Y-161694504D01*
X300535273Y-161694850D01*
X300412005Y-161696955D01*
X300314370Y-161698969D01*
X300239179Y-161701138D01*
X300183243Y-161703707D01*
X300143372Y-161706921D01*
X300116378Y-161711027D01*
X300099071Y-161716269D01*
X300088264Y-161722893D01*
X300080766Y-161731145D01*
X300078962Y-161734086D01*
X300075388Y-161744396D01*
X300072247Y-161761517D01*
X300069511Y-161787180D01*
X300067153Y-161823117D01*
X300065145Y-161871059D01*
X300063458Y-161932735D01*
X300062064Y-162009878D01*
X300060935Y-162104217D01*
X300060044Y-162217484D01*
X300059362Y-162351410D01*
X300058862Y-162507726D01*
X300058515Y-162688162D01*
X300058294Y-162894450D01*
X300058170Y-163128320D01*
X300057704Y-164496181D01*
X299904855Y-164496181D01*
X299902838Y-164456623D01*
X299901121Y-164404163D01*
X299899744Y-164338581D01*
X299898671Y-164258077D01*
X299897863Y-164160854D01*
X299897284Y-164045111D01*
X299896894Y-163909051D01*
X299896656Y-163750873D01*
X299896533Y-163568779D01*
X299896487Y-163360969D01*
X299896480Y-163125645D01*
X299896485Y-162979007D01*
X299896525Y-162760447D01*
X299896636Y-162568321D01*
X299896855Y-162400837D01*
X299897217Y-162256205D01*
X299897755Y-162132634D01*
X299898507Y-162028332D01*
X299899506Y-161941510D01*
X299900788Y-161870375D01*
X299902389Y-161813139D01*
X299904343Y-161768009D01*
X299906686Y-161733195D01*
X299909453Y-161706906D01*
X299912678Y-161687351D01*
X299916398Y-161672740D01*
X299920648Y-161661281D01*
X299925462Y-161651184D01*
X299930232Y-161642480D01*
X299963839Y-161596573D01*
X300002409Y-161560164D01*
X300050375Y-161525952D01*
X301010413Y-161523449D01*
X301534544Y-161522082D01*
X301738386Y-161521561D01*
X301956614Y-161521048D01*
X302148730Y-161520681D01*
X302316481Y-161520487D01*
X302461610Y-161520494D01*
G37*
G36*
X301508714Y-164992253D02*
G01*
X301549353Y-164992253D01*
X301659232Y-164992274D01*
X301923294Y-164992519D01*
X302158630Y-164993045D01*
X302365659Y-164993857D01*
X302544804Y-164994957D01*
X302696485Y-164996352D01*
X302821126Y-164998045D01*
X302919146Y-165000040D01*
X302990968Y-165002343D01*
X303037012Y-165004957D01*
X303057702Y-165007886D01*
X303085839Y-165020973D01*
X303148272Y-165071910D01*
X303195842Y-165146148D01*
X303196240Y-165147017D01*
X303200712Y-165158026D01*
X303204657Y-165171391D01*
X303208106Y-165188911D01*
X303211095Y-165212382D01*
X303213656Y-165243601D01*
X303215824Y-165284366D01*
X303217631Y-165336474D01*
X303219112Y-165401721D01*
X303220299Y-165481905D01*
X303221227Y-165578822D01*
X303221929Y-165694271D01*
X303222438Y-165830047D01*
X303222788Y-165987948D01*
X303223013Y-166169772D01*
X303223146Y-166377314D01*
X303223221Y-166612373D01*
X303223543Y-168019972D01*
X303190566Y-168084510D01*
X303154031Y-168141452D01*
X303098109Y-168189372D01*
X303024544Y-168217343D01*
X303022438Y-168217714D01*
X302994192Y-168219669D01*
X302938928Y-168221514D01*
X302858583Y-168223233D01*
X302755093Y-168224808D01*
X302630397Y-168226223D01*
X302486431Y-168227460D01*
X302325133Y-168228502D01*
X302148439Y-168229333D01*
X301958286Y-168229935D01*
X301756613Y-168230290D01*
X301545355Y-168230383D01*
X301383837Y-168230349D01*
X301160672Y-168230266D01*
X300963903Y-168230079D01*
X300791766Y-168229710D01*
X300642500Y-168229085D01*
X300514342Y-168228128D01*
X300405530Y-168226763D01*
X300314301Y-168224914D01*
X300238893Y-168222505D01*
X300177544Y-168219461D01*
X300128491Y-168215707D01*
X300089973Y-168211165D01*
X300060225Y-168205761D01*
X300037487Y-168199419D01*
X300019996Y-168192062D01*
X300005990Y-168183616D01*
X299993705Y-168174004D01*
X299981380Y-168163150D01*
X299974883Y-168156697D01*
X299948201Y-168121052D01*
X299924046Y-168077481D01*
X299923651Y-168076614D01*
X299919209Y-168065586D01*
X299915290Y-168052133D01*
X299911862Y-168034465D01*
X299908890Y-168010787D01*
X299906343Y-167979309D01*
X299905608Y-167965307D01*
X300057704Y-167965307D01*
X300095648Y-168010402D01*
X300133593Y-168055496D01*
X301557651Y-168055030D01*
X301770875Y-168054970D01*
X301984607Y-168054888D01*
X302172306Y-168054713D01*
X302335711Y-168054366D01*
X302476558Y-168053767D01*
X302596585Y-168052837D01*
X302697528Y-168051495D01*
X302781126Y-168049664D01*
X302849115Y-168047262D01*
X302903233Y-168044209D01*
X302945216Y-168040428D01*
X302976803Y-168035837D01*
X302999730Y-168030358D01*
X303015734Y-168023910D01*
X303026553Y-168016413D01*
X303033923Y-168007790D01*
X303039583Y-167997959D01*
X303045269Y-167986840D01*
X303046738Y-167982381D01*
X303049690Y-167960805D01*
X303052291Y-167922023D01*
X303054554Y-167864823D01*
X303056496Y-167787996D01*
X303058130Y-167690330D01*
X303059472Y-167570616D01*
X303060537Y-167427642D01*
X303061340Y-167260198D01*
X303061894Y-167067073D01*
X303062216Y-166847057D01*
X303062320Y-166598939D01*
X303062320Y-165243051D01*
X303026955Y-165201928D01*
X302991591Y-165160805D01*
X302250152Y-165156749D01*
X301508714Y-165152693D01*
X301508714Y-165474960D01*
X301508682Y-165529990D01*
X301508300Y-165622912D01*
X301507231Y-165692329D01*
X301505160Y-165742145D01*
X301501772Y-165776263D01*
X301496750Y-165798589D01*
X301489779Y-165813024D01*
X301480543Y-165823473D01*
X301477453Y-165825829D01*
X301449184Y-165840373D01*
X301398857Y-165861806D01*
X301331095Y-165888304D01*
X301250522Y-165918043D01*
X301161761Y-165949201D01*
X301137712Y-165957482D01*
X301051352Y-165988039D01*
X300974849Y-166016348D01*
X300912697Y-166040668D01*
X300869388Y-166059256D01*
X300849412Y-166070369D01*
X300847462Y-166072336D01*
X300837844Y-166083549D01*
X300833001Y-166094351D01*
X300834710Y-166105468D01*
X300844750Y-166117626D01*
X300864898Y-166131550D01*
X300896934Y-166147966D01*
X300942634Y-166167600D01*
X301003778Y-166191178D01*
X301082142Y-166219425D01*
X301179507Y-166253067D01*
X301297648Y-166292829D01*
X301438345Y-166339439D01*
X301603376Y-166393620D01*
X301794519Y-166456099D01*
X301876829Y-166483028D01*
X302009099Y-166526727D01*
X302117413Y-166563416D01*
X302204367Y-166594277D01*
X302272557Y-166620487D01*
X302324577Y-166643225D01*
X302363024Y-166663672D01*
X302390493Y-166683005D01*
X302409581Y-166702403D01*
X302422882Y-166723047D01*
X302432992Y-166746114D01*
X302445380Y-166803810D01*
X302441147Y-166875088D01*
X302417947Y-166937334D01*
X302414200Y-166943230D01*
X302387745Y-166974261D01*
X302349880Y-167001826D01*
X302296252Y-167028127D01*
X302222508Y-167055362D01*
X302124293Y-167085732D01*
X302062285Y-167103867D01*
X301924060Y-167144580D01*
X301810760Y-167178439D01*
X301720009Y-167206167D01*
X301649432Y-167228486D01*
X301596654Y-167246117D01*
X301516042Y-167274139D01*
X301512075Y-167560224D01*
X301510596Y-167653743D01*
X301508716Y-167729338D01*
X301506105Y-167783688D01*
X301502330Y-167820961D01*
X301496957Y-167845328D01*
X301489554Y-167860961D01*
X301479688Y-167872028D01*
X301466523Y-167881517D01*
X301426241Y-167890324D01*
X301387831Y-167876135D01*
X301361629Y-167841611D01*
X301361379Y-167840910D01*
X301356992Y-167813552D01*
X301353180Y-167762416D01*
X301350172Y-167692753D01*
X301348199Y-167609813D01*
X301347490Y-167518846D01*
X301347612Y-167462677D01*
X301348695Y-167369009D01*
X301351107Y-167298934D01*
X301355094Y-167248630D01*
X301360908Y-167214281D01*
X301368796Y-167192066D01*
X301371560Y-167186978D01*
X301381729Y-167172570D01*
X301396764Y-167158983D01*
X301419571Y-167145082D01*
X301453059Y-167129731D01*
X301500133Y-167111796D01*
X301563703Y-167090140D01*
X301646676Y-167063628D01*
X301751958Y-167031126D01*
X301882459Y-166991497D01*
X301918544Y-166980568D01*
X302028833Y-166946788D01*
X302114771Y-166919546D01*
X302179331Y-166897609D01*
X302225486Y-166879743D01*
X302256209Y-166864716D01*
X302274473Y-166851294D01*
X302283251Y-166838245D01*
X302285517Y-166824336D01*
X302284094Y-166813236D01*
X302275419Y-166798363D01*
X302255837Y-166783288D01*
X302221911Y-166766374D01*
X302170207Y-166745986D01*
X302097285Y-166720487D01*
X301999712Y-166688240D01*
X301988861Y-166684706D01*
X301778019Y-166616012D01*
X301593190Y-166555716D01*
X301432589Y-166503205D01*
X301294431Y-166457865D01*
X301176931Y-166419082D01*
X301078303Y-166386242D01*
X300996763Y-166358732D01*
X300930526Y-166335937D01*
X300877807Y-166317243D01*
X300836821Y-166302037D01*
X300805782Y-166289704D01*
X300782906Y-166279631D01*
X300766408Y-166271203D01*
X300754503Y-166263807D01*
X300745406Y-166256829D01*
X300697004Y-166206271D01*
X300665656Y-166142212D01*
X300663375Y-166074370D01*
X300690162Y-166002744D01*
X300704485Y-165980410D01*
X300725085Y-165958037D01*
X300753944Y-165937159D01*
X300795014Y-165915749D01*
X300852244Y-165891783D01*
X300929586Y-165863237D01*
X301030991Y-165828085D01*
X301087234Y-165808752D01*
X301159501Y-165783507D01*
X301222462Y-165761086D01*
X301266879Y-165744752D01*
X301340162Y-165716864D01*
X301344143Y-165435170D01*
X301348123Y-165153476D01*
X300753484Y-165153476D01*
X300716835Y-165153480D01*
X300565748Y-165153665D01*
X300440825Y-165154338D01*
X300339478Y-165155787D01*
X300259122Y-165158300D01*
X300197169Y-165162163D01*
X300151034Y-165167666D01*
X300118130Y-165175096D01*
X300095870Y-165184740D01*
X300081669Y-165196887D01*
X300072939Y-165211823D01*
X300067095Y-165229837D01*
X300066930Y-165230680D01*
X300065624Y-165253456D01*
X300064373Y-165303170D01*
X300063191Y-165377711D01*
X300062093Y-165474967D01*
X300061091Y-165592826D01*
X300060200Y-165729175D01*
X300059435Y-165881902D01*
X300058808Y-166048896D01*
X300058335Y-166228044D01*
X300058029Y-166417234D01*
X300057904Y-166614354D01*
X300057704Y-167965307D01*
X299905608Y-167965307D01*
X299904186Y-167938236D01*
X299902386Y-167885776D01*
X299900911Y-167820138D01*
X299899727Y-167739527D01*
X299898801Y-167642151D01*
X299898099Y-167526218D01*
X299897589Y-167389935D01*
X299897238Y-167231509D01*
X299897012Y-167049148D01*
X299896878Y-166841059D01*
X299896802Y-166605450D01*
X299896760Y-166390535D01*
X299896756Y-166180664D01*
X299896833Y-165996665D01*
X299897029Y-165836738D01*
X299897380Y-165699082D01*
X299897923Y-165581894D01*
X299898696Y-165483374D01*
X299899735Y-165401720D01*
X299901078Y-165335131D01*
X299902762Y-165281806D01*
X299904823Y-165239942D01*
X299907299Y-165207739D01*
X299910227Y-165183395D01*
X299913645Y-165165109D01*
X299917588Y-165151079D01*
X299922095Y-165139505D01*
X299927202Y-165128583D01*
X299957292Y-165081552D01*
X300020093Y-165028688D01*
X300082264Y-164992253D01*
X301508714Y-164992253D01*
G37*
G36*
X298251959Y-161518626D02*
G01*
X298465941Y-161518659D01*
X298653588Y-161518760D01*
X298816730Y-161518969D01*
X298957196Y-161519324D01*
X299076815Y-161519865D01*
X299177418Y-161520631D01*
X299260833Y-161521660D01*
X299328890Y-161522991D01*
X299383419Y-161524663D01*
X299426248Y-161526716D01*
X299459207Y-161529187D01*
X299484127Y-161532117D01*
X299502835Y-161535544D01*
X299517163Y-161539506D01*
X299528938Y-161544044D01*
X299539991Y-161549195D01*
X299576972Y-161570436D01*
X299634251Y-161625561D01*
X299673532Y-161701832D01*
X299674703Y-161706893D01*
X299677512Y-161736572D01*
X299679947Y-161790463D01*
X299682015Y-161869134D01*
X299683720Y-161973152D01*
X299685067Y-162103081D01*
X299686062Y-162259490D01*
X299686708Y-162442945D01*
X299687013Y-162654011D01*
X299686980Y-162893256D01*
X299686614Y-163161247D01*
X299683959Y-164576691D01*
X299642588Y-164639201D01*
X299605101Y-164684266D01*
X299537219Y-164730020D01*
X299534151Y-164731359D01*
X299522392Y-164735960D01*
X299508689Y-164739996D01*
X299491217Y-164743498D01*
X299468152Y-164746496D01*
X299437669Y-164749022D01*
X299397943Y-164751105D01*
X299347151Y-164752776D01*
X299283467Y-164754067D01*
X299205066Y-164755008D01*
X299110124Y-164755630D01*
X298996817Y-164755963D01*
X298863320Y-164756038D01*
X298707808Y-164755885D01*
X298528457Y-164755537D01*
X298323442Y-164755023D01*
X298090938Y-164754374D01*
X297967502Y-164754037D01*
X297743841Y-164753479D01*
X297546828Y-164752952D01*
X297374690Y-164752320D01*
X297225656Y-164751447D01*
X297097956Y-164750197D01*
X296989816Y-164748432D01*
X296899465Y-164746016D01*
X296825132Y-164742814D01*
X296765045Y-164738688D01*
X296717433Y-164733503D01*
X296680524Y-164727121D01*
X296652545Y-164719406D01*
X296631726Y-164710223D01*
X296616296Y-164699434D01*
X296604481Y-164686903D01*
X296594511Y-164672494D01*
X296584615Y-164656071D01*
X296573019Y-164637496D01*
X296532776Y-164576689D01*
X296528537Y-163168574D01*
X296528336Y-163098179D01*
X296527887Y-162898928D01*
X296527630Y-162708051D01*
X296527558Y-162527642D01*
X296527667Y-162359797D01*
X296527948Y-162206608D01*
X296528397Y-162070169D01*
X296529006Y-161952574D01*
X296529770Y-161855917D01*
X296530682Y-161782292D01*
X296531371Y-161750540D01*
X296693999Y-161750540D01*
X296693999Y-163130831D01*
X296693999Y-164511121D01*
X296735122Y-164546494D01*
X296776245Y-164581867D01*
X297339710Y-164581867D01*
X297903174Y-164581867D01*
X297903496Y-164087204D01*
X297903503Y-164077046D01*
X297903722Y-163943912D01*
X297904272Y-163836599D01*
X297905315Y-163751839D01*
X297907015Y-163686365D01*
X297909533Y-163636910D01*
X297913032Y-163600205D01*
X297917676Y-163572982D01*
X297923626Y-163551975D01*
X297931046Y-163533915D01*
X297936339Y-163523091D01*
X297963597Y-163476899D01*
X297991427Y-163440696D01*
X298015287Y-163417891D01*
X298042535Y-163398514D01*
X298075263Y-163383808D01*
X298117444Y-163373044D01*
X298173049Y-163365495D01*
X298246050Y-163360435D01*
X298340419Y-163357135D01*
X298460127Y-163354869D01*
X298502183Y-163354187D01*
X298598077Y-163352212D01*
X298684568Y-163349868D01*
X298756678Y-163347321D01*
X298809431Y-163344736D01*
X298837850Y-163342281D01*
X298870280Y-163332581D01*
X298926078Y-163297618D01*
X298975174Y-163245960D01*
X299009351Y-163185136D01*
X299019077Y-163152998D01*
X299026412Y-163105168D01*
X299029411Y-163041352D01*
X299028624Y-162954977D01*
X299024409Y-162786425D01*
X298683641Y-162782491D01*
X298342874Y-162778557D01*
X298342874Y-162907475D01*
X298342239Y-162947675D01*
X298335660Y-163019522D01*
X298320924Y-163067103D01*
X298296773Y-163093437D01*
X298261947Y-163101543D01*
X298244167Y-163099458D01*
X298221165Y-163084582D01*
X298206439Y-163052142D01*
X298198611Y-162998321D01*
X298196307Y-162919299D01*
X298196191Y-162895487D01*
X298195000Y-162843438D01*
X298192795Y-162807292D01*
X298189917Y-162793753D01*
X298182107Y-162796713D01*
X298150860Y-162810119D01*
X298099295Y-162832836D01*
X298031137Y-162863211D01*
X297950107Y-162899590D01*
X297859927Y-162940320D01*
X297796919Y-162968664D01*
X297710769Y-163006752D01*
X297635399Y-163039296D01*
X297574771Y-163064617D01*
X297532849Y-163081040D01*
X297513594Y-163086887D01*
X297496042Y-163084285D01*
X297462511Y-163071714D01*
X297450538Y-163062874D01*
X297441932Y-163046917D01*
X297436975Y-163018786D01*
X297434704Y-162972771D01*
X297434161Y-162903163D01*
X297434161Y-162859201D01*
X297574831Y-162859201D01*
X297574964Y-162897206D01*
X297575530Y-162911008D01*
X297575587Y-162910998D01*
X297589673Y-162904400D01*
X297624651Y-162887341D01*
X297675389Y-162862340D01*
X297736754Y-162831915D01*
X297797421Y-162802059D01*
X297862021Y-162770912D01*
X297915691Y-162745706D01*
X297950808Y-162730066D01*
X297963402Y-162724731D01*
X297993575Y-162710662D01*
X298005523Y-162702897D01*
X298001736Y-162700289D01*
X297977555Y-162686578D01*
X297935558Y-162663684D01*
X297881039Y-162634409D01*
X297819296Y-162601557D01*
X297755622Y-162567928D01*
X297695315Y-162536327D01*
X297643670Y-162509554D01*
X297605981Y-162490413D01*
X297587546Y-162481706D01*
X297586070Y-162484317D01*
X297582956Y-162509035D01*
X297580103Y-162555701D01*
X297577776Y-162619301D01*
X297576242Y-162694823D01*
X297575796Y-162731020D01*
X297575114Y-162802103D01*
X297574831Y-162859201D01*
X297434161Y-162859201D01*
X297434161Y-162749783D01*
X297195257Y-162749783D01*
X297100924Y-162749336D01*
X297029834Y-162747276D01*
X296980370Y-162742569D01*
X296948653Y-162734175D01*
X296930802Y-162721057D01*
X296922937Y-162702178D01*
X296921178Y-162676500D01*
X296922853Y-162651277D01*
X296930554Y-162632269D01*
X296948161Y-162619044D01*
X296979555Y-162610563D01*
X297028615Y-162605790D01*
X297099223Y-162603687D01*
X297195257Y-162603217D01*
X297434161Y-162603217D01*
X297434161Y-162442273D01*
X297434161Y-162441149D01*
X297434401Y-162376455D01*
X297437104Y-162327693D01*
X297445224Y-162294547D01*
X297461710Y-162276697D01*
X297489514Y-162273826D01*
X297531589Y-162285616D01*
X297587546Y-162310277D01*
X297590887Y-162311749D01*
X297670357Y-162351907D01*
X297772954Y-162405771D01*
X297783592Y-162411373D01*
X297870208Y-162457151D01*
X297952504Y-162500913D01*
X298025070Y-162539764D01*
X298082492Y-162570808D01*
X298119360Y-162591148D01*
X298196307Y-162634681D01*
X298196307Y-162495414D01*
X298197437Y-162436186D01*
X298203583Y-162375128D01*
X298216435Y-162336375D01*
X298237521Y-162316002D01*
X298268366Y-162310084D01*
X298284923Y-162311678D01*
X298312268Y-162326819D01*
X298330157Y-162360704D01*
X298339916Y-162416684D01*
X298342874Y-162498110D01*
X298342874Y-162632530D01*
X298757328Y-162632530D01*
X298837182Y-162632605D01*
X298945070Y-162633118D01*
X299028980Y-162634262D01*
X299092212Y-162636205D01*
X299138066Y-162639117D01*
X299169841Y-162643166D01*
X299190838Y-162648519D01*
X299204356Y-162655346D01*
X299210401Y-162660036D01*
X299233327Y-162696088D01*
X299232492Y-162737865D01*
X299207617Y-162775169D01*
X299198701Y-162783941D01*
X299189534Y-162799453D01*
X299183588Y-162823467D01*
X299180176Y-162861185D01*
X299178616Y-162917809D01*
X299178222Y-162998540D01*
X299178194Y-163009691D01*
X299176745Y-163087909D01*
X299173425Y-163159252D01*
X299168686Y-163216243D01*
X299162979Y-163251404D01*
X299156274Y-163272137D01*
X299113216Y-163350912D01*
X299047678Y-163420470D01*
X298965076Y-163474702D01*
X298877842Y-163518188D01*
X298533411Y-163522972D01*
X298475867Y-163523864D01*
X298380707Y-163525757D01*
X298296507Y-163527952D01*
X298227855Y-163530303D01*
X298179339Y-163532664D01*
X298155547Y-163534893D01*
X298151443Y-163536050D01*
X298121049Y-163555977D01*
X298093311Y-163589271D01*
X298091671Y-163592000D01*
X298084026Y-163606776D01*
X298077962Y-163624548D01*
X298073297Y-163648607D01*
X298069847Y-163682242D01*
X298067432Y-163728743D01*
X298065867Y-163791398D01*
X298064970Y-163873498D01*
X298064560Y-163978332D01*
X298064452Y-164109189D01*
X298064397Y-164581867D01*
X298754388Y-164581867D01*
X299444379Y-164581867D01*
X299487221Y-164539024D01*
X299530064Y-164496181D01*
X299528907Y-163150305D01*
X299528886Y-163127608D01*
X299528613Y-162931992D01*
X299528186Y-162744765D01*
X299527618Y-162568018D01*
X299526924Y-162403844D01*
X299526118Y-162254336D01*
X299525214Y-162121585D01*
X299524226Y-162007686D01*
X299523167Y-161914729D01*
X299522053Y-161844808D01*
X299520897Y-161800015D01*
X299519713Y-161782444D01*
X299506132Y-161758551D01*
X299481673Y-161727481D01*
X299451671Y-161694504D01*
X298107436Y-161694504D01*
X298096055Y-161694504D01*
X297868387Y-161694522D01*
X297668135Y-161694600D01*
X297493488Y-161694773D01*
X297342633Y-161695080D01*
X297213758Y-161695556D01*
X297105052Y-161696238D01*
X297014701Y-161697164D01*
X296940895Y-161698370D01*
X296881822Y-161699893D01*
X296835668Y-161701770D01*
X296800623Y-161704037D01*
X296774874Y-161706732D01*
X296756609Y-161709891D01*
X296744017Y-161713551D01*
X296735285Y-161717749D01*
X296728600Y-161722522D01*
X296693999Y-161750540D01*
X296531371Y-161750540D01*
X296531735Y-161733792D01*
X296532924Y-161712511D01*
X296547879Y-161671399D01*
X296583919Y-161617863D01*
X296631533Y-161570270D01*
X296682307Y-161538425D01*
X296684816Y-161537499D01*
X296699872Y-161534159D01*
X296724604Y-161531218D01*
X296760647Y-161528652D01*
X296809640Y-161526439D01*
X296873217Y-161524555D01*
X296953016Y-161522979D01*
X297050672Y-161521687D01*
X297167823Y-161520656D01*
X297306105Y-161519863D01*
X297467154Y-161519287D01*
X297652607Y-161518903D01*
X297864100Y-161518690D01*
X298096055Y-161518626D01*
X298103269Y-161518624D01*
X298251959Y-161518626D01*
G37*
G36*
X299065472Y-159296816D02*
G01*
X299096645Y-159313842D01*
X299099735Y-159317832D01*
X299104165Y-159328517D01*
X299107897Y-159346325D01*
X299110989Y-159373474D01*
X299113500Y-159412183D01*
X299115488Y-159464672D01*
X299117010Y-159533160D01*
X299118125Y-159619865D01*
X299118891Y-159727006D01*
X299119367Y-159856804D01*
X299119609Y-160011476D01*
X299119677Y-160193242D01*
X299119677Y-161049610D01*
X301101991Y-161049784D01*
X301239164Y-161049792D01*
X301512351Y-161049799D01*
X301758456Y-161049837D01*
X301978998Y-161049964D01*
X302175498Y-161050236D01*
X302349478Y-161050708D01*
X302502457Y-161051438D01*
X302635957Y-161052481D01*
X302751498Y-161053894D01*
X302850600Y-161055732D01*
X302934785Y-161058052D01*
X303005574Y-161060911D01*
X303064486Y-161064364D01*
X303113042Y-161068468D01*
X303152764Y-161073279D01*
X303185172Y-161078852D01*
X303211786Y-161085246D01*
X303234127Y-161092515D01*
X303253717Y-161100716D01*
X303272075Y-161109904D01*
X303290722Y-161120138D01*
X303311180Y-161131471D01*
X303378305Y-161176054D01*
X303462914Y-161255263D01*
X303537310Y-161350428D01*
X303595760Y-161453936D01*
X303632530Y-161558174D01*
X303632683Y-161558952D01*
X303634307Y-161583079D01*
X303635836Y-161634748D01*
X303637272Y-161712336D01*
X303638614Y-161814218D01*
X303639862Y-161938773D01*
X303641017Y-162084377D01*
X303642078Y-162249408D01*
X303643045Y-162432241D01*
X303643919Y-162631256D01*
X303644700Y-162844827D01*
X303645387Y-163071333D01*
X303645980Y-163309150D01*
X303646480Y-163556655D01*
X303646887Y-163812226D01*
X303647201Y-164074239D01*
X303647422Y-164341071D01*
X303647549Y-164611100D01*
X303647584Y-164882702D01*
X303647525Y-165154254D01*
X303647373Y-165424133D01*
X303647129Y-165690717D01*
X303646791Y-165952382D01*
X303646361Y-166207505D01*
X303645837Y-166454464D01*
X303645221Y-166691635D01*
X303644513Y-166917395D01*
X303643711Y-167130122D01*
X303642817Y-167328192D01*
X303641831Y-167509982D01*
X303640752Y-167673869D01*
X303639580Y-167818231D01*
X303638316Y-167941444D01*
X303636960Y-168041885D01*
X303635511Y-168117932D01*
X303633970Y-168167961D01*
X303632337Y-168190349D01*
X303621754Y-168232324D01*
X303573305Y-168348483D01*
X303500945Y-168455551D01*
X303408521Y-168549366D01*
X303299883Y-168625767D01*
X303178880Y-168680592D01*
X303177403Y-168681088D01*
X303164855Y-168684881D01*
X303150159Y-168688302D01*
X303131806Y-168691376D01*
X303108287Y-168694124D01*
X303078093Y-168696568D01*
X303039714Y-168698732D01*
X302991642Y-168700639D01*
X302932367Y-168702310D01*
X302860379Y-168703769D01*
X302774171Y-168705039D01*
X302672232Y-168706141D01*
X302553053Y-168707099D01*
X302415126Y-168707935D01*
X302256940Y-168708671D01*
X302076988Y-168709332D01*
X301873758Y-168709938D01*
X301645743Y-168710513D01*
X301391433Y-168711080D01*
X301109319Y-168711661D01*
X299119677Y-168715657D01*
X299119677Y-169544417D01*
X299119601Y-169654693D01*
X299119037Y-169844059D01*
X299117930Y-170006540D01*
X299116288Y-170141732D01*
X299114117Y-170249230D01*
X299111425Y-170328631D01*
X299108218Y-170379531D01*
X299104505Y-170401526D01*
X299083447Y-170419783D01*
X299045344Y-170429729D01*
X299005013Y-170427182D01*
X298975810Y-170411143D01*
X298973777Y-170405163D01*
X298970054Y-170372340D01*
X298966789Y-170311522D01*
X298963975Y-170222488D01*
X298961609Y-170105021D01*
X298959686Y-169958901D01*
X298958199Y-169783908D01*
X298957145Y-169579825D01*
X298956733Y-169484515D01*
X298955909Y-169337111D01*
X298954914Y-169199774D01*
X298953782Y-169075255D01*
X298952545Y-168966302D01*
X298951236Y-168875664D01*
X298949888Y-168806093D01*
X298948533Y-168760335D01*
X298947203Y-168741142D01*
X298947075Y-168740688D01*
X298944685Y-168736621D01*
X298939031Y-168733006D01*
X298928487Y-168729818D01*
X298911422Y-168727029D01*
X298886210Y-168724612D01*
X298851222Y-168722539D01*
X298804830Y-168720786D01*
X298745406Y-168719323D01*
X298671321Y-168718125D01*
X298580949Y-168717164D01*
X298472659Y-168716414D01*
X298344826Y-168715848D01*
X298195819Y-168715438D01*
X298024012Y-168715159D01*
X297827776Y-168714982D01*
X297605482Y-168714881D01*
X297355504Y-168714829D01*
X297151561Y-168714800D01*
X296915674Y-168714726D01*
X296706047Y-168714545D01*
X296520966Y-168714188D01*
X296358719Y-168713584D01*
X296217592Y-168712663D01*
X296095872Y-168711355D01*
X295991845Y-168709591D01*
X295903798Y-168707299D01*
X295830019Y-168704411D01*
X295768793Y-168700856D01*
X295718408Y-168696564D01*
X295677150Y-168691464D01*
X295643306Y-168685488D01*
X295615162Y-168678564D01*
X295591006Y-168670623D01*
X295569125Y-168661595D01*
X295547804Y-168651409D01*
X295525331Y-168639996D01*
X295483709Y-168614096D01*
X295420348Y-168562087D01*
X295357723Y-168499012D01*
X295304080Y-168433391D01*
X295267666Y-168373748D01*
X295263382Y-168364542D01*
X295249928Y-168335047D01*
X295238272Y-168307046D01*
X295228285Y-168278338D01*
X295219839Y-168246724D01*
X295212804Y-168210002D01*
X295207051Y-168165972D01*
X295202451Y-168112433D01*
X295198876Y-168047185D01*
X295196196Y-167968027D01*
X295194282Y-167872759D01*
X295193005Y-167759181D01*
X295192237Y-167625091D01*
X295191848Y-167468289D01*
X295191709Y-167286575D01*
X295191691Y-167077749D01*
X295191691Y-166018220D01*
X295110309Y-166018220D01*
X295071612Y-166016893D01*
X294980393Y-166003563D01*
X295366850Y-166003563D01*
X295370875Y-167099149D01*
X295374899Y-168194734D01*
X295416028Y-168278489D01*
X295425001Y-168295723D01*
X295489546Y-168385120D01*
X295573579Y-168458456D01*
X295670091Y-168509364D01*
X295671575Y-168509918D01*
X295680281Y-168513036D01*
X295689759Y-168515924D01*
X295701108Y-168518590D01*
X295715426Y-168521045D01*
X295733809Y-168523296D01*
X295757357Y-168525353D01*
X295787165Y-168527223D01*
X295824333Y-168528917D01*
X295869958Y-168530443D01*
X295925137Y-168531809D01*
X295990969Y-168533024D01*
X296068550Y-168534098D01*
X296158979Y-168535038D01*
X296263354Y-168535855D01*
X296382772Y-168536556D01*
X296518331Y-168537150D01*
X296671128Y-168537647D01*
X296842261Y-168538054D01*
X297032829Y-168538381D01*
X297243928Y-168538637D01*
X297476656Y-168538830D01*
X297732112Y-168538969D01*
X298011392Y-168539064D01*
X298315595Y-168539122D01*
X298645818Y-168539152D01*
X299003159Y-168539164D01*
X299388715Y-168539166D01*
X299548651Y-168539164D01*
X299925663Y-168539140D01*
X300274874Y-168539083D01*
X300597362Y-168538987D01*
X300894205Y-168538845D01*
X301166481Y-168538650D01*
X301415269Y-168538396D01*
X301641646Y-168538075D01*
X301846690Y-168537681D01*
X302031480Y-168537207D01*
X302197093Y-168536647D01*
X302344608Y-168535993D01*
X302475103Y-168535240D01*
X302589655Y-168534379D01*
X302689344Y-168533406D01*
X302775246Y-168532312D01*
X302848440Y-168531091D01*
X302910005Y-168529736D01*
X302961018Y-168528241D01*
X303002557Y-168526599D01*
X303035700Y-168524803D01*
X303061526Y-168522846D01*
X303081112Y-168520722D01*
X303095537Y-168518424D01*
X303105878Y-168515946D01*
X303185015Y-168485626D01*
X303287853Y-168420755D01*
X303373070Y-168333065D01*
X303438963Y-168224048D01*
X303480035Y-168136108D01*
X303482248Y-164904313D01*
X303482294Y-164834157D01*
X303482432Y-164529491D01*
X303482473Y-164232610D01*
X303482420Y-163944860D01*
X303482275Y-163667586D01*
X303482043Y-163402133D01*
X303481728Y-163149847D01*
X303481332Y-162912074D01*
X303480858Y-162690159D01*
X303480312Y-162485448D01*
X303479696Y-162299285D01*
X303479013Y-162133018D01*
X303478268Y-161987990D01*
X303477463Y-161865548D01*
X303476602Y-161767038D01*
X303475689Y-161693804D01*
X303474727Y-161647192D01*
X303473719Y-161628549D01*
X303432589Y-161517254D01*
X303367196Y-161414264D01*
X303282618Y-161326839D01*
X303183641Y-161261044D01*
X303098962Y-161218162D01*
X299405482Y-161218162D01*
X295712003Y-161218162D01*
X295629026Y-161258918D01*
X295562898Y-161298704D01*
X295476809Y-161377858D01*
X295408512Y-161477657D01*
X295374899Y-161540609D01*
X295370880Y-162640517D01*
X295366861Y-163740425D01*
X295458820Y-163759262D01*
X295613194Y-163803413D01*
X295771983Y-163876544D01*
X295918323Y-163973411D01*
X296048184Y-164091311D01*
X296157531Y-164227542D01*
X296210672Y-164312771D01*
X296277071Y-164451401D01*
X296320753Y-164596096D01*
X296343242Y-164752511D01*
X296346065Y-164926298D01*
X296342243Y-165010883D01*
X296336473Y-165078035D01*
X296327276Y-165134872D01*
X296313085Y-165191012D01*
X296292333Y-165256073D01*
X296229731Y-165405918D01*
X296136763Y-165558547D01*
X296020990Y-165693613D01*
X295883819Y-165809501D01*
X295726659Y-165904597D01*
X295724626Y-165905618D01*
X295661895Y-165933478D01*
X295590142Y-165959978D01*
X295518256Y-165982342D01*
X295455124Y-165997795D01*
X295409637Y-166003563D01*
X295366850Y-166003563D01*
X294980393Y-166003563D01*
X294950578Y-165999206D01*
X294821425Y-165963310D01*
X294692246Y-165912238D01*
X294571136Y-165849025D01*
X294466186Y-165776706D01*
X294336403Y-165658980D01*
X294225173Y-165525734D01*
X294140313Y-165381932D01*
X294080835Y-165225490D01*
X294045750Y-165054324D01*
X294034848Y-164878893D01*
X294209695Y-164878893D01*
X294217790Y-165021663D01*
X294247731Y-165168177D01*
X294301493Y-165302143D01*
X294380905Y-165427971D01*
X294487793Y-165550076D01*
X294609022Y-165657093D01*
X294739155Y-165740457D01*
X294878358Y-165798089D01*
X295030393Y-165831535D01*
X295199019Y-165842340D01*
X295332601Y-165835904D01*
X295461235Y-165813437D01*
X295612778Y-165761065D01*
X295754971Y-165683171D01*
X295880411Y-165583435D01*
X295987024Y-165464190D01*
X296072735Y-165327771D01*
X296135468Y-165176510D01*
X296173150Y-165012743D01*
X296181559Y-164947089D01*
X296185494Y-164883626D01*
X296182854Y-164822769D01*
X296173665Y-164750418D01*
X296139516Y-164597314D01*
X296078329Y-164441363D01*
X295994082Y-164301936D01*
X295888227Y-164180664D01*
X295762213Y-164079181D01*
X295617491Y-163999119D01*
X295455511Y-163942111D01*
X295407132Y-163932003D01*
X295315455Y-163921342D01*
X295212427Y-163916827D01*
X295108044Y-163918490D01*
X295012303Y-163926361D01*
X294935199Y-163940474D01*
X294809049Y-163982672D01*
X294658109Y-164059013D01*
X294524211Y-164158327D01*
X294409373Y-164279313D01*
X294386642Y-164308848D01*
X294306887Y-164435662D01*
X294251851Y-164569818D01*
X294219974Y-164716000D01*
X294209695Y-164878893D01*
X294034848Y-164878893D01*
X294034069Y-164866352D01*
X294040150Y-164738440D01*
X294071580Y-164561855D01*
X294129781Y-164397207D01*
X294214757Y-164244491D01*
X294326511Y-164103699D01*
X294465045Y-163974827D01*
X294513135Y-163939170D01*
X294624897Y-163873146D01*
X294750916Y-163816303D01*
X294882680Y-163771752D01*
X295011679Y-163742605D01*
X295129400Y-163731973D01*
X295191691Y-163731780D01*
X295191691Y-162677222D01*
X295191745Y-162555378D01*
X295192180Y-162331514D01*
X295193058Y-162136346D01*
X295194385Y-161969464D01*
X295196166Y-161830459D01*
X295198408Y-161718919D01*
X295201116Y-161634435D01*
X295204296Y-161576597D01*
X295207954Y-161544994D01*
X295210692Y-161532884D01*
X295212427Y-161527708D01*
X295239885Y-161445796D01*
X295283785Y-161355823D01*
X295336518Y-161273648D01*
X295392206Y-161209956D01*
X295433802Y-161176657D01*
X295494544Y-161136542D01*
X295555475Y-161103320D01*
X295653376Y-161056939D01*
X295712003Y-161056678D01*
X297302251Y-161049610D01*
X298951126Y-161042282D01*
X298958454Y-160184867D01*
X298959760Y-160049222D01*
X298961548Y-159900299D01*
X298963578Y-159762215D01*
X298965795Y-159637611D01*
X298968140Y-159529123D01*
X298970554Y-159439393D01*
X298972981Y-159371058D01*
X298975362Y-159326758D01*
X298977640Y-159309131D01*
X298991323Y-159298148D01*
X299026005Y-159291411D01*
X299065472Y-159296816D01*
G37*
%TD*%
M02*
