%TF.GenerationSoftware,KiCad,Pcbnew,10.0.0*%
%TF.CreationDate,2026-03-26T21:39:37-04:00*%
%TF.ProjectId,DC_Link_Caps_Circuit,44435f4c-696e-46b5-9f43-6170735f4369,rev?*%
%TF.SameCoordinates,Original*%
%TF.FileFunction,Copper,L2,Bot*%
%TF.FilePolarity,Positive*%
%FSLAX46Y46*%
G04 Gerber Fmt 4.6, Leading zero omitted, Abs format (unit mm)*
G04 Created by KiCad (PCBNEW 10.0.0) date 2026-03-26 21:39:37*
%MOMM*%
%LPD*%
G01*
G04 APERTURE LIST*
G04 Aperture macros list*
%AMRoundRect*
0 Rectangle with rounded corners*
0 $1 Rounding radius*
0 $2 $3 $4 $5 $6 $7 $8 $9 X,Y pos of 4 corners*
0 Add a 4 corners polygon primitive as box body*
4,1,4,$2,$3,$4,$5,$6,$7,$8,$9,$2,$3,0*
0 Add four circle primitives for the rounded corners*
1,1,$1+$1,$2,$3*
1,1,$1+$1,$4,$5*
1,1,$1+$1,$6,$7*
1,1,$1+$1,$8,$9*
0 Add four rect primitives between the rounded corners*
20,1,$1+$1,$2,$3,$4,$5,0*
20,1,$1+$1,$4,$5,$6,$7,0*
20,1,$1+$1,$6,$7,$8,$9,0*
20,1,$1+$1,$8,$9,$2,$3,0*%
G04 Aperture macros list end*
%TA.AperFunction,ComponentPad*%
%ADD10R,1.549400X1.549400*%
%TD*%
%TA.AperFunction,ComponentPad*%
%ADD11C,1.549400*%
%TD*%
%TA.AperFunction,ComponentPad*%
%ADD12RoundRect,0.250001X0.949999X0.949999X-0.949999X0.949999X-0.949999X-0.949999X0.949999X-0.949999X0*%
%TD*%
%TA.AperFunction,ComponentPad*%
%ADD13C,2.400000*%
%TD*%
%TA.AperFunction,ComponentPad*%
%ADD14RoundRect,0.250001X-0.949999X-0.949999X0.949999X-0.949999X0.949999X0.949999X-0.949999X0.949999X0*%
%TD*%
%TA.AperFunction,ComponentPad*%
%ADD15R,1.900000X1.900000*%
%TD*%
%TA.AperFunction,ComponentPad*%
%ADD16C,1.574800*%
%TD*%
G04 APERTURE END LIST*
D10*
%TO.P,C9,1*%
%TO.N,/DC_Link_Caps/BUS_DC+*%
X296500000Y-178760600D03*
D11*
%TO.P,C9,2*%
%TO.N,GND*%
X296500000Y-206700600D03*
%TD*%
D12*
%TO.P,C3,1*%
%TO.N,/DC_Link_Caps/BUS_DC+*%
X272500000Y-143185000D03*
D13*
%TO.P,C3,2*%
%TO.N,GND*%
X267500000Y-143185000D03*
%TD*%
D10*
%TO.P,C7,1*%
%TO.N,/DC_Link_Caps/BUS_DC+*%
X307000000Y-149989400D03*
D11*
%TO.P,C7,2*%
%TO.N,GND*%
X307000000Y-122049400D03*
%TD*%
D14*
%TO.P,C10,1*%
%TO.N,/DC_Link_Caps/BUS_DC+*%
X281500000Y-128325000D03*
D13*
%TO.P,C10,2*%
%TO.N,GND*%
X286500000Y-128325000D03*
%TD*%
D15*
%TO.P,TP11,1,1_1*%
%TO.N,/DC_Link_Caps/BUS_DC+*%
X317000000Y-124250000D03*
%TD*%
D10*
%TO.P,C11,1*%
%TO.N,/DC_Link_Caps/BUS_DC+*%
X307000000Y-178760600D03*
D11*
%TO.P,C11,2*%
%TO.N,GND*%
X307000000Y-206700600D03*
%TD*%
D12*
%TO.P,C8,1*%
%TO.N,/DC_Link_Caps/BUS_DC+*%
X272500000Y-202425000D03*
D13*
%TO.P,C8,2*%
%TO.N,GND*%
X267500000Y-202425000D03*
%TD*%
D16*
%TO.P,J10,P1_1,P1_1_P1_1*%
%TO.N,GND*%
X265360101Y-160875000D03*
%TO.P,J10,P1_2,P1_2_P1_2*%
X267860101Y-160875000D03*
%TO.P,J10,P1_3,P1_3_P1_3*%
X270360101Y-160875000D03*
%TO.P,J10,P1_4,P1_4_P1_4*%
X272860101Y-160875000D03*
%TO.P,J10,P1_5,P1_5_P1_5*%
X275360101Y-160875000D03*
%TO.P,J10,P1_6,P1_6_P1_6*%
X265360101Y-163875002D03*
%TO.P,J10,P1_7,P1_7_P1_7*%
X267860101Y-163875002D03*
%TO.P,J10,P1_8,P1_8_P1_8*%
X270360101Y-163875002D03*
%TO.P,J10,P1_9,P1_9_P1_9*%
X272860101Y-163875002D03*
%TO.P,J10,P1_10,P1_10_P1_10*%
X275360101Y-163875002D03*
%TO.P,J10,P2_1,P2_1_P2_1*%
%TO.N,/DC_Link_Caps/BUS_DC+*%
X265360101Y-166375002D03*
%TO.P,J10,P2_2,P2_2_P2_2*%
X267860101Y-166375002D03*
%TO.P,J10,P2_3,P2_3_P2_3*%
X270360101Y-166375002D03*
%TO.P,J10,P2_4,P2_4_P2_4*%
X272860101Y-166375002D03*
%TO.P,J10,P2_5,P2_5_P2_5*%
X275360101Y-166375002D03*
%TO.P,J10,P2_6,P2_6_P2_6*%
X265360101Y-169375001D03*
%TO.P,J10,P2_7,P2_7_P2_7*%
X267860101Y-169375001D03*
%TO.P,J10,P2_8,P2_8_P2_8*%
X270360101Y-169375001D03*
%TO.P,J10,P2_9,P2_9_P2_9*%
X272860101Y-169375001D03*
%TO.P,J10,P2_10,P2_10_P2_10*%
X275360101Y-169375001D03*
%TD*%
D14*
%TO.P,C14,1*%
%TO.N,/DC_Link_Caps/BUS_DC+*%
X281500000Y-172755000D03*
D13*
%TO.P,C14,2*%
%TO.N,GND*%
X286500000Y-172755000D03*
%TD*%
D14*
%TO.P,C16,1*%
%TO.N,/DC_Link_Caps/BUS_DC+*%
X281500000Y-202375000D03*
D13*
%TO.P,C16,2*%
%TO.N,GND*%
X286500000Y-202375000D03*
%TD*%
D14*
%TO.P,C15,1*%
%TO.N,/DC_Link_Caps/BUS_DC+*%
X281500000Y-187565000D03*
D13*
%TO.P,C15,2*%
%TO.N,GND*%
X286500000Y-187565000D03*
%TD*%
D15*
%TO.P,TP10,1,1_1*%
%TO.N,GND*%
X317000000Y-146850000D03*
%TD*%
D16*
%TO.P,J11,P1_1,P1_1_P1_1*%
%TO.N,/DC_Link_Caps/BUS_DC+*%
X319000000Y-169375001D03*
%TO.P,J11,P1_2,P1_2_P1_2*%
X316500000Y-169375001D03*
%TO.P,J11,P1_3,P1_3_P1_3*%
X314000000Y-169375001D03*
%TO.P,J11,P1_4,P1_4_P1_4*%
X311500000Y-169375001D03*
%TO.P,J11,P1_5,P1_5_P1_5*%
X309000000Y-169375001D03*
%TO.P,J11,P1_6,P1_6_P1_6*%
X319000000Y-166374999D03*
%TO.P,J11,P1_7,P1_7_P1_7*%
X316500000Y-166374999D03*
%TO.P,J11,P1_8,P1_8_P1_8*%
X314000000Y-166374999D03*
%TO.P,J11,P1_9,P1_9_P1_9*%
X311500000Y-166374999D03*
%TO.P,J11,P1_10,P1_10_P1_10*%
X309000000Y-166374999D03*
%TO.P,J11,P2_1,P2_1_P2_1*%
%TO.N,GND*%
X319000000Y-163874999D03*
%TO.P,J11,P2_2,P2_2_P2_2*%
X316500000Y-163874999D03*
%TO.P,J11,P2_3,P2_3_P2_3*%
X314000000Y-163874999D03*
%TO.P,J11,P2_4,P2_4_P2_4*%
X311500000Y-163874999D03*
%TO.P,J11,P2_5,P2_5_P2_5*%
X309000000Y-163874999D03*
%TO.P,J11,P2_6,P2_6_P2_6*%
X319000000Y-160875000D03*
%TO.P,J11,P2_7,P2_7_P2_7*%
X316500000Y-160875000D03*
%TO.P,J11,P2_8,P2_8_P2_8*%
X314000000Y-160875000D03*
%TO.P,J11,P2_9,P2_9_P2_9*%
X311500000Y-160875000D03*
%TO.P,J11,P2_10,P2_10_P2_10*%
X309000000Y-160875000D03*
%TD*%
D10*
%TO.P,C5,1*%
%TO.N,/DC_Link_Caps/BUS_DC+*%
X296500000Y-149989400D03*
D11*
%TO.P,C5,2*%
%TO.N,GND*%
X296500000Y-122049400D03*
%TD*%
D14*
%TO.P,C4,1*%
%TO.N,/DC_Link_Caps/BUS_DC+*%
X281500000Y-157945000D03*
D13*
%TO.P,C4,2*%
%TO.N,GND*%
X286500000Y-157945000D03*
%TD*%
D10*
%TO.P,C13,1*%
%TO.N,/DC_Link_Caps/BUS_DC+*%
X317500000Y-178760600D03*
D11*
%TO.P,C13,2*%
%TO.N,GND*%
X317500000Y-206700600D03*
%TD*%
D12*
%TO.P,C6,1*%
%TO.N,/DC_Link_Caps/BUS_DC+*%
X272500000Y-187615000D03*
D13*
%TO.P,C6,2*%
%TO.N,GND*%
X267500000Y-187615000D03*
%TD*%
D12*
%TO.P,C2,1*%
%TO.N,/DC_Link_Caps/BUS_DC+*%
X272500000Y-128375000D03*
D13*
%TO.P,C2,2*%
%TO.N,GND*%
X267500000Y-128375000D03*
%TD*%
D14*
%TO.P,C12,1*%
%TO.N,/DC_Link_Caps/BUS_DC+*%
X281500000Y-143135000D03*
D13*
%TO.P,C12,2*%
%TO.N,GND*%
X286500000Y-143135000D03*
%TD*%
%TA.AperFunction,Conductor*%
%TO.N,GND*%
G36*
X322942539Y-115770185D02*
G01*
X322988294Y-115822989D01*
X322999500Y-115874500D01*
X322999500Y-157868624D01*
X322979815Y-157935663D01*
X322963181Y-157956305D01*
X322919501Y-157999984D01*
X322919499Y-157999987D01*
X322853607Y-158114113D01*
X322819499Y-158241409D01*
X322819499Y-172368592D01*
X322853607Y-172495888D01*
X322886553Y-172552951D01*
X322919499Y-172610015D01*
X322919501Y-172610017D01*
X322963181Y-172653697D01*
X322996666Y-172715020D01*
X322999500Y-172741378D01*
X322999500Y-215125500D01*
X322979815Y-215192539D01*
X322927011Y-215238294D01*
X322875500Y-215249500D01*
X261624500Y-215249500D01*
X261557461Y-215229815D01*
X261511706Y-215177011D01*
X261500500Y-215125500D01*
X261500500Y-212143713D01*
X263899500Y-212143713D01*
X263899500Y-212356286D01*
X263932753Y-212566239D01*
X263998444Y-212768414D01*
X264094951Y-212957820D01*
X264219890Y-213129786D01*
X264370213Y-213280109D01*
X264542179Y-213405048D01*
X264542181Y-213405049D01*
X264542184Y-213405051D01*
X264731588Y-213501557D01*
X264933757Y-213567246D01*
X265143713Y-213600500D01*
X265143714Y-213600500D01*
X265356286Y-213600500D01*
X265356287Y-213600500D01*
X265566243Y-213567246D01*
X265768412Y-213501557D01*
X265957816Y-213405051D01*
X265979789Y-213389086D01*
X266129786Y-213280109D01*
X266129788Y-213280106D01*
X266129792Y-213280104D01*
X266280104Y-213129792D01*
X266280106Y-213129788D01*
X266280109Y-213129786D01*
X266405048Y-212957820D01*
X266405047Y-212957820D01*
X266405051Y-212957816D01*
X266501557Y-212768412D01*
X266567246Y-212566243D01*
X266600500Y-212356287D01*
X266600500Y-212268713D01*
X317349500Y-212268713D01*
X317349500Y-212481287D01*
X317382754Y-212691243D01*
X317407828Y-212768414D01*
X317448444Y-212893414D01*
X317544951Y-213082820D01*
X317669890Y-213254786D01*
X317820213Y-213405109D01*
X317992179Y-213530048D01*
X317992181Y-213530049D01*
X317992184Y-213530051D01*
X318181588Y-213626557D01*
X318383757Y-213692246D01*
X318593713Y-213725500D01*
X318593714Y-213725500D01*
X318806286Y-213725500D01*
X318806287Y-213725500D01*
X319016243Y-213692246D01*
X319218412Y-213626557D01*
X319407816Y-213530051D01*
X319447038Y-213501555D01*
X319579786Y-213405109D01*
X319579788Y-213405106D01*
X319579792Y-213405104D01*
X319730104Y-213254792D01*
X319730106Y-213254788D01*
X319730109Y-213254786D01*
X319855048Y-213082820D01*
X319855047Y-213082820D01*
X319855051Y-213082816D01*
X319951557Y-212893412D01*
X320017246Y-212691243D01*
X320050500Y-212481287D01*
X320050500Y-212268713D01*
X320017246Y-212058757D01*
X319951557Y-211856588D01*
X319855051Y-211667184D01*
X319855049Y-211667181D01*
X319855048Y-211667179D01*
X319730109Y-211495213D01*
X319579786Y-211344890D01*
X319407820Y-211219951D01*
X319218414Y-211123444D01*
X319218413Y-211123443D01*
X319218412Y-211123443D01*
X319016243Y-211057754D01*
X319016241Y-211057753D01*
X319016240Y-211057753D01*
X318854957Y-211032208D01*
X318806287Y-211024500D01*
X318593713Y-211024500D01*
X318545042Y-211032208D01*
X318383760Y-211057753D01*
X318181585Y-211123444D01*
X317992179Y-211219951D01*
X317820213Y-211344890D01*
X317669890Y-211495213D01*
X317544951Y-211667179D01*
X317448444Y-211856585D01*
X317382753Y-212058760D01*
X317369298Y-212143713D01*
X317349500Y-212268713D01*
X266600500Y-212268713D01*
X266600500Y-212143713D01*
X266567246Y-211933757D01*
X266501557Y-211731588D01*
X266405051Y-211542184D01*
X266405049Y-211542181D01*
X266405048Y-211542179D01*
X266280109Y-211370213D01*
X266129786Y-211219890D01*
X265957820Y-211094951D01*
X265768414Y-210998444D01*
X265768413Y-210998443D01*
X265768412Y-210998443D01*
X265566243Y-210932754D01*
X265566241Y-210932753D01*
X265566240Y-210932753D01*
X265404957Y-210907208D01*
X265356287Y-210899500D01*
X265143713Y-210899500D01*
X265095042Y-210907208D01*
X264933760Y-210932753D01*
X264731585Y-210998444D01*
X264542179Y-211094951D01*
X264370213Y-211219890D01*
X264219890Y-211370213D01*
X264094951Y-211542179D01*
X263998444Y-211731585D01*
X263932753Y-211933760D01*
X263899500Y-212143713D01*
X261500500Y-212143713D01*
X261500500Y-207964527D01*
X296331663Y-207964527D01*
X296399679Y-207975300D01*
X296600321Y-207975300D01*
X296668334Y-207964527D01*
X306831663Y-207964527D01*
X306899679Y-207975300D01*
X307100321Y-207975300D01*
X307168334Y-207964527D01*
X317331663Y-207964527D01*
X317399679Y-207975300D01*
X317600321Y-207975300D01*
X317668334Y-207964527D01*
X317668335Y-207964526D01*
X317500001Y-207796192D01*
X317331663Y-207964527D01*
X307168334Y-207964527D01*
X307168335Y-207964526D01*
X307000001Y-207796192D01*
X306831663Y-207964527D01*
X296668334Y-207964527D01*
X296668335Y-207964526D01*
X296500001Y-207796192D01*
X296331663Y-207964527D01*
X261500500Y-207964527D01*
X261500500Y-206600273D01*
X295225300Y-206600273D01*
X295225300Y-206800926D01*
X295236071Y-206868934D01*
X295236073Y-206868935D01*
X295404408Y-206700600D01*
X295404408Y-206700599D01*
X295335858Y-206632049D01*
X295979300Y-206632049D01*
X295979300Y-206769151D01*
X296014785Y-206901583D01*
X296083336Y-207020317D01*
X296180283Y-207117264D01*
X296299017Y-207185815D01*
X296431449Y-207221300D01*
X296568551Y-207221300D01*
X296700983Y-207185815D01*
X296819717Y-207117264D01*
X296916664Y-207020317D01*
X296985215Y-206901583D01*
X297020700Y-206769151D01*
X297020700Y-206700600D01*
X297595592Y-206700600D01*
X297763926Y-206868935D01*
X297763927Y-206868934D01*
X297774700Y-206800920D01*
X297774700Y-206600279D01*
X297774699Y-206600273D01*
X305725300Y-206600273D01*
X305725300Y-206800926D01*
X305736071Y-206868934D01*
X305736073Y-206868935D01*
X305904408Y-206700600D01*
X305904408Y-206700599D01*
X305835858Y-206632049D01*
X306479300Y-206632049D01*
X306479300Y-206769151D01*
X306514785Y-206901583D01*
X306583336Y-207020317D01*
X306680283Y-207117264D01*
X306799017Y-207185815D01*
X306931449Y-207221300D01*
X307068551Y-207221300D01*
X307200983Y-207185815D01*
X307319717Y-207117264D01*
X307416664Y-207020317D01*
X307485215Y-206901583D01*
X307520700Y-206769151D01*
X307520700Y-206700600D01*
X308095592Y-206700600D01*
X308263926Y-206868935D01*
X308263927Y-206868934D01*
X308274700Y-206800920D01*
X308274700Y-206600279D01*
X308274699Y-206600273D01*
X316225300Y-206600273D01*
X316225300Y-206800926D01*
X316236071Y-206868934D01*
X316236073Y-206868935D01*
X316404408Y-206700600D01*
X316404408Y-206700599D01*
X316335858Y-206632049D01*
X316979300Y-206632049D01*
X316979300Y-206769151D01*
X317014785Y-206901583D01*
X317083336Y-207020317D01*
X317180283Y-207117264D01*
X317299017Y-207185815D01*
X317431449Y-207221300D01*
X317568551Y-207221300D01*
X317700983Y-207185815D01*
X317819717Y-207117264D01*
X317916664Y-207020317D01*
X317985215Y-206901583D01*
X318020700Y-206769151D01*
X318020700Y-206700600D01*
X318595592Y-206700600D01*
X318763926Y-206868935D01*
X318763927Y-206868934D01*
X318774700Y-206800920D01*
X318774700Y-206600279D01*
X318763927Y-206532264D01*
X318595592Y-206700600D01*
X318020700Y-206700600D01*
X318020700Y-206632049D01*
X317985215Y-206499617D01*
X317916664Y-206380883D01*
X317819717Y-206283936D01*
X317700983Y-206215385D01*
X317568551Y-206179900D01*
X317431449Y-206179900D01*
X317299017Y-206215385D01*
X317180283Y-206283936D01*
X317083336Y-206380883D01*
X317014785Y-206499617D01*
X316979300Y-206632049D01*
X316335858Y-206632049D01*
X316236072Y-206532263D01*
X316236071Y-206532264D01*
X316225300Y-206600273D01*
X308274699Y-206600273D01*
X308263927Y-206532264D01*
X308095592Y-206700600D01*
X307520700Y-206700600D01*
X307520700Y-206632049D01*
X307485215Y-206499617D01*
X307416664Y-206380883D01*
X307319717Y-206283936D01*
X307200983Y-206215385D01*
X307068551Y-206179900D01*
X306931449Y-206179900D01*
X306799017Y-206215385D01*
X306680283Y-206283936D01*
X306583336Y-206380883D01*
X306514785Y-206499617D01*
X306479300Y-206632049D01*
X305835858Y-206632049D01*
X305736072Y-206532263D01*
X305736071Y-206532264D01*
X305725300Y-206600273D01*
X297774699Y-206600273D01*
X297763927Y-206532264D01*
X297595592Y-206700600D01*
X297020700Y-206700600D01*
X297020700Y-206632049D01*
X296985215Y-206499617D01*
X296916664Y-206380883D01*
X296819717Y-206283936D01*
X296700983Y-206215385D01*
X296568551Y-206179900D01*
X296431449Y-206179900D01*
X296299017Y-206215385D01*
X296180283Y-206283936D01*
X296083336Y-206380883D01*
X296014785Y-206499617D01*
X295979300Y-206632049D01*
X295335858Y-206632049D01*
X295236072Y-206532263D01*
X295236071Y-206532264D01*
X295225300Y-206600273D01*
X261500500Y-206600273D01*
X261500500Y-204104714D01*
X267234496Y-204104714D01*
X267388568Y-204124999D01*
X267388583Y-204125000D01*
X267611417Y-204125000D01*
X267611431Y-204124999D01*
X267765502Y-204104714D01*
X267500001Y-203839213D01*
X267500000Y-203839213D01*
X267234496Y-204104714D01*
X261500500Y-204104714D01*
X261500500Y-202313575D01*
X265800000Y-202313575D01*
X265800000Y-202536424D01*
X265820283Y-202690501D01*
X265820284Y-202690502D01*
X266085786Y-202425000D01*
X266085786Y-202424999D01*
X266026543Y-202365756D01*
X267050000Y-202365756D01*
X267050000Y-202484244D01*
X267080667Y-202598694D01*
X267139910Y-202701306D01*
X267223694Y-202785090D01*
X267326306Y-202844333D01*
X267440756Y-202875000D01*
X267559244Y-202875000D01*
X267673694Y-202844333D01*
X267776306Y-202785090D01*
X267860090Y-202701306D01*
X267919333Y-202598694D01*
X267950000Y-202484244D01*
X267950000Y-202424999D01*
X268914213Y-202424999D01*
X268914213Y-202425000D01*
X269192312Y-202703100D01*
X269205450Y-202702553D01*
X269265750Y-202737847D01*
X269297397Y-202800139D01*
X269299500Y-202822882D01*
X269299500Y-203461020D01*
X269309876Y-203638232D01*
X269364950Y-203934468D01*
X269364952Y-203934478D01*
X269459013Y-204220707D01*
X269459018Y-204220719D01*
X269590393Y-204491865D01*
X269590395Y-204491868D01*
X269590396Y-204491870D01*
X269723637Y-204693094D01*
X269756746Y-204743095D01*
X269955094Y-204969905D01*
X270124729Y-205118253D01*
X270181906Y-205168255D01*
X270433130Y-205334604D01*
X270704285Y-205465984D01*
X270798226Y-205496855D01*
X270990521Y-205560047D01*
X270990525Y-205560047D01*
X270990532Y-205560050D01*
X271286763Y-205615123D01*
X271463980Y-205625500D01*
X273536020Y-205625500D01*
X273713237Y-205615123D01*
X274009468Y-205560050D01*
X274009475Y-205560047D01*
X274009478Y-205560047D01*
X274161629Y-205510047D01*
X274295715Y-205465984D01*
X274566870Y-205334604D01*
X274818094Y-205168255D01*
X275044905Y-204969905D01*
X275243255Y-204743094D01*
X275409604Y-204491870D01*
X275540984Y-204220715D01*
X275605631Y-204023988D01*
X275635047Y-203934478D01*
X275635047Y-203934475D01*
X275635050Y-203934468D01*
X275690123Y-203638237D01*
X275700500Y-203461020D01*
X275700500Y-201388980D01*
X275700500Y-201388978D01*
X275697891Y-201344414D01*
X275697573Y-201338979D01*
X278299500Y-201338979D01*
X278299500Y-203411020D01*
X278309876Y-203588232D01*
X278364950Y-203884468D01*
X278364952Y-203884478D01*
X278459013Y-204170707D01*
X278459018Y-204170719D01*
X278590393Y-204441865D01*
X278590395Y-204441868D01*
X278590396Y-204441870D01*
X278623500Y-204491865D01*
X278756746Y-204693095D01*
X278955094Y-204919905D01*
X279012269Y-204969905D01*
X279181906Y-205118255D01*
X279433130Y-205284604D01*
X279704285Y-205415984D01*
X279767243Y-205436673D01*
X279990521Y-205510047D01*
X279990525Y-205510047D01*
X279990532Y-205510050D01*
X280286763Y-205565123D01*
X280463980Y-205575500D01*
X282536020Y-205575500D01*
X282713237Y-205565123D01*
X283009468Y-205510050D01*
X283009475Y-205510047D01*
X283009478Y-205510047D01*
X283098988Y-205480631D01*
X283232759Y-205436672D01*
X296331663Y-205436672D01*
X296500000Y-205605008D01*
X296500001Y-205605008D01*
X296668335Y-205436673D01*
X296668334Y-205436672D01*
X306831663Y-205436672D01*
X307000000Y-205605008D01*
X307000001Y-205605008D01*
X307168335Y-205436673D01*
X307168334Y-205436672D01*
X317331663Y-205436672D01*
X317500000Y-205605008D01*
X317500001Y-205605008D01*
X317668335Y-205436673D01*
X317668334Y-205436671D01*
X317600327Y-205425900D01*
X317399673Y-205425900D01*
X317331664Y-205436671D01*
X317331663Y-205436672D01*
X307168334Y-205436672D01*
X307168334Y-205436671D01*
X307100327Y-205425900D01*
X306899673Y-205425900D01*
X306831664Y-205436671D01*
X306831663Y-205436672D01*
X296668334Y-205436672D01*
X296668334Y-205436671D01*
X296600327Y-205425900D01*
X296399673Y-205425900D01*
X296331664Y-205436671D01*
X296331663Y-205436672D01*
X283232759Y-205436672D01*
X283295715Y-205415984D01*
X283382344Y-205374010D01*
X283413261Y-205359031D01*
X283485884Y-205323843D01*
X283566870Y-205284604D01*
X283818094Y-205118255D01*
X284044905Y-204919905D01*
X284243255Y-204693094D01*
X284409604Y-204441870D01*
X284540984Y-204170715D01*
X284579104Y-204054714D01*
X286234496Y-204054714D01*
X286388568Y-204074999D01*
X286388583Y-204075000D01*
X286611417Y-204075000D01*
X286611431Y-204074999D01*
X286765502Y-204054714D01*
X286500001Y-203789213D01*
X286500000Y-203789213D01*
X286234496Y-204054714D01*
X284579104Y-204054714D01*
X284635050Y-203884468D01*
X284690123Y-203588237D01*
X284700500Y-203411020D01*
X284700500Y-202772882D01*
X284720185Y-202705843D01*
X284772989Y-202660088D01*
X284805351Y-202655434D01*
X285085786Y-202375000D01*
X285085786Y-202374999D01*
X285026543Y-202315756D01*
X286050000Y-202315756D01*
X286050000Y-202434244D01*
X286080667Y-202548694D01*
X286139910Y-202651306D01*
X286223694Y-202735090D01*
X286326306Y-202794333D01*
X286440756Y-202825000D01*
X286559244Y-202825000D01*
X286673694Y-202794333D01*
X286776306Y-202735090D01*
X286860090Y-202651306D01*
X286919333Y-202548694D01*
X286950000Y-202434244D01*
X286950000Y-202374999D01*
X287914213Y-202374999D01*
X287914213Y-202375000D01*
X288179714Y-202640502D01*
X288199999Y-202486431D01*
X288200000Y-202486417D01*
X288200000Y-202263582D01*
X288199999Y-202263568D01*
X288179714Y-202109496D01*
X287914213Y-202374999D01*
X286950000Y-202374999D01*
X286950000Y-202315756D01*
X286919333Y-202201306D01*
X286860090Y-202098694D01*
X286776306Y-202014910D01*
X286673694Y-201955667D01*
X286559244Y-201925000D01*
X286440756Y-201925000D01*
X286326306Y-201955667D01*
X286223694Y-202014910D01*
X286139910Y-202098694D01*
X286080667Y-202201306D01*
X286050000Y-202315756D01*
X285026543Y-202315756D01*
X284807684Y-202096896D01*
X284794548Y-202097444D01*
X284734248Y-202062149D01*
X284702603Y-201999856D01*
X284700500Y-201977116D01*
X284700500Y-201338979D01*
X284690123Y-201161767D01*
X284690123Y-201161763D01*
X284635050Y-200865532D01*
X284635047Y-200865525D01*
X284635047Y-200865521D01*
X284602722Y-200767154D01*
X284579104Y-200695284D01*
X286234496Y-200695284D01*
X286500000Y-200960786D01*
X286500001Y-200960786D01*
X286765502Y-200695284D01*
X286765501Y-200695283D01*
X286611425Y-200675000D01*
X286388575Y-200675000D01*
X286234497Y-200695283D01*
X286234496Y-200695284D01*
X284579104Y-200695284D01*
X284540986Y-200579292D01*
X284540984Y-200579285D01*
X284409604Y-200308130D01*
X284243255Y-200056906D01*
X284088631Y-199880095D01*
X284044905Y-199830094D01*
X283818095Y-199631746D01*
X283818094Y-199631745D01*
X283566870Y-199465396D01*
X283566868Y-199465395D01*
X283566865Y-199465393D01*
X283295719Y-199334018D01*
X283295715Y-199334016D01*
X283295711Y-199334014D01*
X283295707Y-199334013D01*
X283009478Y-199239952D01*
X283009468Y-199239950D01*
X282713232Y-199184876D01*
X282536020Y-199174500D01*
X280463980Y-199174500D01*
X280286767Y-199184876D01*
X279990531Y-199239950D01*
X279990521Y-199239952D01*
X279704292Y-199334013D01*
X279704280Y-199334018D01*
X279433134Y-199465393D01*
X279181904Y-199631746D01*
X278955094Y-199830094D01*
X278756746Y-200056904D01*
X278590393Y-200308134D01*
X278459018Y-200579280D01*
X278459013Y-200579292D01*
X278364952Y-200865521D01*
X278364950Y-200865531D01*
X278309876Y-201161767D01*
X278299500Y-201338979D01*
X275697573Y-201338979D01*
X275690123Y-201211767D01*
X275690123Y-201211763D01*
X275635050Y-200915532D01*
X275635047Y-200915525D01*
X275635047Y-200915521D01*
X275540986Y-200629292D01*
X275540984Y-200629285D01*
X275409604Y-200358130D01*
X275243255Y-200106906D01*
X275199024Y-200056328D01*
X275044905Y-199880094D01*
X274818095Y-199681746D01*
X274818094Y-199681745D01*
X274566870Y-199515396D01*
X274566868Y-199515395D01*
X274566865Y-199515393D01*
X274295719Y-199384018D01*
X274295715Y-199384016D01*
X274295711Y-199384014D01*
X274295707Y-199384013D01*
X274009478Y-199289952D01*
X274009468Y-199289950D01*
X273713232Y-199234876D01*
X273536020Y-199224500D01*
X271463980Y-199224500D01*
X271286767Y-199234876D01*
X270990531Y-199289950D01*
X270990521Y-199289952D01*
X270704292Y-199384013D01*
X270704280Y-199384018D01*
X270433134Y-199515393D01*
X270181904Y-199681746D01*
X269955094Y-199880094D01*
X269756746Y-200106904D01*
X269590393Y-200358134D01*
X269459018Y-200629280D01*
X269459013Y-200629292D01*
X269364952Y-200915521D01*
X269364950Y-200915531D01*
X269309876Y-201211767D01*
X269299500Y-201388979D01*
X269299500Y-202027116D01*
X269279815Y-202094155D01*
X269227011Y-202139910D01*
X269194647Y-202144563D01*
X268914213Y-202424999D01*
X267950000Y-202424999D01*
X267950000Y-202365756D01*
X267919333Y-202251306D01*
X267860090Y-202148694D01*
X267776306Y-202064910D01*
X267673694Y-202005667D01*
X267559244Y-201975000D01*
X267440756Y-201975000D01*
X267326306Y-202005667D01*
X267223694Y-202064910D01*
X267139910Y-202148694D01*
X267080667Y-202251306D01*
X267050000Y-202365756D01*
X266026543Y-202365756D01*
X265820284Y-202159496D01*
X265820283Y-202159497D01*
X265800000Y-202313575D01*
X261500500Y-202313575D01*
X261500500Y-200745284D01*
X267234496Y-200745284D01*
X267500000Y-201010786D01*
X267500001Y-201010786D01*
X267765502Y-200745284D01*
X267765501Y-200745283D01*
X267611425Y-200725000D01*
X267388575Y-200725000D01*
X267234497Y-200745283D01*
X267234496Y-200745284D01*
X261500500Y-200745284D01*
X261500500Y-189294714D01*
X267234496Y-189294714D01*
X267388568Y-189314999D01*
X267388583Y-189315000D01*
X267611417Y-189315000D01*
X267611431Y-189314999D01*
X267765502Y-189294714D01*
X267500001Y-189029213D01*
X267500000Y-189029213D01*
X267234496Y-189294714D01*
X261500500Y-189294714D01*
X261500500Y-187503575D01*
X265800000Y-187503575D01*
X265800000Y-187726424D01*
X265820283Y-187880501D01*
X265820284Y-187880502D01*
X266085786Y-187615000D01*
X266085786Y-187614999D01*
X266026543Y-187555756D01*
X267050000Y-187555756D01*
X267050000Y-187674244D01*
X267080667Y-187788694D01*
X267139910Y-187891306D01*
X267223694Y-187975090D01*
X267326306Y-188034333D01*
X267440756Y-188065000D01*
X267559244Y-188065000D01*
X267673694Y-188034333D01*
X267776306Y-187975090D01*
X267860090Y-187891306D01*
X267919333Y-187788694D01*
X267950000Y-187674244D01*
X267950000Y-187614999D01*
X268914213Y-187614999D01*
X268914213Y-187615000D01*
X269192312Y-187893100D01*
X269205450Y-187892553D01*
X269265750Y-187927847D01*
X269297397Y-187990139D01*
X269299500Y-188012882D01*
X269299500Y-188651020D01*
X269309876Y-188828232D01*
X269364950Y-189124468D01*
X269364952Y-189124478D01*
X269459013Y-189410707D01*
X269459018Y-189410719D01*
X269590393Y-189681865D01*
X269590395Y-189681868D01*
X269590396Y-189681870D01*
X269723637Y-189883094D01*
X269756746Y-189933095D01*
X269955094Y-190159905D01*
X270124729Y-190308253D01*
X270181906Y-190358255D01*
X270433130Y-190524604D01*
X270704285Y-190655984D01*
X270798226Y-190686855D01*
X270990521Y-190750047D01*
X270990525Y-190750047D01*
X270990532Y-190750050D01*
X271286763Y-190805123D01*
X271463980Y-190815500D01*
X273536020Y-190815500D01*
X273713237Y-190805123D01*
X274009468Y-190750050D01*
X274009475Y-190750047D01*
X274009478Y-190750047D01*
X274161629Y-190700047D01*
X274295715Y-190655984D01*
X274566870Y-190524604D01*
X274818094Y-190358255D01*
X275044905Y-190159905D01*
X275243255Y-189933094D01*
X275409604Y-189681870D01*
X275540984Y-189410715D01*
X275605631Y-189213988D01*
X275635047Y-189124478D01*
X275635047Y-189124475D01*
X275635050Y-189124468D01*
X275690123Y-188828237D01*
X275700500Y-188651020D01*
X275700500Y-186578980D01*
X275700500Y-186578978D01*
X275697891Y-186534414D01*
X275697573Y-186528979D01*
X278299500Y-186528979D01*
X278299500Y-188601020D01*
X278309876Y-188778232D01*
X278364950Y-189074468D01*
X278364952Y-189074478D01*
X278459013Y-189360707D01*
X278459018Y-189360719D01*
X278590393Y-189631865D01*
X278590395Y-189631868D01*
X278590396Y-189631870D01*
X278623500Y-189681865D01*
X278756746Y-189883095D01*
X278955094Y-190109905D01*
X279012269Y-190159905D01*
X279181906Y-190308255D01*
X279433130Y-190474604D01*
X279704285Y-190605984D01*
X279798226Y-190636855D01*
X279990521Y-190700047D01*
X279990525Y-190700047D01*
X279990532Y-190700050D01*
X280286763Y-190755123D01*
X280463980Y-190765500D01*
X282536020Y-190765500D01*
X282713237Y-190755123D01*
X283009468Y-190700050D01*
X283009475Y-190700047D01*
X283009478Y-190700047D01*
X283098988Y-190670631D01*
X283295715Y-190605984D01*
X283566870Y-190474604D01*
X283818094Y-190308255D01*
X284044905Y-190109905D01*
X284243255Y-189883094D01*
X284409604Y-189631870D01*
X284540984Y-189360715D01*
X284579104Y-189244714D01*
X286234496Y-189244714D01*
X286388568Y-189264999D01*
X286388583Y-189265000D01*
X286611417Y-189265000D01*
X286611431Y-189264999D01*
X286765502Y-189244714D01*
X286500001Y-188979213D01*
X286500000Y-188979213D01*
X286234496Y-189244714D01*
X284579104Y-189244714D01*
X284635050Y-189074468D01*
X284690123Y-188778237D01*
X284700500Y-188601020D01*
X284700500Y-187962882D01*
X284720185Y-187895843D01*
X284772989Y-187850088D01*
X284805351Y-187845434D01*
X285085786Y-187565000D01*
X285085786Y-187564999D01*
X285026543Y-187505756D01*
X286050000Y-187505756D01*
X286050000Y-187624244D01*
X286080667Y-187738694D01*
X286139910Y-187841306D01*
X286223694Y-187925090D01*
X286326306Y-187984333D01*
X286440756Y-188015000D01*
X286559244Y-188015000D01*
X286673694Y-187984333D01*
X286776306Y-187925090D01*
X286860090Y-187841306D01*
X286919333Y-187738694D01*
X286950000Y-187624244D01*
X286950000Y-187564999D01*
X287914213Y-187564999D01*
X287914213Y-187565000D01*
X288179714Y-187830502D01*
X288199999Y-187676431D01*
X288200000Y-187676417D01*
X288200000Y-187453582D01*
X288199999Y-187453568D01*
X288179714Y-187299496D01*
X287914213Y-187564999D01*
X286950000Y-187564999D01*
X286950000Y-187505756D01*
X286919333Y-187391306D01*
X286860090Y-187288694D01*
X286776306Y-187204910D01*
X286673694Y-187145667D01*
X286559244Y-187115000D01*
X286440756Y-187115000D01*
X286326306Y-187145667D01*
X286223694Y-187204910D01*
X286139910Y-187288694D01*
X286080667Y-187391306D01*
X286050000Y-187505756D01*
X285026543Y-187505756D01*
X284807684Y-187286896D01*
X284794548Y-187287444D01*
X284734248Y-187252149D01*
X284702603Y-187189856D01*
X284700500Y-187167116D01*
X284700500Y-186528979D01*
X284690123Y-186351767D01*
X284690123Y-186351763D01*
X284635050Y-186055532D01*
X284635047Y-186055525D01*
X284635047Y-186055521D01*
X284602722Y-185957154D01*
X284579104Y-185885284D01*
X286234496Y-185885284D01*
X286500000Y-186150786D01*
X286500001Y-186150786D01*
X286765502Y-185885284D01*
X286765501Y-185885283D01*
X286611425Y-185865000D01*
X286388575Y-185865000D01*
X286234497Y-185885283D01*
X286234496Y-185885284D01*
X284579104Y-185885284D01*
X284540986Y-185769292D01*
X284540984Y-185769285D01*
X284409604Y-185498130D01*
X284243255Y-185246906D01*
X284088631Y-185070095D01*
X284044905Y-185020094D01*
X283818095Y-184821746D01*
X283818094Y-184821745D01*
X283566870Y-184655396D01*
X283566868Y-184655395D01*
X283566865Y-184655393D01*
X283295719Y-184524018D01*
X283295715Y-184524016D01*
X283295711Y-184524014D01*
X283295707Y-184524013D01*
X283009478Y-184429952D01*
X283009468Y-184429950D01*
X282713232Y-184374876D01*
X282536020Y-184364500D01*
X280463980Y-184364500D01*
X280286767Y-184374876D01*
X279990531Y-184429950D01*
X279990521Y-184429952D01*
X279704292Y-184524013D01*
X279704280Y-184524018D01*
X279433134Y-184655393D01*
X279181904Y-184821746D01*
X278955094Y-185020094D01*
X278756746Y-185246904D01*
X278590393Y-185498134D01*
X278459018Y-185769280D01*
X278459013Y-185769292D01*
X278364952Y-186055521D01*
X278364950Y-186055531D01*
X278309876Y-186351767D01*
X278299500Y-186528979D01*
X275697573Y-186528979D01*
X275690123Y-186401767D01*
X275690123Y-186401763D01*
X275635050Y-186105532D01*
X275635047Y-186105525D01*
X275635047Y-186105521D01*
X275540986Y-185819292D01*
X275540984Y-185819285D01*
X275409604Y-185548130D01*
X275243255Y-185296906D01*
X275199024Y-185246328D01*
X275044905Y-185070094D01*
X274818095Y-184871746D01*
X274818094Y-184871745D01*
X274566870Y-184705396D01*
X274566868Y-184705395D01*
X274566865Y-184705393D01*
X274295719Y-184574018D01*
X274295715Y-184574016D01*
X274295711Y-184574014D01*
X274295707Y-184574013D01*
X274009478Y-184479952D01*
X274009468Y-184479950D01*
X273713232Y-184424876D01*
X273536020Y-184414500D01*
X271463980Y-184414500D01*
X271286767Y-184424876D01*
X270990531Y-184479950D01*
X270990521Y-184479952D01*
X270704292Y-184574013D01*
X270704280Y-184574018D01*
X270433134Y-184705393D01*
X270181904Y-184871746D01*
X269955094Y-185070094D01*
X269756746Y-185296904D01*
X269590393Y-185548134D01*
X269459018Y-185819280D01*
X269459013Y-185819292D01*
X269364952Y-186105521D01*
X269364950Y-186105531D01*
X269309876Y-186401767D01*
X269299500Y-186578979D01*
X269299500Y-187217116D01*
X269279815Y-187284155D01*
X269227011Y-187329910D01*
X269194647Y-187334563D01*
X268914213Y-187614999D01*
X267950000Y-187614999D01*
X267950000Y-187555756D01*
X267919333Y-187441306D01*
X267860090Y-187338694D01*
X267776306Y-187254910D01*
X267673694Y-187195667D01*
X267559244Y-187165000D01*
X267440756Y-187165000D01*
X267326306Y-187195667D01*
X267223694Y-187254910D01*
X267139910Y-187338694D01*
X267080667Y-187441306D01*
X267050000Y-187555756D01*
X266026543Y-187555756D01*
X265820284Y-187349496D01*
X265820283Y-187349497D01*
X265800000Y-187503575D01*
X261500500Y-187503575D01*
X261500500Y-185935284D01*
X267234496Y-185935284D01*
X267500000Y-186200786D01*
X267500001Y-186200786D01*
X267765502Y-185935284D01*
X267765501Y-185935283D01*
X267611425Y-185915000D01*
X267388575Y-185915000D01*
X267234497Y-185935283D01*
X267234496Y-185935284D01*
X261500500Y-185935284D01*
X261500500Y-177914449D01*
X293724800Y-177914449D01*
X293724800Y-179606750D01*
X293740104Y-179820733D01*
X293800928Y-180100337D01*
X293900935Y-180368466D01*
X294038070Y-180619609D01*
X294038075Y-180619617D01*
X294209554Y-180848687D01*
X294209570Y-180848705D01*
X294411894Y-181051029D01*
X294411912Y-181051045D01*
X294640982Y-181222524D01*
X294640990Y-181222529D01*
X294892133Y-181359664D01*
X294892132Y-181359664D01*
X294892136Y-181359665D01*
X294892139Y-181359667D01*
X295160254Y-181459669D01*
X295160260Y-181459670D01*
X295160262Y-181459671D01*
X295439866Y-181520495D01*
X295439868Y-181520495D01*
X295439872Y-181520496D01*
X295653852Y-181535800D01*
X297346148Y-181535800D01*
X297560128Y-181520496D01*
X297839746Y-181459669D01*
X298107861Y-181359667D01*
X298359015Y-181222526D01*
X298588095Y-181051039D01*
X298790439Y-180848695D01*
X298961926Y-180619615D01*
X299099067Y-180368461D01*
X299199069Y-180100346D01*
X299259896Y-179820728D01*
X299275200Y-179606748D01*
X299275200Y-177914452D01*
X299275200Y-177914449D01*
X304224800Y-177914449D01*
X304224800Y-179606750D01*
X304240104Y-179820733D01*
X304300928Y-180100337D01*
X304400935Y-180368466D01*
X304538070Y-180619609D01*
X304538075Y-180619617D01*
X304709554Y-180848687D01*
X304709570Y-180848705D01*
X304911894Y-181051029D01*
X304911912Y-181051045D01*
X305140982Y-181222524D01*
X305140990Y-181222529D01*
X305392133Y-181359664D01*
X305392132Y-181359664D01*
X305392136Y-181359665D01*
X305392139Y-181359667D01*
X305660254Y-181459669D01*
X305660260Y-181459670D01*
X305660262Y-181459671D01*
X305939866Y-181520495D01*
X305939868Y-181520495D01*
X305939872Y-181520496D01*
X306153852Y-181535800D01*
X307846148Y-181535800D01*
X308060128Y-181520496D01*
X308339746Y-181459669D01*
X308607861Y-181359667D01*
X308859015Y-181222526D01*
X309088095Y-181051039D01*
X309290439Y-180848695D01*
X309461926Y-180619615D01*
X309599067Y-180368461D01*
X309699069Y-180100346D01*
X309759896Y-179820728D01*
X309775200Y-179606748D01*
X309775200Y-177914452D01*
X309775200Y-177914449D01*
X314724800Y-177914449D01*
X314724800Y-179606750D01*
X314740104Y-179820733D01*
X314800928Y-180100337D01*
X314900935Y-180368466D01*
X315038070Y-180619609D01*
X315038075Y-180619617D01*
X315209554Y-180848687D01*
X315209570Y-180848705D01*
X315411894Y-181051029D01*
X315411912Y-181051045D01*
X315640982Y-181222524D01*
X315640990Y-181222529D01*
X315892133Y-181359664D01*
X315892132Y-181359664D01*
X315892136Y-181359665D01*
X315892139Y-181359667D01*
X316160254Y-181459669D01*
X316160260Y-181459670D01*
X316160262Y-181459671D01*
X316439866Y-181520495D01*
X316439868Y-181520495D01*
X316439872Y-181520496D01*
X316653852Y-181535800D01*
X318346148Y-181535800D01*
X318560128Y-181520496D01*
X318839746Y-181459669D01*
X319107861Y-181359667D01*
X319359015Y-181222526D01*
X319588095Y-181051039D01*
X319790439Y-180848695D01*
X319961926Y-180619615D01*
X320099067Y-180368461D01*
X320199069Y-180100346D01*
X320259896Y-179820728D01*
X320275200Y-179606748D01*
X320275200Y-177914452D01*
X320259896Y-177700472D01*
X320199069Y-177420854D01*
X320099067Y-177152739D01*
X319961926Y-176901585D01*
X319961924Y-176901582D01*
X319790445Y-176672512D01*
X319790429Y-176672494D01*
X319588105Y-176470170D01*
X319588087Y-176470154D01*
X319359017Y-176298675D01*
X319359009Y-176298670D01*
X319107866Y-176161535D01*
X319107867Y-176161535D01*
X319000615Y-176121532D01*
X318839746Y-176061531D01*
X318839743Y-176061530D01*
X318839737Y-176061528D01*
X318560133Y-176000704D01*
X318346150Y-175985400D01*
X318346148Y-175985400D01*
X316653852Y-175985400D01*
X316653849Y-175985400D01*
X316439866Y-176000704D01*
X316160262Y-176061528D01*
X315892133Y-176161535D01*
X315640990Y-176298670D01*
X315640982Y-176298675D01*
X315411912Y-176470154D01*
X315411894Y-176470170D01*
X315209570Y-176672494D01*
X315209554Y-176672512D01*
X315038075Y-176901582D01*
X315038070Y-176901590D01*
X314900935Y-177152733D01*
X314800928Y-177420862D01*
X314740104Y-177700466D01*
X314724800Y-177914449D01*
X309775200Y-177914449D01*
X309759896Y-177700472D01*
X309699069Y-177420854D01*
X309599067Y-177152739D01*
X309461926Y-176901585D01*
X309461924Y-176901582D01*
X309290445Y-176672512D01*
X309290429Y-176672494D01*
X309088105Y-176470170D01*
X309088087Y-176470154D01*
X308859017Y-176298675D01*
X308859009Y-176298670D01*
X308607866Y-176161535D01*
X308607867Y-176161535D01*
X308500615Y-176121532D01*
X308339746Y-176061531D01*
X308339743Y-176061530D01*
X308339737Y-176061528D01*
X308060133Y-176000704D01*
X307846150Y-175985400D01*
X307846148Y-175985400D01*
X306153852Y-175985400D01*
X306153849Y-175985400D01*
X305939866Y-176000704D01*
X305660262Y-176061528D01*
X305392133Y-176161535D01*
X305140990Y-176298670D01*
X305140982Y-176298675D01*
X304911912Y-176470154D01*
X304911894Y-176470170D01*
X304709570Y-176672494D01*
X304709554Y-176672512D01*
X304538075Y-176901582D01*
X304538070Y-176901590D01*
X304400935Y-177152733D01*
X304300928Y-177420862D01*
X304240104Y-177700466D01*
X304224800Y-177914449D01*
X299275200Y-177914449D01*
X299259896Y-177700472D01*
X299199069Y-177420854D01*
X299099067Y-177152739D01*
X298961926Y-176901585D01*
X298961924Y-176901582D01*
X298790445Y-176672512D01*
X298790429Y-176672494D01*
X298588105Y-176470170D01*
X298588087Y-176470154D01*
X298359017Y-176298675D01*
X298359009Y-176298670D01*
X298107866Y-176161535D01*
X298107867Y-176161535D01*
X298000615Y-176121532D01*
X297839746Y-176061531D01*
X297839743Y-176061530D01*
X297839737Y-176061528D01*
X297560133Y-176000704D01*
X297346150Y-175985400D01*
X297346148Y-175985400D01*
X295653852Y-175985400D01*
X295653849Y-175985400D01*
X295439866Y-176000704D01*
X295160262Y-176061528D01*
X294892133Y-176161535D01*
X294640990Y-176298670D01*
X294640982Y-176298675D01*
X294411912Y-176470154D01*
X294411894Y-176470170D01*
X294209570Y-176672494D01*
X294209554Y-176672512D01*
X294038075Y-176901582D01*
X294038070Y-176901590D01*
X293900935Y-177152733D01*
X293800928Y-177420862D01*
X293740104Y-177700466D01*
X293724800Y-177914449D01*
X261500500Y-177914449D01*
X261500500Y-166218430D01*
X262572201Y-166218430D01*
X262572201Y-166531573D01*
X262607257Y-166842713D01*
X262607260Y-166842731D01*
X262676937Y-167148007D01*
X262676941Y-167148019D01*
X262780356Y-167443559D01*
X262780365Y-167443581D01*
X262916217Y-167725681D01*
X262968588Y-167809029D01*
X262987588Y-167876266D01*
X262968588Y-167940972D01*
X262916222Y-168024313D01*
X262916217Y-168024321D01*
X262780365Y-168306421D01*
X262780356Y-168306443D01*
X262676941Y-168601983D01*
X262676937Y-168601995D01*
X262607260Y-168907271D01*
X262607257Y-168907289D01*
X262572201Y-169218429D01*
X262572201Y-169531572D01*
X262607257Y-169842712D01*
X262607260Y-169842730D01*
X262676937Y-170148006D01*
X262676941Y-170148018D01*
X262780356Y-170443558D01*
X262780365Y-170443580D01*
X262916217Y-170725680D01*
X262916221Y-170725686D01*
X263082816Y-170990821D01*
X263278050Y-171235636D01*
X263499466Y-171457052D01*
X263744281Y-171652286D01*
X264009416Y-171818881D01*
X264009421Y-171818884D01*
X264291521Y-171954736D01*
X264291530Y-171954739D01*
X264291537Y-171954743D01*
X264291543Y-171954745D01*
X264587083Y-172058160D01*
X264587095Y-172058164D01*
X264892375Y-172127842D01*
X264892381Y-172127842D01*
X264892389Y-172127844D01*
X265099815Y-172151214D01*
X265203530Y-172162900D01*
X265203533Y-172162901D01*
X265203536Y-172162901D01*
X265516669Y-172162901D01*
X265516670Y-172162900D01*
X265675688Y-172144983D01*
X265827812Y-172127844D01*
X265827817Y-172127843D01*
X265827827Y-172127842D01*
X266133107Y-172058164D01*
X266428665Y-171954743D01*
X266556301Y-171893276D01*
X266625240Y-171881925D01*
X266663899Y-171893275D01*
X266791537Y-171954743D01*
X266791543Y-171954745D01*
X267087083Y-172058160D01*
X267087095Y-172058164D01*
X267392375Y-172127842D01*
X267392381Y-172127842D01*
X267392389Y-172127844D01*
X267599815Y-172151214D01*
X267703530Y-172162900D01*
X267703533Y-172162901D01*
X267703536Y-172162901D01*
X268016669Y-172162901D01*
X268016670Y-172162900D01*
X268175688Y-172144983D01*
X268327812Y-172127844D01*
X268327817Y-172127843D01*
X268327827Y-172127842D01*
X268633107Y-172058164D01*
X268928665Y-171954743D01*
X269056301Y-171893276D01*
X269125240Y-171881925D01*
X269163899Y-171893275D01*
X269291537Y-171954743D01*
X269291543Y-171954745D01*
X269587083Y-172058160D01*
X269587095Y-172058164D01*
X269892375Y-172127842D01*
X269892381Y-172127842D01*
X269892389Y-172127844D01*
X270099815Y-172151214D01*
X270203530Y-172162900D01*
X270203533Y-172162901D01*
X270203536Y-172162901D01*
X270516669Y-172162901D01*
X270516670Y-172162900D01*
X270675688Y-172144983D01*
X270827812Y-172127844D01*
X270827817Y-172127843D01*
X270827827Y-172127842D01*
X271133107Y-172058164D01*
X271428665Y-171954743D01*
X271556301Y-171893276D01*
X271625240Y-171881925D01*
X271663899Y-171893275D01*
X271791537Y-171954743D01*
X271791543Y-171954745D01*
X272087083Y-172058160D01*
X272087095Y-172058164D01*
X272392375Y-172127842D01*
X272392381Y-172127842D01*
X272392389Y-172127844D01*
X272599815Y-172151214D01*
X272703530Y-172162900D01*
X272703533Y-172162901D01*
X272703536Y-172162901D01*
X273016669Y-172162901D01*
X273016670Y-172162900D01*
X273175688Y-172144983D01*
X273327812Y-172127844D01*
X273327817Y-172127843D01*
X273327827Y-172127842D01*
X273633107Y-172058164D01*
X273928665Y-171954743D01*
X274056301Y-171893276D01*
X274125240Y-171881925D01*
X274163899Y-171893275D01*
X274291537Y-171954743D01*
X274291543Y-171954745D01*
X274587083Y-172058160D01*
X274587095Y-172058164D01*
X274892375Y-172127842D01*
X274892381Y-172127842D01*
X274892389Y-172127844D01*
X275099815Y-172151214D01*
X275203530Y-172162900D01*
X275203533Y-172162901D01*
X275203536Y-172162901D01*
X275516669Y-172162901D01*
X275516670Y-172162900D01*
X275675688Y-172144983D01*
X275827812Y-172127844D01*
X275827817Y-172127843D01*
X275827827Y-172127842D01*
X276133107Y-172058164D01*
X276428665Y-171954743D01*
X276579874Y-171881925D01*
X276710780Y-171818884D01*
X276710780Y-171818883D01*
X276710786Y-171818881D01*
X276869779Y-171718979D01*
X278299500Y-171718979D01*
X278299500Y-173791020D01*
X278309876Y-173968232D01*
X278364950Y-174264468D01*
X278364952Y-174264478D01*
X278459013Y-174550707D01*
X278459018Y-174550719D01*
X278590393Y-174821865D01*
X278756746Y-175073095D01*
X278955094Y-175299905D01*
X279131328Y-175454024D01*
X279181906Y-175498255D01*
X279433130Y-175664604D01*
X279704285Y-175795984D01*
X279798226Y-175826855D01*
X279990521Y-175890047D01*
X279990525Y-175890047D01*
X279990532Y-175890050D01*
X280286763Y-175945123D01*
X280463980Y-175955500D01*
X282536020Y-175955500D01*
X282713237Y-175945123D01*
X283009468Y-175890050D01*
X283009475Y-175890047D01*
X283009478Y-175890047D01*
X283098988Y-175860631D01*
X283295715Y-175795984D01*
X283566870Y-175664604D01*
X283818094Y-175498255D01*
X284044905Y-175299905D01*
X284243255Y-175073094D01*
X284409604Y-174821870D01*
X284540984Y-174550715D01*
X284579104Y-174434714D01*
X286234496Y-174434714D01*
X286388568Y-174454999D01*
X286388583Y-174455000D01*
X286611417Y-174455000D01*
X286611431Y-174454999D01*
X286765502Y-174434714D01*
X286500001Y-174169213D01*
X286500000Y-174169213D01*
X286234496Y-174434714D01*
X284579104Y-174434714D01*
X284635050Y-174264468D01*
X284690123Y-173968237D01*
X284700500Y-173791020D01*
X284700500Y-173152882D01*
X284720185Y-173085843D01*
X284772989Y-173040088D01*
X284805351Y-173035434D01*
X285085786Y-172755000D01*
X285085786Y-172754999D01*
X285026543Y-172695756D01*
X286050000Y-172695756D01*
X286050000Y-172814244D01*
X286080667Y-172928694D01*
X286139910Y-173031306D01*
X286223694Y-173115090D01*
X286326306Y-173174333D01*
X286440756Y-173205000D01*
X286559244Y-173205000D01*
X286673694Y-173174333D01*
X286776306Y-173115090D01*
X286860090Y-173031306D01*
X286919333Y-172928694D01*
X286950000Y-172814244D01*
X286950000Y-172754999D01*
X287914213Y-172754999D01*
X287914213Y-172755000D01*
X288179714Y-173020502D01*
X288199999Y-172866431D01*
X288200000Y-172866417D01*
X288200000Y-172643582D01*
X288199999Y-172643568D01*
X288179714Y-172489496D01*
X287914213Y-172754999D01*
X286950000Y-172754999D01*
X286950000Y-172695756D01*
X286919333Y-172581306D01*
X286860090Y-172478694D01*
X286776306Y-172394910D01*
X286673694Y-172335667D01*
X286559244Y-172305000D01*
X286440756Y-172305000D01*
X286326306Y-172335667D01*
X286223694Y-172394910D01*
X286139910Y-172478694D01*
X286080667Y-172581306D01*
X286050000Y-172695756D01*
X285026543Y-172695756D01*
X284807684Y-172476896D01*
X284794548Y-172477444D01*
X284734248Y-172442149D01*
X284702603Y-172379856D01*
X284700500Y-172357116D01*
X284700500Y-171718979D01*
X284690123Y-171541767D01*
X284690123Y-171541763D01*
X284635050Y-171245532D01*
X284635047Y-171245525D01*
X284635047Y-171245521D01*
X284602722Y-171147154D01*
X284579104Y-171075284D01*
X286234496Y-171075284D01*
X286500000Y-171340786D01*
X286500001Y-171340786D01*
X286765502Y-171075284D01*
X286765501Y-171075283D01*
X286611425Y-171055000D01*
X286388575Y-171055000D01*
X286234497Y-171075283D01*
X286234496Y-171075284D01*
X284579104Y-171075284D01*
X284540986Y-170959292D01*
X284540984Y-170959285D01*
X284409604Y-170688130D01*
X284243255Y-170436906D01*
X284199024Y-170386328D01*
X284044905Y-170210094D01*
X283818095Y-170011746D01*
X283818094Y-170011745D01*
X283566870Y-169845396D01*
X283566868Y-169845395D01*
X283566865Y-169845393D01*
X283295719Y-169714018D01*
X283295715Y-169714016D01*
X283295711Y-169714014D01*
X283295707Y-169714013D01*
X283009478Y-169619952D01*
X283009468Y-169619950D01*
X282713232Y-169564876D01*
X282536020Y-169554500D01*
X280463980Y-169554500D01*
X280286767Y-169564876D01*
X279990531Y-169619950D01*
X279990521Y-169619952D01*
X279704292Y-169714013D01*
X279704280Y-169714018D01*
X279433134Y-169845393D01*
X279181904Y-170011746D01*
X278955094Y-170210094D01*
X278756746Y-170436904D01*
X278590393Y-170688134D01*
X278459018Y-170959280D01*
X278459013Y-170959292D01*
X278364952Y-171245521D01*
X278364950Y-171245531D01*
X278309876Y-171541767D01*
X278299500Y-171718979D01*
X276869779Y-171718979D01*
X276975921Y-171652286D01*
X277220736Y-171457052D01*
X277442152Y-171235636D01*
X277637386Y-170990821D01*
X277803981Y-170725686D01*
X277939843Y-170443565D01*
X278043264Y-170148007D01*
X278112942Y-169842727D01*
X278148001Y-169531566D01*
X278148001Y-169218436D01*
X278112942Y-168907275D01*
X278043264Y-168601995D01*
X277939843Y-168306437D01*
X277939839Y-168306430D01*
X277939836Y-168306421D01*
X277803984Y-168024321D01*
X277751613Y-167940973D01*
X277732613Y-167873736D01*
X277751614Y-167809028D01*
X277754193Y-167804922D01*
X277803981Y-167725687D01*
X277939843Y-167443566D01*
X278043264Y-167148008D01*
X278112942Y-166842728D01*
X278148001Y-166531567D01*
X278148001Y-166218437D01*
X278148000Y-166218427D01*
X306212100Y-166218427D01*
X306212100Y-166531570D01*
X306247156Y-166842710D01*
X306247159Y-166842728D01*
X306316836Y-167148004D01*
X306316840Y-167148016D01*
X306420255Y-167443556D01*
X306420264Y-167443578D01*
X306556116Y-167725678D01*
X306556121Y-167725686D01*
X306608488Y-167809029D01*
X306627488Y-167876265D01*
X306608488Y-167940971D01*
X306556121Y-168024313D01*
X306556116Y-168024321D01*
X306420264Y-168306421D01*
X306420255Y-168306443D01*
X306316840Y-168601983D01*
X306316836Y-168601995D01*
X306247159Y-168907271D01*
X306247156Y-168907289D01*
X306212100Y-169218429D01*
X306212100Y-169531572D01*
X306247156Y-169842712D01*
X306247159Y-169842730D01*
X306316836Y-170148006D01*
X306316840Y-170148018D01*
X306420255Y-170443558D01*
X306420264Y-170443580D01*
X306556116Y-170725680D01*
X306556120Y-170725686D01*
X306722715Y-170990821D01*
X306917949Y-171235636D01*
X307139365Y-171457052D01*
X307384180Y-171652286D01*
X307649315Y-171818881D01*
X307649320Y-171818884D01*
X307931420Y-171954736D01*
X307931429Y-171954739D01*
X307931436Y-171954743D01*
X307931442Y-171954745D01*
X308226982Y-172058160D01*
X308226994Y-172058164D01*
X308532274Y-172127842D01*
X308532280Y-172127842D01*
X308532288Y-172127844D01*
X308739714Y-172151214D01*
X308843429Y-172162900D01*
X308843432Y-172162901D01*
X308843435Y-172162901D01*
X309156568Y-172162901D01*
X309156569Y-172162900D01*
X309315587Y-172144983D01*
X309467711Y-172127844D01*
X309467716Y-172127843D01*
X309467726Y-172127842D01*
X309773006Y-172058164D01*
X310068564Y-171954743D01*
X310196200Y-171893276D01*
X310265139Y-171881925D01*
X310303798Y-171893275D01*
X310431436Y-171954743D01*
X310431442Y-171954745D01*
X310726982Y-172058160D01*
X310726994Y-172058164D01*
X311032274Y-172127842D01*
X311032280Y-172127842D01*
X311032288Y-172127844D01*
X311239714Y-172151214D01*
X311343429Y-172162900D01*
X311343432Y-172162901D01*
X311343435Y-172162901D01*
X311656568Y-172162901D01*
X311656569Y-172162900D01*
X311815587Y-172144983D01*
X311967711Y-172127844D01*
X311967716Y-172127843D01*
X311967726Y-172127842D01*
X312273006Y-172058164D01*
X312568564Y-171954743D01*
X312696200Y-171893276D01*
X312765139Y-171881925D01*
X312803798Y-171893275D01*
X312931436Y-171954743D01*
X312931442Y-171954745D01*
X313226982Y-172058160D01*
X313226994Y-172058164D01*
X313532274Y-172127842D01*
X313532280Y-172127842D01*
X313532288Y-172127844D01*
X313739714Y-172151214D01*
X313843429Y-172162900D01*
X313843432Y-172162901D01*
X313843435Y-172162901D01*
X314156568Y-172162901D01*
X314156569Y-172162900D01*
X314315587Y-172144983D01*
X314467711Y-172127844D01*
X314467716Y-172127843D01*
X314467726Y-172127842D01*
X314773006Y-172058164D01*
X315068564Y-171954743D01*
X315196200Y-171893276D01*
X315265139Y-171881925D01*
X315303798Y-171893275D01*
X315431436Y-171954743D01*
X315431442Y-171954745D01*
X315726982Y-172058160D01*
X315726994Y-172058164D01*
X316032274Y-172127842D01*
X316032280Y-172127842D01*
X316032288Y-172127844D01*
X316239714Y-172151214D01*
X316343429Y-172162900D01*
X316343432Y-172162901D01*
X316343435Y-172162901D01*
X316656568Y-172162901D01*
X316656569Y-172162900D01*
X316815587Y-172144983D01*
X316967711Y-172127844D01*
X316967716Y-172127843D01*
X316967726Y-172127842D01*
X317273006Y-172058164D01*
X317568564Y-171954743D01*
X317696200Y-171893276D01*
X317765139Y-171881925D01*
X317803798Y-171893275D01*
X317931436Y-171954743D01*
X317931442Y-171954745D01*
X318226982Y-172058160D01*
X318226994Y-172058164D01*
X318532274Y-172127842D01*
X318532280Y-172127842D01*
X318532288Y-172127844D01*
X318739714Y-172151214D01*
X318843429Y-172162900D01*
X318843432Y-172162901D01*
X318843435Y-172162901D01*
X319156568Y-172162901D01*
X319156569Y-172162900D01*
X319315587Y-172144983D01*
X319467711Y-172127844D01*
X319467716Y-172127843D01*
X319467726Y-172127842D01*
X319773006Y-172058164D01*
X320068564Y-171954743D01*
X320219773Y-171881925D01*
X320350679Y-171818884D01*
X320350679Y-171818883D01*
X320350685Y-171818881D01*
X320615820Y-171652286D01*
X320860635Y-171457052D01*
X321082051Y-171235636D01*
X321277285Y-170990821D01*
X321443880Y-170725686D01*
X321579742Y-170443565D01*
X321683163Y-170148007D01*
X321752841Y-169842727D01*
X321787900Y-169531566D01*
X321787900Y-169218436D01*
X321752841Y-168907275D01*
X321683163Y-168601995D01*
X321579742Y-168306437D01*
X321579738Y-168306430D01*
X321579735Y-168306421D01*
X321443883Y-168024321D01*
X321391511Y-167940972D01*
X321372511Y-167873736D01*
X321391511Y-167809028D01*
X321443880Y-167725684D01*
X321443883Y-167725678D01*
X321579735Y-167443578D01*
X321579736Y-167443574D01*
X321579742Y-167443563D01*
X321683163Y-167148005D01*
X321752841Y-166842725D01*
X321787900Y-166531564D01*
X321787900Y-166218434D01*
X321787899Y-166218429D01*
X321787899Y-166218427D01*
X321752843Y-165907287D01*
X321752840Y-165907269D01*
X321683163Y-165601993D01*
X321683159Y-165601981D01*
X321579744Y-165306441D01*
X321579735Y-165306419D01*
X321443883Y-165024319D01*
X321443880Y-165024314D01*
X321277285Y-164759179D01*
X321082051Y-164514364D01*
X320860635Y-164292948D01*
X320615820Y-164097714D01*
X320350685Y-163931119D01*
X320350684Y-163931118D01*
X320347739Y-163929268D01*
X320348296Y-163928380D01*
X320302251Y-163881840D01*
X320287400Y-163822996D01*
X320287400Y-163773678D01*
X320277483Y-163711067D01*
X320214964Y-163773586D01*
X320153641Y-163807070D01*
X320083949Y-163802086D01*
X320073489Y-163797628D01*
X320068573Y-163795261D01*
X320068557Y-163795254D01*
X319773017Y-163691839D01*
X319773005Y-163691835D01*
X319470275Y-163622739D01*
X319426826Y-163547484D01*
X319327515Y-163448173D01*
X319205885Y-163377949D01*
X319070223Y-163341599D01*
X318929777Y-163341599D01*
X318794115Y-163377949D01*
X318672485Y-163448173D01*
X318573174Y-163547484D01*
X318529725Y-163622738D01*
X318226994Y-163691835D01*
X318226982Y-163691839D01*
X317931443Y-163795254D01*
X317931420Y-163795264D01*
X317926511Y-163797628D01*
X317872715Y-163809905D01*
X317627282Y-163809904D01*
X317606035Y-163803665D01*
X317583948Y-163802085D01*
X317573489Y-163797628D01*
X317568573Y-163795261D01*
X317568557Y-163795254D01*
X317273017Y-163691839D01*
X317273005Y-163691835D01*
X316970275Y-163622739D01*
X316926826Y-163547484D01*
X316827515Y-163448173D01*
X316705885Y-163377949D01*
X316570223Y-163341599D01*
X316429777Y-163341599D01*
X316294115Y-163377949D01*
X316172485Y-163448173D01*
X316073174Y-163547484D01*
X316029725Y-163622738D01*
X315726994Y-163691835D01*
X315726982Y-163691839D01*
X315431443Y-163795254D01*
X315431420Y-163795264D01*
X315426511Y-163797628D01*
X315372715Y-163809905D01*
X315127282Y-163809904D01*
X315106035Y-163803665D01*
X315083948Y-163802085D01*
X315073489Y-163797628D01*
X315068573Y-163795261D01*
X315068557Y-163795254D01*
X314773017Y-163691839D01*
X314773005Y-163691835D01*
X314470275Y-163622739D01*
X314426826Y-163547484D01*
X314327515Y-163448173D01*
X314205885Y-163377949D01*
X314070223Y-163341599D01*
X313929777Y-163341599D01*
X313794115Y-163377949D01*
X313672485Y-163448173D01*
X313573174Y-163547484D01*
X313529725Y-163622738D01*
X313226994Y-163691835D01*
X313226982Y-163691839D01*
X312931443Y-163795254D01*
X312931420Y-163795264D01*
X312926511Y-163797628D01*
X312872715Y-163809905D01*
X312627282Y-163809904D01*
X312606035Y-163803665D01*
X312583948Y-163802085D01*
X312573489Y-163797628D01*
X312568573Y-163795261D01*
X312568557Y-163795254D01*
X312273017Y-163691839D01*
X312273005Y-163691835D01*
X311970275Y-163622739D01*
X311926826Y-163547484D01*
X311827515Y-163448173D01*
X311705885Y-163377949D01*
X311570223Y-163341599D01*
X311429777Y-163341599D01*
X311294115Y-163377949D01*
X311172485Y-163448173D01*
X311073174Y-163547484D01*
X311029725Y-163622738D01*
X310726994Y-163691835D01*
X310726982Y-163691839D01*
X310431443Y-163795254D01*
X310431420Y-163795264D01*
X310426511Y-163797628D01*
X310372715Y-163809905D01*
X310127282Y-163809904D01*
X310106035Y-163803665D01*
X310083948Y-163802085D01*
X310073489Y-163797628D01*
X310068573Y-163795261D01*
X310068557Y-163795254D01*
X309773017Y-163691839D01*
X309773005Y-163691835D01*
X309470275Y-163622739D01*
X309426826Y-163547484D01*
X309327515Y-163448173D01*
X309205885Y-163377949D01*
X309070223Y-163341599D01*
X308929777Y-163341599D01*
X308794115Y-163377949D01*
X308672485Y-163448173D01*
X308573174Y-163547484D01*
X308529725Y-163622738D01*
X308226994Y-163691835D01*
X308226982Y-163691839D01*
X307931443Y-163795254D01*
X307931420Y-163795264D01*
X307926511Y-163797628D01*
X307857569Y-163808976D01*
X307793436Y-163781250D01*
X307785034Y-163773586D01*
X307722515Y-163711067D01*
X307712600Y-163773672D01*
X307712600Y-163822996D01*
X307692915Y-163890035D01*
X307651794Y-163928525D01*
X307652261Y-163929268D01*
X307384181Y-164097713D01*
X307139365Y-164292947D01*
X306917948Y-164514364D01*
X306722714Y-164759180D01*
X306556116Y-165024319D01*
X306420264Y-165306419D01*
X306420255Y-165306441D01*
X306316840Y-165601981D01*
X306316836Y-165601993D01*
X306247159Y-165907269D01*
X306247156Y-165907287D01*
X306212100Y-166218427D01*
X278148000Y-166218427D01*
X278112943Y-165907287D01*
X278112941Y-165907272D01*
X278043264Y-165601996D01*
X278043260Y-165601984D01*
X277939845Y-165306444D01*
X277939841Y-165306435D01*
X277939839Y-165306431D01*
X277939836Y-165306422D01*
X277803984Y-165024322D01*
X277803979Y-165024314D01*
X277637386Y-164759182D01*
X277442152Y-164514367D01*
X277220736Y-164292951D01*
X276975921Y-164097717D01*
X276710786Y-163931122D01*
X276710785Y-163931121D01*
X276707840Y-163929271D01*
X276708397Y-163928383D01*
X276662352Y-163881843D01*
X276647501Y-163822999D01*
X276647501Y-163773681D01*
X276637584Y-163711070D01*
X276575065Y-163773589D01*
X276513742Y-163807073D01*
X276444050Y-163802089D01*
X276433590Y-163797631D01*
X276428674Y-163795264D01*
X276428658Y-163795257D01*
X276133118Y-163691842D01*
X276133106Y-163691838D01*
X275830376Y-163622742D01*
X275786927Y-163547487D01*
X275687616Y-163448176D01*
X275565986Y-163377952D01*
X275430324Y-163341602D01*
X275289878Y-163341602D01*
X275154216Y-163377952D01*
X275032586Y-163448176D01*
X274933275Y-163547487D01*
X274889826Y-163622741D01*
X274587095Y-163691838D01*
X274587083Y-163691842D01*
X274291544Y-163795257D01*
X274291521Y-163795267D01*
X274286612Y-163797631D01*
X274232816Y-163809908D01*
X273987383Y-163809907D01*
X273966136Y-163803668D01*
X273944049Y-163802088D01*
X273933590Y-163797631D01*
X273928674Y-163795264D01*
X273928658Y-163795257D01*
X273633118Y-163691842D01*
X273633106Y-163691838D01*
X273330376Y-163622742D01*
X273286927Y-163547487D01*
X273187616Y-163448176D01*
X273065986Y-163377952D01*
X272930324Y-163341602D01*
X272789878Y-163341602D01*
X272654216Y-163377952D01*
X272532586Y-163448176D01*
X272433275Y-163547487D01*
X272389826Y-163622741D01*
X272087095Y-163691838D01*
X272087083Y-163691842D01*
X271791544Y-163795257D01*
X271791521Y-163795267D01*
X271786612Y-163797631D01*
X271732816Y-163809908D01*
X271487383Y-163809907D01*
X271466136Y-163803668D01*
X271444049Y-163802088D01*
X271433590Y-163797631D01*
X271428674Y-163795264D01*
X271428658Y-163795257D01*
X271133118Y-163691842D01*
X271133106Y-163691838D01*
X270830376Y-163622742D01*
X270786927Y-163547487D01*
X270687616Y-163448176D01*
X270565986Y-163377952D01*
X270430324Y-163341602D01*
X270289878Y-163341602D01*
X270154216Y-163377952D01*
X270032586Y-163448176D01*
X269933275Y-163547487D01*
X269889826Y-163622741D01*
X269587095Y-163691838D01*
X269587083Y-163691842D01*
X269291544Y-163795257D01*
X269291521Y-163795267D01*
X269286612Y-163797631D01*
X269232816Y-163809908D01*
X268987383Y-163809907D01*
X268966136Y-163803668D01*
X268944049Y-163802088D01*
X268933590Y-163797631D01*
X268928674Y-163795264D01*
X268928658Y-163795257D01*
X268633118Y-163691842D01*
X268633106Y-163691838D01*
X268330376Y-163622742D01*
X268286927Y-163547487D01*
X268187616Y-163448176D01*
X268065986Y-163377952D01*
X267930324Y-163341602D01*
X267789878Y-163341602D01*
X267654216Y-163377952D01*
X267532586Y-163448176D01*
X267433275Y-163547487D01*
X267389826Y-163622741D01*
X267087095Y-163691838D01*
X267087083Y-163691842D01*
X266791544Y-163795257D01*
X266791521Y-163795267D01*
X266786612Y-163797631D01*
X266732816Y-163809908D01*
X266487383Y-163809907D01*
X266466136Y-163803668D01*
X266444049Y-163802088D01*
X266433590Y-163797631D01*
X266428674Y-163795264D01*
X266428658Y-163795257D01*
X266133118Y-163691842D01*
X266133106Y-163691838D01*
X265830376Y-163622742D01*
X265786927Y-163547487D01*
X265687616Y-163448176D01*
X265565986Y-163377952D01*
X265430324Y-163341602D01*
X265289878Y-163341602D01*
X265154216Y-163377952D01*
X265032586Y-163448176D01*
X264933275Y-163547487D01*
X264889826Y-163622741D01*
X264587095Y-163691838D01*
X264587083Y-163691842D01*
X264291544Y-163795257D01*
X264291521Y-163795267D01*
X264286612Y-163797631D01*
X264217670Y-163808979D01*
X264153537Y-163781253D01*
X264145135Y-163773589D01*
X264082616Y-163711070D01*
X264072701Y-163773675D01*
X264072701Y-163822999D01*
X264053016Y-163890038D01*
X264011895Y-163928528D01*
X264012362Y-163929271D01*
X263744282Y-164097716D01*
X263499466Y-164292950D01*
X263278049Y-164514367D01*
X263082815Y-164759183D01*
X262916217Y-165024322D01*
X262780365Y-165306422D01*
X262780356Y-165306444D01*
X262676941Y-165601984D01*
X262676937Y-165601996D01*
X262607260Y-165907272D01*
X262607257Y-165907290D01*
X262572201Y-166218430D01*
X261500500Y-166218430D01*
X261500500Y-162597518D01*
X265196168Y-162597518D01*
X265360101Y-162761450D01*
X265360102Y-162761450D01*
X265524032Y-162597519D01*
X265524031Y-162597518D01*
X267696168Y-162597518D01*
X267860101Y-162761450D01*
X267860102Y-162761450D01*
X268024032Y-162597519D01*
X268024031Y-162597518D01*
X270196168Y-162597518D01*
X270360101Y-162761450D01*
X270360102Y-162761450D01*
X270524032Y-162597519D01*
X270524031Y-162597518D01*
X272696168Y-162597518D01*
X272860101Y-162761450D01*
X272860102Y-162761450D01*
X273024032Y-162597519D01*
X273024031Y-162597518D01*
X275196168Y-162597518D01*
X275360101Y-162761450D01*
X275360102Y-162761450D01*
X275524032Y-162597519D01*
X275524031Y-162597517D01*
X275524018Y-162597515D01*
X308836067Y-162597515D01*
X309000000Y-162761447D01*
X309000001Y-162761447D01*
X309163931Y-162597516D01*
X309163930Y-162597515D01*
X311336067Y-162597515D01*
X311500000Y-162761447D01*
X311500001Y-162761447D01*
X311663931Y-162597516D01*
X311663930Y-162597515D01*
X313836067Y-162597515D01*
X314000000Y-162761447D01*
X314000001Y-162761447D01*
X314163931Y-162597516D01*
X314163930Y-162597515D01*
X316336067Y-162597515D01*
X316500000Y-162761447D01*
X316500001Y-162761447D01*
X316663931Y-162597516D01*
X316663930Y-162597515D01*
X318836067Y-162597515D01*
X319000000Y-162761447D01*
X319000001Y-162761447D01*
X319163931Y-162597516D01*
X319163930Y-162597514D01*
X319101327Y-162587599D01*
X318898673Y-162587599D01*
X318836068Y-162597514D01*
X318836067Y-162597515D01*
X316663930Y-162597515D01*
X316663930Y-162597514D01*
X316601327Y-162587599D01*
X316398673Y-162587599D01*
X316336068Y-162597514D01*
X316336067Y-162597515D01*
X314163930Y-162597515D01*
X314163930Y-162597514D01*
X314101327Y-162587599D01*
X313898673Y-162587599D01*
X313836068Y-162597514D01*
X313836067Y-162597515D01*
X311663930Y-162597515D01*
X311663930Y-162597514D01*
X311601327Y-162587599D01*
X311398673Y-162587599D01*
X311336068Y-162597514D01*
X311336067Y-162597515D01*
X309163930Y-162597515D01*
X309163930Y-162597514D01*
X309101327Y-162587599D01*
X308898673Y-162587599D01*
X308836068Y-162597514D01*
X308836067Y-162597515D01*
X275524018Y-162597515D01*
X275461428Y-162587602D01*
X275258774Y-162587602D01*
X275196169Y-162597517D01*
X275196168Y-162597518D01*
X273024031Y-162597518D01*
X273024031Y-162597517D01*
X272961428Y-162587602D01*
X272758774Y-162587602D01*
X272696169Y-162597517D01*
X272696168Y-162597518D01*
X270524031Y-162597518D01*
X270524031Y-162597517D01*
X270461428Y-162587602D01*
X270258774Y-162587602D01*
X270196169Y-162597517D01*
X270196168Y-162597518D01*
X268024031Y-162597518D01*
X268024031Y-162597517D01*
X267961428Y-162587602D01*
X267758774Y-162587602D01*
X267696169Y-162597517D01*
X267696168Y-162597518D01*
X265524031Y-162597518D01*
X265524031Y-162597517D01*
X265461428Y-162587602D01*
X265258774Y-162587602D01*
X265196169Y-162597517D01*
X265196168Y-162597518D01*
X261500500Y-162597518D01*
X261500500Y-162152483D01*
X265196168Y-162152483D01*
X265258781Y-162162400D01*
X265461422Y-162162400D01*
X265524031Y-162152483D01*
X267696168Y-162152483D01*
X267758781Y-162162400D01*
X267961422Y-162162400D01*
X268024031Y-162152483D01*
X270196168Y-162152483D01*
X270258781Y-162162400D01*
X270461422Y-162162400D01*
X270524031Y-162152483D01*
X272696168Y-162152483D01*
X272758781Y-162162400D01*
X272961422Y-162162400D01*
X273024031Y-162152483D01*
X275196168Y-162152483D01*
X275258781Y-162162400D01*
X275461422Y-162162400D01*
X275524031Y-162152483D01*
X308836067Y-162152483D01*
X308898680Y-162162400D01*
X309101321Y-162162400D01*
X309163930Y-162152483D01*
X311336067Y-162152483D01*
X311398680Y-162162400D01*
X311601321Y-162162400D01*
X311663930Y-162152483D01*
X313836068Y-162152483D01*
X313898680Y-162162400D01*
X314101321Y-162162400D01*
X314163930Y-162152483D01*
X316336068Y-162152483D01*
X316398680Y-162162400D01*
X316601321Y-162162400D01*
X316663930Y-162152483D01*
X318836067Y-162152483D01*
X318898680Y-162162400D01*
X319101321Y-162162400D01*
X319163930Y-162152483D01*
X319163931Y-162152482D01*
X319000001Y-161988552D01*
X318836067Y-162152483D01*
X316663930Y-162152483D01*
X316663931Y-162152482D01*
X316500001Y-161988552D01*
X316336068Y-162152483D01*
X314163930Y-162152483D01*
X314163931Y-162152482D01*
X314000001Y-161988552D01*
X313836068Y-162152483D01*
X311663930Y-162152483D01*
X311663931Y-162152482D01*
X311500001Y-161988552D01*
X311336067Y-162152483D01*
X309163930Y-162152483D01*
X309163931Y-162152482D01*
X309000001Y-161988552D01*
X308836067Y-162152483D01*
X275524031Y-162152483D01*
X275524032Y-162152482D01*
X275360102Y-161988552D01*
X275196168Y-162152483D01*
X273024031Y-162152483D01*
X273024032Y-162152482D01*
X272860102Y-161988552D01*
X272696168Y-162152483D01*
X270524031Y-162152483D01*
X270524032Y-162152482D01*
X270360102Y-161988552D01*
X270196168Y-162152483D01*
X268024031Y-162152483D01*
X268024032Y-162152482D01*
X267860102Y-161988552D01*
X267696168Y-162152483D01*
X265524031Y-162152483D01*
X265524032Y-162152482D01*
X265360102Y-161988552D01*
X265196168Y-162152483D01*
X261500500Y-162152483D01*
X261500500Y-160773673D01*
X264072701Y-160773673D01*
X264072701Y-160976326D01*
X264082616Y-161038930D01*
X264082618Y-161038931D01*
X264246549Y-160875000D01*
X264246549Y-160874999D01*
X264176327Y-160804777D01*
X264826701Y-160804777D01*
X264826701Y-160945223D01*
X264863051Y-161080885D01*
X264933275Y-161202515D01*
X265032586Y-161301826D01*
X265154216Y-161372050D01*
X265289878Y-161408400D01*
X265430324Y-161408400D01*
X265565986Y-161372050D01*
X265687616Y-161301826D01*
X265786927Y-161202515D01*
X265857151Y-161080885D01*
X265893501Y-160945223D01*
X265893501Y-160875000D01*
X266473653Y-160875000D01*
X266610101Y-161011448D01*
X266746549Y-160875000D01*
X266676326Y-160804777D01*
X267326701Y-160804777D01*
X267326701Y-160945223D01*
X267363051Y-161080885D01*
X267433275Y-161202515D01*
X267532586Y-161301826D01*
X267654216Y-161372050D01*
X267789878Y-161408400D01*
X267930324Y-161408400D01*
X268065986Y-161372050D01*
X268187616Y-161301826D01*
X268286927Y-161202515D01*
X268357151Y-161080885D01*
X268393501Y-160945223D01*
X268393501Y-160875000D01*
X268973653Y-160875000D01*
X269110101Y-161011448D01*
X269246549Y-160875000D01*
X269176326Y-160804777D01*
X269826701Y-160804777D01*
X269826701Y-160945223D01*
X269863051Y-161080885D01*
X269933275Y-161202515D01*
X270032586Y-161301826D01*
X270154216Y-161372050D01*
X270289878Y-161408400D01*
X270430324Y-161408400D01*
X270565986Y-161372050D01*
X270687616Y-161301826D01*
X270786927Y-161202515D01*
X270857151Y-161080885D01*
X270893501Y-160945223D01*
X270893501Y-160875000D01*
X271473653Y-160875000D01*
X271610101Y-161011448D01*
X271746549Y-160875000D01*
X271676326Y-160804777D01*
X272326701Y-160804777D01*
X272326701Y-160945223D01*
X272363051Y-161080885D01*
X272433275Y-161202515D01*
X272532586Y-161301826D01*
X272654216Y-161372050D01*
X272789878Y-161408400D01*
X272930324Y-161408400D01*
X273065986Y-161372050D01*
X273187616Y-161301826D01*
X273286927Y-161202515D01*
X273357151Y-161080885D01*
X273393501Y-160945223D01*
X273393501Y-160875000D01*
X273973653Y-160875000D01*
X274110101Y-161011448D01*
X274246549Y-160875000D01*
X274176326Y-160804777D01*
X274826701Y-160804777D01*
X274826701Y-160945223D01*
X274863051Y-161080885D01*
X274933275Y-161202515D01*
X275032586Y-161301826D01*
X275154216Y-161372050D01*
X275289878Y-161408400D01*
X275430324Y-161408400D01*
X275565986Y-161372050D01*
X275687616Y-161301826D01*
X275786927Y-161202515D01*
X275857151Y-161080885D01*
X275893501Y-160945223D01*
X275893501Y-160875000D01*
X276473653Y-160875000D01*
X276637583Y-161038931D01*
X276637584Y-161038930D01*
X276647501Y-160976320D01*
X276647501Y-160773679D01*
X276637584Y-160711068D01*
X276473653Y-160875000D01*
X275893501Y-160875000D01*
X275893501Y-160804777D01*
X275857151Y-160669115D01*
X275786927Y-160547485D01*
X275687616Y-160448174D01*
X275565986Y-160377950D01*
X275430324Y-160341600D01*
X275289878Y-160341600D01*
X275154216Y-160377950D01*
X275032586Y-160448174D01*
X274933275Y-160547485D01*
X274863051Y-160669115D01*
X274826701Y-160804777D01*
X274176326Y-160804777D01*
X274110101Y-160738552D01*
X273973653Y-160875000D01*
X273393501Y-160875000D01*
X273393501Y-160804777D01*
X273357151Y-160669115D01*
X273286927Y-160547485D01*
X273187616Y-160448174D01*
X273065986Y-160377950D01*
X272930324Y-160341600D01*
X272789878Y-160341600D01*
X272654216Y-160377950D01*
X272532586Y-160448174D01*
X272433275Y-160547485D01*
X272363051Y-160669115D01*
X272326701Y-160804777D01*
X271676326Y-160804777D01*
X271610101Y-160738552D01*
X271473653Y-160875000D01*
X270893501Y-160875000D01*
X270893501Y-160804777D01*
X270857151Y-160669115D01*
X270786927Y-160547485D01*
X270687616Y-160448174D01*
X270565986Y-160377950D01*
X270430324Y-160341600D01*
X270289878Y-160341600D01*
X270154216Y-160377950D01*
X270032586Y-160448174D01*
X269933275Y-160547485D01*
X269863051Y-160669115D01*
X269826701Y-160804777D01*
X269176326Y-160804777D01*
X269110101Y-160738552D01*
X268973653Y-160875000D01*
X268393501Y-160875000D01*
X268393501Y-160804777D01*
X268357151Y-160669115D01*
X268286927Y-160547485D01*
X268187616Y-160448174D01*
X268065986Y-160377950D01*
X267930324Y-160341600D01*
X267789878Y-160341600D01*
X267654216Y-160377950D01*
X267532586Y-160448174D01*
X267433275Y-160547485D01*
X267363051Y-160669115D01*
X267326701Y-160804777D01*
X266676326Y-160804777D01*
X266610101Y-160738552D01*
X266473653Y-160875000D01*
X265893501Y-160875000D01*
X265893501Y-160804777D01*
X265857151Y-160669115D01*
X265786927Y-160547485D01*
X265687616Y-160448174D01*
X265565986Y-160377950D01*
X265430324Y-160341600D01*
X265289878Y-160341600D01*
X265154216Y-160377950D01*
X265032586Y-160448174D01*
X264933275Y-160547485D01*
X264863051Y-160669115D01*
X264826701Y-160804777D01*
X264176327Y-160804777D01*
X264082617Y-160711067D01*
X264082616Y-160711068D01*
X264072701Y-160773673D01*
X261500500Y-160773673D01*
X261500500Y-159597516D01*
X265196168Y-159597516D01*
X265360101Y-159761448D01*
X265360102Y-159761448D01*
X265524032Y-159597517D01*
X265524031Y-159597516D01*
X267696168Y-159597516D01*
X267860101Y-159761448D01*
X267860102Y-159761448D01*
X268024032Y-159597517D01*
X268024031Y-159597516D01*
X270196168Y-159597516D01*
X270360101Y-159761448D01*
X270360102Y-159761448D01*
X270524032Y-159597517D01*
X270524031Y-159597516D01*
X272696168Y-159597516D01*
X272860101Y-159761448D01*
X272860102Y-159761448D01*
X273024032Y-159597517D01*
X273024031Y-159597516D01*
X275196168Y-159597516D01*
X275360101Y-159761448D01*
X275360102Y-159761448D01*
X275524032Y-159597517D01*
X275524031Y-159597515D01*
X275461428Y-159587600D01*
X275258774Y-159587600D01*
X275196169Y-159597515D01*
X275196168Y-159597516D01*
X273024031Y-159597516D01*
X273024031Y-159597515D01*
X272961428Y-159587600D01*
X272758774Y-159587600D01*
X272696169Y-159597515D01*
X272696168Y-159597516D01*
X270524031Y-159597516D01*
X270524031Y-159597515D01*
X270461428Y-159587600D01*
X270258774Y-159587600D01*
X270196169Y-159597515D01*
X270196168Y-159597516D01*
X268024031Y-159597516D01*
X268024031Y-159597515D01*
X267961428Y-159587600D01*
X267758774Y-159587600D01*
X267696169Y-159597515D01*
X267696168Y-159597516D01*
X265524031Y-159597516D01*
X265524031Y-159597515D01*
X265461428Y-159587600D01*
X265258774Y-159587600D01*
X265196169Y-159597515D01*
X265196168Y-159597516D01*
X261500500Y-159597516D01*
X261500500Y-156908979D01*
X278299500Y-156908979D01*
X278299500Y-158981020D01*
X278309876Y-159158232D01*
X278364950Y-159454468D01*
X278364952Y-159454478D01*
X278459013Y-159740707D01*
X278459018Y-159740719D01*
X278590393Y-160011865D01*
X278756746Y-160263095D01*
X278955094Y-160489905D01*
X279131328Y-160644024D01*
X279181906Y-160688255D01*
X279433130Y-160854604D01*
X279704285Y-160985984D01*
X279781773Y-161011448D01*
X279990521Y-161080047D01*
X279990525Y-161080047D01*
X279990532Y-161080050D01*
X280286763Y-161135123D01*
X280463980Y-161145500D01*
X282536020Y-161145500D01*
X282713237Y-161135123D01*
X283009468Y-161080050D01*
X283009475Y-161080047D01*
X283009478Y-161080047D01*
X283134598Y-161038930D01*
X283295715Y-160985984D01*
X283566870Y-160854604D01*
X283689094Y-160773673D01*
X307712600Y-160773673D01*
X307712600Y-160976326D01*
X307722515Y-161038930D01*
X307722517Y-161038931D01*
X307886448Y-160875000D01*
X307886448Y-160874999D01*
X307816226Y-160804777D01*
X308466600Y-160804777D01*
X308466600Y-160945223D01*
X308502950Y-161080885D01*
X308573174Y-161202515D01*
X308672485Y-161301826D01*
X308794115Y-161372050D01*
X308929777Y-161408400D01*
X309070223Y-161408400D01*
X309205885Y-161372050D01*
X309327515Y-161301826D01*
X309426826Y-161202515D01*
X309497050Y-161080885D01*
X309533400Y-160945223D01*
X309533400Y-160875000D01*
X310113552Y-160875000D01*
X310250000Y-161011448D01*
X310386448Y-160875000D01*
X310316225Y-160804777D01*
X310966600Y-160804777D01*
X310966600Y-160945223D01*
X311002950Y-161080885D01*
X311073174Y-161202515D01*
X311172485Y-161301826D01*
X311294115Y-161372050D01*
X311429777Y-161408400D01*
X311570223Y-161408400D01*
X311705885Y-161372050D01*
X311827515Y-161301826D01*
X311926826Y-161202515D01*
X311997050Y-161080885D01*
X312033400Y-160945223D01*
X312033400Y-160875000D01*
X312613552Y-160875000D01*
X312750000Y-161011448D01*
X312886448Y-160875000D01*
X312816225Y-160804777D01*
X313466600Y-160804777D01*
X313466600Y-160945223D01*
X313502950Y-161080885D01*
X313573174Y-161202515D01*
X313672485Y-161301826D01*
X313794115Y-161372050D01*
X313929777Y-161408400D01*
X314070223Y-161408400D01*
X314205885Y-161372050D01*
X314327515Y-161301826D01*
X314426826Y-161202515D01*
X314497050Y-161080885D01*
X314533400Y-160945223D01*
X314533400Y-160875000D01*
X315113552Y-160875000D01*
X315250000Y-161011448D01*
X315386448Y-160875000D01*
X315316225Y-160804777D01*
X315966600Y-160804777D01*
X315966600Y-160945223D01*
X316002950Y-161080885D01*
X316073174Y-161202515D01*
X316172485Y-161301826D01*
X316294115Y-161372050D01*
X316429777Y-161408400D01*
X316570223Y-161408400D01*
X316705885Y-161372050D01*
X316827515Y-161301826D01*
X316926826Y-161202515D01*
X316997050Y-161080885D01*
X317033400Y-160945223D01*
X317033400Y-160875000D01*
X317613552Y-160875000D01*
X317750000Y-161011448D01*
X317886448Y-160875000D01*
X317816225Y-160804777D01*
X318466600Y-160804777D01*
X318466600Y-160945223D01*
X318502950Y-161080885D01*
X318573174Y-161202515D01*
X318672485Y-161301826D01*
X318794115Y-161372050D01*
X318929777Y-161408400D01*
X319070223Y-161408400D01*
X319205885Y-161372050D01*
X319327515Y-161301826D01*
X319426826Y-161202515D01*
X319497050Y-161080885D01*
X319533400Y-160945223D01*
X319533400Y-160875000D01*
X320113551Y-160875000D01*
X320277482Y-161038931D01*
X320277483Y-161038930D01*
X320287400Y-160976320D01*
X320287400Y-160773679D01*
X320277483Y-160711068D01*
X320113551Y-160875000D01*
X319533400Y-160875000D01*
X319533400Y-160804777D01*
X319497050Y-160669115D01*
X319426826Y-160547485D01*
X319327515Y-160448174D01*
X319205885Y-160377950D01*
X319070223Y-160341600D01*
X318929777Y-160341600D01*
X318794115Y-160377950D01*
X318672485Y-160448174D01*
X318573174Y-160547485D01*
X318502950Y-160669115D01*
X318466600Y-160804777D01*
X317816225Y-160804777D01*
X317750000Y-160738552D01*
X317613552Y-160875000D01*
X317033400Y-160875000D01*
X317033400Y-160804777D01*
X316997050Y-160669115D01*
X316926826Y-160547485D01*
X316827515Y-160448174D01*
X316705885Y-160377950D01*
X316570223Y-160341600D01*
X316429777Y-160341600D01*
X316294115Y-160377950D01*
X316172485Y-160448174D01*
X316073174Y-160547485D01*
X316002950Y-160669115D01*
X315966600Y-160804777D01*
X315316225Y-160804777D01*
X315250000Y-160738552D01*
X315113552Y-160875000D01*
X314533400Y-160875000D01*
X314533400Y-160804777D01*
X314497050Y-160669115D01*
X314426826Y-160547485D01*
X314327515Y-160448174D01*
X314205885Y-160377950D01*
X314070223Y-160341600D01*
X313929777Y-160341600D01*
X313794115Y-160377950D01*
X313672485Y-160448174D01*
X313573174Y-160547485D01*
X313502950Y-160669115D01*
X313466600Y-160804777D01*
X312816225Y-160804777D01*
X312750000Y-160738552D01*
X312613552Y-160875000D01*
X312033400Y-160875000D01*
X312033400Y-160804777D01*
X311997050Y-160669115D01*
X311926826Y-160547485D01*
X311827515Y-160448174D01*
X311705885Y-160377950D01*
X311570223Y-160341600D01*
X311429777Y-160341600D01*
X311294115Y-160377950D01*
X311172485Y-160448174D01*
X311073174Y-160547485D01*
X311002950Y-160669115D01*
X310966600Y-160804777D01*
X310316225Y-160804777D01*
X310250000Y-160738552D01*
X310113552Y-160875000D01*
X309533400Y-160875000D01*
X309533400Y-160804777D01*
X309497050Y-160669115D01*
X309426826Y-160547485D01*
X309327515Y-160448174D01*
X309205885Y-160377950D01*
X309070223Y-160341600D01*
X308929777Y-160341600D01*
X308794115Y-160377950D01*
X308672485Y-160448174D01*
X308573174Y-160547485D01*
X308502950Y-160669115D01*
X308466600Y-160804777D01*
X307816226Y-160804777D01*
X307722516Y-160711067D01*
X307722515Y-160711068D01*
X307712600Y-160773673D01*
X283689094Y-160773673D01*
X283818094Y-160688255D01*
X284044905Y-160489905D01*
X284243255Y-160263094D01*
X284409604Y-160011870D01*
X284540984Y-159740715D01*
X284579104Y-159624714D01*
X286234496Y-159624714D01*
X286388568Y-159644999D01*
X286388583Y-159645000D01*
X286611417Y-159645000D01*
X286611431Y-159644999D01*
X286765502Y-159624714D01*
X286738304Y-159597516D01*
X308836067Y-159597516D01*
X309000000Y-159761448D01*
X309000001Y-159761448D01*
X309163931Y-159597517D01*
X309163930Y-159597516D01*
X311336067Y-159597516D01*
X311500000Y-159761448D01*
X311500001Y-159761448D01*
X311663931Y-159597517D01*
X311663930Y-159597516D01*
X313836067Y-159597516D01*
X314000000Y-159761448D01*
X314000001Y-159761448D01*
X314163931Y-159597517D01*
X314163930Y-159597516D01*
X316336067Y-159597516D01*
X316500000Y-159761448D01*
X316500001Y-159761448D01*
X316663931Y-159597517D01*
X316663930Y-159597516D01*
X318836067Y-159597516D01*
X319000000Y-159761448D01*
X319000001Y-159761448D01*
X319163931Y-159597517D01*
X319163930Y-159597515D01*
X319101327Y-159587600D01*
X318898673Y-159587600D01*
X318836068Y-159597515D01*
X318836067Y-159597516D01*
X316663930Y-159597516D01*
X316663930Y-159597515D01*
X316601327Y-159587600D01*
X316398673Y-159587600D01*
X316336068Y-159597515D01*
X316336067Y-159597516D01*
X314163930Y-159597516D01*
X314163930Y-159597515D01*
X314101327Y-159587600D01*
X313898673Y-159587600D01*
X313836068Y-159597515D01*
X313836067Y-159597516D01*
X311663930Y-159597516D01*
X311663930Y-159597515D01*
X311601327Y-159587600D01*
X311398673Y-159587600D01*
X311336068Y-159597515D01*
X311336067Y-159597516D01*
X309163930Y-159597516D01*
X309163930Y-159597515D01*
X309101327Y-159587600D01*
X308898673Y-159587600D01*
X308836068Y-159597515D01*
X308836067Y-159597516D01*
X286738304Y-159597516D01*
X286500001Y-159359213D01*
X286500000Y-159359213D01*
X286234496Y-159624714D01*
X284579104Y-159624714D01*
X284602722Y-159552845D01*
X284635047Y-159454478D01*
X284635047Y-159454475D01*
X284635050Y-159454468D01*
X284690123Y-159158237D01*
X284700500Y-158981020D01*
X284700500Y-158342882D01*
X284720185Y-158275843D01*
X284772989Y-158230088D01*
X284805351Y-158225434D01*
X285085786Y-157945000D01*
X285085786Y-157944999D01*
X285026543Y-157885756D01*
X286050000Y-157885756D01*
X286050000Y-158004244D01*
X286080667Y-158118694D01*
X286139910Y-158221306D01*
X286223694Y-158305090D01*
X286326306Y-158364333D01*
X286440756Y-158395000D01*
X286559244Y-158395000D01*
X286673694Y-158364333D01*
X286776306Y-158305090D01*
X286860090Y-158221306D01*
X286919333Y-158118694D01*
X286950000Y-158004244D01*
X286950000Y-157944999D01*
X287914213Y-157944999D01*
X287914213Y-157945000D01*
X288179714Y-158210502D01*
X288199999Y-158056431D01*
X288200000Y-158056417D01*
X288200000Y-157833582D01*
X288199999Y-157833568D01*
X288179714Y-157679496D01*
X287914213Y-157944999D01*
X286950000Y-157944999D01*
X286950000Y-157885756D01*
X286919333Y-157771306D01*
X286860090Y-157668694D01*
X286776306Y-157584910D01*
X286673694Y-157525667D01*
X286559244Y-157495000D01*
X286440756Y-157495000D01*
X286326306Y-157525667D01*
X286223694Y-157584910D01*
X286139910Y-157668694D01*
X286080667Y-157771306D01*
X286050000Y-157885756D01*
X285026543Y-157885756D01*
X284807684Y-157666896D01*
X284794548Y-157667444D01*
X284734248Y-157632149D01*
X284702603Y-157569856D01*
X284700500Y-157547116D01*
X284700500Y-156908979D01*
X284690123Y-156731767D01*
X284690123Y-156731763D01*
X284635050Y-156435532D01*
X284635047Y-156435525D01*
X284635047Y-156435521D01*
X284602722Y-156337154D01*
X284579104Y-156265284D01*
X286234496Y-156265284D01*
X286500000Y-156530786D01*
X286500001Y-156530786D01*
X286765502Y-156265284D01*
X286765501Y-156265283D01*
X286611425Y-156245000D01*
X286388575Y-156245000D01*
X286234497Y-156265283D01*
X286234496Y-156265284D01*
X284579104Y-156265284D01*
X284540986Y-156149292D01*
X284540984Y-156149285D01*
X284409604Y-155878130D01*
X284243255Y-155626906D01*
X284199024Y-155576328D01*
X284044905Y-155400094D01*
X283818095Y-155201746D01*
X283818094Y-155201745D01*
X283566870Y-155035396D01*
X283566868Y-155035395D01*
X283566865Y-155035393D01*
X283295719Y-154904018D01*
X283295715Y-154904016D01*
X283295711Y-154904014D01*
X283295707Y-154904013D01*
X283009478Y-154809952D01*
X283009468Y-154809950D01*
X282713232Y-154754876D01*
X282536020Y-154744500D01*
X280463980Y-154744500D01*
X280286767Y-154754876D01*
X279990531Y-154809950D01*
X279990521Y-154809952D01*
X279704292Y-154904013D01*
X279704280Y-154904018D01*
X279433134Y-155035393D01*
X279181904Y-155201746D01*
X278955094Y-155400094D01*
X278756746Y-155626904D01*
X278590393Y-155878134D01*
X278459018Y-156149280D01*
X278459013Y-156149292D01*
X278364952Y-156435521D01*
X278364950Y-156435531D01*
X278309876Y-156731767D01*
X278299500Y-156908979D01*
X261500500Y-156908979D01*
X261500500Y-149143249D01*
X293724800Y-149143249D01*
X293724800Y-150835550D01*
X293740104Y-151049533D01*
X293800928Y-151329137D01*
X293900935Y-151597266D01*
X294038070Y-151848409D01*
X294038075Y-151848417D01*
X294209554Y-152077487D01*
X294209570Y-152077505D01*
X294411894Y-152279829D01*
X294411912Y-152279845D01*
X294640982Y-152451324D01*
X294640990Y-152451329D01*
X294892133Y-152588464D01*
X294892132Y-152588464D01*
X294892136Y-152588465D01*
X294892139Y-152588467D01*
X295160254Y-152688469D01*
X295160260Y-152688470D01*
X295160262Y-152688471D01*
X295439866Y-152749295D01*
X295439868Y-152749295D01*
X295439872Y-152749296D01*
X295653852Y-152764600D01*
X297346148Y-152764600D01*
X297560128Y-152749296D01*
X297839746Y-152688469D01*
X298107861Y-152588467D01*
X298359015Y-152451326D01*
X298588095Y-152279839D01*
X298790439Y-152077495D01*
X298961926Y-151848415D01*
X299099067Y-151597261D01*
X299199069Y-151329146D01*
X299259896Y-151049528D01*
X299275200Y-150835548D01*
X299275200Y-149143252D01*
X299275200Y-149143249D01*
X304224800Y-149143249D01*
X304224800Y-150835550D01*
X304240104Y-151049533D01*
X304300928Y-151329137D01*
X304400935Y-151597266D01*
X304538070Y-151848409D01*
X304538075Y-151848417D01*
X304709554Y-152077487D01*
X304709570Y-152077505D01*
X304911894Y-152279829D01*
X304911912Y-152279845D01*
X305140982Y-152451324D01*
X305140990Y-152451329D01*
X305392133Y-152588464D01*
X305392132Y-152588464D01*
X305392136Y-152588465D01*
X305392139Y-152588467D01*
X305660254Y-152688469D01*
X305660260Y-152688470D01*
X305660262Y-152688471D01*
X305939866Y-152749295D01*
X305939868Y-152749295D01*
X305939872Y-152749296D01*
X306153852Y-152764600D01*
X307846148Y-152764600D01*
X308060128Y-152749296D01*
X308339746Y-152688469D01*
X308607861Y-152588467D01*
X308859015Y-152451326D01*
X309088095Y-152279839D01*
X309290439Y-152077495D01*
X309461926Y-151848415D01*
X309599067Y-151597261D01*
X309699069Y-151329146D01*
X309759896Y-151049528D01*
X309775200Y-150835548D01*
X309775200Y-149143252D01*
X309759896Y-148929272D01*
X309699069Y-148649654D01*
X309599067Y-148381539D01*
X309551047Y-148293598D01*
X309461929Y-148130390D01*
X309461924Y-148130382D01*
X309290445Y-147901312D01*
X309290429Y-147901294D01*
X309236979Y-147847844D01*
X315550000Y-147847844D01*
X315556401Y-147907372D01*
X315556403Y-147907379D01*
X315606645Y-148042086D01*
X315606649Y-148042093D01*
X315692809Y-148157187D01*
X315692812Y-148157190D01*
X315807906Y-148243350D01*
X315807913Y-148243354D01*
X315942620Y-148293596D01*
X315942627Y-148293598D01*
X316002155Y-148299999D01*
X316002172Y-148300000D01*
X316050000Y-148300000D01*
X317950000Y-148300000D01*
X317997828Y-148300000D01*
X317997844Y-148299999D01*
X318057372Y-148293598D01*
X318057379Y-148293596D01*
X318192086Y-148243354D01*
X318192093Y-148243350D01*
X318307187Y-148157190D01*
X318307190Y-148157187D01*
X318393350Y-148042093D01*
X318393354Y-148042086D01*
X318443596Y-147907379D01*
X318443598Y-147907372D01*
X318449999Y-147847844D01*
X318450000Y-147847827D01*
X318450000Y-147800000D01*
X317950000Y-147800000D01*
X317950000Y-148300000D01*
X316050000Y-148300000D01*
X316050000Y-147800000D01*
X315550000Y-147800000D01*
X315550000Y-147847844D01*
X309236979Y-147847844D01*
X309088105Y-147698970D01*
X309088087Y-147698954D01*
X308859017Y-147527475D01*
X308859009Y-147527470D01*
X308607866Y-147390335D01*
X308607867Y-147390335D01*
X308500615Y-147350332D01*
X308339746Y-147290331D01*
X308339743Y-147290330D01*
X308339737Y-147290328D01*
X308060133Y-147229504D01*
X307846150Y-147214200D01*
X307846148Y-147214200D01*
X306153852Y-147214200D01*
X306153849Y-147214200D01*
X305939866Y-147229504D01*
X305660262Y-147290328D01*
X305392133Y-147390335D01*
X305140990Y-147527470D01*
X305140982Y-147527475D01*
X304911912Y-147698954D01*
X304911894Y-147698970D01*
X304709570Y-147901294D01*
X304709554Y-147901312D01*
X304538075Y-148130382D01*
X304538070Y-148130390D01*
X304400935Y-148381533D01*
X304300928Y-148649662D01*
X304240104Y-148929266D01*
X304224800Y-149143249D01*
X299275200Y-149143249D01*
X299259896Y-148929272D01*
X299199069Y-148649654D01*
X299099067Y-148381539D01*
X299051047Y-148293598D01*
X298961929Y-148130390D01*
X298961924Y-148130382D01*
X298790445Y-147901312D01*
X298790429Y-147901294D01*
X298588105Y-147698970D01*
X298588087Y-147698954D01*
X298359017Y-147527475D01*
X298359009Y-147527470D01*
X298107866Y-147390335D01*
X298107867Y-147390335D01*
X298000615Y-147350332D01*
X297839746Y-147290331D01*
X297839743Y-147290330D01*
X297839737Y-147290328D01*
X297560133Y-147229504D01*
X297346150Y-147214200D01*
X297346148Y-147214200D01*
X295653852Y-147214200D01*
X295653849Y-147214200D01*
X295439866Y-147229504D01*
X295160262Y-147290328D01*
X294892133Y-147390335D01*
X294640990Y-147527470D01*
X294640982Y-147527475D01*
X294411912Y-147698954D01*
X294411894Y-147698970D01*
X294209570Y-147901294D01*
X294209554Y-147901312D01*
X294038075Y-148130382D01*
X294038070Y-148130390D01*
X293900935Y-148381533D01*
X293800928Y-148649662D01*
X293740104Y-148929266D01*
X293724800Y-149143249D01*
X261500500Y-149143249D01*
X261500500Y-146771207D01*
X316200000Y-146771207D01*
X316200000Y-146928793D01*
X316230743Y-147083351D01*
X316291049Y-147228942D01*
X316378599Y-147359970D01*
X316490030Y-147471401D01*
X316621058Y-147558951D01*
X316766649Y-147619257D01*
X316921207Y-147650000D01*
X317078793Y-147650000D01*
X317233351Y-147619257D01*
X317378942Y-147558951D01*
X317509970Y-147471401D01*
X317621401Y-147359970D01*
X317708951Y-147228942D01*
X317769257Y-147083351D01*
X317800000Y-146928793D01*
X317800000Y-146771207D01*
X317769257Y-146616649D01*
X317708951Y-146471058D01*
X317621401Y-146340030D01*
X317509970Y-146228599D01*
X317378942Y-146141049D01*
X317233351Y-146080743D01*
X317078793Y-146050000D01*
X316921207Y-146050000D01*
X316766649Y-146080743D01*
X316621058Y-146141049D01*
X316490030Y-146228599D01*
X316378599Y-146340030D01*
X316291049Y-146471058D01*
X316230743Y-146616649D01*
X316200000Y-146771207D01*
X261500500Y-146771207D01*
X261500500Y-144864714D01*
X267234496Y-144864714D01*
X267388568Y-144884999D01*
X267388583Y-144885000D01*
X267611417Y-144885000D01*
X267611431Y-144884999D01*
X267765502Y-144864714D01*
X267500001Y-144599213D01*
X267500000Y-144599213D01*
X267234496Y-144864714D01*
X261500500Y-144864714D01*
X261500500Y-143073575D01*
X265800000Y-143073575D01*
X265800000Y-143296424D01*
X265820283Y-143450501D01*
X265820284Y-143450502D01*
X266085786Y-143185000D01*
X266085786Y-143184999D01*
X266026543Y-143125756D01*
X267050000Y-143125756D01*
X267050000Y-143244244D01*
X267080667Y-143358694D01*
X267139910Y-143461306D01*
X267223694Y-143545090D01*
X267326306Y-143604333D01*
X267440756Y-143635000D01*
X267559244Y-143635000D01*
X267673694Y-143604333D01*
X267776306Y-143545090D01*
X267860090Y-143461306D01*
X267919333Y-143358694D01*
X267950000Y-143244244D01*
X267950000Y-143184999D01*
X268914213Y-143184999D01*
X268914213Y-143185000D01*
X269192312Y-143463100D01*
X269205450Y-143462553D01*
X269265750Y-143497847D01*
X269297397Y-143560139D01*
X269299500Y-143582882D01*
X269299500Y-144221020D01*
X269309876Y-144398232D01*
X269364950Y-144694468D01*
X269364952Y-144694478D01*
X269459013Y-144980707D01*
X269459018Y-144980719D01*
X269590393Y-145251865D01*
X269590395Y-145251868D01*
X269590396Y-145251870D01*
X269725991Y-145456649D01*
X269756746Y-145503095D01*
X269955094Y-145729905D01*
X270094906Y-145852172D01*
X270181906Y-145928255D01*
X270433130Y-146094604D01*
X270704285Y-146225984D01*
X270712243Y-146228599D01*
X270990521Y-146320047D01*
X270990525Y-146320047D01*
X270990532Y-146320050D01*
X271286763Y-146375123D01*
X271463980Y-146385500D01*
X273536020Y-146385500D01*
X273713237Y-146375123D01*
X274009468Y-146320050D01*
X274009475Y-146320047D01*
X274009478Y-146320047D01*
X274161629Y-146270047D01*
X274295715Y-146225984D01*
X274566870Y-146094604D01*
X274818094Y-145928255D01*
X275044905Y-145729905D01*
X275243255Y-145503094D01*
X275409604Y-145251870D01*
X275540984Y-144980715D01*
X275605631Y-144783988D01*
X275635047Y-144694478D01*
X275635047Y-144694475D01*
X275635050Y-144694468D01*
X275690123Y-144398237D01*
X275700500Y-144221020D01*
X275700500Y-142148980D01*
X275700500Y-142148978D01*
X275697891Y-142104414D01*
X275697573Y-142098979D01*
X278299500Y-142098979D01*
X278299500Y-144171020D01*
X278309876Y-144348232D01*
X278364950Y-144644468D01*
X278364952Y-144644478D01*
X278459013Y-144930707D01*
X278459018Y-144930719D01*
X278590393Y-145201865D01*
X278590395Y-145201868D01*
X278590396Y-145201870D01*
X278756745Y-145453094D01*
X278759854Y-145456649D01*
X278955094Y-145679905D01*
X279012269Y-145729905D01*
X279181906Y-145878255D01*
X279433130Y-146044604D01*
X279704285Y-146175984D01*
X279798226Y-146206855D01*
X279990521Y-146270047D01*
X279990525Y-146270047D01*
X279990532Y-146270050D01*
X280286763Y-146325123D01*
X280463980Y-146335500D01*
X282536020Y-146335500D01*
X282713237Y-146325123D01*
X283009468Y-146270050D01*
X283009475Y-146270047D01*
X283009478Y-146270047D01*
X283135605Y-146228599D01*
X283295715Y-146175984D01*
X283566870Y-146044604D01*
X283818094Y-145878255D01*
X283847939Y-145852155D01*
X315550000Y-145852155D01*
X315550000Y-145900000D01*
X316050000Y-145900000D01*
X317950000Y-145900000D01*
X318450000Y-145900000D01*
X318450000Y-145852172D01*
X318449999Y-145852155D01*
X318443598Y-145792627D01*
X318443596Y-145792620D01*
X318393354Y-145657913D01*
X318393350Y-145657906D01*
X318307190Y-145542812D01*
X318307187Y-145542809D01*
X318192093Y-145456649D01*
X318192086Y-145456645D01*
X318057379Y-145406403D01*
X318057372Y-145406401D01*
X317997844Y-145400000D01*
X317950000Y-145400000D01*
X317950000Y-145900000D01*
X316050000Y-145900000D01*
X316050000Y-145400000D01*
X316002155Y-145400000D01*
X315942627Y-145406401D01*
X315942620Y-145406403D01*
X315807913Y-145456645D01*
X315807906Y-145456649D01*
X315692812Y-145542809D01*
X315692809Y-145542812D01*
X315606649Y-145657906D01*
X315606645Y-145657913D01*
X315556403Y-145792620D01*
X315556401Y-145792627D01*
X315550000Y-145852155D01*
X283847939Y-145852155D01*
X284044905Y-145679905D01*
X284243255Y-145453094D01*
X284409604Y-145201870D01*
X284540984Y-144930715D01*
X284579104Y-144814714D01*
X286234496Y-144814714D01*
X286388568Y-144834999D01*
X286388583Y-144835000D01*
X286611417Y-144835000D01*
X286611431Y-144834999D01*
X286765502Y-144814714D01*
X286500001Y-144549213D01*
X286500000Y-144549213D01*
X286234496Y-144814714D01*
X284579104Y-144814714D01*
X284635050Y-144644468D01*
X284690123Y-144348237D01*
X284700500Y-144171020D01*
X284700500Y-143532882D01*
X284720185Y-143465843D01*
X284772989Y-143420088D01*
X284805351Y-143415434D01*
X285085786Y-143135000D01*
X285085786Y-143134999D01*
X285026543Y-143075756D01*
X286050000Y-143075756D01*
X286050000Y-143194244D01*
X286080667Y-143308694D01*
X286139910Y-143411306D01*
X286223694Y-143495090D01*
X286326306Y-143554333D01*
X286440756Y-143585000D01*
X286559244Y-143585000D01*
X286673694Y-143554333D01*
X286776306Y-143495090D01*
X286860090Y-143411306D01*
X286919333Y-143308694D01*
X286950000Y-143194244D01*
X286950000Y-143134999D01*
X287914213Y-143134999D01*
X287914213Y-143135000D01*
X288179714Y-143400502D01*
X288199999Y-143246431D01*
X288200000Y-143246417D01*
X288200000Y-143023582D01*
X288199999Y-143023568D01*
X288179714Y-142869496D01*
X287914213Y-143134999D01*
X286950000Y-143134999D01*
X286950000Y-143075756D01*
X286919333Y-142961306D01*
X286860090Y-142858694D01*
X286776306Y-142774910D01*
X286673694Y-142715667D01*
X286559244Y-142685000D01*
X286440756Y-142685000D01*
X286326306Y-142715667D01*
X286223694Y-142774910D01*
X286139910Y-142858694D01*
X286080667Y-142961306D01*
X286050000Y-143075756D01*
X285026543Y-143075756D01*
X284807684Y-142856896D01*
X284794548Y-142857444D01*
X284734248Y-142822149D01*
X284702603Y-142759856D01*
X284700500Y-142737116D01*
X284700500Y-142098979D01*
X284690123Y-141921767D01*
X284690123Y-141921763D01*
X284635050Y-141625532D01*
X284635047Y-141625525D01*
X284635047Y-141625521D01*
X284602722Y-141527154D01*
X284579104Y-141455284D01*
X286234496Y-141455284D01*
X286500000Y-141720786D01*
X286500001Y-141720786D01*
X286765502Y-141455284D01*
X286765501Y-141455283D01*
X286611425Y-141435000D01*
X286388575Y-141435000D01*
X286234497Y-141455283D01*
X286234496Y-141455284D01*
X284579104Y-141455284D01*
X284540986Y-141339292D01*
X284540984Y-141339285D01*
X284409604Y-141068130D01*
X284243255Y-140816906D01*
X284088631Y-140640095D01*
X284044905Y-140590094D01*
X283818095Y-140391746D01*
X283818094Y-140391745D01*
X283566870Y-140225396D01*
X283566868Y-140225395D01*
X283566865Y-140225393D01*
X283295719Y-140094018D01*
X283295715Y-140094016D01*
X283295711Y-140094014D01*
X283295707Y-140094013D01*
X283009478Y-139999952D01*
X283009468Y-139999950D01*
X282713232Y-139944876D01*
X282536020Y-139934500D01*
X280463980Y-139934500D01*
X280286767Y-139944876D01*
X279990531Y-139999950D01*
X279990521Y-139999952D01*
X279704292Y-140094013D01*
X279704280Y-140094018D01*
X279433134Y-140225393D01*
X279181904Y-140391746D01*
X278955094Y-140590094D01*
X278756746Y-140816904D01*
X278590393Y-141068134D01*
X278459018Y-141339280D01*
X278459013Y-141339292D01*
X278364952Y-141625521D01*
X278364950Y-141625531D01*
X278309876Y-141921767D01*
X278299500Y-142098979D01*
X275697573Y-142098979D01*
X275690123Y-141971767D01*
X275690123Y-141971763D01*
X275635050Y-141675532D01*
X275635047Y-141675525D01*
X275635047Y-141675521D01*
X275540986Y-141389292D01*
X275540984Y-141389285D01*
X275409604Y-141118130D01*
X275243255Y-140866906D01*
X275199024Y-140816328D01*
X275044905Y-140640094D01*
X274818095Y-140441746D01*
X274818094Y-140441745D01*
X274566870Y-140275396D01*
X274566868Y-140275395D01*
X274566865Y-140275393D01*
X274295719Y-140144018D01*
X274295715Y-140144016D01*
X274295711Y-140144014D01*
X274295707Y-140144013D01*
X274009478Y-140049952D01*
X274009468Y-140049950D01*
X273713232Y-139994876D01*
X273536020Y-139984500D01*
X271463980Y-139984500D01*
X271286767Y-139994876D01*
X270990531Y-140049950D01*
X270990521Y-140049952D01*
X270704292Y-140144013D01*
X270704280Y-140144018D01*
X270433134Y-140275393D01*
X270181904Y-140441746D01*
X269955094Y-140640094D01*
X269756746Y-140866904D01*
X269590393Y-141118134D01*
X269459018Y-141389280D01*
X269459013Y-141389292D01*
X269364952Y-141675521D01*
X269364950Y-141675531D01*
X269309876Y-141971767D01*
X269299500Y-142148979D01*
X269299500Y-142787116D01*
X269279815Y-142854155D01*
X269227011Y-142899910D01*
X269194647Y-142904563D01*
X268914213Y-143184999D01*
X267950000Y-143184999D01*
X267950000Y-143125756D01*
X267919333Y-143011306D01*
X267860090Y-142908694D01*
X267776306Y-142824910D01*
X267673694Y-142765667D01*
X267559244Y-142735000D01*
X267440756Y-142735000D01*
X267326306Y-142765667D01*
X267223694Y-142824910D01*
X267139910Y-142908694D01*
X267080667Y-143011306D01*
X267050000Y-143125756D01*
X266026543Y-143125756D01*
X265820284Y-142919496D01*
X265820283Y-142919497D01*
X265800000Y-143073575D01*
X261500500Y-143073575D01*
X261500500Y-141505284D01*
X267234496Y-141505284D01*
X267500000Y-141770786D01*
X267500001Y-141770786D01*
X267765502Y-141505284D01*
X267765501Y-141505283D01*
X267611425Y-141485000D01*
X267388575Y-141485000D01*
X267234497Y-141505283D01*
X267234496Y-141505284D01*
X261500500Y-141505284D01*
X261500500Y-130054714D01*
X267234496Y-130054714D01*
X267388568Y-130074999D01*
X267388583Y-130075000D01*
X267611417Y-130075000D01*
X267611431Y-130074999D01*
X267765502Y-130054714D01*
X267500001Y-129789213D01*
X267500000Y-129789213D01*
X267234496Y-130054714D01*
X261500500Y-130054714D01*
X261500500Y-128263575D01*
X265800000Y-128263575D01*
X265800000Y-128486424D01*
X265820283Y-128640501D01*
X265820284Y-128640502D01*
X266085786Y-128375000D01*
X266085786Y-128374999D01*
X266026543Y-128315756D01*
X267050000Y-128315756D01*
X267050000Y-128434244D01*
X267080667Y-128548694D01*
X267139910Y-128651306D01*
X267223694Y-128735090D01*
X267326306Y-128794333D01*
X267440756Y-128825000D01*
X267559244Y-128825000D01*
X267673694Y-128794333D01*
X267776306Y-128735090D01*
X267860090Y-128651306D01*
X267919333Y-128548694D01*
X267950000Y-128434244D01*
X267950000Y-128374999D01*
X268914213Y-128374999D01*
X268914213Y-128375000D01*
X269192312Y-128653100D01*
X269205450Y-128652553D01*
X269265750Y-128687847D01*
X269297397Y-128750139D01*
X269299500Y-128772882D01*
X269299500Y-129411020D01*
X269309876Y-129588232D01*
X269364950Y-129884468D01*
X269364952Y-129884478D01*
X269459013Y-130170707D01*
X269459018Y-130170719D01*
X269590393Y-130441865D01*
X269590395Y-130441868D01*
X269590396Y-130441870D01*
X269723637Y-130643094D01*
X269756746Y-130693095D01*
X269955094Y-130919905D01*
X270124729Y-131068253D01*
X270181906Y-131118255D01*
X270433130Y-131284604D01*
X270704285Y-131415984D01*
X270798226Y-131446855D01*
X270990521Y-131510047D01*
X270990525Y-131510047D01*
X270990532Y-131510050D01*
X271286763Y-131565123D01*
X271463980Y-131575500D01*
X273536020Y-131575500D01*
X273713237Y-131565123D01*
X274009468Y-131510050D01*
X274009475Y-131510047D01*
X274009478Y-131510047D01*
X274161629Y-131460047D01*
X274295715Y-131415984D01*
X274566870Y-131284604D01*
X274818094Y-131118255D01*
X275044905Y-130919905D01*
X275243255Y-130693094D01*
X275409604Y-130441870D01*
X275540984Y-130170715D01*
X275605631Y-129973988D01*
X275635047Y-129884478D01*
X275635047Y-129884475D01*
X275635050Y-129884468D01*
X275690123Y-129588237D01*
X275700500Y-129411020D01*
X275700500Y-127338980D01*
X275700500Y-127338978D01*
X275697891Y-127294414D01*
X275697573Y-127288979D01*
X278299500Y-127288979D01*
X278299500Y-129361020D01*
X278309876Y-129538232D01*
X278364950Y-129834468D01*
X278364952Y-129834478D01*
X278459013Y-130120707D01*
X278459018Y-130120719D01*
X278590393Y-130391865D01*
X278590395Y-130391868D01*
X278590396Y-130391870D01*
X278623500Y-130441865D01*
X278756746Y-130643095D01*
X278955094Y-130869905D01*
X279012269Y-130919905D01*
X279181906Y-131068255D01*
X279433130Y-131234604D01*
X279704285Y-131365984D01*
X279798226Y-131396855D01*
X279990521Y-131460047D01*
X279990525Y-131460047D01*
X279990532Y-131460050D01*
X280286763Y-131515123D01*
X280463980Y-131525500D01*
X282536020Y-131525500D01*
X282713237Y-131515123D01*
X283009468Y-131460050D01*
X283009475Y-131460047D01*
X283009478Y-131460047D01*
X283098988Y-131430631D01*
X283295715Y-131365984D01*
X283566870Y-131234604D01*
X283818094Y-131068255D01*
X284044905Y-130869905D01*
X284243255Y-130643094D01*
X284409604Y-130391870D01*
X284540984Y-130120715D01*
X284579104Y-130004714D01*
X286234496Y-130004714D01*
X286388568Y-130024999D01*
X286388583Y-130025000D01*
X286611417Y-130025000D01*
X286611431Y-130024999D01*
X286765502Y-130004714D01*
X286500001Y-129739213D01*
X286500000Y-129739213D01*
X286234496Y-130004714D01*
X284579104Y-130004714D01*
X284635050Y-129834468D01*
X284690123Y-129538237D01*
X284700500Y-129361020D01*
X284700500Y-128722882D01*
X284720185Y-128655843D01*
X284772989Y-128610088D01*
X284805351Y-128605434D01*
X285085786Y-128325000D01*
X285085786Y-128324999D01*
X285026543Y-128265756D01*
X286050000Y-128265756D01*
X286050000Y-128384244D01*
X286080667Y-128498694D01*
X286139910Y-128601306D01*
X286223694Y-128685090D01*
X286326306Y-128744333D01*
X286440756Y-128775000D01*
X286559244Y-128775000D01*
X286673694Y-128744333D01*
X286776306Y-128685090D01*
X286860090Y-128601306D01*
X286919333Y-128498694D01*
X286950000Y-128384244D01*
X286950000Y-128324999D01*
X287914213Y-128324999D01*
X287914213Y-128325000D01*
X288179714Y-128590502D01*
X288199999Y-128436431D01*
X288200000Y-128436417D01*
X288200000Y-128213582D01*
X288199999Y-128213568D01*
X288179714Y-128059496D01*
X287914213Y-128324999D01*
X286950000Y-128324999D01*
X286950000Y-128265756D01*
X286919333Y-128151306D01*
X286860090Y-128048694D01*
X286776306Y-127964910D01*
X286673694Y-127905667D01*
X286559244Y-127875000D01*
X286440756Y-127875000D01*
X286326306Y-127905667D01*
X286223694Y-127964910D01*
X286139910Y-128048694D01*
X286080667Y-128151306D01*
X286050000Y-128265756D01*
X285026543Y-128265756D01*
X284807684Y-128046896D01*
X284794548Y-128047444D01*
X284734248Y-128012149D01*
X284702603Y-127949856D01*
X284700500Y-127927116D01*
X284700500Y-127288979D01*
X284690123Y-127111767D01*
X284690123Y-127111763D01*
X284635050Y-126815532D01*
X284635047Y-126815525D01*
X284635047Y-126815521D01*
X284602722Y-126717154D01*
X284579104Y-126645284D01*
X286234496Y-126645284D01*
X286500000Y-126910786D01*
X286500001Y-126910786D01*
X286765502Y-126645284D01*
X286765501Y-126645283D01*
X286611425Y-126625000D01*
X286388575Y-126625000D01*
X286234497Y-126645283D01*
X286234496Y-126645284D01*
X284579104Y-126645284D01*
X284540986Y-126529292D01*
X284540984Y-126529285D01*
X284409604Y-126258130D01*
X284243255Y-126006906D01*
X284088631Y-125830095D01*
X284044905Y-125780094D01*
X283818095Y-125581746D01*
X283818094Y-125581745D01*
X283566870Y-125415396D01*
X283566868Y-125415395D01*
X283566865Y-125415393D01*
X283295719Y-125284018D01*
X283295715Y-125284016D01*
X283295711Y-125284014D01*
X283295707Y-125284013D01*
X283009478Y-125189952D01*
X283009468Y-125189950D01*
X282713232Y-125134876D01*
X282536020Y-125124500D01*
X280463980Y-125124500D01*
X280286767Y-125134876D01*
X279990531Y-125189950D01*
X279990521Y-125189952D01*
X279704292Y-125284013D01*
X279704280Y-125284018D01*
X279433134Y-125415393D01*
X279181904Y-125581746D01*
X278955094Y-125780094D01*
X278756746Y-126006904D01*
X278590393Y-126258134D01*
X278459018Y-126529280D01*
X278459013Y-126529292D01*
X278364952Y-126815521D01*
X278364950Y-126815531D01*
X278309876Y-127111767D01*
X278299500Y-127288979D01*
X275697573Y-127288979D01*
X275690123Y-127161767D01*
X275690123Y-127161763D01*
X275635050Y-126865532D01*
X275635047Y-126865525D01*
X275635047Y-126865521D01*
X275540986Y-126579292D01*
X275540984Y-126579285D01*
X275409604Y-126308130D01*
X275243255Y-126056906D01*
X275199024Y-126006328D01*
X275044905Y-125830094D01*
X274818095Y-125631746D01*
X274818094Y-125631745D01*
X274566870Y-125465396D01*
X274566868Y-125465395D01*
X274566865Y-125465393D01*
X274295719Y-125334018D01*
X274295715Y-125334016D01*
X274295711Y-125334014D01*
X274295707Y-125334013D01*
X274009478Y-125239952D01*
X274009468Y-125239950D01*
X273713232Y-125184876D01*
X273536020Y-125174500D01*
X271463980Y-125174500D01*
X271286767Y-125184876D01*
X270990531Y-125239950D01*
X270990521Y-125239952D01*
X270704292Y-125334013D01*
X270704280Y-125334018D01*
X270433134Y-125465393D01*
X270181904Y-125631746D01*
X269955094Y-125830094D01*
X269756746Y-126056904D01*
X269590393Y-126308134D01*
X269459018Y-126579280D01*
X269459013Y-126579292D01*
X269364952Y-126865521D01*
X269364950Y-126865531D01*
X269309876Y-127161767D01*
X269299500Y-127338979D01*
X269299500Y-127977116D01*
X269279815Y-128044155D01*
X269227011Y-128089910D01*
X269194647Y-128094563D01*
X268914213Y-128374999D01*
X267950000Y-128374999D01*
X267950000Y-128315756D01*
X267919333Y-128201306D01*
X267860090Y-128098694D01*
X267776306Y-128014910D01*
X267673694Y-127955667D01*
X267559244Y-127925000D01*
X267440756Y-127925000D01*
X267326306Y-127955667D01*
X267223694Y-128014910D01*
X267139910Y-128098694D01*
X267080667Y-128201306D01*
X267050000Y-128315756D01*
X266026543Y-128315756D01*
X265820284Y-128109496D01*
X265820283Y-128109497D01*
X265800000Y-128263575D01*
X261500500Y-128263575D01*
X261500500Y-126695284D01*
X267234496Y-126695284D01*
X267500000Y-126960786D01*
X267500001Y-126960786D01*
X267765502Y-126695284D01*
X267765501Y-126695283D01*
X267611425Y-126675000D01*
X267388575Y-126675000D01*
X267234497Y-126695283D01*
X267234496Y-126695284D01*
X261500500Y-126695284D01*
X261500500Y-123313327D01*
X296331663Y-123313327D01*
X296399679Y-123324100D01*
X296600321Y-123324100D01*
X296668334Y-123313327D01*
X306831663Y-123313327D01*
X306899679Y-123324100D01*
X307100321Y-123324100D01*
X307168334Y-123313327D01*
X307168335Y-123313326D01*
X307083558Y-123228549D01*
X314049500Y-123228549D01*
X314049500Y-125271450D01*
X314064804Y-125485433D01*
X314125628Y-125765037D01*
X314125630Y-125765043D01*
X314125631Y-125765046D01*
X314225633Y-126033161D01*
X314225635Y-126033166D01*
X314362770Y-126284309D01*
X314362775Y-126284317D01*
X314534254Y-126513387D01*
X314534270Y-126513405D01*
X314736594Y-126715729D01*
X314736612Y-126715745D01*
X314965682Y-126887224D01*
X314965690Y-126887229D01*
X315216833Y-127024364D01*
X315216832Y-127024364D01*
X315216836Y-127024365D01*
X315216839Y-127024367D01*
X315484954Y-127124369D01*
X315484960Y-127124370D01*
X315484962Y-127124371D01*
X315764566Y-127185195D01*
X315764568Y-127185195D01*
X315764572Y-127185196D01*
X315978552Y-127200500D01*
X318021448Y-127200500D01*
X318235428Y-127185196D01*
X318515046Y-127124369D01*
X318783161Y-127024367D01*
X319034315Y-126887226D01*
X319263395Y-126715739D01*
X319465739Y-126513395D01*
X319637226Y-126284315D01*
X319774367Y-126033161D01*
X319874369Y-125765046D01*
X319935196Y-125485428D01*
X319950500Y-125271448D01*
X319950500Y-123228552D01*
X319935196Y-123014572D01*
X319874369Y-122734954D01*
X319774367Y-122466839D01*
X319638345Y-122217735D01*
X319637229Y-122215690D01*
X319637224Y-122215682D01*
X319465745Y-121986612D01*
X319465729Y-121986594D01*
X319263405Y-121784270D01*
X319263387Y-121784254D01*
X319034317Y-121612775D01*
X319034309Y-121612770D01*
X318783166Y-121475635D01*
X318783167Y-121475635D01*
X318675915Y-121435632D01*
X318515046Y-121375631D01*
X318515043Y-121375630D01*
X318515037Y-121375628D01*
X318235433Y-121314804D01*
X318021450Y-121299500D01*
X318021448Y-121299500D01*
X315978552Y-121299500D01*
X315978549Y-121299500D01*
X315764566Y-121314804D01*
X315484962Y-121375628D01*
X315216833Y-121475635D01*
X314965690Y-121612770D01*
X314965682Y-121612775D01*
X314736612Y-121784254D01*
X314736594Y-121784270D01*
X314534270Y-121986594D01*
X314534254Y-121986612D01*
X314362775Y-122215682D01*
X314362770Y-122215690D01*
X314225635Y-122466833D01*
X314125628Y-122734962D01*
X314064804Y-123014566D01*
X314049500Y-123228549D01*
X307083558Y-123228549D01*
X307000001Y-123144992D01*
X306831663Y-123313327D01*
X296668334Y-123313327D01*
X296668335Y-123313326D01*
X296500001Y-123144992D01*
X296331663Y-123313327D01*
X261500500Y-123313327D01*
X261500500Y-121949073D01*
X295225300Y-121949073D01*
X295225300Y-122149726D01*
X295236071Y-122217734D01*
X295236073Y-122217735D01*
X295404408Y-122049400D01*
X295404408Y-122049399D01*
X295335858Y-121980849D01*
X295979300Y-121980849D01*
X295979300Y-122117951D01*
X296014785Y-122250383D01*
X296083336Y-122369117D01*
X296180283Y-122466064D01*
X296299017Y-122534615D01*
X296431449Y-122570100D01*
X296568551Y-122570100D01*
X296700983Y-122534615D01*
X296819717Y-122466064D01*
X296916664Y-122369117D01*
X296985215Y-122250383D01*
X297020700Y-122117951D01*
X297020700Y-122049400D01*
X297595592Y-122049400D01*
X297763926Y-122217735D01*
X297763927Y-122217734D01*
X297774700Y-122149720D01*
X297774700Y-121949079D01*
X297774699Y-121949073D01*
X305725300Y-121949073D01*
X305725300Y-122149726D01*
X305736071Y-122217734D01*
X305736073Y-122217735D01*
X305904408Y-122049400D01*
X305904408Y-122049399D01*
X305835858Y-121980849D01*
X306479300Y-121980849D01*
X306479300Y-122117951D01*
X306514785Y-122250383D01*
X306583336Y-122369117D01*
X306680283Y-122466064D01*
X306799017Y-122534615D01*
X306931449Y-122570100D01*
X307068551Y-122570100D01*
X307200983Y-122534615D01*
X307319717Y-122466064D01*
X307416664Y-122369117D01*
X307485215Y-122250383D01*
X307520700Y-122117951D01*
X307520700Y-122049400D01*
X308095592Y-122049400D01*
X308263926Y-122217735D01*
X308263927Y-122217734D01*
X308274700Y-122149720D01*
X308274700Y-121949079D01*
X308263927Y-121881064D01*
X308095592Y-122049400D01*
X307520700Y-122049400D01*
X307520700Y-121980849D01*
X307485215Y-121848417D01*
X307416664Y-121729683D01*
X307319717Y-121632736D01*
X307200983Y-121564185D01*
X307068551Y-121528700D01*
X306931449Y-121528700D01*
X306799017Y-121564185D01*
X306680283Y-121632736D01*
X306583336Y-121729683D01*
X306514785Y-121848417D01*
X306479300Y-121980849D01*
X305835858Y-121980849D01*
X305736072Y-121881063D01*
X305736071Y-121881064D01*
X305725300Y-121949073D01*
X297774699Y-121949073D01*
X297763927Y-121881064D01*
X297595592Y-122049400D01*
X297020700Y-122049400D01*
X297020700Y-121980849D01*
X296985215Y-121848417D01*
X296916664Y-121729683D01*
X296819717Y-121632736D01*
X296700983Y-121564185D01*
X296568551Y-121528700D01*
X296431449Y-121528700D01*
X296299017Y-121564185D01*
X296180283Y-121632736D01*
X296083336Y-121729683D01*
X296014785Y-121848417D01*
X295979300Y-121980849D01*
X295335858Y-121980849D01*
X295236072Y-121881063D01*
X295236071Y-121881064D01*
X295225300Y-121949073D01*
X261500500Y-121949073D01*
X261500500Y-120785472D01*
X296331663Y-120785472D01*
X296500000Y-120953808D01*
X296500001Y-120953808D01*
X296668335Y-120785473D01*
X296668334Y-120785472D01*
X306831663Y-120785472D01*
X307000000Y-120953808D01*
X307000001Y-120953808D01*
X307168335Y-120785473D01*
X307168334Y-120785471D01*
X307100327Y-120774700D01*
X306899673Y-120774700D01*
X306831664Y-120785471D01*
X306831663Y-120785472D01*
X296668334Y-120785472D01*
X296668334Y-120785471D01*
X296600327Y-120774700D01*
X296399673Y-120774700D01*
X296331664Y-120785471D01*
X296331663Y-120785472D01*
X261500500Y-120785472D01*
X261500500Y-118943713D01*
X264249500Y-118943713D01*
X264249500Y-119156287D01*
X264282754Y-119366243D01*
X264345001Y-119557820D01*
X264348444Y-119568414D01*
X264444951Y-119757820D01*
X264569890Y-119929786D01*
X264720213Y-120080109D01*
X264892179Y-120205048D01*
X264892181Y-120205049D01*
X264892184Y-120205051D01*
X265081588Y-120301557D01*
X265283757Y-120367246D01*
X265493713Y-120400500D01*
X265493714Y-120400500D01*
X265706286Y-120400500D01*
X265706287Y-120400500D01*
X265916243Y-120367246D01*
X266118412Y-120301557D01*
X266307816Y-120205051D01*
X266329789Y-120189086D01*
X266479786Y-120080109D01*
X266479788Y-120080106D01*
X266479792Y-120080104D01*
X266630104Y-119929792D01*
X266630106Y-119929788D01*
X266630109Y-119929786D01*
X266755048Y-119757820D01*
X266755047Y-119757820D01*
X266755051Y-119757816D01*
X266851557Y-119568412D01*
X266917246Y-119366243D01*
X266950500Y-119156287D01*
X266950500Y-118943713D01*
X266918823Y-118743713D01*
X317399500Y-118743713D01*
X317399500Y-118956287D01*
X317432754Y-119166243D01*
X317497738Y-119366243D01*
X317498444Y-119368414D01*
X317594951Y-119557820D01*
X317719890Y-119729786D01*
X317870213Y-119880109D01*
X318042179Y-120005048D01*
X318042181Y-120005049D01*
X318042184Y-120005051D01*
X318231588Y-120101557D01*
X318433757Y-120167246D01*
X318643713Y-120200500D01*
X318643714Y-120200500D01*
X318856286Y-120200500D01*
X318856287Y-120200500D01*
X319066243Y-120167246D01*
X319268412Y-120101557D01*
X319457816Y-120005051D01*
X319561402Y-119929792D01*
X319629786Y-119880109D01*
X319629788Y-119880106D01*
X319629792Y-119880104D01*
X319780104Y-119729792D01*
X319780106Y-119729788D01*
X319780109Y-119729786D01*
X319905048Y-119557820D01*
X319905047Y-119557820D01*
X319905051Y-119557816D01*
X320001557Y-119368412D01*
X320067246Y-119166243D01*
X320100500Y-118956287D01*
X320100500Y-118743713D01*
X320067246Y-118533757D01*
X320001557Y-118331588D01*
X319905051Y-118142184D01*
X319905049Y-118142181D01*
X319905048Y-118142179D01*
X319780109Y-117970213D01*
X319629786Y-117819890D01*
X319457820Y-117694951D01*
X319268414Y-117598444D01*
X319268413Y-117598443D01*
X319268412Y-117598443D01*
X319066243Y-117532754D01*
X319066241Y-117532753D01*
X319066240Y-117532753D01*
X318904957Y-117507208D01*
X318856287Y-117499500D01*
X318643713Y-117499500D01*
X318595042Y-117507208D01*
X318433760Y-117532753D01*
X318231585Y-117598444D01*
X318042179Y-117694951D01*
X317870213Y-117819890D01*
X317719890Y-117970213D01*
X317594951Y-118142179D01*
X317498444Y-118331585D01*
X317432753Y-118533760D01*
X317401077Y-118733757D01*
X317399500Y-118743713D01*
X266918823Y-118743713D01*
X266917246Y-118733757D01*
X266851557Y-118531588D01*
X266755051Y-118342184D01*
X266755049Y-118342181D01*
X266755048Y-118342179D01*
X266630109Y-118170213D01*
X266479786Y-118019890D01*
X266307820Y-117894951D01*
X266118414Y-117798444D01*
X266118413Y-117798443D01*
X266118412Y-117798443D01*
X265916243Y-117732754D01*
X265916241Y-117732753D01*
X265916240Y-117732753D01*
X265754957Y-117707208D01*
X265706287Y-117699500D01*
X265493713Y-117699500D01*
X265445042Y-117707208D01*
X265283760Y-117732753D01*
X265081585Y-117798444D01*
X264892179Y-117894951D01*
X264720213Y-118019890D01*
X264569890Y-118170213D01*
X264444951Y-118342179D01*
X264348444Y-118531585D01*
X264282753Y-118733760D01*
X264281177Y-118743713D01*
X264249500Y-118943713D01*
X261500500Y-118943713D01*
X261500500Y-115874500D01*
X261520185Y-115807461D01*
X261572989Y-115761706D01*
X261624500Y-115750500D01*
X322875500Y-115750500D01*
X322942539Y-115770185D01*
G37*
%TD.AperFunction*%
%TD*%
M02*
