M48
; DRILL file KiCad 10.0.0 date 2026-03-26T22:06:01
; FORMAT={-:-/ absolute / metric / decimal}
; #@! TF.CreationDate,2026-03-26T22:06:01-04:00
; #@! TF.GenerationSoftware,Kicad,Pcbnew,10.0.0
; #@! TF.FileFunction,Plated,1,2,PTH
FMAT,2
METRIC
; #@! TA.AperFunction,Plated,PTH,ComponentDrill
T1C0.810
; #@! TA.AperFunction,Plated,PTH,ComponentDrill
T2C1.067
; #@! TA.AperFunction,Plated,PTH,ComponentDrill
T3C1.321
; #@! TA.AperFunction,Plated,PTH,ComponentDrill
T4C1.350
; #@! TA.AperFunction,Plated,PTH,ComponentDrill
T5C1.600
%
G90
G05
T1
X132.05Y-89.598
X132.1Y-74.598
T2
X114.81Y-95.953
X114.81Y-98.953
X114.81Y-101.453
X114.81Y-104.453
X117.31Y-95.953
X117.31Y-98.953
X117.31Y-101.453
X117.31Y-104.453
X119.81Y-95.953
X119.81Y-98.953
X119.81Y-101.453
X119.81Y-104.453
X122.31Y-95.953
X122.31Y-98.953
X122.31Y-101.453
X122.31Y-104.453
X124.81Y-95.953
X124.81Y-98.953
X124.81Y-101.453
X124.81Y-104.453
X169.65Y-96.578
X169.65Y-99.578
X169.65Y-102.078
X169.65Y-105.078
X172.15Y-96.578
X172.15Y-99.578
X172.15Y-102.078
X172.15Y-105.078
X174.65Y-96.578
X174.65Y-99.578
X174.65Y-102.078
X174.65Y-105.078
X177.15Y-96.578
X177.15Y-99.578
X177.15Y-102.078
X177.15Y-105.078
X179.65Y-96.578
X179.65Y-99.578
X179.65Y-102.078
X179.65Y-105.078
T3
X147.89Y-97.751
X147.89Y-126.453
T4
X143.7Y-74.148
X143.7Y-89.148
X168.7Y-74.148
X168.7Y-89.148
T5
X178.39Y-85.078
X178.39Y-117.078
M30
