%TF.GenerationSoftware,KiCad,Pcbnew,10.0.0*%
%TF.CreationDate,2026-03-25T21:22:58-04:00*%
%TF.ProjectId,Controller_Circuit,436f6e74-726f-46c6-9c65-725f43697263,rev?*%
%TF.SameCoordinates,Original*%
%TF.FileFunction,Paste,Top*%
%TF.FilePolarity,Positive*%
%FSLAX46Y46*%
G04 Gerber Fmt 4.6, Leading zero omitted, Abs format (unit mm)*
G04 Created by KiCad (PCBNEW 10.0.0) date 2026-03-25 21:22:58*
%MOMM*%
%LPD*%
G01*
G04 APERTURE LIST*
G04 Aperture macros list*
%AMRoundRect*
0 Rectangle with rounded corners*
0 $1 Rounding radius*
0 $2 $3 $4 $5 $6 $7 $8 $9 X,Y pos of 4 corners*
0 Add a 4 corners polygon primitive as box body*
4,1,4,$2,$3,$4,$5,$6,$7,$8,$9,$2,$3,0*
0 Add four circle primitives for the rounded corners*
1,1,$1+$1,$2,$3*
1,1,$1+$1,$4,$5*
1,1,$1+$1,$6,$7*
1,1,$1+$1,$8,$9*
0 Add four rect primitives between the rounded corners*
20,1,$1+$1,$2,$3,$4,$5,0*
20,1,$1+$1,$4,$5,$6,$7,0*
20,1,$1+$1,$6,$7,$8,$9,0*
20,1,$1+$1,$8,$9,$2,$3,0*%
G04 Aperture macros list end*
%ADD10RoundRect,0.250000X0.400000X0.625000X-0.400000X0.625000X-0.400000X-0.625000X0.400000X-0.625000X0*%
%ADD11RoundRect,0.250000X0.337500X0.475000X-0.337500X0.475000X-0.337500X-0.475000X0.337500X-0.475000X0*%
%ADD12RoundRect,0.250000X-0.475000X0.337500X-0.475000X-0.337500X0.475000X-0.337500X0.475000X0.337500X0*%
%ADD13RoundRect,0.250000X-0.625000X0.400000X-0.625000X-0.400000X0.625000X-0.400000X0.625000X0.400000X0*%
%ADD14RoundRect,0.250000X-0.650000X0.412500X-0.650000X-0.412500X0.650000X-0.412500X0.650000X0.412500X0*%
%ADD15RoundRect,0.250000X0.475000X-0.337500X0.475000X0.337500X-0.475000X0.337500X-0.475000X-0.337500X0*%
%ADD16RoundRect,0.250000X-0.400000X-0.625000X0.400000X-0.625000X0.400000X0.625000X-0.400000X0.625000X0*%
%ADD17RoundRect,0.155000X0.155000X-0.212500X0.155000X0.212500X-0.155000X0.212500X-0.155000X-0.212500X0*%
%ADD18RoundRect,0.250000X-0.337500X-0.475000X0.337500X-0.475000X0.337500X0.475000X-0.337500X0.475000X0*%
%ADD19RoundRect,0.155000X-0.155000X0.212500X-0.155000X-0.212500X0.155000X-0.212500X0.155000X0.212500X0*%
%ADD20RoundRect,0.250000X0.625000X-0.400000X0.625000X0.400000X-0.625000X0.400000X-0.625000X-0.400000X0*%
%ADD21R,1.600000X2.100000*%
%ADD22R,1.300000X1.050000*%
%ADD23R,0.850000X0.300000*%
%ADD24R,0.300000X0.850000*%
%ADD25R,2.550000X2.550000*%
%ADD26R,1.549400X0.508000*%
%ADD27R,0.300000X1.475000*%
%ADD28R,1.475000X0.300000*%
G04 APERTURE END LIST*
D10*
%TO.C,R43*%
X115750000Y-108877428D03*
X112650000Y-108877428D03*
%TD*%
D11*
%TO.C,C61*%
X137187500Y-100650000D03*
X135112500Y-100650000D03*
%TD*%
D12*
%TO.C,C59*%
X126800000Y-88777428D03*
X126800000Y-90852428D03*
%TD*%
D10*
%TO.C,R34*%
X136500000Y-92877428D03*
X133400000Y-92877428D03*
%TD*%
D12*
%TO.C,C60*%
X124800000Y-88777428D03*
X124800000Y-90852428D03*
%TD*%
D13*
%TO.C,R35*%
X90484409Y-104615591D03*
X90484409Y-107715591D03*
%TD*%
%TO.C,R49*%
X138500000Y-79600000D03*
X138500000Y-82700000D03*
%TD*%
%TO.C,R37*%
X129000000Y-87677428D03*
X129000000Y-90777428D03*
%TD*%
%TO.C,R48*%
X132050000Y-79627428D03*
X132050000Y-82727428D03*
%TD*%
D14*
%TO.C,C69*%
X138500000Y-91637500D03*
X138500000Y-94762500D03*
%TD*%
D13*
%TO.C,R38*%
X138050000Y-107227428D03*
X138050000Y-110327428D03*
%TD*%
D15*
%TO.C,C68*%
X134250000Y-82784928D03*
X134250000Y-80709928D03*
%TD*%
D16*
%TO.C,R39*%
X112650000Y-106577428D03*
X115750000Y-106577428D03*
%TD*%
%TO.C,R42*%
X112650000Y-104277428D03*
X115750000Y-104277428D03*
%TD*%
D17*
%TO.C,C65*%
X125000000Y-112357428D03*
X125000000Y-111222428D03*
%TD*%
D13*
%TO.C,R40*%
X115600000Y-112065591D03*
X115600000Y-115165591D03*
%TD*%
D18*
%TO.C,C55*%
X113732500Y-97727428D03*
X115807500Y-97727428D03*
%TD*%
D11*
%TO.C,C62*%
X137187500Y-98650000D03*
X135112500Y-98650000D03*
%TD*%
D18*
%TO.C,C63*%
X113732500Y-95727428D03*
X115807500Y-95727428D03*
%TD*%
D15*
%TO.C,C57*%
X126900000Y-111952428D03*
X126900000Y-109877428D03*
%TD*%
D19*
%TO.C,C64*%
X118000000Y-111272428D03*
X118000000Y-112407428D03*
%TD*%
D20*
%TO.C,R36*%
X111000000Y-115165591D03*
X111000000Y-112065591D03*
%TD*%
D15*
%TO.C,C58*%
X128900000Y-111952428D03*
X128900000Y-109877428D03*
%TD*%
D20*
%TO.C,R41*%
X113300000Y-115165591D03*
X113300000Y-112065591D03*
%TD*%
D18*
%TO.C,C56*%
X113732500Y-101727428D03*
X115807500Y-101727428D03*
%TD*%
D15*
%TO.C,C67*%
X136300000Y-82784928D03*
X136300000Y-80709928D03*
%TD*%
D18*
%TO.C,C54*%
X113732500Y-99727428D03*
X115807500Y-99727428D03*
%TD*%
D21*
%TO.C,Q7*%
X135120000Y-109627428D03*
X132580000Y-109627428D03*
X132580000Y-118727428D03*
X135120000Y-118727428D03*
%TD*%
D22*
%TO.C,Y1*%
X122700000Y-111089928D03*
X120400000Y-111089928D03*
X120400000Y-112939928D03*
X122700000Y-112939928D03*
%TD*%
D21*
%TO.C,Q6*%
X93214409Y-110665591D03*
X95754409Y-110665591D03*
X95754409Y-101565591D03*
X93214409Y-101565591D03*
%TD*%
D23*
%TO.C,IC2*%
X135450000Y-88327428D03*
X135450000Y-87827428D03*
X135450000Y-87327428D03*
X135450000Y-86827428D03*
X135450000Y-86327428D03*
X135450000Y-85827428D03*
D24*
X134750000Y-85127428D03*
X134250000Y-85127428D03*
X133750000Y-85127428D03*
X133250000Y-85127428D03*
X132750000Y-85127428D03*
X132250000Y-85127428D03*
D23*
X131550000Y-85827428D03*
X131550000Y-86327428D03*
X131550000Y-86827428D03*
X131550000Y-87327428D03*
X131550000Y-87827428D03*
X131550000Y-88327428D03*
D24*
X132250000Y-89027428D03*
X132750000Y-89027428D03*
X133250000Y-89027428D03*
X133750000Y-89027428D03*
X134250000Y-89027428D03*
X134750000Y-89027428D03*
D25*
X133500000Y-87077428D03*
%TD*%
D26*
%TO.C,J28*%
X140997101Y-87150000D03*
X140997101Y-86499999D03*
X140997101Y-85850000D03*
X140997101Y-85200001D03*
X140997101Y-84550000D03*
%TD*%
D27*
%TO.C,IC1*%
X129100000Y-94689428D03*
X128600000Y-94689428D03*
X128100000Y-94689428D03*
X127600000Y-94689428D03*
X127100000Y-94689428D03*
X126600000Y-94689428D03*
X126100000Y-94689428D03*
X125600000Y-94689428D03*
X125100000Y-94689428D03*
X124600000Y-94689428D03*
X124100000Y-94689428D03*
X123600000Y-94689428D03*
X123100000Y-94689428D03*
X122600000Y-94689428D03*
X122100000Y-94689428D03*
X121600000Y-94689428D03*
D28*
X119612000Y-96677428D03*
X119612000Y-97177428D03*
X119612000Y-97677428D03*
X119612000Y-98177428D03*
X119612000Y-98677428D03*
X119612000Y-99177428D03*
X119612000Y-99677428D03*
X119612000Y-100177428D03*
X119612000Y-100677428D03*
X119612000Y-101177428D03*
X119612000Y-101677428D03*
X119612000Y-102177428D03*
X119612000Y-102677428D03*
X119612000Y-103177428D03*
X119612000Y-103677428D03*
X119612000Y-104177428D03*
D27*
X121600000Y-106165428D03*
X122100000Y-106165428D03*
X122600000Y-106165428D03*
X123100000Y-106165428D03*
X123600000Y-106165428D03*
X124100000Y-106165428D03*
X124600000Y-106165428D03*
X125100000Y-106165428D03*
X125600000Y-106165428D03*
X126100000Y-106165428D03*
X126600000Y-106165428D03*
X127100000Y-106165428D03*
X127600000Y-106165428D03*
X128100000Y-106165428D03*
X128600000Y-106165428D03*
X129100000Y-106165428D03*
D28*
X131088000Y-104177428D03*
X131088000Y-103677428D03*
X131088000Y-103177428D03*
X131088000Y-102677428D03*
X131088000Y-102177428D03*
X131088000Y-101677428D03*
X131088000Y-101177428D03*
X131088000Y-100677428D03*
X131088000Y-100177428D03*
X131088000Y-99677428D03*
X131088000Y-99177428D03*
X131088000Y-98677428D03*
X131088000Y-98177428D03*
X131088000Y-97677428D03*
X131088000Y-97177428D03*
X131088000Y-96677428D03*
%TD*%
M02*
