%TF.GenerationSoftware,KiCad,Pcbnew,10.0.0*%
%TF.CreationDate,2026-03-25T21:22:58-04:00*%
%TF.ProjectId,Controller_Circuit,436f6e74-726f-46c6-9c65-725f43697263,rev?*%
%TF.SameCoordinates,Original*%
%TF.FileFunction,Legend,Bot*%
%TF.FilePolarity,Positive*%
%FSLAX46Y46*%
G04 Gerber Fmt 4.6, Leading zero omitted, Abs format (unit mm)*
G04 Created by KiCad (PCBNEW 10.0.0) date 2026-03-25 21:22:58*
%MOMM*%
%LPD*%
G01*
G04 APERTURE LIST*
%ADD10C,0.100000*%
%ADD11C,0.150000*%
%ADD12C,0.000000*%
G04 APERTURE END LIST*
D10*
X152850000Y-76054274D02*
X177850000Y-76054274D01*
X177850000Y-80554274D01*
X152850000Y-80554274D01*
X152850000Y-76054274D01*
D11*
X175013220Y-79424093D02*
X175013220Y-78424093D01*
X175013220Y-78424093D02*
X174775125Y-78424093D01*
X174775125Y-78424093D02*
X174632268Y-78471712D01*
X174632268Y-78471712D02*
X174537030Y-78566950D01*
X174537030Y-78566950D02*
X174489411Y-78662188D01*
X174489411Y-78662188D02*
X174441792Y-78852664D01*
X174441792Y-78852664D02*
X174441792Y-78995521D01*
X174441792Y-78995521D02*
X174489411Y-79185997D01*
X174489411Y-79185997D02*
X174537030Y-79281235D01*
X174537030Y-79281235D02*
X174632268Y-79376474D01*
X174632268Y-79376474D02*
X174775125Y-79424093D01*
X174775125Y-79424093D02*
X175013220Y-79424093D01*
X173632268Y-79376474D02*
X173727506Y-79424093D01*
X173727506Y-79424093D02*
X173917982Y-79424093D01*
X173917982Y-79424093D02*
X174013220Y-79376474D01*
X174013220Y-79376474D02*
X174060839Y-79281235D01*
X174060839Y-79281235D02*
X174060839Y-78900283D01*
X174060839Y-78900283D02*
X174013220Y-78805045D01*
X174013220Y-78805045D02*
X173917982Y-78757426D01*
X173917982Y-78757426D02*
X173727506Y-78757426D01*
X173727506Y-78757426D02*
X173632268Y-78805045D01*
X173632268Y-78805045D02*
X173584649Y-78900283D01*
X173584649Y-78900283D02*
X173584649Y-78995521D01*
X173584649Y-78995521D02*
X174060839Y-79090759D01*
X173203696Y-79376474D02*
X173108458Y-79424093D01*
X173108458Y-79424093D02*
X172917982Y-79424093D01*
X172917982Y-79424093D02*
X172822744Y-79376474D01*
X172822744Y-79376474D02*
X172775125Y-79281235D01*
X172775125Y-79281235D02*
X172775125Y-79233616D01*
X172775125Y-79233616D02*
X172822744Y-79138378D01*
X172822744Y-79138378D02*
X172917982Y-79090759D01*
X172917982Y-79090759D02*
X173060839Y-79090759D01*
X173060839Y-79090759D02*
X173156077Y-79043140D01*
X173156077Y-79043140D02*
X173203696Y-78947902D01*
X173203696Y-78947902D02*
X173203696Y-78900283D01*
X173203696Y-78900283D02*
X173156077Y-78805045D01*
X173156077Y-78805045D02*
X173060839Y-78757426D01*
X173060839Y-78757426D02*
X172917982Y-78757426D01*
X172917982Y-78757426D02*
X172822744Y-78805045D01*
X172346553Y-79424093D02*
X172346553Y-78757426D01*
X172346553Y-78424093D02*
X172394172Y-78471712D01*
X172394172Y-78471712D02*
X172346553Y-78519331D01*
X172346553Y-78519331D02*
X172298934Y-78471712D01*
X172298934Y-78471712D02*
X172346553Y-78424093D01*
X172346553Y-78424093D02*
X172346553Y-78519331D01*
X171441792Y-78757426D02*
X171441792Y-79566950D01*
X171441792Y-79566950D02*
X171489411Y-79662188D01*
X171489411Y-79662188D02*
X171537030Y-79709807D01*
X171537030Y-79709807D02*
X171632268Y-79757426D01*
X171632268Y-79757426D02*
X171775125Y-79757426D01*
X171775125Y-79757426D02*
X171870363Y-79709807D01*
X171441792Y-79376474D02*
X171537030Y-79424093D01*
X171537030Y-79424093D02*
X171727506Y-79424093D01*
X171727506Y-79424093D02*
X171822744Y-79376474D01*
X171822744Y-79376474D02*
X171870363Y-79328854D01*
X171870363Y-79328854D02*
X171917982Y-79233616D01*
X171917982Y-79233616D02*
X171917982Y-78947902D01*
X171917982Y-78947902D02*
X171870363Y-78852664D01*
X171870363Y-78852664D02*
X171822744Y-78805045D01*
X171822744Y-78805045D02*
X171727506Y-78757426D01*
X171727506Y-78757426D02*
X171537030Y-78757426D01*
X171537030Y-78757426D02*
X171441792Y-78805045D01*
X170965601Y-78757426D02*
X170965601Y-79424093D01*
X170965601Y-78852664D02*
X170917982Y-78805045D01*
X170917982Y-78805045D02*
X170822744Y-78757426D01*
X170822744Y-78757426D02*
X170679887Y-78757426D01*
X170679887Y-78757426D02*
X170584649Y-78805045D01*
X170584649Y-78805045D02*
X170537030Y-78900283D01*
X170537030Y-78900283D02*
X170537030Y-79424093D01*
X168965601Y-78900283D02*
X168822744Y-78947902D01*
X168822744Y-78947902D02*
X168775125Y-78995521D01*
X168775125Y-78995521D02*
X168727506Y-79090759D01*
X168727506Y-79090759D02*
X168727506Y-79233616D01*
X168727506Y-79233616D02*
X168775125Y-79328854D01*
X168775125Y-79328854D02*
X168822744Y-79376474D01*
X168822744Y-79376474D02*
X168917982Y-79424093D01*
X168917982Y-79424093D02*
X169298934Y-79424093D01*
X169298934Y-79424093D02*
X169298934Y-78424093D01*
X169298934Y-78424093D02*
X168965601Y-78424093D01*
X168965601Y-78424093D02*
X168870363Y-78471712D01*
X168870363Y-78471712D02*
X168822744Y-78519331D01*
X168822744Y-78519331D02*
X168775125Y-78614569D01*
X168775125Y-78614569D02*
X168775125Y-78709807D01*
X168775125Y-78709807D02*
X168822744Y-78805045D01*
X168822744Y-78805045D02*
X168870363Y-78852664D01*
X168870363Y-78852664D02*
X168965601Y-78900283D01*
X168965601Y-78900283D02*
X169298934Y-78900283D01*
X168394172Y-78757426D02*
X168156077Y-79424093D01*
X167917982Y-78757426D02*
X168156077Y-79424093D01*
X168156077Y-79424093D02*
X168251315Y-79662188D01*
X168251315Y-79662188D02*
X168298934Y-79709807D01*
X168298934Y-79709807D02*
X168394172Y-79757426D01*
X166489410Y-78424093D02*
X166489410Y-79138378D01*
X166489410Y-79138378D02*
X166537029Y-79281235D01*
X166537029Y-79281235D02*
X166632267Y-79376474D01*
X166632267Y-79376474D02*
X166775124Y-79424093D01*
X166775124Y-79424093D02*
X166870362Y-79424093D01*
X165870362Y-79424093D02*
X165965600Y-79376474D01*
X165965600Y-79376474D02*
X166013219Y-79328854D01*
X166013219Y-79328854D02*
X166060838Y-79233616D01*
X166060838Y-79233616D02*
X166060838Y-78947902D01*
X166060838Y-78947902D02*
X166013219Y-78852664D01*
X166013219Y-78852664D02*
X165965600Y-78805045D01*
X165965600Y-78805045D02*
X165870362Y-78757426D01*
X165870362Y-78757426D02*
X165727505Y-78757426D01*
X165727505Y-78757426D02*
X165632267Y-78805045D01*
X165632267Y-78805045D02*
X165584648Y-78852664D01*
X165584648Y-78852664D02*
X165537029Y-78947902D01*
X165537029Y-78947902D02*
X165537029Y-79233616D01*
X165537029Y-79233616D02*
X165584648Y-79328854D01*
X165584648Y-79328854D02*
X165632267Y-79376474D01*
X165632267Y-79376474D02*
X165727505Y-79424093D01*
X165727505Y-79424093D02*
X165870362Y-79424093D01*
X165156076Y-79376474D02*
X165060838Y-79424093D01*
X165060838Y-79424093D02*
X164870362Y-79424093D01*
X164870362Y-79424093D02*
X164775124Y-79376474D01*
X164775124Y-79376474D02*
X164727505Y-79281235D01*
X164727505Y-79281235D02*
X164727505Y-79233616D01*
X164727505Y-79233616D02*
X164775124Y-79138378D01*
X164775124Y-79138378D02*
X164870362Y-79090759D01*
X164870362Y-79090759D02*
X165013219Y-79090759D01*
X165013219Y-79090759D02*
X165108457Y-79043140D01*
X165108457Y-79043140D02*
X165156076Y-78947902D01*
X165156076Y-78947902D02*
X165156076Y-78900283D01*
X165156076Y-78900283D02*
X165108457Y-78805045D01*
X165108457Y-78805045D02*
X165013219Y-78757426D01*
X165013219Y-78757426D02*
X164870362Y-78757426D01*
X164870362Y-78757426D02*
X164775124Y-78805045D01*
X163917981Y-79376474D02*
X164013219Y-79424093D01*
X164013219Y-79424093D02*
X164203695Y-79424093D01*
X164203695Y-79424093D02*
X164298933Y-79376474D01*
X164298933Y-79376474D02*
X164346552Y-79281235D01*
X164346552Y-79281235D02*
X164346552Y-78900283D01*
X164346552Y-78900283D02*
X164298933Y-78805045D01*
X164298933Y-78805045D02*
X164203695Y-78757426D01*
X164203695Y-78757426D02*
X164013219Y-78757426D01*
X164013219Y-78757426D02*
X163917981Y-78805045D01*
X163917981Y-78805045D02*
X163870362Y-78900283D01*
X163870362Y-78900283D02*
X163870362Y-78995521D01*
X163870362Y-78995521D02*
X164346552Y-79090759D01*
X163441790Y-78757426D02*
X163441790Y-79757426D01*
X163441790Y-78805045D02*
X163346552Y-78757426D01*
X163346552Y-78757426D02*
X163156076Y-78757426D01*
X163156076Y-78757426D02*
X163060838Y-78805045D01*
X163060838Y-78805045D02*
X163013219Y-78852664D01*
X163013219Y-78852664D02*
X162965600Y-78947902D01*
X162965600Y-78947902D02*
X162965600Y-79233616D01*
X162965600Y-79233616D02*
X163013219Y-79328854D01*
X163013219Y-79328854D02*
X163060838Y-79376474D01*
X163060838Y-79376474D02*
X163156076Y-79424093D01*
X163156076Y-79424093D02*
X163346552Y-79424093D01*
X163346552Y-79424093D02*
X163441790Y-79376474D01*
X162537028Y-79424093D02*
X162537028Y-78424093D01*
X162108457Y-79424093D02*
X162108457Y-78900283D01*
X162108457Y-78900283D02*
X162156076Y-78805045D01*
X162156076Y-78805045D02*
X162251314Y-78757426D01*
X162251314Y-78757426D02*
X162394171Y-78757426D01*
X162394171Y-78757426D02*
X162489409Y-78805045D01*
X162489409Y-78805045D02*
X162537028Y-78852664D01*
X160584647Y-78424093D02*
X160584647Y-79138378D01*
X160584647Y-79138378D02*
X160632266Y-79281235D01*
X160632266Y-79281235D02*
X160727504Y-79376474D01*
X160727504Y-79376474D02*
X160870361Y-79424093D01*
X160870361Y-79424093D02*
X160965599Y-79424093D01*
X160108456Y-79328854D02*
X160060837Y-79376474D01*
X160060837Y-79376474D02*
X160108456Y-79424093D01*
X160108456Y-79424093D02*
X160156075Y-79376474D01*
X160156075Y-79376474D02*
X160108456Y-79328854D01*
X160108456Y-79328854D02*
X160108456Y-79424093D01*
X159013218Y-78424093D02*
X158679885Y-79424093D01*
X158679885Y-79424093D02*
X158346552Y-78424093D01*
X158013218Y-79424093D02*
X158013218Y-78757426D01*
X158013218Y-78424093D02*
X158060837Y-78471712D01*
X158060837Y-78471712D02*
X158013218Y-78519331D01*
X158013218Y-78519331D02*
X157965599Y-78471712D01*
X157965599Y-78471712D02*
X158013218Y-78424093D01*
X158013218Y-78424093D02*
X158013218Y-78519331D01*
X157679885Y-78757426D02*
X157298933Y-78757426D01*
X157537028Y-78424093D02*
X157537028Y-79281235D01*
X157537028Y-79281235D02*
X157489409Y-79376474D01*
X157489409Y-79376474D02*
X157394171Y-79424093D01*
X157394171Y-79424093D02*
X157298933Y-79424093D01*
X156537028Y-79424093D02*
X156537028Y-78900283D01*
X156537028Y-78900283D02*
X156584647Y-78805045D01*
X156584647Y-78805045D02*
X156679885Y-78757426D01*
X156679885Y-78757426D02*
X156870361Y-78757426D01*
X156870361Y-78757426D02*
X156965599Y-78805045D01*
X156537028Y-79376474D02*
X156632266Y-79424093D01*
X156632266Y-79424093D02*
X156870361Y-79424093D01*
X156870361Y-79424093D02*
X156965599Y-79376474D01*
X156965599Y-79376474D02*
X157013218Y-79281235D01*
X157013218Y-79281235D02*
X157013218Y-79185997D01*
X157013218Y-79185997D02*
X156965599Y-79090759D01*
X156965599Y-79090759D02*
X156870361Y-79043140D01*
X156870361Y-79043140D02*
X156632266Y-79043140D01*
X156632266Y-79043140D02*
X156537028Y-78995521D01*
X155917980Y-79424093D02*
X156013218Y-79376474D01*
X156013218Y-79376474D02*
X156060837Y-79281235D01*
X156060837Y-79281235D02*
X156060837Y-78424093D01*
X155156075Y-79376474D02*
X155251313Y-79424093D01*
X155251313Y-79424093D02*
X155441789Y-79424093D01*
X155441789Y-79424093D02*
X155537027Y-79376474D01*
X155537027Y-79376474D02*
X155584646Y-79281235D01*
X155584646Y-79281235D02*
X155584646Y-78900283D01*
X155584646Y-78900283D02*
X155537027Y-78805045D01*
X155537027Y-78805045D02*
X155441789Y-78757426D01*
X155441789Y-78757426D02*
X155251313Y-78757426D01*
X155251313Y-78757426D02*
X155156075Y-78805045D01*
X155156075Y-78805045D02*
X155108456Y-78900283D01*
X155108456Y-78900283D02*
X155108456Y-78995521D01*
X155108456Y-78995521D02*
X155584646Y-79090759D01*
X177060839Y-77876474D02*
X176917982Y-77924093D01*
X176917982Y-77924093D02*
X176679887Y-77924093D01*
X176679887Y-77924093D02*
X176584649Y-77876474D01*
X176584649Y-77876474D02*
X176537030Y-77828854D01*
X176537030Y-77828854D02*
X176489411Y-77733616D01*
X176489411Y-77733616D02*
X176489411Y-77638378D01*
X176489411Y-77638378D02*
X176537030Y-77543140D01*
X176537030Y-77543140D02*
X176584649Y-77495521D01*
X176584649Y-77495521D02*
X176679887Y-77447902D01*
X176679887Y-77447902D02*
X176870363Y-77400283D01*
X176870363Y-77400283D02*
X176965601Y-77352664D01*
X176965601Y-77352664D02*
X177013220Y-77305045D01*
X177013220Y-77305045D02*
X177060839Y-77209807D01*
X177060839Y-77209807D02*
X177060839Y-77114569D01*
X177060839Y-77114569D02*
X177013220Y-77019331D01*
X177013220Y-77019331D02*
X176965601Y-76971712D01*
X176965601Y-76971712D02*
X176870363Y-76924093D01*
X176870363Y-76924093D02*
X176632268Y-76924093D01*
X176632268Y-76924093D02*
X176489411Y-76971712D01*
X176060839Y-77924093D02*
X176060839Y-77257426D01*
X176060839Y-76924093D02*
X176108458Y-76971712D01*
X176108458Y-76971712D02*
X176060839Y-77019331D01*
X176060839Y-77019331D02*
X176013220Y-76971712D01*
X176013220Y-76971712D02*
X176060839Y-76924093D01*
X176060839Y-76924093D02*
X176060839Y-77019331D01*
X175013221Y-77828854D02*
X175060840Y-77876474D01*
X175060840Y-77876474D02*
X175203697Y-77924093D01*
X175203697Y-77924093D02*
X175298935Y-77924093D01*
X175298935Y-77924093D02*
X175441792Y-77876474D01*
X175441792Y-77876474D02*
X175537030Y-77781235D01*
X175537030Y-77781235D02*
X175584649Y-77685997D01*
X175584649Y-77685997D02*
X175632268Y-77495521D01*
X175632268Y-77495521D02*
X175632268Y-77352664D01*
X175632268Y-77352664D02*
X175584649Y-77162188D01*
X175584649Y-77162188D02*
X175537030Y-77066950D01*
X175537030Y-77066950D02*
X175441792Y-76971712D01*
X175441792Y-76971712D02*
X175298935Y-76924093D01*
X175298935Y-76924093D02*
X175203697Y-76924093D01*
X175203697Y-76924093D02*
X175060840Y-76971712D01*
X175060840Y-76971712D02*
X175013221Y-77019331D01*
X173870363Y-77876474D02*
X173727506Y-77924093D01*
X173727506Y-77924093D02*
X173489411Y-77924093D01*
X173489411Y-77924093D02*
X173394173Y-77876474D01*
X173394173Y-77876474D02*
X173346554Y-77828854D01*
X173346554Y-77828854D02*
X173298935Y-77733616D01*
X173298935Y-77733616D02*
X173298935Y-77638378D01*
X173298935Y-77638378D02*
X173346554Y-77543140D01*
X173346554Y-77543140D02*
X173394173Y-77495521D01*
X173394173Y-77495521D02*
X173489411Y-77447902D01*
X173489411Y-77447902D02*
X173679887Y-77400283D01*
X173679887Y-77400283D02*
X173775125Y-77352664D01*
X173775125Y-77352664D02*
X173822744Y-77305045D01*
X173822744Y-77305045D02*
X173870363Y-77209807D01*
X173870363Y-77209807D02*
X173870363Y-77114569D01*
X173870363Y-77114569D02*
X173822744Y-77019331D01*
X173822744Y-77019331D02*
X173775125Y-76971712D01*
X173775125Y-76971712D02*
X173679887Y-76924093D01*
X173679887Y-76924093D02*
X173441792Y-76924093D01*
X173441792Y-76924093D02*
X173298935Y-76971712D01*
X172870363Y-77924093D02*
X172870363Y-77257426D01*
X172870363Y-76924093D02*
X172917982Y-76971712D01*
X172917982Y-76971712D02*
X172870363Y-77019331D01*
X172870363Y-77019331D02*
X172822744Y-76971712D01*
X172822744Y-76971712D02*
X172870363Y-76924093D01*
X172870363Y-76924093D02*
X172870363Y-77019331D01*
X172394173Y-77257426D02*
X172394173Y-77924093D01*
X172394173Y-77352664D02*
X172346554Y-77305045D01*
X172346554Y-77305045D02*
X172251316Y-77257426D01*
X172251316Y-77257426D02*
X172108459Y-77257426D01*
X172108459Y-77257426D02*
X172013221Y-77305045D01*
X172013221Y-77305045D02*
X171965602Y-77400283D01*
X171965602Y-77400283D02*
X171965602Y-77924093D01*
X171060840Y-77257426D02*
X171060840Y-78066950D01*
X171060840Y-78066950D02*
X171108459Y-78162188D01*
X171108459Y-78162188D02*
X171156078Y-78209807D01*
X171156078Y-78209807D02*
X171251316Y-78257426D01*
X171251316Y-78257426D02*
X171394173Y-78257426D01*
X171394173Y-78257426D02*
X171489411Y-78209807D01*
X171060840Y-77876474D02*
X171156078Y-77924093D01*
X171156078Y-77924093D02*
X171346554Y-77924093D01*
X171346554Y-77924093D02*
X171441792Y-77876474D01*
X171441792Y-77876474D02*
X171489411Y-77828854D01*
X171489411Y-77828854D02*
X171537030Y-77733616D01*
X171537030Y-77733616D02*
X171537030Y-77447902D01*
X171537030Y-77447902D02*
X171489411Y-77352664D01*
X171489411Y-77352664D02*
X171441792Y-77305045D01*
X171441792Y-77305045D02*
X171346554Y-77257426D01*
X171346554Y-77257426D02*
X171156078Y-77257426D01*
X171156078Y-77257426D02*
X171060840Y-77305045D01*
X170441792Y-77924093D02*
X170537030Y-77876474D01*
X170537030Y-77876474D02*
X170584649Y-77781235D01*
X170584649Y-77781235D02*
X170584649Y-76924093D01*
X169679887Y-77876474D02*
X169775125Y-77924093D01*
X169775125Y-77924093D02*
X169965601Y-77924093D01*
X169965601Y-77924093D02*
X170060839Y-77876474D01*
X170060839Y-77876474D02*
X170108458Y-77781235D01*
X170108458Y-77781235D02*
X170108458Y-77400283D01*
X170108458Y-77400283D02*
X170060839Y-77305045D01*
X170060839Y-77305045D02*
X169965601Y-77257426D01*
X169965601Y-77257426D02*
X169775125Y-77257426D01*
X169775125Y-77257426D02*
X169679887Y-77305045D01*
X169679887Y-77305045D02*
X169632268Y-77400283D01*
X169632268Y-77400283D02*
X169632268Y-77495521D01*
X169632268Y-77495521D02*
X170108458Y-77590759D01*
X168441791Y-77924093D02*
X168441791Y-76924093D01*
X168441791Y-76924093D02*
X168060839Y-76924093D01*
X168060839Y-76924093D02*
X167965601Y-76971712D01*
X167965601Y-76971712D02*
X167917982Y-77019331D01*
X167917982Y-77019331D02*
X167870363Y-77114569D01*
X167870363Y-77114569D02*
X167870363Y-77257426D01*
X167870363Y-77257426D02*
X167917982Y-77352664D01*
X167917982Y-77352664D02*
X167965601Y-77400283D01*
X167965601Y-77400283D02*
X168060839Y-77447902D01*
X168060839Y-77447902D02*
X168441791Y-77447902D01*
X167441791Y-77924093D02*
X167441791Y-76924093D01*
X167013220Y-77924093D02*
X167013220Y-77400283D01*
X167013220Y-77400283D02*
X167060839Y-77305045D01*
X167060839Y-77305045D02*
X167156077Y-77257426D01*
X167156077Y-77257426D02*
X167298934Y-77257426D01*
X167298934Y-77257426D02*
X167394172Y-77305045D01*
X167394172Y-77305045D02*
X167441791Y-77352664D01*
X166108458Y-77924093D02*
X166108458Y-77400283D01*
X166108458Y-77400283D02*
X166156077Y-77305045D01*
X166156077Y-77305045D02*
X166251315Y-77257426D01*
X166251315Y-77257426D02*
X166441791Y-77257426D01*
X166441791Y-77257426D02*
X166537029Y-77305045D01*
X166108458Y-77876474D02*
X166203696Y-77924093D01*
X166203696Y-77924093D02*
X166441791Y-77924093D01*
X166441791Y-77924093D02*
X166537029Y-77876474D01*
X166537029Y-77876474D02*
X166584648Y-77781235D01*
X166584648Y-77781235D02*
X166584648Y-77685997D01*
X166584648Y-77685997D02*
X166537029Y-77590759D01*
X166537029Y-77590759D02*
X166441791Y-77543140D01*
X166441791Y-77543140D02*
X166203696Y-77543140D01*
X166203696Y-77543140D02*
X166108458Y-77495521D01*
X165679886Y-77876474D02*
X165584648Y-77924093D01*
X165584648Y-77924093D02*
X165394172Y-77924093D01*
X165394172Y-77924093D02*
X165298934Y-77876474D01*
X165298934Y-77876474D02*
X165251315Y-77781235D01*
X165251315Y-77781235D02*
X165251315Y-77733616D01*
X165251315Y-77733616D02*
X165298934Y-77638378D01*
X165298934Y-77638378D02*
X165394172Y-77590759D01*
X165394172Y-77590759D02*
X165537029Y-77590759D01*
X165537029Y-77590759D02*
X165632267Y-77543140D01*
X165632267Y-77543140D02*
X165679886Y-77447902D01*
X165679886Y-77447902D02*
X165679886Y-77400283D01*
X165679886Y-77400283D02*
X165632267Y-77305045D01*
X165632267Y-77305045D02*
X165537029Y-77257426D01*
X165537029Y-77257426D02*
X165394172Y-77257426D01*
X165394172Y-77257426D02*
X165298934Y-77305045D01*
X164441791Y-77876474D02*
X164537029Y-77924093D01*
X164537029Y-77924093D02*
X164727505Y-77924093D01*
X164727505Y-77924093D02*
X164822743Y-77876474D01*
X164822743Y-77876474D02*
X164870362Y-77781235D01*
X164870362Y-77781235D02*
X164870362Y-77400283D01*
X164870362Y-77400283D02*
X164822743Y-77305045D01*
X164822743Y-77305045D02*
X164727505Y-77257426D01*
X164727505Y-77257426D02*
X164537029Y-77257426D01*
X164537029Y-77257426D02*
X164441791Y-77305045D01*
X164441791Y-77305045D02*
X164394172Y-77400283D01*
X164394172Y-77400283D02*
X164394172Y-77495521D01*
X164394172Y-77495521D02*
X164870362Y-77590759D01*
X163203695Y-77924093D02*
X163203695Y-76924093D01*
X162727505Y-77257426D02*
X162727505Y-77924093D01*
X162727505Y-77352664D02*
X162679886Y-77305045D01*
X162679886Y-77305045D02*
X162584648Y-77257426D01*
X162584648Y-77257426D02*
X162441791Y-77257426D01*
X162441791Y-77257426D02*
X162346553Y-77305045D01*
X162346553Y-77305045D02*
X162298934Y-77400283D01*
X162298934Y-77400283D02*
X162298934Y-77924093D01*
X161917981Y-77257426D02*
X161679886Y-77924093D01*
X161679886Y-77924093D02*
X161441791Y-77257426D01*
X160679886Y-77876474D02*
X160775124Y-77924093D01*
X160775124Y-77924093D02*
X160965600Y-77924093D01*
X160965600Y-77924093D02*
X161060838Y-77876474D01*
X161060838Y-77876474D02*
X161108457Y-77781235D01*
X161108457Y-77781235D02*
X161108457Y-77400283D01*
X161108457Y-77400283D02*
X161060838Y-77305045D01*
X161060838Y-77305045D02*
X160965600Y-77257426D01*
X160965600Y-77257426D02*
X160775124Y-77257426D01*
X160775124Y-77257426D02*
X160679886Y-77305045D01*
X160679886Y-77305045D02*
X160632267Y-77400283D01*
X160632267Y-77400283D02*
X160632267Y-77495521D01*
X160632267Y-77495521D02*
X161108457Y-77590759D01*
X160203695Y-77924093D02*
X160203695Y-77257426D01*
X160203695Y-77447902D02*
X160156076Y-77352664D01*
X160156076Y-77352664D02*
X160108457Y-77305045D01*
X160108457Y-77305045D02*
X160013219Y-77257426D01*
X160013219Y-77257426D02*
X159917981Y-77257426D01*
X159727504Y-77257426D02*
X159346552Y-77257426D01*
X159584647Y-76924093D02*
X159584647Y-77781235D01*
X159584647Y-77781235D02*
X159537028Y-77876474D01*
X159537028Y-77876474D02*
X159441790Y-77924093D01*
X159441790Y-77924093D02*
X159346552Y-77924093D01*
X158632266Y-77876474D02*
X158727504Y-77924093D01*
X158727504Y-77924093D02*
X158917980Y-77924093D01*
X158917980Y-77924093D02*
X159013218Y-77876474D01*
X159013218Y-77876474D02*
X159060837Y-77781235D01*
X159060837Y-77781235D02*
X159060837Y-77400283D01*
X159060837Y-77400283D02*
X159013218Y-77305045D01*
X159013218Y-77305045D02*
X158917980Y-77257426D01*
X158917980Y-77257426D02*
X158727504Y-77257426D01*
X158727504Y-77257426D02*
X158632266Y-77305045D01*
X158632266Y-77305045D02*
X158584647Y-77400283D01*
X158584647Y-77400283D02*
X158584647Y-77495521D01*
X158584647Y-77495521D02*
X159060837Y-77590759D01*
X158156075Y-77924093D02*
X158156075Y-77257426D01*
X158156075Y-77447902D02*
X158108456Y-77352664D01*
X158108456Y-77352664D02*
X158060837Y-77305045D01*
X158060837Y-77305045D02*
X157965599Y-77257426D01*
X157965599Y-77257426D02*
X157870361Y-77257426D01*
X156441789Y-77400283D02*
X156298932Y-77447902D01*
X156298932Y-77447902D02*
X156251313Y-77495521D01*
X156251313Y-77495521D02*
X156203694Y-77590759D01*
X156203694Y-77590759D02*
X156203694Y-77733616D01*
X156203694Y-77733616D02*
X156251313Y-77828854D01*
X156251313Y-77828854D02*
X156298932Y-77876474D01*
X156298932Y-77876474D02*
X156394170Y-77924093D01*
X156394170Y-77924093D02*
X156775122Y-77924093D01*
X156775122Y-77924093D02*
X156775122Y-76924093D01*
X156775122Y-76924093D02*
X156441789Y-76924093D01*
X156441789Y-76924093D02*
X156346551Y-76971712D01*
X156346551Y-76971712D02*
X156298932Y-77019331D01*
X156298932Y-77019331D02*
X156251313Y-77114569D01*
X156251313Y-77114569D02*
X156251313Y-77209807D01*
X156251313Y-77209807D02*
X156298932Y-77305045D01*
X156298932Y-77305045D02*
X156346551Y-77352664D01*
X156346551Y-77352664D02*
X156441789Y-77400283D01*
X156441789Y-77400283D02*
X156775122Y-77400283D01*
X155251313Y-77924093D02*
X155822741Y-77924093D01*
X155537027Y-77924093D02*
X155537027Y-76924093D01*
X155537027Y-76924093D02*
X155632265Y-77066950D01*
X155632265Y-77066950D02*
X155727503Y-77162188D01*
X155727503Y-77162188D02*
X155822741Y-77209807D01*
X154822741Y-77828854D02*
X154775122Y-77876474D01*
X154775122Y-77876474D02*
X154822741Y-77924093D01*
X154822741Y-77924093D02*
X154870360Y-77876474D01*
X154870360Y-77876474D02*
X154822741Y-77828854D01*
X154822741Y-77828854D02*
X154822741Y-77924093D01*
X154156075Y-76924093D02*
X154060837Y-76924093D01*
X154060837Y-76924093D02*
X153965599Y-76971712D01*
X153965599Y-76971712D02*
X153917980Y-77019331D01*
X153917980Y-77019331D02*
X153870361Y-77114569D01*
X153870361Y-77114569D02*
X153822742Y-77305045D01*
X153822742Y-77305045D02*
X153822742Y-77543140D01*
X153822742Y-77543140D02*
X153870361Y-77733616D01*
X153870361Y-77733616D02*
X153917980Y-77828854D01*
X153917980Y-77828854D02*
X153965599Y-77876474D01*
X153965599Y-77876474D02*
X154060837Y-77924093D01*
X154060837Y-77924093D02*
X154156075Y-77924093D01*
X154156075Y-77924093D02*
X154251313Y-77876474D01*
X154251313Y-77876474D02*
X154298932Y-77828854D01*
X154298932Y-77828854D02*
X154346551Y-77733616D01*
X154346551Y-77733616D02*
X154394170Y-77543140D01*
X154394170Y-77543140D02*
X154394170Y-77305045D01*
X154394170Y-77305045D02*
X154346551Y-77114569D01*
X154346551Y-77114569D02*
X154298932Y-77019331D01*
X154298932Y-77019331D02*
X154251313Y-76971712D01*
X154251313Y-76971712D02*
X154156075Y-76924093D01*
D12*
%TO.C,G\u002A\u002A\u002A*%
G36*
X164150416Y-84156161D02*
G01*
X164183964Y-84183906D01*
X164187665Y-84189878D01*
X164196843Y-84215338D01*
X164202726Y-84254875D01*
X164205857Y-84313550D01*
X164206780Y-84396428D01*
X164206780Y-84576375D01*
X164338352Y-84576375D01*
X164394183Y-84576738D01*
X164437470Y-84578990D01*
X164464020Y-84584726D01*
X164480589Y-84595538D01*
X164493933Y-84613016D01*
X164507031Y-84635284D01*
X164509373Y-84657780D01*
X164493766Y-84686555D01*
X164469590Y-84723451D01*
X164107767Y-84719532D01*
X163745944Y-84715613D01*
X163727753Y-84679109D01*
X163725048Y-84673499D01*
X163717098Y-84642061D01*
X163729079Y-84613154D01*
X163738457Y-84601955D01*
X163755699Y-84592132D01*
X163784562Y-84585898D01*
X163830943Y-84582098D01*
X163900740Y-84579580D01*
X164052885Y-84575457D01*
X164051584Y-84390345D01*
X164051459Y-84369325D01*
X164051730Y-84296821D01*
X164053786Y-84246898D01*
X164058284Y-84214122D01*
X164065880Y-84193062D01*
X164077233Y-84178282D01*
X164111399Y-84155903D01*
X164150416Y-84156161D01*
G37*
G36*
X164493933Y-84950120D02*
G01*
X164506933Y-84972162D01*
X164509441Y-84994717D01*
X164493933Y-85023403D01*
X164492985Y-85024843D01*
X164480128Y-85041358D01*
X164463817Y-85051694D01*
X164437590Y-85057294D01*
X164394980Y-85059597D01*
X164329524Y-85060045D01*
X164189124Y-85060045D01*
X164194288Y-85254246D01*
X164199452Y-85448446D01*
X164336969Y-85455775D01*
X164364161Y-85457321D01*
X164421720Y-85462021D01*
X164458410Y-85468491D01*
X164480429Y-85478185D01*
X164493974Y-85492553D01*
X164496777Y-85496947D01*
X164506005Y-85525285D01*
X164495313Y-85558508D01*
X164491151Y-85566387D01*
X164478340Y-85582083D01*
X164457629Y-85591322D01*
X164421881Y-85596320D01*
X164363957Y-85599294D01*
X164350864Y-85599836D01*
X164299950Y-85602962D01*
X164264227Y-85606804D01*
X164250750Y-85610652D01*
X164251088Y-85612133D01*
X164259808Y-85632636D01*
X164277929Y-85670855D01*
X164302233Y-85719961D01*
X164317664Y-85750241D01*
X164340036Y-85789935D01*
X164358199Y-85811507D01*
X164377586Y-85820433D01*
X164403631Y-85822191D01*
X164433890Y-85823071D01*
X164474286Y-85831308D01*
X164494436Y-85851298D01*
X164499914Y-85886783D01*
X164499912Y-85887865D01*
X164496471Y-85923430D01*
X164483174Y-85946886D01*
X164455182Y-85960648D01*
X164407657Y-85967133D01*
X164335759Y-85968758D01*
X164206780Y-85968758D01*
X164206556Y-86097004D01*
X164205935Y-86151058D01*
X164202710Y-86203312D01*
X164195416Y-86235948D01*
X164182601Y-86254533D01*
X164162810Y-86264636D01*
X164136704Y-86267699D01*
X164098024Y-86259650D01*
X164071431Y-86241192D01*
X164069434Y-86236024D01*
X164064904Y-86205596D01*
X164061708Y-86156664D01*
X164060438Y-86097004D01*
X164060214Y-85968758D01*
X163907150Y-85968758D01*
X163904951Y-85968758D01*
X163836209Y-85968215D01*
X163790597Y-85965911D01*
X163762098Y-85960778D01*
X163744696Y-85951751D01*
X163732375Y-85937762D01*
X163720407Y-85912330D01*
X163718936Y-85882799D01*
X163720071Y-85879614D01*
X163731410Y-85857793D01*
X163749750Y-85842241D01*
X163779550Y-85831930D01*
X163825266Y-85825836D01*
X163891358Y-85822931D01*
X163982283Y-85822191D01*
X164191884Y-85822191D01*
X164137491Y-85712266D01*
X164083099Y-85602341D01*
X163920033Y-85602341D01*
X163912288Y-85602338D01*
X163842145Y-85601704D01*
X163794779Y-85599308D01*
X163764209Y-85594197D01*
X163744454Y-85585421D01*
X163729532Y-85572026D01*
X163714674Y-85553550D01*
X163710489Y-85532407D01*
X163724124Y-85502407D01*
X163729088Y-85493823D01*
X163740625Y-85479081D01*
X163757425Y-85469716D01*
X163785500Y-85464240D01*
X163830861Y-85461165D01*
X163899518Y-85459005D01*
X164052885Y-85454907D01*
X164048428Y-85257476D01*
X164043971Y-85060045D01*
X163898535Y-85060045D01*
X163884047Y-85060037D01*
X163822042Y-85059408D01*
X163781857Y-85056796D01*
X163757179Y-85050834D01*
X163741695Y-85040159D01*
X163729091Y-85023403D01*
X163716091Y-85001361D01*
X163713583Y-84978806D01*
X163729091Y-84950120D01*
X163753099Y-84913478D01*
X164111512Y-84913478D01*
X164469925Y-84913478D01*
X164493933Y-84950120D01*
G37*
G36*
X163239440Y-85822191D02*
G01*
X163287478Y-85822191D01*
X163323844Y-85826131D01*
X163367467Y-85844924D01*
X163393492Y-85874574D01*
X163398140Y-85909901D01*
X163377632Y-85945726D01*
X163361085Y-85956276D01*
X163330564Y-85963707D01*
X163281715Y-85967620D01*
X163209080Y-85968758D01*
X163063560Y-85968758D01*
X163063560Y-86082750D01*
X163062119Y-86137901D01*
X163054806Y-86194541D01*
X163040744Y-86229317D01*
X163036697Y-86234547D01*
X163003282Y-86256964D01*
X162964929Y-86260037D01*
X162933644Y-86242309D01*
X162931109Y-86237906D01*
X162923049Y-86207451D01*
X162916126Y-86158528D01*
X162911615Y-86099406D01*
X162905837Y-85976086D01*
X162823801Y-85971700D01*
X162803935Y-85970683D01*
X162774180Y-85968223D01*
X162750534Y-85962439D01*
X162732295Y-85950444D01*
X162718763Y-85929350D01*
X162709236Y-85896270D01*
X162703013Y-85848316D01*
X162699394Y-85782600D01*
X162697676Y-85696234D01*
X162697160Y-85586331D01*
X162697144Y-85450003D01*
X162697127Y-85373174D01*
X162697296Y-85252629D01*
X162698331Y-85156967D01*
X162700128Y-85106459D01*
X162846131Y-85106459D01*
X162849129Y-85122336D01*
X162850388Y-85130408D01*
X162852833Y-85166640D01*
X162854948Y-85225265D01*
X162856619Y-85301608D01*
X162857731Y-85390995D01*
X162858167Y-85488752D01*
X162858367Y-85822191D01*
X162975620Y-85822191D01*
X163092874Y-85822191D01*
X163092874Y-85455775D01*
X163092874Y-85089358D01*
X162966583Y-85089358D01*
X162906481Y-85089675D01*
X162869460Y-85091630D01*
X162851126Y-85096724D01*
X162846131Y-85106459D01*
X162700128Y-85106459D01*
X162700951Y-85083315D01*
X162705873Y-85028801D01*
X162713817Y-84990554D01*
X162725501Y-84965701D01*
X162741643Y-84951370D01*
X162762960Y-84944689D01*
X162790172Y-84942787D01*
X162823997Y-84942791D01*
X162902337Y-84942791D01*
X162902337Y-84832866D01*
X162902337Y-84722941D01*
X162764146Y-84722941D01*
X162704152Y-84721763D01*
X162643822Y-84715499D01*
X162605653Y-84702415D01*
X162585668Y-84680925D01*
X162579891Y-84649442D01*
X162580168Y-84643251D01*
X162593634Y-84612751D01*
X162628911Y-84591990D01*
X162688197Y-84580141D01*
X162773688Y-84576375D01*
X162902337Y-84576375D01*
X162902337Y-84386885D01*
X162903418Y-84298504D01*
X162907606Y-84234745D01*
X162916288Y-84192189D01*
X162930850Y-84166796D01*
X162952680Y-84154524D01*
X162983165Y-84151331D01*
X163001149Y-84152859D01*
X163026752Y-84164762D01*
X163044619Y-84191487D01*
X163055926Y-84236617D01*
X163061848Y-84303736D01*
X163063560Y-84396428D01*
X163063560Y-84576375D01*
X163209080Y-84576375D01*
X163282015Y-84577994D01*
X163339936Y-84584586D01*
X163376345Y-84597705D01*
X163395252Y-84618885D01*
X163400664Y-84649658D01*
X163396430Y-84677557D01*
X163379197Y-84699712D01*
X163344899Y-84713639D01*
X163289530Y-84720871D01*
X163209080Y-84722941D01*
X163063560Y-84722941D01*
X163063560Y-84832866D01*
X163063560Y-84942791D01*
X163124697Y-84942791D01*
X163153572Y-84942973D01*
X163179526Y-84945409D01*
X163199642Y-84953102D01*
X163214662Y-84969059D01*
X163225332Y-84996288D01*
X163232394Y-85037795D01*
X163236592Y-85096588D01*
X163238670Y-85175673D01*
X163239372Y-85278057D01*
X163239440Y-85406748D01*
X163239440Y-85455775D01*
X163239440Y-85822191D01*
G37*
G36*
X165747051Y-82329976D02*
G01*
X165767750Y-82368089D01*
X165775043Y-82384198D01*
X165769371Y-82403134D01*
X165752227Y-82433241D01*
X165748581Y-82438223D01*
X165733149Y-82452848D01*
X165710258Y-82461187D01*
X165672630Y-82464942D01*
X165612989Y-82465815D01*
X165496567Y-82465815D01*
X165496757Y-82506121D01*
X165496762Y-82506689D01*
X165499226Y-82537289D01*
X165505522Y-82589416D01*
X165514717Y-82655915D01*
X165525880Y-82729635D01*
X165536138Y-82794984D01*
X165546155Y-82862294D01*
X165551710Y-82908997D01*
X165552905Y-82939900D01*
X165549844Y-82959809D01*
X165542630Y-82973532D01*
X165531366Y-82985875D01*
X165511846Y-83001501D01*
X165479415Y-83009027D01*
X165444600Y-82992773D01*
X165405124Y-82951391D01*
X165358712Y-82883530D01*
X165357782Y-82882032D01*
X165320828Y-82822534D01*
X165274420Y-82747830D01*
X165224395Y-82667318D01*
X165176594Y-82590397D01*
X165117252Y-82494980D01*
X165057332Y-82398460D01*
X165010443Y-82322075D01*
X164975334Y-82263143D01*
X164960116Y-82235803D01*
X165130150Y-82235803D01*
X165132674Y-82240931D01*
X165147515Y-82267065D01*
X165173425Y-82311352D01*
X165207836Y-82369419D01*
X165248182Y-82436890D01*
X165272050Y-82476508D01*
X165310511Y-82539739D01*
X165342325Y-82591269D01*
X165364706Y-82626605D01*
X165374869Y-82641252D01*
X165375378Y-82641643D01*
X165378542Y-82633081D01*
X165375212Y-82605053D01*
X165370746Y-82577988D01*
X165363524Y-82526401D01*
X165356568Y-82469584D01*
X165352088Y-82411872D01*
X165357473Y-82370355D01*
X165378119Y-82346813D01*
X165418654Y-82336309D01*
X165483705Y-82333905D01*
X165486277Y-82333903D01*
X165535862Y-82332913D01*
X165571099Y-82330466D01*
X165584507Y-82327071D01*
X165584484Y-82326837D01*
X165576462Y-82310855D01*
X165556798Y-82277511D01*
X165529544Y-82233692D01*
X165501979Y-82190034D01*
X165461431Y-82125200D01*
X165426240Y-82068310D01*
X165377898Y-81989473D01*
X165387172Y-82089076D01*
X165389079Y-82110780D01*
X165390843Y-82166699D01*
X165382053Y-82202013D01*
X165358035Y-82221420D01*
X165314113Y-82229619D01*
X165245609Y-82231308D01*
X165230596Y-82231347D01*
X165179453Y-82232125D01*
X165143641Y-82233701D01*
X165130150Y-82235803D01*
X164960116Y-82235803D01*
X164950753Y-82218983D01*
X164935449Y-82186912D01*
X164928169Y-82164250D01*
X164927663Y-82148315D01*
X164932679Y-82136425D01*
X164941965Y-82125899D01*
X164954270Y-82114055D01*
X164962119Y-82106917D01*
X164981978Y-82095484D01*
X165011095Y-82088746D01*
X165056147Y-82085551D01*
X165123810Y-82084742D01*
X165179901Y-82084427D01*
X165224078Y-82082681D01*
X165248138Y-82078524D01*
X165257084Y-82070985D01*
X165255917Y-82059093D01*
X165254880Y-82055689D01*
X165245851Y-82021516D01*
X165232943Y-81968025D01*
X165217475Y-81901199D01*
X165200768Y-81827021D01*
X165184140Y-81751472D01*
X165168911Y-81680537D01*
X165156399Y-81620196D01*
X165147925Y-81576434D01*
X165144807Y-81555232D01*
X165147005Y-81540961D01*
X165168163Y-81511983D01*
X165203266Y-81497038D01*
X165241779Y-81501918D01*
X165264983Y-81514934D01*
X165276717Y-81527456D01*
X165279992Y-81534470D01*
X165296375Y-81563958D01*
X165324952Y-81613530D01*
X165363957Y-81680171D01*
X165411624Y-81760872D01*
X165466187Y-81852620D01*
X165525880Y-81952402D01*
X165565670Y-82018938D01*
X165622257Y-82114340D01*
X165672531Y-82200029D01*
X165714720Y-82272932D01*
X165745405Y-82327071D01*
X165747051Y-82329976D01*
G37*
G36*
X166353559Y-87376017D02*
G01*
X166385056Y-87386179D01*
X166405526Y-87414139D01*
X166416607Y-87463520D01*
X166419937Y-87537946D01*
X166419937Y-87654029D01*
X166580916Y-87734764D01*
X166584562Y-87736591D01*
X166646439Y-87767301D01*
X166698086Y-87792383D01*
X166734198Y-87809295D01*
X166749468Y-87815498D01*
X166754371Y-87806972D01*
X166757040Y-87779903D01*
X166762921Y-87746120D01*
X166788405Y-87713017D01*
X166828049Y-87700879D01*
X166875257Y-87713417D01*
X166878261Y-87715117D01*
X166889622Y-87725324D01*
X166896998Y-87743159D01*
X166901229Y-87774041D01*
X166903152Y-87823390D01*
X166903607Y-87896625D01*
X166903607Y-88064661D01*
X167048975Y-88064661D01*
X167087963Y-88064979D01*
X167147845Y-88066787D01*
X167193719Y-88069835D01*
X167217933Y-88073714D01*
X167244369Y-88091631D01*
X167260852Y-88128907D01*
X167253081Y-88173748D01*
X167246815Y-88186473D01*
X167236727Y-88198413D01*
X167219534Y-88205722D01*
X167189684Y-88209538D01*
X167141626Y-88210994D01*
X167069806Y-88211228D01*
X166903607Y-88211228D01*
X166903607Y-88369520D01*
X166903352Y-88412802D01*
X166900701Y-88478854D01*
X166893775Y-88522404D01*
X166880872Y-88547947D01*
X166860289Y-88559976D01*
X166830323Y-88562988D01*
X166792153Y-88556040D01*
X166765530Y-88528948D01*
X166757040Y-88479532D01*
X166757040Y-88431253D01*
X166603183Y-88507771D01*
X166449327Y-88584289D01*
X166493258Y-88618670D01*
X166517110Y-88641702D01*
X166536358Y-88680407D01*
X166530829Y-88715586D01*
X166500211Y-88741688D01*
X166479373Y-88749190D01*
X166452970Y-88746874D01*
X166419599Y-88726279D01*
X166375967Y-88694020D01*
X166375967Y-88863010D01*
X166375967Y-89032001D01*
X166446319Y-89032001D01*
X166472144Y-89032779D01*
X166519219Y-89042515D01*
X166544388Y-89065713D01*
X166551847Y-89105284D01*
X166550727Y-89123219D01*
X166536706Y-89155909D01*
X166503300Y-89173388D01*
X166446319Y-89178567D01*
X166375967Y-89178567D01*
X166375967Y-89303149D01*
X166375967Y-89427731D01*
X166446319Y-89427731D01*
X166464665Y-89428118D01*
X166515482Y-89436754D01*
X166543351Y-89458472D01*
X166551847Y-89495570D01*
X166551816Y-89498052D01*
X166538320Y-89539919D01*
X166500993Y-89565580D01*
X166440875Y-89574297D01*
X166375967Y-89574297D01*
X166375967Y-89686733D01*
X166375909Y-89700280D01*
X166373148Y-89761710D01*
X166365450Y-89801498D01*
X166351710Y-89825971D01*
X166322152Y-89846208D01*
X166281559Y-89851420D01*
X166246988Y-89835186D01*
X166237845Y-89812063D01*
X166231613Y-89763890D01*
X166229400Y-89695948D01*
X166229400Y-89574297D01*
X166152050Y-89574297D01*
X166118843Y-89572710D01*
X166060872Y-89559635D01*
X166023067Y-89535104D01*
X166009550Y-89501230D01*
X166011284Y-89484208D01*
X166031025Y-89452184D01*
X166074180Y-89433682D01*
X166142507Y-89427731D01*
X166229400Y-89427731D01*
X166229400Y-89303149D01*
X166229400Y-89178567D01*
X166142507Y-89178567D01*
X166091858Y-89174906D01*
X166040854Y-89159163D01*
X166012816Y-89133066D01*
X166009787Y-89098863D01*
X166033807Y-89058804D01*
X166051842Y-89044920D01*
X166087283Y-89034912D01*
X166143732Y-89032001D01*
X166229400Y-89032001D01*
X166229400Y-88734471D01*
X166230008Y-88622992D01*
X166231955Y-88536430D01*
X166235356Y-88475025D01*
X166240328Y-88436694D01*
X166246988Y-88419352D01*
X166271093Y-88405141D01*
X166311976Y-88405814D01*
X166353037Y-88429420D01*
X166358601Y-88434393D01*
X166371134Y-88442775D01*
X166386444Y-88445181D01*
X166409267Y-88440279D01*
X166444338Y-88426742D01*
X166496393Y-88403237D01*
X166570167Y-88368436D01*
X166757040Y-88279797D01*
X166757040Y-88129244D01*
X166757040Y-87978691D01*
X166548182Y-87873669D01*
X166527029Y-87863040D01*
X166440958Y-87819503D01*
X166376938Y-87785081D01*
X166331710Y-87756112D01*
X166302015Y-87728930D01*
X166284593Y-87699875D01*
X166276185Y-87665281D01*
X166273531Y-87621486D01*
X166273370Y-87564826D01*
X166274827Y-87496480D01*
X166281303Y-87437686D01*
X166294400Y-87400639D01*
X166315667Y-87381342D01*
X166346653Y-87375798D01*
X166353559Y-87376017D01*
G37*
G36*
X165232068Y-85986759D02*
G01*
X165231547Y-86111704D01*
X165230814Y-86217158D01*
X165229832Y-86304933D01*
X165228563Y-86376842D01*
X165226973Y-86434697D01*
X165225024Y-86480309D01*
X165222680Y-86515489D01*
X165219905Y-86542051D01*
X165216662Y-86561805D01*
X165212916Y-86576564D01*
X165208629Y-86588140D01*
X165203765Y-86598344D01*
X165178022Y-86638222D01*
X165117755Y-86695075D01*
X165045268Y-86731220D01*
X165041013Y-86731876D01*
X165010399Y-86733531D01*
X164953329Y-86735058D01*
X164871876Y-86736442D01*
X164768112Y-86737672D01*
X164644111Y-86738732D01*
X164501945Y-86739610D01*
X164343687Y-86740292D01*
X164171411Y-86740764D01*
X163987190Y-86741012D01*
X163793095Y-86741023D01*
X163591200Y-86740783D01*
X162176832Y-86738233D01*
X162122609Y-86704517D01*
X162115111Y-86699560D01*
X162070528Y-86660838D01*
X162034669Y-86616577D01*
X162000952Y-86562353D01*
X161996786Y-85195385D01*
X161996692Y-85163790D01*
X161996675Y-85156440D01*
X162169504Y-85156440D01*
X162169504Y-86498653D01*
X162212346Y-86541495D01*
X162255189Y-86584338D01*
X163608394Y-86584122D01*
X163707459Y-86584093D01*
X163937389Y-86583906D01*
X164140091Y-86583539D01*
X164317057Y-86582970D01*
X164469781Y-86582180D01*
X164599754Y-86581150D01*
X164708470Y-86579859D01*
X164797421Y-86578286D01*
X164868101Y-86576413D01*
X164922000Y-86574219D01*
X164960614Y-86571684D01*
X164985433Y-86568789D01*
X164997951Y-86565512D01*
X165002821Y-86563093D01*
X165014571Y-86557137D01*
X165024895Y-86550342D01*
X165033880Y-86540928D01*
X165041613Y-86527114D01*
X165048180Y-86507122D01*
X165053669Y-86479171D01*
X165058167Y-86441483D01*
X165061761Y-86392278D01*
X165064537Y-86329775D01*
X165066583Y-86252196D01*
X165067986Y-86157761D01*
X165068833Y-86044690D01*
X165069210Y-85911203D01*
X165069205Y-85755522D01*
X165068905Y-85575866D01*
X165068397Y-85370456D01*
X165067768Y-85137512D01*
X165067406Y-85004547D01*
X165066777Y-84791658D01*
X165066128Y-84605264D01*
X165065420Y-84443566D01*
X165064614Y-84304765D01*
X165063670Y-84187059D01*
X165062549Y-84088651D01*
X165061212Y-84007741D01*
X165059620Y-83942529D01*
X165057733Y-83891216D01*
X165055513Y-83852002D01*
X165052919Y-83823088D01*
X165049912Y-83802675D01*
X165046454Y-83788962D01*
X165042505Y-83780151D01*
X165038026Y-83774443D01*
X165034856Y-83771680D01*
X165027491Y-83767533D01*
X165015931Y-83763889D01*
X164998384Y-83760705D01*
X164973054Y-83757944D01*
X164938147Y-83755565D01*
X164891869Y-83753528D01*
X164832426Y-83751794D01*
X164758024Y-83750322D01*
X164666868Y-83749073D01*
X164557164Y-83748007D01*
X164427118Y-83747084D01*
X164274935Y-83746265D01*
X164098822Y-83745509D01*
X163896985Y-83744777D01*
X163667628Y-83744029D01*
X163651114Y-83743978D01*
X163454642Y-83743468D01*
X163265998Y-83743164D01*
X163087330Y-83743057D01*
X162920786Y-83743142D01*
X162768515Y-83743412D01*
X162632666Y-83743858D01*
X162515388Y-83744476D01*
X162418828Y-83745256D01*
X162345136Y-83746194D01*
X162296459Y-83747281D01*
X162274947Y-83748511D01*
X162232969Y-83762750D01*
X162198000Y-83785732D01*
X162197152Y-83786591D01*
X162192396Y-83792308D01*
X162188219Y-83800251D01*
X162184584Y-83812225D01*
X162181452Y-83830037D01*
X162178787Y-83855493D01*
X162176550Y-83890398D01*
X162174704Y-83936558D01*
X162173212Y-83995779D01*
X162172037Y-84069867D01*
X162171139Y-84160627D01*
X162170483Y-84269866D01*
X162170031Y-84399389D01*
X162169744Y-84551002D01*
X162169586Y-84726511D01*
X162169518Y-84927722D01*
X162169504Y-85156440D01*
X161996675Y-85156440D01*
X161996074Y-84902099D01*
X161995841Y-84669091D01*
X161995998Y-84464200D01*
X161996550Y-84286862D01*
X161997500Y-84136512D01*
X161998854Y-84012587D01*
X162000615Y-83914520D01*
X162002790Y-83841749D01*
X162005382Y-83793708D01*
X162008395Y-83769832D01*
X162020492Y-83736206D01*
X162058961Y-83673812D01*
X162110438Y-83623511D01*
X162167199Y-83593862D01*
X162169011Y-83593416D01*
X162196144Y-83590544D01*
X162248932Y-83588080D01*
X162327782Y-83586020D01*
X162433100Y-83584363D01*
X162565292Y-83583105D01*
X162724764Y-83582242D01*
X162911922Y-83581772D01*
X163127173Y-83581692D01*
X163370923Y-83581998D01*
X163643577Y-83582688D01*
X165066352Y-83587050D01*
X165119455Y-83623440D01*
X165127550Y-83629341D01*
X165169845Y-83669313D01*
X165202652Y-83713375D01*
X165206065Y-83719603D01*
X165210712Y-83729500D01*
X165214785Y-83741597D01*
X165218323Y-83757703D01*
X165221363Y-83779624D01*
X165223942Y-83809168D01*
X165226099Y-83848143D01*
X165227872Y-83898356D01*
X165229298Y-83961614D01*
X165230415Y-84039726D01*
X165231260Y-84134498D01*
X165231872Y-84247739D01*
X165232287Y-84381255D01*
X165232545Y-84536855D01*
X165232682Y-84716345D01*
X165232737Y-84921534D01*
X165232747Y-85154228D01*
X165232745Y-85255842D01*
X165232713Y-85476866D01*
X165232614Y-85671153D01*
X165232411Y-85840513D01*
X165232245Y-85911203D01*
X165232068Y-85986759D01*
G37*
G36*
X168702918Y-88588818D02*
G01*
X168703439Y-88792660D01*
X168703952Y-89010888D01*
X168704319Y-89203004D01*
X168704513Y-89370755D01*
X168704506Y-89515884D01*
X168704271Y-89640134D01*
X168703780Y-89745251D01*
X168703007Y-89832978D01*
X168701924Y-89905060D01*
X168700504Y-89963240D01*
X168698720Y-90009263D01*
X168696543Y-90044873D01*
X168693948Y-90071813D01*
X168690906Y-90091829D01*
X168687390Y-90106664D01*
X168683373Y-90118062D01*
X168678828Y-90127768D01*
X168652745Y-90171884D01*
X168607552Y-90219322D01*
X168544717Y-90254761D01*
X168537617Y-90257330D01*
X168522684Y-90260759D01*
X168500953Y-90263751D01*
X168470691Y-90266329D01*
X168430167Y-90268514D01*
X168377648Y-90270330D01*
X168311404Y-90271798D01*
X168229702Y-90272941D01*
X168130810Y-90273782D01*
X168012996Y-90274343D01*
X167874529Y-90274646D01*
X167713676Y-90274714D01*
X167528706Y-90274570D01*
X167317887Y-90274235D01*
X167079487Y-90273732D01*
X165665118Y-90270489D01*
X165606240Y-90236731D01*
X165594795Y-90229618D01*
X165548123Y-90191852D01*
X165510972Y-90149864D01*
X165474582Y-90096757D01*
X165474582Y-88614289D01*
X165474582Y-87197663D01*
X165643133Y-87197663D01*
X165643133Y-88614286D01*
X165643133Y-90030909D01*
X165685976Y-90073751D01*
X165728819Y-90116594D01*
X167091039Y-90116594D01*
X167237156Y-90116592D01*
X167450298Y-90116562D01*
X167637051Y-90116466D01*
X167799222Y-90116265D01*
X167938614Y-90115918D01*
X168057034Y-90115388D01*
X168156288Y-90114634D01*
X168238180Y-90113619D01*
X168304517Y-90112302D01*
X168357104Y-90110644D01*
X168397746Y-90108607D01*
X168428249Y-90106151D01*
X168450420Y-90103236D01*
X168466062Y-90099825D01*
X168476982Y-90095878D01*
X168484986Y-90091355D01*
X168491878Y-90086217D01*
X168530496Y-90055840D01*
X168530496Y-89140862D01*
X168530496Y-88225884D01*
X168292326Y-88225961D01*
X168054155Y-88226037D01*
X168049141Y-88376191D01*
X168047050Y-88420297D01*
X168042135Y-88479119D01*
X168035842Y-88522965D01*
X168029025Y-88544667D01*
X168021561Y-88551174D01*
X167987911Y-88561663D01*
X167948238Y-88559772D01*
X167917848Y-88545400D01*
X167906199Y-88523394D01*
X167900260Y-88486773D01*
X167898137Y-88458427D01*
X167892639Y-88445734D01*
X167884430Y-88448841D01*
X167855142Y-88462285D01*
X167811253Y-88483321D01*
X167759528Y-88508608D01*
X167706727Y-88534810D01*
X167659614Y-88558587D01*
X167624950Y-88576601D01*
X167609500Y-88585513D01*
X167609123Y-88586854D01*
X167617029Y-88604195D01*
X167636668Y-88633445D01*
X167653845Y-88662807D01*
X167660817Y-88701507D01*
X167646088Y-88728638D01*
X167610957Y-88738868D01*
X167581587Y-88733641D01*
X167545990Y-88714611D01*
X167537480Y-88707489D01*
X167528842Y-88704850D01*
X167523463Y-88714691D01*
X167520574Y-88741220D01*
X167519405Y-88788647D01*
X167519187Y-88861178D01*
X167519187Y-89032001D01*
X167591423Y-89032001D01*
X167600587Y-89032127D01*
X167660817Y-89041806D01*
X167697477Y-89065772D01*
X167709183Y-89102438D01*
X167694551Y-89150218D01*
X167693880Y-89151442D01*
X167677940Y-89168118D01*
X167649107Y-89176357D01*
X167599283Y-89178567D01*
X167519187Y-89178567D01*
X167519187Y-89302418D01*
X167519187Y-89426268D01*
X167603173Y-89430664D01*
X167642995Y-89433435D01*
X167674124Y-89439792D01*
X167690928Y-89452967D01*
X167701810Y-89476899D01*
X167707399Y-89495500D01*
X167705474Y-89521998D01*
X167682155Y-89546518D01*
X167646228Y-89565226D01*
X167583518Y-89574297D01*
X167519187Y-89574297D01*
X167519187Y-89695948D01*
X167518291Y-89748007D01*
X167512823Y-89800996D01*
X167500421Y-89832940D01*
X167478857Y-89848610D01*
X167445903Y-89852774D01*
X167421576Y-89850858D01*
X167396815Y-89839156D01*
X167381888Y-89812616D01*
X167374566Y-89766470D01*
X167372620Y-89695948D01*
X167372620Y-89574297D01*
X167291045Y-89574297D01*
X167231434Y-89571416D01*
X167185184Y-89559627D01*
X167160237Y-89536835D01*
X167152770Y-89501014D01*
X167158207Y-89469422D01*
X167180450Y-89444910D01*
X167223456Y-89431688D01*
X167291045Y-89427731D01*
X167372620Y-89427731D01*
X167372620Y-89303849D01*
X167372620Y-89179966D01*
X167281510Y-89175603D01*
X167239656Y-89172868D01*
X167204747Y-89166544D01*
X167183875Y-89154010D01*
X167168407Y-89131935D01*
X167156834Y-89108695D01*
X167155996Y-89086609D01*
X167173848Y-89062316D01*
X167174676Y-89061411D01*
X167198441Y-89043424D01*
X167232792Y-89034445D01*
X167286951Y-89032001D01*
X167372620Y-89032001D01*
X167372620Y-88734471D01*
X167373228Y-88622992D01*
X167375175Y-88536430D01*
X167378576Y-88475025D01*
X167383548Y-88436694D01*
X167390208Y-88419352D01*
X167422779Y-88403421D01*
X167464355Y-88407394D01*
X167501777Y-88431500D01*
X167507547Y-88437577D01*
X167518949Y-88446519D01*
X167533345Y-88449317D01*
X167555435Y-88444693D01*
X167589919Y-88431365D01*
X167641497Y-88408055D01*
X167714870Y-88373484D01*
X167900260Y-88285732D01*
X167900260Y-88131318D01*
X167900260Y-87976904D01*
X167676746Y-87865320D01*
X167621180Y-87837278D01*
X167550634Y-87800751D01*
X167491547Y-87769089D01*
X167448877Y-87744964D01*
X167427582Y-87731047D01*
X167425422Y-87729040D01*
X167413667Y-87711680D01*
X167406491Y-87683574D01*
X167402908Y-87638548D01*
X167401933Y-87570428D01*
X167402312Y-87539107D01*
X167405236Y-87478596D01*
X167410418Y-87430853D01*
X167417106Y-87404148D01*
X167432841Y-87388332D01*
X167467254Y-87376646D01*
X167503920Y-87378172D01*
X167529314Y-87394119D01*
X167530738Y-87397031D01*
X167537313Y-87425171D01*
X167543632Y-87472207D01*
X167548500Y-87529693D01*
X167555828Y-87646946D01*
X167717052Y-87730641D01*
X167721317Y-87732853D01*
X167783375Y-87764628D01*
X167835641Y-87790653D01*
X167872733Y-87808294D01*
X167889267Y-87814917D01*
X167895795Y-87809305D01*
X167900260Y-87785221D01*
X167906382Y-87745683D01*
X167931226Y-87710735D01*
X167972264Y-87698244D01*
X167989783Y-87699091D01*
X168016301Y-87707231D01*
X168034192Y-87727526D01*
X168045128Y-87764252D01*
X168050782Y-87821680D01*
X168052826Y-87904084D01*
X168054155Y-88064650D01*
X168295990Y-88064669D01*
X168537825Y-88064687D01*
X168530496Y-87610928D01*
X168530150Y-87589547D01*
X168528045Y-87466279D01*
X168526031Y-87368644D01*
X168523862Y-87293453D01*
X168521293Y-87237517D01*
X168518079Y-87197646D01*
X168513973Y-87170652D01*
X168508731Y-87153345D01*
X168502107Y-87142538D01*
X168493855Y-87135040D01*
X168490914Y-87133236D01*
X168480604Y-87129662D01*
X168463483Y-87126521D01*
X168437820Y-87123785D01*
X168401883Y-87121427D01*
X168353941Y-87119419D01*
X168292265Y-87117732D01*
X168215122Y-87116338D01*
X168120783Y-87115209D01*
X168007516Y-87114318D01*
X167873590Y-87113636D01*
X167717274Y-87113136D01*
X167536838Y-87112789D01*
X167330550Y-87112568D01*
X167096680Y-87112444D01*
X165728819Y-87111978D01*
X165685976Y-87154820D01*
X165643133Y-87197663D01*
X165474582Y-87197663D01*
X165474582Y-87131822D01*
X165513921Y-87072377D01*
X165556986Y-87023447D01*
X165617480Y-86981843D01*
X165628436Y-86976693D01*
X165639943Y-86972137D01*
X165653778Y-86968148D01*
X165671740Y-86964689D01*
X165695627Y-86961722D01*
X165727240Y-86959209D01*
X165768377Y-86957112D01*
X165820837Y-86955395D01*
X165886419Y-86954018D01*
X165966923Y-86952945D01*
X166064146Y-86952137D01*
X166179889Y-86951558D01*
X166315949Y-86951168D01*
X166474127Y-86950930D01*
X166656221Y-86950807D01*
X166864031Y-86950761D01*
X167099355Y-86950754D01*
X167245993Y-86950759D01*
X167464553Y-86950799D01*
X167656679Y-86950910D01*
X167824163Y-86951129D01*
X167968795Y-86951491D01*
X168092366Y-86952029D01*
X168196668Y-86952781D01*
X168283490Y-86953780D01*
X168354625Y-86955062D01*
X168411861Y-86956663D01*
X168456991Y-86958617D01*
X168491805Y-86960960D01*
X168518094Y-86963727D01*
X168537649Y-86966952D01*
X168552260Y-86970672D01*
X168563719Y-86974922D01*
X168573816Y-86979736D01*
X168582520Y-86984506D01*
X168628427Y-87018113D01*
X168664836Y-87056683D01*
X168699048Y-87104649D01*
X168701551Y-88064687D01*
X168702918Y-88588818D01*
G37*
G36*
X165232747Y-88603627D02*
G01*
X165232726Y-88713506D01*
X165232481Y-88977568D01*
X165231955Y-89212904D01*
X165231143Y-89419933D01*
X165230043Y-89599078D01*
X165228648Y-89750759D01*
X165226955Y-89875400D01*
X165224960Y-89973420D01*
X165222657Y-90045242D01*
X165220043Y-90091286D01*
X165217114Y-90111976D01*
X165204027Y-90140113D01*
X165153090Y-90202546D01*
X165078852Y-90250116D01*
X165077983Y-90250514D01*
X165066974Y-90254986D01*
X165053609Y-90258931D01*
X165036089Y-90262380D01*
X165012618Y-90265369D01*
X164981399Y-90267930D01*
X164940634Y-90270098D01*
X164888526Y-90271905D01*
X164823279Y-90273386D01*
X164743095Y-90274573D01*
X164646178Y-90275501D01*
X164530729Y-90276203D01*
X164394953Y-90276712D01*
X164237052Y-90277062D01*
X164055228Y-90277287D01*
X163847686Y-90277420D01*
X163612627Y-90277495D01*
X162205028Y-90277817D01*
X162140490Y-90244840D01*
X162083548Y-90208305D01*
X162035628Y-90152383D01*
X162007657Y-90078818D01*
X162007286Y-90076712D01*
X162005331Y-90048466D01*
X162003486Y-89993202D01*
X162001767Y-89912857D01*
X162000192Y-89809367D01*
X161998777Y-89684671D01*
X161997540Y-89540705D01*
X161996498Y-89379407D01*
X161995667Y-89202713D01*
X161995065Y-89012560D01*
X161994710Y-88810887D01*
X161994617Y-88599629D01*
X161994651Y-88438111D01*
X161994734Y-88214946D01*
X161994921Y-88018177D01*
X161995290Y-87846040D01*
X161995915Y-87696774D01*
X161996872Y-87568616D01*
X161998237Y-87459804D01*
X162000086Y-87368575D01*
X162002495Y-87293167D01*
X162005539Y-87231818D01*
X162008903Y-87187867D01*
X162169504Y-87187867D01*
X162169970Y-88611925D01*
X162170030Y-88825149D01*
X162170112Y-89038881D01*
X162170287Y-89226580D01*
X162170634Y-89389985D01*
X162171233Y-89530832D01*
X162172163Y-89650859D01*
X162173505Y-89751802D01*
X162175336Y-89835400D01*
X162177738Y-89903389D01*
X162180791Y-89957507D01*
X162184572Y-89999490D01*
X162189163Y-90031077D01*
X162194642Y-90054004D01*
X162201090Y-90070008D01*
X162208587Y-90080827D01*
X162217210Y-90088197D01*
X162227041Y-90093857D01*
X162238160Y-90099543D01*
X162242619Y-90101012D01*
X162264195Y-90103964D01*
X162302977Y-90106565D01*
X162360177Y-90108828D01*
X162437004Y-90110770D01*
X162534670Y-90112404D01*
X162654384Y-90113746D01*
X162797358Y-90114811D01*
X162964802Y-90115614D01*
X163157927Y-90116168D01*
X163377943Y-90116490D01*
X163626061Y-90116594D01*
X164981949Y-90116594D01*
X165023072Y-90081229D01*
X165064195Y-90045865D01*
X165068251Y-89304426D01*
X165072307Y-88562988D01*
X164750040Y-88562988D01*
X164695010Y-88562956D01*
X164602088Y-88562574D01*
X164532671Y-88561505D01*
X164482855Y-88559434D01*
X164448737Y-88556046D01*
X164426411Y-88551024D01*
X164411976Y-88544053D01*
X164401527Y-88534817D01*
X164399171Y-88531727D01*
X164384627Y-88503458D01*
X164363194Y-88453131D01*
X164336696Y-88385369D01*
X164306957Y-88304796D01*
X164275799Y-88216035D01*
X164267518Y-88191986D01*
X164236961Y-88105626D01*
X164208652Y-88029123D01*
X164184332Y-87966971D01*
X164165744Y-87923662D01*
X164154631Y-87903686D01*
X164152664Y-87901736D01*
X164141451Y-87892118D01*
X164130649Y-87887275D01*
X164119532Y-87888984D01*
X164107374Y-87899024D01*
X164093450Y-87919172D01*
X164077034Y-87951208D01*
X164057400Y-87996908D01*
X164033822Y-88058052D01*
X164005575Y-88136416D01*
X163971933Y-88233781D01*
X163932171Y-88351922D01*
X163885561Y-88492619D01*
X163831380Y-88657650D01*
X163768901Y-88848793D01*
X163741972Y-88931103D01*
X163698273Y-89063373D01*
X163661584Y-89171687D01*
X163630723Y-89258641D01*
X163604513Y-89326831D01*
X163581775Y-89378851D01*
X163561328Y-89417298D01*
X163541995Y-89444767D01*
X163522597Y-89463855D01*
X163501953Y-89477156D01*
X163478886Y-89487266D01*
X163421190Y-89499654D01*
X163349912Y-89495421D01*
X163287666Y-89472221D01*
X163281770Y-89468474D01*
X163250739Y-89442019D01*
X163223174Y-89404154D01*
X163196873Y-89350526D01*
X163169638Y-89276782D01*
X163139268Y-89178567D01*
X163121133Y-89116559D01*
X163080420Y-88978334D01*
X163046561Y-88865034D01*
X163018833Y-88774283D01*
X162996514Y-88703706D01*
X162978883Y-88650928D01*
X162950861Y-88570316D01*
X162664776Y-88566349D01*
X162571257Y-88564870D01*
X162495662Y-88562990D01*
X162441312Y-88560379D01*
X162404039Y-88556604D01*
X162379672Y-88551231D01*
X162364039Y-88543828D01*
X162352972Y-88533962D01*
X162343483Y-88520797D01*
X162334676Y-88480515D01*
X162348865Y-88442105D01*
X162383389Y-88415903D01*
X162384090Y-88415653D01*
X162411448Y-88411266D01*
X162462584Y-88407454D01*
X162532247Y-88404446D01*
X162615187Y-88402473D01*
X162706154Y-88401764D01*
X162762323Y-88401886D01*
X162855991Y-88402969D01*
X162926066Y-88405381D01*
X162976370Y-88409368D01*
X163010719Y-88415182D01*
X163032934Y-88423070D01*
X163038022Y-88425834D01*
X163052430Y-88436003D01*
X163066017Y-88451038D01*
X163079918Y-88473845D01*
X163095269Y-88507333D01*
X163113204Y-88554407D01*
X163134860Y-88617977D01*
X163161372Y-88700950D01*
X163193874Y-88806232D01*
X163233503Y-88936733D01*
X163244432Y-88972818D01*
X163278212Y-89083107D01*
X163305454Y-89169045D01*
X163327391Y-89233605D01*
X163345257Y-89279760D01*
X163360284Y-89310483D01*
X163373706Y-89328747D01*
X163386755Y-89337525D01*
X163400664Y-89339791D01*
X163411764Y-89338368D01*
X163426637Y-89329693D01*
X163441712Y-89310111D01*
X163458626Y-89276185D01*
X163479014Y-89224481D01*
X163504513Y-89151559D01*
X163536760Y-89053986D01*
X163540294Y-89043135D01*
X163608988Y-88832293D01*
X163669284Y-88647464D01*
X163721795Y-88486863D01*
X163767135Y-88348705D01*
X163805918Y-88231205D01*
X163838758Y-88132577D01*
X163866268Y-88051037D01*
X163889063Y-87984800D01*
X163907757Y-87932081D01*
X163922963Y-87891095D01*
X163935296Y-87860056D01*
X163945369Y-87837180D01*
X163953797Y-87820682D01*
X163961193Y-87808777D01*
X163968171Y-87799680D01*
X164018729Y-87751278D01*
X164082788Y-87719930D01*
X164150630Y-87717649D01*
X164222256Y-87744436D01*
X164244590Y-87758759D01*
X164266963Y-87779359D01*
X164287841Y-87808218D01*
X164309251Y-87849288D01*
X164333217Y-87906518D01*
X164361763Y-87983860D01*
X164396915Y-88085265D01*
X164416248Y-88141508D01*
X164441493Y-88213775D01*
X164463914Y-88276736D01*
X164480248Y-88321153D01*
X164508136Y-88394436D01*
X164789830Y-88398417D01*
X165071524Y-88402397D01*
X165071524Y-87807758D01*
X165071520Y-87771109D01*
X165071335Y-87620022D01*
X165070662Y-87495099D01*
X165069213Y-87393752D01*
X165066700Y-87313396D01*
X165062837Y-87251443D01*
X165057334Y-87205308D01*
X165049904Y-87172404D01*
X165040260Y-87150144D01*
X165028113Y-87135943D01*
X165013177Y-87127213D01*
X164995163Y-87121369D01*
X164994320Y-87121204D01*
X164971544Y-87119898D01*
X164921830Y-87118647D01*
X164847289Y-87117465D01*
X164750033Y-87116367D01*
X164632174Y-87115365D01*
X164495825Y-87114474D01*
X164343098Y-87113709D01*
X164176104Y-87113082D01*
X163996956Y-87112609D01*
X163807766Y-87112303D01*
X163610646Y-87112178D01*
X162259693Y-87111978D01*
X162214598Y-87149922D01*
X162169504Y-87187867D01*
X162008903Y-87187867D01*
X162009293Y-87182765D01*
X162013835Y-87144247D01*
X162019239Y-87114499D01*
X162025581Y-87091761D01*
X162032938Y-87074270D01*
X162041384Y-87060264D01*
X162050996Y-87047979D01*
X162061850Y-87035654D01*
X162068303Y-87029157D01*
X162103948Y-87002475D01*
X162147519Y-86978320D01*
X162148386Y-86977925D01*
X162159414Y-86973483D01*
X162172867Y-86969564D01*
X162190535Y-86966136D01*
X162214213Y-86963164D01*
X162245691Y-86960617D01*
X162286764Y-86958460D01*
X162339224Y-86956660D01*
X162404862Y-86955185D01*
X162485473Y-86954001D01*
X162582849Y-86953075D01*
X162698782Y-86952373D01*
X162835065Y-86951863D01*
X162993491Y-86951512D01*
X163175852Y-86951286D01*
X163383941Y-86951152D01*
X163619550Y-86951076D01*
X163834465Y-86951034D01*
X164044336Y-86951030D01*
X164228335Y-86951107D01*
X164388262Y-86951303D01*
X164525918Y-86951654D01*
X164643106Y-86952197D01*
X164741626Y-86952970D01*
X164823280Y-86954009D01*
X164889869Y-86955352D01*
X164943194Y-86957036D01*
X164985058Y-86959097D01*
X165017261Y-86961573D01*
X165041605Y-86964501D01*
X165059891Y-86967919D01*
X165073921Y-86971862D01*
X165085495Y-86976369D01*
X165096417Y-86981476D01*
X165143448Y-87011566D01*
X165196312Y-87074367D01*
X165232747Y-87136538D01*
X165232747Y-88562988D01*
X165232747Y-88603627D01*
G37*
G36*
X168706376Y-85157543D02*
G01*
X168706374Y-85306233D01*
X168706341Y-85520215D01*
X168706240Y-85707862D01*
X168706031Y-85871004D01*
X168705676Y-86011470D01*
X168705135Y-86131089D01*
X168704369Y-86231692D01*
X168703340Y-86315107D01*
X168702009Y-86383164D01*
X168700337Y-86437693D01*
X168698284Y-86480522D01*
X168695813Y-86513481D01*
X168692883Y-86538401D01*
X168689456Y-86557109D01*
X168685494Y-86571437D01*
X168680956Y-86583212D01*
X168675805Y-86594265D01*
X168654564Y-86631246D01*
X168599439Y-86688525D01*
X168523168Y-86727806D01*
X168518107Y-86728977D01*
X168488428Y-86731786D01*
X168434537Y-86734221D01*
X168355866Y-86736289D01*
X168251848Y-86737994D01*
X168121919Y-86739341D01*
X167965510Y-86740336D01*
X167782055Y-86740982D01*
X167570989Y-86741287D01*
X167331744Y-86741254D01*
X167063753Y-86740888D01*
X165648309Y-86738233D01*
X165585799Y-86696862D01*
X165540734Y-86659375D01*
X165494980Y-86591493D01*
X165493641Y-86588425D01*
X165489040Y-86576666D01*
X165485004Y-86562963D01*
X165481502Y-86545491D01*
X165478504Y-86522426D01*
X165475978Y-86491943D01*
X165473895Y-86452217D01*
X165472224Y-86401425D01*
X165470933Y-86337741D01*
X165469992Y-86259340D01*
X165469370Y-86164398D01*
X165469037Y-86051091D01*
X165468962Y-85917594D01*
X165469115Y-85762082D01*
X165469463Y-85582731D01*
X165469977Y-85377716D01*
X165470626Y-85145212D01*
X165470698Y-85118671D01*
X165643133Y-85118671D01*
X165643133Y-85808662D01*
X165643133Y-86498653D01*
X165685976Y-86541495D01*
X165728819Y-86584338D01*
X167074695Y-86583181D01*
X167097392Y-86583160D01*
X167293008Y-86582887D01*
X167480235Y-86582460D01*
X167656982Y-86581892D01*
X167821156Y-86581198D01*
X167970664Y-86580392D01*
X168103415Y-86579488D01*
X168217314Y-86578500D01*
X168310271Y-86577441D01*
X168380192Y-86576327D01*
X168424985Y-86575171D01*
X168442556Y-86573987D01*
X168466449Y-86560406D01*
X168497519Y-86535947D01*
X168530496Y-86505945D01*
X168530496Y-85161710D01*
X168530496Y-85150329D01*
X168530478Y-84922661D01*
X168530400Y-84722409D01*
X168530227Y-84547762D01*
X168529920Y-84396907D01*
X168529444Y-84268032D01*
X168528762Y-84159326D01*
X168527836Y-84068975D01*
X168526630Y-83995169D01*
X168525107Y-83936096D01*
X168523230Y-83889942D01*
X168520963Y-83854897D01*
X168518268Y-83829148D01*
X168515109Y-83810883D01*
X168511449Y-83798291D01*
X168507251Y-83789559D01*
X168502478Y-83782874D01*
X168474460Y-83748273D01*
X167094169Y-83748273D01*
X165713879Y-83748273D01*
X165678506Y-83789396D01*
X165643133Y-83830519D01*
X165643133Y-84393984D01*
X165643133Y-84957448D01*
X166137796Y-84957770D01*
X166147954Y-84957777D01*
X166281088Y-84957996D01*
X166388401Y-84958546D01*
X166473161Y-84959589D01*
X166538635Y-84961289D01*
X166588090Y-84963807D01*
X166624795Y-84967306D01*
X166652018Y-84971950D01*
X166673025Y-84977900D01*
X166691085Y-84985320D01*
X166701909Y-84990613D01*
X166748101Y-85017871D01*
X166784304Y-85045701D01*
X166807109Y-85069561D01*
X166826486Y-85096809D01*
X166841192Y-85129537D01*
X166851956Y-85171718D01*
X166859505Y-85227323D01*
X166864565Y-85300324D01*
X166867865Y-85394693D01*
X166870131Y-85514401D01*
X166870813Y-85556457D01*
X166872788Y-85652351D01*
X166875132Y-85738842D01*
X166877679Y-85810952D01*
X166880264Y-85863705D01*
X166882719Y-85892124D01*
X166892419Y-85924554D01*
X166927382Y-85980352D01*
X166979040Y-86029448D01*
X167039864Y-86063625D01*
X167072002Y-86073351D01*
X167119832Y-86080686D01*
X167183648Y-86083685D01*
X167270023Y-86082898D01*
X167438575Y-86078683D01*
X167442509Y-85737915D01*
X167446443Y-85397148D01*
X167317525Y-85397148D01*
X167277325Y-85396513D01*
X167205478Y-85389934D01*
X167157897Y-85375198D01*
X167131563Y-85351047D01*
X167123457Y-85316221D01*
X167125542Y-85298441D01*
X167140418Y-85275439D01*
X167172858Y-85260713D01*
X167226679Y-85252885D01*
X167305701Y-85250581D01*
X167329513Y-85250465D01*
X167381562Y-85249274D01*
X167417708Y-85247069D01*
X167431247Y-85244191D01*
X167428287Y-85236381D01*
X167414881Y-85205134D01*
X167392164Y-85153569D01*
X167361789Y-85085411D01*
X167325410Y-85004381D01*
X167284680Y-84914201D01*
X167256336Y-84851193D01*
X167218248Y-84765043D01*
X167185704Y-84689673D01*
X167160700Y-84629804D01*
X167313992Y-84629804D01*
X167314002Y-84629861D01*
X167320600Y-84643947D01*
X167337659Y-84678925D01*
X167362660Y-84729663D01*
X167393085Y-84791028D01*
X167422941Y-84851695D01*
X167454088Y-84916295D01*
X167479294Y-84969965D01*
X167494934Y-85005082D01*
X167500269Y-85017676D01*
X167514338Y-85047849D01*
X167522103Y-85059797D01*
X167524711Y-85056010D01*
X167538422Y-85031829D01*
X167561316Y-84989832D01*
X167590591Y-84935313D01*
X167623443Y-84873570D01*
X167657072Y-84809896D01*
X167688673Y-84749589D01*
X167715446Y-84697944D01*
X167734587Y-84660255D01*
X167743294Y-84641820D01*
X167740683Y-84640344D01*
X167715965Y-84637230D01*
X167669299Y-84634377D01*
X167605699Y-84632050D01*
X167530177Y-84630516D01*
X167493980Y-84630070D01*
X167422897Y-84629388D01*
X167365799Y-84629105D01*
X167327794Y-84629238D01*
X167313992Y-84629804D01*
X167160700Y-84629804D01*
X167160383Y-84629045D01*
X167143960Y-84587123D01*
X167138113Y-84567868D01*
X167140715Y-84550316D01*
X167153286Y-84516785D01*
X167162126Y-84504812D01*
X167178083Y-84496206D01*
X167206214Y-84491249D01*
X167252229Y-84488978D01*
X167321837Y-84488435D01*
X167475217Y-84488435D01*
X167475217Y-84249531D01*
X167475664Y-84155198D01*
X167477724Y-84084108D01*
X167482431Y-84034644D01*
X167490825Y-84002927D01*
X167503943Y-83985076D01*
X167522822Y-83977211D01*
X167548500Y-83975452D01*
X167573723Y-83977127D01*
X167592731Y-83984828D01*
X167605956Y-84002435D01*
X167614437Y-84033829D01*
X167619210Y-84082889D01*
X167621313Y-84153497D01*
X167621783Y-84249531D01*
X167621783Y-84488435D01*
X167782727Y-84488435D01*
X167783851Y-84488435D01*
X167848545Y-84488675D01*
X167897307Y-84491378D01*
X167930453Y-84499498D01*
X167948303Y-84515984D01*
X167951174Y-84543788D01*
X167939384Y-84585863D01*
X167914723Y-84641820D01*
X167913251Y-84645161D01*
X167873093Y-84724631D01*
X167819229Y-84827228D01*
X167813627Y-84837866D01*
X167767849Y-84924482D01*
X167724087Y-85006778D01*
X167685236Y-85079344D01*
X167654192Y-85136766D01*
X167633852Y-85173634D01*
X167590319Y-85250581D01*
X167729586Y-85250581D01*
X167788814Y-85251711D01*
X167849872Y-85257857D01*
X167888625Y-85270709D01*
X167908998Y-85291795D01*
X167914916Y-85322640D01*
X167913322Y-85339197D01*
X167898181Y-85366542D01*
X167864296Y-85384431D01*
X167808316Y-85394190D01*
X167726890Y-85397148D01*
X167592470Y-85397148D01*
X167592470Y-85811602D01*
X167592395Y-85891456D01*
X167591882Y-85999344D01*
X167590738Y-86083254D01*
X167588795Y-86146486D01*
X167585883Y-86192340D01*
X167581834Y-86224115D01*
X167576481Y-86245112D01*
X167569654Y-86258630D01*
X167564964Y-86264675D01*
X167528912Y-86287601D01*
X167487135Y-86286766D01*
X167449831Y-86261891D01*
X167441059Y-86252975D01*
X167425547Y-86243808D01*
X167401533Y-86237862D01*
X167363815Y-86234450D01*
X167307191Y-86232890D01*
X167226460Y-86232496D01*
X167215309Y-86232468D01*
X167137091Y-86231019D01*
X167065748Y-86227699D01*
X167008757Y-86222960D01*
X166973596Y-86217253D01*
X166952863Y-86210548D01*
X166874088Y-86167490D01*
X166804530Y-86101952D01*
X166750298Y-86019350D01*
X166706812Y-85932116D01*
X166702028Y-85587685D01*
X166701136Y-85530141D01*
X166699243Y-85434981D01*
X166697048Y-85350781D01*
X166694697Y-85282129D01*
X166692336Y-85233613D01*
X166690107Y-85209821D01*
X166688950Y-85205717D01*
X166669023Y-85175323D01*
X166635729Y-85147585D01*
X166633000Y-85145945D01*
X166618224Y-85138300D01*
X166600452Y-85132236D01*
X166576393Y-85127571D01*
X166542758Y-85124121D01*
X166496257Y-85121706D01*
X166433602Y-85120141D01*
X166351502Y-85119244D01*
X166246668Y-85118834D01*
X166115811Y-85118726D01*
X165643133Y-85118671D01*
X165470698Y-85118671D01*
X165470963Y-85021776D01*
X165471521Y-84798115D01*
X165472048Y-84601102D01*
X165472680Y-84428964D01*
X165473553Y-84279930D01*
X165474803Y-84152230D01*
X165476568Y-84044090D01*
X165478984Y-83953739D01*
X165482186Y-83879406D01*
X165486312Y-83819319D01*
X165491497Y-83771707D01*
X165497879Y-83734798D01*
X165505594Y-83706819D01*
X165514777Y-83686000D01*
X165525566Y-83670570D01*
X165538097Y-83658755D01*
X165552506Y-83648785D01*
X165568929Y-83638889D01*
X165587504Y-83627293D01*
X165648311Y-83587050D01*
X167056426Y-83582811D01*
X167126821Y-83582610D01*
X167326072Y-83582161D01*
X167516949Y-83581904D01*
X167697358Y-83581832D01*
X167865203Y-83581941D01*
X168018392Y-83582222D01*
X168154831Y-83582671D01*
X168272426Y-83583280D01*
X168369083Y-83584044D01*
X168442708Y-83584956D01*
X168491208Y-83586009D01*
X168512489Y-83587198D01*
X168553601Y-83602153D01*
X168607137Y-83638193D01*
X168654730Y-83685807D01*
X168686575Y-83736581D01*
X168687501Y-83739090D01*
X168690841Y-83754146D01*
X168693782Y-83778878D01*
X168696348Y-83814921D01*
X168698561Y-83863914D01*
X168700445Y-83927491D01*
X168702021Y-84007290D01*
X168703313Y-84104946D01*
X168704344Y-84222097D01*
X168705137Y-84360379D01*
X168705713Y-84521428D01*
X168706097Y-84706881D01*
X168706310Y-84918374D01*
X168706374Y-85150329D01*
X168706376Y-85157543D01*
G37*
G36*
X168779204Y-82294159D02*
G01*
X168869177Y-82338059D01*
X168951352Y-82390792D01*
X169015044Y-82446480D01*
X169048343Y-82488076D01*
X169088458Y-82548818D01*
X169121680Y-82609749D01*
X169168061Y-82707650D01*
X169168322Y-82766277D01*
X169175390Y-84356525D01*
X169182718Y-86005400D01*
X170040133Y-86012728D01*
X170175778Y-86014034D01*
X170324701Y-86015822D01*
X170462785Y-86017852D01*
X170587389Y-86020069D01*
X170695877Y-86022414D01*
X170785607Y-86024828D01*
X170853942Y-86027255D01*
X170898242Y-86029636D01*
X170915869Y-86031914D01*
X170926852Y-86045597D01*
X170933589Y-86080279D01*
X170928184Y-86119746D01*
X170911158Y-86150919D01*
X170907168Y-86154009D01*
X170896483Y-86158439D01*
X170878675Y-86162171D01*
X170851526Y-86165263D01*
X170812817Y-86167774D01*
X170760328Y-86169762D01*
X170691840Y-86171284D01*
X170605135Y-86172399D01*
X170497994Y-86173165D01*
X170368196Y-86173641D01*
X170213524Y-86173883D01*
X170031758Y-86173951D01*
X169175390Y-86173951D01*
X169175216Y-88156265D01*
X169175208Y-88293438D01*
X169175201Y-88566625D01*
X169175163Y-88812730D01*
X169175036Y-89033272D01*
X169174764Y-89229772D01*
X169174292Y-89403752D01*
X169173562Y-89556731D01*
X169172519Y-89690231D01*
X169171106Y-89805772D01*
X169169268Y-89904874D01*
X169166948Y-89989059D01*
X169164089Y-90059848D01*
X169160636Y-90118760D01*
X169156532Y-90167316D01*
X169151721Y-90207038D01*
X169146148Y-90239446D01*
X169139754Y-90266060D01*
X169132485Y-90288401D01*
X169124284Y-90307991D01*
X169115096Y-90326349D01*
X169104862Y-90344996D01*
X169093529Y-90365454D01*
X169048946Y-90432579D01*
X168969737Y-90517188D01*
X168874572Y-90591584D01*
X168771064Y-90650034D01*
X168666826Y-90686804D01*
X168666048Y-90686957D01*
X168641921Y-90688581D01*
X168590252Y-90690110D01*
X168512664Y-90691546D01*
X168410782Y-90692888D01*
X168286227Y-90694136D01*
X168140623Y-90695291D01*
X167975592Y-90696352D01*
X167792759Y-90697319D01*
X167593744Y-90698193D01*
X167380173Y-90698974D01*
X167153667Y-90699661D01*
X166915850Y-90700254D01*
X166668345Y-90700754D01*
X166412774Y-90701161D01*
X166150761Y-90701475D01*
X165883929Y-90701696D01*
X165613900Y-90701823D01*
X165342298Y-90701858D01*
X165070746Y-90701799D01*
X164800867Y-90701647D01*
X164534283Y-90701403D01*
X164272618Y-90701065D01*
X164017495Y-90700635D01*
X163770536Y-90700111D01*
X163533365Y-90699495D01*
X163307605Y-90698787D01*
X163094878Y-90697985D01*
X162896808Y-90697091D01*
X162715018Y-90696105D01*
X162551131Y-90695026D01*
X162406769Y-90693854D01*
X162283556Y-90692590D01*
X162183115Y-90691234D01*
X162107068Y-90689785D01*
X162057039Y-90688244D01*
X162034651Y-90686611D01*
X161992676Y-90676028D01*
X161876517Y-90627579D01*
X161769449Y-90555219D01*
X161675634Y-90462795D01*
X161599233Y-90354157D01*
X161544408Y-90233154D01*
X161543912Y-90231677D01*
X161540119Y-90219129D01*
X161536698Y-90204433D01*
X161533624Y-90186080D01*
X161530876Y-90162561D01*
X161528432Y-90132367D01*
X161526268Y-90093988D01*
X161524361Y-90045916D01*
X161522690Y-89986641D01*
X161521231Y-89914653D01*
X161519961Y-89828445D01*
X161518859Y-89726506D01*
X161517901Y-89607327D01*
X161517065Y-89469400D01*
X161516329Y-89311214D01*
X161515668Y-89131262D01*
X161515062Y-88928032D01*
X161514487Y-88700017D01*
X161513920Y-88445707D01*
X161513339Y-88163593D01*
X161509883Y-86442989D01*
X161685834Y-86442989D01*
X161685836Y-86602925D01*
X161685860Y-86979937D01*
X161685917Y-87329148D01*
X161686013Y-87651636D01*
X161686155Y-87948479D01*
X161686350Y-88220755D01*
X161686604Y-88469543D01*
X161686925Y-88695920D01*
X161687319Y-88900964D01*
X161687793Y-89085754D01*
X161688353Y-89251367D01*
X161689007Y-89398882D01*
X161689760Y-89529377D01*
X161690621Y-89643929D01*
X161691594Y-89743618D01*
X161692688Y-89829520D01*
X161693909Y-89902714D01*
X161695264Y-89964279D01*
X161696759Y-90015292D01*
X161698401Y-90056831D01*
X161700197Y-90089974D01*
X161702154Y-90115800D01*
X161704278Y-90135386D01*
X161706576Y-90149811D01*
X161709054Y-90160152D01*
X161739374Y-90239289D01*
X161804245Y-90342127D01*
X161891935Y-90427344D01*
X162000952Y-90493237D01*
X162088892Y-90534309D01*
X165320687Y-90536522D01*
X165390843Y-90536568D01*
X165695509Y-90536706D01*
X165992390Y-90536747D01*
X166280140Y-90536694D01*
X166557414Y-90536549D01*
X166822867Y-90536317D01*
X167075153Y-90536002D01*
X167312926Y-90535606D01*
X167534841Y-90535132D01*
X167739552Y-90534586D01*
X167925715Y-90533970D01*
X168091982Y-90533287D01*
X168237010Y-90532542D01*
X168359452Y-90531737D01*
X168457962Y-90530876D01*
X168531196Y-90529963D01*
X168577808Y-90529001D01*
X168596451Y-90527993D01*
X168707746Y-90486863D01*
X168810736Y-90421470D01*
X168898161Y-90336892D01*
X168963956Y-90237915D01*
X169006838Y-90153236D01*
X169006838Y-86459756D01*
X169006838Y-82766277D01*
X168966082Y-82683300D01*
X168926296Y-82617172D01*
X168847142Y-82531083D01*
X168747343Y-82462786D01*
X168684391Y-82429173D01*
X167584483Y-82425154D01*
X166484575Y-82421135D01*
X166465738Y-82513094D01*
X166421587Y-82667468D01*
X166348456Y-82826257D01*
X166251589Y-82972597D01*
X166133689Y-83102458D01*
X165997458Y-83211805D01*
X165912229Y-83264946D01*
X165773599Y-83331345D01*
X165628904Y-83375027D01*
X165472489Y-83397516D01*
X165298702Y-83400339D01*
X165214117Y-83396517D01*
X165146965Y-83390747D01*
X165090128Y-83381550D01*
X165033988Y-83367359D01*
X164968927Y-83346607D01*
X164819082Y-83284005D01*
X164666453Y-83191037D01*
X164531387Y-83075264D01*
X164415499Y-82938093D01*
X164320403Y-82780933D01*
X164319382Y-82778900D01*
X164291522Y-82716169D01*
X164265022Y-82644416D01*
X164242658Y-82572530D01*
X164227205Y-82509398D01*
X164221437Y-82463911D01*
X164221437Y-82421124D01*
X163125851Y-82425149D01*
X162030266Y-82429173D01*
X161946511Y-82470302D01*
X161929277Y-82479275D01*
X161839880Y-82543820D01*
X161766544Y-82627853D01*
X161715636Y-82724365D01*
X161715082Y-82725849D01*
X161711964Y-82734555D01*
X161709076Y-82744033D01*
X161706410Y-82755382D01*
X161703955Y-82769700D01*
X161701704Y-82788083D01*
X161699647Y-82811631D01*
X161697777Y-82841439D01*
X161696083Y-82878607D01*
X161694557Y-82924232D01*
X161693191Y-82979411D01*
X161691976Y-83045243D01*
X161690902Y-83122824D01*
X161689962Y-83213253D01*
X161689145Y-83317628D01*
X161688444Y-83437046D01*
X161687850Y-83572605D01*
X161687353Y-83725402D01*
X161686946Y-83896535D01*
X161686619Y-84087103D01*
X161686363Y-84298202D01*
X161686170Y-84530930D01*
X161686031Y-84786386D01*
X161685936Y-85065666D01*
X161685878Y-85369869D01*
X161685848Y-85700092D01*
X161685836Y-86057433D01*
X161685834Y-86442989D01*
X161509883Y-86442989D01*
X161509343Y-86173951D01*
X160680583Y-86173951D01*
X160570307Y-86173875D01*
X160380941Y-86173311D01*
X160218460Y-86172204D01*
X160083268Y-86170562D01*
X159975770Y-86168391D01*
X159896369Y-86165699D01*
X159845469Y-86162492D01*
X159823474Y-86158779D01*
X159805217Y-86137721D01*
X159795271Y-86099618D01*
X159797818Y-86059287D01*
X159813857Y-86030084D01*
X159819837Y-86028051D01*
X159852660Y-86024328D01*
X159913478Y-86021063D01*
X160002512Y-86018249D01*
X160119979Y-86015883D01*
X160266099Y-86013960D01*
X160441092Y-86012473D01*
X160645175Y-86011419D01*
X160740485Y-86011007D01*
X160887889Y-86010183D01*
X161025226Y-86009188D01*
X161149745Y-86008056D01*
X161258698Y-86006819D01*
X161349336Y-86005510D01*
X161418907Y-86004162D01*
X161464665Y-86002807D01*
X161483858Y-86001477D01*
X161484312Y-86001349D01*
X161488379Y-85998959D01*
X161491994Y-85993305D01*
X161495182Y-85982761D01*
X161497971Y-85965696D01*
X161500388Y-85940484D01*
X161502461Y-85905496D01*
X161504214Y-85859104D01*
X161505677Y-85799680D01*
X161506875Y-85725595D01*
X161507836Y-85635223D01*
X161508586Y-85526933D01*
X161509152Y-85399100D01*
X161509562Y-85250093D01*
X161509841Y-85078286D01*
X161510018Y-84882050D01*
X161510119Y-84659756D01*
X161510171Y-84409778D01*
X161510200Y-84205835D01*
X161510274Y-83969948D01*
X161510455Y-83760321D01*
X161510812Y-83575240D01*
X161511416Y-83412993D01*
X161512337Y-83271866D01*
X161513645Y-83150146D01*
X161515409Y-83046119D01*
X161517701Y-82958072D01*
X161520589Y-82884293D01*
X161524144Y-82823067D01*
X161528436Y-82772682D01*
X161533536Y-82731424D01*
X161539512Y-82697580D01*
X161546436Y-82669436D01*
X161554377Y-82645280D01*
X161563405Y-82623399D01*
X161573591Y-82602078D01*
X161585004Y-82579605D01*
X161610904Y-82537983D01*
X161662913Y-82474622D01*
X161725988Y-82411997D01*
X161791609Y-82358354D01*
X161851252Y-82321940D01*
X161860458Y-82317656D01*
X161889953Y-82304202D01*
X161917954Y-82292546D01*
X161946662Y-82282559D01*
X161978276Y-82274113D01*
X162014998Y-82267078D01*
X162059028Y-82261325D01*
X162112567Y-82256725D01*
X162175205Y-82253293D01*
X164382660Y-82253293D01*
X164389096Y-82386875D01*
X164411563Y-82515509D01*
X164463935Y-82667052D01*
X164541829Y-82809245D01*
X164641565Y-82934685D01*
X164760810Y-83041298D01*
X164897229Y-83127009D01*
X165048490Y-83189742D01*
X165212257Y-83227424D01*
X165277911Y-83235833D01*
X165341374Y-83239768D01*
X165402231Y-83237128D01*
X165474582Y-83227939D01*
X165627686Y-83193790D01*
X165783637Y-83132603D01*
X165923064Y-83048356D01*
X166044336Y-82942501D01*
X166145819Y-82816487D01*
X166225881Y-82671765D01*
X166282889Y-82509785D01*
X166292997Y-82461406D01*
X166303658Y-82369729D01*
X166308173Y-82266701D01*
X166306510Y-82162318D01*
X166298639Y-82066577D01*
X166284526Y-81989473D01*
X166242328Y-81863323D01*
X166165987Y-81712383D01*
X166066673Y-81578485D01*
X165945687Y-81463647D01*
X165916152Y-81440916D01*
X165789338Y-81361161D01*
X165655182Y-81306125D01*
X165509000Y-81274248D01*
X165346107Y-81263969D01*
X165203337Y-81272064D01*
X165056823Y-81302005D01*
X164922857Y-81355767D01*
X164797029Y-81435179D01*
X164674924Y-81542067D01*
X164567907Y-81663296D01*
X164484543Y-81793429D01*
X164426911Y-81932632D01*
X164393465Y-82084667D01*
X164382660Y-82253293D01*
X162175205Y-82253293D01*
X162177815Y-82253150D01*
X162256973Y-82250470D01*
X162352241Y-82248556D01*
X162465819Y-82247279D01*
X162599909Y-82246511D01*
X162756711Y-82246122D01*
X162938425Y-82245983D01*
X163147251Y-82245965D01*
X164206780Y-82245965D01*
X164206780Y-82164583D01*
X164208107Y-82125886D01*
X164225794Y-82004852D01*
X164261690Y-81875699D01*
X164312762Y-81746520D01*
X164375975Y-81625410D01*
X164448294Y-81520460D01*
X164566020Y-81390677D01*
X164699266Y-81279447D01*
X164843068Y-81194587D01*
X164999510Y-81135109D01*
X165170676Y-81100024D01*
X165358648Y-81088343D01*
X165486560Y-81094424D01*
X165663145Y-81125854D01*
X165827793Y-81184055D01*
X165980509Y-81269031D01*
X166121301Y-81380785D01*
X166250173Y-81519319D01*
X166285830Y-81567409D01*
X166351854Y-81679171D01*
X166408697Y-81805190D01*
X166453248Y-81936954D01*
X166482395Y-82065953D01*
X166493027Y-82183674D01*
X166493220Y-82245965D01*
X167547778Y-82245965D01*
X167669622Y-82246019D01*
X167893486Y-82246454D01*
X168088654Y-82247332D01*
X168255536Y-82248659D01*
X168394541Y-82250440D01*
X168506081Y-82252682D01*
X168590565Y-82255390D01*
X168648403Y-82258570D01*
X168680006Y-82262228D01*
X168692116Y-82264966D01*
X168697292Y-82266701D01*
X168779204Y-82294159D01*
G37*
%TD*%
M02*
