%TF.GenerationSoftware,KiCad,Pcbnew,10.0.0*%
%TF.CreationDate,2026-03-25T21:22:58-04:00*%
%TF.ProjectId,Controller_Circuit,436f6e74-726f-46c6-9c65-725f43697263,rev?*%
%TF.SameCoordinates,Original*%
%TF.FileFunction,Copper,L1,Top*%
%TF.FilePolarity,Positive*%
%FSLAX46Y46*%
G04 Gerber Fmt 4.6, Leading zero omitted, Abs format (unit mm)*
G04 Created by KiCad (PCBNEW 10.0.0) date 2026-03-25 21:22:58*
%MOMM*%
%LPD*%
G01*
G04 APERTURE LIST*
G04 Aperture macros list*
%AMRoundRect*
0 Rectangle with rounded corners*
0 $1 Rounding radius*
0 $2 $3 $4 $5 $6 $7 $8 $9 X,Y pos of 4 corners*
0 Add a 4 corners polygon primitive as box body*
4,1,4,$2,$3,$4,$5,$6,$7,$8,$9,$2,$3,0*
0 Add four circle primitives for the rounded corners*
1,1,$1+$1,$2,$3*
1,1,$1+$1,$4,$5*
1,1,$1+$1,$6,$7*
1,1,$1+$1,$8,$9*
0 Add four rect primitives between the rounded corners*
20,1,$1+$1,$2,$3,$4,$5,0*
20,1,$1+$1,$4,$5,$6,$7,0*
20,1,$1+$1,$6,$7,$8,$9,0*
20,1,$1+$1,$8,$9,$2,$3,0*%
G04 Aperture macros list end*
%TA.AperFunction,SMDPad,CuDef*%
%ADD10RoundRect,0.250000X0.400000X0.625000X-0.400000X0.625000X-0.400000X-0.625000X0.400000X-0.625000X0*%
%TD*%
%TA.AperFunction,SMDPad,CuDef*%
%ADD11RoundRect,0.250000X0.337500X0.475000X-0.337500X0.475000X-0.337500X-0.475000X0.337500X-0.475000X0*%
%TD*%
%TA.AperFunction,SMDPad,CuDef*%
%ADD12RoundRect,0.250000X-0.475000X0.337500X-0.475000X-0.337500X0.475000X-0.337500X0.475000X0.337500X0*%
%TD*%
%TA.AperFunction,SMDPad,CuDef*%
%ADD13RoundRect,0.250000X-0.625000X0.400000X-0.625000X-0.400000X0.625000X-0.400000X0.625000X0.400000X0*%
%TD*%
%TA.AperFunction,SMDPad,CuDef*%
%ADD14RoundRect,0.250000X-0.650000X0.412500X-0.650000X-0.412500X0.650000X-0.412500X0.650000X0.412500X0*%
%TD*%
%TA.AperFunction,SMDPad,CuDef*%
%ADD15RoundRect,0.250000X0.475000X-0.337500X0.475000X0.337500X-0.475000X0.337500X-0.475000X-0.337500X0*%
%TD*%
%TA.AperFunction,SMDPad,CuDef*%
%ADD16RoundRect,0.250000X-0.400000X-0.625000X0.400000X-0.625000X0.400000X0.625000X-0.400000X0.625000X0*%
%TD*%
%TA.AperFunction,SMDPad,CuDef*%
%ADD17RoundRect,0.155000X0.155000X-0.212500X0.155000X0.212500X-0.155000X0.212500X-0.155000X-0.212500X0*%
%TD*%
%TA.AperFunction,SMDPad,CuDef*%
%ADD18RoundRect,0.250000X-0.337500X-0.475000X0.337500X-0.475000X0.337500X0.475000X-0.337500X0.475000X0*%
%TD*%
%TA.AperFunction,SMDPad,CuDef*%
%ADD19RoundRect,0.155000X-0.155000X0.212500X-0.155000X-0.212500X0.155000X-0.212500X0.155000X0.212500X0*%
%TD*%
%TA.AperFunction,SMDPad,CuDef*%
%ADD20RoundRect,0.250000X0.625000X-0.400000X0.625000X0.400000X-0.625000X0.400000X-0.625000X-0.400000X0*%
%TD*%
%TA.AperFunction,ComponentPad*%
%ADD21R,1.900000X1.900000*%
%TD*%
%TA.AperFunction,SMDPad,CuDef*%
%ADD22R,1.600000X2.100000*%
%TD*%
%TA.AperFunction,SMDPad,CuDef*%
%ADD23R,1.300000X1.050000*%
%TD*%
%TA.AperFunction,SMDPad,CuDef*%
%ADD24R,0.850000X0.300000*%
%TD*%
%TA.AperFunction,SMDPad,CuDef*%
%ADD25R,0.300000X0.850000*%
%TD*%
%TA.AperFunction,SMDPad,CuDef*%
%ADD26R,2.550000X2.550000*%
%TD*%
%TA.AperFunction,WasherPad*%
%ADD27O,0.812800X1.498600*%
%TD*%
%TA.AperFunction,WasherPad*%
%ADD28O,0.812800X1.905000*%
%TD*%
%TA.AperFunction,SMDPad,CuDef*%
%ADD29R,1.549400X0.508000*%
%TD*%
%TA.AperFunction,ComponentPad*%
%ADD30R,1.520000X1.520000*%
%TD*%
%TA.AperFunction,ComponentPad*%
%ADD31C,1.520000*%
%TD*%
%TA.AperFunction,ComponentPad*%
%ADD32C,1.150000*%
%TD*%
%TA.AperFunction,ComponentPad*%
%ADD33C,2.560000*%
%TD*%
%TA.AperFunction,ComponentPad*%
%ADD34R,1.170000X1.170000*%
%TD*%
%TA.AperFunction,ComponentPad*%
%ADD35C,1.170000*%
%TD*%
%TA.AperFunction,SMDPad,CuDef*%
%ADD36R,0.300000X1.475000*%
%TD*%
%TA.AperFunction,SMDPad,CuDef*%
%ADD37R,1.475000X0.300000*%
%TD*%
%TA.AperFunction,ViaPad*%
%ADD38C,0.600000*%
%TD*%
%TA.AperFunction,Conductor*%
%ADD39C,0.150000*%
%TD*%
%TA.AperFunction,Conductor*%
%ADD40C,0.200000*%
%TD*%
%TA.AperFunction,Conductor*%
%ADD41C,0.140000*%
%TD*%
%TA.AperFunction,Conductor*%
%ADD42C,0.500000*%
%TD*%
G04 APERTURE END LIST*
D10*
%TO.P,R43,1*%
%TO.N,/Controller/TCK*%
X115750000Y-108877428D03*
%TO.P,R43,2*%
%TO.N,LOGIC_GND*%
X112650000Y-108877428D03*
%TD*%
D11*
%TO.P,C61,1*%
%TO.N,+3V3*%
X137187500Y-100650000D03*
%TO.P,C61,2*%
%TO.N,LOGIC_GND*%
X135112500Y-100650000D03*
%TD*%
D12*
%TO.P,C59,1*%
%TO.N,+3V3*%
X126800000Y-88777428D03*
%TO.P,C59,2*%
%TO.N,LOGIC_GND*%
X126800000Y-90852428D03*
%TD*%
D10*
%TO.P,R34,1*%
%TO.N,+3V3*%
X136500000Y-92877428D03*
%TO.P,R34,2*%
%TO.N,/Con_SCIRXDA*%
X133400000Y-92877428D03*
%TD*%
D12*
%TO.P,C60,1*%
%TO.N,+3V3*%
X124800000Y-88777428D03*
%TO.P,C60,2*%
%TO.N,LOGIC_GND*%
X124800000Y-90852428D03*
%TD*%
D13*
%TO.P,R35,1*%
%TO.N,/Con_Pro_Gate_node_output*%
X90484409Y-104615591D03*
%TO.P,R35,2*%
%TO.N,Net-(Q6-A)*%
X90484409Y-107715591D03*
%TD*%
%TO.P,R49,1*%
%TO.N,LOGIC_GND*%
X138500000Y-79600000D03*
%TO.P,R49,2*%
%TO.N,Net-(J28-GND)*%
X138500000Y-82700000D03*
%TD*%
%TO.P,R37,1*%
%TO.N,+3V3*%
X129000000Y-87677428D03*
%TO.P,R37,2*%
%TO.N,/Controller/XRSn*%
X129000000Y-90777428D03*
%TD*%
%TO.P,R48,1*%
%TO.N,+3V3*%
X132050000Y-79627428D03*
%TO.P,R48,2*%
%TO.N,Net-(IC2-RSTB)*%
X132050000Y-82727428D03*
%TD*%
D14*
%TO.P,C69,1*%
%TO.N,/USB_Console/USB_VBUS*%
X138500000Y-91637500D03*
%TO.P,C69,2*%
%TO.N,LOGIC_GND*%
X138500000Y-94762500D03*
%TD*%
D13*
%TO.P,R38,1*%
%TO.N,+3V3*%
X138050000Y-107227428D03*
%TO.P,R38,2*%
%TO.N,Net-(Q7-A)*%
X138050000Y-110327428D03*
%TD*%
D15*
%TO.P,C68,1*%
%TO.N,+3V3*%
X134250000Y-82784928D03*
%TO.P,C68,2*%
%TO.N,LOGIC_GND*%
X134250000Y-80709928D03*
%TD*%
D16*
%TO.P,R39,1*%
%TO.N,+3V3*%
X112650000Y-106577428D03*
%TO.P,R39,2*%
%TO.N,/Controller/TMS*%
X115750000Y-106577428D03*
%TD*%
%TO.P,R42,1*%
%TO.N,+3V3*%
X112650000Y-104277428D03*
%TO.P,R42,2*%
%TO.N,/Controller/Con_Gate_node_input*%
X115750000Y-104277428D03*
%TD*%
D17*
%TO.P,C65,1*%
%TO.N,Net-(Y1-GND_2)*%
X125000000Y-112357428D03*
%TO.P,C65,2*%
%TO.N,LOGIC_GND*%
X125000000Y-111222428D03*
%TD*%
D13*
%TO.P,R40,1*%
%TO.N,/Controller/Flash_Boot_PD*%
X115600000Y-112065591D03*
%TO.P,R40,2*%
%TO.N,LOGIC_GND*%
X115600000Y-115165591D03*
%TD*%
D18*
%TO.P,C55,1*%
%TO.N,+3V3*%
X113732500Y-97727428D03*
%TO.P,C55,2*%
%TO.N,LOGIC_GND*%
X115807500Y-97727428D03*
%TD*%
D11*
%TO.P,C62,1*%
%TO.N,+3V3*%
X137187500Y-98650000D03*
%TO.P,C62,2*%
%TO.N,LOGIC_GND*%
X135112500Y-98650000D03*
%TD*%
D18*
%TO.P,C63,1*%
%TO.N,+3V3*%
X113732500Y-95727428D03*
%TO.P,C63,2*%
%TO.N,LOGIC_GND*%
X115807500Y-95727428D03*
%TD*%
D15*
%TO.P,C57,1*%
%TO.N,+3V3*%
X126900000Y-111952428D03*
%TO.P,C57,2*%
%TO.N,LOGIC_GND*%
X126900000Y-109877428D03*
%TD*%
D19*
%TO.P,C64,1*%
%TO.N,Net-(Y1-GND_1)*%
X118000000Y-111272428D03*
%TO.P,C64,2*%
%TO.N,LOGIC_GND*%
X118000000Y-112407428D03*
%TD*%
D20*
%TO.P,R36,1*%
%TO.N,+3V3*%
X111000000Y-115165591D03*
%TO.P,R36,2*%
%TO.N,/Controller/Flash_Boot_PU*%
X111000000Y-112065591D03*
%TD*%
D15*
%TO.P,C58,1*%
%TO.N,+3V3*%
X128900000Y-111952428D03*
%TO.P,C58,2*%
%TO.N,LOGIC_GND*%
X128900000Y-109877428D03*
%TD*%
D20*
%TO.P,R41,1*%
%TO.N,+3V3*%
X113300000Y-115165591D03*
%TO.P,R41,2*%
%TO.N,/Controller/TDI*%
X113300000Y-112065591D03*
%TD*%
D18*
%TO.P,C56,1*%
%TO.N,+3V3*%
X113732500Y-101727428D03*
%TO.P,C56,2*%
%TO.N,LOGIC_GND*%
X115807500Y-101727428D03*
%TD*%
D15*
%TO.P,C67,1*%
%TO.N,+3V3*%
X136300000Y-82784928D03*
%TO.P,C67,2*%
%TO.N,LOGIC_GND*%
X136300000Y-80709928D03*
%TD*%
D18*
%TO.P,C54,1*%
%TO.N,+3V3*%
X113732500Y-99727428D03*
%TO.P,C54,2*%
%TO.N,LOGIC_GND*%
X115807500Y-99727428D03*
%TD*%
D21*
%TO.P,TP49,1,1_1*%
%TO.N,/Con_FLT_A_L*%
X159782000Y-95977428D03*
%TD*%
D22*
%TO.P,Q7,1,A_1*%
%TO.N,Net-(Q7-A)*%
X135120000Y-109627428D03*
%TO.P,Q7,2,K_2*%
%TO.N,/Controller/Con_Gate_node_prech*%
X132580000Y-109627428D03*
%TO.P,Q7,3,E_3*%
%TO.N,GND*%
X132580000Y-118727428D03*
%TO.P,Q7,4,C_4*%
%TO.N,/Con_Gate_node_prech*%
X135120000Y-118727428D03*
%TD*%
D23*
%TO.P,Y1,1,X1_1*%
%TO.N,/Controller/X1*%
X122700000Y-111089928D03*
%TO.P,Y1,2,GND_1_2*%
%TO.N,Net-(Y1-GND_1)*%
X120400000Y-111089928D03*
%TO.P,Y1,3,X2_3*%
%TO.N,/Controller/X2*%
X120400000Y-112939928D03*
%TO.P,Y1,4,GND_2_4*%
%TO.N,Net-(Y1-GND_2)*%
X122700000Y-112939928D03*
%TD*%
D21*
%TO.P,TP61,1,1_1*%
%TO.N,/Con_FLT_B_L*%
X159910000Y-109077428D03*
%TD*%
D22*
%TO.P,Q6,1,A_1*%
%TO.N,Net-(Q6-A)*%
X93214409Y-110665591D03*
%TO.P,Q6,2,K_2*%
%TO.N,GND*%
X95754409Y-110665591D03*
%TO.P,Q6,3,E_3*%
%TO.N,/Controller/Con_Gate_node_input*%
X95754409Y-101565591D03*
%TO.P,Q6,4,C_4*%
%TO.N,LOGIC_GND*%
X93214409Y-101565591D03*
%TD*%
D21*
%TO.P,TP39,1,1_1*%
%TO.N,LOGIC_GND*%
X115250000Y-83777428D03*
%TD*%
%TO.P,TP57,1,1_1*%
%TO.N,/Con_FLT_B_H*%
X166290000Y-109077428D03*
%TD*%
%TO.P,TP50,1,1_1*%
%TO.N,/Con_RDY_A_L*%
X147070000Y-95977428D03*
%TD*%
%TO.P,TP40,1,1_1*%
%TO.N,/Con_Pro_Gate_node_output*%
X104950000Y-95277428D03*
%TD*%
%TO.P,TP62,1,1_1*%
%TO.N,/Con_RDY_B_H*%
X147184409Y-109115591D03*
%TD*%
%TO.P,TP48,1,1_1*%
%TO.N,/Con_EN_A_L*%
X172494000Y-95977428D03*
%TD*%
%TO.P,TP65,1,1_1*%
%TO.N,/Controller/Con_Gate_node_input*%
X102934409Y-102565591D03*
%TD*%
%TO.P,TP45,1,1_1*%
%TO.N,/Con_RDY_A_H*%
X153426000Y-95977428D03*
%TD*%
D24*
%TO.P,IC2,1,RI_/_CLK_1*%
%TO.N,unconnected-(IC2-RI_{slash}_CLK-Pad1)*%
X135450000Y-88327428D03*
%TO.P,IC2,2,GND_2*%
%TO.N,LOGIC_GND*%
X135450000Y-87827428D03*
%TO.P,IC2,3,D+_3*%
%TO.N,/USB_Console/USB_D+*%
X135450000Y-87327428D03*
%TO.P,IC2,4,D-_4*%
%TO.N,/USB_Console/USB_D-*%
X135450000Y-86827428D03*
%TO.P,IC2,5,VIO_5*%
%TO.N,+3V3*%
X135450000Y-86327428D03*
%TO.P,IC2,6,VDD_6*%
X135450000Y-85827428D03*
D25*
%TO.P,IC2,7,VREGIN_7*%
%TO.N,unconnected-(IC2-VREGIN-Pad7)*%
X134750000Y-85127428D03*
%TO.P,IC2,8,VBUS_8*%
%TO.N,/USB_Console/USB_VBUS*%
X134250000Y-85127428D03*
%TO.P,IC2,9,RSTB_9*%
%TO.N,Net-(IC2-RSTB)*%
X133750000Y-85127428D03*
%TO.P,IC2,10,NC_1_10*%
%TO.N,unconnected-(IC2-NC_1-Pad10)*%
X133250000Y-85127428D03*
%TO.P,IC2,11,GPIO.3_/_WAKEUP_11*%
%TO.N,unconnected-(IC2-GPIO.3_{slash}_WAKEUP-Pad11)*%
X132750000Y-85127428D03*
%TO.P,IC2,12,GPIO.2_/_RS485_12*%
%TO.N,unconnected-(IC2-GPIO.2_{slash}_RS485-Pad12)*%
X132250000Y-85127428D03*
D24*
%TO.P,IC2,13,GPIO.1_/_RXT_13*%
%TO.N,unconnected-(IC2-GPIO.1_{slash}_RXT-Pad13)*%
X131550000Y-85827428D03*
%TO.P,IC2,14,GPIO.0_/_TXT_14*%
%TO.N,unconnected-(IC2-GPIO.0_{slash}_TXT-Pad14)*%
X131550000Y-86327428D03*
%TO.P,IC2,15,SUSPENDB_15*%
%TO.N,unconnected-(IC2-SUSPENDB-Pad15)*%
X131550000Y-86827428D03*
%TO.P,IC2,16,NC_2_16*%
%TO.N,unconnected-(IC2-NC_2-Pad16)*%
X131550000Y-87327428D03*
%TO.P,IC2,17,SUSPEND_17*%
%TO.N,unconnected-(IC2-SUSPEND-Pad17)*%
X131550000Y-87827428D03*
%TO.P,IC2,18,CTS_18*%
%TO.N,unconnected-(IC2-CTS-Pad18)*%
X131550000Y-88327428D03*
D25*
%TO.P,IC2,19,RTS_19*%
%TO.N,unconnected-(IC2-RTS-Pad19)*%
X132250000Y-89027428D03*
%TO.P,IC2,20,RXD_20*%
%TO.N,/Con_SCITXDA*%
X132750000Y-89027428D03*
%TO.P,IC2,21,TXD_21*%
%TO.N,/Con_SCIRXDA*%
X133250000Y-89027428D03*
%TO.P,IC2,22,DSR_22*%
%TO.N,unconnected-(IC2-DSR-Pad22)*%
X133750000Y-89027428D03*
%TO.P,IC2,23,DTR_23*%
%TO.N,unconnected-(IC2-DTR-Pad23)*%
X134250000Y-89027428D03*
%TO.P,IC2,24,DCD_24*%
%TO.N,unconnected-(IC2-DCD-Pad24)*%
X134750000Y-89027428D03*
D26*
%TO.P,IC2,25,EPAD_25*%
%TO.N,LOGIC_GND*%
X133500000Y-87077428D03*
%TD*%
D21*
%TO.P,TP42,1,1_1*%
%TO.N,/Con_PWM_A_L*%
X189434409Y-99115591D03*
%TD*%
D27*
%TO.P,J28,*%
%TO.N,*%
X140747101Y-88649999D03*
D28*
X142897101Y-85850000D03*
D27*
X140747101Y-83050001D03*
D29*
%TO.P,J28,1,VBUS_1*%
%TO.N,/USB_Console/USB_VBUS*%
X140997101Y-87150000D03*
%TO.P,J28,2,D-_2*%
%TO.N,/USB_Console/USB_D-*%
X140997101Y-86499999D03*
%TO.P,J28,3,D+_3*%
%TO.N,/USB_Console/USB_D+*%
X140997101Y-85850000D03*
%TO.P,J28,4,ID_4*%
%TO.N,unconnected-(J28-ID-Pad4)*%
X140997101Y-85200001D03*
%TO.P,J28,5,GND_5*%
%TO.N,Net-(J28-GND)*%
X140997101Y-84550000D03*
%TD*%
D21*
%TO.P,TP66,1,1_1*%
%TO.N,/Controller/X1*%
X128050000Y-122627428D03*
%TD*%
%TO.P,TP44,1,1_1*%
%TO.N,/Con_FLT_A_H*%
X166138000Y-95977428D03*
%TD*%
%TO.P,TP58,1,1_1*%
%TO.N,/Con_RDY_B_L*%
X153634409Y-109065591D03*
%TD*%
%TO.P,TP64,1,1_1*%
%TO.N,/Controller/X2*%
X122975000Y-122627428D03*
%TD*%
%TO.P,TP51,1,1_1*%
%TO.N,/Controller/TMS*%
X93914409Y-120585591D03*
%TD*%
%TO.P,TP76,1,1_1*%
%TO.N,LOGIC_GND*%
X189400000Y-85894094D03*
%TD*%
D30*
%TO.P,J20,1,1_1*%
%TO.N,/Con_RDY_A_L*%
X148500000Y-126877428D03*
D31*
%TO.P,J20,2,2_2*%
%TO.N,/Con_RDY_A_H*%
X151500000Y-126877428D03*
%TO.P,J20,3,3_3*%
%TO.N,/Con_FLT_A_L*%
X154500000Y-126877428D03*
%TO.P,J20,4,4_4*%
%TO.N,/Con_FLT_A_H*%
X157500000Y-126877428D03*
%TO.P,J20,5,5_5*%
%TO.N,/Con_EN_A_L*%
X160500000Y-126877428D03*
%TO.P,J20,6,6_6*%
%TO.N,/Con_EN_A_H*%
X163500000Y-126877428D03*
%TO.P,J20,7,7_7*%
%TO.N,/Con_RDY_B_H*%
X148500000Y-129877428D03*
%TO.P,J20,8,8_8*%
%TO.N,/Con_RDY_B_L*%
X151500000Y-129877428D03*
%TO.P,J20,9,9_9*%
%TO.N,/Con_FLT_B_L*%
X154500000Y-129877428D03*
%TO.P,J20,10,10_10*%
%TO.N,/Con_FLT_B_H*%
X157500000Y-129877428D03*
%TO.P,J20,11,11_11*%
%TO.N,/Con_EN_B_L*%
X160500000Y-129877428D03*
%TO.P,J20,12,12_12*%
%TO.N,/Con_EN_B_H*%
X163500000Y-129877428D03*
%TD*%
D21*
%TO.P,TP41,1,1_1*%
%TO.N,/Con_PWM_B_L*%
X189400000Y-112860761D03*
%TD*%
D32*
%TO.P,J19,1,1_1*%
%TO.N,+3V3*%
X98075350Y-132362428D03*
%TO.P,J19,2,2_2*%
%TO.N,/Controller/TMS*%
X98075350Y-131092428D03*
%TO.P,J19,3,3_3*%
%TO.N,LOGIC_GND*%
X99345350Y-132362428D03*
%TO.P,J19,4,4_4*%
%TO.N,/Controller/TCK*%
X99345350Y-131092428D03*
%TO.P,J19,5,5_5*%
%TO.N,LOGIC_GND*%
X100615350Y-132362428D03*
%TO.P,J19,6,6_6*%
%TO.N,/Controller/TDO*%
X100615350Y-131092428D03*
%TO.P,J19,7,7_7*%
%TO.N,unconnected-(J19-Pad7)*%
X101885350Y-132362428D03*
%TO.P,J19,8,8_8*%
%TO.N,/Controller/TDI*%
X101885350Y-131092428D03*
%TO.P,J19,9,9_9*%
%TO.N,LOGIC_GND*%
X103155350Y-132362428D03*
%TO.P,J19,10,10_10*%
%TO.N,/Controller/XRSn*%
X103155350Y-131092428D03*
%TD*%
D21*
%TO.P,TP52,1,1_1*%
%TO.N,/Controller/TDO*%
X104434409Y-116085591D03*
%TD*%
D33*
%TO.P,J21,*%
%TO.N,*%
X186650000Y-129377428D03*
X173350000Y-129377428D03*
D34*
%TO.P,J21,1,1_1*%
%TO.N,/Con_PWM_A_H*%
X175500000Y-129377428D03*
D35*
%TO.P,J21,2,2_2*%
%TO.N,/Con_PWM_A_L*%
X178500000Y-129377428D03*
%TO.P,J21,3,3_3*%
%TO.N,/Con_PWM_B_H*%
X181500000Y-129377428D03*
%TO.P,J21,4,4_4*%
%TO.N,/Con_PWM_B_L*%
X184500000Y-129377428D03*
%TD*%
D36*
%TO.P,IC1,1,GPIO29_1*%
%TO.N,/Con_SCIRXDA*%
X129100000Y-94689428D03*
%TO.P,IC1,2,GPIO28_2*%
%TO.N,/Con_SCITXDA*%
X128600000Y-94689428D03*
%TO.P,IC1,3,XRSN_3*%
%TO.N,/Controller/XRSn*%
X128100000Y-94689428D03*
%TO.P,IC1,4,VDD_1_4*%
%TO.N,+3V3*%
X127600000Y-94689428D03*
%TO.P,IC1,5,VSS_1_5*%
%TO.N,LOGIC_GND*%
X127100000Y-94689428D03*
%TO.P,IC1,6,A6PGA5_OF_6*%
%TO.N,unconnected-(IC1-A6PGA5_OF-Pad6)*%
X126600000Y-94689428D03*
%TO.P,IC1,7,B2C6PGA3_OF_7*%
%TO.N,/Controller/I_OUT_B_Sense*%
X126100000Y-94689428D03*
%TO.P,IC1,8,B3VDAC_8*%
%TO.N,unconnected-(IC1-B3VDAC-Pad8)*%
X125600000Y-94689428D03*
%TO.P,IC1,9,A2B6PGA1_OF_9*%
%TO.N,unconnected-(IC1-A2B6PGA1_OF-Pad9)*%
X125100000Y-94689428D03*
%TO.P,IC1,10,PGA1_GNDPGA3_GNDPGA5_GND_10*%
%TO.N,LOGIC_GND*%
X124600000Y-94689428D03*
%TO.P,IC1,11,C4PGA5_IN_11*%
%TO.N,unconnected-(IC1-C4PGA5_IN-Pad11)*%
X124100000Y-94689428D03*
%TO.P,IC1,12,C0PGA1_IN_12*%
%TO.N,unconnected-(IC1-C0PGA1_IN-Pad12)*%
X123600000Y-94689428D03*
%TO.P,IC1,13,C2PGA3_IN_13*%
%TO.N,unconnected-(IC1-C2PGA3_IN-Pad13)*%
X123100000Y-94689428D03*
%TO.P,IC1,14,A1DACB_OUT_14*%
%TO.N,/Controller/VOUT_Sense*%
X122600000Y-94689428D03*
%TO.P,IC1,15,A0B15C15DACA_OUT_15*%
%TO.N,/Controller/DCBUS_Sense*%
X122100000Y-94689428D03*
%TO.P,IC1,16,VREFHIAVREFHIBVREFHIC_16*%
%TO.N,+3V3*%
X121600000Y-94689428D03*
D37*
%TO.P,IC1,17,VREFLOAVREFLOBVREFLOC_17*%
%TO.N,LOGIC_GND*%
X119612000Y-96677428D03*
%TO.P,IC1,18,C1PGA2_IN_18*%
%TO.N,unconnected-(IC1-C1PGA2_IN-Pad18)*%
X119612000Y-97177428D03*
%TO.P,IC1,19,C3PGA4_IN_19*%
%TO.N,unconnected-(IC1-C3PGA4_IN-Pad19)*%
X119612000Y-97677428D03*
%TO.P,IC1,20,PGA2_GNDPGA4_GNDPGA6_GND_20*%
%TO.N,LOGIC_GND*%
X119612000Y-98177428D03*
%TO.P,IC1,21,VSSA_21*%
X119612000Y-98677428D03*
%TO.P,IC1,22,VDDA_22*%
%TO.N,+3V3*%
X119612000Y-99177428D03*
%TO.P,IC1,23,A4B8PGA2_OF_23*%
%TO.N,unconnected-(IC1-A4B8PGA2_OF-Pad23)*%
X119612000Y-99677428D03*
%TO.P,IC1,24,B4C8PGA4_OF_24*%
%TO.N,unconnected-(IC1-B4C8PGA4_OF-Pad24)*%
X119612000Y-100177428D03*
%TO.P,IC1,25,A10B1C10PGA7_OF_25*%
%TO.N,/Controller/I_OUT_A_Sense*%
X119612000Y-100677428D03*
%TO.P,IC1,26,VSS_2_26*%
%TO.N,LOGIC_GND*%
X119612000Y-101177428D03*
%TO.P,IC1,27,VDD_2_27*%
%TO.N,+3V3*%
X119612000Y-101677428D03*
%TO.P,IC1,28,VDDIO_1_28*%
X119612000Y-102177428D03*
%TO.P,IC1,29,GPIO13_29*%
%TO.N,/Con_RDY_A_L*%
X119612000Y-102677428D03*
%TO.P,IC1,30,GPIO12_30*%
%TO.N,/Con_RDY_A_H*%
X119612000Y-103177428D03*
%TO.P,IC1,31,GPIO11_31*%
%TO.N,/Con_FLT_B_L*%
X119612000Y-103677428D03*
%TO.P,IC1,32,GPIO33_32*%
%TO.N,/Controller/Con_Gate_node_input*%
X119612000Y-104177428D03*
D36*
%TO.P,IC1,33,GPIO16_33*%
%TO.N,/Con_RDY_B_L*%
X121600000Y-106165428D03*
%TO.P,IC1,34,GPIO17_34*%
%TO.N,/Con_RDY_B_H*%
X122100000Y-106165428D03*
%TO.P,IC1,35,GPIO24_35*%
%TO.N,/Controller/Flash_Boot_PU*%
X122600000Y-106165428D03*
%TO.P,IC1,36,TCK_36*%
%TO.N,/Controller/TCK*%
X123100000Y-106165428D03*
%TO.P,IC1,37,GPIO37/TDO_37*%
%TO.N,/Controller/TDO*%
X123600000Y-106165428D03*
%TO.P,IC1,38,TMS_38*%
%TO.N,/Controller/TMS*%
X124100000Y-106165428D03*
%TO.P,IC1,39,GPIO35/TDI_39*%
%TO.N,/Controller/TDI*%
X124600000Y-106165428D03*
%TO.P,IC1,40,GPIO32_40*%
%TO.N,/Controller/Flash_Boot_PD*%
X125100000Y-106165428D03*
%TO.P,IC1,41,GPIO18_X2_41*%
%TO.N,/Controller/X2*%
X125600000Y-106165428D03*
%TO.P,IC1,42,X1_42*%
%TO.N,/Controller/X1*%
X126100000Y-106165428D03*
%TO.P,IC1,43,VDDIO_2_43*%
%TO.N,+3V3*%
X126600000Y-106165428D03*
%TO.P,IC1,44,VDD_3_44*%
X127100000Y-106165428D03*
%TO.P,IC1,45,VSS_3_45*%
%TO.N,LOGIC_GND*%
X127600000Y-106165428D03*
%TO.P,IC1,46,VREGENZ_46*%
X128100000Y-106165428D03*
%TO.P,IC1,47,GPIO8_47*%
%TO.N,/Con_FLT_A_H*%
X128600000Y-106165428D03*
%TO.P,IC1,48,GPIO4_48*%
%TO.N,/Con_EN_A_H*%
X129100000Y-106165428D03*
D37*
%TO.P,IC1,49,GPIO3_49*%
%TO.N,/Con_PWM_B_L*%
X131088000Y-104177428D03*
%TO.P,IC1,50,GPIO2_50*%
%TO.N,/Con_PWM_B_H*%
X131088000Y-103677428D03*
%TO.P,IC1,51,GPIO1_51*%
%TO.N,/Con_PWM_A_L*%
X131088000Y-103177428D03*
%TO.P,IC1,52,GPIO0_52*%
%TO.N,/Con_PWM_A_H*%
X131088000Y-102677428D03*
%TO.P,IC1,53,VDDIO_SW_53*%
%TO.N,+3V3*%
X131088000Y-102177428D03*
%TO.P,IC1,54,GPIO23_VSW_54*%
%TO.N,/Controller/Con_Gate_node_prech*%
X131088000Y-101677428D03*
%TO.P,IC1,55,VSS_SW_55*%
%TO.N,LOGIC_GND*%
X131088000Y-101177428D03*
%TO.P,IC1,56,GPIO22_VFBSW_56*%
%TO.N,unconnected-(IC1-GPIO22_VFBSW-Pad56)*%
X131088000Y-100677428D03*
%TO.P,IC1,57,GPIO7_57*%
%TO.N,/Con_EN_B_L*%
X131088000Y-100177428D03*
%TO.P,IC1,58,VSS_4_58*%
%TO.N,LOGIC_GND*%
X131088000Y-99677428D03*
%TO.P,IC1,59,VDD_4_59*%
%TO.N,+3V3*%
X131088000Y-99177428D03*
%TO.P,IC1,60,VDDIO_3_60*%
X131088000Y-98677428D03*
%TO.P,IC1,61,GPIO5_61*%
%TO.N,/Con_EN_A_L*%
X131088000Y-98177428D03*
%TO.P,IC1,62,GPIO9_62*%
%TO.N,/Con_FLT_A_L*%
X131088000Y-97677428D03*
%TO.P,IC1,63,GPIO10_63*%
%TO.N,/Con_FLT_B_H*%
X131088000Y-97177428D03*
%TO.P,IC1,64,GPIO6_64*%
%TO.N,/Con_EN_B_H*%
X131088000Y-96677428D03*
%TD*%
D21*
%TO.P,TP59,1,1_1*%
%TO.N,GND*%
X117900000Y-122627428D03*
%TD*%
%TO.P,TP56,1,1_1*%
%TO.N,/Con_EN_B_H*%
X179050000Y-109077428D03*
%TD*%
%TO.P,TP53,1,1_1*%
%TO.N,/Controller/XRSn*%
X107384409Y-120635591D03*
%TD*%
%TO.P,TP55,1,1_1*%
%TO.N,/Controller/TDI*%
X100684409Y-120615591D03*
%TD*%
%TO.P,TP54,1,1_1*%
%TO.N,/Controller/TCK*%
X97234409Y-116165591D03*
%TD*%
%TO.P,TP60,1,1_1*%
%TO.N,/Con_EN_B_L*%
X172670000Y-109077428D03*
%TD*%
%TO.P,TP47,1,1_1*%
%TO.N,/Con_PWM_A_H*%
X189400000Y-92510761D03*
%TD*%
D33*
%TO.P,J18,*%
%TO.N,*%
X95934409Y-97277428D03*
X95934409Y-83977428D03*
D34*
%TO.P,J18,1,1_1*%
%TO.N,LOGIC_GND*%
X95934409Y-86127428D03*
D35*
%TO.P,J18,2,2_2*%
%TO.N,+3V3*%
X95934409Y-89127428D03*
%TO.P,J18,3,3_3*%
%TO.N,GND*%
X95934409Y-92127428D03*
%TO.P,J18,4,4_4*%
%TO.N,/Con_Pro_Gate_node_output*%
X95934409Y-95127428D03*
%TD*%
D21*
%TO.P,TP38,1,1_1*%
%TO.N,+3V3*%
X107900000Y-83777428D03*
%TD*%
%TO.P,TP46,1,1_1*%
%TO.N,/Con_PWM_B_H*%
X189434409Y-105765590D03*
%TD*%
%TO.P,TP43,1,1_1*%
%TO.N,/Con_EN_A_H*%
X178850000Y-95977428D03*
%TD*%
%TO.P,TP63,1,1_1*%
%TO.N,/Con_Gate_node_prech*%
X135200000Y-122677428D03*
%TD*%
D33*
%TO.P,J22,*%
%TO.N,*%
X129250000Y-130277428D03*
X115950000Y-130277428D03*
D34*
%TO.P,J22,1,1_1*%
%TO.N,/Con_Gate_node_prech*%
X118100000Y-130277428D03*
D35*
%TO.P,J22,2,2_2*%
%TO.N,GND*%
X121100000Y-130277428D03*
%TO.P,J22,3,3_3*%
%TO.N,unconnected-(J22-Pad3)*%
X124100000Y-130277428D03*
%TO.P,J22,4,4_4*%
%TO.N,unconnected-(J22-Pad4)*%
X127100000Y-130277428D03*
%TD*%
D38*
%TO.N,/USB_Console/USB_VBUS*%
X139950000Y-91200000D03*
X135050000Y-84100000D03*
%TO.N,/USB_Console/USB_D-*%
X139500000Y-86499999D03*
X136901797Y-86724845D03*
%TO.N,/USB_Console/USB_D+*%
X136850000Y-87450000D03*
%TO.N,LOGIC_GND*%
X115850000Y-94150000D03*
%TO.N,/Con_RDY_B_H*%
X120350000Y-105800000D03*
%TO.N,/Con_RDY_B_L*%
X119150000Y-107100000D03*
%TO.N,/Con_FLT_A_H*%
X128800000Y-108400000D03*
%TO.N,/Con_EN_A_H*%
X129550000Y-108100000D03*
%TO.N,+3V3*%
X130200000Y-112950000D03*
X127650000Y-113100000D03*
X127700000Y-96350000D03*
X126850000Y-104550000D03*
X136650000Y-91350000D03*
X112600000Y-98700000D03*
%TO.N,LOGIC_GND*%
X128627353Y-100927356D03*
X124650000Y-96250000D03*
X126750000Y-96250000D03*
X129500000Y-99700000D03*
X127900000Y-104550000D03*
X121250000Y-101200000D03*
X121300000Y-98450000D03*
X121200000Y-96750000D03*
%TO.N,+3V3*%
X112650000Y-94750000D03*
X121250000Y-101950000D03*
%TO.N,LOGIC_GND*%
X117150000Y-113050000D03*
X125000000Y-110300000D03*
%TO.N,/Con_RDY_A_H*%
X117136546Y-103435936D03*
%TO.N,LOGIC_GND*%
X132834409Y-87565591D03*
X136600000Y-88150000D03*
X132734409Y-86365591D03*
X134034409Y-86415591D03*
X137334409Y-78419337D03*
X111450000Y-109800000D03*
X91400000Y-101565591D03*
X116750000Y-116400000D03*
X123450000Y-90750000D03*
X140050000Y-94565591D03*
X134034409Y-87465591D03*
X135284409Y-79400000D03*
%TO.N,+3V3*%
X134034409Y-83865591D03*
X129450000Y-98800000D03*
X132975000Y-102025000D03*
X127934409Y-86215591D03*
X112650000Y-96750000D03*
X138534409Y-100515591D03*
X109184409Y-114765591D03*
X111234409Y-105265591D03*
X125634409Y-87465591D03*
X121350000Y-99500000D03*
X112650000Y-100900000D03*
X127584409Y-92665591D03*
X121600000Y-95950000D03*
X136384409Y-107215591D03*
X136484409Y-84965591D03*
X111450000Y-107152428D03*
X130484409Y-79615591D03*
%TO.N,/Con_PWM_A_L*%
X134534409Y-103165591D03*
%TO.N,GND*%
X97684409Y-110665591D03*
X130672572Y-118727428D03*
%TO.N,/Con_PWM_A_H*%
X133834409Y-102565591D03*
%TO.N,/Con_FLT_A_L*%
X134034409Y-98115591D03*
%TO.N,/Con_FLT_B_L*%
X117150241Y-104162810D03*
%TO.N,/Con_EN_A_L*%
X133684409Y-98815591D03*
%TO.N,/Con_PWM_B_H*%
X133884409Y-103765591D03*
%TO.N,/Con_PWM_B_L*%
X133234409Y-104365591D03*
%TO.N,/Con_RDY_A_L*%
X117150802Y-102709073D03*
%TO.N,/Con_EN_B_L*%
X133334409Y-100415591D03*
%TO.N,/Controller/XRSn*%
X129034409Y-89515591D03*
%TO.N,/Controller/Flash_Boot_PU*%
X118550000Y-107633928D03*
X109484409Y-112115591D03*
%TD*%
%TO.N,/USB_Console/USB_VBUS*%
D39*
X139512500Y-91637500D02*
X139950000Y-91200000D01*
X138500000Y-91637500D02*
X139512500Y-91637500D01*
X135050000Y-84100000D02*
X135100000Y-84100000D01*
X134702428Y-84100000D02*
X135050000Y-84100000D01*
X134250000Y-84552428D02*
X134702428Y-84100000D01*
X134250000Y-85127428D02*
X134250000Y-84552428D01*
%TO.N,Net-(J28-GND)*%
X139900000Y-84550000D02*
X140997101Y-84550000D01*
X138500000Y-83150000D02*
X139900000Y-84550000D01*
X138500000Y-82700000D02*
X138500000Y-83150000D01*
%TO.N,LOGIC_GND*%
D40*
X138484928Y-79584928D02*
X138500000Y-79584928D01*
X137334409Y-78434409D02*
X138484928Y-79584928D01*
X137334409Y-78419337D02*
X137334409Y-78434409D01*
%TO.N,/USB_Console/USB_VBUS*%
D39*
X138500000Y-88350000D02*
X139700000Y-87150000D01*
X138500000Y-91637500D02*
X138500000Y-88350000D01*
X139700000Y-87150000D02*
X140997101Y-87150000D01*
%TO.N,LOGIC_GND*%
D40*
X138696909Y-94565591D02*
X138500000Y-94762500D01*
X140050000Y-94565591D02*
X138696909Y-94565591D01*
%TO.N,Net-(J28-GND)*%
D39*
X141247101Y-84300000D02*
X140997101Y-84550000D01*
%TO.N,/USB_Console/USB_D+*%
D40*
X137100000Y-87450000D02*
X138700000Y-85850000D01*
X136850000Y-87450000D02*
X137100000Y-87450000D01*
X138700000Y-85850000D02*
X140997101Y-85850000D01*
%TO.N,/USB_Console/USB_D-*%
X139500000Y-86499999D02*
X140997101Y-86499999D01*
%TO.N,/USB_Console/USB_D+*%
X135527428Y-87250000D02*
X135450000Y-87327428D01*
X136650000Y-87250000D02*
X135527428Y-87250000D01*
X136850000Y-87450000D02*
X136650000Y-87250000D01*
%TO.N,/USB_Console/USB_D-*%
X136726642Y-86900000D02*
X135522572Y-86900000D01*
X136901797Y-86724845D02*
X136726642Y-86900000D01*
X135522572Y-86900000D02*
X135450000Y-86827428D01*
%TO.N,LOGIC_GND*%
D39*
X135572572Y-87950000D02*
X135450000Y-87827428D01*
X136400000Y-87950000D02*
X135572572Y-87950000D01*
X136600000Y-88150000D02*
X136400000Y-87950000D01*
%TO.N,/USB_Console/USB_D+*%
D40*
X135450000Y-87327428D02*
X135725000Y-87327428D01*
%TO.N,/USB_Console/USB_D-*%
X140997101Y-86499999D02*
X140897102Y-86400000D01*
%TO.N,/USB_Console/USB_D+*%
X140997101Y-85850000D02*
X140897101Y-85950000D01*
%TO.N,/Controller/Flash_Boot_PU*%
D39*
X109534409Y-112065591D02*
X111000000Y-112065591D01*
X109484409Y-112115591D02*
X109534409Y-112065591D01*
%TO.N,LOGIC_GND*%
D40*
X131099837Y-99665591D02*
X131088000Y-99677428D01*
X134034409Y-99665591D02*
X131099837Y-99665591D01*
X135112500Y-98650000D02*
X135050000Y-98650000D01*
X135050000Y-98650000D02*
X134034409Y-99665591D01*
X135112500Y-101177428D02*
X131088000Y-101177428D01*
%TO.N,+3V3*%
X137187500Y-100650000D02*
X137187500Y-98717591D01*
X137321909Y-100515591D02*
X137187500Y-100650000D01*
X138534409Y-100515591D02*
X137321909Y-100515591D01*
X137425000Y-102025000D02*
X138534409Y-100915591D01*
X138534409Y-100915591D02*
X138534409Y-100515591D01*
X132975000Y-102025000D02*
X137425000Y-102025000D01*
%TO.N,LOGIC_GND*%
D39*
X115807500Y-94192500D02*
X115807500Y-95727428D01*
X115850000Y-94150000D02*
X115807500Y-94192500D01*
D40*
X124600000Y-91081182D02*
X124600000Y-94689428D01*
X123450000Y-90750000D02*
X124268818Y-90750000D01*
X124268818Y-90750000D02*
X124600000Y-91081182D01*
%TO.N,/Controller/Flash_Boot_PU*%
X122400000Y-107800000D02*
X122600000Y-107600000D01*
X122600000Y-107600000D02*
X122600000Y-106165428D01*
X118716072Y-107800000D02*
X122400000Y-107800000D01*
X118550000Y-107633928D02*
X118716072Y-107800000D01*
%TO.N,/Con_RDY_B_L*%
X119150000Y-107100000D02*
X120250000Y-107100000D01*
%TO.N,/Con_RDY_B_H*%
X121865591Y-105065591D02*
X122100000Y-105300000D01*
X120350000Y-105800000D02*
X121084409Y-105065591D01*
X122100000Y-105300000D02*
X122100000Y-106165428D01*
X121084409Y-105065591D02*
X121865591Y-105065591D01*
%TO.N,/Controller/TMS*%
X120187552Y-104600000D02*
X123650000Y-104600000D01*
X116654428Y-105673000D02*
X119114552Y-105673000D01*
X115750000Y-106577428D02*
X116654428Y-105673000D01*
X119114552Y-105673000D02*
X120187552Y-104600000D01*
X123650000Y-104600000D02*
X124100000Y-105050000D01*
X124100000Y-105050000D02*
X124100000Y-106165428D01*
%TO.N,/Controller/X1*%
X121484409Y-112305519D02*
X122700000Y-111089928D01*
X121484409Y-119184409D02*
X121484409Y-112305519D01*
X122365591Y-120065591D02*
X121484409Y-119184409D01*
X122378039Y-120065591D02*
X122365591Y-120065591D01*
X123112448Y-120800000D02*
X122378039Y-120065591D01*
X126568818Y-120800000D02*
X123112448Y-120800000D01*
X128050000Y-122281182D02*
X126568818Y-120800000D01*
X128050000Y-122627428D02*
X128050000Y-122281182D01*
%TO.N,/Controller/X2*%
X121050000Y-113589928D02*
X120400000Y-112939928D01*
X122230143Y-120392591D02*
X121157409Y-119319857D01*
X121050000Y-119200000D02*
X121050000Y-113589928D01*
X122242591Y-120392591D02*
X122230143Y-120392591D01*
X121157409Y-119307409D02*
X121050000Y-119200000D01*
X122975000Y-121125000D02*
X122242591Y-120392591D01*
X122975000Y-122627428D02*
X122975000Y-121125000D01*
X121157409Y-119319857D02*
X121157409Y-119307409D01*
%TO.N,/Con_RDY_B_L*%
X121450000Y-107100000D02*
X121600000Y-106950000D01*
X121600000Y-106950000D02*
X121600000Y-106165428D01*
X120250000Y-107100000D02*
X121450000Y-107100000D01*
%TO.N,/Con_FLT_A_H*%
D39*
X128600000Y-108200000D02*
X128600000Y-106165428D01*
X128800000Y-108400000D02*
X128600000Y-108200000D01*
%TO.N,/Con_EN_A_H*%
X129100000Y-107550000D02*
X129100000Y-106165428D01*
X129550000Y-108000000D02*
X129100000Y-107550000D01*
X129550000Y-108100000D02*
X129550000Y-108000000D01*
%TO.N,/Controller/Con_Gate_node_prech*%
D40*
X129684409Y-102015591D02*
X129684409Y-104165591D01*
X130022572Y-101677428D02*
X129684409Y-102015591D01*
X132580000Y-107061182D02*
X132580000Y-109627428D01*
X131088000Y-101677428D02*
X130022572Y-101677428D01*
X129684409Y-104165591D02*
X132580000Y-107061182D01*
%TO.N,/Con_EN_B_H*%
D39*
X132072572Y-96677428D02*
X131088000Y-96677428D01*
X132550000Y-96200000D02*
X132072572Y-96677428D01*
X132561190Y-96200000D02*
X132550000Y-96200000D01*
X132735972Y-96025218D02*
X132561190Y-96200000D01*
X143934734Y-96025218D02*
X132735972Y-96025218D01*
X179330409Y-93661591D02*
X146298362Y-93661591D01*
X146298362Y-93661591D02*
X143934734Y-96025218D01*
X180634409Y-107493019D02*
X180634409Y-94965591D01*
X180634409Y-94965591D02*
X179330409Y-93661591D01*
X179050000Y-109077428D02*
X180634409Y-107493019D01*
%TO.N,LOGIC_GND*%
X129572572Y-101177428D02*
X131088000Y-101177428D01*
X129322500Y-100927356D02*
X129572572Y-101177428D01*
X128627353Y-100927356D02*
X129322500Y-100927356D01*
%TO.N,+3V3*%
X127650000Y-112702428D02*
X126900000Y-111952428D01*
X127650000Y-113100000D02*
X127650000Y-112702428D01*
X129202428Y-111952428D02*
X128900000Y-111952428D01*
X130200000Y-112950000D02*
X129202428Y-111952428D01*
D40*
X132975000Y-102025000D02*
X132822572Y-102177428D01*
X132822572Y-102177428D02*
X131088000Y-102177428D01*
D39*
X129827428Y-99177428D02*
X131088000Y-99177428D01*
X129450000Y-98800000D02*
X129827428Y-99177428D01*
X129572572Y-98677428D02*
X131088000Y-98677428D01*
X129450000Y-98800000D02*
X129572572Y-98677428D01*
X127600000Y-96250000D02*
X127600000Y-94689428D01*
X127700000Y-96350000D02*
X127600000Y-96250000D01*
%TO.N,LOGIC_GND*%
X127100000Y-96100000D02*
X127100000Y-94689428D01*
X126950000Y-96250000D02*
X127100000Y-96100000D01*
X126750000Y-96250000D02*
X126950000Y-96250000D01*
%TO.N,+3V3*%
X121600000Y-95950000D02*
X121600000Y-94689428D01*
%TO.N,LOGIC_GND*%
X121027428Y-98177428D02*
X119612000Y-98177428D01*
X121300000Y-98450000D02*
X121027428Y-98177428D01*
%TO.N,+3V3*%
D41*
X120850000Y-99200000D02*
X119634572Y-99200000D01*
X121150000Y-99500000D02*
X120850000Y-99200000D01*
X121350000Y-99500000D02*
X121150000Y-99500000D01*
D39*
X127100000Y-104800000D02*
X127100000Y-106165428D01*
X126850000Y-104550000D02*
X127100000Y-104800000D01*
X126600000Y-104800000D02*
X126600000Y-106165428D01*
X126850000Y-104550000D02*
X126600000Y-104800000D01*
D40*
X119634572Y-99200000D02*
X119612000Y-99177428D01*
X121350000Y-99500000D02*
X121275155Y-99425155D01*
%TO.N,LOGIC_GND*%
D39*
X121227428Y-98677428D02*
X119612000Y-98677428D01*
X121300000Y-98604856D02*
X121227428Y-98677428D01*
X121300000Y-98450000D02*
X121300000Y-98604856D01*
%TO.N,+3V3*%
D41*
X121050000Y-102150000D02*
X120084572Y-102150000D01*
X121250000Y-101950000D02*
X121050000Y-102150000D01*
D39*
X120950000Y-101650000D02*
X120139428Y-101650000D01*
D41*
X121250000Y-101950000D02*
X120950000Y-101650000D01*
D39*
X136500000Y-91500000D02*
X136500000Y-92877428D01*
X136650000Y-91350000D02*
X136500000Y-91500000D01*
%TO.N,/Con_SCIRXDA*%
D40*
X133250000Y-89718114D02*
X129100000Y-93868114D01*
X133250000Y-89027428D02*
X133250000Y-89718114D01*
D39*
X133250000Y-92727428D02*
X133250000Y-89027428D01*
X133400000Y-92877428D02*
X133250000Y-92727428D01*
D40*
X129118114Y-93850000D02*
X129100000Y-93868114D01*
%TO.N,/Con_RDY_A_L*%
X117182447Y-102677428D02*
X119612000Y-102677428D01*
X117150802Y-102709073D02*
X117182447Y-102677428D01*
%TO.N,+3V3*%
D39*
X113732500Y-95532500D02*
X113732500Y-95727428D01*
X112950000Y-94750000D02*
X113732500Y-95532500D01*
X112650000Y-94750000D02*
X112950000Y-94750000D01*
X112755072Y-96750000D02*
X113732500Y-97727428D01*
X112650000Y-96750000D02*
X112755072Y-96750000D01*
D40*
X112905072Y-100900000D02*
X113732500Y-101727428D01*
X112650000Y-100900000D02*
X112905072Y-100900000D01*
D39*
X112705072Y-98700000D02*
X113732500Y-99727428D01*
X112600000Y-98700000D02*
X112705072Y-98700000D01*
D40*
X112650000Y-100900000D02*
X112650000Y-100800000D01*
%TO.N,LOGIC_GND*%
D39*
X129522572Y-99677428D02*
X131088000Y-99677428D01*
X129500000Y-99700000D02*
X129522572Y-99677428D01*
X127600000Y-104850000D02*
X127600000Y-106165428D01*
X127900000Y-104550000D02*
X127600000Y-104850000D01*
X128100000Y-104750000D02*
X128100000Y-106165428D01*
X127900000Y-104550000D02*
X128100000Y-104750000D01*
X121227428Y-101177428D02*
X119612000Y-101177428D01*
X121250000Y-101200000D02*
X121227428Y-101177428D01*
X121200000Y-96750000D02*
X121127428Y-96677428D01*
X121127428Y-96677428D02*
X119612000Y-96677428D01*
X124600000Y-96200000D02*
X124600000Y-94689428D01*
X124650000Y-96250000D02*
X124600000Y-96200000D01*
D40*
X116857500Y-98677428D02*
X119612000Y-98677428D01*
X115807500Y-99727428D02*
X116857500Y-98677428D01*
%TO.N,+3V3*%
X113396246Y-97727428D02*
X113732500Y-97727428D01*
D42*
X105622572Y-83777428D02*
X107900000Y-83777428D01*
X100272572Y-89127428D02*
X105622572Y-83777428D01*
X95934409Y-89127428D02*
X100272572Y-89127428D01*
%TO.N,LOGIC_GND*%
D40*
X91400000Y-101565591D02*
X93214409Y-101565591D01*
%TO.N,/Con_PWM_A_H*%
X183284409Y-98626352D02*
X189400000Y-92510761D01*
X183284409Y-121515591D02*
X183284409Y-98626352D01*
X175500000Y-129300000D02*
X183284409Y-121515591D01*
X175500000Y-129377428D02*
X175500000Y-129300000D01*
%TO.N,/Con_PWM_B_L*%
X184427000Y-123560344D02*
X184427000Y-117833761D01*
X183650000Y-124337344D02*
X184427000Y-123560344D01*
X184427000Y-117833761D02*
X189400000Y-112860761D01*
X183650000Y-128527428D02*
X183650000Y-124337344D01*
X184500000Y-129377428D02*
X183650000Y-128527428D01*
%TO.N,/Con_PWM_B_H*%
X184100000Y-123424896D02*
X184100000Y-111099999D01*
X184100000Y-111099999D02*
X189434409Y-105765590D01*
X181500000Y-126024896D02*
X184100000Y-123424896D01*
X181500000Y-129377428D02*
X181500000Y-126024896D01*
%TO.N,/Con_PWM_A_L*%
X183684409Y-104865591D02*
X189434409Y-99115591D01*
X183684409Y-123365591D02*
X183684409Y-104865591D01*
X178500000Y-128562448D02*
X183611409Y-123451039D01*
X178500000Y-129377428D02*
X178500000Y-128562448D01*
X183611409Y-123451039D02*
X183611409Y-123438591D01*
X183611409Y-123438591D02*
X183684409Y-123365591D01*
%TO.N,LOGIC_GND*%
X135284409Y-79400000D02*
X135284409Y-79694337D01*
X135284409Y-79694337D02*
X136300000Y-80709928D01*
%TO.N,+3V3*%
X113372572Y-95727428D02*
X113732500Y-95727428D01*
%TO.N,/Con_FLT_B_L*%
X119584572Y-103650000D02*
X119612000Y-103677428D01*
X118700000Y-103650000D02*
X119584572Y-103650000D01*
X118200000Y-104150000D02*
X118700000Y-103650000D01*
X117254558Y-104150000D02*
X118200000Y-104150000D01*
X117241748Y-104162810D02*
X117254558Y-104150000D01*
X117150241Y-104162810D02*
X117241748Y-104162810D01*
%TO.N,/Con_RDY_A_H*%
X118264064Y-103435936D02*
X118522572Y-103177428D01*
X118522572Y-103177428D02*
X119612000Y-103177428D01*
X117136546Y-103435936D02*
X118264064Y-103435936D01*
%TO.N,/Controller/Con_Gate_node_input*%
X118150000Y-104800000D02*
X118772572Y-104177428D01*
X116272572Y-104800000D02*
X118150000Y-104800000D01*
X118772572Y-104177428D02*
X119612000Y-104177428D01*
X115750000Y-104277428D02*
X116272572Y-104800000D01*
%TO.N,+3V3*%
X111936837Y-106665591D02*
X112561837Y-106665591D01*
X111450000Y-107152428D02*
X111936837Y-106665591D01*
X112561837Y-106665591D02*
X112650000Y-106577428D01*
%TO.N,LOGIC_GND*%
X112372572Y-108877428D02*
X112650000Y-108877428D01*
X111450000Y-109800000D02*
X112372572Y-108877428D01*
X115600000Y-115300000D02*
X115600000Y-114807428D01*
X116700000Y-116400000D02*
X115600000Y-115300000D01*
X116750000Y-116400000D02*
X116700000Y-116400000D01*
D39*
X117357428Y-113050000D02*
X118000000Y-112407428D01*
X117150000Y-113050000D02*
X117357428Y-113050000D01*
X125000000Y-110300000D02*
X125000000Y-111222428D01*
%TO.N,/Con_RDY_B_H*%
D40*
X147284409Y-128661837D02*
X148500000Y-129877428D01*
X147284409Y-109215591D02*
X147284409Y-128661837D01*
%TO.N,/Con_RDY_A_H*%
X152384409Y-97019019D02*
X152384409Y-125993019D01*
X153426000Y-95977428D02*
X152384409Y-97019019D01*
X152384409Y-125993019D02*
X151500000Y-126877428D01*
%TO.N,LOGIC_GND*%
X115437500Y-101727428D02*
X115807500Y-101727428D01*
X128100000Y-109077428D02*
X128100000Y-106165428D01*
X126800000Y-90852428D02*
X127100000Y-91152428D01*
X115750000Y-95727428D02*
X116700000Y-96677428D01*
X116357500Y-101177428D02*
X119612000Y-101177428D01*
X115887500Y-98177428D02*
X119612000Y-98177428D01*
X116700000Y-96677428D02*
X119612000Y-96677428D01*
X124800000Y-90852428D02*
X126800000Y-90852428D01*
X115437500Y-99727428D02*
X115807500Y-99727428D01*
X127600000Y-109177428D02*
X127600000Y-106165428D01*
X115437500Y-95727428D02*
X115750000Y-95727428D01*
X134250000Y-80709928D02*
X136300000Y-80709928D01*
X126900000Y-109877428D02*
X127600000Y-109177428D01*
X115807500Y-84334928D02*
X115250000Y-83777428D01*
X115437500Y-97727428D02*
X115887500Y-98177428D01*
X115807500Y-101727428D02*
X116357500Y-101177428D01*
X128900000Y-109877428D02*
X128100000Y-109077428D01*
%TO.N,/Controller/TCK*%
X97234409Y-114128039D02*
X97234409Y-116165591D01*
X117347676Y-108877428D02*
X115750000Y-108877428D01*
X97234409Y-128981487D02*
X99345350Y-131092428D01*
X100950857Y-110411591D02*
X97234409Y-114128039D01*
X123100000Y-107637552D02*
X122576624Y-108160928D01*
X123100000Y-106165428D02*
X123100000Y-107637552D01*
X118064176Y-108160928D02*
X117347676Y-108877428D01*
X114215837Y-110411591D02*
X100950857Y-110411591D01*
X122576624Y-108160928D02*
X118064176Y-108160928D01*
X115750000Y-108877428D02*
X114215837Y-110411591D01*
X97234409Y-116165591D02*
X97234409Y-128981487D01*
%TO.N,+3V3*%
D39*
X127600000Y-92681182D02*
X127600000Y-94689428D01*
D40*
X98034409Y-132403369D02*
X98034409Y-133165591D01*
X125634409Y-87611837D02*
X126800000Y-88777428D01*
X111000000Y-126550000D02*
X111000000Y-114677428D01*
X98075350Y-132362428D02*
X98034409Y-132403369D01*
X134084409Y-83815591D02*
X134034409Y-83865591D01*
X136300000Y-82784928D02*
X134250000Y-82784928D01*
X127934409Y-86215591D02*
X127934409Y-86611837D01*
D39*
X135450000Y-85827428D02*
X135622572Y-85827428D01*
D40*
X103734409Y-133815591D02*
X111000000Y-126550000D01*
X109184409Y-114765591D02*
X110911837Y-114765591D01*
X125634409Y-87465591D02*
X125634409Y-87611837D01*
X138038163Y-107215591D02*
X138050000Y-107227428D01*
X111000000Y-114677428D02*
X113300000Y-114677428D01*
D39*
X135622572Y-85827428D02*
X136484409Y-84965591D01*
D40*
X124800000Y-88777428D02*
X124800000Y-88300000D01*
X98034409Y-133165591D02*
X98684409Y-133815591D01*
X132038163Y-79615591D02*
X132050000Y-79627428D01*
D39*
X135450000Y-86327428D02*
X135450000Y-85827428D01*
D40*
X124800000Y-88300000D02*
X125634409Y-87465591D01*
X110911837Y-114765591D02*
X111000000Y-114677428D01*
X134250000Y-82784928D02*
X134250000Y-83300000D01*
X134250000Y-83300000D02*
X134084409Y-83465591D01*
X98684409Y-133815591D02*
X103734409Y-133815591D01*
D39*
X127584409Y-92665591D02*
X127600000Y-92681182D01*
D40*
X130484409Y-79615591D02*
X132038163Y-79615591D01*
X134084409Y-83465591D02*
X134084409Y-83815591D01*
X136384409Y-107215591D02*
X138038163Y-107215591D01*
X111234409Y-105265591D02*
X111661837Y-105265591D01*
X127934409Y-86611837D02*
X129000000Y-87677428D01*
X111661837Y-105265591D02*
X112650000Y-104277428D01*
%TO.N,/Con_Gate_node_prech*%
X135200000Y-128350000D02*
X135200000Y-122677428D01*
X131422572Y-132127428D02*
X135200000Y-128350000D01*
X135120000Y-118727428D02*
X135120000Y-122597428D01*
X135120000Y-122597428D02*
X135200000Y-122677428D01*
X118100000Y-130277428D02*
X119950000Y-132127428D01*
X119950000Y-132127428D02*
X131422572Y-132127428D01*
%TO.N,/Con_PWM_A_L*%
X131099837Y-103165591D02*
X131088000Y-103177428D01*
X134534409Y-103165591D02*
X131099837Y-103165591D01*
%TO.N,/Con_RDY_B_L*%
X153034409Y-109665591D02*
X153034409Y-109949906D01*
X153034409Y-109949906D02*
X152784409Y-110199906D01*
X152784409Y-110199906D02*
X152784409Y-127765591D01*
X152784409Y-127765591D02*
X151500000Y-129050000D01*
X153634409Y-109065591D02*
X153034409Y-109665591D01*
X151500000Y-129050000D02*
X151500000Y-129877428D01*
%TO.N,/Con_SCIRXDA*%
X133250000Y-89027428D02*
X133250000Y-89250000D01*
X133250000Y-89250000D02*
X133200000Y-89300000D01*
X129100000Y-93868114D02*
X129100000Y-94689428D01*
%TO.N,GND*%
D42*
X97684409Y-110665591D02*
X95764409Y-110665591D01*
X121100000Y-130277428D02*
X121100000Y-125827428D01*
X121100000Y-125827428D02*
X117900000Y-122627428D01*
X130672572Y-118727428D02*
X132570000Y-118727428D01*
%TO.N,/Con_PWM_A_H*%
D40*
X133722572Y-102677428D02*
X131088000Y-102677428D01*
X133834409Y-102565591D02*
X133722572Y-102677428D01*
%TO.N,/Con_FLT_A_L*%
X159782000Y-95977428D02*
X158234409Y-97525019D01*
X158234409Y-110187334D02*
X155734409Y-112687334D01*
X155734409Y-112687334D02*
X155734409Y-125643019D01*
X158234409Y-97525019D02*
X158234409Y-110187334D01*
D39*
X133596246Y-97677428D02*
X131088000Y-97677428D01*
X134034409Y-98115591D02*
X133596246Y-97677428D01*
D40*
X155734409Y-125643019D02*
X154500000Y-126877428D01*
%TO.N,/Con_FLT_B_L*%
X154500000Y-129200000D02*
X154500000Y-129877428D01*
X156134409Y-127565591D02*
X154500000Y-129200000D01*
X156134409Y-112853019D02*
X156134409Y-127565591D01*
X159910000Y-109077428D02*
X156134409Y-112853019D01*
%TO.N,Net-(Q7-A)*%
X135820000Y-110327428D02*
X135120000Y-109627428D01*
X138050000Y-110327428D02*
X135820000Y-110327428D01*
%TO.N,/Controller/X1*%
X126100000Y-107364928D02*
X126100000Y-106165428D01*
X122700000Y-110780614D02*
X126000000Y-107480613D01*
X122700000Y-111089928D02*
X122700000Y-110780614D01*
X126000000Y-107464928D02*
X126100000Y-107364928D01*
X126000000Y-107480613D02*
X126000000Y-107464928D01*
%TO.N,Net-(Y1-GND_1)*%
X118000000Y-111272428D02*
X120217500Y-111272428D01*
X118150000Y-111272428D02*
X118000000Y-111272428D01*
X120217500Y-111272428D02*
X120400000Y-111089928D01*
%TO.N,/Controller/X2*%
X122649337Y-110265591D02*
X125600000Y-107314928D01*
X120400000Y-112939928D02*
X120400000Y-112714928D01*
X120400000Y-112714928D02*
X121600000Y-111514928D01*
X121884409Y-110265591D02*
X122649337Y-110265591D01*
X125600000Y-107314928D02*
X125600000Y-106165428D01*
X121600000Y-110550000D02*
X121884409Y-110265591D01*
X121600000Y-111514928D02*
X121600000Y-110550000D01*
%TO.N,Net-(Y1-GND_2)*%
X123282500Y-112357428D02*
X122700000Y-112939928D01*
X125000000Y-112357428D02*
X123282500Y-112357428D01*
%TO.N,/Con_EN_A_L*%
D39*
X133046246Y-98177428D02*
X131088000Y-98177428D01*
X133684409Y-98815591D02*
X133046246Y-98177428D01*
D40*
X172494000Y-95977428D02*
X171420000Y-97051428D01*
X171420000Y-97051428D02*
X171420000Y-115957428D01*
X171420000Y-115957428D02*
X160500000Y-126877428D01*
%TO.N,/Con_PWM_B_H*%
X133884409Y-103765591D02*
X133796246Y-103677428D01*
X133796246Y-103677428D02*
X131088000Y-103677428D01*
%TO.N,/Con_PWM_B_L*%
X133234409Y-104365591D02*
X133034409Y-104165591D01*
X133034409Y-104165591D02*
X131099837Y-104165591D01*
X131099837Y-104165591D02*
X131088000Y-104177428D01*
%TO.N,Net-(Q6-A)*%
X93214409Y-110665591D02*
X92784409Y-110665591D01*
X90484409Y-108365591D02*
X90484409Y-107715591D01*
X92784409Y-110665591D02*
X90484409Y-108365591D01*
%TO.N,/Controller/Con_Gate_node_input*%
X96754409Y-102565591D02*
X95754409Y-101565591D01*
X114685256Y-104277428D02*
X113273419Y-102865591D01*
X102996246Y-102627428D02*
X102934409Y-102565591D01*
X102934409Y-102565591D02*
X96754409Y-102565591D01*
X103234409Y-102865591D02*
X102934409Y-102565591D01*
X115750000Y-104277428D02*
X114685256Y-104277428D01*
X103350000Y-102627428D02*
X102996246Y-102627428D01*
X113273419Y-102865591D02*
X103234409Y-102865591D01*
%TO.N,/Con_FLT_B_H*%
D39*
X133429172Y-96302218D02*
X132850710Y-96302218D01*
X131975500Y-97177428D02*
X131088000Y-97177428D01*
X132850710Y-96302218D02*
X131975500Y-97177428D01*
D40*
X165084409Y-119858705D02*
X158984409Y-125958705D01*
D39*
X167290000Y-108077428D02*
X166290000Y-109077428D01*
D40*
X165084409Y-110283019D02*
X165084409Y-119858705D01*
D39*
X144049472Y-96302218D02*
X146413100Y-93938591D01*
X133429172Y-96302218D02*
X144049472Y-96302218D01*
D40*
X158984409Y-128065591D02*
X157500000Y-129550000D01*
X166290000Y-109077428D02*
X165084409Y-110283019D01*
D39*
X166403163Y-93938591D02*
X167290000Y-94825428D01*
X146413100Y-93938591D02*
X166403163Y-93938591D01*
X167290000Y-94825428D02*
X167290000Y-108077428D01*
D40*
X158984409Y-125958705D02*
X158984409Y-128065591D01*
X157500000Y-129550000D02*
X157500000Y-129877428D01*
%TO.N,/Con_RDY_A_L*%
X149584409Y-98491837D02*
X149584409Y-125793019D01*
X147070000Y-95977428D02*
X149584409Y-98491837D01*
X149584409Y-125793019D02*
X148500000Y-126877428D01*
%TO.N,/Con_EN_B_L*%
D39*
X133334409Y-100415591D02*
X132484409Y-100415591D01*
D40*
X172670000Y-109077428D02*
X171820000Y-109927428D01*
D39*
X132484409Y-100415591D02*
X132246246Y-100177428D01*
D40*
X171820000Y-116123114D02*
X162034409Y-125908705D01*
X162034409Y-127865591D02*
X160500000Y-129400000D01*
X160500000Y-129400000D02*
X160500000Y-129877428D01*
D39*
X132246246Y-100177428D02*
X131088000Y-100177428D01*
D40*
X162034409Y-125908705D02*
X162034409Y-127865591D01*
X171820000Y-109927428D02*
X171820000Y-116123114D01*
%TO.N,/Con_Pro_Gate_node_output*%
X90484409Y-104615591D02*
X90484409Y-99750114D01*
X95107095Y-95127428D02*
X95934409Y-95127428D01*
X104950000Y-95277428D02*
X96084409Y-95277428D01*
X96084409Y-95277428D02*
X95934409Y-95127428D01*
X90484409Y-99750114D02*
X95107095Y-95127428D01*
%TO.N,/Con_FLT_A_H*%
X164684409Y-97431019D02*
X164684409Y-119693019D01*
X166138000Y-95977428D02*
X164684409Y-97431019D01*
X164684409Y-119693019D02*
X157500000Y-126877428D01*
%TO.N,/Con_EN_A_H*%
X178850000Y-95977428D02*
X177334409Y-97493019D01*
X177334409Y-113043019D02*
X163500000Y-126877428D01*
X177334409Y-97493019D02*
X177334409Y-113043019D01*
%TO.N,/USB_Console/USB_VBUS*%
X138550000Y-91327428D02*
X138622572Y-91327428D01*
%TO.N,/Controller/XRSn*%
X129000000Y-89550000D02*
X129034409Y-89515591D01*
X129000000Y-90777428D02*
X129000000Y-89550000D01*
X107384409Y-120635591D02*
X107384409Y-126863369D01*
X128100000Y-91677428D02*
X128100000Y-94689428D01*
X129000000Y-90777428D02*
X128100000Y-91677428D01*
X107384409Y-126863369D02*
X103155350Y-131092428D01*
%TO.N,Net-(IC2-RSTB)*%
X133734409Y-84411837D02*
X133734409Y-85111837D01*
X132050000Y-82727428D02*
X133734409Y-84411837D01*
%TO.N,/Con_SCITXDA*%
X132750000Y-89027428D02*
X132750000Y-89652428D01*
X128600000Y-93802428D02*
X128600000Y-94689428D01*
X132750000Y-89652428D02*
X128600000Y-93802428D01*
%TO.N,/Controller/TMS*%
X96834409Y-129147173D02*
X97984409Y-130297173D01*
X96834409Y-123505591D02*
X96834409Y-129147173D01*
X114648000Y-107679428D02*
X115750000Y-106577428D01*
X93914409Y-120585591D02*
X93914409Y-116985591D01*
X97984409Y-131001487D02*
X98075350Y-131092428D01*
X103220572Y-107679428D02*
X114648000Y-107679428D01*
X115784409Y-106577428D02*
X115750000Y-106577428D01*
X93914409Y-120585591D02*
X96834409Y-123505591D01*
X97984409Y-130297173D02*
X97984409Y-131001487D01*
X93914409Y-116985591D02*
X103220572Y-107679428D01*
%TO.N,/Con_EN_B_H*%
X177734409Y-113208705D02*
X164984409Y-125958705D01*
X164984409Y-125958705D02*
X164984409Y-128393019D01*
X164984409Y-128393019D02*
X163500000Y-129877428D01*
X179050000Y-109077428D02*
X177734409Y-110393019D01*
X177734409Y-110393019D02*
X177734409Y-113208705D01*
%TO.N,/Controller/Flash_Boot_PD*%
X118500758Y-109214928D02*
X115650095Y-112065591D01*
X115650095Y-112065591D02*
X115600000Y-112065591D01*
X125100000Y-106165428D02*
X125100000Y-107218613D01*
X125100000Y-107218613D02*
X123103685Y-109214928D01*
X123103685Y-109214928D02*
X118500758Y-109214928D01*
%TO.N,/Controller/TDO*%
X104434409Y-116085591D02*
X102714409Y-116085591D01*
X123600000Y-107600000D02*
X122712072Y-108487928D01*
X99434409Y-119365591D02*
X99434409Y-129911487D01*
X118199624Y-108487928D02*
X115948961Y-110738591D01*
X122712072Y-108487928D02*
X118199624Y-108487928D01*
X102714409Y-116085591D02*
X99434409Y-119365591D01*
X123600000Y-106165428D02*
X123600000Y-107600000D01*
X109781409Y-110738591D02*
X104434409Y-116085591D01*
X115948961Y-110738591D02*
X109781409Y-110738591D01*
X99434409Y-129911487D02*
X100615350Y-131092428D01*
%TO.N,/Controller/TDI*%
X113300000Y-112400000D02*
X113300000Y-112065591D01*
X109058409Y-113815591D02*
X111884409Y-113815591D01*
X122938000Y-108814928D02*
X118335072Y-108814928D01*
X99834409Y-129041487D02*
X101885350Y-131092428D01*
X116084409Y-111065591D02*
X113811837Y-111065591D01*
X124600000Y-107152928D02*
X122938000Y-108814928D01*
X100684409Y-120615591D02*
X102258409Y-120615591D01*
X100684409Y-120615591D02*
X99834409Y-121465591D01*
X118335072Y-108814928D02*
X116084409Y-111065591D01*
X102258409Y-120615591D02*
X109058409Y-113815591D01*
X111884409Y-113815591D02*
X113300000Y-112400000D01*
X113300000Y-111577428D02*
X113300000Y-112065591D01*
X99834409Y-121465591D02*
X99834409Y-129041487D01*
X124600000Y-106165428D02*
X124600000Y-107152928D01*
X113811837Y-111065591D02*
X113300000Y-111577428D01*
%TO.N,LOGIC_GND*%
X127100000Y-91152428D02*
X127100000Y-94689428D01*
%TD*%
M02*
