%TF.GenerationSoftware,KiCad,Pcbnew,10.0.0*%
%TF.CreationDate,2026-03-25T21:22:58-04:00*%
%TF.ProjectId,Controller_Circuit,436f6e74-726f-46c6-9c65-725f43697263,rev?*%
%TF.SameCoordinates,Original*%
%TF.FileFunction,Copper,L3,Inr*%
%TF.FilePolarity,Positive*%
%FSLAX46Y46*%
G04 Gerber Fmt 4.6, Leading zero omitted, Abs format (unit mm)*
G04 Created by KiCad (PCBNEW 10.0.0) date 2026-03-25 21:22:58*
%MOMM*%
%LPD*%
G01*
G04 APERTURE LIST*
%TA.AperFunction,ComponentPad*%
%ADD10R,1.900000X1.900000*%
%TD*%
%TA.AperFunction,WasherPad*%
%ADD11O,0.812800X1.498600*%
%TD*%
%TA.AperFunction,WasherPad*%
%ADD12O,0.812800X1.905000*%
%TD*%
%TA.AperFunction,ComponentPad*%
%ADD13R,1.520000X1.520000*%
%TD*%
%TA.AperFunction,ComponentPad*%
%ADD14C,1.520000*%
%TD*%
%TA.AperFunction,ComponentPad*%
%ADD15C,1.150000*%
%TD*%
%TA.AperFunction,ComponentPad*%
%ADD16C,2.560000*%
%TD*%
%TA.AperFunction,ComponentPad*%
%ADD17R,1.170000X1.170000*%
%TD*%
%TA.AperFunction,ComponentPad*%
%ADD18C,1.170000*%
%TD*%
%TA.AperFunction,ViaPad*%
%ADD19C,0.600000*%
%TD*%
%TA.AperFunction,Conductor*%
%ADD20C,0.150000*%
%TD*%
G04 APERTURE END LIST*
D10*
%TO.N,/Con_FLT_A_L*%
%TO.C,TP49*%
X159782000Y-95977428D03*
%TD*%
%TO.N,/Con_FLT_B_L*%
%TO.C,TP61*%
X159910000Y-109077428D03*
%TD*%
%TO.N,LOGIC_GND*%
%TO.C,TP39*%
X115250000Y-83777428D03*
%TD*%
%TO.N,/Con_FLT_B_H*%
%TO.C,TP57*%
X166290000Y-109077428D03*
%TD*%
%TO.N,/Con_RDY_A_L*%
%TO.C,TP50*%
X147070000Y-95977428D03*
%TD*%
%TO.N,/Con_Pro_Gate_node_output*%
%TO.C,TP40*%
X104950000Y-95277428D03*
%TD*%
%TO.N,/Con_RDY_B_H*%
%TO.C,TP62*%
X147184409Y-109115591D03*
%TD*%
%TO.N,/Con_EN_A_L*%
%TO.C,TP48*%
X172494000Y-95977428D03*
%TD*%
%TO.N,/Controller/Con_Gate_node_input*%
%TO.C,TP65*%
X102934409Y-102565591D03*
%TD*%
%TO.N,/Con_RDY_A_H*%
%TO.C,TP45*%
X153426000Y-95977428D03*
%TD*%
%TO.N,/Con_PWM_A_L*%
%TO.C,TP42*%
X189434409Y-99115591D03*
%TD*%
D11*
%TO.N,*%
%TO.C,J28*%
X140747101Y-88649999D03*
D12*
X142897101Y-85850000D03*
D11*
X140747101Y-83050001D03*
%TD*%
D10*
%TO.N,/Controller/X1*%
%TO.C,TP66*%
X128050000Y-122627428D03*
%TD*%
%TO.N,/Con_FLT_A_H*%
%TO.C,TP44*%
X166138000Y-95977428D03*
%TD*%
%TO.N,/Con_RDY_B_L*%
%TO.C,TP58*%
X153634409Y-109065591D03*
%TD*%
%TO.N,/Controller/X2*%
%TO.C,TP64*%
X122975000Y-122627428D03*
%TD*%
%TO.N,/Controller/TMS*%
%TO.C,TP51*%
X93914409Y-120585591D03*
%TD*%
%TO.N,LOGIC_GND*%
%TO.C,TP76*%
X189400000Y-85894094D03*
%TD*%
D13*
%TO.N,/Con_RDY_A_L*%
%TO.C,J20*%
X148500000Y-126877428D03*
D14*
%TO.N,/Con_RDY_A_H*%
X151500000Y-126877428D03*
%TO.N,/Con_FLT_A_L*%
X154500000Y-126877428D03*
%TO.N,/Con_FLT_A_H*%
X157500000Y-126877428D03*
%TO.N,/Con_EN_A_L*%
X160500000Y-126877428D03*
%TO.N,/Con_EN_A_H*%
X163500000Y-126877428D03*
%TO.N,/Con_RDY_B_H*%
X148500000Y-129877428D03*
%TO.N,/Con_RDY_B_L*%
X151500000Y-129877428D03*
%TO.N,/Con_FLT_B_L*%
X154500000Y-129877428D03*
%TO.N,/Con_FLT_B_H*%
X157500000Y-129877428D03*
%TO.N,/Con_EN_B_L*%
X160500000Y-129877428D03*
%TO.N,/Con_EN_B_H*%
X163500000Y-129877428D03*
%TD*%
D10*
%TO.N,/Con_PWM_B_L*%
%TO.C,TP41*%
X189400000Y-112860761D03*
%TD*%
D15*
%TO.N,+3V3*%
%TO.C,J19*%
X98075350Y-132362428D03*
%TO.N,/Controller/TMS*%
X98075350Y-131092428D03*
%TO.N,LOGIC_GND*%
X99345350Y-132362428D03*
%TO.N,/Controller/TCK*%
X99345350Y-131092428D03*
%TO.N,LOGIC_GND*%
X100615350Y-132362428D03*
%TO.N,/Controller/TDO*%
X100615350Y-131092428D03*
%TO.N,unconnected-(J19-Pad7)*%
X101885350Y-132362428D03*
%TO.N,/Controller/TDI*%
X101885350Y-131092428D03*
%TO.N,LOGIC_GND*%
X103155350Y-132362428D03*
%TO.N,/Controller/XRSn*%
X103155350Y-131092428D03*
%TD*%
D10*
%TO.N,/Controller/TDO*%
%TO.C,TP52*%
X104434409Y-116085591D03*
%TD*%
D16*
%TO.N,*%
%TO.C,J21*%
X186650000Y-129377428D03*
X173350000Y-129377428D03*
D17*
%TO.N,/Con_PWM_A_H*%
X175500000Y-129377428D03*
D18*
%TO.N,/Con_PWM_A_L*%
X178500000Y-129377428D03*
%TO.N,/Con_PWM_B_H*%
X181500000Y-129377428D03*
%TO.N,/Con_PWM_B_L*%
X184500000Y-129377428D03*
%TD*%
D10*
%TO.N,GND*%
%TO.C,TP59*%
X117900000Y-122627428D03*
%TD*%
%TO.N,/Con_EN_B_H*%
%TO.C,TP56*%
X179050000Y-109077428D03*
%TD*%
%TO.N,/Controller/XRSn*%
%TO.C,TP53*%
X107384409Y-120635591D03*
%TD*%
%TO.N,/Controller/TDI*%
%TO.C,TP55*%
X100684409Y-120615591D03*
%TD*%
%TO.N,/Controller/TCK*%
%TO.C,TP54*%
X97234409Y-116165591D03*
%TD*%
%TO.N,/Con_EN_B_L*%
%TO.C,TP60*%
X172670000Y-109077428D03*
%TD*%
%TO.N,/Con_PWM_A_H*%
%TO.C,TP47*%
X189400000Y-92510761D03*
%TD*%
D16*
%TO.N,*%
%TO.C,J18*%
X95934409Y-97277428D03*
X95934409Y-83977428D03*
D17*
%TO.N,LOGIC_GND*%
X95934409Y-86127428D03*
D18*
%TO.N,+3V3*%
X95934409Y-89127428D03*
%TO.N,GND*%
X95934409Y-92127428D03*
%TO.N,/Con_Pro_Gate_node_output*%
X95934409Y-95127428D03*
%TD*%
D10*
%TO.N,+3V3*%
%TO.C,TP38*%
X107900000Y-83777428D03*
%TD*%
%TO.N,/Con_PWM_B_H*%
%TO.C,TP46*%
X189434409Y-105765590D03*
%TD*%
%TO.N,/Con_EN_A_H*%
%TO.C,TP43*%
X178850000Y-95977428D03*
%TD*%
%TO.N,/Con_Gate_node_prech*%
%TO.C,TP63*%
X135200000Y-122677428D03*
%TD*%
D16*
%TO.N,*%
%TO.C,J22*%
X129250000Y-130277428D03*
X115950000Y-130277428D03*
D17*
%TO.N,/Con_Gate_node_prech*%
X118100000Y-130277428D03*
D18*
%TO.N,GND*%
X121100000Y-130277428D03*
%TO.N,unconnected-(J22-Pad3)*%
X124100000Y-130277428D03*
%TO.N,unconnected-(J22-Pad4)*%
X127100000Y-130277428D03*
%TD*%
D19*
%TO.N,/USB_Console/USB_VBUS*%
X139950000Y-91200000D03*
X135050000Y-84100000D03*
%TO.N,/USB_Console/USB_D-*%
X139500000Y-86499999D03*
X136901797Y-86724845D03*
%TO.N,/USB_Console/USB_D+*%
X136850000Y-87450000D03*
%TO.N,LOGIC_GND*%
X115850000Y-94150000D03*
%TO.N,/Con_RDY_B_H*%
X120350000Y-105800000D03*
%TO.N,/Con_RDY_B_L*%
X119150000Y-107100000D03*
%TO.N,/Con_FLT_A_H*%
X128800000Y-108400000D03*
%TO.N,/Con_EN_A_H*%
X129550000Y-108100000D03*
%TO.N,+3V3*%
X130200000Y-112950000D03*
X127650000Y-113100000D03*
X127700000Y-96350000D03*
X126850000Y-104550000D03*
X136650000Y-91350000D03*
X112600000Y-98700000D03*
%TO.N,LOGIC_GND*%
X128627353Y-100927356D03*
X124650000Y-96250000D03*
X126750000Y-96250000D03*
X129500000Y-99700000D03*
X127900000Y-104550000D03*
X121250000Y-101200000D03*
X121300000Y-98450000D03*
X121200000Y-96750000D03*
%TO.N,+3V3*%
X112650000Y-94750000D03*
X121250000Y-101950000D03*
%TO.N,LOGIC_GND*%
X117150000Y-113050000D03*
X125000000Y-110300000D03*
%TO.N,/Con_RDY_A_H*%
X117136546Y-103435936D03*
%TO.N,LOGIC_GND*%
X132834409Y-87565591D03*
X136600000Y-88150000D03*
X132734409Y-86365591D03*
X134034409Y-86415591D03*
X137334409Y-78419337D03*
X111450000Y-109800000D03*
X91400000Y-101565591D03*
X116750000Y-116400000D03*
X123450000Y-90750000D03*
X140050000Y-94565591D03*
X134034409Y-87465591D03*
X135284409Y-79400000D03*
%TO.N,+3V3*%
X134034409Y-83865591D03*
X129450000Y-98800000D03*
X132975000Y-102025000D03*
X127934409Y-86215591D03*
X112650000Y-96750000D03*
X138534409Y-100515591D03*
X109184409Y-114765591D03*
X111234409Y-105265591D03*
X125634409Y-87465591D03*
X121350000Y-99500000D03*
X112650000Y-100900000D03*
X127584409Y-92665591D03*
X121600000Y-95950000D03*
X136384409Y-107215591D03*
X136484409Y-84965591D03*
X111450000Y-107152428D03*
X130484409Y-79615591D03*
%TO.N,/Con_PWM_A_L*%
X134534409Y-103165591D03*
%TO.N,GND*%
X97684409Y-110665591D03*
X130672572Y-118727428D03*
%TO.N,/Con_PWM_A_H*%
X133834409Y-102565591D03*
%TO.N,/Con_FLT_A_L*%
X134034409Y-98115591D03*
%TO.N,/Con_FLT_B_L*%
X117150241Y-104162810D03*
%TO.N,/Con_EN_A_L*%
X133684409Y-98815591D03*
%TO.N,/Con_PWM_B_H*%
X133884409Y-103765591D03*
%TO.N,/Con_PWM_B_L*%
X133234409Y-104365591D03*
%TO.N,/Con_RDY_A_L*%
X117150802Y-102709073D03*
%TO.N,/Con_EN_B_L*%
X133334409Y-100415591D03*
%TO.N,/Controller/XRSn*%
X129034409Y-89515591D03*
%TO.N,/Controller/Flash_Boot_PU*%
X118550000Y-107633928D03*
X109484409Y-112115591D03*
%TD*%
%TO.N,/Con_RDY_B_L*%
D20*
X151550000Y-111150000D02*
X153634409Y-109065591D01*
X125660738Y-111377000D02*
X125887738Y-111150000D01*
X124885262Y-111377000D02*
X125660738Y-111377000D01*
X119300000Y-106950000D02*
X120458262Y-106950000D01*
X125887738Y-111150000D02*
X151550000Y-111150000D01*
X119150000Y-107100000D02*
X119300000Y-106950000D01*
X120458262Y-106950000D02*
X124885262Y-111377000D01*
%TO.N,/Con_RDY_B_H*%
X145427000Y-110873000D02*
X147184409Y-109115591D01*
X125773000Y-110873000D02*
X145427000Y-110873000D01*
X125546000Y-111100000D02*
X125773000Y-110873000D01*
X125000000Y-111100000D02*
X125546000Y-111100000D01*
X120850000Y-106950000D02*
X125000000Y-111100000D01*
X120850000Y-106900000D02*
X120850000Y-106950000D01*
X120350000Y-106400000D02*
X120850000Y-106900000D01*
X120350000Y-105800000D02*
X120350000Y-106400000D01*
%TO.N,/Con_FLT_A_H*%
X164665428Y-97450000D02*
X166138000Y-95977428D01*
X133990064Y-97450000D02*
X164665428Y-97450000D01*
X128800000Y-108400000D02*
X128800000Y-102640064D01*
X128800000Y-102640064D02*
X133990064Y-97450000D01*
%TO.N,/Con_EN_A_H*%
X175027428Y-99800000D02*
X178850000Y-95977428D01*
X133240064Y-99800000D02*
X175027428Y-99800000D01*
X129550000Y-103490064D02*
X133240064Y-99800000D01*
X129550000Y-108100000D02*
X129550000Y-103490064D01*
%TO.N,/Con_EN_B_L*%
X133936409Y-101017591D02*
X164610163Y-101017591D01*
X133334409Y-100415591D02*
X133936409Y-101017591D01*
X164610163Y-101017591D02*
X172670000Y-109077428D01*
%TD*%
%TA.AperFunction,Conductor*%
%TO.N,+3V3*%
G36*
X140562612Y-78058990D02*
G01*
X140608940Y-78111291D01*
X140620707Y-78162601D01*
X140661450Y-81696274D01*
X140642539Y-81763536D01*
X140590266Y-81809897D01*
X140561651Y-81819321D01*
X140482572Y-81835051D01*
X140482567Y-81835053D01*
X140317525Y-81903415D01*
X140317516Y-81903420D01*
X140168986Y-82002665D01*
X140168982Y-82002668D01*
X140042668Y-82128982D01*
X140042665Y-82128986D01*
X139943420Y-82277516D01*
X139943415Y-82277525D01*
X139875053Y-82442567D01*
X139875051Y-82442573D01*
X139840201Y-82617776D01*
X139840201Y-82617779D01*
X139840201Y-83482223D01*
X139840201Y-83482225D01*
X139840200Y-83482225D01*
X139875051Y-83657428D01*
X139875053Y-83657434D01*
X139943415Y-83822476D01*
X139943420Y-83822485D01*
X140042665Y-83971015D01*
X140042668Y-83971019D01*
X140168982Y-84097333D01*
X140168986Y-84097336D01*
X140317516Y-84196581D01*
X140317522Y-84196584D01*
X140317523Y-84196585D01*
X140482568Y-84264949D01*
X140538907Y-84276155D01*
X140592905Y-84286897D01*
X140654816Y-84319282D01*
X140689390Y-84379998D01*
X140692706Y-84407084D01*
X140725871Y-87283458D01*
X140706960Y-87350720D01*
X140654687Y-87397081D01*
X140626071Y-87406505D01*
X140482573Y-87435049D01*
X140482567Y-87435051D01*
X140317525Y-87503413D01*
X140317516Y-87503418D01*
X140168986Y-87602663D01*
X140168982Y-87602666D01*
X140042668Y-87728980D01*
X140042665Y-87728984D01*
X139943420Y-87877514D01*
X139943415Y-87877523D01*
X139875053Y-88042565D01*
X139875051Y-88042571D01*
X139840201Y-88217774D01*
X139840201Y-88217777D01*
X139840201Y-89082221D01*
X139840201Y-89082223D01*
X139840200Y-89082223D01*
X139875051Y-89257426D01*
X139875053Y-89257432D01*
X139943415Y-89422474D01*
X139943420Y-89422483D01*
X140042665Y-89571013D01*
X140042668Y-89571017D01*
X140168982Y-89697331D01*
X140168986Y-89697334D01*
X140317516Y-89796579D01*
X140317522Y-89796582D01*
X140317523Y-89796583D01*
X140482568Y-89864947D01*
X140593012Y-89886915D01*
X140657622Y-89899768D01*
X140719533Y-89932153D01*
X140754107Y-89992868D01*
X140757423Y-90019955D01*
X140763892Y-90581029D01*
X140744981Y-90648291D01*
X140692708Y-90694652D01*
X140623669Y-90705392D01*
X140559783Y-90677102D01*
X140552219Y-90670140D01*
X140460292Y-90578213D01*
X140460288Y-90578210D01*
X140329185Y-90490609D01*
X140329172Y-90490602D01*
X140183501Y-90430264D01*
X140183489Y-90430261D01*
X140028845Y-90399500D01*
X140028842Y-90399500D01*
X139871158Y-90399500D01*
X139871155Y-90399500D01*
X139716510Y-90430261D01*
X139716498Y-90430264D01*
X139570827Y-90490602D01*
X139570814Y-90490609D01*
X139439711Y-90578210D01*
X139439707Y-90578213D01*
X139328213Y-90689707D01*
X139328210Y-90689711D01*
X139240609Y-90820814D01*
X139240602Y-90820827D01*
X139180264Y-90966498D01*
X139180261Y-90966510D01*
X139149500Y-91121153D01*
X139149500Y-91278846D01*
X139180261Y-91433489D01*
X139180264Y-91433501D01*
X139240602Y-91579172D01*
X139240609Y-91579185D01*
X139328210Y-91710288D01*
X139328213Y-91710292D01*
X139439707Y-91821786D01*
X139439711Y-91821789D01*
X139570814Y-91909390D01*
X139570827Y-91909397D01*
X139716498Y-91969735D01*
X139716503Y-91969737D01*
X139871153Y-92000499D01*
X139871156Y-92000500D01*
X139871158Y-92000500D01*
X140028844Y-92000500D01*
X140028845Y-92000499D01*
X140183497Y-91969737D01*
X140329179Y-91909394D01*
X140460289Y-91821789D01*
X140566298Y-91715779D01*
X140627619Y-91682296D01*
X140697311Y-91687280D01*
X140753245Y-91729151D01*
X140777662Y-91794615D01*
X140777970Y-91802032D01*
X140801984Y-93884712D01*
X140783073Y-93951974D01*
X140730801Y-93998335D01*
X140661761Y-94009075D01*
X140597875Y-93980785D01*
X140590311Y-93973823D01*
X140560292Y-93943804D01*
X140560288Y-93943801D01*
X140429185Y-93856200D01*
X140429172Y-93856193D01*
X140283501Y-93795855D01*
X140283489Y-93795852D01*
X140128845Y-93765091D01*
X140128842Y-93765091D01*
X139971158Y-93765091D01*
X139971155Y-93765091D01*
X139816510Y-93795852D01*
X139816498Y-93795855D01*
X139670827Y-93856193D01*
X139670814Y-93856200D01*
X139539711Y-93943801D01*
X139539707Y-93943804D01*
X139428213Y-94055298D01*
X139428210Y-94055302D01*
X139340609Y-94186405D01*
X139340602Y-94186418D01*
X139280264Y-94332089D01*
X139280261Y-94332101D01*
X139249500Y-94486744D01*
X139249500Y-94644437D01*
X139280261Y-94799080D01*
X139280264Y-94799092D01*
X139340602Y-94944763D01*
X139340609Y-94944776D01*
X139428210Y-95075879D01*
X139428213Y-95075883D01*
X139539707Y-95187377D01*
X139539711Y-95187380D01*
X139670814Y-95274981D01*
X139670827Y-95274988D01*
X139816498Y-95335326D01*
X139816503Y-95335328D01*
X139971153Y-95366090D01*
X139971156Y-95366091D01*
X139971158Y-95366091D01*
X140128844Y-95366091D01*
X140128845Y-95366090D01*
X140283497Y-95335328D01*
X140429179Y-95274985D01*
X140560289Y-95187380D01*
X140605799Y-95141870D01*
X140667122Y-95108384D01*
X140736813Y-95113368D01*
X140792747Y-95155239D01*
X140817165Y-95220703D01*
X140817473Y-95228120D01*
X140831790Y-96469756D01*
X140834112Y-96671153D01*
X140835011Y-96749070D01*
X140816100Y-96816332D01*
X140763828Y-96862693D01*
X140711019Y-96874500D01*
X133914298Y-96874500D01*
X133767927Y-96913719D01*
X133636699Y-96989485D01*
X133636696Y-96989487D01*
X130411470Y-100214712D01*
X130350147Y-100248197D01*
X130280455Y-100243213D01*
X130224522Y-100201341D01*
X130200105Y-100135877D01*
X130209228Y-100079578D01*
X130209392Y-100079181D01*
X130209394Y-100079179D01*
X130269737Y-99933497D01*
X130300500Y-99778842D01*
X130300500Y-99621158D01*
X130300500Y-99621155D01*
X130300499Y-99621153D01*
X130269738Y-99466510D01*
X130269737Y-99466503D01*
X130269735Y-99466498D01*
X130209397Y-99320827D01*
X130209390Y-99320814D01*
X130121789Y-99189711D01*
X130121786Y-99189707D01*
X130010292Y-99078213D01*
X130010288Y-99078210D01*
X129879185Y-98990609D01*
X129879172Y-98990602D01*
X129733501Y-98930264D01*
X129733489Y-98930261D01*
X129578845Y-98899500D01*
X129578842Y-98899500D01*
X129421158Y-98899500D01*
X129421155Y-98899500D01*
X129266510Y-98930261D01*
X129266498Y-98930264D01*
X129120827Y-98990602D01*
X129120814Y-98990609D01*
X128989711Y-99078210D01*
X128989707Y-99078213D01*
X128878213Y-99189707D01*
X128878210Y-99189711D01*
X128790609Y-99320814D01*
X128790602Y-99320827D01*
X128730264Y-99466498D01*
X128730261Y-99466510D01*
X128699500Y-99621153D01*
X128699500Y-99778846D01*
X128730261Y-99933489D01*
X128730263Y-99933497D01*
X128739337Y-99955403D01*
X128746806Y-100024872D01*
X128715531Y-100087352D01*
X128655442Y-100123004D01*
X128624776Y-100126856D01*
X128548508Y-100126856D01*
X128393863Y-100157617D01*
X128393851Y-100157620D01*
X128248180Y-100217958D01*
X128248167Y-100217965D01*
X128117064Y-100305566D01*
X128117060Y-100305569D01*
X128005566Y-100417063D01*
X128005563Y-100417067D01*
X127917962Y-100548170D01*
X127917955Y-100548183D01*
X127857617Y-100693854D01*
X127857614Y-100693866D01*
X127826853Y-100848509D01*
X127826853Y-101006202D01*
X127857614Y-101160845D01*
X127857617Y-101160857D01*
X127917955Y-101306528D01*
X127917962Y-101306541D01*
X128005563Y-101437644D01*
X128005566Y-101437648D01*
X128117060Y-101549142D01*
X128117064Y-101549145D01*
X128248167Y-101636746D01*
X128248180Y-101636753D01*
X128317776Y-101665580D01*
X128393856Y-101697093D01*
X128516643Y-101721517D01*
X128548506Y-101727855D01*
X128548509Y-101727856D01*
X128598966Y-101727856D01*
X128666005Y-101747541D01*
X128711760Y-101800345D01*
X128721704Y-101869503D01*
X128692679Y-101933059D01*
X128686647Y-101939537D01*
X128339487Y-102286696D01*
X128339485Y-102286699D01*
X128263719Y-102417927D01*
X128224500Y-102564298D01*
X128224500Y-103647269D01*
X128204815Y-103714308D01*
X128152011Y-103760063D01*
X128082853Y-103770007D01*
X128076310Y-103768887D01*
X127978842Y-103749500D01*
X127821158Y-103749500D01*
X127821155Y-103749500D01*
X127666510Y-103780261D01*
X127666498Y-103780264D01*
X127520827Y-103840602D01*
X127520814Y-103840609D01*
X127389711Y-103928210D01*
X127389707Y-103928213D01*
X127278213Y-104039707D01*
X127278210Y-104039711D01*
X127190609Y-104170814D01*
X127190602Y-104170827D01*
X127130264Y-104316498D01*
X127130261Y-104316510D01*
X127099500Y-104471153D01*
X127099500Y-104628846D01*
X127130261Y-104783489D01*
X127130264Y-104783501D01*
X127190602Y-104929172D01*
X127190609Y-104929185D01*
X127278210Y-105060288D01*
X127278213Y-105060292D01*
X127389707Y-105171786D01*
X127389711Y-105171789D01*
X127520814Y-105259390D01*
X127520827Y-105259397D01*
X127594013Y-105289711D01*
X127666503Y-105319737D01*
X127821153Y-105350499D01*
X127821156Y-105350500D01*
X127821158Y-105350500D01*
X127978844Y-105350500D01*
X128076308Y-105331113D01*
X128145900Y-105337340D01*
X128201077Y-105380203D01*
X128224322Y-105446093D01*
X128224500Y-105452730D01*
X128224500Y-107792059D01*
X128204815Y-107859098D01*
X128188181Y-107879740D01*
X128178213Y-107889707D01*
X128178210Y-107889711D01*
X128090609Y-108020814D01*
X128090602Y-108020827D01*
X128030264Y-108166498D01*
X128030261Y-108166510D01*
X127999500Y-108321153D01*
X127999500Y-108478846D01*
X128030261Y-108633489D01*
X128030264Y-108633501D01*
X128090602Y-108779172D01*
X128090609Y-108779185D01*
X128178210Y-108910288D01*
X128178213Y-108910292D01*
X128289707Y-109021786D01*
X128289711Y-109021789D01*
X128420814Y-109109390D01*
X128420827Y-109109397D01*
X128566498Y-109169735D01*
X128566503Y-109169737D01*
X128721153Y-109200499D01*
X128721156Y-109200500D01*
X128721158Y-109200500D01*
X128878844Y-109200500D01*
X128878845Y-109200499D01*
X129033497Y-109169737D01*
X129179179Y-109109394D01*
X129310289Y-109021789D01*
X129395260Y-108936817D01*
X129456581Y-108903334D01*
X129482940Y-108900500D01*
X129628844Y-108900500D01*
X129628845Y-108900499D01*
X129783497Y-108869737D01*
X129929179Y-108809394D01*
X130060289Y-108721789D01*
X130171789Y-108610289D01*
X130259394Y-108479179D01*
X130319737Y-108333497D01*
X130350500Y-108178842D01*
X130350500Y-108021158D01*
X130350500Y-108021155D01*
X130350499Y-108021153D01*
X130335351Y-107945001D01*
X130319737Y-107866503D01*
X130259794Y-107721786D01*
X130259397Y-107720827D01*
X130259390Y-107720814D01*
X130171789Y-107589711D01*
X130171786Y-107589707D01*
X130161819Y-107579740D01*
X130128334Y-107518417D01*
X130125500Y-107492059D01*
X130125500Y-103779806D01*
X130145185Y-103712767D01*
X130161819Y-103692125D01*
X131436017Y-102417927D01*
X132747633Y-101106310D01*
X132808954Y-101072827D01*
X132878646Y-101077811D01*
X132904202Y-101090890D01*
X132955225Y-101124982D01*
X132955236Y-101124988D01*
X133041833Y-101160857D01*
X133100912Y-101185328D01*
X133255562Y-101216090D01*
X133255565Y-101216091D01*
X133255567Y-101216091D01*
X133269667Y-101216091D01*
X133336706Y-101235776D01*
X133357348Y-101252410D01*
X133475894Y-101370956D01*
X133583044Y-101478106D01*
X133706087Y-101549145D01*
X133711631Y-101552346D01*
X133759846Y-101602913D01*
X133773068Y-101671521D01*
X133747100Y-101736385D01*
X133690186Y-101776913D01*
X133673823Y-101781350D01*
X133600916Y-101795852D01*
X133600907Y-101795855D01*
X133455236Y-101856193D01*
X133455223Y-101856200D01*
X133324120Y-101943801D01*
X133324116Y-101943804D01*
X133212622Y-102055298D01*
X133212619Y-102055302D01*
X133125018Y-102186405D01*
X133125011Y-102186418D01*
X133064673Y-102332089D01*
X133064670Y-102332101D01*
X133033909Y-102486744D01*
X133033909Y-102644437D01*
X133064670Y-102799080D01*
X133064673Y-102799092D01*
X133125011Y-102944763D01*
X133125018Y-102944776D01*
X133212619Y-103075879D01*
X133212622Y-103075883D01*
X133242500Y-103105761D01*
X133275985Y-103167084D01*
X133271001Y-103236776D01*
X133257921Y-103262333D01*
X133175018Y-103386405D01*
X133175013Y-103386415D01*
X133121468Y-103515685D01*
X133077627Y-103570088D01*
X133031099Y-103589849D01*
X133000917Y-103595852D01*
X133000907Y-103595855D01*
X132855236Y-103656193D01*
X132855223Y-103656200D01*
X132724120Y-103743801D01*
X132724116Y-103743804D01*
X132612622Y-103855298D01*
X132612619Y-103855302D01*
X132525018Y-103986405D01*
X132525011Y-103986418D01*
X132464673Y-104132089D01*
X132464670Y-104132101D01*
X132433909Y-104286744D01*
X132433909Y-104444437D01*
X132464670Y-104599080D01*
X132464673Y-104599092D01*
X132525011Y-104744763D01*
X132525018Y-104744776D01*
X132612619Y-104875879D01*
X132612622Y-104875883D01*
X132724116Y-104987377D01*
X132724120Y-104987380D01*
X132855223Y-105074981D01*
X132855236Y-105074988D01*
X133000907Y-105135326D01*
X133000912Y-105135328D01*
X133155562Y-105166090D01*
X133155565Y-105166091D01*
X133155567Y-105166091D01*
X133313253Y-105166091D01*
X133313254Y-105166090D01*
X133467906Y-105135328D01*
X133613588Y-105074985D01*
X133744698Y-104987380D01*
X133856198Y-104875880D01*
X133943803Y-104744770D01*
X133943804Y-104744767D01*
X133943806Y-104744764D01*
X133991820Y-104628846D01*
X133997349Y-104615496D01*
X134041189Y-104561093D01*
X134087718Y-104541332D01*
X134117906Y-104535328D01*
X134263588Y-104474985D01*
X134394698Y-104387380D01*
X134506198Y-104275880D01*
X134593803Y-104144770D01*
X134593804Y-104144767D01*
X134593806Y-104144764D01*
X134631240Y-104054386D01*
X134647349Y-104015496D01*
X134691189Y-103961093D01*
X134737718Y-103941332D01*
X134767906Y-103935328D01*
X134913588Y-103874985D01*
X135044698Y-103787380D01*
X135156198Y-103675880D01*
X135243803Y-103544770D01*
X135304146Y-103399088D01*
X135334909Y-103244433D01*
X135334909Y-103086749D01*
X135334909Y-103086746D01*
X135334908Y-103086744D01*
X135328721Y-103055638D01*
X135304146Y-102932094D01*
X135304144Y-102932089D01*
X135243806Y-102786418D01*
X135243799Y-102786405D01*
X135156198Y-102655302D01*
X135156195Y-102655298D01*
X135044701Y-102543804D01*
X135044697Y-102543801D01*
X134913594Y-102456200D01*
X134913581Y-102456193D01*
X134767910Y-102395855D01*
X134767898Y-102395852D01*
X134683229Y-102379010D01*
X134621318Y-102346625D01*
X134592859Y-102304845D01*
X134543806Y-102186417D01*
X134543799Y-102186405D01*
X134456198Y-102055302D01*
X134456195Y-102055298D01*
X134344701Y-101943804D01*
X134344697Y-101943801D01*
X134213594Y-101856200D01*
X134213581Y-101856193D01*
X134154332Y-101831652D01*
X134099928Y-101787811D01*
X134077863Y-101721517D01*
X134095142Y-101653818D01*
X134146279Y-101606207D01*
X134201784Y-101593091D01*
X140768284Y-101593091D01*
X140835323Y-101612776D01*
X140881078Y-101665580D01*
X140892275Y-101715660D01*
X140977309Y-109090602D01*
X140989779Y-110172070D01*
X140970868Y-110239332D01*
X140918595Y-110285693D01*
X140865787Y-110297500D01*
X125917450Y-110297500D01*
X125850411Y-110277815D01*
X125804656Y-110225011D01*
X125795833Y-110197692D01*
X125769738Y-110066508D01*
X125769737Y-110066507D01*
X125769737Y-110066503D01*
X125756062Y-110033489D01*
X125709397Y-109920827D01*
X125709390Y-109920814D01*
X125621789Y-109789711D01*
X125621786Y-109789707D01*
X125510292Y-109678213D01*
X125510288Y-109678210D01*
X125379185Y-109590609D01*
X125379172Y-109590602D01*
X125233501Y-109530264D01*
X125233489Y-109530261D01*
X125078845Y-109499500D01*
X125078842Y-109499500D01*
X124921158Y-109499500D01*
X124921155Y-109499500D01*
X124766510Y-109530261D01*
X124766498Y-109530264D01*
X124620827Y-109590602D01*
X124620816Y-109590608D01*
X124515804Y-109660775D01*
X124449127Y-109681652D01*
X124381747Y-109663167D01*
X124359233Y-109645353D01*
X121390359Y-106676479D01*
X121370653Y-106650798D01*
X121310515Y-106546635D01*
X121203365Y-106439485D01*
X121083900Y-106320020D01*
X121050415Y-106258697D01*
X121055399Y-106189005D01*
X121057272Y-106184894D01*
X121057063Y-106184808D01*
X121119735Y-106033501D01*
X121119737Y-106033497D01*
X121150500Y-105878842D01*
X121150500Y-105721158D01*
X121150500Y-105721155D01*
X121150499Y-105721153D01*
X121119738Y-105566510D01*
X121119737Y-105566503D01*
X121069862Y-105446093D01*
X121059397Y-105420827D01*
X121059390Y-105420814D01*
X120971789Y-105289711D01*
X120971786Y-105289707D01*
X120860292Y-105178213D01*
X120860288Y-105178210D01*
X120729185Y-105090609D01*
X120729172Y-105090602D01*
X120583501Y-105030264D01*
X120583489Y-105030261D01*
X120428845Y-104999500D01*
X120428842Y-104999500D01*
X120271158Y-104999500D01*
X120271155Y-104999500D01*
X120116510Y-105030261D01*
X120116498Y-105030264D01*
X119970827Y-105090602D01*
X119970814Y-105090609D01*
X119839711Y-105178210D01*
X119839707Y-105178213D01*
X119728213Y-105289707D01*
X119728210Y-105289711D01*
X119640609Y-105420814D01*
X119640602Y-105420827D01*
X119580264Y-105566498D01*
X119580261Y-105566510D01*
X119549500Y-105721153D01*
X119549500Y-105878846D01*
X119580261Y-106033489D01*
X119580264Y-106033501D01*
X119640602Y-106179172D01*
X119640609Y-106179185D01*
X119642229Y-106181609D01*
X119642687Y-106183072D01*
X119643479Y-106184554D01*
X119643198Y-106184704D01*
X119663107Y-106248287D01*
X119644622Y-106315667D01*
X119592644Y-106362357D01*
X119539127Y-106374500D01*
X119514960Y-106374500D01*
X119467508Y-106365061D01*
X119383501Y-106330264D01*
X119383489Y-106330261D01*
X119228845Y-106299500D01*
X119228842Y-106299500D01*
X119071158Y-106299500D01*
X119071155Y-106299500D01*
X118916510Y-106330261D01*
X118916498Y-106330264D01*
X118770827Y-106390602D01*
X118770814Y-106390609D01*
X118639711Y-106478210D01*
X118639707Y-106478213D01*
X118528213Y-106589707D01*
X118528210Y-106589711D01*
X118440609Y-106720814D01*
X118440603Y-106720826D01*
X118412393Y-106788929D01*
X118368551Y-106843331D01*
X118322035Y-106863089D01*
X118316513Y-106864187D01*
X118316500Y-106864191D01*
X118170827Y-106924530D01*
X118170814Y-106924537D01*
X118039711Y-107012138D01*
X118039707Y-107012141D01*
X117928213Y-107123635D01*
X117928210Y-107123639D01*
X117840609Y-107254742D01*
X117840602Y-107254755D01*
X117780264Y-107400426D01*
X117780261Y-107400438D01*
X117749500Y-107555081D01*
X117749500Y-107712774D01*
X117780261Y-107867417D01*
X117780264Y-107867429D01*
X117840602Y-108013100D01*
X117840609Y-108013113D01*
X117928210Y-108144216D01*
X117928213Y-108144220D01*
X118039707Y-108255714D01*
X118039711Y-108255717D01*
X118170814Y-108343318D01*
X118170827Y-108343325D01*
X118316498Y-108403663D01*
X118316503Y-108403665D01*
X118471153Y-108434427D01*
X118471156Y-108434428D01*
X118471158Y-108434428D01*
X118628844Y-108434428D01*
X118628845Y-108434427D01*
X118783497Y-108403665D01*
X118929179Y-108343322D01*
X119060289Y-108255717D01*
X119171789Y-108144217D01*
X119259394Y-108013107D01*
X119287605Y-107944998D01*
X119331444Y-107890597D01*
X119377978Y-107870834D01*
X119383497Y-107869737D01*
X119529179Y-107809394D01*
X119660289Y-107721789D01*
X119771789Y-107610289D01*
X119785539Y-107589711D01*
X119791621Y-107580609D01*
X119845233Y-107535804D01*
X119894723Y-107525500D01*
X120168520Y-107525500D01*
X120235559Y-107545185D01*
X120256201Y-107561819D01*
X124424747Y-111730365D01*
X124531897Y-111837515D01*
X124609101Y-111882089D01*
X124609110Y-111882094D01*
X124609111Y-111882095D01*
X124663121Y-111913278D01*
X124663122Y-111913278D01*
X124663127Y-111913281D01*
X124809495Y-111952500D01*
X124809496Y-111952500D01*
X124809497Y-111952500D01*
X125736502Y-111952500D01*
X125736504Y-111952500D01*
X125882873Y-111913281D01*
X126014103Y-111837515D01*
X126089799Y-111761819D01*
X126151122Y-111728334D01*
X126177480Y-111725500D01*
X140885111Y-111725500D01*
X140952150Y-111745185D01*
X140997905Y-111797989D01*
X141009103Y-111848070D01*
X141053814Y-115725855D01*
X141034903Y-115793117D01*
X140982630Y-115839478D01*
X140931252Y-115851277D01*
X117584953Y-116120461D01*
X117517691Y-116101550D01*
X117471330Y-116049277D01*
X117468974Y-116043950D01*
X117459394Y-116020821D01*
X117459389Y-116020814D01*
X117371789Y-115889710D01*
X117260292Y-115778213D01*
X117260288Y-115778210D01*
X117129185Y-115690609D01*
X117129172Y-115690602D01*
X116983501Y-115630264D01*
X116983489Y-115630261D01*
X116828845Y-115599500D01*
X116828842Y-115599500D01*
X116671158Y-115599500D01*
X116671155Y-115599500D01*
X116516510Y-115630261D01*
X116516498Y-115630264D01*
X116370827Y-115690602D01*
X116370814Y-115690609D01*
X116239711Y-115778210D01*
X116239707Y-115778213D01*
X116128213Y-115889707D01*
X116128210Y-115889711D01*
X116040609Y-116020814D01*
X116040604Y-116020824D01*
X116023037Y-116063235D01*
X115979195Y-116117639D01*
X115912901Y-116139703D01*
X115909906Y-116139774D01*
X106540230Y-116247808D01*
X106472968Y-116228897D01*
X106426607Y-116176624D01*
X106414808Y-116125235D01*
X106414753Y-116120461D01*
X106378722Y-112971153D01*
X116349500Y-112971153D01*
X116349500Y-113128846D01*
X116380261Y-113283489D01*
X116380264Y-113283501D01*
X116440602Y-113429172D01*
X116440609Y-113429185D01*
X116528210Y-113560288D01*
X116528213Y-113560292D01*
X116639707Y-113671786D01*
X116639711Y-113671789D01*
X116770814Y-113759390D01*
X116770827Y-113759397D01*
X116916498Y-113819735D01*
X116916503Y-113819737D01*
X117071153Y-113850499D01*
X117071156Y-113850500D01*
X117071158Y-113850500D01*
X117228844Y-113850500D01*
X117228845Y-113850499D01*
X117383497Y-113819737D01*
X117529179Y-113759394D01*
X117660289Y-113671789D01*
X117771789Y-113560289D01*
X117859394Y-113429179D01*
X117919737Y-113283497D01*
X117950500Y-113128842D01*
X117950500Y-112971158D01*
X117950500Y-112971155D01*
X117950499Y-112971153D01*
X117926500Y-112850505D01*
X117919737Y-112816503D01*
X117919735Y-112816498D01*
X117859397Y-112670827D01*
X117859390Y-112670814D01*
X117771789Y-112539711D01*
X117771786Y-112539707D01*
X117660292Y-112428213D01*
X117660288Y-112428210D01*
X117529185Y-112340609D01*
X117529172Y-112340602D01*
X117383501Y-112280264D01*
X117383489Y-112280261D01*
X117228845Y-112249500D01*
X117228842Y-112249500D01*
X117071158Y-112249500D01*
X117071155Y-112249500D01*
X116916510Y-112280261D01*
X116916498Y-112280264D01*
X116770827Y-112340602D01*
X116770814Y-112340609D01*
X116639711Y-112428210D01*
X116639707Y-112428213D01*
X116528213Y-112539707D01*
X116528210Y-112539711D01*
X116440609Y-112670814D01*
X116440602Y-112670827D01*
X116380264Y-112816498D01*
X116380261Y-112816510D01*
X116349500Y-112971153D01*
X106378722Y-112971153D01*
X106368031Y-112036744D01*
X108683909Y-112036744D01*
X108683909Y-112194437D01*
X108714670Y-112349080D01*
X108714673Y-112349092D01*
X108775011Y-112494763D01*
X108775018Y-112494776D01*
X108862619Y-112625879D01*
X108862622Y-112625883D01*
X108974116Y-112737377D01*
X108974120Y-112737380D01*
X109105223Y-112824981D01*
X109105236Y-112824988D01*
X109250907Y-112885326D01*
X109250912Y-112885328D01*
X109405562Y-112916090D01*
X109405565Y-112916091D01*
X109405567Y-112916091D01*
X109563253Y-112916091D01*
X109563254Y-112916090D01*
X109717906Y-112885328D01*
X109752245Y-112871104D01*
X109801978Y-112850505D01*
X109863581Y-112824988D01*
X109863581Y-112824987D01*
X109863588Y-112824985D01*
X109994698Y-112737380D01*
X110106198Y-112625880D01*
X110193803Y-112494770D01*
X110254146Y-112349088D01*
X110284909Y-112194433D01*
X110284909Y-112036749D01*
X110284909Y-112036746D01*
X110284908Y-112036744D01*
X110268151Y-111952500D01*
X110254146Y-111882094D01*
X110240053Y-111848070D01*
X110193806Y-111736418D01*
X110193799Y-111736405D01*
X110106198Y-111605302D01*
X110106195Y-111605298D01*
X109994701Y-111493804D01*
X109994697Y-111493801D01*
X109863594Y-111406200D01*
X109863581Y-111406193D01*
X109717910Y-111345855D01*
X109717898Y-111345852D01*
X109563254Y-111315091D01*
X109563251Y-111315091D01*
X109405567Y-111315091D01*
X109405564Y-111315091D01*
X109250919Y-111345852D01*
X109250907Y-111345855D01*
X109105236Y-111406193D01*
X109105223Y-111406200D01*
X108974120Y-111493801D01*
X108974116Y-111493804D01*
X108862622Y-111605298D01*
X108862619Y-111605302D01*
X108775018Y-111736405D01*
X108775011Y-111736418D01*
X108714673Y-111882089D01*
X108714670Y-111882101D01*
X108683909Y-112036744D01*
X106368031Y-112036744D01*
X106341538Y-109721153D01*
X110649500Y-109721153D01*
X110649500Y-109878846D01*
X110680261Y-110033489D01*
X110680264Y-110033501D01*
X110740602Y-110179172D01*
X110740609Y-110179185D01*
X110828210Y-110310288D01*
X110828213Y-110310292D01*
X110939707Y-110421786D01*
X110939711Y-110421789D01*
X111070814Y-110509390D01*
X111070827Y-110509397D01*
X111216498Y-110569735D01*
X111216503Y-110569737D01*
X111371153Y-110600499D01*
X111371156Y-110600500D01*
X111371158Y-110600500D01*
X111528844Y-110600500D01*
X111528845Y-110600499D01*
X111683497Y-110569737D01*
X111829179Y-110509394D01*
X111960289Y-110421789D01*
X112071789Y-110310289D01*
X112159394Y-110179179D01*
X112219737Y-110033497D01*
X112250500Y-109878842D01*
X112250500Y-109721158D01*
X112250500Y-109721155D01*
X112250499Y-109721153D01*
X112224532Y-109590609D01*
X112219737Y-109566503D01*
X112219735Y-109566498D01*
X112159397Y-109420827D01*
X112159390Y-109420814D01*
X112071789Y-109289711D01*
X112071786Y-109289707D01*
X111960292Y-109178213D01*
X111960288Y-109178210D01*
X111829185Y-109090609D01*
X111829172Y-109090602D01*
X111683501Y-109030264D01*
X111683489Y-109030261D01*
X111528845Y-108999500D01*
X111528842Y-108999500D01*
X111371158Y-108999500D01*
X111371155Y-108999500D01*
X111216510Y-109030261D01*
X111216498Y-109030264D01*
X111070827Y-109090602D01*
X111070814Y-109090609D01*
X110939711Y-109178210D01*
X110939707Y-109178213D01*
X110828213Y-109289707D01*
X110828210Y-109289711D01*
X110740609Y-109420814D01*
X110740602Y-109420827D01*
X110680264Y-109566498D01*
X110680261Y-109566510D01*
X110649500Y-109721153D01*
X106341538Y-109721153D01*
X106268726Y-103357089D01*
X116336046Y-103357089D01*
X116336046Y-103514782D01*
X116366807Y-103669425D01*
X116366810Y-103669437D01*
X116407823Y-103768451D01*
X116415292Y-103837920D01*
X116407824Y-103863355D01*
X116380502Y-103929315D01*
X116349741Y-104083963D01*
X116349741Y-104241656D01*
X116380502Y-104396299D01*
X116380505Y-104396311D01*
X116440843Y-104541982D01*
X116440850Y-104541995D01*
X116528451Y-104673098D01*
X116528454Y-104673102D01*
X116639948Y-104784596D01*
X116639952Y-104784599D01*
X116771055Y-104872200D01*
X116771068Y-104872207D01*
X116908596Y-104929172D01*
X116916744Y-104932547D01*
X117071394Y-104963309D01*
X117071397Y-104963310D01*
X117071399Y-104963310D01*
X117229085Y-104963310D01*
X117229086Y-104963309D01*
X117383738Y-104932547D01*
X117529420Y-104872204D01*
X117660530Y-104784599D01*
X117772030Y-104673099D01*
X117859635Y-104541989D01*
X117919978Y-104396307D01*
X117950741Y-104241652D01*
X117950741Y-104083968D01*
X117950741Y-104083965D01*
X117950740Y-104083963D01*
X117925338Y-103956261D01*
X117919978Y-103929313D01*
X117878962Y-103830293D01*
X117871494Y-103760824D01*
X117878963Y-103735388D01*
X117906283Y-103669433D01*
X117937046Y-103514778D01*
X117937046Y-103357094D01*
X117937046Y-103357091D01*
X117937045Y-103357089D01*
X117906283Y-103202439D01*
X117879246Y-103137166D01*
X117871777Y-103067696D01*
X117879246Y-103042260D01*
X117893502Y-103007843D01*
X117920539Y-102942570D01*
X117951302Y-102787915D01*
X117951302Y-102630231D01*
X117951302Y-102630228D01*
X117951301Y-102630226D01*
X117920540Y-102475583D01*
X117920539Y-102475576D01*
X117887518Y-102395855D01*
X117860199Y-102329900D01*
X117860192Y-102329887D01*
X117772591Y-102198784D01*
X117772588Y-102198780D01*
X117661094Y-102087286D01*
X117661090Y-102087283D01*
X117529987Y-101999682D01*
X117529974Y-101999675D01*
X117384303Y-101939337D01*
X117384291Y-101939334D01*
X117229647Y-101908573D01*
X117229644Y-101908573D01*
X117071960Y-101908573D01*
X117071957Y-101908573D01*
X116917312Y-101939334D01*
X116917300Y-101939337D01*
X116771629Y-101999675D01*
X116771616Y-101999682D01*
X116640513Y-102087283D01*
X116640509Y-102087286D01*
X116529015Y-102198780D01*
X116529012Y-102198784D01*
X116441411Y-102329887D01*
X116441404Y-102329900D01*
X116381066Y-102475571D01*
X116381063Y-102475583D01*
X116350302Y-102630226D01*
X116350302Y-102787919D01*
X116381063Y-102942562D01*
X116381066Y-102942574D01*
X116408101Y-103007843D01*
X116415570Y-103077313D01*
X116408102Y-103102746D01*
X116366809Y-103202439D01*
X116366807Y-103202446D01*
X116336046Y-103357089D01*
X106268726Y-103357089D01*
X106243144Y-101121153D01*
X120449500Y-101121153D01*
X120449500Y-101278846D01*
X120480261Y-101433489D01*
X120480264Y-101433501D01*
X120540602Y-101579172D01*
X120540609Y-101579185D01*
X120628210Y-101710288D01*
X120628213Y-101710292D01*
X120739707Y-101821786D01*
X120739711Y-101821789D01*
X120870814Y-101909390D01*
X120870827Y-101909397D01*
X121016498Y-101969735D01*
X121016503Y-101969737D01*
X121167031Y-101999679D01*
X121171153Y-102000499D01*
X121171156Y-102000500D01*
X121171158Y-102000500D01*
X121328844Y-102000500D01*
X121328845Y-102000499D01*
X121483497Y-101969737D01*
X121629179Y-101909394D01*
X121760289Y-101821789D01*
X121871789Y-101710289D01*
X121959394Y-101579179D01*
X122019737Y-101433497D01*
X122050500Y-101278842D01*
X122050500Y-101121158D01*
X122050500Y-101121155D01*
X122050499Y-101121153D01*
X122030405Y-101020134D01*
X122019737Y-100966503D01*
X122009515Y-100941825D01*
X121959397Y-100820827D01*
X121959390Y-100820814D01*
X121871789Y-100689711D01*
X121871786Y-100689707D01*
X121760292Y-100578213D01*
X121760288Y-100578210D01*
X121629185Y-100490609D01*
X121629172Y-100490602D01*
X121483501Y-100430264D01*
X121483489Y-100430261D01*
X121328845Y-100399500D01*
X121328842Y-100399500D01*
X121171158Y-100399500D01*
X121171155Y-100399500D01*
X121016510Y-100430261D01*
X121016498Y-100430264D01*
X120870827Y-100490602D01*
X120870814Y-100490609D01*
X120739711Y-100578210D01*
X120739707Y-100578213D01*
X120628213Y-100689707D01*
X120628210Y-100689711D01*
X120540609Y-100820814D01*
X120540602Y-100820827D01*
X120480264Y-100966498D01*
X120480261Y-100966510D01*
X120449500Y-101121153D01*
X106243144Y-101121153D01*
X106192529Y-96697137D01*
X106199837Y-96671153D01*
X120399500Y-96671153D01*
X120399500Y-96828846D01*
X120430261Y-96983489D01*
X120430264Y-96983501D01*
X120490602Y-97129172D01*
X120490609Y-97129185D01*
X120578210Y-97260288D01*
X120578213Y-97260292D01*
X120689707Y-97371786D01*
X120689711Y-97371789D01*
X120820814Y-97459390D01*
X120820827Y-97459397D01*
X120933698Y-97506149D01*
X120988102Y-97549989D01*
X121010167Y-97616283D01*
X120992888Y-97683983D01*
X120941751Y-97731594D01*
X120933702Y-97735270D01*
X120920823Y-97740604D01*
X120920814Y-97740609D01*
X120789711Y-97828210D01*
X120789707Y-97828213D01*
X120678213Y-97939707D01*
X120678210Y-97939711D01*
X120590609Y-98070814D01*
X120590602Y-98070827D01*
X120530264Y-98216498D01*
X120530261Y-98216510D01*
X120499500Y-98371153D01*
X120499500Y-98528846D01*
X120530261Y-98683489D01*
X120530264Y-98683501D01*
X120590602Y-98829172D01*
X120590609Y-98829185D01*
X120678210Y-98960288D01*
X120678213Y-98960292D01*
X120789707Y-99071786D01*
X120789711Y-99071789D01*
X120920814Y-99159390D01*
X120920827Y-99159397D01*
X121049497Y-99212693D01*
X121066503Y-99219737D01*
X121194609Y-99245219D01*
X121221153Y-99250499D01*
X121221156Y-99250500D01*
X121221158Y-99250500D01*
X121378844Y-99250500D01*
X121378845Y-99250499D01*
X121533497Y-99219737D01*
X121679179Y-99159394D01*
X121810289Y-99071789D01*
X121921789Y-98960289D01*
X122009394Y-98829179D01*
X122069737Y-98683497D01*
X122100500Y-98528842D01*
X122100500Y-98371158D01*
X122100500Y-98371155D01*
X122100499Y-98371153D01*
X122069738Y-98216510D01*
X122069737Y-98216503D01*
X122060596Y-98194435D01*
X122009397Y-98070827D01*
X122009390Y-98070814D01*
X121921789Y-97939711D01*
X121921786Y-97939707D01*
X121810292Y-97828213D01*
X121810288Y-97828210D01*
X121679185Y-97740609D01*
X121679176Y-97740604D01*
X121566300Y-97693850D01*
X121511897Y-97650009D01*
X121489832Y-97583715D01*
X121507111Y-97516016D01*
X121558248Y-97468405D01*
X121566292Y-97464731D01*
X121579179Y-97459394D01*
X121710289Y-97371789D01*
X121821789Y-97260289D01*
X121909394Y-97129179D01*
X121969737Y-96983497D01*
X122000500Y-96828842D01*
X122000500Y-96671158D01*
X122000500Y-96671155D01*
X122000499Y-96671153D01*
X121969738Y-96516510D01*
X121969737Y-96516503D01*
X121950374Y-96469756D01*
X121909397Y-96370827D01*
X121909390Y-96370814D01*
X121821790Y-96239712D01*
X121821784Y-96239705D01*
X121753232Y-96171153D01*
X123849500Y-96171153D01*
X123849500Y-96328846D01*
X123880261Y-96483489D01*
X123880264Y-96483501D01*
X123940602Y-96629172D01*
X123940609Y-96629185D01*
X124028210Y-96760288D01*
X124028213Y-96760292D01*
X124139707Y-96871786D01*
X124139711Y-96871789D01*
X124270814Y-96959390D01*
X124270827Y-96959397D01*
X124343472Y-96989487D01*
X124416503Y-97019737D01*
X124571153Y-97050499D01*
X124571156Y-97050500D01*
X124571158Y-97050500D01*
X124728844Y-97050500D01*
X124728845Y-97050499D01*
X124883497Y-97019737D01*
X125029179Y-96959394D01*
X125160289Y-96871789D01*
X125271789Y-96760289D01*
X125359394Y-96629179D01*
X125419737Y-96483497D01*
X125450500Y-96328842D01*
X125450500Y-96171158D01*
X125450500Y-96171155D01*
X125450499Y-96171153D01*
X125949500Y-96171153D01*
X125949500Y-96328846D01*
X125980261Y-96483489D01*
X125980264Y-96483501D01*
X126040602Y-96629172D01*
X126040609Y-96629185D01*
X126128210Y-96760288D01*
X126128213Y-96760292D01*
X126239707Y-96871786D01*
X126239711Y-96871789D01*
X126370814Y-96959390D01*
X126370827Y-96959397D01*
X126443472Y-96989487D01*
X126516503Y-97019737D01*
X126671153Y-97050499D01*
X126671156Y-97050500D01*
X126671158Y-97050500D01*
X126828844Y-97050500D01*
X126828845Y-97050499D01*
X126983497Y-97019737D01*
X127129179Y-96959394D01*
X127260289Y-96871789D01*
X127371789Y-96760289D01*
X127459394Y-96629179D01*
X127519737Y-96483497D01*
X127550500Y-96328842D01*
X127550500Y-96171158D01*
X127550500Y-96171155D01*
X127550499Y-96171153D01*
X127524531Y-96040606D01*
X127519737Y-96016503D01*
X127519735Y-96016498D01*
X127459397Y-95870827D01*
X127459390Y-95870814D01*
X127371789Y-95739711D01*
X127371786Y-95739707D01*
X127260292Y-95628213D01*
X127260288Y-95628210D01*
X127129185Y-95540609D01*
X127129172Y-95540602D01*
X126983501Y-95480264D01*
X126983489Y-95480261D01*
X126828845Y-95449500D01*
X126828842Y-95449500D01*
X126671158Y-95449500D01*
X126671155Y-95449500D01*
X126516510Y-95480261D01*
X126516498Y-95480264D01*
X126370827Y-95540602D01*
X126370814Y-95540609D01*
X126239711Y-95628210D01*
X126239707Y-95628213D01*
X126128213Y-95739707D01*
X126128210Y-95739711D01*
X126040609Y-95870814D01*
X126040602Y-95870827D01*
X125980264Y-96016498D01*
X125980261Y-96016510D01*
X125949500Y-96171153D01*
X125450499Y-96171153D01*
X125424531Y-96040606D01*
X125419737Y-96016503D01*
X125419735Y-96016498D01*
X125359397Y-95870827D01*
X125359390Y-95870814D01*
X125271789Y-95739711D01*
X125271786Y-95739707D01*
X125160292Y-95628213D01*
X125160288Y-95628210D01*
X125029185Y-95540609D01*
X125029172Y-95540602D01*
X124883501Y-95480264D01*
X124883489Y-95480261D01*
X124728845Y-95449500D01*
X124728842Y-95449500D01*
X124571158Y-95449500D01*
X124571155Y-95449500D01*
X124416510Y-95480261D01*
X124416498Y-95480264D01*
X124270827Y-95540602D01*
X124270814Y-95540609D01*
X124139711Y-95628210D01*
X124139707Y-95628213D01*
X124028213Y-95739707D01*
X124028210Y-95739711D01*
X123940609Y-95870814D01*
X123940602Y-95870827D01*
X123880264Y-96016498D01*
X123880261Y-96016510D01*
X123849500Y-96171153D01*
X121753232Y-96171153D01*
X121710292Y-96128213D01*
X121710288Y-96128210D01*
X121579185Y-96040609D01*
X121579172Y-96040602D01*
X121433501Y-95980264D01*
X121433489Y-95980261D01*
X121278845Y-95949500D01*
X121278842Y-95949500D01*
X121121158Y-95949500D01*
X121121155Y-95949500D01*
X120966510Y-95980261D01*
X120966498Y-95980264D01*
X120820827Y-96040602D01*
X120820814Y-96040609D01*
X120689711Y-96128210D01*
X120689707Y-96128213D01*
X120578213Y-96239707D01*
X120578210Y-96239711D01*
X120490609Y-96370814D01*
X120490602Y-96370827D01*
X120430264Y-96516498D01*
X120430261Y-96516510D01*
X120399500Y-96671153D01*
X106199837Y-96671153D01*
X106211445Y-96629879D01*
X106236082Y-96601351D01*
X106239058Y-96598813D01*
X106257546Y-96584974D01*
X106343796Y-96469759D01*
X106394091Y-96334911D01*
X106394091Y-96334909D01*
X106394092Y-96334907D01*
X106396534Y-96312183D01*
X106400500Y-96275301D01*
X106400499Y-94279556D01*
X106394091Y-94219945D01*
X106381581Y-94186405D01*
X106352487Y-94108399D01*
X106352486Y-94108397D01*
X106343796Y-94085097D01*
X106333359Y-94071155D01*
X106333358Y-94071153D01*
X115049500Y-94071153D01*
X115049500Y-94228846D01*
X115080261Y-94383489D01*
X115080264Y-94383501D01*
X115140602Y-94529172D01*
X115140609Y-94529185D01*
X115228210Y-94660288D01*
X115228213Y-94660292D01*
X115339707Y-94771786D01*
X115339711Y-94771789D01*
X115470814Y-94859390D01*
X115470827Y-94859397D01*
X115616498Y-94919735D01*
X115616503Y-94919737D01*
X115742352Y-94944770D01*
X115771153Y-94950499D01*
X115771156Y-94950500D01*
X115771158Y-94950500D01*
X115928844Y-94950500D01*
X115928845Y-94950499D01*
X116083497Y-94919737D01*
X116229179Y-94859394D01*
X116360289Y-94771789D01*
X116471789Y-94660289D01*
X116559394Y-94529179D01*
X116619737Y-94383497D01*
X116650500Y-94228842D01*
X116650500Y-94071158D01*
X116650500Y-94071155D01*
X116650499Y-94071153D01*
X116638151Y-94009075D01*
X116619737Y-93916503D01*
X116606569Y-93884712D01*
X116559397Y-93770827D01*
X116559390Y-93770814D01*
X116471789Y-93639711D01*
X116471786Y-93639707D01*
X116360292Y-93528213D01*
X116360288Y-93528210D01*
X116229185Y-93440609D01*
X116229172Y-93440602D01*
X116083501Y-93380264D01*
X116083489Y-93380261D01*
X115928845Y-93349500D01*
X115928842Y-93349500D01*
X115771158Y-93349500D01*
X115771155Y-93349500D01*
X115616510Y-93380261D01*
X115616498Y-93380264D01*
X115470827Y-93440602D01*
X115470814Y-93440609D01*
X115339711Y-93528210D01*
X115339707Y-93528213D01*
X115228213Y-93639707D01*
X115228210Y-93639711D01*
X115140609Y-93770814D01*
X115140602Y-93770827D01*
X115080264Y-93916498D01*
X115080261Y-93916510D01*
X115049500Y-94071153D01*
X106333358Y-94071153D01*
X106257546Y-93969882D01*
X106209475Y-93933896D01*
X106167605Y-93877962D01*
X106159795Y-93836054D01*
X106123585Y-90671153D01*
X122649500Y-90671153D01*
X122649500Y-90828846D01*
X122680261Y-90983489D01*
X122680264Y-90983501D01*
X122740602Y-91129172D01*
X122740609Y-91129185D01*
X122828210Y-91260288D01*
X122828213Y-91260292D01*
X122939707Y-91371786D01*
X122939711Y-91371789D01*
X123070814Y-91459390D01*
X123070827Y-91459397D01*
X123216498Y-91519735D01*
X123216503Y-91519737D01*
X123371153Y-91550499D01*
X123371156Y-91550500D01*
X123371158Y-91550500D01*
X123528844Y-91550500D01*
X123528845Y-91550499D01*
X123683497Y-91519737D01*
X123829179Y-91459394D01*
X123960289Y-91371789D01*
X124071789Y-91260289D01*
X124159394Y-91129179D01*
X124162719Y-91121153D01*
X124219735Y-90983501D01*
X124219737Y-90983497D01*
X124250500Y-90828842D01*
X124250500Y-90671158D01*
X124250500Y-90671155D01*
X124250499Y-90671153D01*
X124219737Y-90516503D01*
X124219735Y-90516498D01*
X124159397Y-90370827D01*
X124159390Y-90370814D01*
X124071789Y-90239711D01*
X124071786Y-90239707D01*
X123960292Y-90128213D01*
X123960288Y-90128210D01*
X123829185Y-90040609D01*
X123829172Y-90040602D01*
X123683501Y-89980264D01*
X123683489Y-89980261D01*
X123528845Y-89949500D01*
X123528842Y-89949500D01*
X123371158Y-89949500D01*
X123371155Y-89949500D01*
X123216510Y-89980261D01*
X123216498Y-89980264D01*
X123070827Y-90040602D01*
X123070814Y-90040609D01*
X122939711Y-90128210D01*
X122939707Y-90128213D01*
X122828213Y-90239707D01*
X122828210Y-90239711D01*
X122740609Y-90370814D01*
X122740602Y-90370827D01*
X122680264Y-90516498D01*
X122680261Y-90516510D01*
X122649500Y-90671153D01*
X106123585Y-90671153D01*
X106109462Y-89436744D01*
X128233909Y-89436744D01*
X128233909Y-89594437D01*
X128264670Y-89749080D01*
X128264673Y-89749092D01*
X128325011Y-89894763D01*
X128325018Y-89894776D01*
X128412619Y-90025879D01*
X128412622Y-90025883D01*
X128524116Y-90137377D01*
X128524120Y-90137380D01*
X128655223Y-90224981D01*
X128655236Y-90224988D01*
X128800907Y-90285326D01*
X128800912Y-90285328D01*
X128955562Y-90316090D01*
X128955565Y-90316091D01*
X128955567Y-90316091D01*
X129113253Y-90316091D01*
X129113254Y-90316090D01*
X129267906Y-90285328D01*
X129413588Y-90224985D01*
X129544698Y-90137380D01*
X129656198Y-90025880D01*
X129743803Y-89894770D01*
X129804146Y-89749088D01*
X129834909Y-89594433D01*
X129834909Y-89436749D01*
X129834909Y-89436746D01*
X129834908Y-89436744D01*
X129832070Y-89422477D01*
X129804146Y-89282094D01*
X129793928Y-89257426D01*
X129743806Y-89136418D01*
X129743799Y-89136405D01*
X129656198Y-89005302D01*
X129656195Y-89005298D01*
X129544701Y-88893804D01*
X129544697Y-88893801D01*
X129413594Y-88806200D01*
X129413581Y-88806193D01*
X129267910Y-88745855D01*
X129267898Y-88745852D01*
X129113254Y-88715091D01*
X129113251Y-88715091D01*
X128955567Y-88715091D01*
X128955564Y-88715091D01*
X128800919Y-88745852D01*
X128800907Y-88745855D01*
X128655236Y-88806193D01*
X128655223Y-88806200D01*
X128524120Y-88893801D01*
X128524116Y-88893804D01*
X128412622Y-89005298D01*
X128412619Y-89005302D01*
X128325018Y-89136405D01*
X128325011Y-89136418D01*
X128264673Y-89282089D01*
X128264670Y-89282101D01*
X128233909Y-89436744D01*
X106109462Y-89436744D01*
X106073423Y-86286744D01*
X131933909Y-86286744D01*
X131933909Y-86444437D01*
X131964670Y-86599080D01*
X131964673Y-86599092D01*
X132025011Y-86744763D01*
X132025018Y-86744776D01*
X132112619Y-86875879D01*
X132112622Y-86875883D01*
X132172473Y-86935734D01*
X132205958Y-86997057D01*
X132200974Y-87066749D01*
X132187894Y-87092306D01*
X132125018Y-87186405D01*
X132125011Y-87186418D01*
X132064673Y-87332089D01*
X132064670Y-87332101D01*
X132033909Y-87486744D01*
X132033909Y-87644437D01*
X132064670Y-87799080D01*
X132064673Y-87799092D01*
X132125011Y-87944763D01*
X132125018Y-87944776D01*
X132212619Y-88075879D01*
X132212622Y-88075883D01*
X132324116Y-88187377D01*
X132324120Y-88187380D01*
X132455223Y-88274981D01*
X132455236Y-88274988D01*
X132600907Y-88335326D01*
X132600912Y-88335328D01*
X132755562Y-88366090D01*
X132755565Y-88366091D01*
X132755567Y-88366091D01*
X132913253Y-88366091D01*
X132913254Y-88366090D01*
X133067906Y-88335328D01*
X133213588Y-88274985D01*
X133344698Y-88187380D01*
X133404553Y-88127524D01*
X133465872Y-88094041D01*
X133535564Y-88099025D01*
X133561123Y-88112105D01*
X133655223Y-88174981D01*
X133655236Y-88174988D01*
X133785253Y-88228842D01*
X133800912Y-88235328D01*
X133955562Y-88266090D01*
X133955565Y-88266091D01*
X133955567Y-88266091D01*
X134113253Y-88266091D01*
X134113254Y-88266090D01*
X134267906Y-88235328D01*
X134413588Y-88174985D01*
X134544698Y-88087380D01*
X134560925Y-88071153D01*
X135799500Y-88071153D01*
X135799500Y-88228846D01*
X135830261Y-88383489D01*
X135830264Y-88383501D01*
X135890602Y-88529172D01*
X135890609Y-88529185D01*
X135978210Y-88660288D01*
X135978213Y-88660292D01*
X136089707Y-88771786D01*
X136089711Y-88771789D01*
X136220814Y-88859390D01*
X136220827Y-88859397D01*
X136366498Y-88919735D01*
X136366503Y-88919737D01*
X136521153Y-88950499D01*
X136521156Y-88950500D01*
X136521158Y-88950500D01*
X136678844Y-88950500D01*
X136678845Y-88950499D01*
X136833497Y-88919737D01*
X136979179Y-88859394D01*
X137110289Y-88771789D01*
X137221789Y-88660289D01*
X137309394Y-88529179D01*
X137369737Y-88383497D01*
X137400500Y-88228842D01*
X137400500Y-88082940D01*
X137420185Y-88015901D01*
X137436819Y-87995259D01*
X137447657Y-87984420D01*
X137471789Y-87960289D01*
X137559394Y-87829179D01*
X137619737Y-87683497D01*
X137650500Y-87528842D01*
X137650500Y-87371158D01*
X137650500Y-87371155D01*
X137650499Y-87371153D01*
X137630325Y-87269734D01*
X137619737Y-87216503D01*
X137611824Y-87197401D01*
X137604355Y-87127934D01*
X137611824Y-87102495D01*
X137671534Y-86958342D01*
X137702297Y-86803687D01*
X137702297Y-86646003D01*
X137702297Y-86646000D01*
X137702296Y-86645998D01*
X137688938Y-86578843D01*
X137671534Y-86491348D01*
X137642458Y-86421152D01*
X138699500Y-86421152D01*
X138699500Y-86578845D01*
X138730261Y-86733488D01*
X138730264Y-86733500D01*
X138790602Y-86879171D01*
X138790609Y-86879184D01*
X138878210Y-87010287D01*
X138878213Y-87010291D01*
X138989707Y-87121785D01*
X138989711Y-87121788D01*
X139120814Y-87209389D01*
X139120827Y-87209396D01*
X139175614Y-87232089D01*
X139266503Y-87269736D01*
X139421153Y-87300498D01*
X139421156Y-87300499D01*
X139421158Y-87300499D01*
X139578844Y-87300499D01*
X139578845Y-87300498D01*
X139733497Y-87269736D01*
X139879179Y-87209393D01*
X140010289Y-87121788D01*
X140121789Y-87010288D01*
X140209394Y-86879178D01*
X140210761Y-86875879D01*
X140223067Y-86846165D01*
X140269737Y-86733496D01*
X140300500Y-86578841D01*
X140300500Y-86421157D01*
X140300500Y-86421154D01*
X140300499Y-86421152D01*
X140269738Y-86266509D01*
X140269737Y-86266502D01*
X140269735Y-86266497D01*
X140209397Y-86120826D01*
X140209390Y-86120813D01*
X140121789Y-85989710D01*
X140121786Y-85989706D01*
X140010292Y-85878212D01*
X140010288Y-85878209D01*
X139879185Y-85790608D01*
X139879172Y-85790601D01*
X139733501Y-85730263D01*
X139733489Y-85730260D01*
X139578845Y-85699499D01*
X139578842Y-85699499D01*
X139421158Y-85699499D01*
X139421155Y-85699499D01*
X139266510Y-85730260D01*
X139266498Y-85730263D01*
X139120827Y-85790601D01*
X139120814Y-85790608D01*
X138989711Y-85878209D01*
X138989707Y-85878212D01*
X138878213Y-85989706D01*
X138878210Y-85989710D01*
X138790609Y-86120813D01*
X138790602Y-86120826D01*
X138730264Y-86266497D01*
X138730261Y-86266509D01*
X138699500Y-86421152D01*
X137642458Y-86421152D01*
X137636096Y-86405792D01*
X137611194Y-86345672D01*
X137611187Y-86345659D01*
X137523586Y-86214556D01*
X137523583Y-86214552D01*
X137412089Y-86103058D01*
X137412085Y-86103055D01*
X137280982Y-86015454D01*
X137280969Y-86015447D01*
X137135298Y-85955109D01*
X137135286Y-85955106D01*
X136980642Y-85924345D01*
X136980639Y-85924345D01*
X136822955Y-85924345D01*
X136822952Y-85924345D01*
X136668307Y-85955106D01*
X136668295Y-85955109D01*
X136522624Y-86015447D01*
X136522611Y-86015454D01*
X136391508Y-86103055D01*
X136391504Y-86103058D01*
X136280010Y-86214552D01*
X136280007Y-86214556D01*
X136192406Y-86345659D01*
X136192399Y-86345672D01*
X136132061Y-86491343D01*
X136132058Y-86491355D01*
X136101297Y-86645998D01*
X136101297Y-86803691D01*
X136132058Y-86958334D01*
X136132060Y-86958342D01*
X136139973Y-86977446D01*
X136147440Y-87046916D01*
X136139972Y-87072349D01*
X136080264Y-87216498D01*
X136080261Y-87216510D01*
X136049500Y-87371153D01*
X136049500Y-87517059D01*
X136029815Y-87584098D01*
X136013182Y-87604739D01*
X135978212Y-87639709D01*
X135978208Y-87639714D01*
X135890609Y-87770814D01*
X135890602Y-87770827D01*
X135830264Y-87916498D01*
X135830261Y-87916510D01*
X135799500Y-88071153D01*
X134560925Y-88071153D01*
X134593934Y-88038144D01*
X134654694Y-87977385D01*
X134656195Y-87975883D01*
X134656198Y-87975880D01*
X134743803Y-87844770D01*
X134750259Y-87829185D01*
X134804144Y-87699092D01*
X134804146Y-87699088D01*
X134834909Y-87544433D01*
X134834909Y-87386749D01*
X134834909Y-87386746D01*
X134834908Y-87386744D01*
X134824036Y-87332089D01*
X134804146Y-87232094D01*
X134761002Y-87127934D01*
X134743806Y-87086418D01*
X134743804Y-87086414D01*
X134743803Y-87086412D01*
X134692400Y-87009482D01*
X134671522Y-86942805D01*
X134690006Y-86875425D01*
X134692400Y-86871700D01*
X134737842Y-86803691D01*
X134743803Y-86794770D01*
X134804146Y-86649088D01*
X134834909Y-86494433D01*
X134834909Y-86336749D01*
X134834909Y-86336746D01*
X134834908Y-86336744D01*
X134804147Y-86182101D01*
X134804146Y-86182094D01*
X134804144Y-86182089D01*
X134743806Y-86036418D01*
X134743799Y-86036405D01*
X134656198Y-85905302D01*
X134656195Y-85905298D01*
X134544701Y-85793804D01*
X134544697Y-85793801D01*
X134413594Y-85706200D01*
X134413581Y-85706193D01*
X134267910Y-85645855D01*
X134267898Y-85645852D01*
X134113254Y-85615091D01*
X134113251Y-85615091D01*
X133955567Y-85615091D01*
X133955564Y-85615091D01*
X133800919Y-85645852D01*
X133800907Y-85645855D01*
X133655236Y-85706193D01*
X133655223Y-85706200D01*
X133524120Y-85793801D01*
X133524116Y-85793804D01*
X133497090Y-85820831D01*
X133435767Y-85854316D01*
X133366075Y-85849332D01*
X133321728Y-85820831D01*
X133244701Y-85743804D01*
X133244697Y-85743801D01*
X133113594Y-85656200D01*
X133113581Y-85656193D01*
X132967910Y-85595855D01*
X132967898Y-85595852D01*
X132813254Y-85565091D01*
X132813251Y-85565091D01*
X132655567Y-85565091D01*
X132655564Y-85565091D01*
X132500919Y-85595852D01*
X132500907Y-85595855D01*
X132355236Y-85656193D01*
X132355223Y-85656200D01*
X132224120Y-85743801D01*
X132224116Y-85743804D01*
X132112622Y-85855298D01*
X132112619Y-85855302D01*
X132025018Y-85986405D01*
X132025011Y-85986418D01*
X131964673Y-86132089D01*
X131964670Y-86132101D01*
X131933909Y-86286744D01*
X106073423Y-86286744D01*
X106056130Y-84775272D01*
X106450000Y-84775272D01*
X106456401Y-84834800D01*
X106456403Y-84834807D01*
X106506645Y-84969514D01*
X106506649Y-84969521D01*
X106592809Y-85084615D01*
X106592812Y-85084618D01*
X106707906Y-85170778D01*
X106707913Y-85170782D01*
X106842620Y-85221024D01*
X106842627Y-85221026D01*
X106902155Y-85227427D01*
X106902172Y-85227428D01*
X106950000Y-85227428D01*
X108850000Y-85227428D01*
X108897828Y-85227428D01*
X108897844Y-85227427D01*
X108957372Y-85221026D01*
X108957379Y-85221024D01*
X109092086Y-85170782D01*
X109092093Y-85170778D01*
X109207187Y-85084618D01*
X109207190Y-85084615D01*
X109293350Y-84969521D01*
X109293354Y-84969514D01*
X109343596Y-84834807D01*
X109343598Y-84834800D01*
X109349999Y-84775272D01*
X109350000Y-84775255D01*
X109350000Y-84727428D01*
X108850000Y-84727428D01*
X108850000Y-85227428D01*
X106950000Y-85227428D01*
X106950000Y-84727428D01*
X106450000Y-84727428D01*
X106450000Y-84775272D01*
X106056130Y-84775272D01*
X106043812Y-83698635D01*
X107100000Y-83698635D01*
X107100000Y-83856221D01*
X107130743Y-84010779D01*
X107191049Y-84156370D01*
X107278599Y-84287398D01*
X107390030Y-84398829D01*
X107521058Y-84486379D01*
X107666649Y-84546685D01*
X107821207Y-84577428D01*
X107978793Y-84577428D01*
X108133351Y-84546685D01*
X108278942Y-84486379D01*
X108409970Y-84398829D01*
X108521401Y-84287398D01*
X108608951Y-84156370D01*
X108669257Y-84010779D01*
X108700000Y-83856221D01*
X108700000Y-83698635D01*
X108669257Y-83544077D01*
X108608951Y-83398486D01*
X108521401Y-83267458D01*
X108409970Y-83156027D01*
X108278942Y-83068477D01*
X108133351Y-83008171D01*
X107978793Y-82977428D01*
X107821207Y-82977428D01*
X107666649Y-83008171D01*
X107521058Y-83068477D01*
X107390030Y-83156027D01*
X107278599Y-83267458D01*
X107191049Y-83398486D01*
X107130743Y-83544077D01*
X107100000Y-83698635D01*
X106043812Y-83698635D01*
X106033297Y-82779583D01*
X106450000Y-82779583D01*
X106450000Y-82827428D01*
X106950000Y-82827428D01*
X108850000Y-82827428D01*
X109350000Y-82827428D01*
X109350000Y-82779592D01*
X109349997Y-82779563D01*
X113799500Y-82779563D01*
X113799500Y-84775298D01*
X113799501Y-84775304D01*
X113805908Y-84834911D01*
X113856202Y-84969756D01*
X113856206Y-84969763D01*
X113942452Y-85084972D01*
X113942455Y-85084975D01*
X114057664Y-85171221D01*
X114057671Y-85171225D01*
X114192517Y-85221519D01*
X114192516Y-85221519D01*
X114199444Y-85222263D01*
X114252127Y-85227928D01*
X116247872Y-85227927D01*
X116307483Y-85221519D01*
X116442331Y-85171224D01*
X116557546Y-85084974D01*
X116643796Y-84969759D01*
X116694091Y-84834911D01*
X116700500Y-84775301D01*
X116700499Y-84021153D01*
X134249500Y-84021153D01*
X134249500Y-84178846D01*
X134280261Y-84333489D01*
X134280264Y-84333501D01*
X134340602Y-84479172D01*
X134340609Y-84479185D01*
X134428210Y-84610288D01*
X134428213Y-84610292D01*
X134539707Y-84721786D01*
X134539711Y-84721789D01*
X134670814Y-84809390D01*
X134670827Y-84809397D01*
X134816498Y-84869735D01*
X134816503Y-84869737D01*
X134971153Y-84900499D01*
X134971156Y-84900500D01*
X134971158Y-84900500D01*
X135128844Y-84900500D01*
X135128845Y-84900499D01*
X135283497Y-84869737D01*
X135429179Y-84809394D01*
X135560289Y-84721789D01*
X135671789Y-84610289D01*
X135759394Y-84479179D01*
X135819737Y-84333497D01*
X135850500Y-84178842D01*
X135850500Y-84021158D01*
X135850500Y-84021155D01*
X135850499Y-84021153D01*
X135819738Y-83866510D01*
X135819737Y-83866503D01*
X135801501Y-83822476D01*
X135759397Y-83720827D01*
X135759390Y-83720814D01*
X135671789Y-83589711D01*
X135671786Y-83589707D01*
X135560292Y-83478213D01*
X135560288Y-83478210D01*
X135429185Y-83390609D01*
X135429172Y-83390602D01*
X135283501Y-83330264D01*
X135283489Y-83330261D01*
X135128845Y-83299500D01*
X135128842Y-83299500D01*
X134971158Y-83299500D01*
X134971155Y-83299500D01*
X134816510Y-83330261D01*
X134816498Y-83330264D01*
X134670827Y-83390602D01*
X134670814Y-83390609D01*
X134539711Y-83478210D01*
X134539707Y-83478213D01*
X134428213Y-83589707D01*
X134428210Y-83589711D01*
X134340609Y-83720814D01*
X134340602Y-83720827D01*
X134280264Y-83866498D01*
X134280261Y-83866510D01*
X134249500Y-84021153D01*
X116700499Y-84021153D01*
X116700499Y-83720827D01*
X116700499Y-82779557D01*
X116700498Y-82779551D01*
X116700497Y-82779544D01*
X116694091Y-82719945D01*
X116655984Y-82617776D01*
X116643797Y-82585099D01*
X116643793Y-82585092D01*
X116557547Y-82469883D01*
X116557544Y-82469880D01*
X116442335Y-82383634D01*
X116442328Y-82383630D01*
X116307482Y-82333336D01*
X116307483Y-82333336D01*
X116247883Y-82326929D01*
X116247881Y-82326928D01*
X116247873Y-82326928D01*
X116247864Y-82326928D01*
X114252129Y-82326928D01*
X114252123Y-82326929D01*
X114192516Y-82333336D01*
X114057671Y-82383630D01*
X114057664Y-82383634D01*
X113942455Y-82469880D01*
X113942452Y-82469883D01*
X113856206Y-82585092D01*
X113856202Y-82585099D01*
X113805908Y-82719945D01*
X113799501Y-82779544D01*
X113799501Y-82779551D01*
X113799500Y-82779563D01*
X109349997Y-82779563D01*
X109343598Y-82720055D01*
X109343596Y-82720048D01*
X109293354Y-82585341D01*
X109293350Y-82585334D01*
X109207190Y-82470240D01*
X109207187Y-82470237D01*
X109092093Y-82384077D01*
X109092086Y-82384073D01*
X108957379Y-82333831D01*
X108957372Y-82333829D01*
X108897844Y-82327428D01*
X108850000Y-82327428D01*
X108850000Y-82827428D01*
X106950000Y-82827428D01*
X106950000Y-82327428D01*
X106902155Y-82327428D01*
X106842627Y-82333829D01*
X106842620Y-82333831D01*
X106707913Y-82384073D01*
X106707906Y-82384077D01*
X106592812Y-82470237D01*
X106592809Y-82470240D01*
X106506649Y-82585334D01*
X106506645Y-82585341D01*
X106456403Y-82720048D01*
X106456401Y-82720055D01*
X106450000Y-82779583D01*
X106033297Y-82779583D01*
X105993729Y-79321153D01*
X134483909Y-79321153D01*
X134483909Y-79478846D01*
X134514670Y-79633489D01*
X134514673Y-79633501D01*
X134575011Y-79779172D01*
X134575018Y-79779185D01*
X134662619Y-79910288D01*
X134662622Y-79910292D01*
X134774116Y-80021786D01*
X134774120Y-80021789D01*
X134905223Y-80109390D01*
X134905236Y-80109397D01*
X135050907Y-80169735D01*
X135050912Y-80169737D01*
X135205562Y-80200499D01*
X135205565Y-80200500D01*
X135205567Y-80200500D01*
X135363253Y-80200500D01*
X135363254Y-80200499D01*
X135517906Y-80169737D01*
X135663588Y-80109394D01*
X135794698Y-80021789D01*
X135906198Y-79910289D01*
X135993803Y-79779179D01*
X136054146Y-79633497D01*
X136084909Y-79478842D01*
X136084909Y-79321158D01*
X136084909Y-79321155D01*
X136084908Y-79321153D01*
X136064755Y-79219837D01*
X136054146Y-79166503D01*
X136038502Y-79128734D01*
X135993806Y-79020827D01*
X135993799Y-79020814D01*
X135906198Y-78889711D01*
X135906195Y-78889707D01*
X135794701Y-78778213D01*
X135794697Y-78778210D01*
X135663594Y-78690609D01*
X135663581Y-78690602D01*
X135517910Y-78630264D01*
X135517898Y-78630261D01*
X135363254Y-78599500D01*
X135363251Y-78599500D01*
X135205567Y-78599500D01*
X135205564Y-78599500D01*
X135050919Y-78630261D01*
X135050907Y-78630264D01*
X134905236Y-78690602D01*
X134905223Y-78690609D01*
X134774120Y-78778210D01*
X134774116Y-78778213D01*
X134662622Y-78889707D01*
X134662619Y-78889711D01*
X134575018Y-79020814D01*
X134575011Y-79020827D01*
X134514673Y-79166498D01*
X134514670Y-79166510D01*
X134483909Y-79321153D01*
X105993729Y-79321153D01*
X105984802Y-78540852D01*
X106003718Y-78473593D01*
X106055996Y-78427237D01*
X106107436Y-78415442D01*
X136432406Y-78084392D01*
X136499654Y-78103344D01*
X136545982Y-78155645D01*
X136556680Y-78224691D01*
X136555375Y-78232575D01*
X136533909Y-78340495D01*
X136533909Y-78498183D01*
X136564670Y-78652826D01*
X136564673Y-78652838D01*
X136625011Y-78798509D01*
X136625018Y-78798522D01*
X136712619Y-78929625D01*
X136712622Y-78929629D01*
X136824116Y-79041123D01*
X136824120Y-79041126D01*
X136955223Y-79128727D01*
X136955236Y-79128734D01*
X137046408Y-79166498D01*
X137100912Y-79189074D01*
X137255562Y-79219836D01*
X137255565Y-79219837D01*
X137255567Y-79219837D01*
X137413253Y-79219837D01*
X137413254Y-79219836D01*
X137567906Y-79189074D01*
X137713588Y-79128731D01*
X137844698Y-79041126D01*
X137956198Y-78929626D01*
X138043803Y-78798516D01*
X138104146Y-78652834D01*
X138134909Y-78498179D01*
X138134909Y-78340495D01*
X138134909Y-78340492D01*
X138111874Y-78224691D01*
X138109539Y-78212953D01*
X138115766Y-78143364D01*
X138158628Y-78088186D01*
X138224518Y-78064941D01*
X138229741Y-78064771D01*
X140495363Y-78040038D01*
X140562612Y-78058990D01*
G37*
%TD.AperFunction*%
%TD*%
M02*
