%TF.GenerationSoftware,KiCad,Pcbnew,10.0.0*%
%TF.CreationDate,2026-03-25T21:22:58-04:00*%
%TF.ProjectId,Controller_Circuit,436f6e74-726f-46c6-9c65-725f43697263,rev?*%
%TF.SameCoordinates,Original*%
%TF.FileFunction,Soldermask,Top*%
%TF.FilePolarity,Negative*%
%FSLAX46Y46*%
G04 Gerber Fmt 4.6, Leading zero omitted, Abs format (unit mm)*
G04 Created by KiCad (PCBNEW 10.0.0) date 2026-03-25 21:22:58*
%MOMM*%
%LPD*%
G01*
G04 APERTURE LIST*
G04 Aperture macros list*
%AMRoundRect*
0 Rectangle with rounded corners*
0 $1 Rounding radius*
0 $2 $3 $4 $5 $6 $7 $8 $9 X,Y pos of 4 corners*
0 Add a 4 corners polygon primitive as box body*
4,1,4,$2,$3,$4,$5,$6,$7,$8,$9,$2,$3,0*
0 Add four circle primitives for the rounded corners*
1,1,$1+$1,$2,$3*
1,1,$1+$1,$4,$5*
1,1,$1+$1,$6,$7*
1,1,$1+$1,$8,$9*
0 Add four rect primitives between the rounded corners*
20,1,$1+$1,$2,$3,$4,$5,0*
20,1,$1+$1,$4,$5,$6,$7,0*
20,1,$1+$1,$6,$7,$8,$9,0*
20,1,$1+$1,$8,$9,$2,$3,0*%
G04 Aperture macros list end*
%ADD10RoundRect,0.250000X0.400000X0.625000X-0.400000X0.625000X-0.400000X-0.625000X0.400000X-0.625000X0*%
%ADD11RoundRect,0.250000X0.337500X0.475000X-0.337500X0.475000X-0.337500X-0.475000X0.337500X-0.475000X0*%
%ADD12RoundRect,0.250000X-0.475000X0.337500X-0.475000X-0.337500X0.475000X-0.337500X0.475000X0.337500X0*%
%ADD13C,2.200000*%
%ADD14RoundRect,0.250000X-0.625000X0.400000X-0.625000X-0.400000X0.625000X-0.400000X0.625000X0.400000X0*%
%ADD15RoundRect,0.250000X-0.650000X0.412500X-0.650000X-0.412500X0.650000X-0.412500X0.650000X0.412500X0*%
%ADD16RoundRect,0.250000X0.475000X-0.337500X0.475000X0.337500X-0.475000X0.337500X-0.475000X-0.337500X0*%
%ADD17RoundRect,0.250000X-0.400000X-0.625000X0.400000X-0.625000X0.400000X0.625000X-0.400000X0.625000X0*%
%ADD18RoundRect,0.155000X0.155000X-0.212500X0.155000X0.212500X-0.155000X0.212500X-0.155000X-0.212500X0*%
%ADD19RoundRect,0.250000X-0.337500X-0.475000X0.337500X-0.475000X0.337500X0.475000X-0.337500X0.475000X0*%
%ADD20RoundRect,0.155000X-0.155000X0.212500X-0.155000X-0.212500X0.155000X-0.212500X0.155000X0.212500X0*%
%ADD21RoundRect,0.250000X0.625000X-0.400000X0.625000X0.400000X-0.625000X0.400000X-0.625000X-0.400000X0*%
%ADD22R,1.900000X1.900000*%
%ADD23R,1.600000X2.100000*%
%ADD24R,1.300000X1.050000*%
%ADD25R,0.850000X0.300000*%
%ADD26R,0.300000X0.850000*%
%ADD27R,2.550000X2.550000*%
%ADD28O,0.812800X1.498600*%
%ADD29O,0.812800X1.905000*%
%ADD30R,1.549400X0.508000*%
%ADD31C,1.020000*%
%ADD32R,1.520000X1.520000*%
%ADD33C,1.520000*%
%ADD34C,1.150000*%
%ADD35C,2.560000*%
%ADD36R,1.170000X1.170000*%
%ADD37C,1.170000*%
%ADD38R,0.300000X1.475000*%
%ADD39R,1.475000X0.300000*%
G04 APERTURE END LIST*
D10*
%TO.C,R43*%
X115750000Y-108877428D03*
X112650000Y-108877428D03*
%TD*%
D11*
%TO.C,C61*%
X137187500Y-100650000D03*
X135112500Y-100650000D03*
%TD*%
D12*
%TO.C,C59*%
X126800000Y-88777428D03*
X126800000Y-90852428D03*
%TD*%
D10*
%TO.C,R34*%
X136500000Y-92877428D03*
X133400000Y-92877428D03*
%TD*%
D13*
%TO.C,H24*%
X92655350Y-131742428D03*
%TD*%
D12*
%TO.C,C60*%
X124800000Y-88777428D03*
X124800000Y-90852428D03*
%TD*%
D14*
%TO.C,R35*%
X90484409Y-104615591D03*
X90484409Y-107715591D03*
%TD*%
%TO.C,R49*%
X138500000Y-79600000D03*
X138500000Y-82700000D03*
%TD*%
%TO.C,R37*%
X129000000Y-87677428D03*
X129000000Y-90777428D03*
%TD*%
D13*
%TO.C,H23*%
X92300000Y-77727428D03*
%TD*%
D14*
%TO.C,R48*%
X132050000Y-79627428D03*
X132050000Y-82727428D03*
%TD*%
D15*
%TO.C,C69*%
X138500000Y-91637500D03*
X138500000Y-94762500D03*
%TD*%
D14*
%TO.C,R38*%
X138050000Y-107227428D03*
X138050000Y-110327428D03*
%TD*%
D16*
%TO.C,C68*%
X134250000Y-82784928D03*
X134250000Y-80709928D03*
%TD*%
D17*
%TO.C,R39*%
X112650000Y-106577428D03*
X115750000Y-106577428D03*
%TD*%
%TO.C,R42*%
X112650000Y-104277428D03*
X115750000Y-104277428D03*
%TD*%
D18*
%TO.C,C65*%
X125000000Y-112357428D03*
X125000000Y-111222428D03*
%TD*%
D14*
%TO.C,R40*%
X115600000Y-112065591D03*
X115600000Y-115165591D03*
%TD*%
D19*
%TO.C,C55*%
X113732500Y-97727428D03*
X115807500Y-97727428D03*
%TD*%
D11*
%TO.C,C62*%
X137187500Y-98650000D03*
X135112500Y-98650000D03*
%TD*%
D19*
%TO.C,C63*%
X113732500Y-95727428D03*
X115807500Y-95727428D03*
%TD*%
D16*
%TO.C,C57*%
X126900000Y-111952428D03*
X126900000Y-109877428D03*
%TD*%
D20*
%TO.C,C64*%
X118000000Y-111272428D03*
X118000000Y-112407428D03*
%TD*%
D21*
%TO.C,R36*%
X111000000Y-115165591D03*
X111000000Y-112065591D03*
%TD*%
D16*
%TO.C,C58*%
X128900000Y-111952428D03*
X128900000Y-109877428D03*
%TD*%
D21*
%TO.C,R41*%
X113300000Y-115165591D03*
X113300000Y-112065591D03*
%TD*%
D19*
%TO.C,C56*%
X113732500Y-101727428D03*
X115807500Y-101727428D03*
%TD*%
D16*
%TO.C,C67*%
X136300000Y-82784928D03*
X136300000Y-80709928D03*
%TD*%
D13*
%TO.C,H21*%
X193550000Y-77427428D03*
%TD*%
%TO.C,H22*%
X193300000Y-131727428D03*
%TD*%
D19*
%TO.C,C54*%
X113732500Y-99727428D03*
X115807500Y-99727428D03*
%TD*%
D22*
%TO.C,TP49*%
X159782000Y-95977428D03*
%TD*%
D23*
%TO.C,Q7*%
X135120000Y-109627428D03*
X132580000Y-109627428D03*
X132580000Y-118727428D03*
X135120000Y-118727428D03*
%TD*%
D24*
%TO.C,Y1*%
X122700000Y-111089928D03*
X120400000Y-111089928D03*
X120400000Y-112939928D03*
X122700000Y-112939928D03*
%TD*%
D22*
%TO.C,TP61*%
X159910000Y-109077428D03*
%TD*%
D23*
%TO.C,Q6*%
X93214409Y-110665591D03*
X95754409Y-110665591D03*
X95754409Y-101565591D03*
X93214409Y-101565591D03*
%TD*%
D22*
%TO.C,TP39*%
X115250000Y-83777428D03*
%TD*%
%TO.C,TP57*%
X166290000Y-109077428D03*
%TD*%
%TO.C,TP50*%
X147070000Y-95977428D03*
%TD*%
%TO.C,TP40*%
X104950000Y-95277428D03*
%TD*%
%TO.C,TP62*%
X147184409Y-109115591D03*
%TD*%
%TO.C,TP48*%
X172494000Y-95977428D03*
%TD*%
%TO.C,TP65*%
X102934409Y-102565591D03*
%TD*%
%TO.C,TP45*%
X153426000Y-95977428D03*
%TD*%
D25*
%TO.C,IC2*%
X135450000Y-88327428D03*
X135450000Y-87827428D03*
X135450000Y-87327428D03*
X135450000Y-86827428D03*
X135450000Y-86327428D03*
X135450000Y-85827428D03*
D26*
X134750000Y-85127428D03*
X134250000Y-85127428D03*
X133750000Y-85127428D03*
X133250000Y-85127428D03*
X132750000Y-85127428D03*
X132250000Y-85127428D03*
D25*
X131550000Y-85827428D03*
X131550000Y-86327428D03*
X131550000Y-86827428D03*
X131550000Y-87327428D03*
X131550000Y-87827428D03*
X131550000Y-88327428D03*
D26*
X132250000Y-89027428D03*
X132750000Y-89027428D03*
X133250000Y-89027428D03*
X133750000Y-89027428D03*
X134250000Y-89027428D03*
X134750000Y-89027428D03*
D27*
X133500000Y-87077428D03*
%TD*%
D22*
%TO.C,TP42*%
X189434409Y-99115591D03*
%TD*%
D28*
%TO.C,J28*%
X140747101Y-88649999D03*
D29*
X142897101Y-85850000D03*
D28*
X140747101Y-83050001D03*
D30*
X140997101Y-87150000D03*
X140997101Y-86499999D03*
X140997101Y-85850000D03*
X140997101Y-85200001D03*
X140997101Y-84550000D03*
%TD*%
D22*
%TO.C,TP66*%
X128050000Y-122627428D03*
%TD*%
%TO.C,TP44*%
X166138000Y-95977428D03*
%TD*%
%TO.C,TP58*%
X153634409Y-109065591D03*
%TD*%
%TO.C,TP64*%
X122975000Y-122627428D03*
%TD*%
%TO.C,TP51*%
X93914409Y-120585591D03*
%TD*%
%TO.C,TP76*%
X189400000Y-85894094D03*
%TD*%
D31*
%TO.C,J20*%
X166500000Y-130817428D03*
X145500000Y-130817428D03*
D32*
X148500000Y-126877428D03*
D33*
X151500000Y-126877428D03*
X154500000Y-126877428D03*
X157500000Y-126877428D03*
X160500000Y-126877428D03*
X163500000Y-126877428D03*
X148500000Y-129877428D03*
X151500000Y-129877428D03*
X154500000Y-129877428D03*
X157500000Y-129877428D03*
X160500000Y-129877428D03*
X163500000Y-129877428D03*
%TD*%
D22*
%TO.C,TP41*%
X189400000Y-112860761D03*
%TD*%
D34*
%TO.C,J19*%
X98075350Y-132362428D03*
X98075350Y-131092428D03*
X99345350Y-132362428D03*
X99345350Y-131092428D03*
X100615350Y-132362428D03*
X100615350Y-131092428D03*
X101885350Y-132362428D03*
X101885350Y-131092428D03*
X103155350Y-132362428D03*
X103155350Y-131092428D03*
%TD*%
D22*
%TO.C,TP52*%
X104434409Y-116085591D03*
%TD*%
D35*
%TO.C,J21*%
X186650000Y-129377428D03*
X173350000Y-129377428D03*
D36*
X175500000Y-129377428D03*
D37*
X178500000Y-129377428D03*
X181500000Y-129377428D03*
X184500000Y-129377428D03*
%TD*%
D38*
%TO.C,IC1*%
X129100000Y-94689428D03*
X128600000Y-94689428D03*
X128100000Y-94689428D03*
X127600000Y-94689428D03*
X127100000Y-94689428D03*
X126600000Y-94689428D03*
X126100000Y-94689428D03*
X125600000Y-94689428D03*
X125100000Y-94689428D03*
X124600000Y-94689428D03*
X124100000Y-94689428D03*
X123600000Y-94689428D03*
X123100000Y-94689428D03*
X122600000Y-94689428D03*
X122100000Y-94689428D03*
X121600000Y-94689428D03*
D39*
X119612000Y-96677428D03*
X119612000Y-97177428D03*
X119612000Y-97677428D03*
X119612000Y-98177428D03*
X119612000Y-98677428D03*
X119612000Y-99177428D03*
X119612000Y-99677428D03*
X119612000Y-100177428D03*
X119612000Y-100677428D03*
X119612000Y-101177428D03*
X119612000Y-101677428D03*
X119612000Y-102177428D03*
X119612000Y-102677428D03*
X119612000Y-103177428D03*
X119612000Y-103677428D03*
X119612000Y-104177428D03*
D38*
X121600000Y-106165428D03*
X122100000Y-106165428D03*
X122600000Y-106165428D03*
X123100000Y-106165428D03*
X123600000Y-106165428D03*
X124100000Y-106165428D03*
X124600000Y-106165428D03*
X125100000Y-106165428D03*
X125600000Y-106165428D03*
X126100000Y-106165428D03*
X126600000Y-106165428D03*
X127100000Y-106165428D03*
X127600000Y-106165428D03*
X128100000Y-106165428D03*
X128600000Y-106165428D03*
X129100000Y-106165428D03*
D39*
X131088000Y-104177428D03*
X131088000Y-103677428D03*
X131088000Y-103177428D03*
X131088000Y-102677428D03*
X131088000Y-102177428D03*
X131088000Y-101677428D03*
X131088000Y-101177428D03*
X131088000Y-100677428D03*
X131088000Y-100177428D03*
X131088000Y-99677428D03*
X131088000Y-99177428D03*
X131088000Y-98677428D03*
X131088000Y-98177428D03*
X131088000Y-97677428D03*
X131088000Y-97177428D03*
X131088000Y-96677428D03*
%TD*%
D22*
%TO.C,TP59*%
X117900000Y-122627428D03*
%TD*%
%TO.C,TP56*%
X179050000Y-109077428D03*
%TD*%
%TO.C,TP53*%
X107384409Y-120635591D03*
%TD*%
%TO.C,TP55*%
X100684409Y-120615591D03*
%TD*%
%TO.C,TP54*%
X97234409Y-116165591D03*
%TD*%
%TO.C,TP60*%
X172670000Y-109077428D03*
%TD*%
%TO.C,TP47*%
X189400000Y-92510761D03*
%TD*%
D35*
%TO.C,J18*%
X95934409Y-97277428D03*
X95934409Y-83977428D03*
D36*
X95934409Y-86127428D03*
D37*
X95934409Y-89127428D03*
X95934409Y-92127428D03*
X95934409Y-95127428D03*
%TD*%
D22*
%TO.C,TP38*%
X107900000Y-83777428D03*
%TD*%
%TO.C,TP46*%
X189434409Y-105765590D03*
%TD*%
%TO.C,TP43*%
X178850000Y-95977428D03*
%TD*%
%TO.C,TP63*%
X135200000Y-122677428D03*
%TD*%
D35*
%TO.C,J22*%
X129250000Y-130277428D03*
X115950000Y-130277428D03*
D36*
X118100000Y-130277428D03*
D37*
X121100000Y-130277428D03*
X124100000Y-130277428D03*
X127100000Y-130277428D03*
%TD*%
M02*
