M48
; DRILL file KiCad 10.0.0 date 2026-03-25T21:23:00
; FORMAT={-:-/ absolute / metric / decimal}
; #@! TF.CreationDate,2026-03-25T21:23:00-04:00
; #@! TF.GenerationSoftware,Kicad,Pcbnew,10.0.0
; #@! TF.FileFunction,Plated,1,4,PTH
FMAT,2
METRIC
; #@! TA.AperFunction,Plated,PTH,ViaDrill
T1C0.300
; #@! TA.AperFunction,Plated,PTH,ComponentDrill
T2C0.710
; #@! TA.AperFunction,Plated,PTH,ComponentDrill
T3C1.020
; #@! TA.AperFunction,Plated,PTH,ComponentDrill
T4C1.600
; #@! TA.AperFunction,Plated,PTH,ComponentDrill
T5C2.410
%
G90
G05
T1
X91.4Y-101.566
X97.684Y-110.666
X109.184Y-114.766
X109.484Y-112.116
X111.234Y-105.266
X111.45Y-107.152
X111.45Y-109.8
X112.6Y-98.7
X112.65Y-94.75
X112.65Y-96.75
X112.65Y-100.9
X115.85Y-94.15
X116.75Y-116.4
X117.137Y-103.436
X117.15Y-113.05
X117.15Y-104.163
X117.151Y-102.709
X118.55Y-107.634
X119.15Y-107.1
X120.35Y-105.8
X121.2Y-96.75
X121.25Y-101.2
X121.25Y-101.95
X121.3Y-98.45
X121.35Y-99.5
X121.6Y-95.95
X123.45Y-90.75
X124.65Y-96.25
X125.0Y-110.3
X125.634Y-87.466
X126.75Y-96.25
X126.85Y-104.55
X127.584Y-92.666
X127.65Y-113.1
X127.7Y-96.35
X127.9Y-104.55
X127.934Y-86.216
X128.627Y-100.927
X128.8Y-108.4
X129.034Y-89.516
X129.45Y-98.8
X129.5Y-99.7
X129.55Y-108.1
X130.2Y-112.95
X130.484Y-79.616
X130.673Y-118.727
X132.734Y-86.366
X132.834Y-87.566
X132.975Y-102.025
X133.234Y-104.366
X133.334Y-100.416
X133.684Y-98.816
X133.834Y-102.566
X133.884Y-103.766
X134.034Y-83.866
X134.034Y-86.416
X134.034Y-87.466
X134.034Y-98.116
X134.534Y-103.166
X135.05Y-84.1
X135.284Y-79.4
X136.384Y-107.216
X136.484Y-84.966
X136.6Y-88.15
X136.65Y-91.35
X136.85Y-87.45
X136.902Y-86.725
X137.334Y-78.419
X138.534Y-100.516
X139.5Y-86.5
X139.95Y-91.2
X140.05Y-94.566
T2
X98.075Y-131.092
X98.075Y-132.362
X99.345Y-131.092
X99.345Y-132.362
X100.615Y-131.092
X100.615Y-132.362
X101.885Y-131.092
X101.885Y-132.362
X103.155Y-131.092
X103.155Y-132.362
T3
X95.934Y-86.127
X95.934Y-89.127
X95.934Y-92.127
X95.934Y-95.127
X118.1Y-130.277
X121.1Y-130.277
X124.1Y-130.277
X127.1Y-130.277
X148.5Y-126.877
X148.5Y-129.877
X151.5Y-126.877
X151.5Y-129.877
X154.5Y-126.877
X154.5Y-129.877
X157.5Y-126.877
X157.5Y-129.877
X160.5Y-126.877
X160.5Y-129.877
X163.5Y-126.877
X163.5Y-129.877
X175.5Y-129.377
X178.5Y-129.377
X181.5Y-129.377
X184.5Y-129.377
T4
X93.914Y-120.586
X97.234Y-116.166
X100.684Y-120.616
X102.934Y-102.566
X104.434Y-116.086
X104.95Y-95.277
X107.384Y-120.636
X107.9Y-83.777
X115.25Y-83.777
X117.9Y-122.627
X122.975Y-122.627
X128.05Y-122.627
X135.2Y-122.677
X147.07Y-95.977
X147.184Y-109.116
X153.426Y-95.977
X153.634Y-109.066
X159.782Y-95.977
X159.91Y-109.077
X166.138Y-95.977
X166.29Y-109.077
X172.494Y-95.977
X172.67Y-109.077
X178.85Y-95.977
X179.05Y-109.077
X189.4Y-85.894
X189.4Y-92.511
X189.4Y-112.861
X189.434Y-99.116
X189.434Y-105.766
T5
X95.934Y-83.977
X95.934Y-97.277
X115.95Y-130.277
X129.25Y-130.277
X173.35Y-129.377
X186.65Y-129.377
M30
